ply 
format ascii 1.0 
comment this is a surface 
element vertex 721 
property float x 
property float y 
property float z 
element face 1343 
property list uchar int vertex_index 
end_header 
202.496000 194.611875 -69.120000
202.880000 203.210000 -69.120000
202.160000 203.060000 -69.120000
201.450000 202.850000 -69.120000
200.770000 202.570000 -69.120000
200.100000 202.260000 -69.120000
199.440000 201.930000 -69.120000
198.780000 201.610000 -69.120000
198.110000 201.290000 -69.120000
197.450000 200.970000 -69.120000
196.790000 200.640000 -69.120000
196.140000 200.300000 -69.120000
195.490000 199.950000 -69.120000
194.840000 199.590000 -69.120000
194.250000 199.150000 -69.120000
194.050000 198.470000 -69.120000
193.880000 197.760000 -69.120000
193.670000 197.050000 -69.120000
193.570000 196.320000 -69.120000
193.550000 195.590000 -69.120000
193.550000 194.850000 -69.120000
193.550000 194.110000 -69.120000
193.550000 193.370000 -69.120000
193.560000 192.640000 -69.120000
193.630000 191.900000 -69.120000
193.790000 191.180000 -69.120000
193.950000 190.460000 -69.120000
194.090000 189.740000 -69.120000
194.380000 189.080000 -69.120000
194.940000 188.630000 -69.120000
195.560000 188.230000 -69.120000
196.010000 187.670000 -69.120000
196.540000 187.210000 -69.120000
197.230000 186.960000 -69.120000
197.950000 186.770000 -69.120000
198.660000 186.600000 -69.120000
199.370000 186.400000 -69.120000
200.060000 186.130000 -69.120000
200.730000 185.820000 -69.120000
201.430000 185.610000 -69.120000
202.160000 185.600000 -69.120000
202.890000 185.710000 -69.120000
203.610000 185.840000 -69.120000
204.340000 185.980000 -69.120000
205.060000 186.140000 -69.120000
205.770000 186.320000 -69.120000
206.480000 186.530000 -69.120000
207.160000 186.800000 -69.120000
207.800000 187.160000 -69.120000
208.390000 187.610000 -69.120000
208.920000 188.120000 -69.120000
209.420000 188.670000 -69.120000
209.910000 189.220000 -69.120000
210.410000 189.760000 -69.120000
210.770000 190.340000 -69.120000
210.650000 191.060000 -69.120000
210.640000 191.740000 -69.120000
210.880000 192.400000 -69.120000
210.890000 193.140000 -69.120000
210.890000 193.880000 -69.120000
210.890000 194.610000 -69.120000
210.890000 195.350000 -69.120000
210.890000 196.090000 -69.120000
210.890000 196.830000 -69.120000
210.890000 197.560000 -69.120000
210.850000 198.300000 -69.120000
210.610000 198.970000 -69.120000
210.040000 199.420000 -69.120000
209.590000 199.970000 -69.120000
209.190000 200.590000 -69.120000
208.850000 201.240000 -69.120000
208.570000 201.920000 -69.120000
208.040000 202.340000 -69.120000
207.320000 202.440000 -69.120000
206.910000 202.910000 -69.120000
206.560000 203.540000 -69.120000
205.820000 203.520000 -69.120000
205.090000 203.470000 -69.120000
204.350000 203.400000 -69.120000
203.620000 203.320000 -69.120000
202.880000 203.210000 -69.120000
201.670000 210.050000 -60.480000
200.330000 209.720000 -60.480000
199.030000 209.260000 -60.480000
197.760000 208.710000 -60.480000
196.590000 207.990000 -60.480000
195.570000 207.060000 -60.480000
194.650000 206.030000 -60.480000
193.770000 204.960000 -60.480000
192.910000 203.880000 -60.480000
192.110000 202.750000 -60.480000
191.350000 201.600000 -60.480000
190.630000 200.420000 -60.480000
189.920000 199.240000 -60.480000
189.200000 198.060000 -60.480000
188.460000 196.890000 -60.480000
187.660000 195.770000 -60.480000
186.770000 194.720000 -60.480000
185.870000 193.670000 -60.480000
185.050000 192.560000 -60.480000
184.430000 191.320000 -60.480000
184.120000 189.980000 -60.480000
183.910000 188.610000 -60.480000
183.740000 187.240000 -60.480000
183.610000 185.870000 -60.480000
183.520000 184.490000 -60.480000
183.830000 183.140000 -60.480000
184.740000 182.100000 -60.480000
185.850000 181.290000 -60.480000
187.080000 180.650000 -60.480000
188.400000 180.250000 -60.480000
189.780000 180.140000 -60.480000
191.160000 180.140000 -60.480000
192.540000 180.140000 -60.480000
193.920000 180.140000 -60.480000
195.300000 180.140000 -60.480000
196.680000 180.140000 -60.480000
198.060000 180.140000 -60.480000
199.440000 180.140000 -60.480000
200.820000 180.140000 -60.480000
202.200000 180.140000 -60.480000
203.580000 180.140000 -60.480000
204.960000 180.140000 -60.480000
206.340000 180.160000 -60.480000
207.720000 180.300000 -60.480000
209.080000 180.540000 -60.480000
210.420000 180.870000 -60.480000
211.740000 181.270000 -60.480000
213.030000 181.750000 -60.480000
214.200000 182.480000 -60.480000
215.230000 183.400000 -60.480000
216.160000 184.420000 -60.480000
217.040000 185.480000 -60.480000
217.940000 186.540000 -60.480000
218.820000 187.590000 -60.480000
219.650000 188.700000 -60.480000
220.340000 189.890000 -60.480000
220.780000 191.200000 -60.480000
220.840000 192.580000 -60.480000
220.810000 193.960000 -60.480000
220.770000 195.340000 -60.480000
220.700000 196.720000 -60.480000
220.620000 198.100000 -60.480000
220.510000 199.480000 -60.480000
220.230000 200.830000 -60.480000
219.590000 202.050000 -60.480000
218.760000 203.150000 -60.480000
217.820000 204.160000 -60.480000
216.830000 205.130000 -60.480000
215.810000 206.060000 -60.480000
214.750000 206.950000 -60.480000
213.640000 207.760000 -60.480000
212.460000 208.480000 -60.480000
211.210000 209.070000 -60.480000
209.880000 209.450000 -60.480000
208.520000 209.690000 -60.480000
207.160000 209.890000 -60.480000
205.790000 210.040000 -60.480000
204.410000 210.140000 -60.480000
203.050000 210.180000 -60.480000
203.050000 210.180000 -60.480000
200.240000 214.420000 -51.840000
198.480000 213.850000 -51.840000
196.780000 213.100000 -51.840000
195.120000 212.290000 -51.840000
193.500000 211.410000 -51.840000
191.950000 210.390000 -51.840000
190.480000 209.270000 -51.840000
189.070000 208.070000 -51.840000
187.720000 206.810000 -51.840000
186.400000 205.510000 -51.840000
185.110000 204.190000 -51.840000
183.850000 202.840000 -51.840000
182.650000 201.430000 -51.840000
181.560000 199.930000 -51.840000
180.660000 198.320000 -51.840000
179.940000 196.610000 -51.840000
179.290000 194.880000 -51.840000
178.720000 193.120000 -51.840000
178.290000 191.320000 -51.840000
178.060000 189.490000 -51.840000
178.050000 187.640000 -51.840000
178.150000 185.790000 -51.840000
178.330000 183.950000 -51.840000
178.570000 182.120000 -51.840000
178.880000 180.290000 -51.840000
179.250000 178.480000 -51.840000
179.800000 176.720000 -51.840000
180.610000 175.050000 -51.840000
181.630000 173.510000 -51.840000
182.830000 172.110000 -51.840000
184.230000 170.890000 -51.840000
185.850000 170.010000 -51.840000
187.580000 169.350000 -51.840000
189.360000 168.850000 -51.840000
191.190000 168.590000 -51.840000
193.040000 168.690000 -51.840000
194.830000 169.160000 -51.840000
196.540000 169.850000 -51.840000
198.210000 170.650000 -51.840000
199.870000 171.460000 -51.840000
201.570000 172.200000 -51.840000
203.310000 172.810000 -51.840000
205.080000 173.370000 -51.840000
206.850000 173.900000 -51.840000
208.620000 174.450000 -51.840000
210.370000 175.050000 -51.840000
212.080000 175.730000 -51.840000
213.750000 176.530000 -51.840000
215.360000 177.450000 -51.840000
216.900000 178.470000 -51.840000
218.360000 179.610000 -51.840000
219.700000 180.890000 -51.840000
220.890000 182.300000 -51.840000
221.980000 183.790000 -51.840000
222.910000 185.390000 -51.840000
223.600000 187.100000 -51.840000
224.010000 188.910000 -51.840000
224.330000 190.730000 -51.840000
224.600000 192.560000 -51.840000
224.820000 194.400000 -51.840000
224.970000 196.240000 -51.840000
225.020000 198.090000 -51.840000
224.810000 199.930000 -51.840000
224.180000 201.670000 -51.840000
223.300000 203.290000 -51.840000
222.280000 204.840000 -51.840000
221.180000 206.330000 -51.840000
220.060000 207.800000 -51.840000
218.890000 209.220000 -51.840000
217.630000 210.580000 -51.840000
216.270000 211.830000 -51.840000
214.770000 212.910000 -51.840000
213.090000 213.700000 -51.840000
211.270000 214.040000 -51.840000
209.440000 214.260000 -51.840000
207.590000 214.420000 -51.840000
205.750000 214.550000 -51.840000
203.900000 214.630000 -51.840000
202.070000 214.660000 -51.840000
202.070000 214.660000 -51.840000
198.810000 218.680000 -43.200000
196.690000 218.130000 -43.200000
194.590000 217.500000 -43.200000
192.530000 216.760000 -43.200000
190.580000 215.760000 -43.200000
188.740000 214.570000 -43.200000
187.000000 213.240000 -43.200000
185.340000 211.810000 -43.200000
183.750000 210.300000 -43.200000
182.220000 208.730000 -43.200000
180.780000 207.080000 -43.200000
179.450000 205.340000 -43.200000
178.220000 203.530000 -43.200000
177.090000 201.650000 -43.200000
176.060000 199.720000 -43.200000
175.070000 197.760000 -43.200000
174.090000 195.800000 -43.200000
173.210000 193.790000 -43.200000
172.550000 191.710000 -43.200000
172.300000 189.530000 -43.200000
172.500000 187.350000 -43.200000
172.990000 185.210000 -43.200000
173.660000 183.120000 -43.200000
174.450000 181.080000 -43.200000
175.280000 179.050000 -43.200000
176.110000 177.020000 -43.200000
176.920000 174.990000 -43.200000
177.780000 172.970000 -43.200000
178.760000 171.010000 -43.200000
179.950000 169.170000 -43.200000
181.530000 167.650000 -43.200000
183.560000 166.830000 -43.200000
185.680000 166.270000 -43.200000
187.830000 165.860000 -43.200000
190.010000 165.580000 -43.200000
192.190000 165.440000 -43.200000
194.380000 165.530000 -43.200000
196.550000 165.850000 -43.200000
198.700000 166.290000 -43.200000
200.840000 166.760000 -43.200000
202.990000 167.200000 -43.200000
205.140000 167.620000 -43.200000
207.280000 168.050000 -43.200000
209.430000 168.520000 -43.200000
211.550000 169.050000 -43.200000
213.650000 169.660000 -43.200000
215.720000 170.400000 -43.200000
217.700000 171.340000 -43.200000
219.510000 172.570000 -43.200000
221.150000 174.030000 -43.200000
222.590000 175.680000 -43.200000
223.800000 177.510000 -43.200000
224.810000 179.450000 -43.200000
225.640000 181.480000 -43.200000
226.350000 183.550000 -43.200000
227.000000 185.640000 -43.200000
227.480000 187.780000 -43.200000
227.660000 189.960000 -43.200000
227.610000 192.160000 -43.200000
227.480000 194.340000 -43.200000
227.280000 196.530000 -43.200000
227.040000 198.700000 -43.200000
226.700000 200.870000 -43.200000
226.170000 202.990000 -43.200000
225.450000 205.060000 -43.200000
224.550000 207.060000 -43.200000
223.490000 208.980000 -43.200000
222.170000 210.730000 -43.200000
220.550000 212.210000 -43.200000
218.790000 213.510000 -43.200000
216.970000 214.730000 -43.200000
215.180000 215.990000 -43.200000
213.410000 217.290000 -43.200000
211.590000 218.510000 -43.200000
209.630000 219.480000 -43.200000
207.480000 219.910000 -43.200000
205.290000 219.800000 -43.200000
203.110000 219.540000 -43.200000
200.950000 219.160000 -43.200000
200.950000 219.160000 -43.200000
199.090000 222.550000 -34.560000
196.690000 221.980000 -34.560000
194.310000 221.300000 -34.560000
192.030000 220.360000 -34.560000
189.900000 219.120000 -34.560000
187.900000 217.670000 -34.560000
186.020000 216.070000 -34.560000
184.240000 214.360000 -34.560000
182.560000 212.560000 -34.560000
181.040000 210.610000 -34.560000
179.680000 208.550000 -34.560000
178.450000 206.410000 -34.560000
177.280000 204.240000 -34.560000
176.130000 202.050000 -34.560000
174.900000 199.910000 -34.560000
173.620000 197.800000 -34.560000
172.440000 195.640000 -34.560000
171.510000 193.350000 -34.560000
171.100000 190.910000 -34.560000
171.140000 188.450000 -34.560000
171.260000 185.980000 -34.560000
171.430000 183.520000 -34.560000
171.670000 181.060000 -34.560000
171.970000 178.610000 -34.560000
172.350000 176.170000 -34.560000
173.060000 173.810000 -34.560000
174.180000 171.610000 -34.560000
175.580000 169.580000 -34.560000
177.200000 167.710000 -34.560000
179.010000 166.040000 -34.560000
181.020000 164.600000 -34.560000
183.140000 163.340000 -34.560000
185.370000 162.280000 -34.560000
187.700000 161.470000 -34.560000
190.120000 161.010000 -34.560000
192.590000 160.880000 -34.560000
195.060000 160.790000 -34.560000
197.520000 160.720000 -34.560000
199.990000 160.680000 -34.560000
202.460000 160.650000 -34.560000
204.930000 160.680000 -34.560000
207.370000 161.020000 -34.560000
209.760000 161.640000 -34.560000
212.080000 162.500000 -34.560000
214.320000 163.520000 -34.560000
216.500000 164.680000 -34.560000
218.610000 165.960000 -34.560000
220.650000 167.350000 -34.560000
222.440000 169.050000 -34.560000
223.970000 170.980000 -34.560000
225.360000 173.030000 -34.560000
226.680000 175.110000 -34.560000
227.970000 177.220000 -34.560000
229.180000 179.370000 -34.560000
230.270000 181.580000 -34.560000
231.160000 183.880000 -34.560000
231.860000 186.250000 -34.560000
232.470000 188.640000 -34.560000
232.860000 191.080000 -34.560000
232.870000 193.550000 -34.560000
232.520000 195.990000 -34.560000
231.940000 198.390000 -34.560000
231.230000 200.760000 -34.560000
230.300000 203.040000 -34.560000
228.980000 205.130000 -34.560000
227.480000 207.090000 -34.560000
225.930000 209.010000 -34.560000
224.410000 210.950000 -34.560000
222.880000 212.890000 -34.560000
221.290000 214.770000 -34.560000
219.580000 216.560000 -34.560000
217.720000 218.180000 -34.560000
215.640000 219.510000 -34.560000
213.420000 220.580000 -34.560000
211.140000 221.540000 -34.560000
208.810000 222.340000 -34.560000
206.410000 222.900000 -34.560000
203.990000 223.120000 -34.560000
203.990000 223.120000 -34.560000
201.520000 222.960000 -34.560000
199.010000 222.280000 -25.920000
196.500000 221.880000 -25.920000
194.020000 221.320000 -25.920000
191.570000 220.650000 -25.920000
189.180000 219.790000 -25.920000
186.900000 218.660000 -25.920000
184.740000 217.330000 -25.920000
182.680000 215.840000 -25.920000
180.740000 214.200000 -25.920000
178.910000 212.430000 -25.920000
177.270000 210.490000 -25.920000
175.820000 208.410000 -25.920000
174.520000 206.220000 -25.920000
173.370000 203.960000 -25.920000
172.360000 201.620000 -25.920000
171.420000 199.260000 -25.920000
170.520000 196.890000 -25.920000
169.730000 194.470000 -25.920000
169.140000 192.000000 -25.920000
168.880000 189.470000 -25.920000
168.990000 186.930000 -25.920000
169.310000 184.410000 -25.920000
169.800000 181.920000 -25.920000
170.410000 179.450000 -25.920000
171.110000 177.010000 -25.920000
171.880000 174.580000 -25.920000
172.790000 172.210000 -25.920000
173.900000 169.920000 -25.920000
175.200000 167.740000 -25.920000
176.750000 165.720000 -25.920000
178.620000 164.010000 -25.920000
180.820000 162.740000 -25.920000
183.120000 161.650000 -25.920000
185.490000 160.730000 -25.920000
187.910000 159.960000 -25.920000
190.380000 159.360000 -25.920000
192.890000 158.970000 -25.920000
195.430000 158.830000 -25.920000
197.970000 158.890000 -25.920000
200.500000 159.060000 -25.920000
203.030000 159.310000 -25.920000
205.550000 159.640000 -25.920000
208.060000 160.040000 -25.920000
210.550000 160.540000 -25.920000
212.920000 161.480000 -25.920000
215.110000 162.760000 -25.920000
217.170000 164.250000 -25.920000
219.140000 165.850000 -25.920000
221.090000 167.480000 -25.920000
223.010000 169.150000 -25.920000
224.810000 170.940000 -25.920000
226.350000 172.970000 -25.920000
227.550000 175.200000 -25.920000
228.660000 177.490000 -25.920000
229.690000 179.810000 -25.920000
230.620000 182.180000 -25.920000
231.430000 184.590000 -25.920000
232.110000 187.040000 -25.920000
232.620000 189.520000 -25.920000
232.940000 192.050000 -25.920000
232.990000 194.590000 -25.920000
232.570000 197.090000 -25.920000
231.800000 199.510000 -25.920000
230.830000 201.870000 -25.920000
229.780000 204.180000 -25.920000
228.470000 206.360000 -25.920000
226.930000 208.370000 -25.920000
225.240000 210.280000 -25.920000
223.500000 212.120000 -25.920000
221.760000 213.980000 -25.920000
220.060000 215.870000 -25.920000
218.290000 217.690000 -25.920000
216.330000 219.310000 -25.920000
214.060000 220.460000 -25.920000
211.610000 221.130000 -25.920000
209.130000 221.660000 -25.920000
206.620000 222.070000 -25.920000
204.090000 222.340000 -25.920000
201.550000 222.440000 -25.920000
201.550000 222.440000 -25.920000
197.720000 224.480000 -17.280000
195.170000 223.780000 -17.280000
192.690000 222.870000 -17.280000
190.240000 221.880000 -17.280000
187.850000 220.740000 -17.280000
185.560000 219.420000 -17.280000
183.370000 217.940000 -17.280000
181.260000 216.340000 -17.280000
179.240000 214.640000 -17.280000
177.280000 212.860000 -17.280000
175.390000 211.020000 -17.280000
173.580000 209.080000 -17.280000
171.930000 207.020000 -17.280000
170.510000 204.790000 -17.280000
169.460000 202.360000 -17.280000
168.550000 199.880000 -17.280000
167.750000 197.360000 -17.280000
167.100000 194.790000 -17.280000
166.650000 192.190000 -17.280000
166.460000 189.550000 -17.280000
166.560000 186.910000 -17.280000
166.880000 184.280000 -17.280000
167.370000 181.680000 -17.280000
167.970000 179.110000 -17.280000
168.670000 176.560000 -17.280000
169.430000 174.030000 -17.280000
170.360000 171.550000 -17.280000
171.490000 169.160000 -17.280000
172.850000 166.890000 -17.280000
174.490000 164.820000 -17.280000
176.570000 163.180000 -17.280000
178.910000 161.960000 -17.280000
181.380000 161.000000 -17.280000
183.930000 160.310000 -17.280000
186.550000 159.960000 -17.280000
189.190000 159.760000 -17.280000
191.830000 159.590000 -17.280000
194.470000 159.450000 -17.280000
197.110000 159.350000 -17.280000
199.760000 159.280000 -17.280000
202.400000 159.260000 -17.280000
205.030000 159.490000 -17.280000
207.560000 160.260000 -17.280000
209.960000 161.380000 -17.280000
212.250000 162.710000 -17.280000
214.470000 164.130000 -17.280000
216.690000 165.570000 -17.280000
218.860000 167.080000 -17.280000
220.920000 168.740000 -17.280000
222.870000 170.540000 -17.280000
224.660000 172.470000 -17.280000
226.300000 174.550000 -17.280000
227.910000 176.650000 -17.280000
229.460000 178.790000 -17.280000
230.920000 181.000000 -17.280000
232.220000 183.300000 -17.280000
233.290000 185.720000 -17.280000
234.020000 188.260000 -17.280000
234.250000 190.900000 -17.280000
234.020000 193.530000 -17.280000
233.550000 196.130000 -17.280000
232.920000 198.700000 -17.280000
232.180000 201.240000 -17.280000
231.250000 203.720000 -17.280000
229.970000 206.030000 -17.280000
228.480000 208.210000 -17.280000
226.860000 210.310000 -17.280000
225.200000 212.360000 -17.280000
223.520000 214.400000 -17.280000
221.780000 216.390000 -17.280000
219.930000 218.290000 -17.280000
217.940000 220.030000 -17.280000
215.750000 221.520000 -17.280000
213.330000 222.580000 -17.280000
210.780000 223.290000 -17.280000
208.200000 223.870000 -17.280000
205.600000 224.340000 -17.280000
202.980000 224.650000 -17.280000
200.350000 224.770000 -17.280000
200.350000 224.770000 -17.280000
198.810000 219.950000 -8.640000
196.130000 219.930000 -8.640000
193.460000 219.890000 -8.640000
190.780000 219.820000 -8.640000
188.140000 219.360000 -8.640000
185.630000 218.450000 -8.640000
183.260000 217.210000 -8.640000
181.020000 215.750000 -8.640000
178.910000 214.090000 -8.640000
176.970000 212.250000 -8.640000
175.410000 210.080000 -8.640000
174.170000 207.710000 -8.640000
173.090000 205.260000 -8.640000
172.070000 202.790000 -8.640000
171.000000 200.340000 -8.640000
169.710000 198.000000 -8.640000
168.320000 195.710000 -8.640000
167.390000 193.200000 -8.640000
167.320000 190.530000 -8.640000
167.390000 187.850000 -8.640000
167.500000 185.180000 -8.640000
167.660000 182.510000 -8.640000
167.860000 179.840000 -8.640000
168.100000 177.180000 -8.640000
168.380000 174.510000 -8.640000
168.740000 171.860000 -8.640000
169.430000 169.280000 -8.640000
170.470000 166.810000 -8.640000
172.010000 164.630000 -8.640000
174.360000 163.350000 -8.640000
176.900000 162.520000 -8.640000
179.490000 161.830000 -8.640000
182.060000 161.090000 -8.640000
184.530000 160.070000 -8.640000
186.950000 158.910000 -8.640000
189.480000 158.040000 -8.640000
192.150000 157.870000 -8.640000
194.820000 157.870000 -8.640000
197.500000 157.870000 -8.640000
200.170000 157.870000 -8.640000
202.850000 157.870000 -8.640000
205.520000 157.880000 -8.640000
208.190000 158.110000 -8.640000
210.790000 158.750000 -8.640000
213.300000 159.670000 -8.640000
215.740000 160.770000 -8.640000
218.130000 161.960000 -8.640000
220.460000 163.280000 -8.640000
222.650000 164.830000 -8.640000
224.690000 166.550000 -8.640000
226.600000 168.420000 -8.640000
228.340000 170.460000 -8.640000
229.950000 172.600000 -8.640000
231.500000 174.770000 -8.640000
232.970000 177.010000 -8.640000
234.270000 179.350000 -8.640000
235.340000 181.800000 -8.640000
236.050000 184.380000 -8.640000
236.250000 187.050000 -8.640000
236.060000 189.720000 -8.640000
235.700000 192.370000 -8.640000
235.200000 195.000000 -8.640000
234.600000 197.600000 -8.640000
233.660000 200.110000 -8.640000
232.390000 202.460000 -8.640000
230.900000 204.690000 -8.640000
229.260000 206.800000 -8.640000
227.510000 208.820000 -8.640000
225.690000 210.790000 -8.640000
223.790000 212.670000 -8.640000
221.780000 214.430000 -8.640000
219.610000 216.000000 -8.640000
217.250000 217.250000 -8.640000
214.690000 218.050000 -8.640000
212.090000 218.670000 -8.640000
209.470000 219.190000 -8.640000
206.820000 219.600000 -8.640000
204.160000 219.870000 -8.640000
201.480000 219.960000 -8.640000
201.480000 219.960000 -8.640000
198.960000 219.910000 0.000000
196.360000 219.590000 0.000000
193.780000 219.150000 0.000000
191.210000 218.610000 0.000000
188.670000 217.980000 0.000000
186.180000 217.150000 0.000000
183.850000 215.960000 0.000000
181.670000 214.510000 0.000000
179.600000 212.890000 0.000000
177.630000 211.160000 0.000000
175.740000 209.350000 0.000000
173.920000 207.460000 0.000000
172.220000 205.470000 0.000000
170.690000 203.350000 0.000000
169.390000 201.070000 0.000000
168.440000 198.630000 0.000000
167.720000 196.110000 0.000000
167.110000 193.560000 0.000000
166.640000 190.980000 0.000000
166.360000 188.380000 0.000000
166.360000 185.750000 0.000000
166.720000 183.160000 0.000000
167.350000 180.620000 0.000000
168.200000 178.140000 0.000000
169.220000 175.720000 0.000000
170.370000 173.370000 0.000000
171.670000 171.090000 0.000000
173.370000 169.100000 0.000000
175.330000 167.370000 0.000000
177.430000 165.790000 0.000000
179.560000 164.270000 0.000000
181.730000 162.800000 0.000000
183.940000 161.390000 0.000000
186.220000 160.100000 0.000000
188.580000 158.960000 0.000000
191.030000 158.020000 0.000000
193.520000 157.220000 0.000000
196.050000 156.530000 0.000000
198.640000 156.130000 0.000000
201.260000 156.200000 0.000000
203.850000 156.600000 0.000000
206.410000 157.180000 0.000000
208.950000 157.820000 0.000000
211.440000 158.620000 0.000000
213.870000 159.600000 0.000000
216.240000 160.730000 0.000000
218.530000 161.990000 0.000000
220.750000 163.390000 0.000000
222.880000 164.920000 0.000000
224.900000 166.580000 0.000000
226.820000 168.370000 0.000000
228.600000 170.290000 0.000000
230.220000 172.350000 0.000000
231.710000 174.500000 0.000000
233.150000 176.700000 0.000000
234.430000 178.980000 0.000000
235.440000 181.400000 0.000000
235.980000 183.960000 0.000000
235.990000 186.580000 0.000000
235.860000 189.200000 0.000000
235.630000 191.810000 0.000000
235.320000 194.410000 0.000000
234.920000 197.000000 0.000000
234.000000 199.460000 0.000000
232.480000 201.590000 0.000000
230.680000 203.500000 0.000000
228.780000 205.300000 0.000000
226.840000 207.060000 0.000000
224.770000 208.670000 0.000000
222.610000 210.150000 0.000000
220.390000 211.540000 0.000000
218.120000 212.860000 0.000000
215.880000 214.210000 0.000000
213.660000 215.610000 0.000000
211.430000 216.980000 0.000000
209.130000 218.240000 0.000000
206.720000 219.280000 0.000000
204.190000 219.940000 0.000000
201.570000 220.080000 0.000000
201.570000 220.080000 0.000000
3 0 80 2
3 0 2 3
3 0 3 4
3 0 4 5
3 0 5 6
3 0 6 7
3 0 7 8
3 0 8 9
3 0 9 10
3 0 10 11
3 0 11 12
3 0 12 13
3 0 13 14
3 0 14 15
3 0 15 16
3 0 16 17
3 0 17 18
3 0 18 19
3 0 19 20
3 0 20 21
3 0 21 22
3 0 22 23
3 0 23 24
3 0 24 25
3 0 25 26
3 0 26 27
3 0 27 28
3 0 28 29
3 0 29 30
3 0 30 31
3 0 31 32
3 0 32 33
3 0 33 34
3 0 34 35
3 0 35 36
3 0 36 37
3 0 37 38
3 0 38 39
3 0 39 40
3 0 40 41
3 0 41 42
3 0 42 43
3 0 43 44
3 0 44 45
3 0 45 46
3 0 46 47
3 0 47 48
3 0 48 49
3 0 49 50
3 0 50 51
3 0 51 52
3 0 52 53
3 0 53 54
3 0 54 55
3 0 55 56
3 0 56 57
3 0 57 58
3 0 58 59
3 0 59 60
3 0 60 61
3 0 61 62
3 0 62 63
3 0 63 64
3 0 64 65
3 0 65 66
3 0 66 67
3 0 67 68
3 0 68 69
3 0 69 70
3 0 70 71
3 0 71 72
3 0 72 73
3 0 73 74
3 0 74 75
3 0 75 76
3 0 76 77
3 0 77 78
3 0 78 79
3 0 79 80
3 80 81 82
3 80 82 2
3 2 82 83
3 2 83 3
3 3 83 84
3 3 84 4
3 4 84 85
3 4 85 5
3 5 85 86
3 5 86 6
3 6 86 87
3 6 87 7
3 7 87 88
3 7 88 8
3 8 88 89
3 8 89 9
3 9 89 90
3 9 90 10
3 10 90 91
3 10 91 11
3 11 91 92
3 11 92 12
3 12 92 93
3 12 93 13
3 13 93 94
3 13 94 14
3 14 94 95
3 14 95 15
3 15 95 96
3 15 96 16
3 16 96 97
3 16 97 17
3 17 97 98
3 17 98 18
3 18 98 99
3 18 99 19
3 19 99 100
3 19 100 20
3 20 100 101
3 20 101 21
3 21 101 102
3 21 102 22
3 22 102 103
3 22 103 23
3 23 103 104
3 23 104 24
3 24 104 105
3 24 105 25
3 25 105 106
3 25 106 26
3 26 106 107
3 26 107 27
3 27 107 108
3 27 108 28
3 28 108 109
3 28 109 29
3 29 109 110
3 29 110 30
3 30 110 111
3 30 111 31
3 31 111 112
3 31 112 32
3 32 112 113
3 32 113 33
3 33 113 114
3 33 114 34
3 34 114 115
3 34 115 35
3 35 115 116
3 35 116 36
3 36 116 117
3 36 117 37
3 37 117 118
3 37 118 38
3 38 118 119
3 38 119 39
3 39 119 120
3 39 120 40
3 40 120 121
3 40 121 41
3 41 121 122
3 41 122 42
3 42 122 123
3 42 123 43
3 43 123 124
3 43 124 44
3 44 124 125
3 44 125 45
3 45 125 126
3 45 126 46
3 46 126 127
3 46 127 47
3 47 127 128
3 47 128 48
3 48 128 129
3 48 129 49
3 49 129 130
3 49 130 50
3 50 130 131
3 50 131 51
3 51 131 132
3 51 132 52
3 52 132 133
3 52 133 53
3 53 133 134
3 53 134 54
3 54 134 135
3 54 135 55
3 55 135 136
3 55 136 56
3 56 136 137
3 56 137 57
3 57 137 138
3 57 138 58
3 58 138 139
3 58 139 59
3 59 139 140
3 59 140 60
3 60 140 141
3 60 141 61
3 61 141 142
3 61 142 62
3 62 142 143
3 62 143 63
3 63 143 144
3 63 144 64
3 64 144 145
3 64 145 65
3 65 145 146
3 65 146 66
3 66 146 147
3 66 147 67
3 67 147 148
3 67 148 68
3 68 148 149
3 68 149 69
3 69 149 150
3 69 150 70
3 70 150 151
3 70 151 71
3 71 151 152
3 71 152 72
3 72 152 153
3 72 153 73
3 73 153 154
3 73 154 74
3 74 154 155
3 74 155 75
3 75 155 156
3 75 156 76
3 76 156 157
3 76 157 77
3 77 157 158
3 77 158 78
3 78 158 159
3 78 159 79
3 79 159 80
3 80 159 81
3 81 161 162
3 81 162 82
3 82 162 163
3 82 163 83
3 83 163 164
3 83 164 84
3 84 164 165
3 84 165 85
3 85 165 166
3 85 166 86
3 86 166 167
3 86 167 87
3 87 167 168
3 87 168 88
3 88 168 169
3 88 169 89
3 89 169 170
3 89 170 90
3 90 170 171
3 90 171 91
3 91 171 172
3 91 172 92
3 92 172 173
3 92 173 93
3 93 173 174
3 93 174 94
3 94 174 175
3 94 175 95
3 95 175 176
3 95 176 96
3 96 176 177
3 96 177 97
3 97 177 178
3 97 178 98
3 98 178 179
3 98 179 99
3 99 179 180
3 99 180 100
3 100 180 181
3 100 181 101
3 101 181 182
3 101 182 102
3 102 182 183
3 102 183 103
3 103 183 184
3 103 184 104
3 104 184 185
3 104 185 105
3 105 185 186
3 105 186 106
3 106 186 187
3 106 187 107
3 107 187 188
3 107 188 108
3 108 188 189
3 108 189 109
3 109 189 190
3 109 190 110
3 110 190 191
3 110 191 111
3 111 191 192
3 111 192 112
3 112 192 193
3 112 193 113
3 113 193 194
3 113 194 114
3 114 194 195
3 114 195 115
3 115 195 196
3 115 196 116
3 116 196 197
3 116 197 117
3 117 197 198
3 117 198 118
3 118 198 199
3 118 199 119
3 119 199 200
3 119 200 120
3 120 200 201
3 120 201 121
3 121 201 202
3 121 202 122
3 122 202 203
3 122 203 123
3 123 203 204
3 123 204 124
3 124 204 205
3 124 205 125
3 125 205 206
3 125 206 126
3 126 206 207
3 126 207 127
3 127 207 208
3 127 208 128
3 128 208 209
3 128 209 129
3 129 209 210
3 129 210 130
3 130 210 211
3 130 211 131
3 131 211 212
3 131 212 132
3 132 212 213
3 132 213 133
3 133 213 214
3 133 214 134
3 134 214 215
3 134 215 135
3 135 215 216
3 135 216 136
3 136 216 217
3 136 217 137
3 137 217 218
3 137 218 138
3 138 218 219
3 138 219 139
3 139 219 220
3 139 220 140
3 140 220 221
3 140 221 141
3 141 221 222
3 141 222 142
3 142 222 223
3 142 223 143
3 143 223 224
3 143 224 144
3 144 224 225
3 144 225 145
3 145 225 226
3 145 226 146
3 146 226 227
3 146 227 147
3 147 227 228
3 147 228 148
3 148 228 229
3 148 229 149
3 149 229 230
3 149 230 150
3 150 230 231
3 150 231 151
3 151 231 232
3 151 232 152
3 152 232 233
3 152 233 153
3 153 233 234
3 153 234 154
3 154 234 235
3 154 235 155
3 155 235 236
3 155 236 156
3 156 236 237
3 156 237 157
3 157 237 238
3 157 238 158
3 158 238 239
3 158 239 159
3 159 239 161
3 159 161 81
3 161 241 242
3 161 242 162
3 162 242 243
3 162 243 163
3 163 243 244
3 163 244 164
3 164 244 245
3 164 245 165
3 165 245 246
3 165 246 166
3 166 246 247
3 166 247 167
3 167 247 248
3 167 248 168
3 168 248 249
3 168 249 169
3 169 249 250
3 169 250 170
3 170 250 251
3 170 251 171
3 171 251 252
3 171 252 172
3 172 252 253
3 172 253 173
3 173 253 254
3 173 254 174
3 174 254 255
3 174 255 175
3 175 255 256
3 175 256 176
3 176 256 257
3 176 257 177
3 177 257 258
3 177 258 178
3 178 258 259
3 178 259 179
3 179 259 260
3 179 260 180
3 180 260 261
3 180 261 181
3 181 261 262
3 181 262 182
3 182 262 263
3 182 263 183
3 183 263 264
3 183 264 184
3 184 264 265
3 184 265 185
3 185 265 266
3 185 266 186
3 186 266 267
3 186 267 187
3 187 267 268
3 187 268 188
3 188 268 269
3 188 269 189
3 189 269 270
3 189 270 190
3 190 270 271
3 190 271 191
3 191 271 272
3 191 272 192
3 192 272 273
3 192 273 193
3 193 273 274
3 193 274 194
3 194 274 275
3 194 275 195
3 195 275 276
3 195 276 196
3 196 276 277
3 196 277 197
3 197 277 278
3 197 278 198
3 198 278 279
3 198 279 199
3 199 279 280
3 199 280 200
3 200 280 281
3 200 281 201
3 201 281 282
3 201 282 202
3 202 282 283
3 202 283 203
3 203 283 284
3 203 284 204
3 204 284 285
3 204 285 205
3 205 285 286
3 205 286 206
3 206 286 287
3 206 287 207
3 207 287 288
3 207 288 208
3 208 288 289
3 208 289 209
3 209 289 290
3 209 290 210
3 210 290 291
3 210 291 211
3 211 291 292
3 211 292 212
3 212 292 293
3 212 293 213
3 213 293 294
3 213 294 214
3 214 294 295
3 214 295 215
3 215 295 296
3 215 296 216
3 216 296 297
3 216 297 217
3 217 297 298
3 217 298 218
3 218 298 299
3 218 299 219
3 219 299 300
3 219 300 220
3 220 300 301
3 220 301 221
3 221 301 302
3 221 302 222
3 222 302 303
3 222 303 223
3 223 303 304
3 223 304 224
3 224 304 305
3 224 305 225
3 225 305 306
3 225 306 226
3 226 306 307
3 226 307 227
3 227 307 308
3 227 308 228
3 228 308 309
3 228 309 229
3 229 309 310
3 229 310 230
3 230 310 311
3 230 311 231
3 231 311 312
3 231 312 232
3 232 312 313
3 232 313 233
3 233 313 314
3 233 314 234
3 234 314 315
3 234 315 235
3 235 315 316
3 235 316 236
3 236 316 317
3 236 317 237
3 237 317 318
3 237 318 238
3 238 318 319
3 238 319 239
3 239 319 241
3 239 241 161
3 241 321 322
3 241 322 242
3 242 322 323
3 242 323 243
3 243 323 324
3 243 324 244
3 244 324 325
3 244 325 245
3 245 325 326
3 245 326 246
3 246 326 327
3 246 327 247
3 247 327 328
3 247 328 248
3 248 328 329
3 248 329 249
3 249 329 330
3 249 330 250
3 250 330 331
3 250 331 251
3 251 331 332
3 251 332 252
3 252 332 333
3 252 333 253
3 253 333 334
3 253 334 254
3 254 334 335
3 254 335 255
3 255 335 336
3 255 336 256
3 256 336 337
3 256 337 257
3 257 337 338
3 257 338 258
3 258 338 339
3 258 339 259
3 259 339 340
3 259 340 260
3 260 340 341
3 260 341 261
3 261 341 342
3 261 342 262
3 262 342 343
3 262 343 263
3 263 343 344
3 263 344 264
3 264 344 345
3 264 345 265
3 265 345 346
3 265 346 266
3 266 346 347
3 266 347 267
3 267 347 348
3 267 348 268
3 268 348 349
3 268 349 269
3 269 349 350
3 269 350 270
3 270 350 351
3 270 351 271
3 271 351 352
3 271 352 272
3 272 352 353
3 272 353 273
3 273 353 354
3 273 354 274
3 274 354 355
3 274 355 275
3 275 355 356
3 275 356 276
3 276 356 357
3 276 357 277
3 277 357 358
3 277 358 278
3 278 358 359
3 278 359 279
3 279 359 360
3 279 360 280
3 280 360 361
3 280 361 281
3 281 361 362
3 281 362 282
3 282 362 363
3 282 363 283
3 283 363 364
3 283 364 284
3 284 364 365
3 284 365 285
3 285 365 366
3 285 366 286
3 286 366 367
3 286 367 287
3 287 367 368
3 287 368 288
3 288 368 369
3 288 369 289
3 289 369 370
3 289 370 290
3 290 370 371
3 290 371 291
3 291 371 372
3 291 372 292
3 292 372 373
3 292 373 293
3 293 373 374
3 293 374 294
3 294 374 375
3 294 375 295
3 295 375 376
3 295 376 296
3 296 376 377
3 296 377 297
3 297 377 378
3 297 378 298
3 298 378 379
3 298 379 299
3 299 379 380
3 299 380 300
3 300 380 381
3 300 381 301
3 301 381 382
3 301 382 302
3 302 382 383
3 302 383 303
3 303 383 384
3 303 384 304
3 304 384 385
3 304 385 305
3 305 385 386
3 305 386 306
3 306 386 387
3 306 387 307
3 307 387 388
3 307 388 308
3 308 388 389
3 308 389 309
3 309 389 390
3 309 390 310
3 310 390 391
3 310 391 311
3 311 391 392
3 311 392 312
3 312 392 393
3 312 393 313
3 313 393 394
3 313 394 314
3 314 394 395
3 314 395 315
3 315 395 396
3 315 396 316
3 316 396 397
3 316 397 317
3 317 397 398
3 317 398 318
3 318 398 319
3 319 398 400
3 319 400 321
3 319 321 241
3 321 401 402
3 321 402 322
3 322 402 403
3 322 403 323
3 323 403 404
3 323 404 324
3 324 404 405
3 324 405 325
3 325 405 406
3 325 406 326
3 326 406 407
3 326 407 327
3 327 407 408
3 327 408 328
3 328 408 409
3 328 409 329
3 329 409 410
3 329 410 330
3 330 410 411
3 330 411 331
3 331 411 412
3 331 412 332
3 332 412 413
3 332 413 333
3 333 413 414
3 333 414 334
3 334 414 415
3 334 415 335
3 335 415 416
3 335 416 336
3 336 416 417
3 336 417 337
3 337 417 418
3 337 418 338
3 338 418 419
3 338 419 339
3 339 419 420
3 339 420 340
3 340 420 421
3 340 421 341
3 341 421 422
3 341 422 342
3 342 422 423
3 342 423 343
3 343 423 424
3 343 424 344
3 344 424 425
3 344 425 345
3 345 425 426
3 345 426 346
3 346 426 427
3 346 427 347
3 347 427 428
3 347 428 348
3 348 428 429
3 348 429 349
3 349 429 430
3 349 430 350
3 350 430 431
3 350 431 351
3 351 431 432
3 351 432 352
3 352 432 433
3 352 433 353
3 353 433 434
3 353 434 354
3 354 434 435
3 354 435 355
3 355 435 436
3 355 436 356
3 356 436 437
3 356 437 357
3 357 437 438
3 357 438 358
3 358 438 439
3 358 439 359
3 359 439 440
3 359 440 360
3 360 440 441
3 360 441 361
3 361 441 442
3 361 442 362
3 362 442 443
3 362 443 363
3 363 443 444
3 363 444 364
3 364 444 445
3 364 445 365
3 365 445 446
3 365 446 366
3 366 446 447
3 366 447 367
3 367 447 448
3 367 448 368
3 368 448 449
3 368 449 369
3 369 449 450
3 369 450 370
3 370 450 451
3 370 451 371
3 371 451 452
3 371 452 372
3 372 452 453
3 372 453 373
3 373 453 454
3 373 454 374
3 374 454 455
3 374 455 375
3 375 455 456
3 375 456 376
3 376 456 457
3 376 457 377
3 377 457 458
3 377 458 378
3 378 458 459
3 378 459 379
3 379 459 460
3 379 460 380
3 380 460 461
3 380 461 381
3 381 461 462
3 381 462 382
3 382 462 463
3 382 463 383
3 383 463 464
3 383 464 384
3 384 464 465
3 384 465 385
3 385 465 466
3 385 466 386
3 386 466 467
3 386 467 387
3 387 467 468
3 387 468 388
3 388 468 469
3 388 469 389
3 389 469 470
3 389 470 390
3 390 470 471
3 390 471 391
3 391 471 472
3 391 472 392
3 392 472 473
3 392 473 393
3 393 473 474
3 393 474 394
3 394 474 475
3 394 475 395
3 395 475 476
3 395 476 396
3 396 476 477
3 396 477 397
3 397 477 478
3 397 478 398
3 398 478 479
3 398 479 400
3 400 479 401
3 400 401 321
3 401 481 482
3 401 482 402
3 402 482 483
3 402 483 403
3 403 483 484
3 403 484 404
3 404 484 485
3 404 485 405
3 405 485 486
3 405 486 406
3 406 486 487
3 406 487 407
3 407 487 488
3 407 488 408
3 408 488 489
3 408 489 409
3 409 489 490
3 409 490 410
3 410 490 491
3 410 491 411
3 411 491 492
3 411 492 412
3 412 492 493
3 412 493 413
3 413 493 494
3 413 494 414
3 414 494 495
3 414 495 415
3 415 495 496
3 415 496 416
3 416 496 497
3 416 497 417
3 417 497 498
3 417 498 418
3 418 498 499
3 418 499 419
3 419 499 500
3 419 500 420
3 420 500 501
3 420 501 421
3 421 501 502
3 421 502 422
3 422 502 503
3 422 503 423
3 423 503 504
3 423 504 424
3 424 504 505
3 424 505 425
3 425 505 506
3 425 506 426
3 426 506 507
3 426 507 427
3 427 507 508
3 427 508 428
3 428 508 509
3 428 509 429
3 429 509 510
3 429 510 430
3 430 510 511
3 430 511 431
3 431 511 512
3 431 512 432
3 432 512 513
3 432 513 433
3 433 513 514
3 433 514 434
3 434 514 515
3 434 515 435
3 435 515 516
3 435 516 436
3 436 516 517
3 436 517 437
3 437 517 518
3 437 518 438
3 438 518 519
3 438 519 439
3 439 519 520
3 439 520 440
3 440 520 521
3 440 521 441
3 441 521 522
3 441 522 442
3 442 522 523
3 442 523 443
3 443 523 524
3 443 524 444
3 444 524 525
3 444 525 445
3 445 525 526
3 445 526 446
3 446 526 527
3 446 527 447
3 447 527 528
3 447 528 448
3 448 528 529
3 448 529 449
3 449 529 530
3 449 530 450
3 450 530 531
3 450 531 451
3 451 531 532
3 451 532 452
3 452 532 533
3 452 533 453
3 453 533 534
3 453 534 454
3 454 534 535
3 454 535 455
3 455 535 536
3 455 536 456
3 456 536 537
3 456 537 457
3 457 537 538
3 457 538 458
3 458 538 539
3 458 539 459
3 459 539 540
3 459 540 460
3 460 540 541
3 460 541 461
3 461 541 542
3 461 542 462
3 462 542 543
3 462 543 463
3 463 543 544
3 463 544 464
3 464 544 545
3 464 545 465
3 465 545 546
3 465 546 466
3 466 546 547
3 466 547 467
3 467 547 548
3 467 548 468
3 468 548 549
3 468 549 469
3 469 549 550
3 469 550 470
3 470 550 551
3 470 551 471
3 471 551 552
3 471 552 472
3 472 552 553
3 472 553 473
3 473 553 554
3 473 554 474
3 474 554 555
3 474 555 475
3 475 555 556
3 475 556 476
3 476 556 557
3 476 557 477
3 477 557 558
3 477 558 478
3 478 558 559
3 478 559 479
3 479 559 481
3 479 481 401
3 481 561 562
3 481 562 482
3 482 562 563
3 482 563 483
3 483 563 564
3 483 564 484
3 484 564 565
3 484 565 485
3 485 565 566
3 485 566 486
3 486 566 567
3 486 567 487
3 487 567 568
3 487 568 488
3 488 568 569
3 488 569 489
3 489 569 570
3 489 570 490
3 490 570 571
3 490 571 491
3 491 571 572
3 491 572 492
3 492 572 573
3 492 573 493
3 493 573 574
3 493 574 494
3 494 574 575
3 494 575 495
3 495 575 576
3 495 576 496
3 496 576 577
3 496 577 497
3 497 577 578
3 497 578 498
3 498 578 579
3 498 579 499
3 499 579 580
3 499 580 500
3 500 580 581
3 500 581 501
3 501 581 582
3 501 582 502
3 502 582 583
3 502 583 503
3 503 583 584
3 503 584 504
3 504 584 585
3 504 585 505
3 505 585 586
3 505 586 506
3 506 586 587
3 506 587 507
3 507 587 588
3 507 588 508
3 508 588 589
3 508 589 509
3 509 589 590
3 509 590 510
3 510 590 591
3 510 591 511
3 511 591 592
3 511 592 512
3 512 592 593
3 512 593 513
3 513 593 594
3 513 594 514
3 514 594 595
3 514 595 515
3 515 595 596
3 515 596 516
3 516 596 597
3 516 597 517
3 517 597 598
3 517 598 518
3 518 598 599
3 518 599 519
3 519 599 600
3 519 600 520
3 520 600 601
3 520 601 521
3 521 601 602
3 521 602 522
3 522 602 603
3 522 603 523
3 523 603 604
3 523 604 524
3 524 604 605
3 524 605 525
3 525 605 606
3 525 606 526
3 526 606 607
3 526 607 527
3 527 607 608
3 527 608 528
3 528 608 609
3 528 609 529
3 529 609 610
3 529 610 530
3 530 610 611
3 530 611 531
3 531 611 612
3 531 612 532
3 532 612 613
3 532 613 533
3 533 613 614
3 533 614 534
3 534 614 615
3 534 615 535
3 535 615 616
3 535 616 536
3 536 616 617
3 536 617 537
3 537 617 618
3 537 618 538
3 538 618 619
3 538 619 539
3 539 619 620
3 539 620 540
3 540 620 621
3 540 621 541
3 541 621 622
3 541 622 542
3 542 622 623
3 542 623 543
3 543 623 624
3 543 624 544
3 544 624 625
3 544 625 545
3 545 625 626
3 545 626 546
3 546 626 627
3 546 627 547
3 547 627 628
3 547 628 548
3 548 628 629
3 548 629 549
3 549 629 630
3 549 630 550
3 550 630 631
3 550 631 551
3 551 631 632
3 551 632 552
3 552 632 633
3 552 633 553
3 553 633 634
3 553 634 554
3 554 634 635
3 554 635 555
3 555 635 636
3 555 636 556
3 556 636 637
3 556 637 557
3 557 637 638
3 557 638 558
3 558 638 639
3 558 639 559
3 559 639 561
3 559 561 481
3 561 641 642
3 561 642 562
3 562 642 643
3 562 643 563
3 563 643 644
3 563 644 564
3 564 644 645
3 564 645 565
3 565 645 646
3 565 646 566
3 566 646 647
3 566 647 567
3 567 647 648
3 567 648 568
3 568 648 649
3 568 649 569
3 569 649 650
3 569 650 570
3 570 650 651
3 570 651 571
3 571 651 652
3 571 652 572
3 572 652 653
3 572 653 573
3 573 653 654
3 573 654 574
3 574 654 655
3 574 655 575
3 575 655 656
3 575 656 576
3 576 656 657
3 576 657 577
3 577 657 658
3 577 658 578
3 578 658 659
3 578 659 579
3 579 659 660
3 579 660 580
3 580 660 661
3 580 661 581
3 581 661 662
3 581 662 582
3 582 662 663
3 582 663 583
3 583 663 664
3 583 664 584
3 584 664 665
3 584 665 585
3 585 665 666
3 585 666 586
3 586 666 667
3 586 667 587
3 587 667 668
3 587 668 588
3 588 668 669
3 588 669 589
3 589 669 670
3 589 670 590
3 590 670 671
3 590 671 591
3 591 671 672
3 591 672 592
3 592 672 673
3 592 673 593
3 593 673 674
3 593 674 594
3 594 674 675
3 594 675 595
3 595 675 676
3 595 676 596
3 596 676 677
3 596 677 597
3 597 677 678
3 597 678 598
3 598 678 679
3 598 679 599
3 599 679 680
3 599 680 600
3 600 680 681
3 600 681 601
3 601 681 682
3 601 682 602
3 602 682 683
3 602 683 603
3 603 683 684
3 603 684 604
3 604 684 685
3 604 685 605
3 605 685 686
3 605 686 606
3 606 686 687
3 606 687 607
3 607 687 688
3 607 688 608
3 608 688 689
3 608 689 609
3 609 689 690
3 609 690 610
3 610 690 691
3 610 691 611
3 611 691 692
3 611 692 612
3 612 692 693
3 612 693 613
3 613 693 694
3 613 694 614
3 614 694 695
3 614 695 615
3 615 695 696
3 615 696 616
3 616 696 697
3 616 697 617
3 617 697 698
3 617 698 618
3 618 698 699
3 618 699 619
3 619 699 700
3 619 700 620
3 620 700 701
3 620 701 621
3 621 701 702
3 621 702 622
3 622 702 703
3 622 703 623
3 623 703 704
3 623 704 624
3 624 704 705
3 624 705 625
3 625 705 706
3 625 706 626
3 626 706 707
3 626 707 627
3 627 707 708
3 627 708 628
3 628 708 709
3 628 709 629
3 629 709 710
3 629 710 630
3 630 710 711
3 630 711 631
3 631 711 712
3 631 712 632
3 632 712 713
3 632 713 633
3 633 713 714
3 633 714 634
3 634 714 715
3 634 715 635
3 635 715 716
3 635 716 636
3 636 716 717
3 636 717 637
3 637 717 718
3 637 718 638
3 638 718 719
3 638 719 639
3 639 719 641
3 639 641 561
