ply 
format ascii 1.0 
comment this is a surface 
element vertex 801 
property float x 
property float y 
property float z 
element face 1482 
property list uchar int vertex_index 
end_header 
198.288125 191.734625 -77.760000
200.860000 212.780000 -77.760000
199.140000 212.610000 -77.760000
197.460000 212.330000 -77.760000
195.840000 211.970000 -77.760000
194.270000 211.540000 -77.760000
192.760000 211.070000 -77.760000
191.300000 210.560000 -77.760000
189.900000 210.020000 -77.760000
188.470000 209.290000 -77.760000
187.010000 208.340000 -77.760000
185.610000 207.240000 -77.760000
184.310000 206.020000 -77.760000
183.190000 204.730000 -77.760000
182.290000 203.410000 -77.760000
181.670000 202.100000 -77.760000
181.140000 200.680000 -77.760000
180.640000 199.140000 -77.760000
180.180000 197.510000 -77.760000
179.800000 195.830000 -77.760000
179.510000 194.140000 -77.760000
179.320000 192.450000 -77.760000
179.250000 190.810000 -77.760000
179.290000 189.160000 -77.760000
179.440000 187.440000 -77.760000
179.680000 185.680000 -77.760000
179.990000 183.930000 -77.760000
180.360000 182.230000 -77.760000
180.790000 180.630000 -77.760000
181.260000 179.160000 -77.760000
181.760000 177.880000 -77.760000
182.390000 176.710000 -77.760000
183.320000 175.520000 -77.760000
184.510000 174.320000 -77.760000
185.910000 173.180000 -77.760000
187.450000 172.130000 -77.760000
189.090000 171.220000 -77.760000
190.770000 170.490000 -77.760000
192.430000 170.000000 -77.760000
194.020000 169.780000 -77.760000
195.590000 169.780000 -77.760000
197.270000 169.830000 -77.760000
198.990000 169.910000 -77.760000
200.690000 170.010000 -77.760000
202.280000 170.130000 -77.760000
203.710000 170.300000 -77.760000
205.200000 170.740000 -77.760000
206.730000 171.460000 -77.760000
208.270000 172.400000 -77.760000
209.770000 173.540000 -77.760000
211.190000 174.840000 -77.760000
212.490000 176.230000 -77.760000
213.610000 177.700000 -77.760000
214.520000 179.180000 -77.760000
215.170000 180.650000 -77.760000
215.520000 182.060000 -77.760000
215.660000 183.460000 -77.760000
215.780000 184.970000 -77.760000
215.880000 186.570000 -77.760000
215.980000 188.240000 -77.760000
216.050000 189.960000 -77.760000
216.120000 191.690000 -77.760000
216.160000 193.410000 -77.760000
216.190000 195.100000 -77.760000
216.200000 196.740000 -77.760000
216.100000 198.420000 -77.760000
215.840000 200.160000 -77.760000
215.450000 201.920000 -77.760000
214.950000 203.600000 -77.760000
214.370000 205.150000 -77.760000
213.740000 206.490000 -77.760000
213.070000 207.580000 -77.760000
212.170000 208.590000 -77.760000
211.030000 209.530000 -77.760000
209.670000 210.410000 -77.760000
208.120000 211.200000 -77.760000
206.420000 211.880000 -77.760000
204.580000 212.430000 -77.760000
202.640000 212.850000 -77.760000
202.640000 212.850000 -77.760000
200.860000 212.780000 -77.760000
198.210000 221.880000 -69.120000
195.320000 221.340000 -69.120000
192.540000 220.680000 -69.120000
189.950000 219.890000 -69.120000
187.500000 218.540000 -69.120000
185.170000 216.720000 -69.120000
182.960000 214.630000 -69.120000
182.960000 214.630000 -69.120000
181.800000 211.990000 -69.120000
180.640000 209.360000 -69.120000
179.490000 206.720000 -69.120000
178.350000 204.090000 -69.120000
177.100000 201.470000 -69.120000
175.950000 198.820000 -69.120000
175.200000 196.090000 -69.120000
174.640000 193.270000 -69.120000
174.190000 190.410000 -69.120000
173.780000 187.560000 -69.120000
173.360000 184.710000 -69.120000
173.010000 181.850000 -69.120000
172.820000 178.980000 -69.120000
172.720000 176.080000 -69.120000
172.670000 173.200000 -69.120000
172.760000 170.410000 -69.120000
173.550000 167.720000 -69.120000
174.860000 165.070000 -69.120000
176.340000 162.460000 -69.120000
177.640000 159.840000 -69.120000
178.850000 157.050000 -69.120000
180.280000 154.710000 -69.120000
182.340000 153.190000 -69.120000
185.050000 152.040000 -69.120000
188.020000 151.020000 -69.120000
190.870000 149.920000 -69.120000
193.220000 148.510000 -69.120000
194.950000 146.100000 -69.120000
196.390000 142.920000 -69.120000
197.870000 140.200000 -69.120000
199.680000 139.150000 -69.120000
202.240000 139.370000 -69.120000
205.320000 139.900000 -69.120000
208.380000 140.660000 -69.120000
210.890000 141.610000 -69.120000
212.860000 143.550000 -69.120000
214.670000 146.060000 -69.120000
216.480000 148.330000 -69.120000
218.240000 150.640000 -69.120000
219.990000 152.930000 -69.120000
221.830000 155.120000 -69.120000
223.970000 157.090000 -69.120000
226.550000 158.840000 -69.120000
228.830000 160.640000 -69.120000
230.100000 162.770000 -69.120000
230.980000 165.330000 -69.120000
231.720000 168.180000 -69.120000
232.280000 171.180000 -69.120000
232.610000 174.180000 -69.120000
232.660000 177.030000 -69.120000
232.280000 179.840000 -69.120000
231.560000 182.640000 -69.120000
230.660000 185.430000 -69.120000
229.720000 188.200000 -69.120000
228.870000 190.940000 -69.120000
227.960000 193.670000 -69.120000
226.990000 196.380000 -69.120000
225.970000 199.080000 -69.120000
224.900000 201.750000 -69.120000
223.800000 204.420000 -69.120000
222.690000 207.070000 -69.120000
221.580000 209.780000 -69.120000
220.330000 212.380000 -69.120000
218.800000 214.730000 -69.120000
216.900000 217.150000 -69.120000
214.740000 219.330000 -69.120000
212.390000 220.870000 -69.120000
209.860000 221.620000 -69.120000
206.970000 222.130000 -69.120000
206.970000 222.130000 -69.120000
204.020000 222.350000 -69.120000
201.140000 222.230000 -69.120000
197.260000 228.350000 -60.480000
193.750000 228.130000 -60.480000
190.220000 227.670000 -60.480000
186.830000 227.020000 -60.480000
183.670000 226.150000 -60.480000
180.570000 224.410000 -60.480000
177.770000 222.070000 -60.480000
175.540000 219.600000 -60.480000
173.740000 216.730000 -60.480000
172.200000 213.510000 -60.480000
170.860000 210.220000 -60.480000
169.660000 206.980000 -60.480000
168.560000 203.680000 -60.480000
167.670000 200.320000 -60.480000
167.070000 196.930000 -60.480000
166.680000 193.480000 -60.480000
166.200000 190.050000 -60.480000
165.370000 186.630000 -60.480000
164.340000 183.210000 -60.480000
163.400000 179.820000 -60.480000
162.810000 176.500000 -60.480000
162.960000 173.230000 -60.480000
164.290000 169.940000 -60.480000
166.230000 166.870000 -60.480000
168.410000 164.240000 -60.480000
171.230000 162.160000 -60.480000
174.570000 160.540000 -60.480000
177.280000 158.730000 -60.480000
178.780000 156.020000 -60.480000
179.830000 152.540000 -60.480000
180.760000 148.830000 -60.480000
181.900000 145.460000 -60.480000
183.660000 142.930000 -60.480000
186.570000 141.030000 -60.480000
189.710000 139.200000 -60.480000
192.520000 136.870000 -60.480000
195.290000 134.310000 -60.480000
198.130000 132.270000 -60.480000
201.150000 131.510000 -60.480000
204.550000 131.820000 -60.480000
208.080000 132.500000 -60.480000
211.280000 133.440000 -60.480000
214.210000 135.200000 -60.480000
217.030000 137.420000 -60.480000
219.860000 139.530000 -60.480000
222.900000 141.410000 -60.480000
225.840000 143.370000 -60.480000
228.160000 145.660000 -60.480000
229.900000 148.550000 -60.480000
231.380000 151.800000 -60.480000
232.870000 155.000000 -60.480000
234.680000 158.120000 -60.480000
235.920000 161.320000 -60.480000
235.970000 164.660000 -60.480000
235.850000 168.130000 -60.480000
235.660000 171.640000 -60.480000
235.380000 175.090000 -60.480000
234.660000 178.470000 -60.480000
233.740000 181.840000 -60.480000
233.030000 185.230000 -60.480000
232.740000 188.670000 -60.480000
232.530000 192.140000 -60.480000
232.470000 195.600000 -60.480000
232.840000 199.060000 -60.480000
233.300000 202.500000 -60.480000
233.170000 205.940000 -60.480000
232.230000 209.430000 -60.480000
230.870000 212.560000 -60.480000
228.960000 215.150000 -60.480000
226.190000 217.450000 -60.480000
223.180000 219.480000 -60.480000
220.300000 221.290000 -60.480000
217.290000 222.960000 -60.480000
214.130000 224.460000 -60.480000
210.840000 225.730000 -60.480000
210.840000 225.730000 -60.480000
207.460000 226.870000 -60.480000
207.460000 226.870000 -60.480000
204.070000 227.720000 -60.480000
200.670000 228.220000 -60.480000
196.890000 231.920000 -51.840000
193.480000 231.950000 -51.840000
190.060000 231.740000 -51.840000
186.610000 230.850000 -51.840000
183.300000 229.530000 -51.840000
180.350000 228.050000 -51.840000
177.680000 225.970000 -51.840000
175.220000 223.350000 -51.840000
172.960000 220.610000 -51.840000
170.910000 217.860000 -51.840000
169.030000 214.930000 -51.840000
167.170000 211.990000 -51.840000
165.200000 209.100000 -51.840000
163.570000 206.090000 -51.840000
162.340000 202.860000 -51.840000
161.350000 199.510000 -51.840000
160.550000 196.150000 -51.840000
159.800000 192.740000 -51.840000
159.290000 189.300000 -51.840000
159.210000 185.860000 -51.840000
159.370000 182.380000 -51.840000
159.640000 178.920000 -51.840000
160.030000 175.510000 -51.840000
160.790000 172.040000 -51.840000
161.920000 168.670000 -51.840000
163.290000 165.600000 -51.840000
165.410000 163.020000 -51.840000
168.140000 160.650000 -51.840000
170.230000 157.970000 -51.840000
171.670000 154.840000 -51.840000
173.010000 151.580000 -51.840000
174.610000 148.490000 -51.840000
176.470000 145.350000 -51.840000
178.630000 142.810000 -51.840000
181.280000 140.980000 -51.840000
184.420000 139.280000 -51.840000
187.840000 137.900000 -51.840000
191.330000 137.040000 -51.840000
194.730000 136.860000 -51.840000
198.200000 137.000000 -51.840000
201.720000 137.280000 -51.840000
205.190000 137.670000 -51.840000
208.510000 138.160000 -51.840000
211.820000 139.220000 -51.840000
215.070000 140.810000 -51.840000
218.090000 142.730000 -51.840000
220.750000 144.770000 -51.840000
223.110000 147.240000 -51.840000
225.170000 150.160000 -51.840000
226.830000 153.180000 -51.840000
228.110000 156.400000 -51.840000
229.330000 159.670000 -51.840000
230.750000 162.870000 -51.840000
232.190000 166.070000 -51.840000
233.290000 169.330000 -51.840000
233.860000 172.680000 -51.840000
234.300000 176.120000 -51.840000
234.600000 179.600000 -51.840000
234.680000 183.070000 -51.840000
234.590000 186.530000 -51.840000
234.400000 189.990000 -51.840000
234.070000 193.420000 -51.840000
233.470000 196.840000 -51.840000
232.700000 200.240000 -51.840000
231.880000 203.600000 -51.840000
230.950000 206.980000 -51.840000
229.740000 210.210000 -51.840000
227.920000 213.100000 -51.840000
225.770000 215.860000 -51.840000
223.690000 218.640000 -51.840000
221.450000 221.260000 -51.840000
219.030000 223.790000 -51.840000
216.430000 226.120000 -51.840000
213.640000 228.040000 -51.840000
210.590000 229.670000 -51.840000
207.330000 230.990000 -51.840000
207.330000 230.990000 -51.840000
203.810000 231.520000 -51.840000
203.810000 231.520000 -51.840000
200.330000 231.800000 -51.840000
201.070000 232.430000 -43.200000
197.270000 232.240000 -43.200000
193.490000 232.020000 -43.200000
189.670000 231.730000 -43.200000
185.880000 231.310000 -43.200000
182.240000 230.750000 -43.200000
178.700000 229.640000 -43.200000
175.270000 227.720000 -43.200000
172.280000 225.460000 -43.200000
169.840000 222.810000 -43.200000
167.720000 219.610000 -43.200000
165.710000 216.290000 -43.200000
163.620000 213.120000 -43.200000
161.550000 209.920000 -43.200000
159.830000 206.610000 -43.200000
158.490000 203.100000 -43.200000
157.400000 199.440000 -43.200000
156.960000 195.730000 -43.200000
156.780000 191.970000 -43.200000
156.700000 188.190000 -43.200000
156.770000 184.420000 -43.200000
157.000000 180.650000 -43.200000
157.340000 176.890000 -43.200000
157.750000 173.160000 -43.200000
158.470000 169.470000 -43.200000
159.440000 165.810000 -43.200000
159.440000 165.810000 -43.200000
160.050000 161.940000 -43.200000
161.110000 158.280000 -43.200000
162.460000 154.820000 -43.200000
164.070000 151.560000 -43.200000
166.400000 148.560000 -43.200000
168.810000 145.600000 -43.200000
171.060000 142.460000 -43.200000
173.420000 139.480000 -43.200000
176.130000 137.100000 -43.200000
179.420000 135.290000 -43.200000
182.890000 133.650000 -43.200000
186.230000 131.740000 -43.200000
189.570000 129.790000 -43.200000
192.990000 128.330000 -43.200000
196.630000 127.710000 -43.200000
200.550000 127.290000 -43.200000
204.330000 127.060000 -43.200000
207.570000 127.360000 -43.200000
210.390000 129.490000 -43.200000
213.030000 132.690000 -43.200000
215.720000 135.930000 -43.200000
218.690000 138.340000 -43.200000
221.820000 140.480000 -43.200000
224.530000 143.020000 -43.200000
227.090000 145.940000 -43.200000
229.290000 149.090000 -43.200000
230.850000 152.380000 -43.200000
232.020000 155.890000 -43.200000
232.980000 159.600000 -43.200000
233.710000 163.370000 -43.200000
234.230000 167.090000 -43.200000
234.690000 170.840000 -43.200000
235.000000 174.600000 -43.200000
235.070000 178.370000 -43.200000
234.980000 182.140000 -43.200000
234.800000 185.910000 -43.200000
234.580000 189.660000 -43.200000
234.190000 193.410000 -43.200000
233.580000 197.160000 -43.200000
232.790000 200.860000 -43.200000
231.870000 204.480000 -43.200000
230.600000 208.030000 -43.200000
228.960000 211.460000 -43.200000
227.090000 214.680000 -43.200000
224.830000 217.710000 -43.200000
222.480000 220.690000 -43.200000
220.330000 223.950000 -43.200000
218.170000 227.180000 -43.200000
215.600000 229.540000 -43.200000
212.250000 231.400000 -43.200000
208.530000 232.530000 -43.200000
204.850000 232.560000 -43.200000
201.070000 232.430000 -43.200000
198.830000 234.800000 -34.560000
198.830000 234.800000 -34.560000
198.830000 234.800000 -34.560000
194.670000 234.630000 -34.560000
190.600000 234.200000 -34.560000
186.650000 233.600000 -34.560000
182.740000 232.710000 -34.560000
178.830000 231.190000 -34.560000
175.110000 229.240000 -34.560000
171.740000 227.100000 -34.560000
168.720000 224.640000 -34.560000
165.890000 221.640000 -34.560000
163.300000 218.320000 -34.560000
160.990000 214.870000 -34.560000
158.980000 211.370000 -34.560000
157.300000 207.620000 -34.560000
155.970000 203.790000 -34.560000
154.670000 199.870000 -34.560000
153.570000 195.880000 -34.560000
152.850000 191.870000 -34.560000
152.710000 187.870000 -34.560000
153.090000 183.830000 -34.560000
153.790000 179.780000 -34.560000
154.630000 175.770000 -34.560000
155.620000 171.830000 -34.560000
156.930000 167.960000 -34.560000
157.900000 164.020000 -34.560000
158.670000 160.020000 -34.560000
159.280000 155.990000 -34.560000
159.670000 151.890000 -34.560000
160.000000 147.800000 -34.560000
160.640000 143.940000 -34.560000
162.160000 140.200000 -34.560000
164.330000 136.590000 -34.560000
166.820000 133.180000 -34.560000
169.330000 130.040000 -34.560000
172.170000 127.110000 -34.560000
175.330000 124.430000 -34.560000
178.600000 121.960000 -34.560000
182.080000 119.370000 -34.560000
185.750000 117.890000 -34.560000
189.650000 118.010000 -34.560000
193.770000 118.520000 -34.560000
197.850000 119.250000 -34.560000
201.730000 120.260000 -34.560000
205.520000 121.910000 -34.560000
209.130000 123.870000 -34.560000
212.660000 125.980000 -34.560000
216.190000 128.430000 -34.560000
219.190000 131.210000 -34.560000
221.160000 134.410000 -34.560000
222.430000 138.350000 -34.560000
223.790000 142.280000 -34.560000
225.290000 146.140000 -34.560000
227.640000 149.320000 -34.560000
230.990000 151.970000 -34.560000
232.070000 155.560000 -34.560000
232.530000 159.780000 -34.560000
231.840000 163.770000 -34.560000
230.560000 167.710000 -34.560000
230.980000 171.610000 -34.560000
232.610000 175.490000 -34.560000
233.590000 179.420000 -34.560000
233.450000 183.460000 -34.560000
233.110000 187.550000 -34.560000
232.640000 191.580000 -34.560000
231.830000 195.560000 -34.560000
230.810000 199.530000 -34.560000
229.780000 203.470000 -34.560000
228.720000 207.410000 -34.560000
227.510000 211.290000 -34.560000
226.150000 215.150000 -34.560000
224.620000 218.940000 -34.560000
222.850000 222.570000 -34.560000
220.740000 226.180000 -34.560000
218.160000 229.220000 -34.560000
214.730000 231.490000 -34.560000
210.970000 232.800000 -34.560000
207.110000 233.810000 -34.560000
203.060000 234.520000 -34.560000
199.360000 234.140000 -25.920000
195.250000 234.360000 -25.920000
195.250000 234.360000 -25.920000
191.050000 233.860000 -25.920000
186.810000 233.080000 -25.920000
182.590000 232.300000 -25.920000
178.330000 231.510000 -25.920000
174.370000 230.380000 -25.920000
170.880000 228.160000 -25.920000
167.620000 225.200000 -25.920000
164.340000 222.390000 -25.920000
160.980000 219.680000 -25.920000
158.260000 216.550000 -25.920000
156.030000 212.830000 -25.920000
154.580000 208.910000 -25.920000
153.620000 204.780000 -25.920000
152.850000 200.540000 -25.920000
152.080000 196.350000 -25.920000
151.220000 192.160000 -25.920000
150.470000 187.960000 -25.920000
150.070000 183.750000 -25.920000
150.070000 179.520000 -25.920000
150.180000 175.270000 -25.920000
150.540000 171.010000 -25.920000
150.540000 171.010000 -25.920000
151.310000 166.830000 -25.920000
151.990000 162.640000 -25.920000
152.540000 158.430000 -25.920000
153.050000 154.210000 -25.920000
153.700000 149.970000 -25.920000
154.580000 145.850000 -25.920000
156.260000 142.060000 -25.920000
158.600000 138.430000 -25.920000
160.860000 134.750000 -25.920000
162.770000 130.920000 -25.920000
164.410000 126.990000 -25.920000
165.230000 122.470000 -25.920000
165.820000 118.080000 -25.920000
167.900000 116.240000 -25.920000
172.630000 115.180000 -25.920000
177.170000 114.760000 -25.920000
181.400000 114.540000 -25.920000
185.670000 114.410000 -25.920000
189.930000 114.370000 -25.920000
194.330000 114.370000 -25.920000
198.460000 114.370000 -25.920000
201.790000 116.450000 -25.920000
205.050000 119.600000 -25.920000
208.750000 121.720000 -25.920000
212.300000 124.010000 -25.920000
215.440000 126.880000 -25.920000
218.690000 129.740000 -25.920000
222.100000 132.530000 -25.920000
224.320000 135.780000 -25.920000
225.730000 139.710000 -25.920000
226.810000 143.990000 -25.920000
227.680000 148.220000 -25.920000
228.250000 152.570000 -25.920000
229.300000 156.440000 -25.920000
232.770000 159.530000 -25.920000
233.260000 163.280000 -25.920000
233.260000 167.660000 -25.920000
233.200000 171.970000 -25.920000
232.720000 176.190000 -25.920000
232.030000 180.400000 -25.920000
231.500000 184.620000 -25.920000
231.280000 188.890000 -25.920000
231.130000 193.160000 -25.920000
230.860000 197.360000 -25.920000
229.740000 201.420000 -25.920000
228.230000 205.440000 -25.920000
226.990000 209.650000 -25.920000
225.650000 213.760000 -25.920000
223.870000 217.360000 -25.920000
220.870000 220.310000 -25.920000
217.480000 223.040000 -25.920000
214.230000 225.870000 -25.920000
210.870000 228.530000 -25.920000
207.300000 230.670000 -25.920000
203.430000 232.660000 -25.920000
199.430000 232.860000 -17.280000
195.180000 233.750000 -17.280000
195.180000 233.750000 -17.280000
190.920000 234.050000 -17.280000
186.630000 233.570000 -17.280000
182.350000 232.540000 -17.280000
178.160000 231.420000 -17.280000
174.020000 229.990000 -17.280000
170.010000 228.330000 -17.280000
165.980000 226.360000 -17.280000
162.480000 223.960000 -17.280000
159.770000 220.750000 -17.280000
157.450000 216.920000 -17.280000
155.270000 213.110000 -17.280000
153.270000 209.240000 -17.280000
151.270000 205.320000 -17.280000
149.290000 201.350000 -17.280000
148.540000 197.210000 -17.280000
148.360000 192.850000 -17.280000
148.120000 188.480000 -17.280000
147.660000 184.140000 -17.280000
147.660000 179.810000 -17.280000
148.330000 175.430000 -17.280000
149.420000 171.220000 -17.280000
151.620000 167.440000 -17.280000
153.450000 163.740000 -17.280000
152.290000 159.650000 -17.280000
150.730000 155.380000 -17.280000
150.440000 151.080000 -17.280000
150.650000 146.700000 -17.280000
151.050000 142.400000 -17.280000
152.160000 138.140000 -17.280000
153.710000 134.130000 -17.280000
155.820000 130.370000 -17.280000
158.430000 126.790000 -17.280000
161.220000 123.380000 -17.280000
164.040000 119.750000 -17.280000
167.070000 115.990000 -17.280000
170.430000 113.680000 -17.280000
174.350000 113.350000 -17.280000
178.850000 113.220000 -17.280000
183.270000 113.230000 -17.280000
187.620000 113.740000 -17.280000
191.900000 114.600000 -17.280000
196.040000 115.740000 -17.280000
200.060000 117.480000 -17.280000
204.110000 119.100000 -17.280000
208.180000 120.630000 -17.280000
212.190000 122.320000 -17.280000
216.200000 124.110000 -17.280000
220.100000 126.070000 -17.280000
223.780000 128.300000 -17.280000
227.050000 131.150000 -17.280000
229.630000 134.860000 -17.280000
229.780000 139.030000 -17.280000
229.780000 143.470000 -17.280000
230.570000 147.750000 -17.280000
231.080000 152.040000 -17.280000
230.880000 156.380000 -17.280000
230.670000 160.730000 -17.280000
230.690000 165.080000 -17.280000
230.700000 169.430000 -17.280000
230.670000 173.780000 -17.280000
230.890000 178.110000 -17.280000
231.280000 182.420000 -17.280000
230.420000 186.690000 -17.280000
230.110000 191.020000 -17.280000
229.880000 195.370000 -17.280000
229.570000 199.730000 -17.280000
229.150000 204.050000 -17.280000
228.000000 208.220000 -17.280000
226.130000 212.210000 -17.280000
223.840000 215.850000 -17.280000
221.080000 219.270000 -17.280000
218.380000 222.820000 -17.280000
215.460000 226.070000 -17.280000
212.050000 228.330000 -17.280000
208.100000 230.130000 -17.280000
203.680000 231.320000 -17.280000
203.680000 231.320000 -17.280000
202.580000 234.330000 -8.640000
198.340000 235.910000 -8.640000
193.760000 236.890000 -8.640000
193.760000 236.890000 -8.640000
193.760000 236.890000 -8.640000
189.200000 237.100000 -8.640000
184.690000 236.880000 -8.640000
180.220000 235.850000 -8.640000
175.800000 234.670000 -8.640000
171.400000 233.300000 -8.640000
167.290000 231.530000 -8.640000
163.430000 229.060000 -8.640000
159.870000 226.110000 -8.640000
156.680000 222.930000 -8.640000
153.770000 219.330000 -8.640000
151.340000 215.500000 -8.640000
149.350000 211.400000 -8.640000
147.830000 207.090000 -8.640000
146.600000 202.680000 -8.640000
145.890000 198.180000 -8.640000
145.830000 193.650000 -8.640000
145.790000 189.090000 -8.640000
145.780000 184.520000 -8.640000
145.780000 179.960000 -8.640000
145.780000 175.400000 -8.640000
145.520000 170.870000 -8.640000
144.810000 166.370000 -8.640000
144.870000 161.820000 -8.640000
144.960000 157.260000 -8.640000
144.950000 152.710000 -8.640000
144.860000 148.150000 -8.640000
144.690000 143.560000 -8.640000
144.490000 139.030000 -8.640000
145.530000 134.700000 -8.640000
148.150000 130.600000 -8.640000
151.100000 127.310000 -8.640000
154.820000 124.790000 -8.640000
159.000000 122.550000 -8.640000
162.920000 120.030000 -8.640000
166.810000 117.110000 -8.640000
170.760000 114.620000 -8.640000
174.890000 113.470000 -8.640000
179.360000 113.780000 -8.640000
183.900000 114.580000 -8.640000
188.090000 116.260000 -8.640000
192.250000 118.240000 -8.640000
196.650000 119.580000 -8.640000
201.110000 120.070000 -8.640000
205.520000 118.730000 -8.640000
210.010000 118.170000 -8.640000
214.660000 118.370000 -8.640000
218.900000 119.100000 -8.640000
222.690000 121.940000 -8.640000
226.640000 124.150000 -8.640000
228.420000 128.390000 -8.640000
228.810000 132.880000 -8.640000
228.990000 137.470000 -8.640000
229.380000 142.010000 -8.640000
230.260000 146.490000 -8.640000
230.980000 151.000000 -8.640000
231.370000 155.530000 -8.640000
231.350000 160.070000 -8.640000
231.290000 164.630000 -8.640000
231.210000 169.190000 -8.640000
231.050000 173.740000 -8.640000
230.650000 178.290000 -8.640000
230.550000 182.820000 -8.640000
231.370000 187.330000 -8.640000
232.250000 191.820000 -8.640000
232.210000 196.350000 -8.640000
231.470000 200.920000 -8.640000
230.410000 205.280000 -8.640000
228.690000 209.420000 -8.640000
226.230000 213.380000 -8.640000
223.510000 217.120000 -8.640000
220.610000 220.600000 -8.640000
217.320000 223.790000 -8.640000
213.760000 226.600000 -8.640000
210.040000 229.250000 -8.640000
206.440000 232.160000 -8.640000
202.520000 231.350000 0.000000
198.040000 232.680000 0.000000
193.180000 233.260000 0.000000
193.180000 233.260000 0.000000
193.180000 233.260000 0.000000
188.570000 232.920000 0.000000
183.970000 232.600000 0.000000
179.320000 232.350000 0.000000
174.680000 232.100000 0.000000
170.260000 231.440000 0.000000
166.080000 229.270000 0.000000
162.140000 226.840000 0.000000
158.470000 223.990000 0.000000
155.400000 220.610000 0.000000
152.650000 216.850000 0.000000
149.580000 213.130000 0.000000
147.760000 209.130000 0.000000
147.230000 204.590000 0.000000
146.770000 199.920000 0.000000
146.010000 195.370000 0.000000
145.260000 190.810000 0.000000
144.760000 186.220000 0.000000
144.120000 181.670000 0.000000
143.100000 177.170000 0.000000
141.890000 172.700000 0.000000
140.650000 168.250000 0.000000
139.310000 163.840000 0.000000
138.070000 159.370000 0.000000
137.490000 154.820000 0.000000
137.190000 150.150000 0.000000
137.020000 145.530000 0.000000
137.230000 141.090000 0.000000
138.760000 136.760000 0.000000
141.100000 132.550000 0.000000
143.510000 128.510000 0.000000
145.990000 124.570000 0.000000
148.900000 121.040000 0.000000
152.330000 117.840000 0.000000
156.150000 115.210000 0.000000
160.310000 113.450000 0.000000
164.810000 112.140000 0.000000
169.300000 110.990000 0.000000
173.850000 110.080000 0.000000
178.420000 110.060000 0.000000
183.020000 110.510000 0.000000
187.610000 111.050000 0.000000
192.180000 111.710000 0.000000
196.740000 112.430000 0.000000
201.330000 112.990000 0.000000
205.980000 113.330000 0.000000
210.520000 113.800000 0.000000
214.920000 115.080000 0.000000
219.130000 117.260000 0.000000
222.890000 119.820000 0.000000
226.230000 123.130000 0.000000
229.030000 126.890000 0.000000
230.950000 131.120000 0.000000
230.740000 135.630000 0.000000
230.500000 140.300000 0.000000
230.770000 144.910000 0.000000
230.980000 149.520000 0.000000
230.980000 154.160000 0.000000
230.670000 158.670000 0.000000
228.790000 163.020000 0.000000
228.070000 167.500000 0.000000
227.840000 172.120000 0.000000
227.770000 176.750000 0.000000
228.430000 181.330000 0.000000
228.730000 185.930000 0.000000
228.670000 190.600000 0.000000
228.570000 195.130000 0.000000
227.400000 199.430000 0.000000
225.110000 203.590000 0.000000
222.710000 207.720000 0.000000
220.640000 211.850000 0.000000
218.450000 215.910000 0.000000
216.180000 220.000000 0.000000
213.630000 223.810000 0.000000
210.420000 227.200000 0.000000
206.630000 229.580000 0.000000
3 0 80 2
3 0 2 3
3 0 3 4
3 0 4 5
3 0 5 6
3 0 6 7
3 0 7 8
3 0 8 9
3 0 9 10
3 0 10 11
3 0 11 12
3 0 12 13
3 0 13 14
3 0 14 15
3 0 15 16
3 0 16 17
3 0 17 18
3 0 18 19
3 0 19 20
3 0 20 21
3 0 21 22
3 0 22 23
3 0 23 24
3 0 24 25
3 0 25 26
3 0 26 27
3 0 27 28
3 0 28 29
3 0 29 30
3 0 30 31
3 0 31 32
3 0 32 33
3 0 33 34
3 0 34 35
3 0 35 36
3 0 36 37
3 0 37 38
3 0 38 39
3 0 39 40
3 0 40 41
3 0 41 42
3 0 42 43
3 0 43 44
3 0 44 45
3 0 45 46
3 0 46 47
3 0 47 48
3 0 48 49
3 0 49 50
3 0 50 51
3 0 51 52
3 0 52 53
3 0 53 54
3 0 54 55
3 0 55 56
3 0 56 57
3 0 57 58
3 0 58 59
3 0 59 60
3 0 60 61
3 0 61 62
3 0 62 63
3 0 63 64
3 0 64 65
3 0 65 66
3 0 66 67
3 0 67 68
3 0 68 69
3 0 69 70
3 0 70 71
3 0 71 72
3 0 72 73
3 0 73 74
3 0 74 75
3 0 75 76
3 0 76 77
3 0 77 78
3 0 78 80
3 80 81 82
3 80 82 2
3 2 82 83
3 2 83 3
3 3 83 84
3 3 84 4
3 4 84 85
3 4 85 5
3 5 85 86
3 5 86 6
3 6 86 87
3 6 87 7
3 7 87 8
3 8 87 89
3 8 89 9
3 9 89 90
3 9 90 10
3 10 90 91
3 10 91 11
3 11 91 92
3 11 92 12
3 12 92 93
3 12 93 13
3 13 93 94
3 13 94 14
3 14 94 95
3 14 95 15
3 15 95 96
3 15 96 16
3 16 96 97
3 16 97 17
3 17 97 98
3 17 98 18
3 18 98 99
3 18 99 19
3 19 99 100
3 19 100 20
3 20 100 101
3 20 101 21
3 21 101 102
3 21 102 22
3 22 102 103
3 22 103 23
3 23 103 104
3 23 104 24
3 24 104 105
3 24 105 25
3 25 105 106
3 25 106 26
3 26 106 107
3 26 107 27
3 27 107 108
3 27 108 28
3 28 108 109
3 28 109 29
3 29 109 110
3 29 110 30
3 30 110 111
3 30 111 31
3 31 111 112
3 31 112 32
3 32 112 113
3 32 113 33
3 33 113 114
3 33 114 34
3 34 114 115
3 34 115 35
3 35 115 116
3 35 116 36
3 36 116 117
3 36 117 37
3 37 117 118
3 37 118 38
3 38 118 119
3 38 119 39
3 39 119 120
3 39 120 40
3 40 120 121
3 40 121 41
3 41 121 122
3 41 122 42
3 42 122 123
3 42 123 43
3 43 123 124
3 43 124 44
3 44 124 125
3 44 125 45
3 45 125 126
3 45 126 46
3 46 126 127
3 46 127 47
3 47 127 128
3 47 128 48
3 48 128 129
3 48 129 49
3 49 129 130
3 49 130 50
3 50 130 131
3 50 131 51
3 51 131 132
3 51 132 52
3 52 132 133
3 52 133 53
3 53 133 134
3 53 134 54
3 54 134 135
3 54 135 55
3 55 135 136
3 55 136 56
3 56 136 137
3 56 137 57
3 57 137 138
3 57 138 58
3 58 138 139
3 58 139 59
3 59 139 140
3 59 140 60
3 60 140 141
3 60 141 61
3 61 141 142
3 61 142 62
3 62 142 143
3 62 143 63
3 63 143 144
3 63 144 64
3 64 144 145
3 64 145 65
3 65 145 146
3 65 146 66
3 66 146 147
3 66 147 67
3 67 147 148
3 67 148 68
3 68 148 149
3 68 149 69
3 69 149 150
3 69 150 70
3 70 150 151
3 70 151 71
3 71 151 152
3 71 152 72
3 72 152 153
3 72 153 73
3 73 153 154
3 73 154 74
3 74 154 155
3 74 155 75
3 75 155 156
3 75 156 76
3 76 156 157
3 76 157 77
3 77 157 78
3 78 157 159
3 78 159 160
3 78 160 80
3 80 160 81
3 81 161 162
3 81 162 82
3 82 162 163
3 82 163 83
3 83 163 164
3 83 164 84
3 84 164 165
3 84 165 85
3 85 165 166
3 85 166 86
3 86 166 167
3 86 167 87
3 87 167 168
3 87 168 169
3 87 169 89
3 89 169 170
3 89 170 90
3 90 170 171
3 90 171 91
3 91 171 172
3 91 172 92
3 92 172 173
3 92 173 93
3 93 173 174
3 93 174 94
3 94 174 175
3 94 175 95
3 95 175 176
3 95 176 96
3 96 176 177
3 96 177 97
3 97 177 178
3 97 178 98
3 98 178 179
3 98 179 99
3 99 179 180
3 99 180 100
3 100 180 181
3 100 181 101
3 101 181 182
3 101 182 102
3 102 182 183
3 102 183 103
3 103 183 184
3 103 184 104
3 104 184 185
3 104 185 105
3 105 185 186
3 105 186 106
3 106 186 187
3 106 187 107
3 107 187 188
3 107 188 108
3 108 188 189
3 108 189 109
3 109 189 190
3 109 190 110
3 110 190 191
3 110 191 111
3 111 191 192
3 111 192 112
3 112 192 193
3 112 193 113
3 113 193 194
3 113 194 114
3 114 194 195
3 114 195 115
3 115 195 196
3 115 196 116
3 116 196 197
3 116 197 117
3 117 197 198
3 117 198 118
3 118 198 199
3 118 199 119
3 119 199 200
3 119 200 120
3 120 200 201
3 120 201 121
3 121 201 202
3 121 202 122
3 122 202 203
3 122 203 123
3 123 203 204
3 123 204 124
3 124 204 205
3 124 205 125
3 125 205 206
3 125 206 126
3 126 206 207
3 126 207 127
3 127 207 208
3 127 208 128
3 128 208 209
3 128 209 129
3 129 209 210
3 129 210 130
3 130 210 211
3 130 211 131
3 131 211 212
3 131 212 132
3 132 212 213
3 132 213 133
3 133 213 214
3 133 214 134
3 134 214 215
3 134 215 135
3 135 215 216
3 135 216 136
3 136 216 217
3 136 217 137
3 137 217 218
3 137 218 138
3 138 218 219
3 138 219 139
3 139 219 220
3 139 220 140
3 140 220 221
3 140 221 141
3 141 221 222
3 141 222 142
3 142 222 223
3 142 223 143
3 143 223 224
3 143 224 144
3 144 224 225
3 144 225 145
3 145 225 226
3 145 226 146
3 146 226 227
3 146 227 147
3 147 227 228
3 147 228 148
3 148 228 229
3 148 229 149
3 149 229 230
3 149 230 150
3 150 230 231
3 150 231 151
3 151 231 232
3 151 232 152
3 152 232 233
3 152 233 153
3 153 233 234
3 153 234 154
3 154 234 235
3 154 235 155
3 155 235 156
3 156 235 237
3 156 237 157
3 157 237 239
3 157 239 159
3 159 239 240
3 159 240 160
3 160 240 161
3 160 161 81
3 161 241 242
3 161 242 162
3 162 242 243
3 162 243 163
3 163 243 244
3 163 244 164
3 164 244 245
3 164 245 165
3 165 245 246
3 165 246 166
3 166 246 247
3 166 247 167
3 167 247 248
3 167 248 168
3 168 248 249
3 168 249 169
3 169 249 250
3 169 250 170
3 170 250 251
3 170 251 171
3 171 251 252
3 171 252 172
3 172 252 253
3 172 253 173
3 173 253 254
3 173 254 174
3 174 254 255
3 174 255 175
3 175 255 256
3 175 256 176
3 176 256 257
3 176 257 177
3 177 257 258
3 177 258 178
3 178 258 259
3 178 259 179
3 179 259 260
3 179 260 180
3 180 260 261
3 180 261 181
3 181 261 262
3 181 262 182
3 182 262 263
3 182 263 183
3 183 263 264
3 183 264 184
3 184 264 265
3 184 265 185
3 185 265 266
3 185 266 186
3 186 266 267
3 186 267 187
3 187 267 268
3 187 268 188
3 188 268 269
3 188 269 189
3 189 269 270
3 189 270 190
3 190 270 271
3 190 271 191
3 191 271 272
3 191 272 192
3 192 272 273
3 192 273 193
3 193 273 274
3 193 274 194
3 194 274 275
3 194 275 195
3 195 275 276
3 195 276 196
3 196 276 277
3 196 277 197
3 197 277 278
3 197 278 198
3 198 278 279
3 198 279 199
3 199 279 280
3 199 280 200
3 200 280 281
3 200 281 201
3 201 281 282
3 201 282 202
3 202 282 283
3 202 283 203
3 203 283 284
3 203 284 204
3 204 284 285
3 204 285 205
3 205 285 286
3 205 286 206
3 206 286 287
3 206 287 207
3 207 287 288
3 207 288 208
3 208 288 289
3 208 289 209
3 209 289 290
3 209 290 210
3 210 290 291
3 210 291 211
3 211 291 292
3 211 292 212
3 212 292 293
3 212 293 213
3 213 293 294
3 213 294 214
3 214 294 295
3 214 295 215
3 215 295 296
3 215 296 216
3 216 296 297
3 216 297 217
3 217 297 298
3 217 298 218
3 218 298 299
3 218 299 219
3 219 299 300
3 219 300 220
3 220 300 301
3 220 301 221
3 221 301 302
3 221 302 222
3 222 302 303
3 222 303 223
3 223 303 304
3 223 304 224
3 224 304 305
3 224 305 225
3 225 305 306
3 225 306 226
3 226 306 307
3 226 307 227
3 227 307 308
3 227 308 228
3 228 308 309
3 228 309 229
3 229 309 310
3 229 310 230
3 230 310 311
3 230 311 231
3 231 311 312
3 231 312 232
3 232 312 313
3 232 313 233
3 233 313 314
3 233 314 234
3 234 314 315
3 234 315 235
3 235 315 316
3 235 316 237
3 237 316 318
3 237 318 239
3 239 318 320
3 239 320 240
3 240 320 241
3 240 241 161
3 241 400 322
3 241 322 242
3 242 322 323
3 242 323 243
3 243 323 324
3 243 324 244
3 244 324 325
3 244 325 245
3 245 325 326
3 245 326 246
3 246 326 327
3 246 327 247
3 247 327 328
3 247 328 248
3 248 328 329
3 248 329 249
3 249 329 330
3 249 330 250
3 250 330 331
3 250 331 251
3 251 331 332
3 251 332 252
3 252 332 333
3 252 333 253
3 253 333 334
3 253 334 254
3 254 334 335
3 254 335 255
3 255 335 336
3 255 336 256
3 256 336 337
3 256 337 257
3 257 337 338
3 257 338 258
3 258 338 339
3 258 339 259
3 259 339 340
3 259 340 260
3 260 340 341
3 260 341 261
3 261 341 342
3 261 342 262
3 262 342 343
3 262 343 263
3 263 343 344
3 263 344 264
3 264 344 345
3 264 345 265
3 265 345 346
3 265 346 266
3 266 346 267
3 267 346 348
3 267 348 268
3 268 348 349
3 268 349 269
3 269 349 350
3 269 350 270
3 270 350 351
3 270 351 271
3 271 351 352
3 271 352 272
3 272 352 353
3 272 353 273
3 273 353 354
3 273 354 274
3 274 354 355
3 274 355 275
3 275 355 356
3 275 356 276
3 276 356 357
3 276 357 277
3 277 357 358
3 277 358 278
3 278 358 359
3 278 359 279
3 279 359 360
3 279 360 280
3 280 360 361
3 280 361 281
3 281 361 362
3 281 362 282
3 282 362 363
3 282 363 283
3 283 363 364
3 283 364 284
3 284 364 365
3 284 365 285
3 285 365 366
3 285 366 286
3 286 366 367
3 286 367 287
3 287 367 368
3 287 368 288
3 288 368 369
3 288 369 289
3 289 369 370
3 289 370 290
3 290 370 371
3 290 371 291
3 291 371 372
3 291 372 292
3 292 372 373
3 292 373 293
3 293 373 374
3 293 374 294
3 294 374 375
3 294 375 295
3 295 375 376
3 295 376 296
3 296 376 377
3 296 377 297
3 297 377 378
3 297 378 298
3 298 378 379
3 298 379 299
3 299 379 380
3 299 380 300
3 300 380 381
3 300 381 301
3 301 381 382
3 301 382 302
3 302 382 383
3 302 383 303
3 303 383 384
3 303 384 304
3 304 384 385
3 304 385 305
3 305 385 386
3 305 386 306
3 306 386 387
3 306 387 307
3 307 387 388
3 307 388 308
3 308 388 389
3 308 389 309
3 309 389 390
3 309 390 310
3 310 390 391
3 310 391 311
3 311 391 392
3 311 392 312
3 312 392 393
3 312 393 313
3 313 393 394
3 313 394 314
3 314 394 395
3 314 395 315
3 315 395 396
3 315 396 316
3 316 396 397
3 316 397 398
3 316 398 318
3 318 398 399
3 318 399 400
3 318 400 320
3 320 400 241
3 400 401 322
3 322 401 323
3 323 401 404
3 323 404 324
3 324 404 405
3 324 405 325
3 325 405 406
3 325 406 326
3 326 406 407
3 326 407 327
3 327 407 408
3 327 408 328
3 328 408 409
3 328 409 329
3 329 409 410
3 329 410 330
3 330 410 411
3 330 411 331
3 331 411 412
3 331 412 332
3 332 412 413
3 332 413 333
3 333 413 414
3 333 414 334
3 334 414 415
3 334 415 335
3 335 415 416
3 335 416 336
3 336 416 417
3 336 417 337
3 337 417 418
3 337 418 338
3 338 418 419
3 338 419 339
3 339 419 420
3 339 420 340
3 340 420 421
3 340 421 341
3 341 421 422
3 341 422 342
3 342 422 423
3 342 423 343
3 343 423 424
3 343 424 344
3 344 424 425
3 344 425 345
3 345 425 426
3 345 426 346
3 346 426 427
3 346 427 428
3 346 428 348
3 348 428 429
3 348 429 349
3 349 429 430
3 349 430 350
3 350 430 431
3 350 431 351
3 351 431 432
3 351 432 352
3 352 432 433
3 352 433 353
3 353 433 434
3 353 434 354
3 354 434 435
3 354 435 355
3 355 435 436
3 355 436 356
3 356 436 437
3 356 437 357
3 357 437 438
3 357 438 358
3 358 438 439
3 358 439 359
3 359 439 440
3 359 440 360
3 360 440 441
3 360 441 361
3 361 441 442
3 361 442 362
3 362 442 443
3 362 443 363
3 363 443 444
3 363 444 364
3 364 444 445
3 364 445 365
3 365 445 446
3 365 446 366
3 366 446 447
3 366 447 367
3 367 447 448
3 367 448 368
3 368 448 449
3 368 449 369
3 369 449 450
3 369 450 370
3 370 450 451
3 370 451 371
3 371 451 452
3 371 452 372
3 372 452 453
3 372 453 373
3 373 453 454
3 373 454 374
3 374 454 455
3 374 455 375
3 375 455 456
3 375 456 376
3 376 456 457
3 376 457 377
3 377 457 458
3 377 458 378
3 378 458 459
3 378 459 379
3 379 459 460
3 379 460 380
3 380 460 461
3 380 461 381
3 381 461 462
3 381 462 382
3 382 462 463
3 382 463 383
3 383 463 464
3 383 464 384
3 384 464 465
3 384 465 385
3 385 465 466
3 385 466 386
3 386 466 467
3 386 467 387
3 387 467 468
3 387 468 388
3 388 468 469
3 388 469 389
3 389 469 470
3 389 470 390
3 390 470 471
3 390 471 391
3 391 471 472
3 391 472 392
3 392 472 473
3 392 473 393
3 393 473 474
3 393 474 394
3 394 474 475
3 394 475 395
3 395 475 476
3 395 476 396
3 396 476 477
3 396 477 397
3 397 477 478
3 397 478 398
3 398 478 479
3 398 479 399
3 399 479 480
3 399 480 400
3 400 480 401
3 401 481 482
3 401 482 484
3 401 484 404
3 404 484 485
3 404 485 405
3 405 485 486
3 405 486 406
3 406 486 487
3 406 487 407
3 407 487 488
3 407 488 408
3 408 488 489
3 408 489 409
3 409 489 490
3 409 490 410
3 410 490 491
3 410 491 411
3 411 491 492
3 411 492 412
3 412 492 493
3 412 493 413
3 413 493 494
3 413 494 414
3 414 494 495
3 414 495 415
3 415 495 496
3 415 496 416
3 416 496 497
3 416 497 417
3 417 497 498
3 417 498 418
3 418 498 499
3 418 499 419
3 419 499 500
3 419 500 420
3 420 500 501
3 420 501 421
3 421 501 502
3 421 502 422
3 422 502 503
3 422 503 423
3 423 503 504
3 423 504 424
3 424 504 425
3 425 504 506
3 425 506 426
3 426 506 507
3 426 507 427
3 427 507 508
3 427 508 428
3 428 508 509
3 428 509 429
3 429 509 510
3 429 510 430
3 430 510 511
3 430 511 431
3 431 511 512
3 431 512 432
3 432 512 513
3 432 513 433
3 433 513 514
3 433 514 434
3 434 514 515
3 434 515 435
3 435 515 516
3 435 516 436
3 436 516 517
3 436 517 437
3 437 517 518
3 437 518 438
3 438 518 519
3 438 519 439
3 439 519 520
3 439 520 440
3 440 520 521
3 440 521 441
3 441 521 522
3 441 522 442
3 442 522 523
3 442 523 443
3 443 523 524
3 443 524 444
3 444 524 525
3 444 525 445
3 445 525 526
3 445 526 446
3 446 526 527
3 446 527 447
3 447 527 528
3 447 528 448
3 448 528 529
3 448 529 449
3 449 529 530
3 449 530 450
3 450 530 531
3 450 531 451
3 451 531 532
3 451 532 452
3 452 532 533
3 452 533 453
3 453 533 534
3 453 534 454
3 454 534 535
3 454 535 455
3 455 535 536
3 455 536 456
3 456 536 537
3 456 537 457
3 457 537 538
3 457 538 458
3 458 538 539
3 458 539 459
3 459 539 540
3 459 540 460
3 460 540 541
3 460 541 461
3 461 541 542
3 461 542 462
3 462 542 543
3 462 543 463
3 463 543 544
3 463 544 464
3 464 544 545
3 464 545 465
3 465 545 546
3 465 546 466
3 466 546 547
3 466 547 467
3 467 547 548
3 467 548 468
3 468 548 549
3 468 549 469
3 469 549 550
3 469 550 470
3 470 550 551
3 470 551 471
3 471 551 552
3 471 552 472
3 472 552 553
3 472 553 473
3 473 553 554
3 473 554 474
3 474 554 555
3 474 555 475
3 475 555 556
3 475 556 476
3 476 556 557
3 476 557 477
3 477 557 558
3 477 558 478
3 478 558 559
3 478 559 479
3 479 559 560
3 479 560 480
3 480 560 481
3 480 481 401
3 481 561 562
3 481 562 482
3 482 562 564
3 482 564 484
3 484 564 565
3 484 565 485
3 485 565 566
3 485 566 486
3 486 566 567
3 486 567 487
3 487 567 568
3 487 568 488
3 488 568 569
3 488 569 489
3 489 569 570
3 489 570 490
3 490 570 571
3 490 571 491
3 491 571 572
3 491 572 492
3 492 572 573
3 492 573 493
3 493 573 574
3 493 574 494
3 494 574 575
3 494 575 495
3 495 575 576
3 495 576 496
3 496 576 577
3 496 577 497
3 497 577 578
3 497 578 498
3 498 578 579
3 498 579 499
3 499 579 580
3 499 580 500
3 500 580 581
3 500 581 501
3 501 581 582
3 501 582 502
3 502 582 583
3 502 583 503
3 503 583 584
3 503 584 504
3 504 584 585
3 504 585 586
3 504 586 506
3 506 586 587
3 506 587 507
3 507 587 588
3 507 588 508
3 508 588 589
3 508 589 509
3 509 589 590
3 509 590 510
3 510 590 591
3 510 591 511
3 511 591 592
3 511 592 512
3 512 592 593
3 512 593 513
3 513 593 594
3 513 594 514
3 514 594 595
3 514 595 515
3 515 595 596
3 515 596 516
3 516 596 597
3 516 597 517
3 517 597 598
3 517 598 518
3 518 598 599
3 518 599 519
3 519 599 600
3 519 600 520
3 520 600 601
3 520 601 521
3 521 601 602
3 521 602 522
3 522 602 603
3 522 603 523
3 523 603 604
3 523 604 524
3 524 604 605
3 524 605 525
3 525 605 606
3 525 606 526
3 526 606 607
3 526 607 527
3 527 607 608
3 527 608 528
3 528 608 609
3 528 609 529
3 529 609 610
3 529 610 530
3 530 610 611
3 530 611 531
3 531 611 612
3 531 612 532
3 532 612 613
3 532 613 533
3 533 613 614
3 533 614 534
3 534 614 615
3 534 615 535
3 535 615 616
3 535 616 536
3 536 616 617
3 536 617 537
3 537 617 618
3 537 618 538
3 538 618 619
3 538 619 539
3 539 619 620
3 539 620 540
3 540 620 621
3 540 621 541
3 541 621 622
3 541 622 542
3 542 622 623
3 542 623 543
3 543 623 624
3 543 624 544
3 544 624 625
3 544 625 545
3 545 625 626
3 545 626 546
3 546 626 627
3 546 627 547
3 547 627 628
3 547 628 548
3 548 628 629
3 548 629 549
3 549 629 630
3 549 630 550
3 550 630 631
3 550 631 551
3 551 631 632
3 551 632 552
3 552 632 633
3 552 633 553
3 553 633 634
3 553 634 554
3 554 634 635
3 554 635 555
3 555 635 636
3 555 636 556
3 556 636 637
3 556 637 557
3 557 637 638
3 557 638 558
3 558 638 639
3 558 639 559
3 559 639 560
3 560 639 561
3 560 561 481
3 561 641 642
3 561 642 562
3 562 642 643
3 562 643 564
3 564 643 565
3 565 643 646
3 565 646 566
3 566 646 647
3 566 647 567
3 567 647 648
3 567 648 568
3 568 648 649
3 568 649 569
3 569 649 650
3 569 650 570
3 570 650 651
3 570 651 571
3 571 651 652
3 571 652 572
3 572 652 653
3 572 653 573
3 573 653 654
3 573 654 574
3 574 654 655
3 574 655 575
3 575 655 656
3 575 656 576
3 576 656 657
3 576 657 577
3 577 657 658
3 577 658 578
3 578 658 659
3 578 659 579
3 579 659 660
3 579 660 580
3 580 660 661
3 580 661 581
3 581 661 662
3 581 662 582
3 582 662 663
3 582 663 583
3 583 663 664
3 583 664 584
3 584 664 665
3 584 665 585
3 585 665 666
3 585 666 586
3 586 666 667
3 586 667 587
3 587 667 668
3 587 668 588
3 588 668 669
3 588 669 589
3 589 669 670
3 589 670 590
3 590 670 671
3 590 671 591
3 591 671 672
3 591 672 592
3 592 672 673
3 592 673 593
3 593 673 674
3 593 674 594
3 594 674 675
3 594 675 595
3 595 675 676
3 595 676 596
3 596 676 677
3 596 677 597
3 597 677 678
3 597 678 598
3 598 678 679
3 598 679 599
3 599 679 680
3 599 680 600
3 600 680 681
3 600 681 601
3 601 681 682
3 601 682 602
3 602 682 683
3 602 683 603
3 603 683 684
3 603 684 604
3 604 684 685
3 604 685 605
3 605 685 686
3 605 686 606
3 606 686 687
3 606 687 607
3 607 687 688
3 607 688 608
3 608 688 689
3 608 689 609
3 609 689 690
3 609 690 610
3 610 690 691
3 610 691 611
3 611 691 692
3 611 692 612
3 612 692 693
3 612 693 613
3 613 693 694
3 613 694 614
3 614 694 695
3 614 695 615
3 615 695 696
3 615 696 616
3 616 696 697
3 616 697 617
3 617 697 698
3 617 698 618
3 618 698 699
3 618 699 619
3 619 699 700
3 619 700 620
3 620 700 701
3 620 701 621
3 621 701 702
3 621 702 622
3 622 702 703
3 622 703 623
3 623 703 704
3 623 704 624
3 624 704 705
3 624 705 625
3 625 705 706
3 625 706 626
3 626 706 707
3 626 707 627
3 627 707 708
3 627 708 628
3 628 708 709
3 628 709 629
3 629 709 710
3 629 710 630
3 630 710 711
3 630 711 631
3 631 711 712
3 631 712 632
3 632 712 713
3 632 713 633
3 633 713 714
3 633 714 634
3 634 714 715
3 634 715 635
3 635 715 716
3 635 716 636
3 636 716 717
3 636 717 637
3 637 717 718
3 637 718 638
3 638 718 719
3 638 719 639
3 639 719 720
3 639 720 641
3 639 641 561
3 641 721 722
3 641 722 642
3 642 722 723
3 642 723 643
3 643 723 726
3 643 726 646
3 646 726 727
3 646 727 647
3 647 727 728
3 647 728 648
3 648 728 729
3 648 729 649
3 649 729 730
3 649 730 650
3 650 730 731
3 650 731 651
3 651 731 732
3 651 732 652
3 652 732 733
3 652 733 653
3 653 733 734
3 653 734 654
3 654 734 735
3 654 735 655
3 655 735 736
3 655 736 656
3 656 736 737
3 656 737 657
3 657 737 738
3 657 738 658
3 658 738 739
3 658 739 659
3 659 739 740
3 659 740 660
3 660 740 741
3 660 741 661
3 661 741 742
3 661 742 662
3 662 742 743
3 662 743 663
3 663 743 744
3 663 744 664
3 664 744 745
3 664 745 665
3 665 745 746
3 665 746 666
3 666 746 747
3 666 747 667
3 667 747 748
3 667 748 668
3 668 748 749
3 668 749 669
3 669 749 750
3 669 750 670
3 670 750 751
3 670 751 671
3 671 751 752
3 671 752 672
3 672 752 753
3 672 753 673
3 673 753 754
3 673 754 674
3 674 754 755
3 674 755 675
3 675 755 756
3 675 756 676
3 676 756 757
3 676 757 677
3 677 757 758
3 677 758 678
3 678 758 759
3 678 759 679
3 679 759 760
3 679 760 680
3 680 760 761
3 680 761 681
3 681 761 762
3 681 762 682
3 682 762 763
3 682 763 683
3 683 763 764
3 683 764 684
3 684 764 765
3 684 765 685
3 685 765 766
3 685 766 686
3 686 766 767
3 686 767 687
3 687 767 768
3 687 768 688
3 688 768 769
3 688 769 689
3 689 769 770
3 689 770 690
3 690 770 771
3 690 771 691
3 691 771 772
3 691 772 692
3 692 772 773
3 692 773 693
3 693 773 774
3 693 774 694
3 694 774 775
3 694 775 695
3 695 775 776
3 695 776 696
3 696 776 777
3 696 777 697
3 697 777 778
3 697 778 698
3 698 778 779
3 698 779 699
3 699 779 780
3 699 780 700
3 700 780 781
3 700 781 701
3 701 781 782
3 701 782 702
3 702 782 783
3 702 783 703
3 703 783 784
3 703 784 704
3 704 784 785
3 704 785 705
3 705 785 786
3 705 786 706
3 706 786 787
3 706 787 707
3 707 787 788
3 707 788 708
3 708 788 789
3 708 789 709
3 709 789 790
3 709 790 710
3 710 790 791
3 710 791 711
3 711 791 792
3 711 792 712
3 712 792 793
3 712 793 713
3 713 793 794
3 713 794 714
3 714 794 795
3 714 795 715
3 715 795 796
3 715 796 716
3 716 796 797
3 716 797 717
3 717 797 798
3 717 798 718
3 718 798 799
3 718 799 719
3 719 799 800
3 719 800 720
3 720 800 721
3 720 721 641
