ply 
format ascii 1.0 
comment this is a surface 
element vertex 801 
property float x 
property float y 
property float z 
element face 1482 
property list uchar int vertex_index 
end_header 
202.298625 192.833625 -77.760000
203.740000 206.580000 -77.760000
202.940000 206.280000 -77.760000
202.100000 205.840000 -77.760000
201.250000 205.300000 -77.760000
200.400000 204.690000 -77.760000
199.590000 204.030000 -77.760000
198.850000 203.380000 -77.760000
198.210000 202.740000 -77.760000
197.650000 202.130000 -77.760000
197.110000 201.490000 -77.760000
196.590000 200.820000 -77.760000
196.070000 200.120000 -77.760000
195.580000 199.380000 -77.760000
195.110000 198.620000 -77.760000
194.660000 197.820000 -77.760000
194.230000 196.990000 -77.760000
193.830000 196.130000 -77.760000
193.470000 195.250000 -77.760000
193.130000 194.330000 -77.760000
192.840000 193.390000 -77.760000
192.580000 192.420000 -77.760000
192.360000 191.420000 -77.760000
192.360000 191.420000 -77.760000
192.390000 190.340000 -77.760000
192.470000 189.310000 -77.760000
192.590000 188.320000 -77.760000
192.750000 187.380000 -77.760000
192.940000 186.490000 -77.760000
193.160000 185.670000 -77.760000
193.410000 184.910000 -77.760000
193.670000 184.230000 -77.760000
194.030000 183.570000 -77.760000
194.580000 182.880000 -77.760000
195.280000 182.210000 -77.760000
196.090000 181.570000 -77.760000
196.980000 181.010000 -77.760000
197.900000 180.550000 -77.760000
198.830000 180.220000 -77.760000
199.720000 180.060000 -77.760000
200.580000 180.060000 -77.760000
201.480000 180.130000 -77.760000
202.410000 180.250000 -77.760000
203.350000 180.400000 -77.760000
204.250000 180.580000 -77.760000
205.110000 180.780000 -77.760000
206.020000 181.080000 -77.760000
206.970000 181.500000 -77.760000
207.900000 182.010000 -77.760000
208.720000 182.590000 -77.760000
209.380000 183.200000 -77.760000
209.800000 183.830000 -77.760000
210.000000 184.470000 -77.760000
210.180000 185.190000 -77.760000
210.350000 185.990000 -77.760000
210.510000 186.840000 -77.760000
210.660000 187.750000 -77.760000
210.790000 188.690000 -77.760000
210.910000 189.670000 -77.760000
211.010000 190.670000 -77.760000
211.110000 191.680000 -77.760000
211.190000 192.690000 -77.760000
211.250000 193.690000 -77.760000
211.310000 194.670000 -77.760000
211.350000 195.620000 -77.760000
211.370000 196.530000 -77.760000
211.390000 197.390000 -77.760000
211.360000 198.220000 -77.760000
211.200000 199.100000 -77.760000
210.910000 200.050000 -77.760000
210.490000 201.010000 -77.760000
209.980000 201.980000 -77.760000
209.390000 202.930000 -77.760000
208.730000 203.820000 -77.760000
208.030000 204.650000 -77.760000
207.300000 205.370000 -77.760000
206.560000 205.960000 -77.760000
205.830000 206.400000 -77.760000
205.120000 206.660000 -77.760000
204.460000 206.720000 -77.760000
203.740000 206.580000 -77.760000
202.450000 212.520000 -69.120000
202.450000 212.520000 -69.120000
200.860000 212.310000 -69.120000
199.280000 212.070000 -69.120000
197.760000 211.780000 -69.120000
196.330000 211.470000 -69.120000
195.040000 211.120000 -69.120000
193.830000 210.570000 -69.120000
192.660000 209.740000 -69.120000
191.530000 208.690000 -69.120000
190.460000 207.500000 -69.120000
189.460000 206.220000 -69.120000
188.550000 204.930000 -69.120000
187.740000 203.700000 -69.120000
186.980000 202.460000 -69.120000
186.270000 201.140000 -69.120000
185.610000 199.770000 -69.120000
185.050000 198.370000 -69.120000
184.600000 196.950000 -69.120000
184.260000 195.540000 -69.120000
183.940000 194.100000 -69.120000
183.650000 192.640000 -69.120000
183.390000 191.160000 -69.120000
183.200000 189.670000 -69.120000
183.070000 188.190000 -69.120000
183.030000 186.710000 -69.120000
183.060000 185.140000 -69.120000
183.120000 183.510000 -69.120000
183.210000 181.910000 -69.120000
183.340000 180.450000 -69.120000
183.480000 179.230000 -69.120000
183.840000 178.200000 -69.120000
184.700000 177.170000 -69.120000
185.940000 176.180000 -69.120000
187.440000 175.290000 -69.120000
189.070000 174.560000 -69.120000
190.720000 174.060000 -69.120000
192.250000 173.820000 -69.120000
193.670000 173.820000 -69.120000
195.180000 173.840000 -69.120000
196.740000 173.870000 -69.120000
198.290000 173.920000 -69.120000
199.770000 173.980000 -69.120000
201.130000 174.050000 -69.120000
202.380000 174.390000 -69.120000
203.580000 175.130000 -69.120000
204.730000 176.190000 -69.120000
205.810000 177.450000 -69.120000
206.820000 178.810000 -69.120000
206.820000 178.810000 -69.120000
208.350000 179.490000 -69.120000
209.810000 180.260000 -69.120000
211.140000 181.110000 -69.120000
212.280000 182.030000 -69.120000
213.210000 183.030000 -69.120000
213.870000 184.090000 -69.120000
214.430000 185.290000 -69.120000
214.960000 186.630000 -69.120000
215.440000 188.080000 -69.120000
215.850000 189.600000 -69.120000
216.190000 191.150000 -69.120000
216.430000 192.700000 -69.120000
216.560000 194.220000 -69.120000
216.560000 195.690000 -69.120000
216.460000 197.190000 -69.120000
216.260000 198.720000 -69.120000
215.990000 200.250000 -69.120000
215.650000 201.760000 -69.120000
215.260000 203.210000 -69.120000
214.830000 204.580000 -69.120000
214.380000 205.840000 -69.120000
213.740000 207.140000 -69.120000
212.870000 208.520000 -69.120000
211.810000 209.870000 -69.120000
210.620000 211.080000 -69.120000
209.350000 212.050000 -69.120000
208.060000 212.660000 -69.120000
206.810000 212.830000 -69.120000
205.470000 212.780000 -69.120000
204.000000 212.680000 -69.120000
202.760000 217.600000 -60.480000
200.840000 217.840000 -60.480000
199.050000 217.790000 -60.480000
199.050000 217.790000 -60.480000
197.240000 217.430000 -60.480000
195.430000 216.810000 -60.480000
193.630000 216.010000 -60.480000
191.860000 215.080000 -60.480000
190.140000 214.100000 -60.480000
188.500000 213.130000 -60.480000
186.920000 212.170000 -60.480000
185.350000 211.090000 -60.480000
183.810000 209.900000 -60.480000
182.340000 208.620000 -60.480000
180.970000 207.260000 -60.480000
179.720000 205.860000 -60.480000
178.580000 204.390000 -60.480000
177.460000 202.780000 -60.480000
176.550000 201.060000 -60.480000
176.050000 199.320000 -60.480000
175.740000 197.520000 -60.480000
175.460000 195.650000 -60.480000
175.210000 193.750000 -60.480000
174.990000 191.810000 -60.480000
174.810000 189.860000 -60.480000
174.670000 187.920000 -60.480000
174.570000 186.000000 -60.480000
174.500000 184.110000 -60.480000
174.480000 182.280000 -60.480000
174.700000 180.460000 -60.480000
175.340000 178.620000 -60.480000
176.260000 176.830000 -60.480000
177.330000 175.160000 -60.480000
178.400000 173.690000 -60.480000
179.610000 172.370000 -60.480000
181.060000 171.160000 -60.480000
182.690000 170.060000 -60.480000
184.470000 169.090000 -60.480000
184.470000 169.090000 -60.480000
186.400000 169.110000 -60.480000
188.330000 169.180000 -60.480000
190.230000 169.270000 -60.480000
192.120000 169.400000 -60.480000
193.990000 169.550000 -60.480000
195.850000 169.730000 -60.480000
197.700000 169.950000 -60.480000
199.590000 170.330000 -60.480000
201.490000 170.850000 -60.480000
203.360000 171.500000 -60.480000
205.150000 172.240000 -60.480000
206.840000 173.060000 -60.480000
208.390000 173.930000 -60.480000
209.810000 175.000000 -60.480000
211.160000 176.350000 -60.480000
212.420000 177.870000 -60.480000
213.600000 179.460000 -60.480000
214.710000 181.030000 -60.480000
215.860000 182.580000 -60.480000
217.080000 184.190000 -60.480000
218.240000 185.850000 -60.480000
219.180000 187.550000 -60.480000
219.780000 189.280000 -60.480000
219.900000 191.030000 -60.480000
219.780000 192.850000 -60.480000
219.540000 194.730000 -60.480000
219.180000 196.650000 -60.480000
218.750000 198.560000 -60.480000
218.270000 200.450000 -60.480000
217.770000 202.280000 -60.480000
217.240000 204.080000 -60.480000
216.580000 205.970000 -60.480000
215.800000 207.900000 -60.480000
214.890000 209.760000 -60.480000
213.890000 211.470000 -60.480000
212.790000 212.920000 -60.480000
211.620000 214.020000 -60.480000
210.250000 214.900000 -60.480000
208.580000 215.750000 -60.480000
206.720000 216.510000 -60.480000
204.750000 217.150000 -60.480000
202.960000 219.930000 -51.840000
201.050000 219.900000 -51.840000
198.990000 219.810000 -51.840000
198.990000 219.810000 -51.840000
196.870000 219.680000 -51.840000
194.770000 219.500000 -51.840000
192.750000 219.280000 -51.840000
190.840000 218.890000 -51.840000
188.960000 218.050000 -51.840000
187.160000 216.920000 -51.840000
185.470000 215.700000 -51.840000
183.890000 214.490000 -51.840000
182.290000 213.140000 -51.840000
180.730000 211.660000 -51.840000
179.310000 210.080000 -51.840000
178.080000 208.430000 -51.840000
177.140000 206.720000 -51.840000
176.450000 204.950000 -51.840000
175.820000 203.040000 -51.840000
175.280000 201.030000 -51.840000
174.830000 198.980000 -51.840000
174.520000 196.910000 -51.840000
174.350000 194.890000 -51.840000
174.260000 192.860000 -51.840000
174.200000 190.810000 -51.840000
174.100000 188.780000 -51.840000
173.910000 186.720000 -51.840000
173.690000 184.660000 -51.840000
173.460000 182.610000 -51.840000
173.280000 180.590000 -51.840000
173.190000 178.620000 -51.840000
173.360000 176.600000 -51.840000
173.940000 174.440000 -51.840000
174.840000 172.310000 -51.840000
175.960000 170.410000 -51.840000
177.200000 168.930000 -51.840000
178.490000 167.980000 -51.840000
180.200000 167.230000 -51.840000
182.290000 166.670000 -51.840000
184.610000 166.410000 -51.840000
184.610000 166.410000 -51.840000
186.670000 166.470000 -51.840000
188.720000 166.640000 -51.840000
190.750000 166.880000 -51.840000
192.760000 167.180000 -51.840000
194.740000 167.500000 -51.840000
196.720000 167.880000 -51.840000
198.710000 168.390000 -51.840000
200.700000 169.020000 -51.840000
202.660000 169.760000 -51.840000
204.560000 170.590000 -51.840000
206.370000 171.490000 -51.840000
208.070000 172.450000 -51.840000
209.730000 173.580000 -51.840000
211.360000 174.920000 -51.840000
212.860000 176.420000 -51.840000
214.160000 178.020000 -51.840000
215.190000 179.660000 -51.840000
216.190000 181.440000 -51.840000
217.100000 183.360000 -51.840000
217.790000 185.350000 -51.840000
218.130000 187.350000 -51.840000
218.140000 189.340000 -51.840000
218.130000 191.380000 -51.840000
218.110000 193.470000 -51.840000
218.080000 195.570000 -51.840000
218.050000 197.650000 -51.840000
218.000000 199.690000 -51.840000
217.950000 201.660000 -51.840000
217.840000 203.560000 -51.840000
217.320000 205.430000 -51.840000
216.410000 207.270000 -51.840000
215.220000 209.070000 -51.840000
213.860000 210.790000 -51.840000
212.450000 212.410000 -51.840000
211.110000 213.910000 -51.840000
209.710000 215.490000 -51.840000
208.160000 217.130000 -51.840000
206.500000 218.590000 -51.840000
204.750000 219.600000 -51.840000
204.220000 220.910000 -43.200000
202.120000 221.520000 -43.200000
199.860000 222.010000 -43.200000
197.500000 222.440000 -43.200000
197.500000 222.440000 -43.200000
195.100000 222.790000 -43.200000
192.730000 223.040000 -43.200000
190.440000 223.170000 -43.200000
188.280000 223.060000 -43.200000
186.180000 222.320000 -43.200000
184.120000 221.100000 -43.200000
182.120000 219.600000 -43.200000
180.190000 218.020000 -43.200000
178.320000 216.570000 -43.200000
176.500000 215.110000 -43.200000
174.760000 213.520000 -43.200000
173.110000 211.850000 -43.200000
171.540000 210.120000 -43.200000
169.770000 208.320000 -43.200000
168.050000 206.450000 -43.200000
166.640000 204.500000 -43.200000
165.830000 202.470000 -43.200000
165.760000 200.340000 -43.200000
165.910000 198.050000 -43.200000
166.130000 195.670000 -43.200000
166.360000 193.280000 -43.200000
166.530000 190.930000 -43.200000
166.660000 188.560000 -43.200000
166.780000 186.170000 -43.200000
166.900000 183.800000 -43.200000
167.060000 181.470000 -43.200000
167.270000 179.230000 -43.200000
167.630000 177.060000 -43.200000
168.480000 174.860000 -43.200000
169.720000 172.710000 -43.200000
171.200000 170.720000 -43.200000
172.780000 169.000000 -43.200000
174.420000 167.540000 -43.200000
176.390000 166.080000 -43.200000
178.570000 164.870000 -43.200000
180.810000 164.230000 -43.200000
183.030000 164.190000 -43.200000
185.330000 164.210000 -43.200000
187.700000 164.240000 -43.200000
190.100000 164.280000 -43.200000
192.480000 164.330000 -43.200000
194.800000 164.400000 -43.200000
197.050000 164.550000 -43.200000
199.320000 165.080000 -43.200000
201.570000 165.920000 -43.200000
203.770000 166.980000 -43.200000
205.870000 168.160000 -43.200000
207.840000 169.370000 -43.200000
209.720000 170.610000 -43.200000
211.620000 172.070000 -43.200000
213.480000 173.710000 -43.200000
215.190000 175.490000 -43.200000
216.660000 177.370000 -43.200000
217.790000 179.290000 -43.200000
218.610000 181.270000 -43.200000
219.380000 183.410000 -43.200000
220.080000 185.670000 -43.200000
220.690000 188.010000 -43.200000
221.170000 190.390000 -43.200000
221.500000 192.770000 -43.200000
221.630000 195.100000 -43.200000
221.540000 197.420000 -43.200000
221.230000 199.810000 -43.200000
220.750000 202.190000 -43.200000
220.150000 204.490000 -43.200000
219.470000 206.630000 -43.200000
218.640000 208.580000 -43.200000
217.390000 210.430000 -43.200000
215.790000 212.180000 -43.200000
213.920000 213.810000 -43.200000
211.880000 215.330000 -43.200000
211.880000 215.330000 -43.200000
210.070000 217.030000 -43.200000
208.200000 218.600000 -43.200000
206.250000 219.920000 -43.200000
205.990000 223.790000 -34.560000
203.940000 224.580000 -34.560000
201.590000 225.270000 -34.560000
199.020000 225.760000 -34.560000
196.300000 225.940000 -34.560000
196.300000 225.940000 -34.560000
196.300000 225.940000 -34.560000
193.600000 225.840000 -34.560000
191.000000 225.560000 -34.560000
188.500000 225.140000 -34.560000
186.140000 224.610000 -34.560000
183.910000 224.010000 -34.560000
181.820000 223.230000 -34.560000
179.850000 221.950000 -34.560000
177.970000 220.280000 -34.560000
176.170000 218.360000 -34.560000
174.430000 216.330000 -34.560000
172.720000 214.350000 -34.560000
171.000000 212.510000 -34.560000
169.180000 210.690000 -34.560000
167.380000 208.820000 -34.560000
165.770000 206.870000 -34.560000
164.520000 204.830000 -34.560000
163.700000 202.630000 -34.560000
163.070000 200.230000 -34.560000
162.560000 197.730000 -34.560000
162.120000 195.230000 -34.560000
161.700000 192.760000 -34.560000
161.280000 190.240000 -34.560000
160.970000 187.750000 -34.560000
160.860000 185.360000 -34.560000
161.420000 183.100000 -34.560000
162.690000 180.910000 -34.560000
164.250000 178.760000 -34.560000
165.660000 176.610000 -34.560000
166.870000 174.380000 -34.560000
168.090000 172.160000 -34.560000
169.450000 170.110000 -34.560000
171.040000 168.250000 -34.560000
172.890000 166.310000 -34.560000
174.930000 164.560000 -34.560000
177.080000 163.320000 -34.560000
179.300000 162.850000 -34.560000
181.690000 162.670000 -34.560000
184.220000 162.530000 -34.560000
186.790000 162.450000 -34.560000
189.310000 162.430000 -34.560000
191.810000 162.570000 -34.560000
194.300000 162.870000 -34.560000
196.770000 163.290000 -34.560000
199.200000 163.770000 -34.560000
201.600000 164.350000 -34.560000
203.990000 165.160000 -34.560000
206.330000 166.160000 -34.560000
208.550000 167.290000 -34.560000
210.650000 168.530000 -34.560000
212.770000 170.050000 -34.560000
214.700000 171.790000 -34.560000
216.180000 173.670000 -34.560000
217.270000 175.710000 -34.560000
218.310000 178.000000 -34.560000
219.210000 180.430000 -34.560000
219.890000 182.950000 -34.560000
220.270000 185.460000 -34.560000
220.320000 187.920000 -34.560000
220.320000 190.410000 -34.560000
220.320000 192.930000 -34.560000
220.320000 195.430000 -34.560000
220.310000 197.890000 -34.560000
220.010000 200.320000 -34.560000
219.360000 202.760000 -34.560000
218.470000 205.160000 -34.560000
217.430000 207.510000 -34.560000
216.350000 209.770000 -34.560000
215.290000 211.970000 -34.560000
214.080000 214.310000 -34.560000
212.720000 216.680000 -34.560000
211.220000 218.950000 -34.560000
209.590000 220.980000 -34.560000
207.840000 222.640000 -34.560000
204.740000 222.990000 -25.920000
202.980000 224.920000 -25.920000
201.430000 227.120000 -25.920000
201.430000 227.120000 -25.920000
198.770000 227.460000 -25.920000
196.140000 227.670000 -25.920000
193.530000 227.780000 -25.920000
193.530000 227.780000 -25.920000
190.950000 227.820000 -25.920000
188.390000 227.830000 -25.920000
185.830000 227.610000 -25.920000
183.230000 226.990000 -25.920000
180.670000 226.080000 -25.920000
178.200000 224.980000 -25.920000
175.870000 223.790000 -25.920000
173.710000 222.580000 -25.920000
171.580000 221.070000 -25.920000
169.510000 219.270000 -25.920000
167.610000 217.270000 -25.920000
166.000000 215.170000 -25.920000
164.770000 213.030000 -25.920000
163.650000 210.750000 -25.920000
162.600000 208.290000 -25.920000
161.700000 205.720000 -25.920000
161.060000 203.110000 -25.920000
160.770000 200.510000 -25.920000
160.760000 197.940000 -25.920000
160.790000 195.330000 -25.920000
160.840000 192.690000 -25.920000
160.900000 190.060000 -25.920000
160.980000 187.460000 -25.920000
161.200000 184.870000 -25.920000
161.690000 182.260000 -25.920000
162.390000 179.690000 -25.920000
163.220000 177.200000 -25.920000
164.120000 174.830000 -25.920000
165.320000 172.480000 -25.920000
166.820000 170.210000 -25.920000
168.530000 168.180000 -25.920000
170.350000 166.480000 -25.920000
172.490000 164.890000 -25.920000
174.860000 163.540000 -25.920000
177.290000 162.680000 -25.920000
179.770000 162.200000 -25.920000
182.340000 161.800000 -25.920000
184.990000 161.480000 -25.920000
187.640000 161.290000 -25.920000
190.260000 161.220000 -25.920000
192.920000 161.300000 -25.920000
195.630000 161.500000 -25.920000
198.310000 161.800000 -25.920000
200.880000 162.180000 -25.920000
203.260000 162.630000 -25.920000
205.460000 163.530000 -25.920000
207.560000 165.110000 -25.920000
209.540000 167.080000 -25.920000
211.390000 169.160000 -25.920000
213.140000 171.110000 -25.920000
214.880000 173.140000 -25.920000
216.460000 175.290000 -25.920000
217.700000 177.530000 -25.920000
218.640000 179.890000 -25.920000
219.530000 182.360000 -25.920000
220.300000 184.930000 -25.920000
220.870000 187.540000 -25.920000
221.160000 190.140000 -25.920000
221.150000 192.730000 -25.920000
221.040000 195.370000 -25.920000
220.850000 198.010000 -25.920000
220.610000 200.580000 -25.920000
220.260000 203.120000 -25.920000
219.610000 205.730000 -25.920000
218.700000 208.360000 -25.920000
217.580000 210.930000 -25.920000
216.280000 213.360000 -25.920000
214.850000 215.580000 -25.920000
213.340000 217.510000 -25.920000
211.620000 219.050000 -25.920000
209.240000 220.240000 -25.920000
206.750000 221.440000 -25.920000
205.270000 221.550000 -17.280000
203.020000 222.910000 -17.280000
200.770000 224.440000 -17.280000
198.480000 225.800000 -17.280000
196.120000 226.590000 -17.280000
193.670000 226.720000 -17.280000
193.670000 226.720000 -17.280000
191.080000 226.780000 -17.280000
188.400000 226.820000 -17.280000
185.700000 226.860000 -17.280000
183.040000 226.890000 -17.280000
180.490000 226.900000 -17.280000
178.090000 226.910000 -17.280000
175.820000 226.450000 -17.280000
173.600000 225.180000 -17.280000
171.470000 223.360000 -17.280000
169.490000 221.300000 -17.280000
167.680000 219.270000 -17.280000
166.070000 217.360000 -17.280000
164.590000 215.230000 -17.280000
163.230000 212.970000 -17.280000
162.000000 210.660000 -17.280000
160.860000 208.350000 -17.280000
159.630000 205.960000 -17.280000
158.500000 203.530000 -17.280000
157.630000 201.070000 -17.280000
157.230000 198.620000 -17.280000
157.510000 196.190000 -17.280000
158.410000 193.740000 -17.280000
159.520000 191.300000 -17.280000
160.460000 188.860000 -17.280000
161.290000 186.400000 -17.280000
162.120000 183.940000 -17.280000
163.000000 181.500000 -17.280000
163.970000 179.130000 -17.280000
165.080000 176.820000 -17.280000
166.320000 174.490000 -17.280000
167.710000 172.240000 -17.280000
169.230000 170.150000 -17.280000
170.900000 168.340000 -17.280000
172.770000 166.680000 -17.280000
174.860000 165.160000 -17.280000
177.130000 163.790000 -17.280000
179.560000 162.600000 -17.280000
179.560000 162.600000 -17.280000
182.200000 162.410000 -17.280000
184.810000 162.290000 -17.280000
187.390000 162.230000 -17.280000
189.950000 162.210000 -17.280000
192.470000 162.200000 -17.280000
195.000000 162.390000 -17.280000
197.540000 162.990000 -17.280000
200.060000 163.900000 -17.280000
202.510000 165.010000 -17.280000
204.820000 166.220000 -17.280000
206.970000 167.460000 -17.280000
209.010000 169.020000 -17.280000
210.910000 170.890000 -17.280000
212.600000 172.880000 -17.280000
214.090000 174.940000 -17.280000
215.490000 177.170000 -17.280000
216.690000 179.500000 -17.280000
217.610000 181.870000 -17.280000
218.420000 184.300000 -17.280000
219.200000 186.800000 -17.280000
219.860000 189.350000 -17.280000
220.330000 191.920000 -17.280000
220.560000 194.480000 -17.280000
220.540000 197.050000 -17.280000
220.430000 199.660000 -17.280000
220.260000 202.270000 -17.280000
220.010000 204.830000 -17.280000
219.620000 207.310000 -17.280000
218.590000 209.740000 -17.280000
217.290000 211.970000 -17.280000
215.730000 214.020000 -17.280000
213.880000 215.900000 -17.280000
211.930000 217.530000 -17.280000
209.810000 218.970000 -17.280000
207.550000 220.290000 -17.280000
205.220000 220.060000 -8.640000
202.970000 221.580000 -8.640000
201.130000 223.660000 -8.640000
199.480000 226.120000 -8.640000
197.680000 227.850000 -8.640000
195.440000 228.390000 -8.640000
192.810000 228.790000 -8.640000
192.810000 228.790000 -8.640000
189.990000 229.060000 -8.640000
187.180000 229.200000 -8.640000
184.490000 229.140000 -8.640000
181.810000 228.720000 -8.640000
179.170000 228.060000 -8.640000
176.680000 227.300000 -8.640000
174.230000 226.210000 -8.640000
171.850000 224.810000 -8.640000
169.620000 223.200000 -8.640000
167.590000 221.520000 -8.640000
165.690000 219.670000 -8.640000
163.880000 217.600000 -8.640000
162.250000 215.370000 -8.640000
160.900000 213.060000 -8.640000
159.840000 210.700000 -8.640000
158.800000 208.200000 -8.640000
157.870000 205.600000 -8.640000
157.170000 202.950000 -8.640000
156.790000 200.290000 -8.640000
156.770000 197.650000 -8.640000
156.860000 194.950000 -8.640000
157.030000 192.230000 -8.640000
157.270000 189.530000 -8.640000
157.550000 186.890000 -8.640000
157.960000 184.330000 -8.640000
158.830000 181.790000 -8.640000
160.060000 179.310000 -8.640000
161.480000 176.950000 -8.640000
162.950000 174.780000 -8.640000
164.720000 172.780000 -8.640000
166.740000 170.940000 -8.640000
166.740000 170.940000 -8.640000
168.550000 168.800000 -8.640000
170.470000 166.850000 -8.640000
172.510000 165.070000 -8.640000
174.640000 163.490000 -8.640000
176.850000 162.100000 -8.640000
179.180000 160.760000 -8.640000
181.690000 159.540000 -8.640000
184.250000 159.040000 -8.640000
186.870000 159.240000 -8.640000
189.550000 159.660000 -8.640000
192.220000 160.150000 -8.640000
194.890000 160.620000 -8.640000
197.600000 161.130000 -8.640000
200.210000 161.780000 -8.640000
202.570000 162.670000 -8.640000
204.670000 164.300000 -8.640000
206.680000 166.220000 -8.640000
208.800000 167.900000 -8.640000
210.970000 169.530000 -8.640000
212.990000 171.260000 -8.640000
214.780000 173.220000 -8.640000
216.500000 175.380000 -8.640000
217.930000 177.690000 -8.640000
218.870000 180.100000 -8.640000
219.620000 182.660000 -8.640000
220.210000 185.340000 -8.640000
220.490000 188.030000 -8.640000
220.500000 190.710000 -8.640000
220.500000 193.410000 -8.640000
220.480000 196.050000 -8.640000
220.060000 198.660000 -8.640000
219.220000 201.240000 -8.640000
218.160000 203.780000 -8.640000
217.080000 206.270000 -8.640000
216.020000 208.750000 -8.640000
214.830000 211.260000 -8.640000
213.470000 213.620000 -8.640000
211.930000 215.660000 -8.640000
210.000000 217.300000 -8.640000
207.660000 218.700000 -8.640000
203.870000 219.700000 0.000000
202.060000 221.400000 0.000000
200.000000 223.000000 0.000000
197.780000 224.410000 0.000000
195.500000 225.550000 0.000000
193.140000 226.530000 0.000000
190.650000 227.320000 0.000000
190.650000 227.320000 0.000000
188.150000 227.500000 0.000000
185.620000 227.280000 0.000000
183.070000 226.860000 0.000000
180.550000 226.340000 0.000000
178.070000 225.780000 0.000000
175.560000 225.050000 0.000000
173.110000 224.160000 0.000000
170.790000 223.120000 0.000000
168.670000 221.920000 0.000000
166.650000 220.350000 0.000000
164.760000 218.520000 0.000000
163.030000 216.570000 0.000000
161.440000 214.580000 0.000000
159.720000 212.470000 0.000000
158.220000 210.230000 0.000000
157.360000 207.910000 0.000000
157.290000 205.510000 0.000000
157.330000 202.990000 0.000000
157.390000 200.390000 0.000000
157.460000 197.780000 0.000000
157.560000 195.210000 0.000000
157.750000 192.650000 0.000000
158.040000 190.090000 0.000000
158.420000 187.570000 0.000000
158.880000 185.090000 0.000000
159.640000 182.610000 0.000000
160.660000 180.220000 0.000000
161.850000 178.050000 0.000000
163.350000 176.060000 0.000000
165.180000 174.230000 0.000000
167.280000 172.570000 0.000000
167.280000 172.570000 0.000000
168.890000 170.540000 0.000000
170.600000 168.630000 0.000000
172.420000 166.850000 0.000000
174.330000 165.160000 0.000000
176.360000 163.300000 0.000000
178.480000 161.540000 0.000000
180.690000 160.230000 0.000000
182.980000 159.720000 0.000000
185.420000 159.850000 0.000000
188.010000 160.170000 0.000000
190.620000 160.630000 0.000000
193.080000 161.180000 0.000000
195.380000 162.110000 0.000000
197.600000 163.460000 0.000000
199.770000 164.920000 0.000000
201.970000 166.270000 0.000000
204.200000 167.590000 0.000000
206.380000 168.980000 0.000000
208.400000 170.490000 0.000000
210.210000 172.190000 0.000000
211.940000 174.100000 0.000000
213.540000 176.180000 0.000000
214.950000 178.350000 0.000000
216.110000 180.570000 0.000000
217.260000 182.920000 0.000000
218.220000 185.370000 0.000000
218.650000 187.840000 0.000000
218.550000 190.340000 0.000000
218.210000 192.920000 0.000000
217.700000 195.500000 0.000000
217.060000 198.010000 0.000000
216.350000 200.410000 0.000000
215.360000 202.630000 0.000000
213.890000 204.730000 0.000000
212.230000 206.790000 0.000000
210.700000 208.890000 0.000000
209.360000 211.110000 0.000000
208.080000 213.400000 0.000000
206.790000 215.670000 0.000000
205.410000 217.800000 0.000000
3 0 80 2
3 0 2 3
3 0 3 4
3 0 4 5
3 0 5 6
3 0 6 7
3 0 7 8
3 0 8 9
3 0 9 10
3 0 10 11
3 0 11 12
3 0 12 13
3 0 13 14
3 0 14 15
3 0 15 16
3 0 16 17
3 0 17 18
3 0 18 19
3 0 19 20
3 0 20 21
3 0 21 22
3 0 22 24
3 0 24 25
3 0 25 26
3 0 26 27
3 0 27 28
3 0 28 29
3 0 29 30
3 0 30 31
3 0 31 32
3 0 32 33
3 0 33 34
3 0 34 35
3 0 35 36
3 0 36 37
3 0 37 38
3 0 38 39
3 0 39 40
3 0 40 41
3 0 41 42
3 0 42 43
3 0 43 44
3 0 44 45
3 0 45 46
3 0 46 47
3 0 47 48
3 0 48 49
3 0 49 50
3 0 50 51
3 0 51 52
3 0 52 53
3 0 53 54
3 0 54 55
3 0 55 56
3 0 56 57
3 0 57 58
3 0 58 59
3 0 59 60
3 0 60 61
3 0 61 62
3 0 62 63
3 0 63 64
3 0 64 65
3 0 65 66
3 0 66 67
3 0 67 68
3 0 68 69
3 0 69 70
3 0 70 71
3 0 71 72
3 0 72 73
3 0 73 74
3 0 74 75
3 0 75 76
3 0 76 77
3 0 77 78
3 0 78 79
3 0 79 80
3 80 81 2
3 2 81 83
3 2 83 3
3 3 83 84
3 3 84 4
3 4 84 85
3 4 85 5
3 5 85 86
3 5 86 6
3 6 86 87
3 6 87 7
3 7 87 88
3 7 88 8
3 8 88 89
3 8 89 9
3 9 89 90
3 9 90 10
3 10 90 91
3 10 91 11
3 11 91 92
3 11 92 12
3 12 92 93
3 12 93 13
3 13 93 94
3 13 94 14
3 14 94 95
3 14 95 15
3 15 95 96
3 15 96 16
3 16 96 97
3 16 97 17
3 17 97 98
3 17 98 18
3 18 98 99
3 18 99 19
3 19 99 100
3 19 100 20
3 20 100 101
3 20 101 21
3 21 101 102
3 21 102 22
3 22 102 103
3 22 103 104
3 22 104 24
3 24 104 105
3 24 105 25
3 25 105 106
3 25 106 26
3 26 106 107
3 26 107 27
3 27 107 108
3 27 108 28
3 28 108 109
3 28 109 29
3 29 109 110
3 29 110 30
3 30 110 111
3 30 111 31
3 31 111 112
3 31 112 32
3 32 112 113
3 32 113 33
3 33 113 114
3 33 114 34
3 34 114 115
3 34 115 35
3 35 115 116
3 35 116 36
3 36 116 117
3 36 117 37
3 37 117 118
3 37 118 38
3 38 118 119
3 38 119 39
3 39 119 120
3 39 120 40
3 40 120 121
3 40 121 41
3 41 121 122
3 41 122 42
3 42 122 123
3 42 123 43
3 43 123 124
3 43 124 44
3 44 124 125
3 44 125 45
3 45 125 126
3 45 126 46
3 46 126 127
3 46 127 47
3 47 127 128
3 47 128 48
3 48 128 129
3 48 129 49
3 49 129 50
3 50 129 131
3 50 131 51
3 51 131 132
3 51 132 52
3 52 132 133
3 52 133 53
3 53 133 134
3 53 134 54
3 54 134 135
3 54 135 55
3 55 135 136
3 55 136 56
3 56 136 137
3 56 137 57
3 57 137 138
3 57 138 58
3 58 138 139
3 58 139 59
3 59 139 140
3 59 140 60
3 60 140 141
3 60 141 61
3 61 141 142
3 61 142 62
3 62 142 143
3 62 143 63
3 63 143 144
3 63 144 64
3 64 144 145
3 64 145 65
3 65 145 146
3 65 146 66
3 66 146 147
3 66 147 67
3 67 147 148
3 67 148 68
3 68 148 149
3 68 149 69
3 69 149 150
3 69 150 70
3 70 150 151
3 70 151 71
3 71 151 152
3 71 152 72
3 72 152 153
3 72 153 73
3 73 153 154
3 73 154 74
3 74 154 155
3 74 155 75
3 75 155 156
3 75 156 76
3 76 156 157
3 76 157 77
3 77 157 158
3 77 158 78
3 78 158 159
3 78 159 79
3 79 159 160
3 79 160 80
3 80 160 81
3 81 161 162
3 81 162 163
3 81 163 83
3 83 163 84
3 84 163 165
3 84 165 85
3 85 165 166
3 85 166 86
3 86 166 167
3 86 167 87
3 87 167 168
3 87 168 88
3 88 168 169
3 88 169 89
3 89 169 170
3 89 170 90
3 90 170 171
3 90 171 91
3 91 171 172
3 91 172 92
3 92 172 173
3 92 173 93
3 93 173 174
3 93 174 94
3 94 174 175
3 94 175 95
3 95 175 176
3 95 176 96
3 96 176 177
3 96 177 97
3 97 177 178
3 97 178 98
3 98 178 179
3 98 179 99
3 99 179 180
3 99 180 100
3 100 180 181
3 100 181 101
3 101 181 182
3 101 182 102
3 102 182 183
3 102 183 103
3 103 183 184
3 103 184 104
3 104 184 185
3 104 185 105
3 105 185 186
3 105 186 106
3 106 186 187
3 106 187 107
3 107 187 188
3 107 188 108
3 108 188 189
3 108 189 109
3 109 189 190
3 109 190 110
3 110 190 191
3 110 191 111
3 111 191 192
3 111 192 112
3 112 192 193
3 112 193 113
3 113 193 194
3 113 194 114
3 114 194 195
3 114 195 115
3 115 195 196
3 115 196 116
3 116 196 197
3 116 197 117
3 117 197 198
3 117 198 118
3 118 198 119
3 119 198 200
3 119 200 120
3 120 200 201
3 120 201 121
3 121 201 202
3 121 202 122
3 122 202 203
3 122 203 123
3 123 203 204
3 123 204 124
3 124 204 205
3 124 205 125
3 125 205 206
3 125 206 126
3 126 206 207
3 126 207 127
3 127 207 208
3 127 208 128
3 128 208 209
3 128 209 129
3 129 209 210
3 129 210 211
3 129 211 131
3 131 211 212
3 131 212 132
3 132 212 213
3 132 213 133
3 133 213 214
3 133 214 134
3 134 214 215
3 134 215 135
3 135 215 216
3 135 216 136
3 136 216 217
3 136 217 137
3 137 217 218
3 137 218 138
3 138 218 219
3 138 219 139
3 139 219 220
3 139 220 140
3 140 220 221
3 140 221 141
3 141 221 222
3 141 222 142
3 142 222 223
3 142 223 143
3 143 223 224
3 143 224 144
3 144 224 225
3 144 225 145
3 145 225 226
3 145 226 146
3 146 226 227
3 146 227 147
3 147 227 228
3 147 228 148
3 148 228 229
3 148 229 149
3 149 229 230
3 149 230 150
3 150 230 231
3 150 231 151
3 151 231 232
3 151 232 152
3 152 232 233
3 152 233 153
3 153 233 234
3 153 234 154
3 154 234 235
3 154 235 155
3 155 235 236
3 155 236 156
3 156 236 237
3 156 237 157
3 157 237 238
3 157 238 158
3 158 238 239
3 158 239 159
3 159 239 240
3 159 240 160
3 160 240 161
3 160 161 81
3 161 241 242
3 161 242 162
3 162 242 243
3 162 243 163
3 163 243 245
3 163 245 165
3 165 245 246
3 165 246 166
3 166 246 247
3 166 247 167
3 167 247 248
3 167 248 168
3 168 248 249
3 168 249 169
3 169 249 250
3 169 250 170
3 170 250 251
3 170 251 171
3 171 251 252
3 171 252 172
3 172 252 253
3 172 253 173
3 173 253 254
3 173 254 174
3 174 254 255
3 174 255 175
3 175 255 256
3 175 256 176
3 176 256 257
3 176 257 177
3 177 257 258
3 177 258 178
3 178 258 259
3 178 259 179
3 179 259 260
3 179 260 180
3 180 260 261
3 180 261 181
3 181 261 262
3 181 262 182
3 182 262 263
3 182 263 183
3 183 263 264
3 183 264 184
3 184 264 265
3 184 265 185
3 185 265 266
3 185 266 186
3 186 266 267
3 186 267 187
3 187 267 268
3 187 268 188
3 188 268 269
3 188 269 189
3 189 269 270
3 189 270 190
3 190 270 271
3 190 271 191
3 191 271 272
3 191 272 192
3 192 272 273
3 192 273 193
3 193 273 274
3 193 274 194
3 194 274 275
3 194 275 195
3 195 275 276
3 195 276 196
3 196 276 277
3 196 277 197
3 197 277 278
3 197 278 198
3 198 278 279
3 198 279 280
3 198 280 200
3 200 280 201
3 201 280 282
3 201 282 202
3 202 282 283
3 202 283 203
3 203 283 284
3 203 284 204
3 204 284 285
3 204 285 205
3 205 285 286
3 205 286 206
3 206 286 287
3 206 287 207
3 207 287 288
3 207 288 208
3 208 288 289
3 208 289 209
3 209 289 290
3 209 290 210
3 210 290 291
3 210 291 211
3 211 291 292
3 211 292 212
3 212 292 293
3 212 293 213
3 213 293 294
3 213 294 214
3 214 294 295
3 214 295 215
3 215 295 296
3 215 296 216
3 216 296 297
3 216 297 217
3 217 297 298
3 217 298 218
3 218 298 299
3 218 299 219
3 219 299 300
3 219 300 220
3 220 300 301
3 220 301 221
3 221 301 302
3 221 302 222
3 222 302 303
3 222 303 223
3 223 303 304
3 223 304 224
3 224 304 305
3 224 305 225
3 225 305 306
3 225 306 226
3 226 306 307
3 226 307 227
3 227 307 308
3 227 308 228
3 228 308 309
3 228 309 229
3 229 309 310
3 229 310 230
3 230 310 311
3 230 311 231
3 231 311 312
3 231 312 232
3 232 312 313
3 232 313 233
3 233 313 314
3 233 314 234
3 234 314 315
3 234 315 235
3 235 315 316
3 235 316 236
3 236 316 317
3 236 317 237
3 237 317 318
3 237 318 238
3 238 318 319
3 238 319 239
3 239 319 320
3 239 320 240
3 240 320 241
3 240 241 161
3 241 321 322
3 241 322 242
3 242 322 323
3 242 323 243
3 243 323 324
3 243 324 245
3 245 324 326
3 245 326 246
3 246 326 327
3 246 327 247
3 247 327 328
3 247 328 248
3 248 328 329
3 248 329 249
3 249 329 330
3 249 330 250
3 250 330 331
3 250 331 251
3 251 331 332
3 251 332 252
3 252 332 333
3 252 333 253
3 253 333 334
3 253 334 254
3 254 334 335
3 254 335 255
3 255 335 336
3 255 336 256
3 256 336 337
3 256 337 257
3 257 337 338
3 257 338 258
3 258 338 339
3 258 339 259
3 259 339 340
3 259 340 260
3 260 340 341
3 260 341 261
3 261 341 342
3 261 342 262
3 262 342 343
3 262 343 263
3 263 343 344
3 263 344 264
3 264 344 345
3 264 345 265
3 265 345 346
3 265 346 266
3 266 346 347
3 266 347 267
3 267 347 348
3 267 348 268
3 268 348 349
3 268 349 269
3 269 349 350
3 269 350 270
3 270 350 351
3 270 351 271
3 271 351 352
3 271 352 272
3 272 352 353
3 272 353 273
3 273 353 354
3 273 354 274
3 274 354 355
3 274 355 275
3 275 355 356
3 275 356 276
3 276 356 357
3 276 357 277
3 277 357 358
3 277 358 278
3 278 358 359
3 278 359 279
3 279 359 360
3 279 360 280
3 280 360 361
3 280 361 362
3 280 362 282
3 282 362 363
3 282 363 283
3 283 363 364
3 283 364 284
3 284 364 365
3 284 365 285
3 285 365 366
3 285 366 286
3 286 366 367
3 286 367 287
3 287 367 368
3 287 368 288
3 288 368 369
3 288 369 289
3 289 369 370
3 289 370 290
3 290 370 371
3 290 371 291
3 291 371 372
3 291 372 292
3 292 372 373
3 292 373 293
3 293 373 374
3 293 374 294
3 294 374 375
3 294 375 295
3 295 375 376
3 295 376 296
3 296 376 377
3 296 377 297
3 297 377 378
3 297 378 298
3 298 378 379
3 298 379 299
3 299 379 380
3 299 380 300
3 300 380 381
3 300 381 301
3 301 381 382
3 301 382 302
3 302 382 383
3 302 383 303
3 303 383 384
3 303 384 304
3 304 384 385
3 304 385 305
3 305 385 386
3 305 386 306
3 306 386 387
3 306 387 307
3 307 387 388
3 307 388 308
3 308 388 389
3 308 389 309
3 309 389 390
3 309 390 310
3 310 390 391
3 310 391 311
3 311 391 392
3 311 392 312
3 312 392 393
3 312 393 313
3 313 393 394
3 313 394 314
3 314 394 395
3 314 395 315
3 315 395 396
3 315 396 316
3 316 396 317
3 317 396 398
3 317 398 318
3 318 398 399
3 318 399 319
3 319 399 400
3 319 400 320
3 320 400 321
3 320 321 241
3 321 401 402
3 321 402 322
3 322 402 403
3 322 403 323
3 323 403 404
3 323 404 324
3 324 404 405
3 324 405 326
3 326 405 327
3 327 405 408
3 327 408 328
3 328 408 409
3 328 409 329
3 329 409 410
3 329 410 330
3 330 410 411
3 330 411 331
3 331 411 412
3 331 412 332
3 332 412 413
3 332 413 333
3 333 413 414
3 333 414 334
3 334 414 415
3 334 415 335
3 335 415 416
3 335 416 336
3 336 416 417
3 336 417 337
3 337 417 418
3 337 418 338
3 338 418 419
3 338 419 339
3 339 419 420
3 339 420 340
3 340 420 421
3 340 421 341
3 341 421 422
3 341 422 342
3 342 422 423
3 342 423 343
3 343 423 424
3 343 424 344
3 344 424 425
3 344 425 345
3 345 425 426
3 345 426 346
3 346 426 427
3 346 427 347
3 347 427 428
3 347 428 348
3 348 428 429
3 348 429 349
3 349 429 430
3 349 430 350
3 350 430 431
3 350 431 351
3 351 431 432
3 351 432 352
3 352 432 433
3 352 433 353
3 353 433 434
3 353 434 354
3 354 434 435
3 354 435 355
3 355 435 436
3 355 436 356
3 356 436 437
3 356 437 357
3 357 437 438
3 357 438 358
3 358 438 439
3 358 439 359
3 359 439 440
3 359 440 360
3 360 440 441
3 360 441 361
3 361 441 442
3 361 442 362
3 362 442 443
3 362 443 363
3 363 443 444
3 363 444 364
3 364 444 445
3 364 445 365
3 365 445 446
3 365 446 366
3 366 446 447
3 366 447 367
3 367 447 448
3 367 448 368
3 368 448 449
3 368 449 369
3 369 449 450
3 369 450 370
3 370 450 451
3 370 451 371
3 371 451 452
3 371 452 372
3 372 452 453
3 372 453 373
3 373 453 454
3 373 454 374
3 374 454 455
3 374 455 375
3 375 455 456
3 375 456 376
3 376 456 457
3 376 457 377
3 377 457 458
3 377 458 378
3 378 458 459
3 378 459 379
3 379 459 460
3 379 460 380
3 380 460 461
3 380 461 381
3 381 461 462
3 381 462 382
3 382 462 463
3 382 463 383
3 383 463 464
3 383 464 384
3 384 464 465
3 384 465 385
3 385 465 466
3 385 466 386
3 386 466 467
3 386 467 387
3 387 467 468
3 387 468 388
3 388 468 469
3 388 469 389
3 389 469 470
3 389 470 390
3 390 470 471
3 390 471 391
3 391 471 472
3 391 472 392
3 392 472 473
3 392 473 393
3 393 473 474
3 393 474 394
3 394 474 475
3 394 475 395
3 395 475 476
3 395 476 396
3 396 476 477
3 396 477 478
3 396 478 398
3 398 478 479
3 398 479 399
3 399 479 480
3 399 480 400
3 400 480 401
3 400 401 321
3 401 481 482
3 401 482 402
3 402 482 483
3 402 483 403
3 403 483 404
3 404 483 485
3 404 485 405
3 405 485 486
3 405 486 487
3 405 487 408
3 408 487 489
3 408 489 409
3 409 489 490
3 409 490 410
3 410 490 491
3 410 491 411
3 411 491 492
3 411 492 412
3 412 492 493
3 412 493 413
3 413 493 494
3 413 494 414
3 414 494 495
3 414 495 415
3 415 495 496
3 415 496 416
3 416 496 497
3 416 497 417
3 417 497 498
3 417 498 418
3 418 498 499
3 418 499 419
3 419 499 500
3 419 500 420
3 420 500 501
3 420 501 421
3 421 501 502
3 421 502 422
3 422 502 503
3 422 503 423
3 423 503 504
3 423 504 424
3 424 504 505
3 424 505 425
3 425 505 506
3 425 506 426
3 426 506 507
3 426 507 427
3 427 507 508
3 427 508 428
3 428 508 509
3 428 509 429
3 429 509 510
3 429 510 430
3 430 510 511
3 430 511 431
3 431 511 512
3 431 512 432
3 432 512 513
3 432 513 433
3 433 513 514
3 433 514 434
3 434 514 515
3 434 515 435
3 435 515 516
3 435 516 436
3 436 516 517
3 436 517 437
3 437 517 518
3 437 518 438
3 438 518 519
3 438 519 439
3 439 519 520
3 439 520 440
3 440 520 521
3 440 521 441
3 441 521 522
3 441 522 442
3 442 522 523
3 442 523 443
3 443 523 524
3 443 524 444
3 444 524 525
3 444 525 445
3 445 525 526
3 445 526 446
3 446 526 527
3 446 527 447
3 447 527 528
3 447 528 448
3 448 528 529
3 448 529 449
3 449 529 530
3 449 530 450
3 450 530 531
3 450 531 451
3 451 531 532
3 451 532 452
3 452 532 533
3 452 533 453
3 453 533 534
3 453 534 454
3 454 534 535
3 454 535 455
3 455 535 536
3 455 536 456
3 456 536 537
3 456 537 457
3 457 537 538
3 457 538 458
3 458 538 539
3 458 539 459
3 459 539 540
3 459 540 460
3 460 540 541
3 460 541 461
3 461 541 542
3 461 542 462
3 462 542 543
3 462 543 463
3 463 543 544
3 463 544 464
3 464 544 545
3 464 545 465
3 465 545 546
3 465 546 466
3 466 546 547
3 466 547 467
3 467 547 548
3 467 548 468
3 468 548 549
3 468 549 469
3 469 549 550
3 469 550 470
3 470 550 551
3 470 551 471
3 471 551 552
3 471 552 472
3 472 552 553
3 472 553 473
3 473 553 554
3 473 554 474
3 474 554 555
3 474 555 475
3 475 555 556
3 475 556 476
3 476 556 557
3 476 557 477
3 477 557 558
3 477 558 478
3 478 558 559
3 478 559 479
3 479 559 560
3 479 560 480
3 480 560 481
3 480 481 401
3 481 561 562
3 481 562 482
3 482 562 563
3 482 563 483
3 483 563 564
3 483 564 565
3 483 565 485
3 485 565 566
3 485 566 486
3 486 566 487
3 487 566 568
3 487 568 569
3 487 569 489
3 489 569 570
3 489 570 490
3 490 570 571
3 490 571 491
3 491 571 572
3 491 572 492
3 492 572 573
3 492 573 493
3 493 573 574
3 493 574 494
3 494 574 575
3 494 575 495
3 495 575 576
3 495 576 496
3 496 576 577
3 496 577 497
3 497 577 578
3 497 578 498
3 498 578 579
3 498 579 499
3 499 579 580
3 499 580 500
3 500 580 581
3 500 581 501
3 501 581 582
3 501 582 502
3 502 582 583
3 502 583 503
3 503 583 584
3 503 584 504
3 504 584 585
3 504 585 505
3 505 585 586
3 505 586 506
3 506 586 587
3 506 587 507
3 507 587 588
3 507 588 508
3 508 588 589
3 508 589 509
3 509 589 590
3 509 590 510
3 510 590 591
3 510 591 511
3 511 591 592
3 511 592 512
3 512 592 593
3 512 593 513
3 513 593 594
3 513 594 514
3 514 594 595
3 514 595 515
3 515 595 596
3 515 596 516
3 516 596 597
3 516 597 517
3 517 597 598
3 517 598 518
3 518 598 599
3 518 599 519
3 519 599 600
3 519 600 520
3 520 600 601
3 520 601 521
3 521 601 602
3 521 602 522
3 522 602 603
3 522 603 523
3 523 603 604
3 523 604 524
3 524 604 525
3 525 604 606
3 525 606 526
3 526 606 607
3 526 607 527
3 527 607 608
3 527 608 528
3 528 608 609
3 528 609 529
3 529 609 610
3 529 610 530
3 530 610 611
3 530 611 531
3 531 611 612
3 531 612 532
3 532 612 613
3 532 613 533
3 533 613 614
3 533 614 534
3 534 614 615
3 534 615 535
3 535 615 616
3 535 616 536
3 536 616 617
3 536 617 537
3 537 617 618
3 537 618 538
3 538 618 619
3 538 619 539
3 539 619 620
3 539 620 540
3 540 620 621
3 540 621 541
3 541 621 622
3 541 622 542
3 542 622 623
3 542 623 543
3 543 623 624
3 543 624 544
3 544 624 625
3 544 625 545
3 545 625 626
3 545 626 546
3 546 626 627
3 546 627 547
3 547 627 628
3 547 628 548
3 548 628 629
3 548 629 549
3 549 629 630
3 549 630 550
3 550 630 631
3 550 631 551
3 551 631 632
3 551 632 552
3 552 632 633
3 552 633 553
3 553 633 634
3 553 634 554
3 554 634 635
3 554 635 555
3 555 635 636
3 555 636 556
3 556 636 637
3 556 637 557
3 557 637 638
3 557 638 558
3 558 638 639
3 558 639 559
3 559 639 640
3 559 640 560
3 560 640 561
3 560 561 481
3 561 641 642
3 561 642 562
3 562 642 643
3 562 643 563
3 563 643 644
3 563 644 564
3 564 644 645
3 564 645 565
3 565 645 646
3 565 646 566
3 566 646 647
3 566 647 568
3 568 647 649
3 568 649 569
3 569 649 650
3 569 650 570
3 570 650 651
3 570 651 571
3 571 651 652
3 571 652 572
3 572 652 653
3 572 653 573
3 573 653 654
3 573 654 574
3 574 654 655
3 574 655 575
3 575 655 656
3 575 656 576
3 576 656 657
3 576 657 577
3 577 657 658
3 577 658 578
3 578 658 659
3 578 659 579
3 579 659 660
3 579 660 580
3 580 660 661
3 580 661 581
3 581 661 662
3 581 662 582
3 582 662 663
3 582 663 583
3 583 663 664
3 583 664 584
3 584 664 665
3 584 665 585
3 585 665 666
3 585 666 586
3 586 666 667
3 586 667 587
3 587 667 668
3 587 668 588
3 588 668 669
3 588 669 589
3 589 669 670
3 589 670 590
3 590 670 671
3 590 671 591
3 591 671 672
3 591 672 592
3 592 672 673
3 592 673 593
3 593 673 674
3 593 674 594
3 594 674 675
3 594 675 595
3 595 675 676
3 595 676 596
3 596 676 677
3 596 677 597
3 597 677 678
3 597 678 598
3 598 678 679
3 598 679 599
3 599 679 600
3 600 679 681
3 600 681 601
3 601 681 682
3 601 682 602
3 602 682 683
3 602 683 603
3 603 683 684
3 603 684 604
3 604 684 685
3 604 685 686
3 604 686 606
3 606 686 687
3 606 687 607
3 607 687 688
3 607 688 608
3 608 688 689
3 608 689 609
3 609 689 690
3 609 690 610
3 610 690 691
3 610 691 611
3 611 691 692
3 611 692 612
3 612 692 693
3 612 693 613
3 613 693 694
3 613 694 614
3 614 694 695
3 614 695 615
3 615 695 696
3 615 696 616
3 616 696 697
3 616 697 617
3 617 697 698
3 617 698 618
3 618 698 699
3 618 699 619
3 619 699 700
3 619 700 620
3 620 700 701
3 620 701 621
3 621 701 702
3 621 702 622
3 622 702 703
3 622 703 623
3 623 703 704
3 623 704 624
3 624 704 705
3 624 705 625
3 625 705 706
3 625 706 626
3 626 706 707
3 626 707 627
3 627 707 708
3 627 708 628
3 628 708 709
3 628 709 629
3 629 709 710
3 629 710 630
3 630 710 711
3 630 711 631
3 631 711 712
3 631 712 632
3 632 712 713
3 632 713 633
3 633 713 714
3 633 714 634
3 634 714 715
3 634 715 635
3 635 715 716
3 635 716 636
3 636 716 717
3 636 717 637
3 637 717 718
3 637 718 638
3 638 718 719
3 638 719 639
3 639 719 720
3 639 720 640
3 640 720 641
3 640 641 561
3 641 721 722
3 641 722 642
3 642 722 723
3 642 723 643
3 643 723 724
3 643 724 644
3 644 724 725
3 644 725 645
3 645 725 726
3 645 726 646
3 646 726 727
3 646 727 647
3 647 727 729
3 647 729 649
3 649 729 730
3 649 730 650
3 650 730 731
3 650 731 651
3 651 731 732
3 651 732 652
3 652 732 733
3 652 733 653
3 653 733 734
3 653 734 654
3 654 734 735
3 654 735 655
3 655 735 736
3 655 736 656
3 656 736 737
3 656 737 657
3 657 737 738
3 657 738 658
3 658 738 739
3 658 739 659
3 659 739 740
3 659 740 660
3 660 740 741
3 660 741 661
3 661 741 742
3 661 742 662
3 662 742 743
3 662 743 663
3 663 743 744
3 663 744 664
3 664 744 745
3 664 745 665
3 665 745 746
3 665 746 666
3 666 746 747
3 666 747 667
3 667 747 748
3 667 748 668
3 668 748 749
3 668 749 669
3 669 749 750
3 669 750 670
3 670 750 751
3 670 751 671
3 671 751 752
3 671 752 672
3 672 752 753
3 672 753 673
3 673 753 754
3 673 754 674
3 674 754 755
3 674 755 675
3 675 755 756
3 675 756 676
3 676 756 757
3 676 757 677
3 677 757 758
3 677 758 678
3 678 758 759
3 678 759 679
3 679 759 761
3 679 761 681
3 681 761 762
3 681 762 682
3 682 762 763
3 682 763 683
3 683 763 764
3 683 764 684
3 684 764 765
3 684 765 685
3 685 765 766
3 685 766 686
3 686 766 767
3 686 767 687
3 687 767 768
3 687 768 688
3 688 768 769
3 688 769 689
3 689 769 770
3 689 770 690
3 690 770 771
3 690 771 691
3 691 771 772
3 691 772 692
3 692 772 773
3 692 773 693
3 693 773 774
3 693 774 694
3 694 774 775
3 694 775 695
3 695 775 776
3 695 776 696
3 696 776 777
3 696 777 697
3 697 777 778
3 697 778 698
3 698 778 779
3 698 779 699
3 699 779 780
3 699 780 700
3 700 780 781
3 700 781 701
3 701 781 782
3 701 782 702
3 702 782 783
3 702 783 703
3 703 783 784
3 703 784 704
3 704 784 785
3 704 785 705
3 705 785 786
3 705 786 706
3 706 786 787
3 706 787 707
3 707 787 788
3 707 788 708
3 708 788 789
3 708 789 709
3 709 789 790
3 709 790 710
3 710 790 791
3 710 791 711
3 711 791 792
3 711 792 712
3 712 792 793
3 712 793 713
3 713 793 794
3 713 794 714
3 714 794 795
3 714 795 715
3 715 795 796
3 715 796 716
3 716 796 797
3 716 797 717
3 717 797 798
3 717 798 718
3 718 798 799
3 718 799 719
3 719 799 800
3 719 800 720
3 720 800 721
3 720 721 641
