ply 
format ascii 1.0 
comment this is a surface 
element vertex 801 
property float x 
property float y 
property float z 
element face 1482 
property list uchar int vertex_index 
end_header 
197.812000 192.510250 -77.760000
200.020000 211.530000 -77.760000
198.420000 211.420000 -77.760000
196.890000 210.900000 -77.760000
196.160000 209.490000 -77.760000
194.870000 208.690000 -77.760000
193.240000 208.680000 -77.760000
191.610000 208.380000 -77.760000
190.890000 208.310000 -77.760000
191.410000 209.030000 -77.760000
189.650000 208.460000 -77.760000
188.200000 207.850000 -77.760000
186.910000 206.860000 -77.760000
185.640000 205.890000 -77.760000
184.500000 204.760000 -77.760000
183.480000 203.530000 -77.760000
182.790000 202.090000 -77.760000
182.120000 200.600000 -77.760000
181.870000 199.070000 -77.760000
181.470000 197.560000 -77.760000
181.210000 196.030000 -77.760000
180.910000 194.470000 -77.760000
180.590000 192.910000 -77.760000
180.560000 191.300000 -77.760000
180.560000 189.700000 -77.760000
180.560000 188.100000 -77.760000
180.560000 186.490000 -77.760000
180.600000 184.890000 -77.760000
180.970000 183.350000 -77.760000
181.330000 181.780000 -77.760000
181.970000 180.370000 -77.760000
182.660000 178.920000 -77.760000
183.540000 177.620000 -77.760000
184.710000 176.510000 -77.760000
185.970000 175.500000 -77.760000
186.860000 174.180000 -77.760000
188.020000 173.150000 -77.760000
189.470000 172.460000 -77.760000
190.920000 171.770000 -77.760000
192.520000 171.740000 -77.760000
194.130000 171.740000 -77.760000
195.730000 171.740000 -77.760000
197.330000 171.740000 -77.760000
198.940000 171.740000 -77.760000
200.500000 172.070000 -77.760000
202.080000 172.390000 -77.760000
203.590000 172.910000 -77.760000
205.080000 173.510000 -77.760000
206.490000 174.260000 -77.760000
207.750000 175.260000 -77.760000
209.020000 176.250000 -77.760000
210.200000 177.300000 -77.760000
210.960000 178.730000 -77.760000
211.720000 180.140000 -77.760000
212.660000 181.440000 -77.760000
213.590000 182.750000 -77.760000
214.270000 184.180000 -77.760000
214.450000 185.780000 -77.760000
214.450000 187.380000 -77.760000
214.450000 188.990000 -77.760000
214.450000 190.590000 -77.760000
214.450000 192.190000 -77.760000
214.450000 193.800000 -77.760000
214.610000 195.390000 -77.760000
214.890000 196.970000 -77.760000
214.890000 198.570000 -77.760000
214.890000 200.180000 -77.760000
214.880000 201.780000 -77.760000
214.090000 203.190000 -77.760000
213.510000 204.680000 -77.760000
212.710000 206.070000 -77.760000
211.810000 207.390000 -77.760000
210.470000 208.290000 -77.760000
209.140000 209.170000 -77.760000
207.710000 209.900000 -77.760000
206.310000 210.690000 -77.760000
204.790000 211.210000 -77.760000
203.230000 211.530000 -77.760000
201.620000 211.530000 -77.760000
200.020000 211.530000 -77.760000
200.020000 211.530000 -77.760000
198.260000 221.930000 -69.120000
195.940000 221.530000 -69.120000
193.740000 221.000000 -69.120000
191.660000 220.380000 -69.120000
189.690000 219.700000 -69.120000
187.820000 218.820000 -69.120000
186.040000 217.390000 -69.120000
184.390000 215.620000 -69.120000
182.920000 213.740000 -69.120000
181.670000 211.900000 -69.120000
180.540000 209.930000 -69.120000
179.520000 207.850000 -69.120000
178.590000 205.720000 -69.120000
177.750000 203.600000 -69.120000
176.910000 201.470000 -69.120000
176.060000 199.310000 -69.120000
175.280000 197.130000 -69.120000
174.620000 194.930000 -69.120000
174.140000 192.710000 -69.120000
173.900000 190.480000 -69.120000
173.740000 188.220000 -69.120000
173.600000 185.940000 -69.120000
173.480000 183.640000 -69.120000
173.390000 181.340000 -69.120000
173.320000 179.040000 -69.120000
173.290000 176.770000 -69.120000
173.300000 174.480000 -69.120000
173.540000 171.780000 -69.120000
174.020000 168.870000 -69.120000
174.700000 166.150000 -69.120000
175.530000 164.020000 -69.120000
176.450000 162.890000 -69.120000
177.610000 162.860000 -69.120000
179.450000 163.080000 -69.120000
181.810000 163.440000 -69.120000
184.430000 163.880000 -69.120000
187.090000 164.330000 -69.120000
189.550000 164.750000 -69.120000
191.810000 165.120000 -69.120000
194.090000 165.480000 -69.120000
196.370000 165.840000 -69.120000
198.640000 166.240000 -69.120000
200.870000 166.700000 -69.120000
203.040000 167.230000 -69.120000
205.200000 167.870000 -69.120000
207.430000 168.700000 -69.120000
209.650000 169.690000 -69.120000
211.780000 170.820000 -69.120000
213.710000 172.070000 -69.120000
215.370000 173.420000 -69.120000
216.750000 174.920000 -69.120000
218.060000 176.750000 -69.120000
219.260000 178.840000 -69.120000
220.250000 181.070000 -69.120000
220.950000 183.310000 -69.120000
221.310000 185.480000 -69.120000
221.580000 187.700000 -69.120000
221.830000 189.980000 -69.120000
222.050000 192.300000 -69.120000
222.240000 194.650000 -69.120000
222.400000 197.000000 -69.120000
222.530000 199.330000 -69.120000
222.620000 201.630000 -69.120000
222.680000 203.860000 -69.120000
222.700000 206.030000 -69.120000
222.440000 208.230000 -69.120000
221.690000 210.550000 -69.120000
220.580000 212.850000 -69.120000
219.210000 214.990000 -69.120000
217.690000 216.830000 -69.120000
216.150000 218.250000 -69.120000
214.590000 219.240000 -69.120000
212.750000 220.170000 -69.120000
210.660000 221.000000 -69.120000
208.360000 221.660000 -69.120000
205.870000 222.110000 -69.120000
203.240000 222.280000 -69.120000
203.240000 222.280000 -69.120000
200.690000 222.190000 -69.120000
200.690000 222.190000 -69.120000
199.360000 227.040000 -60.480000
196.640000 226.970000 -60.480000
193.850000 226.700000 -60.480000
191.080000 226.270000 -60.480000
188.410000 225.730000 -60.480000
185.910000 225.110000 -60.480000
183.400000 224.070000 -60.480000
180.900000 222.590000 -60.480000
178.550000 220.800000 -60.480000
176.480000 218.820000 -60.480000
174.840000 216.780000 -60.480000
173.640000 214.640000 -60.480000
172.650000 212.170000 -60.480000
171.800000 209.480000 -60.480000
171.030000 206.710000 -60.480000
170.270000 204.000000 -60.480000
169.500000 201.380000 -60.480000
168.760000 198.740000 -60.480000
168.070000 196.100000 -60.480000
167.470000 193.430000 -60.480000
166.940000 190.730000 -60.480000
166.410000 187.940000 -60.480000
165.880000 185.090000 -60.480000
165.400000 182.260000 -60.480000
164.990000 179.480000 -60.480000
164.680000 176.820000 -60.480000
164.510000 174.320000 -60.480000
164.650000 172.010000 -60.480000
165.990000 169.810000 -60.480000
168.180000 167.750000 -60.480000
170.630000 165.890000 -60.480000
172.830000 164.240000 -60.480000
175.120000 162.520000 -60.480000
177.560000 160.960000 -60.480000
180.080000 159.920000 -60.480000
182.650000 159.700000 -60.480000
185.310000 159.710000 -60.480000
188.070000 159.740000 -60.480000
190.860000 159.780000 -60.480000
193.640000 159.840000 -60.480000
196.360000 159.910000 -60.480000
199.040000 160.150000 -60.480000
201.730000 160.740000 -60.480000
204.410000 161.610000 -60.480000
207.020000 162.670000 -60.480000
209.540000 163.840000 -60.480000
211.920000 165.040000 -60.480000
214.200000 166.370000 -60.480000
216.420000 168.000000 -60.480000
218.550000 169.850000 -60.480000
220.550000 171.840000 -60.480000
222.370000 173.900000 -60.480000
224.040000 175.980000 -60.480000
225.800000 178.190000 -60.480000
227.550000 180.530000 -60.480000
229.140000 182.960000 -60.480000
230.410000 185.460000 -60.480000
231.200000 187.990000 -60.480000
231.390000 190.550000 -60.480000
231.330000 193.220000 -60.480000
231.200000 196.010000 -60.480000
231.000000 198.840000 -60.480000
230.740000 201.640000 -60.480000
230.420000 204.350000 -60.480000
230.050000 206.910000 -60.480000
229.180000 209.380000 -60.480000
227.700000 211.800000 -60.480000
225.880000 214.060000 -60.480000
223.990000 216.080000 -60.480000
222.100000 217.850000 -60.480000
220.000000 219.510000 -60.480000
217.700000 221.030000 -60.480000
215.230000 222.380000 -60.480000
212.590000 223.540000 -60.480000
212.590000 223.540000 -60.480000
209.960000 224.690000 -60.480000
207.330000 225.640000 -60.480000
204.680000 226.360000 -60.480000
202.020000 226.830000 -60.480000
202.020000 226.830000 -60.480000
198.380000 230.640000 -51.840000
195.460000 230.640000 -51.840000
192.560000 230.630000 -51.840000
189.600000 230.290000 -51.840000
186.620000 229.500000 -51.840000
183.780000 228.420000 -51.840000
181.220000 227.220000 -51.840000
178.960000 225.710000 -51.840000
176.850000 223.630000 -51.840000
174.900000 221.220000 -51.840000
173.090000 218.710000 -51.840000
171.400000 216.310000 -51.840000
169.770000 213.860000 -51.840000
168.200000 211.310000 -51.840000
166.750000 208.700000 -51.840000
165.440000 206.040000 -51.840000
164.320000 203.340000 -51.840000
163.280000 200.600000 -51.840000
162.230000 197.780000 -51.840000
161.300000 194.920000 -51.840000
160.610000 192.030000 -51.840000
160.290000 189.130000 -51.840000
160.340000 186.210000 -51.840000
160.540000 183.220000 -51.840000
160.850000 180.220000 -51.840000
161.260000 177.280000 -51.840000
161.740000 174.450000 -51.840000
162.430000 171.590000 -51.840000
163.590000 168.540000 -51.840000
165.120000 165.590000 -51.840000
166.910000 163.060000 -51.840000
168.850000 161.250000 -51.840000
171.050000 160.210000 -51.840000
173.880000 159.360000 -51.840000
177.020000 158.750000 -51.840000
180.070000 158.480000 -51.840000
183.000000 158.410000 -51.840000
185.960000 158.350000 -51.840000
188.930000 158.310000 -51.840000
191.890000 158.280000 -51.840000
194.840000 158.260000 -51.840000
197.760000 158.300000 -51.840000
200.770000 158.650000 -51.840000
203.790000 159.270000 -51.840000
206.740000 160.100000 -51.840000
209.540000 161.070000 -51.840000
212.090000 162.100000 -51.840000
214.460000 163.300000 -51.840000
216.790000 164.910000 -51.840000
219.070000 166.850000 -51.840000
221.260000 169.050000 -51.840000
223.330000 171.460000 -51.840000
225.250000 174.000000 -51.840000
226.980000 176.610000 -51.840000
228.490000 179.220000 -51.840000
229.760000 181.770000 -51.840000
230.970000 184.460000 -51.840000
232.040000 187.320000 -51.840000
232.630000 190.220000 -51.840000
232.600000 193.120000 -51.840000
232.340000 196.100000 -51.840000
231.910000 199.100000 -51.840000
231.350000 202.070000 -51.840000
230.690000 204.910000 -51.840000
229.940000 207.590000 -51.840000
228.710000 210.160000 -51.840000
227.050000 212.660000 -51.840000
225.120000 215.060000 -51.840000
223.070000 217.350000 -51.840000
221.070000 219.510000 -51.840000
219.050000 221.570000 -51.840000
216.910000 223.560000 -51.840000
214.670000 225.470000 -51.840000
212.310000 227.290000 -51.840000
209.850000 229.020000 -51.840000
207.300000 230.640000 -51.840000
207.300000 230.640000 -51.840000
204.300000 230.640000 -51.840000
201.320000 230.640000 -51.840000
201.320000 230.640000 -51.840000
199.730000 230.630000 -43.200000
199.730000 230.630000 -43.200000
196.630000 230.310000 -43.200000
193.520000 230.010000 -43.200000
190.280000 229.770000 -43.200000
186.980000 229.550000 -43.200000
183.770000 229.300000 -43.200000
180.810000 228.960000 -43.200000
178.220000 228.400000 -43.200000
175.940000 226.800000 -43.200000
173.850000 224.340000 -43.200000
171.860000 221.490000 -43.200000
169.910000 218.710000 -43.200000
167.880000 216.300000 -43.200000
165.790000 213.900000 -43.200000
163.840000 211.430000 -43.200000
162.240000 208.840000 -43.200000
160.880000 206.060000 -43.200000
159.550000 203.140000 -43.200000
158.490000 200.120000 -43.200000
157.920000 197.070000 -43.200000
157.880000 194.020000 -43.200000
157.880000 190.920000 -43.200000
157.880000 187.790000 -43.200000
157.880000 184.640000 -43.200000
157.880000 181.510000 -43.200000
157.930000 178.330000 -43.200000
158.130000 175.010000 -43.200000
158.470000 171.830000 -43.200000
158.910000 169.060000 -43.200000
160.030000 166.670000 -43.200000
162.230000 164.440000 -43.200000
165.070000 162.430000 -43.200000
168.110000 160.680000 -43.200000
170.900000 159.250000 -43.200000
173.670000 157.890000 -43.200000
176.570000 156.560000 -43.200000
179.580000 155.380000 -43.200000
182.630000 154.430000 -43.200000
185.710000 153.820000 -43.200000
188.750000 153.650000 -43.200000
191.810000 153.880000 -43.200000
194.910000 154.360000 -43.200000
198.010000 154.980000 -43.200000
201.090000 155.610000 -43.200000
204.160000 156.260000 -43.200000
207.200000 157.060000 -43.200000
210.090000 158.060000 -43.200000
212.930000 159.400000 -43.200000
215.670000 161.070000 -43.200000
218.180000 162.940000 -43.200000
220.370000 164.980000 -43.200000
222.430000 167.360000 -43.200000
224.310000 169.970000 -43.200000
225.940000 172.690000 -43.200000
227.290000 175.420000 -43.200000
228.620000 178.240000 -43.200000
229.920000 181.160000 -43.200000
231.090000 184.160000 -43.200000
232.060000 187.200000 -43.200000
232.740000 190.260000 -43.200000
233.050000 193.310000 -43.200000
232.910000 196.390000 -43.200000
232.440000 199.510000 -43.200000
231.800000 202.570000 -43.200000
230.970000 205.520000 -43.200000
229.780000 208.420000 -43.200000
228.340000 211.260000 -43.200000
226.770000 214.000000 -43.200000
225.130000 216.610000 -43.200000
223.220000 219.070000 -43.200000
221.160000 221.450000 -43.200000
219.120000 223.890000 -43.200000
217.040000 226.380000 -43.200000
214.750000 228.370000 -43.200000
212.130000 229.660000 -43.200000
209.170000 230.690000 -43.200000
205.930000 231.270000 -43.200000
205.930000 231.270000 -43.200000
202.830000 230.950000 -43.200000
200.870000 232.970000 -34.560000
197.300000 233.050000 -34.560000
197.300000 233.050000 -34.560000
197.300000 233.050000 -34.560000
193.870000 232.970000 -34.560000
190.550000 232.750000 -34.560000
187.350000 232.420000 -34.560000
184.290000 232.000000 -34.560000
181.380000 231.450000 -34.560000
178.520000 230.290000 -34.560000
175.730000 228.580000 -34.560000
173.050000 226.460000 -34.560000
170.510000 224.120000 -34.560000
168.150000 221.720000 -34.560000
165.990000 219.410000 -34.560000
163.900000 216.980000 -34.560000
161.900000 214.340000 -34.560000
160.100000 211.550000 -34.560000
158.580000 208.670000 -34.560000
157.420000 205.770000 -34.560000
156.380000 202.740000 -34.560000
155.420000 199.590000 -34.560000
154.640000 196.390000 -34.560000
154.140000 193.170000 -34.560000
154.000000 189.990000 -34.560000
154.130000 186.650000 -34.560000
154.440000 183.130000 -34.560000
154.900000 179.550000 -34.560000
155.520000 176.020000 -34.560000
156.280000 172.660000 -34.560000
157.170000 169.590000 -34.560000
158.180000 166.910000 -34.560000
159.290000 164.760000 -34.560000
161.420000 163.130000 -34.560000
164.660000 161.770000 -34.560000
167.990000 160.440000 -34.560000
170.870000 158.830000 -34.560000
173.720000 156.960000 -34.560000
176.580000 155.240000 -34.560000
179.510000 154.110000 -34.560000
182.540000 153.890000 -34.560000
185.710000 153.890000 -34.560000
188.960000 153.890000 -34.560000
192.250000 153.890000 -34.560000
195.520000 153.890000 -34.560000
198.720000 153.900000 -34.560000
201.960000 154.170000 -34.560000
205.250000 154.840000 -34.560000
208.490000 155.800000 -34.560000
211.600000 156.960000 -34.560000
214.470000 158.230000 -34.560000
217.080000 159.570000 -34.560000
219.830000 161.310000 -34.560000
222.660000 163.450000 -34.560000
225.380000 165.910000 -34.560000
227.810000 168.600000 -34.560000
229.780000 171.430000 -34.560000
231.110000 174.320000 -34.560000
231.620000 177.170000 -34.560000
231.610000 180.140000 -34.560000
231.540000 183.370000 -34.560000
231.450000 186.710000 -34.560000
231.310000 190.050000 -34.560000
231.130000 193.260000 -34.560000
230.490000 196.360000 -34.560000
229.400000 199.430000 -34.560000
228.150000 202.470000 -34.560000
227.020000 205.520000 -34.560000
226.020000 208.640000 -34.560000
225.030000 211.800000 -34.560000
223.970000 214.910000 -34.560000
222.800000 217.890000 -34.560000
221.430000 220.660000 -34.560000
219.750000 223.460000 -34.560000
217.700000 226.400000 -34.560000
215.380000 229.080000 -34.560000
212.860000 231.090000 -34.560000
210.230000 232.020000 -34.560000
207.380000 232.440000 -34.560000
204.250000 232.760000 -34.560000
202.010000 232.590000 -25.920000
198.760000 233.350000 -25.920000
195.510000 233.720000 -25.920000
195.510000 233.720000 -25.920000
192.230000 233.680000 -25.920000
188.900000 233.360000 -25.920000
185.560000 232.820000 -25.920000
182.260000 232.120000 -25.920000
179.050000 231.310000 -25.920000
175.980000 230.410000 -25.920000
173.020000 228.970000 -25.920000
170.170000 227.100000 -25.920000
167.500000 225.110000 -25.920000
164.820000 223.040000 -25.920000
162.160000 220.770000 -25.920000
159.820000 218.330000 -25.920000
158.090000 215.730000 -25.920000
156.860000 212.950000 -25.920000
155.770000 209.930000 -25.920000
154.810000 206.740000 -25.920000
153.970000 203.430000 -25.920000
153.240000 200.060000 -25.920000
152.610000 196.670000 -25.920000
152.090000 193.330000 -25.920000
151.630000 190.010000 -25.920000
151.190000 186.460000 -25.920000
150.790000 182.850000 -25.920000
150.460000 179.360000 -25.920000
150.230000 176.180000 -25.920000
150.150000 173.500000 -25.920000
151.710000 171.440000 -25.920000
155.150000 169.680000 -25.920000
158.140000 167.730000 -25.920000
160.580000 165.320000 -25.920000
162.900000 162.650000 -25.920000
165.180000 159.930000 -25.920000
167.490000 157.380000 -25.920000
169.910000 155.210000 -25.920000
172.510000 153.660000 -25.920000
175.400000 152.750000 -25.920000
178.610000 151.980000 -25.920000
181.990000 151.400000 -25.920000
185.380000 151.110000 -25.920000
188.700000 151.130000 -25.920000
192.050000 151.280000 -25.920000
195.360000 151.530000 -25.920000
198.600000 151.840000 -25.920000
201.840000 152.560000 -25.920000
205.070000 153.720000 -25.920000
208.190000 155.170000 -25.920000
211.110000 156.780000 -25.920000
213.770000 158.430000 -25.920000
216.480000 160.310000 -25.920000
219.280000 162.480000 -25.920000
222.040000 164.880000 -25.920000
224.640000 167.470000 -25.920000
226.960000 170.210000 -25.920000
228.870000 173.060000 -25.920000
230.260000 175.970000 -25.920000
231.000000 178.890000 -25.920000
231.270000 181.940000 -25.920000
231.490000 185.270000 -25.920000
231.640000 188.710000 -25.920000
231.700000 192.090000 -25.920000
231.540000 195.350000 -25.920000
230.960000 198.630000 -25.920000
230.050000 201.890000 -25.920000
228.910000 205.090000 -25.920000
227.650000 208.210000 -25.920000
226.370000 211.200000 -25.920000
224.800000 214.070000 -25.920000
222.860000 216.810000 -25.920000
220.790000 219.450000 -25.920000
218.690000 222.030000 -25.920000
216.390000 224.450000 -25.920000
213.890000 226.520000 -25.920000
211.210000 228.410000 -25.920000
208.330000 230.110000 -25.920000
205.250000 231.560000 -25.920000
205.250000 231.560000 -25.920000
201.370000 231.200000 -17.280000
198.160000 232.030000 -17.280000
194.830000 232.600000 -17.280000
194.830000 232.600000 -17.280000
194.830000 232.600000 -17.280000
191.550000 232.420000 -17.280000
188.300000 232.070000 -17.280000
185.110000 231.630000 -17.280000
181.870000 231.030000 -17.280000
178.590000 230.210000 -17.280000
175.350000 229.210000 -17.280000
172.220000 228.030000 -17.280000
169.290000 226.700000 -17.280000
166.650000 225.250000 -17.280000
164.210000 223.390000 -17.280000
161.920000 221.020000 -17.280000
159.800000 218.330000 -17.280000
157.880000 215.530000 -17.280000
156.180000 212.780000 -17.280000
154.530000 209.940000 -17.280000
152.980000 206.970000 -17.280000
151.720000 203.910000 -17.280000
150.890000 200.820000 -17.280000
150.410000 197.670000 -17.280000
149.990000 194.430000 -17.280000
149.660000 191.150000 -17.280000
149.420000 187.860000 -17.280000
149.320000 184.600000 -17.280000
149.420000 181.220000 -17.280000
149.840000 177.500000 -17.280000
150.530000 173.840000 -17.280000
151.440000 170.640000 -17.280000
152.540000 168.310000 -17.280000
154.440000 167.040000 -17.280000
157.900000 166.210000 -17.280000
161.480000 165.300000 -17.280000
164.050000 163.600000 -17.280000
166.170000 160.800000 -17.280000
168.180000 157.780000 -17.280000
170.360000 155.510000 -17.280000
172.970000 154.600000 -17.280000
175.990000 153.960000 -17.280000
179.270000 153.430000 -17.280000
182.690000 153.030000 -17.280000
186.120000 152.780000 -17.280000
189.420000 152.690000 -17.280000
192.610000 152.950000 -17.280000
195.810000 153.620000 -17.280000
198.990000 154.580000 -17.280000
202.120000 155.700000 -17.280000
205.180000 156.830000 -17.280000
208.260000 157.990000 -17.280000
211.400000 159.340000 -17.280000
214.400000 160.890000 -17.280000
217.060000 162.630000 -17.280000
219.260000 164.580000 -17.280000
221.470000 166.930000 -17.280000
223.650000 169.600000 -17.280000
225.650000 172.520000 -17.280000
227.350000 175.600000 -17.280000
228.600000 178.750000 -17.280000
229.270000 181.880000 -17.280000
229.330000 184.960000 -17.280000
229.250000 188.180000 -17.280000
229.110000 191.490000 -17.280000
228.910000 194.820000 -17.280000
228.660000 198.110000 -17.280000
228.350000 201.290000 -17.280000
227.700000 204.510000 -17.280000
226.670000 207.730000 -17.280000
225.370000 210.880000 -17.280000
223.880000 213.850000 -17.280000
222.290000 216.550000 -17.280000
220.530000 219.020000 -17.280000
218.340000 221.430000 -17.280000
215.810000 223.710000 -17.280000
213.060000 225.790000 -17.280000
210.210000 227.580000 -17.280000
207.360000 229.000000 -17.280000
204.450000 230.170000 -17.280000
202.070000 232.960000 -8.640000
198.600000 234.020000 -8.640000
195.160000 234.710000 -8.640000
191.770000 235.110000 -8.640000
191.770000 235.110000 -8.640000
188.400000 235.300000 -8.640000
185.070000 235.360000 -8.640000
181.770000 235.320000 -8.640000
178.470000 234.680000 -8.640000
175.190000 233.480000 -8.640000
171.990000 231.960000 -8.640000
168.920000 230.380000 -8.640000
165.960000 228.750000 -8.640000
163.060000 226.810000 -8.640000
160.360000 224.630000 -8.640000
157.980000 222.300000 -8.640000
155.740000 219.720000 -8.640000
153.590000 216.900000 -8.640000
151.740000 213.900000 -8.640000
150.360000 210.820000 -8.640000
149.500000 207.680000 -8.640000
148.810000 204.390000 -8.640000
148.230000 200.990000 -8.640000
147.760000 197.530000 -8.640000
147.380000 194.080000 -8.640000
147.060000 190.670000 -8.640000
146.770000 187.260000 -8.640000
146.570000 183.850000 -8.640000
146.560000 180.370000 -8.640000
146.830000 176.390000 -8.640000
147.350000 172.460000 -8.640000
148.070000 169.280000 -8.640000
149.040000 167.500000 -8.640000
151.880000 166.670000 -8.640000
155.960000 166.070000 -8.640000
159.640000 165.250000 -8.640000
161.850000 163.360000 -8.640000
163.510000 160.040000 -8.640000
165.250000 156.790000 -8.640000
167.690000 154.760000 -8.640000
170.920000 153.150000 -8.640000
174.260000 152.620000 -8.640000
177.600000 152.660000 -8.640000
181.040000 152.740000 -8.640000
184.510000 152.860000 -8.640000
187.970000 153.030000 -8.640000
191.380000 153.230000 -8.640000
194.700000 153.560000 -8.640000
197.990000 154.430000 -8.640000
201.230000 155.700000 -8.640000
204.400000 157.140000 -8.640000
207.500000 158.560000 -8.640000
210.640000 160.110000 -8.640000
213.660000 161.880000 -8.640000
216.290000 163.880000 -8.640000
218.380000 166.350000 -8.640000
220.120000 169.340000 -8.640000
221.760000 172.520000 -8.640000
223.540000 175.540000 -8.640000
225.740000 178.030000 -8.640000
228.520000 180.020000 -8.640000
229.460000 182.780000 -8.640000
230.200000 186.100000 -8.640000
230.740000 189.730000 -8.640000
231.050000 193.400000 -8.640000
231.150000 196.870000 -8.640000
230.550000 200.210000 -8.640000
229.330000 203.490000 -8.640000
228.020000 206.600000 -8.640000
226.520000 209.660000 -8.640000
224.780000 212.680000 -8.640000
222.830000 215.610000 -8.640000
220.720000 218.400000 -8.640000
218.500000 221.020000 -8.640000
216.220000 223.400000 -8.640000
213.780000 225.600000 -8.640000
211.120000 227.670000 -8.640000
208.260000 229.590000 -8.640000
205.230000 231.360000 -8.640000
202.070000 232.960000 -8.640000
200.110000 230.750000 0.000000
197.020000 231.290000 0.000000
193.760000 231.660000 0.000000
190.350000 231.800000 0.000000
190.350000 231.800000 0.000000
190.350000 231.800000 0.000000
187.090000 231.730000 0.000000
183.870000 231.550000 0.000000
180.680000 231.280000 0.000000
177.540000 230.940000 0.000000
174.400000 230.440000 0.000000
171.230000 229.580000 0.000000
168.160000 228.430000 0.000000
165.290000 227.110000 0.000000
162.640000 225.500000 0.000000
160.140000 223.380000 0.000000
157.860000 221.010000 0.000000
155.820000 218.600000 0.000000
153.750000 216.030000 0.000000
151.780000 213.320000 0.000000
150.080000 210.480000 0.000000
148.820000 207.570000 0.000000
148.160000 204.600000 0.000000
147.780000 201.490000 0.000000
147.510000 198.270000 0.000000
147.260000 195.000000 0.000000
146.950000 191.770000 0.000000
146.460000 188.490000 0.000000
145.810000 185.080000 0.000000
145.180000 181.740000 0.000000
144.700000 178.660000 0.000000
144.560000 176.040000 0.000000
145.530000 173.710000 0.000000
147.690000 171.520000 0.000000
150.650000 169.510000 0.000000
154.020000 167.690000 0.000000
157.380000 166.090000 0.000000
160.360000 164.730000 0.000000
163.350000 163.680000 0.000000
166.470000 162.780000 0.000000
169.560000 161.790000 0.000000
172.460000 160.350000 0.000000
175.260000 158.460000 0.000000
178.160000 157.580000 0.000000
181.290000 157.650000 0.000000
184.540000 157.760000 0.000000
187.790000 157.820000 0.000000
191.010000 157.570000 0.000000
194.230000 157.100000 0.000000
197.380000 156.790000 0.000000
200.460000 157.090000 0.000000
203.560000 158.150000 0.000000
206.570000 159.710000 0.000000
209.370000 161.510000 0.000000
211.870000 163.300000 0.000000
214.100000 165.410000 0.000000
216.160000 167.890000 0.000000
218.100000 170.590000 0.000000
219.950000 173.340000 0.000000
221.790000 176.010000 0.000000
223.930000 178.670000 0.000000
225.980000 181.410000 0.000000
227.450000 184.220000 0.000000
227.870000 187.140000 0.000000
227.630000 190.260000 0.000000
227.110000 193.530000 0.000000
226.400000 196.760000 0.000000
225.560000 199.820000 0.000000
224.170000 202.590000 0.000000
222.200000 205.230000 0.000000
220.550000 208.000000 0.000000
219.280000 210.950000 0.000000
218.070000 213.940000 0.000000
216.740000 216.850000 0.000000
215.130000 219.660000 0.000000
213.240000 222.190000 0.000000
211.010000 224.590000 0.000000
208.510000 226.900000 0.000000
205.820000 228.830000 0.000000
203.020000 230.080000 0.000000
3 0 79 2
3 0 2 3
3 0 3 4
3 0 4 5
3 0 5 6
3 0 6 7
3 0 7 8
3 0 8 9
3 0 9 10
3 0 10 11
3 0 11 12
3 0 12 13
3 0 13 14
3 0 14 15
3 0 15 16
3 0 16 17
3 0 17 18
3 0 18 19
3 0 19 20
3 0 20 21
3 0 21 22
3 0 22 23
3 0 23 24
3 0 24 25
3 0 25 26
3 0 26 27
3 0 27 28
3 0 28 29
3 0 29 30
3 0 30 31
3 0 31 32
3 0 32 33
3 0 33 34
3 0 34 35
3 0 35 36
3 0 36 37
3 0 37 38
3 0 38 39
3 0 39 40
3 0 40 41
3 0 41 42
3 0 42 43
3 0 43 44
3 0 44 45
3 0 45 46
3 0 46 47
3 0 47 48
3 0 48 49
3 0 49 50
3 0 50 51
3 0 51 52
3 0 52 53
3 0 53 54
3 0 54 55
3 0 55 56
3 0 56 57
3 0 57 58
3 0 58 59
3 0 59 60
3 0 60 61
3 0 61 62
3 0 62 63
3 0 63 64
3 0 64 65
3 0 65 66
3 0 66 67
3 0 67 68
3 0 68 69
3 0 69 70
3 0 70 71
3 0 71 72
3 0 72 73
3 0 73 74
3 0 74 75
3 0 75 76
3 0 76 77
3 0 77 78
3 0 78 79
3 79 81 82
3 79 82 2
3 2 82 83
3 2 83 3
3 3 83 84
3 3 84 4
3 4 84 85
3 4 85 5
3 5 85 86
3 5 86 6
3 6 86 87
3 6 87 7
3 7 87 88
3 7 88 8
3 8 88 89
3 8 89 9
3 9 89 90
3 9 90 10
3 10 90 91
3 10 91 11
3 11 91 92
3 11 92 12
3 12 92 93
3 12 93 13
3 13 93 94
3 13 94 14
3 14 94 95
3 14 95 15
3 15 95 96
3 15 96 16
3 16 96 97
3 16 97 17
3 17 97 98
3 17 98 18
3 18 98 99
3 18 99 19
3 19 99 100
3 19 100 20
3 20 100 101
3 20 101 21
3 21 101 102
3 21 102 22
3 22 102 103
3 22 103 23
3 23 103 104
3 23 104 24
3 24 104 105
3 24 105 25
3 25 105 106
3 25 106 26
3 26 106 107
3 26 107 27
3 27 107 108
3 27 108 28
3 28 108 109
3 28 109 29
3 29 109 110
3 29 110 30
3 30 110 111
3 30 111 31
3 31 111 112
3 31 112 32
3 32 112 113
3 32 113 33
3 33 113 114
3 33 114 34
3 34 114 115
3 34 115 35
3 35 115 116
3 35 116 36
3 36 116 117
3 36 117 37
3 37 117 118
3 37 118 38
3 38 118 119
3 38 119 39
3 39 119 120
3 39 120 40
3 40 120 121
3 40 121 41
3 41 121 122
3 41 122 42
3 42 122 123
3 42 123 43
3 43 123 124
3 43 124 44
3 44 124 125
3 44 125 45
3 45 125 126
3 45 126 46
3 46 126 127
3 46 127 47
3 47 127 128
3 47 128 48
3 48 128 129
3 48 129 49
3 49 129 130
3 49 130 50
3 50 130 131
3 50 131 51
3 51 131 132
3 51 132 52
3 52 132 133
3 52 133 53
3 53 133 134
3 53 134 54
3 54 134 135
3 54 135 55
3 55 135 136
3 55 136 56
3 56 136 137
3 56 137 57
3 57 137 138
3 57 138 58
3 58 138 139
3 58 139 59
3 59 139 140
3 59 140 60
3 60 140 141
3 60 141 61
3 61 141 142
3 61 142 62
3 62 142 143
3 62 143 63
3 63 143 144
3 63 144 64
3 64 144 145
3 64 145 65
3 65 145 146
3 65 146 66
3 66 146 147
3 66 147 67
3 67 147 148
3 67 148 68
3 68 148 149
3 68 149 69
3 69 149 150
3 69 150 70
3 70 150 151
3 70 151 71
3 71 151 152
3 71 152 72
3 72 152 153
3 72 153 73
3 73 153 154
3 73 154 74
3 74 154 155
3 74 155 75
3 75 155 156
3 75 156 76
3 76 156 157
3 76 157 77
3 77 157 78
3 78 157 159
3 78 159 79
3 79 159 81
3 81 161 162
3 81 162 82
3 82 162 163
3 82 163 83
3 83 163 164
3 83 164 84
3 84 164 165
3 84 165 85
3 85 165 166
3 85 166 86
3 86 166 167
3 86 167 87
3 87 167 168
3 87 168 88
3 88 168 169
3 88 169 89
3 89 169 170
3 89 170 90
3 90 170 171
3 90 171 91
3 91 171 172
3 91 172 92
3 92 172 173
3 92 173 93
3 93 173 174
3 93 174 94
3 94 174 175
3 94 175 95
3 95 175 176
3 95 176 96
3 96 176 177
3 96 177 97
3 97 177 178
3 97 178 98
3 98 178 179
3 98 179 99
3 99 179 180
3 99 180 100
3 100 180 181
3 100 181 101
3 101 181 182
3 101 182 102
3 102 182 183
3 102 183 103
3 103 183 184
3 103 184 104
3 104 184 185
3 104 185 105
3 105 185 186
3 105 186 106
3 106 186 187
3 106 187 107
3 107 187 188
3 107 188 108
3 108 188 189
3 108 189 109
3 109 189 190
3 109 190 110
3 110 190 191
3 110 191 111
3 111 191 192
3 111 192 112
3 112 192 193
3 112 193 113
3 113 193 194
3 113 194 114
3 114 194 195
3 114 195 115
3 115 195 196
3 115 196 116
3 116 196 197
3 116 197 117
3 117 197 198
3 117 198 118
3 118 198 199
3 118 199 119
3 119 199 200
3 119 200 120
3 120 200 201
3 120 201 121
3 121 201 202
3 121 202 122
3 122 202 203
3 122 203 123
3 123 203 204
3 123 204 124
3 124 204 205
3 124 205 125
3 125 205 206
3 125 206 126
3 126 206 207
3 126 207 127
3 127 207 208
3 127 208 128
3 128 208 209
3 128 209 129
3 129 209 210
3 129 210 130
3 130 210 211
3 130 211 131
3 131 211 212
3 131 212 132
3 132 212 213
3 132 213 133
3 133 213 214
3 133 214 134
3 134 214 215
3 134 215 135
3 135 215 216
3 135 216 136
3 136 216 217
3 136 217 137
3 137 217 218
3 137 218 138
3 138 218 219
3 138 219 139
3 139 219 220
3 139 220 140
3 140 220 221
3 140 221 141
3 141 221 222
3 141 222 142
3 142 222 223
3 142 223 143
3 143 223 224
3 143 224 144
3 144 224 225
3 144 225 145
3 145 225 226
3 145 226 146
3 146 226 227
3 146 227 147
3 147 227 228
3 147 228 148
3 148 228 229
3 148 229 149
3 149 229 230
3 149 230 150
3 150 230 231
3 150 231 151
3 151 231 232
3 151 232 152
3 152 232 233
3 152 233 153
3 153 233 234
3 153 234 154
3 154 234 155
3 155 234 236
3 155 236 156
3 156 236 237
3 156 237 157
3 157 237 238
3 157 238 239
3 157 239 159
3 159 239 161
3 159 161 81
3 161 241 242
3 161 242 162
3 162 242 243
3 162 243 163
3 163 243 244
3 163 244 164
3 164 244 245
3 164 245 165
3 165 245 246
3 165 246 166
3 166 246 247
3 166 247 167
3 167 247 248
3 167 248 168
3 168 248 249
3 168 249 169
3 169 249 250
3 169 250 170
3 170 250 251
3 170 251 171
3 171 251 252
3 171 252 172
3 172 252 253
3 172 253 173
3 173 253 254
3 173 254 174
3 174 254 255
3 174 255 175
3 175 255 256
3 175 256 176
3 176 256 257
3 176 257 177
3 177 257 258
3 177 258 178
3 178 258 259
3 178 259 179
3 179 259 260
3 179 260 180
3 180 260 261
3 180 261 181
3 181 261 262
3 181 262 182
3 182 262 263
3 182 263 183
3 183 263 264
3 183 264 184
3 184 264 265
3 184 265 185
3 185 265 266
3 185 266 186
3 186 266 267
3 186 267 187
3 187 267 268
3 187 268 188
3 188 268 269
3 188 269 189
3 189 269 270
3 189 270 190
3 190 270 271
3 190 271 191
3 191 271 272
3 191 272 192
3 192 272 273
3 192 273 193
3 193 273 274
3 193 274 194
3 194 274 275
3 194 275 195
3 195 275 276
3 195 276 196
3 196 276 277
3 196 277 197
3 197 277 278
3 197 278 198
3 198 278 279
3 198 279 199
3 199 279 280
3 199 280 200
3 200 280 281
3 200 281 201
3 201 281 282
3 201 282 202
3 202 282 283
3 202 283 203
3 203 283 284
3 203 284 204
3 204 284 285
3 204 285 205
3 205 285 286
3 205 286 206
3 206 286 287
3 206 287 207
3 207 287 288
3 207 288 208
3 208 288 289
3 208 289 209
3 209 289 290
3 209 290 210
3 210 290 291
3 210 291 211
3 211 291 292
3 211 292 212
3 212 292 293
3 212 293 213
3 213 293 294
3 213 294 214
3 214 294 295
3 214 295 215
3 215 295 296
3 215 296 216
3 216 296 297
3 216 297 217
3 217 297 298
3 217 298 218
3 218 298 299
3 218 299 219
3 219 299 300
3 219 300 220
3 220 300 301
3 220 301 221
3 221 301 302
3 221 302 222
3 222 302 303
3 222 303 223
3 223 303 304
3 223 304 224
3 224 304 305
3 224 305 225
3 225 305 306
3 225 306 226
3 226 306 307
3 226 307 227
3 227 307 308
3 227 308 228
3 228 308 309
3 228 309 229
3 229 309 310
3 229 310 230
3 230 310 311
3 230 311 231
3 231 311 312
3 231 312 232
3 232 312 313
3 232 313 233
3 233 313 314
3 233 314 234
3 234 314 315
3 234 315 316
3 234 316 236
3 236 316 237
3 237 316 318
3 237 318 238
3 238 318 319
3 238 319 239
3 239 319 241
3 239 241 161
3 241 321 242
3 242 321 323
3 242 323 243
3 243 323 324
3 243 324 244
3 244 324 325
3 244 325 245
3 245 325 326
3 245 326 246
3 246 326 327
3 246 327 247
3 247 327 328
3 247 328 248
3 248 328 329
3 248 329 249
3 249 329 330
3 249 330 250
3 250 330 331
3 250 331 251
3 251 331 332
3 251 332 252
3 252 332 333
3 252 333 253
3 253 333 334
3 253 334 254
3 254 334 335
3 254 335 255
3 255 335 336
3 255 336 256
3 256 336 337
3 256 337 257
3 257 337 338
3 257 338 258
3 258 338 339
3 258 339 259
3 259 339 340
3 259 340 260
3 260 340 341
3 260 341 261
3 261 341 342
3 261 342 262
3 262 342 343
3 262 343 263
3 263 343 344
3 263 344 264
3 264 344 345
3 264 345 265
3 265 345 346
3 265 346 266
3 266 346 347
3 266 347 267
3 267 347 348
3 267 348 268
3 268 348 349
3 268 349 269
3 269 349 350
3 269 350 270
3 270 350 351
3 270 351 271
3 271 351 352
3 271 352 272
3 272 352 353
3 272 353 273
3 273 353 354
3 273 354 274
3 274 354 355
3 274 355 275
3 275 355 356
3 275 356 276
3 276 356 357
3 276 357 277
3 277 357 358
3 277 358 278
3 278 358 359
3 278 359 279
3 279 359 360
3 279 360 280
3 280 360 361
3 280 361 281
3 281 361 362
3 281 362 282
3 282 362 363
3 282 363 283
3 283 363 364
3 283 364 284
3 284 364 365
3 284 365 285
3 285 365 366
3 285 366 286
3 286 366 367
3 286 367 287
3 287 367 368
3 287 368 288
3 288 368 369
3 288 369 289
3 289 369 370
3 289 370 290
3 290 370 371
3 290 371 291
3 291 371 372
3 291 372 292
3 292 372 373
3 292 373 293
3 293 373 374
3 293 374 294
3 294 374 375
3 294 375 295
3 295 375 376
3 295 376 296
3 296 376 377
3 296 377 297
3 297 377 378
3 297 378 298
3 298 378 379
3 298 379 299
3 299 379 380
3 299 380 300
3 300 380 381
3 300 381 301
3 301 381 382
3 301 382 302
3 302 382 383
3 302 383 303
3 303 383 384
3 303 384 304
3 304 384 385
3 304 385 305
3 305 385 386
3 305 386 306
3 306 386 387
3 306 387 307
3 307 387 388
3 307 388 308
3 308 388 389
3 308 389 309
3 309 389 390
3 309 390 310
3 310 390 391
3 310 391 311
3 311 391 392
3 311 392 312
3 312 392 393
3 312 393 313
3 313 393 394
3 313 394 314
3 314 394 395
3 314 395 315
3 315 395 396
3 315 396 316
3 316 396 397
3 316 397 398
3 316 398 318
3 318 398 319
3 319 398 400
3 319 400 321
3 319 321 241
3 321 401 402
3 321 402 323
3 323 402 324
3 324 402 405
3 324 405 325
3 325 405 406
3 325 406 326
3 326 406 407
3 326 407 327
3 327 407 408
3 327 408 328
3 328 408 409
3 328 409 329
3 329 409 410
3 329 410 330
3 330 410 411
3 330 411 331
3 331 411 412
3 331 412 332
3 332 412 413
3 332 413 333
3 333 413 414
3 333 414 334
3 334 414 415
3 334 415 335
3 335 415 416
3 335 416 336
3 336 416 417
3 336 417 337
3 337 417 418
3 337 418 338
3 338 418 419
3 338 419 339
3 339 419 420
3 339 420 340
3 340 420 421
3 340 421 341
3 341 421 422
3 341 422 342
3 342 422 423
3 342 423 343
3 343 423 424
3 343 424 344
3 344 424 425
3 344 425 345
3 345 425 426
3 345 426 346
3 346 426 427
3 346 427 347
3 347 427 428
3 347 428 348
3 348 428 429
3 348 429 349
3 349 429 430
3 349 430 350
3 350 430 431
3 350 431 351
3 351 431 432
3 351 432 352
3 352 432 433
3 352 433 353
3 353 433 434
3 353 434 354
3 354 434 435
3 354 435 355
3 355 435 436
3 355 436 356
3 356 436 437
3 356 437 357
3 357 437 438
3 357 438 358
3 358 438 439
3 358 439 359
3 359 439 440
3 359 440 360
3 360 440 441
3 360 441 361
3 361 441 442
3 361 442 362
3 362 442 443
3 362 443 363
3 363 443 444
3 363 444 364
3 364 444 445
3 364 445 365
3 365 445 446
3 365 446 366
3 366 446 447
3 366 447 367
3 367 447 448
3 367 448 368
3 368 448 449
3 368 449 369
3 369 449 450
3 369 450 370
3 370 450 451
3 370 451 371
3 371 451 452
3 371 452 372
3 372 452 453
3 372 453 373
3 373 453 454
3 373 454 374
3 374 454 455
3 374 455 375
3 375 455 456
3 375 456 376
3 376 456 457
3 376 457 377
3 377 457 458
3 377 458 378
3 378 458 459
3 378 459 379
3 379 459 460
3 379 460 380
3 380 460 461
3 380 461 381
3 381 461 462
3 381 462 382
3 382 462 463
3 382 463 383
3 383 463 464
3 383 464 384
3 384 464 465
3 384 465 385
3 385 465 466
3 385 466 386
3 386 466 467
3 386 467 387
3 387 467 468
3 387 468 388
3 388 468 469
3 388 469 389
3 389 469 470
3 389 470 390
3 390 470 471
3 390 471 391
3 391 471 472
3 391 472 392
3 392 472 473
3 392 473 393
3 393 473 474
3 393 474 394
3 394 474 475
3 394 475 395
3 395 475 476
3 395 476 396
3 396 476 477
3 396 477 397
3 397 477 478
3 397 478 398
3 398 478 479
3 398 479 480
3 398 480 400
3 400 480 401
3 400 401 321
3 401 481 482
3 401 482 402
3 402 482 483
3 402 483 485
3 402 485 405
3 405 485 486
3 405 486 406
3 406 486 487
3 406 487 407
3 407 487 488
3 407 488 408
3 408 488 489
3 408 489 409
3 409 489 490
3 409 490 410
3 410 490 491
3 410 491 411
3 411 491 492
3 411 492 412
3 412 492 493
3 412 493 413
3 413 493 494
3 413 494 414
3 414 494 495
3 414 495 415
3 415 495 496
3 415 496 416
3 416 496 497
3 416 497 417
3 417 497 498
3 417 498 418
3 418 498 499
3 418 499 419
3 419 499 500
3 419 500 420
3 420 500 501
3 420 501 421
3 421 501 502
3 421 502 422
3 422 502 503
3 422 503 423
3 423 503 504
3 423 504 424
3 424 504 505
3 424 505 425
3 425 505 506
3 425 506 426
3 426 506 507
3 426 507 427
3 427 507 508
3 427 508 428
3 428 508 509
3 428 509 429
3 429 509 510
3 429 510 430
3 430 510 511
3 430 511 431
3 431 511 512
3 431 512 432
3 432 512 513
3 432 513 433
3 433 513 514
3 433 514 434
3 434 514 515
3 434 515 435
3 435 515 516
3 435 516 436
3 436 516 517
3 436 517 437
3 437 517 518
3 437 518 438
3 438 518 519
3 438 519 439
3 439 519 520
3 439 520 440
3 440 520 521
3 440 521 441
3 441 521 522
3 441 522 442
3 442 522 523
3 442 523 443
3 443 523 524
3 443 524 444
3 444 524 525
3 444 525 445
3 445 525 526
3 445 526 446
3 446 526 527
3 446 527 447
3 447 527 528
3 447 528 448
3 448 528 529
3 448 529 449
3 449 529 530
3 449 530 450
3 450 530 531
3 450 531 451
3 451 531 532
3 451 532 452
3 452 532 533
3 452 533 453
3 453 533 534
3 453 534 454
3 454 534 535
3 454 535 455
3 455 535 536
3 455 536 456
3 456 536 537
3 456 537 457
3 457 537 538
3 457 538 458
3 458 538 539
3 458 539 459
3 459 539 540
3 459 540 460
3 460 540 541
3 460 541 461
3 461 541 542
3 461 542 462
3 462 542 543
3 462 543 463
3 463 543 544
3 463 544 464
3 464 544 545
3 464 545 465
3 465 545 546
3 465 546 466
3 466 546 547
3 466 547 467
3 467 547 548
3 467 548 468
3 468 548 549
3 468 549 469
3 469 549 550
3 469 550 470
3 470 550 551
3 470 551 471
3 471 551 552
3 471 552 472
3 472 552 553
3 472 553 473
3 473 553 554
3 473 554 474
3 474 554 555
3 474 555 475
3 475 555 556
3 475 556 476
3 476 556 557
3 476 557 477
3 477 557 558
3 477 558 478
3 478 558 559
3 478 559 479
3 479 559 480
3 480 559 481
3 480 481 401
3 481 561 562
3 481 562 482
3 482 562 563
3 482 563 483
3 483 563 485
3 485 563 566
3 485 566 486
3 486 566 567
3 486 567 487
3 487 567 568
3 487 568 488
3 488 568 569
3 488 569 489
3 489 569 570
3 489 570 490
3 490 570 571
3 490 571 491
3 491 571 572
3 491 572 492
3 492 572 573
3 492 573 493
3 493 573 574
3 493 574 494
3 494 574 575
3 494 575 495
3 495 575 576
3 495 576 496
3 496 576 577
3 496 577 497
3 497 577 578
3 497 578 498
3 498 578 579
3 498 579 499
3 499 579 580
3 499 580 500
3 500 580 581
3 500 581 501
3 501 581 582
3 501 582 502
3 502 582 583
3 502 583 503
3 503 583 584
3 503 584 504
3 504 584 585
3 504 585 505
3 505 585 586
3 505 586 506
3 506 586 587
3 506 587 507
3 507 587 588
3 507 588 508
3 508 588 589
3 508 589 509
3 509 589 590
3 509 590 510
3 510 590 591
3 510 591 511
3 511 591 592
3 511 592 512
3 512 592 593
3 512 593 513
3 513 593 594
3 513 594 514
3 514 594 595
3 514 595 515
3 515 595 596
3 515 596 516
3 516 596 597
3 516 597 517
3 517 597 598
3 517 598 518
3 518 598 599
3 518 599 519
3 519 599 600
3 519 600 520
3 520 600 601
3 520 601 521
3 521 601 602
3 521 602 522
3 522 602 603
3 522 603 523
3 523 603 604
3 523 604 524
3 524 604 605
3 524 605 525
3 525 605 606
3 525 606 526
3 526 606 607
3 526 607 527
3 527 607 608
3 527 608 528
3 528 608 609
3 528 609 529
3 529 609 610
3 529 610 530
3 530 610 611
3 530 611 531
3 531 611 612
3 531 612 532
3 532 612 613
3 532 613 533
3 533 613 614
3 533 614 534
3 534 614 615
3 534 615 535
3 535 615 616
3 535 616 536
3 536 616 617
3 536 617 537
3 537 617 618
3 537 618 538
3 538 618 619
3 538 619 539
3 539 619 620
3 539 620 540
3 540 620 621
3 540 621 541
3 541 621 622
3 541 622 542
3 542 622 623
3 542 623 543
3 543 623 624
3 543 624 544
3 544 624 625
3 544 625 545
3 545 625 626
3 545 626 546
3 546 626 627
3 546 627 547
3 547 627 628
3 547 628 548
3 548 628 629
3 548 629 549
3 549 629 630
3 549 630 550
3 550 630 631
3 550 631 551
3 551 631 632
3 551 632 552
3 552 632 633
3 552 633 553
3 553 633 634
3 553 634 554
3 554 634 635
3 554 635 555
3 555 635 636
3 555 636 556
3 556 636 637
3 556 637 557
3 557 637 638
3 557 638 558
3 558 638 639
3 558 639 559
3 559 639 640
3 559 640 561
3 559 561 481
3 561 720 642
3 561 642 562
3 562 642 643
3 562 643 563
3 563 643 644
3 563 644 646
3 563 646 566
3 566 646 647
3 566 647 567
3 567 647 648
3 567 648 568
3 568 648 649
3 568 649 569
3 569 649 650
3 569 650 570
3 570 650 651
3 570 651 571
3 571 651 652
3 571 652 572
3 572 652 653
3 572 653 573
3 573 653 654
3 573 654 574
3 574 654 655
3 574 655 575
3 575 655 656
3 575 656 576
3 576 656 657
3 576 657 577
3 577 657 658
3 577 658 578
3 578 658 659
3 578 659 579
3 579 659 660
3 579 660 580
3 580 660 661
3 580 661 581
3 581 661 662
3 581 662 582
3 582 662 663
3 582 663 583
3 583 663 664
3 583 664 584
3 584 664 665
3 584 665 585
3 585 665 666
3 585 666 586
3 586 666 667
3 586 667 587
3 587 667 668
3 587 668 588
3 588 668 669
3 588 669 589
3 589 669 670
3 589 670 590
3 590 670 671
3 590 671 591
3 591 671 672
3 591 672 592
3 592 672 673
3 592 673 593
3 593 673 674
3 593 674 594
3 594 674 675
3 594 675 595
3 595 675 676
3 595 676 596
3 596 676 677
3 596 677 597
3 597 677 678
3 597 678 598
3 598 678 679
3 598 679 599
3 599 679 680
3 599 680 600
3 600 680 681
3 600 681 601
3 601 681 682
3 601 682 602
3 602 682 683
3 602 683 603
3 603 683 684
3 603 684 604
3 604 684 685
3 604 685 605
3 605 685 686
3 605 686 606
3 606 686 687
3 606 687 607
3 607 687 688
3 607 688 608
3 608 688 689
3 608 689 609
3 609 689 690
3 609 690 610
3 610 690 691
3 610 691 611
3 611 691 692
3 611 692 612
3 612 692 693
3 612 693 613
3 613 693 694
3 613 694 614
3 614 694 695
3 614 695 615
3 615 695 696
3 615 696 616
3 616 696 697
3 616 697 617
3 617 697 698
3 617 698 618
3 618 698 699
3 618 699 619
3 619 699 700
3 619 700 620
3 620 700 701
3 620 701 621
3 621 701 702
3 621 702 622
3 622 702 703
3 622 703 623
3 623 703 704
3 623 704 624
3 624 704 705
3 624 705 625
3 625 705 706
3 625 706 626
3 626 706 707
3 626 707 627
3 627 707 708
3 627 708 628
3 628 708 709
3 628 709 629
3 629 709 710
3 629 710 630
3 630 710 711
3 630 711 631
3 631 711 712
3 631 712 632
3 632 712 713
3 632 713 633
3 633 713 714
3 633 714 634
3 634 714 715
3 634 715 635
3 635 715 716
3 635 716 636
3 636 716 717
3 636 717 637
3 637 717 718
3 637 718 638
3 638 718 719
3 638 719 639
3 639 719 720
3 639 720 640
3 640 720 561
3 720 721 722
3 720 722 642
3 642 722 723
3 642 723 643
3 643 723 724
3 643 724 644
3 644 724 646
3 646 724 727
3 646 727 647
3 647 727 728
3 647 728 648
3 648 728 729
3 648 729 649
3 649 729 730
3 649 730 650
3 650 730 731
3 650 731 651
3 651 731 732
3 651 732 652
3 652 732 733
3 652 733 653
3 653 733 734
3 653 734 654
3 654 734 735
3 654 735 655
3 655 735 736
3 655 736 656
3 656 736 737
3 656 737 657
3 657 737 738
3 657 738 658
3 658 738 739
3 658 739 659
3 659 739 740
3 659 740 660
3 660 740 741
3 660 741 661
3 661 741 742
3 661 742 662
3 662 742 743
3 662 743 663
3 663 743 744
3 663 744 664
3 664 744 745
3 664 745 665
3 665 745 746
3 665 746 666
3 666 746 747
3 666 747 667
3 667 747 748
3 667 748 668
3 668 748 749
3 668 749 669
3 669 749 750
3 669 750 670
3 670 750 751
3 670 751 671
3 671 751 752
3 671 752 672
3 672 752 753
3 672 753 673
3 673 753 754
3 673 754 674
3 674 754 755
3 674 755 675
3 675 755 756
3 675 756 676
3 676 756 757
3 676 757 677
3 677 757 758
3 677 758 678
3 678 758 759
3 678 759 679
3 679 759 760
3 679 760 680
3 680 760 761
3 680 761 681
3 681 761 762
3 681 762 682
3 682 762 763
3 682 763 683
3 683 763 764
3 683 764 684
3 684 764 765
3 684 765 685
3 685 765 766
3 685 766 686
3 686 766 767
3 686 767 687
3 687 767 768
3 687 768 688
3 688 768 769
3 688 769 689
3 689 769 770
3 689 770 690
3 690 770 771
3 690 771 691
3 691 771 772
3 691 772 692
3 692 772 773
3 692 773 693
3 693 773 774
3 693 774 694
3 694 774 775
3 694 775 695
3 695 775 776
3 695 776 696
3 696 776 777
3 696 777 697
3 697 777 778
3 697 778 698
3 698 778 779
3 698 779 699
3 699 779 780
3 699 780 700
3 700 780 781
3 700 781 701
3 701 781 782
3 701 782 702
3 702 782 783
3 702 783 703
3 703 783 784
3 703 784 704
3 704 784 785
3 704 785 705
3 705 785 786
3 705 786 706
3 706 786 787
3 706 787 707
3 707 787 788
3 707 788 708
3 708 788 789
3 708 789 709
3 709 789 790
3 709 790 710
3 710 790 791
3 710 791 711
3 711 791 792
3 711 792 712
3 712 792 793
3 712 793 713
3 713 793 794
3 713 794 714
3 714 794 795
3 714 795 715
3 715 795 796
3 715 796 716
3 716 796 797
3 716 797 717
3 717 797 798
3 717 798 718
3 718 798 799
3 718 799 719
3 719 799 800
3 719 800 720
3 720 800 721
