ply 
format ascii 1.0 
comment this is a surface 
element vertex 721 
property float x 
property float y 
property float z 
element face 1326 
property list uchar int vertex_index 
end_header 
212.081250 169.688125 -69.120000
223.630000 202.800000 -69.120000
223.390000 202.500000 -69.120000
223.220000 201.250000 -69.120000
223.080000 199.270000 -69.120000
222.970000 196.770000 -69.120000
222.860000 193.950000 -69.120000
222.730000 191.020000 -69.120000
222.560000 188.200000 -69.120000
222.330000 185.700000 -69.120000
221.980000 183.550000 -69.120000
221.380000 181.450000 -69.120000
220.600000 179.370000 -69.120000
219.710000 177.310000 -69.120000
218.760000 175.270000 -69.120000
218.760000 175.270000 -69.120000
217.330000 173.430000 -69.120000
215.770000 171.780000 -69.120000
214.100000 170.360000 -69.120000
212.330000 169.220000 -69.120000
210.400000 168.340000 -69.120000
208.290000 167.630000 -69.120000
206.120000 166.990000 -69.120000
203.980000 166.360000 -69.120000
201.610000 165.760000 -69.120000
198.980000 165.210000 -69.120000
196.190000 164.690000 -69.120000
193.350000 164.200000 -69.120000
190.580000 163.700000 -69.120000
187.970000 163.200000 -69.120000
185.640000 162.670000 -69.120000
183.690000 162.100000 -69.120000
182.220000 161.460000 -69.120000
181.350000 160.750000 -69.120000
181.200000 159.950000 -69.120000
182.120000 158.970000 -69.120000
183.910000 157.810000 -69.120000
186.190000 156.520000 -69.120000
188.610000 155.130000 -69.120000
190.770000 153.690000 -69.120000
192.400000 152.160000 -69.120000
193.750000 150.170000 -69.120000
195.000000 147.950000 -69.120000
196.250000 145.860000 -69.120000
197.610000 144.220000 -69.120000
199.170000 143.370000 -69.120000
201.210000 143.130000 -69.120000
203.580000 142.970000 -69.120000
205.730000 142.910000 -69.120000
207.510000 143.440000 -69.120000
209.160000 144.740000 -69.120000
210.700000 146.540000 -69.120000
212.200000 148.570000 -69.120000
213.670000 150.550000 -69.120000
215.150000 152.260000 -69.120000
216.580000 153.940000 -69.120000
218.000000 155.630000 -69.120000
219.490000 157.260000 -69.120000
221.110000 158.820000 -69.120000
222.770000 160.350000 -69.120000
224.400000 161.890000 -69.120000
225.920000 163.480000 -69.120000
227.250000 165.160000 -69.120000
228.410000 166.970000 -69.120000
229.600000 168.920000 -69.120000
230.720000 170.970000 -69.120000
231.610000 173.070000 -69.120000
232.130000 175.150000 -69.120000
232.080000 177.190000 -69.120000
231.270000 179.210000 -69.120000
230.160000 181.250000 -69.120000
229.230000 183.300000 -69.120000
228.480000 185.630000 -69.120000
227.730000 188.260000 -69.120000
226.980000 191.050000 -69.120000
226.260000 193.860000 -69.120000
225.580000 196.520000 -69.120000
224.970000 198.900000 -69.120000
224.420000 200.840000 -69.120000
223.970000 202.190000 -69.120000
223.630000 202.800000 -69.120000
228.830000 179.520000 -60.480000
227.410000 177.910000 -60.480000
226.170000 176.340000 -60.480000
224.880000 174.830000 -60.480000
223.490000 173.410000 -60.480000
222.050000 172.040000 -60.480000
220.560000 170.710000 -60.480000
219.010000 169.440000 -60.480000
217.400000 168.220000 -60.480000
217.400000 168.220000 -60.480000
215.850000 166.890000 -60.480000
214.270000 165.640000 -60.480000
214.270000 165.640000 -60.480000
212.620000 164.510000 -60.480000
210.920000 163.570000 -60.480000
209.160000 162.700000 -60.480000
207.340000 161.840000 -60.480000
205.470000 161.010000 -60.480000
203.560000 160.260000 -60.480000
201.630000 159.610000 -60.480000
199.680000 159.090000 -60.480000
197.730000 158.740000 -60.480000
195.780000 158.590000 -60.480000
193.800000 158.530000 -60.480000
191.790000 158.500000 -60.480000
189.780000 158.460000 -60.480000
187.790000 158.390000 -60.480000
185.430000 158.150000 -60.480000
183.730000 157.640000 -60.480000
183.510000 156.250000 -60.480000
183.400000 153.890000 -60.480000
183.430000 151.830000 -60.480000
184.180000 149.880000 -60.480000
185.520000 148.050000 -60.480000
187.070000 146.680000 -60.480000
188.700000 146.010000 -60.480000
191.040000 145.630000 -60.480000
193.670000 145.360000 -60.480000
196.030000 145.100000 -60.480000
197.570000 144.720000 -60.480000
197.860000 144.010000 -60.480000
197.860000 142.180000 -60.480000
197.860000 139.650000 -60.480000
197.860000 137.100000 -60.480000
197.860000 135.260000 -60.480000
198.210000 134.460000 -60.480000
199.880000 133.840000 -60.480000
202.320000 133.360000 -60.480000
204.860000 133.050000 -60.480000
206.840000 132.980000 -60.480000
208.360000 133.810000 -60.480000
209.760000 135.400000 -60.480000
211.150000 137.200000 -60.480000
212.630000 138.660000 -60.480000
214.130000 140.100000 -60.480000
215.650000 141.570000 -60.480000
217.220000 142.880000 -60.480000
218.870000 143.870000 -60.480000
220.690000 144.370000 -60.480000
222.840000 144.600000 -60.480000
224.590000 144.930000 -60.480000
225.950000 145.780000 -60.480000
227.220000 147.180000 -60.480000
228.380000 148.990000 -60.480000
229.400000 151.050000 -60.480000
230.240000 153.220000 -60.480000
230.870000 155.340000 -60.480000
231.260000 157.270000 -60.480000
231.560000 159.200000 -60.480000
231.820000 161.190000 -60.480000
232.010000 163.220000 -60.480000
232.120000 165.240000 -60.480000
232.120000 167.230000 -60.480000
232.010000 169.220000 -60.480000
231.800000 171.210000 -60.480000
231.550000 173.190000 -60.480000
231.270000 175.170000 -60.480000
231.020000 177.370000 -60.480000
230.720000 179.840000 -60.480000
230.240000 180.890000 -60.480000
228.560000 178.240000 -51.840000
227.350000 176.170000 -51.840000
226.120000 174.460000 -51.840000
224.930000 172.760000 -51.840000
223.750000 171.030000 -51.840000
222.560000 169.330000 -51.840000
221.310000 167.730000 -51.840000
219.970000 166.280000 -51.840000
218.510000 165.030000 -51.840000
216.950000 163.840000 -51.840000
215.280000 162.730000 -51.840000
213.520000 161.690000 -51.840000
211.670000 160.730000 -51.840000
209.740000 159.880000 -51.840000
209.740000 159.880000 -51.840000
207.730000 159.140000 -51.840000
207.730000 159.140000 -51.840000
205.790000 158.460000 -51.840000
203.830000 157.840000 -51.840000
201.860000 157.340000 -51.840000
199.870000 157.000000 -51.840000
197.870000 156.810000 -51.840000
195.850000 156.640000 -51.840000
193.810000 156.500000 -51.840000
191.770000 156.390000 -51.840000
189.730000 156.320000 -51.840000
187.690000 156.290000 -51.840000
185.650000 156.330000 -51.840000
183.610000 156.410000 -51.840000
181.590000 156.540000 -51.840000
179.470000 156.780000 -51.840000
177.410000 157.230000 -51.840000
175.660000 157.940000 -51.840000
175.220000 158.350000 -51.840000
175.690000 157.130000 -51.840000
176.500000 155.140000 -51.840000
177.560000 152.760000 -51.840000
178.790000 150.320000 -51.840000
180.080000 148.200000 -51.840000
181.370000 146.730000 -51.840000
182.810000 145.630000 -51.840000
184.530000 144.570000 -51.840000
186.450000 143.590000 -51.840000
188.490000 142.760000 -51.840000
190.570000 142.130000 -51.840000
192.620000 141.750000 -51.840000
194.600000 141.630000 -51.840000
196.620000 141.540000 -51.840000
198.680000 141.470000 -51.840000
200.760000 141.420000 -51.840000
202.820000 141.380000 -51.840000
204.840000 141.360000 -51.840000
206.810000 141.390000 -51.840000
208.790000 141.720000 -51.840000
210.780000 142.360000 -51.840000
212.730000 143.230000 -51.840000
214.610000 144.250000 -51.840000
216.390000 145.340000 -51.840000
218.020000 146.450000 -51.840000
219.550000 147.660000 -51.840000
221.020000 149.130000 -51.840000
222.370000 150.770000 -51.840000
223.530000 152.490000 -51.840000
224.460000 154.230000 -51.840000
225.210000 156.090000 -51.840000
225.870000 158.050000 -51.840000
226.490000 160.020000 -51.840000
227.120000 161.960000 -51.840000
227.750000 163.900000 -51.840000
228.360000 165.840000 -51.840000
228.930000 167.800000 -51.840000
229.430000 169.760000 -51.840000
229.860000 171.750000 -51.840000
230.240000 173.760000 -51.840000
230.620000 175.760000 -51.840000
231.030000 177.760000 -51.840000
231.510000 179.730000 -51.840000
232.210000 181.690000 -51.840000
231.030000 181.720000 -51.840000
229.770000 180.270000 -51.840000
228.880000 178.510000 -43.200000
227.500000 175.620000 -43.200000
225.960000 172.560000 -43.200000
224.290000 169.510000 -43.200000
222.550000 166.640000 -43.200000
220.790000 164.130000 -43.200000
219.050000 162.170000 -43.200000
217.090000 160.590000 -43.200000
214.790000 159.180000 -43.200000
212.370000 158.020000 -43.200000
209.960000 157.120000 -43.200000
207.450000 156.370000 -43.200000
204.850000 155.840000 -43.200000
204.850000 155.840000 -43.200000
202.290000 155.240000 -43.200000
199.730000 154.710000 -43.200000
197.150000 154.250000 -43.200000
194.570000 153.870000 -43.200000
191.970000 153.510000 -43.200000
189.350000 153.210000 -43.200000
186.760000 153.100000 -43.200000
184.180000 153.360000 -43.200000
181.610000 153.990000 -43.200000
179.080000 154.810000 -43.200000
176.610000 155.690000 -43.200000
173.970000 156.760000 -43.200000
170.960000 158.290000 -43.200000
167.980000 159.970000 -43.200000
165.430000 161.490000 -43.200000
163.750000 162.540000 -43.200000
163.330000 162.730000 -43.200000
164.080000 160.450000 -43.200000
165.190000 157.340000 -43.200000
166.220000 154.900000 -43.200000
167.370000 152.480000 -43.200000
168.650000 150.190000 -43.200000
170.100000 148.130000 -43.200000
171.820000 146.260000 -43.200000
173.800000 144.520000 -43.200000
175.920000 142.870000 -43.200000
178.090000 141.310000 -43.200000
180.220000 139.800000 -43.200000
182.410000 138.350000 -43.200000
184.650000 136.970000 -43.200000
186.950000 135.720000 -43.200000
189.290000 134.540000 -43.200000
191.690000 133.260000 -43.200000
194.130000 132.130000 -43.200000
196.610000 131.450000 -43.200000
199.150000 131.450000 -43.200000
201.790000 131.950000 -43.200000
204.300000 132.700000 -43.200000
206.510000 133.840000 -43.200000
208.550000 135.580000 -43.200000
210.600000 137.310000 -43.200000
212.820000 138.760000 -43.200000
215.140000 140.120000 -43.200000
217.420000 141.500000 -43.200000
219.530000 142.990000 -43.200000
221.340000 144.700000 -43.200000
222.930000 146.760000 -43.200000
224.340000 149.050000 -43.200000
225.500000 151.380000 -43.200000
226.480000 153.760000 -43.200000
227.340000 156.230000 -43.200000
228.130000 158.750000 -43.200000
228.880000 161.280000 -43.200000
229.640000 163.800000 -43.200000
230.540000 166.300000 -43.200000
231.470000 168.790000 -43.200000
231.960000 171.320000 -43.200000
231.950000 174.240000 -43.200000
231.920000 177.670000 -43.200000
231.880000 180.980000 -43.200000
231.820000 183.530000 -43.200000
231.820000 183.530000 -43.200000
231.750000 184.680000 -43.200000
231.520000 184.310000 -43.200000
230.940000 183.030000 -43.200000
230.040000 181.030000 -43.200000
225.930000 162.510000 -34.560000
223.430000 162.250000 -34.560000
221.370000 161.340000 -34.560000
219.390000 160.000000 -34.560000
217.400000 158.590000 -34.560000
215.330000 157.460000 -34.560000
213.200000 156.540000 -34.560000
211.030000 155.690000 -34.560000
208.830000 154.930000 -34.560000
206.610000 154.280000 -34.560000
204.370000 153.700000 -34.560000
202.110000 153.180000 -34.560000
199.820000 152.730000 -34.560000
197.510000 152.360000 -34.560000
197.510000 152.360000 -34.560000
197.510000 152.360000 -34.560000
195.150000 152.370000 -34.560000
192.810000 152.380000 -34.560000
190.480000 152.410000 -34.560000
188.160000 152.450000 -34.560000
185.860000 152.490000 -34.560000
183.560000 152.550000 -34.560000
181.270000 152.700000 -34.560000
178.960000 153.160000 -34.560000
176.690000 153.850000 -34.560000
174.560000 154.640000 -34.560000
172.620000 155.900000 -34.560000
170.800000 157.540000 -34.560000
168.930000 158.990000 -34.560000
166.800000 159.740000 -34.560000
163.840000 160.200000 -34.560000
161.770000 160.440000 -34.560000
161.800000 159.770000 -34.560000
162.390000 157.370000 -34.560000
163.260000 154.440000 -34.560000
164.290000 152.230000 -34.560000
166.030000 150.740000 -34.560000
167.990000 149.300000 -34.560000
169.690000 147.640000 -34.560000
171.410000 145.890000 -34.560000
172.860000 144.040000 -34.560000
173.750000 142.070000 -34.560000
174.190000 139.880000 -34.560000
174.480000 137.510000 -34.560000
174.760000 135.120000 -34.560000
175.170000 132.840000 -34.560000
175.860000 130.490000 -34.560000
176.900000 127.870000 -34.560000
178.200000 125.530000 -34.560000
179.700000 124.050000 -34.560000
181.390000 123.810000 -34.560000
183.650000 123.810000 -34.560000
186.180000 123.810000 -34.560000
188.580000 123.820000 -34.560000
190.840000 124.190000 -34.560000
193.080000 124.920000 -34.560000
195.290000 125.780000 -34.560000
197.480000 126.560000 -34.560000
199.730000 127.340000 -34.560000
202.030000 128.160000 -34.560000
204.330000 129.010000 -34.560000
206.620000 129.910000 -34.560000
208.850000 130.870000 -34.560000
211.000000 131.890000 -34.560000
213.020000 132.990000 -34.560000
214.890000 134.160000 -34.560000
216.570000 135.420000 -34.560000
218.070000 136.820000 -34.560000
219.540000 138.470000 -34.560000
220.970000 140.340000 -34.560000
222.310000 142.380000 -34.560000
223.530000 144.530000 -34.560000
224.610000 146.750000 -34.560000
225.500000 148.990000 -34.560000
226.190000 151.180000 -34.560000
226.730000 153.660000 -34.560000
227.230000 156.660000 -34.560000
227.650000 159.560000 -34.560000
227.930000 161.750000 -34.560000
228.040000 162.590000 -34.560000
226.500000 166.830000 -25.920000
226.500000 168.490000 -25.920000
226.020000 168.120000 -25.920000
224.100000 166.200000 -25.920000
221.510000 163.650000 -25.920000
219.120000 161.400000 -25.920000
217.070000 159.430000 -25.920000
215.000000 157.430000 -25.920000
212.850000 155.610000 -25.920000
210.570000 154.200000 -25.920000
208.150000 153.120000 -25.920000
205.590000 152.130000 -25.920000
202.920000 151.280000 -25.920000
200.120000 150.640000 -25.920000
197.210000 150.250000 -25.920000
197.210000 150.250000 -25.920000
197.210000 150.250000 -25.920000
194.420000 149.960000 -25.920000
191.630000 149.820000 -25.920000
188.850000 149.770000 -25.920000
186.060000 149.840000 -25.920000
183.240000 150.120000 -25.920000
180.450000 150.570000 -25.920000
177.740000 151.120000 -25.920000
175.130000 151.830000 -25.920000
172.590000 152.990000 -25.920000
170.130000 154.490000 -25.920000
167.820000 156.110000 -25.920000
165.520000 157.950000 -25.920000
162.970000 160.420000 -25.920000
160.460000 163.110000 -25.920000
158.330000 165.530000 -25.920000
156.900000 167.210000 -25.920000
156.490000 167.690000 -25.920000
156.640000 166.990000 -25.920000
156.990000 165.380000 -25.920000
157.500000 163.040000 -25.920000
158.150000 160.130000 -25.920000
158.910000 156.820000 -25.920000
159.750000 153.270000 -25.920000
160.630000 149.670000 -25.920000
161.540000 146.170000 -25.920000
162.430000 142.950000 -25.920000
163.290000 140.150000 -25.920000
164.170000 137.460000 -25.920000
165.150000 134.780000 -25.920000
166.250000 132.190000 -25.920000
167.510000 129.800000 -25.920000
169.020000 127.360000 -25.920000
170.820000 124.740000 -25.920000
172.850000 122.370000 -25.920000
175.060000 120.700000 -25.920000
177.380000 120.160000 -25.920000
180.050000 120.160000 -25.920000
182.960000 120.160000 -25.920000
185.800000 120.160000 -25.920000
188.640000 120.120000 -25.920000
191.470000 120.070000 -25.920000
194.250000 120.020000 -25.920000
196.930000 120.010000 -25.920000
199.500000 120.780000 -25.920000
201.980000 122.270000 -25.920000
204.440000 123.840000 -25.920000
206.940000 125.140000 -25.920000
209.480000 126.460000 -25.920000
211.940000 127.850000 -25.920000
214.210000 129.380000 -25.920000
216.220000 131.140000 -25.920000
218.180000 133.200000 -25.920000
219.990000 135.460000 -25.920000
221.540000 137.860000 -25.920000
222.710000 140.300000 -25.920000
223.680000 142.830000 -25.920000
224.610000 145.490000 -25.920000
225.410000 148.230000 -25.920000
226.040000 151.020000 -25.920000
226.420000 153.820000 -25.920000
226.500000 156.640000 -25.920000
226.500000 160.100000 -25.920000
226.500000 163.760000 -25.920000
227.630000 165.920000 -17.280000
228.320000 168.910000 -17.280000
228.130000 172.100000 -17.280000
226.660000 172.880000 -17.280000
225.040000 170.810000 -17.280000
223.210000 167.680000 -17.280000
221.220000 164.560000 -17.280000
219.090000 162.320000 -17.280000
216.680000 160.430000 -17.280000
214.080000 158.740000 -17.280000
211.440000 157.280000 -17.280000
208.730000 155.940000 -17.280000
205.940000 154.720000 -17.280000
203.060000 153.640000 -17.280000
200.090000 152.740000 -17.280000
200.090000 152.740000 -17.280000
197.080000 151.570000 -17.280000
197.080000 151.570000 -17.280000
194.070000 150.740000 -17.280000
191.070000 150.200000 -17.280000
188.070000 149.880000 -17.280000
185.080000 149.740000 -17.280000
182.090000 149.820000 -17.280000
179.090000 150.670000 -17.280000
176.130000 151.440000 -17.280000
173.220000 150.850000 -17.280000
170.370000 149.130000 -17.280000
167.800000 148.640000 -17.280000
165.040000 150.430000 -17.280000
162.980000 153.290000 -17.280000
162.900000 156.080000 -17.280000
164.170000 159.230000 -17.280000
164.350000 161.660000 -17.280000
161.470000 163.760000 -17.280000
158.130000 165.150000 -17.280000
156.950000 164.930000 -17.280000
156.250000 162.690000 -17.280000
155.720000 159.180000 -17.280000
155.370000 155.200000 -17.280000
155.220000 151.560000 -17.280000
155.300000 148.480000 -17.280000
155.590000 145.340000 -17.280000
156.020000 142.280000 -17.280000
156.550000 139.440000 -17.280000
157.520000 136.830000 -17.280000
159.130000 134.340000 -17.280000
161.200000 131.950000 -17.280000
163.490000 129.640000 -17.280000
165.810000 127.380000 -17.280000
167.940000 125.120000 -17.280000
169.980000 122.520000 -17.280000
172.160000 120.250000 -17.280000
174.650000 119.280000 -17.280000
177.660000 118.840000 -17.280000
180.830000 118.620000 -17.280000
183.870000 118.740000 -17.280000
186.890000 119.220000 -17.280000
189.890000 119.910000 -17.280000
192.840000 120.620000 -17.280000
195.740000 121.540000 -17.280000
198.610000 122.590000 -17.280000
201.510000 123.580000 -17.280000
204.470000 124.460000 -17.280000
207.460000 125.300000 -17.280000
210.410000 126.170000 -17.280000
213.280000 127.160000 -17.280000
216.000000 128.310000 -17.280000
218.920000 129.750000 -17.280000
222.070000 131.500000 -17.280000
224.740000 133.500000 -17.280000
226.220000 135.700000 -17.280000
226.330000 138.180000 -17.280000
226.340000 141.130000 -17.280000
226.350000 144.360000 -17.280000
226.360000 147.620000 -17.280000
226.380000 150.720000 -17.280000
226.450000 153.770000 -17.280000
226.560000 156.820000 -17.280000
226.720000 159.860000 -17.280000
226.950000 162.890000 -17.280000
228.250000 164.530000 -8.640000
228.420000 167.860000 -8.640000
228.500000 171.080000 -8.640000
227.520000 174.810000 -8.640000
225.750000 176.740000 -8.640000
224.080000 174.710000 -8.640000
222.260000 171.130000 -8.640000
220.350000 168.180000 -8.640000
218.390000 165.390000 -8.640000
216.310000 162.730000 -8.640000
214.030000 160.510000 -8.640000
211.500000 158.770000 -8.640000
208.730000 157.180000 -8.640000
205.720000 155.790000 -8.640000
202.490000 154.660000 -8.640000
199.050000 153.850000 -8.640000
199.050000 153.850000 -8.640000
195.890000 152.850000 -8.640000
195.890000 152.850000 -8.640000
192.710000 151.990000 -8.640000
189.500000 151.300000 -8.640000
186.260000 150.700000 -8.640000
182.990000 150.190000 -8.640000
179.710000 149.990000 -8.640000
176.390000 150.040000 -8.640000
173.080000 150.180000 -8.640000
169.820000 150.440000 -8.640000
166.210000 151.410000 -8.640000
163.340000 152.980000 -8.640000
162.210000 155.460000 -8.640000
161.630000 159.290000 -8.640000
160.380000 161.680000 -8.640000
156.640000 162.960000 -8.640000
154.890000 162.680000 -8.640000
154.400000 159.100000 -8.640000
153.840000 155.140000 -8.640000
151.760000 153.130000 -8.640000
148.480000 151.500000 -8.640000
146.560000 149.020000 -8.640000
145.360000 145.780000 -8.640000
145.450000 142.460000 -8.640000
146.080000 138.800000 -8.640000
147.070000 135.430000 -8.640000
148.320000 132.980000 -8.640000
150.770000 131.630000 -8.640000
154.330000 130.560000 -8.640000
157.270000 129.010000 -8.640000
159.840000 126.910000 -8.640000
162.280000 124.660000 -8.640000
164.540000 122.190000 -8.640000
166.970000 120.080000 -8.640000
169.810000 118.170000 -8.640000
172.870000 116.700000 -8.640000
176.000000 116.390000 -8.640000
179.290000 116.780000 -8.640000
182.570000 117.410000 -8.640000
185.670000 118.480000 -8.640000
188.670000 120.170000 -8.640000
191.680000 121.660000 -8.640000
194.780000 122.150000 -8.640000
198.020000 122.020000 -8.640000
201.330000 121.780000 -8.640000
204.650000 121.510000 -8.640000
207.960000 121.250000 -8.640000
211.280000 120.960000 -8.640000
214.500000 120.930000 -8.640000
217.810000 121.880000 -8.640000
220.870000 123.570000 -8.640000
223.180000 125.570000 -8.640000
224.850000 128.550000 -8.640000
225.690000 131.680000 -8.640000
226.300000 134.960000 -8.640000
226.560000 138.280000 -8.640000
226.500000 141.560000 -8.640000
226.350000 144.860000 -8.640000
226.250000 148.160000 -8.640000
226.430000 151.420000 -8.640000
226.990000 154.680000 -8.640000
227.630000 157.930000 -8.640000
228.030000 161.200000 -8.640000
226.900000 163.570000 0.000000
226.190000 167.060000 0.000000
225.510000 171.260000 0.000000
224.700000 175.310000 0.000000
223.590000 176.430000 0.000000
221.850000 174.510000 0.000000
219.590000 171.090000 0.000000
217.080000 167.450000 0.000000
214.580000 164.710000 0.000000
211.940000 162.210000 0.000000
209.110000 159.880000 0.000000
206.110000 158.000000 0.000000
202.960000 156.780000 0.000000
199.550000 155.850000 0.000000
195.930000 155.320000 0.000000
195.930000 155.320000 0.000000
192.380000 155.410000 0.000000
188.840000 155.560000 0.000000
188.840000 155.560000 0.000000
185.290000 155.730000 0.000000
181.660000 155.930000 0.000000
178.110000 156.220000 0.000000
174.860000 156.860000 0.000000
171.940000 158.930000 0.000000
169.020000 161.210000 0.000000
165.780000 162.500000 0.000000
162.310000 163.440000 0.000000
158.860000 164.390000 0.000000
155.560000 165.760000 0.000000
152.020000 168.010000 0.000000
148.530000 170.570000 0.000000
145.550000 172.720000 0.000000
143.530000 173.760000 0.000000
142.440000 172.520000 0.000000
141.630000 168.870000 0.000000
140.980000 164.330000 0.000000
140.440000 160.360000 0.000000
139.950000 156.850000 0.000000
139.600000 153.320000 0.000000
139.340000 149.750000 0.000000
139.150000 146.190000 0.000000
139.230000 142.740000 0.000000
140.170000 139.330000 0.000000
141.760000 135.990000 0.000000
143.600000 132.840000 0.000000
145.490000 129.950000 0.000000
147.840000 127.270000 0.000000
150.450000 124.760000 0.000000
153.090000 122.410000 0.000000
155.870000 120.180000 0.000000
158.790000 118.150000 0.000000
161.830000 116.310000 0.000000
165.010000 114.650000 0.000000
168.310000 113.530000 0.000000
171.770000 112.620000 0.000000
175.300000 112.010000 0.000000
178.810000 111.960000 0.000000
182.320000 112.470000 0.000000
185.830000 113.150000 0.000000
189.350000 113.630000 0.000000
192.900000 114.010000 0.000000
196.440000 114.390000 0.000000
199.930000 114.870000 0.000000
203.400000 115.530000 0.000000
206.930000 116.470000 0.000000
210.390000 117.660000 0.000000
213.630000 119.070000 0.000000
216.510000 120.730000 0.000000
219.330000 123.000000 0.000000
221.890000 125.780000 0.000000
223.840000 128.760000 0.000000
225.080000 131.840000 0.000000
226.120000 135.230000 0.000000
226.930000 138.800000 0.000000
227.480000 142.400000 0.000000
227.750000 145.920000 0.000000
227.960000 149.470000 0.000000
228.070000 153.020000 0.000000
228.010000 156.550000 0.000000
227.570000 160.070000 0.000000
3 0 80 2
3 0 2 3
3 0 3 4
3 0 4 5
3 0 5 6
3 0 6 7
3 0 7 8
3 0 8 9
3 0 9 10
3 0 10 11
3 0 11 12
3 0 12 13
3 0 13 14
3 0 14 16
3 0 16 17
3 0 17 18
3 0 18 19
3 0 19 20
3 0 20 21
3 0 21 22
3 0 22 23
3 0 23 24
3 0 24 25
3 0 25 26
3 0 26 27
3 0 27 28
3 0 28 29
3 0 29 30
3 0 30 31
3 0 31 32
3 0 32 33
3 0 33 34
3 0 34 35
3 0 35 36
3 0 36 37
3 0 37 38
3 0 38 39
3 0 39 40
3 0 40 41
3 0 41 42
3 0 42 43
3 0 43 44
3 0 44 45
3 0 45 46
3 0 46 47
3 0 47 48
3 0 48 49
3 0 49 50
3 0 50 51
3 0 51 52
3 0 52 53
3 0 53 54
3 0 54 55
3 0 55 56
3 0 56 57
3 0 57 58
3 0 58 59
3 0 59 60
3 0 60 61
3 0 61 62
3 0 62 63
3 0 63 64
3 0 64 65
3 0 65 66
3 0 66 67
3 0 67 68
3 0 68 69
3 0 69 70
3 0 70 71
3 0 71 72
3 0 72 73
3 0 73 74
3 0 74 75
3 0 75 76
3 0 76 77
3 0 77 78
3 0 78 79
3 0 79 80
3 80 81 82
3 80 82 2
3 2 82 83
3 2 83 3
3 3 83 84
3 3 84 4
3 4 84 85
3 4 85 5
3 5 85 86
3 5 86 6
3 6 86 87
3 6 87 7
3 7 87 88
3 7 88 8
3 8 88 89
3 8 89 9
3 9 89 10
3 10 89 91
3 10 91 11
3 11 91 92
3 11 92 12
3 12 92 13
3 13 92 94
3 13 94 14
3 14 94 95
3 14 95 96
3 14 96 16
3 16 96 97
3 16 97 17
3 17 97 98
3 17 98 18
3 18 98 99
3 18 99 19
3 19 99 100
3 19 100 20
3 20 100 101
3 20 101 21
3 21 101 102
3 21 102 22
3 22 102 103
3 22 103 23
3 23 103 104
3 23 104 24
3 24 104 105
3 24 105 25
3 25 105 106
3 25 106 26
3 26 106 107
3 26 107 27
3 27 107 108
3 27 108 28
3 28 108 109
3 28 109 29
3 29 109 110
3 29 110 30
3 30 110 111
3 30 111 31
3 31 111 112
3 31 112 32
3 32 112 113
3 32 113 33
3 33 113 114
3 33 114 34
3 34 114 115
3 34 115 35
3 35 115 116
3 35 116 36
3 36 116 117
3 36 117 37
3 37 117 118
3 37 118 38
3 38 118 119
3 38 119 39
3 39 119 120
3 39 120 40
3 40 120 121
3 40 121 41
3 41 121 122
3 41 122 42
3 42 122 123
3 42 123 43
3 43 123 124
3 43 124 44
3 44 124 125
3 44 125 45
3 45 125 126
3 45 126 46
3 46 126 127
3 46 127 47
3 47 127 128
3 47 128 48
3 48 128 129
3 48 129 49
3 49 129 130
3 49 130 50
3 50 130 131
3 50 131 51
3 51 131 132
3 51 132 52
3 52 132 133
3 52 133 53
3 53 133 134
3 53 134 54
3 54 134 135
3 54 135 55
3 55 135 136
3 55 136 56
3 56 136 137
3 56 137 57
3 57 137 138
3 57 138 58
3 58 138 139
3 58 139 59
3 59 139 140
3 59 140 60
3 60 140 141
3 60 141 61
3 61 141 142
3 61 142 62
3 62 142 143
3 62 143 63
3 63 143 144
3 63 144 64
3 64 144 145
3 64 145 65
3 65 145 146
3 65 146 66
3 66 146 147
3 66 147 67
3 67 147 148
3 67 148 68
3 68 148 149
3 68 149 69
3 69 149 150
3 69 150 70
3 70 150 151
3 70 151 71
3 71 151 152
3 71 152 72
3 72 152 153
3 72 153 73
3 73 153 154
3 73 154 74
3 74 154 155
3 74 155 75
3 75 155 156
3 75 156 76
3 76 156 157
3 76 157 77
3 77 157 158
3 77 158 78
3 78 158 159
3 78 159 79
3 79 159 160
3 79 160 80
3 80 160 81
3 81 161 162
3 81 162 82
3 82 162 163
3 82 163 83
3 83 163 164
3 83 164 84
3 84 164 165
3 84 165 85
3 85 165 166
3 85 166 86
3 86 166 167
3 86 167 87
3 87 167 168
3 87 168 88
3 88 168 169
3 88 169 89
3 89 169 170
3 89 170 171
3 89 171 91
3 91 171 172
3 91 172 92
3 92 172 173
3 92 173 174
3 92 174 94
3 94 174 95
3 95 174 176
3 95 176 96
3 96 176 97
3 97 176 178
3 97 178 98
3 98 178 179
3 98 179 99
3 99 179 180
3 99 180 100
3 100 180 181
3 100 181 101
3 101 181 182
3 101 182 102
3 102 182 183
3 102 183 103
3 103 183 184
3 103 184 104
3 104 184 185
3 104 185 105
3 105 185 186
3 105 186 106
3 106 186 187
3 106 187 107
3 107 187 188
3 107 188 108
3 108 188 189
3 108 189 109
3 109 189 190
3 109 190 110
3 110 190 191
3 110 191 111
3 111 191 192
3 111 192 112
3 112 192 193
3 112 193 113
3 113 193 194
3 113 194 114
3 114 194 195
3 114 195 115
3 115 195 196
3 115 196 116
3 116 196 197
3 116 197 117
3 117 197 198
3 117 198 118
3 118 198 199
3 118 199 119
3 119 199 200
3 119 200 120
3 120 200 201
3 120 201 121
3 121 201 202
3 121 202 122
3 122 202 203
3 122 203 123
3 123 203 204
3 123 204 124
3 124 204 205
3 124 205 125
3 125 205 206
3 125 206 126
3 126 206 207
3 126 207 127
3 127 207 208
3 127 208 128
3 128 208 209
3 128 209 129
3 129 209 210
3 129 210 130
3 130 210 211
3 130 211 131
3 131 211 212
3 131 212 132
3 132 212 213
3 132 213 133
3 133 213 214
3 133 214 134
3 134 214 215
3 134 215 135
3 135 215 216
3 135 216 136
3 136 216 217
3 136 217 137
3 137 217 218
3 137 218 138
3 138 218 219
3 138 219 139
3 139 219 220
3 139 220 140
3 140 220 221
3 140 221 141
3 141 221 222
3 141 222 142
3 142 222 223
3 142 223 143
3 143 223 224
3 143 224 144
3 144 224 225
3 144 225 145
3 145 225 226
3 145 226 146
3 146 226 227
3 146 227 147
3 147 227 228
3 147 228 148
3 148 228 229
3 148 229 149
3 149 229 230
3 149 230 150
3 150 230 231
3 150 231 151
3 151 231 232
3 151 232 152
3 152 232 233
3 152 233 153
3 153 233 234
3 153 234 154
3 154 234 235
3 154 235 155
3 155 235 236
3 155 236 156
3 156 236 237
3 156 237 157
3 157 237 238
3 157 238 158
3 158 238 239
3 158 239 159
3 159 239 240
3 159 240 160
3 160 240 161
3 160 161 81
3 161 241 242
3 161 242 162
3 162 242 243
3 162 243 163
3 163 243 244
3 163 244 164
3 164 244 245
3 164 245 165
3 165 245 246
3 165 246 166
3 166 246 247
3 166 247 167
3 167 247 248
3 167 248 168
3 168 248 249
3 168 249 169
3 169 249 250
3 169 250 170
3 170 250 251
3 170 251 171
3 171 251 252
3 171 252 172
3 172 252 253
3 172 253 173
3 173 253 174
3 174 253 255
3 174 255 256
3 174 256 176
3 176 256 257
3 176 257 258
3 176 258 178
3 178 258 259
3 178 259 179
3 179 259 260
3 179 260 180
3 180 260 261
3 180 261 181
3 181 261 262
3 181 262 182
3 182 262 263
3 182 263 183
3 183 263 264
3 183 264 184
3 184 264 265
3 184 265 185
3 185 265 266
3 185 266 186
3 186 266 267
3 186 267 187
3 187 267 268
3 187 268 188
3 188 268 269
3 188 269 189
3 189 269 270
3 189 270 190
3 190 270 271
3 190 271 191
3 191 271 272
3 191 272 192
3 192 272 273
3 192 273 193
3 193 273 274
3 193 274 194
3 194 274 275
3 194 275 195
3 195 275 276
3 195 276 196
3 196 276 277
3 196 277 197
3 197 277 278
3 197 278 198
3 198 278 279
3 198 279 199
3 199 279 280
3 199 280 200
3 200 280 281
3 200 281 201
3 201 281 282
3 201 282 202
3 202 282 283
3 202 283 203
3 203 283 284
3 203 284 204
3 204 284 285
3 204 285 205
3 205 285 286
3 205 286 206
3 206 286 287
3 206 287 207
3 207 287 288
3 207 288 208
3 208 288 289
3 208 289 209
3 209 289 290
3 209 290 210
3 210 290 291
3 210 291 211
3 211 291 292
3 211 292 212
3 212 292 293
3 212 293 213
3 213 293 294
3 213 294 214
3 214 294 295
3 214 295 215
3 215 295 296
3 215 296 216
3 216 296 297
3 216 297 217
3 217 297 298
3 217 298 218
3 218 298 299
3 218 299 219
3 219 299 300
3 219 300 220
3 220 300 301
3 220 301 221
3 221 301 302
3 221 302 222
3 222 302 303
3 222 303 223
3 223 303 304
3 223 304 224
3 224 304 305
3 224 305 225
3 225 305 306
3 225 306 226
3 226 306 307
3 226 307 227
3 227 307 308
3 227 308 228
3 228 308 309
3 228 309 229
3 229 309 310
3 229 310 230
3 230 310 311
3 230 311 231
3 231 311 312
3 231 312 232
3 232 312 313
3 232 313 233
3 233 313 314
3 233 314 234
3 234 314 315
3 234 315 235
3 235 315 236
3 236 315 317
3 236 317 237
3 237 317 318
3 237 318 238
3 238 318 319
3 238 319 239
3 239 319 320
3 239 320 240
3 240 320 241
3 240 241 161
3 241 321 322
3 241 322 242
3 242 322 323
3 242 323 243
3 243 323 324
3 243 324 244
3 244 324 325
3 244 325 245
3 245 325 326
3 245 326 246
3 246 326 327
3 246 327 247
3 247 327 328
3 247 328 248
3 248 328 329
3 248 329 249
3 249 329 330
3 249 330 250
3 250 330 331
3 250 331 251
3 251 331 332
3 251 332 252
3 252 332 333
3 252 333 253
3 253 333 334
3 253 334 255
3 255 334 256
3 256 334 337
3 256 337 257
3 257 337 338
3 257 338 258
3 258 338 339
3 258 339 259
3 259 339 340
3 259 340 260
3 260 340 341
3 260 341 261
3 261 341 342
3 261 342 262
3 262 342 343
3 262 343 263
3 263 343 344
3 263 344 264
3 264 344 345
3 264 345 265
3 265 345 346
3 265 346 266
3 266 346 347
3 266 347 267
3 267 347 348
3 267 348 268
3 268 348 349
3 268 349 269
3 269 349 350
3 269 350 270
3 270 350 351
3 270 351 271
3 271 351 352
3 271 352 272
3 272 352 353
3 272 353 273
3 273 353 354
3 273 354 274
3 274 354 355
3 274 355 275
3 275 355 356
3 275 356 276
3 276 356 357
3 276 357 277
3 277 357 358
3 277 358 278
3 278 358 359
3 278 359 279
3 279 359 360
3 279 360 280
3 280 360 361
3 280 361 281
3 281 361 362
3 281 362 282
3 282 362 363
3 282 363 283
3 283 363 364
3 283 364 284
3 284 364 365
3 284 365 285
3 285 365 366
3 285 366 286
3 286 366 367
3 286 367 287
3 287 367 368
3 287 368 288
3 288 368 369
3 288 369 289
3 289 369 370
3 289 370 290
3 290 370 371
3 290 371 291
3 291 371 372
3 291 372 292
3 292 372 373
3 292 373 293
3 293 373 374
3 293 374 294
3 294 374 375
3 294 375 295
3 295 375 376
3 295 376 296
3 296 376 377
3 296 377 297
3 297 377 378
3 297 378 298
3 298 378 379
3 298 379 299
3 299 379 380
3 299 380 300
3 300 380 381
3 300 381 301
3 301 381 382
3 301 382 302
3 302 382 383
3 302 383 303
3 303 383 384
3 303 384 304
3 304 384 385
3 304 385 305
3 305 385 386
3 305 386 306
3 306 386 387
3 306 387 307
3 307 387 388
3 307 388 308
3 308 388 389
3 308 389 309
3 309 389 390
3 309 390 310
3 310 390 391
3 310 391 311
3 311 391 392
3 311 392 312
3 312 392 393
3 312 393 313
3 313 393 394
3 313 394 314
3 314 394 395
3 314 395 315
3 315 395 396
3 315 396 397
3 315 397 317
3 317 397 398
3 317 398 318
3 318 398 399
3 318 399 319
3 319 399 400
3 319 400 320
3 320 400 321
3 320 321 241
3 321 401 402
3 321 402 322
3 322 402 403
3 322 403 323
3 323 403 404
3 323 404 324
3 324 404 405
3 324 405 325
3 325 405 406
3 325 406 326
3 326 406 407
3 326 407 327
3 327 407 408
3 327 408 328
3 328 408 409
3 328 409 329
3 329 409 410
3 329 410 330
3 330 410 411
3 330 411 331
3 331 411 412
3 331 412 332
3 332 412 413
3 332 413 333
3 333 413 414
3 333 414 334
3 334 414 415
3 334 415 337
3 337 415 418
3 337 418 338
3 338 418 419
3 338 419 339
3 339 419 420
3 339 420 340
3 340 420 421
3 340 421 341
3 341 421 422
3 341 422 342
3 342 422 423
3 342 423 343
3 343 423 424
3 343 424 344
3 344 424 425
3 344 425 345
3 345 425 426
3 345 426 346
3 346 426 427
3 346 427 347
3 347 427 428
3 347 428 348
3 348 428 429
3 348 429 349
3 349 429 430
3 349 430 350
3 350 430 431
3 350 431 351
3 351 431 432
3 351 432 352
3 352 432 433
3 352 433 353
3 353 433 434
3 353 434 354
3 354 434 435
3 354 435 355
3 355 435 436
3 355 436 356
3 356 436 437
3 356 437 357
3 357 437 438
3 357 438 358
3 358 438 439
3 358 439 359
3 359 439 440
3 359 440 360
3 360 440 441
3 360 441 361
3 361 441 442
3 361 442 362
3 362 442 443
3 362 443 363
3 363 443 444
3 363 444 364
3 364 444 445
3 364 445 365
3 365 445 446
3 365 446 366
3 366 446 447
3 366 447 367
3 367 447 448
3 367 448 368
3 368 448 449
3 368 449 369
3 369 449 450
3 369 450 370
3 370 450 451
3 370 451 371
3 371 451 452
3 371 452 372
3 372 452 453
3 372 453 373
3 373 453 454
3 373 454 374
3 374 454 455
3 374 455 375
3 375 455 456
3 375 456 376
3 376 456 457
3 376 457 377
3 377 457 458
3 377 458 378
3 378 458 459
3 378 459 379
3 379 459 460
3 379 460 380
3 380 460 461
3 380 461 381
3 381 461 462
3 381 462 382
3 382 462 463
3 382 463 383
3 383 463 464
3 383 464 384
3 384 464 465
3 384 465 385
3 385 465 466
3 385 466 386
3 386 466 467
3 386 467 387
3 387 467 468
3 387 468 388
3 388 468 469
3 388 469 389
3 389 469 470
3 389 470 390
3 390 470 471
3 390 471 391
3 391 471 472
3 391 472 392
3 392 472 473
3 392 473 393
3 393 473 474
3 393 474 394
3 394 474 475
3 394 475 395
3 395 475 476
3 395 476 396
3 396 476 477
3 396 477 397
3 397 477 478
3 397 478 398
3 398 478 479
3 398 479 399
3 399 479 480
3 399 480 400
3 400 480 401
3 400 401 321
3 401 481 482
3 401 482 402
3 402 482 483
3 402 483 403
3 403 483 484
3 403 484 404
3 404 484 485
3 404 485 405
3 405 485 486
3 405 486 406
3 406 486 487
3 406 487 407
3 407 487 488
3 407 488 408
3 408 488 489
3 408 489 409
3 409 489 490
3 409 490 410
3 410 490 491
3 410 491 411
3 411 491 492
3 411 492 412
3 412 492 493
3 412 493 413
3 413 493 494
3 413 494 414
3 414 494 495
3 414 495 415
3 415 495 497
3 415 497 418
3 418 497 499
3 418 499 419
3 419 499 500
3 419 500 420
3 420 500 501
3 420 501 421
3 421 501 502
3 421 502 422
3 422 502 503
3 422 503 423
3 423 503 504
3 423 504 424
3 424 504 505
3 424 505 425
3 425 505 506
3 425 506 426
3 426 506 507
3 426 507 427
3 427 507 508
3 427 508 428
3 428 508 509
3 428 509 429
3 429 509 510
3 429 510 430
3 430 510 511
3 430 511 431
3 431 511 512
3 431 512 432
3 432 512 513
3 432 513 433
3 433 513 514
3 433 514 434
3 434 514 515
3 434 515 435
3 435 515 516
3 435 516 436
3 436 516 517
3 436 517 437
3 437 517 518
3 437 518 438
3 438 518 519
3 438 519 439
3 439 519 520
3 439 520 440
3 440 520 521
3 440 521 441
3 441 521 522
3 441 522 442
3 442 522 523
3 442 523 443
3 443 523 524
3 443 524 444
3 444 524 525
3 444 525 445
3 445 525 526
3 445 526 446
3 446 526 527
3 446 527 447
3 447 527 528
3 447 528 448
3 448 528 529
3 448 529 449
3 449 529 530
3 449 530 450
3 450 530 531
3 450 531 451
3 451 531 532
3 451 532 452
3 452 532 533
3 452 533 453
3 453 533 534
3 453 534 454
3 454 534 535
3 454 535 455
3 455 535 536
3 455 536 456
3 456 536 537
3 456 537 457
3 457 537 538
3 457 538 458
3 458 538 539
3 458 539 459
3 459 539 540
3 459 540 460
3 460 540 541
3 460 541 461
3 461 541 542
3 461 542 462
3 462 542 543
3 462 543 463
3 463 543 544
3 463 544 464
3 464 544 545
3 464 545 465
3 465 545 546
3 465 546 466
3 466 546 547
3 466 547 467
3 467 547 548
3 467 548 468
3 468 548 549
3 468 549 469
3 469 549 550
3 469 550 470
3 470 550 551
3 470 551 471
3 471 551 552
3 471 552 472
3 472 552 553
3 472 553 473
3 473 553 554
3 473 554 474
3 474 554 555
3 474 555 475
3 475 555 556
3 475 556 476
3 476 556 557
3 476 557 477
3 477 557 558
3 477 558 478
3 478 558 559
3 478 559 479
3 479 559 560
3 479 560 480
3 480 560 481
3 480 481 401
3 481 561 562
3 481 562 482
3 482 562 563
3 482 563 483
3 483 563 564
3 483 564 484
3 484 564 565
3 484 565 485
3 485 565 566
3 485 566 486
3 486 566 567
3 486 567 487
3 487 567 568
3 487 568 488
3 488 568 569
3 488 569 489
3 489 569 570
3 489 570 490
3 490 570 571
3 490 571 491
3 491 571 572
3 491 572 492
3 492 572 573
3 492 573 493
3 493 573 574
3 493 574 494
3 494 574 575
3 494 575 495
3 495 575 576
3 495 576 497
3 497 576 578
3 497 578 499
3 499 578 580
3 499 580 500
3 500 580 581
3 500 581 501
3 501 581 582
3 501 582 502
3 502 582 583
3 502 583 503
3 503 583 584
3 503 584 504
3 504 584 585
3 504 585 505
3 505 585 586
3 505 586 506
3 506 586 587
3 506 587 507
3 507 587 588
3 507 588 508
3 508 588 589
3 508 589 509
3 509 589 590
3 509 590 510
3 510 590 591
3 510 591 511
3 511 591 592
3 511 592 512
3 512 592 593
3 512 593 513
3 513 593 594
3 513 594 514
3 514 594 595
3 514 595 515
3 515 595 596
3 515 596 516
3 516 596 597
3 516 597 517
3 517 597 598
3 517 598 518
3 518 598 599
3 518 599 519
3 519 599 600
3 519 600 520
3 520 600 601
3 520 601 521
3 521 601 602
3 521 602 522
3 522 602 603
3 522 603 523
3 523 603 604
3 523 604 524
3 524 604 605
3 524 605 525
3 525 605 606
3 525 606 526
3 526 606 607
3 526 607 527
3 527 607 608
3 527 608 528
3 528 608 609
3 528 609 529
3 529 609 610
3 529 610 530
3 530 610 611
3 530 611 531
3 531 611 612
3 531 612 532
3 532 612 613
3 532 613 533
3 533 613 614
3 533 614 534
3 534 614 615
3 534 615 535
3 535 615 616
3 535 616 536
3 536 616 617
3 536 617 537
3 537 617 618
3 537 618 538
3 538 618 619
3 538 619 539
3 539 619 620
3 539 620 540
3 540 620 621
3 540 621 541
3 541 621 622
3 541 622 542
3 542 622 623
3 542 623 543
3 543 623 624
3 543 624 544
3 544 624 625
3 544 625 545
3 545 625 626
3 545 626 546
3 546 626 627
3 546 627 547
3 547 627 628
3 547 628 548
3 548 628 629
3 548 629 549
3 549 629 630
3 549 630 550
3 550 630 631
3 550 631 551
3 551 631 632
3 551 632 552
3 552 632 633
3 552 633 553
3 553 633 634
3 553 634 554
3 554 634 635
3 554 635 555
3 555 635 636
3 555 636 556
3 556 636 637
3 556 637 557
3 557 637 638
3 557 638 558
3 558 638 639
3 558 639 559
3 559 639 640
3 559 640 560
3 560 640 561
3 560 561 481
3 561 641 642
3 561 642 562
3 562 642 643
3 562 643 563
3 563 643 644
3 563 644 564
3 564 644 645
3 564 645 565
3 565 645 646
3 565 646 566
3 566 646 647
3 566 647 567
3 567 647 648
3 567 648 568
3 568 648 649
3 568 649 569
3 569 649 650
3 569 650 570
3 570 650 651
3 570 651 571
3 571 651 652
3 571 652 572
3 572 652 653
3 572 653 573
3 573 653 654
3 573 654 574
3 574 654 655
3 574 655 575
3 575 655 576
3 576 655 657
3 576 657 658
3 576 658 578
3 578 658 660
3 578 660 580
3 580 660 661
3 580 661 581
3 581 661 662
3 581 662 582
3 582 662 663
3 582 663 583
3 583 663 664
3 583 664 584
3 584 664 665
3 584 665 585
3 585 665 666
3 585 666 586
3 586 666 667
3 586 667 587
3 587 667 668
3 587 668 588
3 588 668 669
3 588 669 589
3 589 669 670
3 589 670 590
3 590 670 671
3 590 671 591
3 591 671 672
3 591 672 592
3 592 672 673
3 592 673 593
3 593 673 674
3 593 674 594
3 594 674 675
3 594 675 595
3 595 675 676
3 595 676 596
3 596 676 677
3 596 677 597
3 597 677 678
3 597 678 598
3 598 678 679
3 598 679 599
3 599 679 680
3 599 680 600
3 600 680 681
3 600 681 601
3 601 681 682
3 601 682 602
3 602 682 683
3 602 683 603
3 603 683 684
3 603 684 604
3 604 684 685
3 604 685 605
3 605 685 686
3 605 686 606
3 606 686 687
3 606 687 607
3 607 687 688
3 607 688 608
3 608 688 689
3 608 689 609
3 609 689 690
3 609 690 610
3 610 690 691
3 610 691 611
3 611 691 692
3 611 692 612
3 612 692 693
3 612 693 613
3 613 693 694
3 613 694 614
3 614 694 695
3 614 695 615
3 615 695 696
3 615 696 616
3 616 696 697
3 616 697 617
3 617 697 698
3 617 698 618
3 618 698 699
3 618 699 619
3 619 699 700
3 619 700 620
3 620 700 701
3 620 701 621
3 621 701 702
3 621 702 622
3 622 702 703
3 622 703 623
3 623 703 704
3 623 704 624
3 624 704 705
3 624 705 625
3 625 705 706
3 625 706 626
3 626 706 707
3 626 707 627
3 627 707 708
3 627 708 628
3 628 708 709
3 628 709 629
3 629 709 710
3 629 710 630
3 630 710 711
3 630 711 631
3 631 711 712
3 631 712 632
3 632 712 713
3 632 713 633
3 633 713 714
3 633 714 634
3 634 714 715
3 634 715 635
3 635 715 716
3 635 716 636
3 636 716 717
3 636 717 637
3 637 717 718
3 637 718 638
3 638 718 719
3 638 719 639
3 639 719 720
3 639 720 640
3 640 720 641
3 640 641 561
