ply 
format ascii 1.0 
comment this is a surface 
element vertex 801 
property float x 
property float y 
property float z 
element face 1482 
property list uchar int vertex_index 
end_header 
198.153250 215.965250 -85.680000
200.770000 237.330000 -85.680000
199.310000 237.480000 -85.680000
197.860000 237.240000 -85.680000
196.490000 236.690000 -85.680000
195.120000 236.160000 -85.680000
193.740000 235.640000 -85.680000
192.520000 234.810000 -85.680000
191.340000 233.930000 -85.680000
190.100000 233.140000 -85.680000
188.960000 232.220000 -85.680000
188.430000 230.840000 -85.680000
187.890000 229.470000 -85.680000
187.420000 228.070000 -85.680000
186.960000 226.680000 -85.680000
186.490000 225.280000 -85.680000
186.040000 223.880000 -85.680000
185.610000 222.480000 -85.680000
185.610000 221.010000 -85.680000
185.580000 219.540000 -85.680000
185.230000 218.100000 -85.680000
184.980000 216.650000 -85.680000
184.840000 215.190000 -85.680000
184.820000 213.710000 -85.680000
184.820000 212.240000 -85.680000
184.820000 210.770000 -85.680000
184.820000 209.300000 -85.680000
184.820000 207.820000 -85.680000
184.830000 206.350000 -85.680000
185.090000 204.900000 -85.680000
185.090000 203.430000 -85.680000
185.550000 202.170000 -85.680000
186.600000 201.060000 -85.680000
187.600000 199.980000 -85.680000
188.800000 199.130000 -85.680000
190.090000 198.430000 -85.680000
191.470000 197.870000 -85.680000
192.640000 197.040000 -85.680000
193.780000 196.040000 -85.680000
195.170000 195.760000 -85.680000
196.610000 195.450000 -85.680000
198.060000 195.230000 -85.680000
199.540000 195.210000 -85.680000
201.010000 195.210000 -85.680000
202.470000 195.060000 -85.680000
203.940000 194.950000 -85.680000
205.430000 195.000000 -85.680000
206.870000 195.510000 -85.680000
207.240000 196.800000 -85.680000
207.480000 198.280000 -85.680000
207.810000 199.740000 -85.680000
208.560000 200.960000 -85.680000
208.910000 202.330000 -85.680000
209.290000 203.770000 -85.680000
210.090000 205.000000 -85.680000
210.610000 206.370000 -85.680000
210.790000 207.830000 -85.680000
210.930000 209.290000 -85.680000
210.940000 210.770000 -85.680000
210.940000 212.240000 -85.680000
210.940000 213.710000 -85.680000
210.940000 215.180000 -85.680000
210.940000 216.650000 -85.680000
210.880000 218.130000 -85.680000
210.700000 219.590000 -85.680000
210.240000 220.980000 -85.680000
209.950000 222.430000 -85.680000
209.430000 223.800000 -85.680000
208.680000 225.060000 -85.680000
208.110000 226.420000 -85.680000
207.310000 227.690000 -85.680000
207.260000 229.140000 -85.680000
206.870000 230.550000 -85.680000
206.570000 232.000000 -85.680000
206.060000 233.370000 -85.680000
205.500000 234.740000 -85.680000
204.790000 236.030000 -85.680000
203.690000 237.010000 -85.680000
202.240000 237.250000 -85.680000
200.770000 237.330000 -85.680000
200.770000 237.330000 -85.680000
200.580000 239.810000 -76.160000
200.580000 239.810000 -76.160000
198.500000 239.990000 -76.160000
196.460000 240.060000 -76.160000
194.450000 239.920000 -76.160000
192.420000 239.530000 -76.160000
190.410000 238.970000 -76.160000
188.460000 238.280000 -76.160000
186.600000 237.550000 -76.160000
184.850000 236.690000 -76.160000
183.160000 235.530000 -76.160000
181.560000 234.180000 -76.160000
180.050000 232.760000 -76.160000
178.650000 231.350000 -76.160000
177.300000 229.860000 -76.160000
176.020000 228.300000 -76.160000
174.810000 226.650000 -76.160000
173.670000 224.920000 -76.160000
172.620000 223.120000 -76.160000
172.620000 223.120000 -76.160000
172.410000 221.070000 -76.160000
172.290000 219.030000 -76.160000
172.230000 217.000000 -76.160000
172.220000 214.990000 -76.160000
172.250000 212.990000 -76.160000
172.560000 210.980000 -76.160000
173.100000 208.990000 -76.160000
173.770000 207.040000 -76.160000
174.450000 205.130000 -76.160000
175.160000 203.160000 -76.160000
175.990000 201.110000 -76.160000
176.940000 199.120000 -76.160000
178.000000 197.340000 -76.160000
179.180000 195.930000 -76.160000
180.540000 194.900000 -76.160000
182.270000 193.950000 -76.160000
184.250000 193.110000 -76.160000
186.360000 192.460000 -76.160000
188.450000 192.110000 -76.160000
190.450000 192.080000 -76.160000
192.460000 192.150000 -76.160000
194.500000 192.260000 -76.160000
196.550000 192.410000 -76.160000
198.590000 192.580000 -76.160000
200.620000 192.770000 -76.160000
202.740000 192.990000 -76.160000
204.920000 193.280000 -76.160000
207.100000 193.620000 -76.160000
209.220000 194.030000 -76.160000
211.230000 194.500000 -76.160000
213.080000 195.050000 -76.160000
214.700000 195.680000 -76.160000
216.100000 196.520000 -76.160000
217.450000 197.910000 -76.160000
218.700000 199.710000 -76.160000
219.780000 201.710000 -76.160000
220.630000 203.750000 -76.160000
221.190000 205.640000 -76.160000
221.670000 207.560000 -76.160000
222.110000 209.550000 -76.160000
222.490000 211.590000 -76.160000
222.810000 213.650000 -76.160000
223.050000 215.710000 -76.160000
223.200000 217.750000 -76.160000
223.220000 219.740000 -76.160000
222.950000 221.790000 -76.160000
222.390000 223.860000 -76.160000
221.630000 225.840000 -76.160000
220.790000 227.640000 -76.160000
219.900000 229.210000 -76.160000
218.750000 230.780000 -76.160000
217.360000 232.320000 -76.160000
215.770000 233.810000 -76.160000
214.030000 235.190000 -76.160000
212.190000 236.430000 -76.160000
210.300000 237.480000 -76.160000
208.400000 238.300000 -76.160000
206.540000 238.840000 -76.160000
204.650000 239.210000 -76.160000
202.650000 239.540000 -76.160000
200.550000 245.760000 -66.640000
200.550000 245.760000 -66.640000
197.890000 245.880000 -66.640000
195.220000 245.980000 -66.640000
192.600000 246.050000 -66.640000
190.080000 246.090000 -66.640000
187.700000 246.020000 -66.640000
185.380000 245.300000 -66.640000
183.110000 243.990000 -66.640000
180.910000 242.310000 -66.640000
178.810000 240.440000 -66.640000
176.830000 238.610000 -66.640000
174.990000 236.880000 -66.640000
173.270000 234.990000 -66.640000
171.650000 232.930000 -66.640000
170.150000 230.770000 -66.640000
170.150000 230.770000 -66.640000
168.940000 228.420000 -66.640000
167.840000 226.040000 -66.640000
166.850000 223.630000 -66.640000
166.020000 221.190000 -66.640000
165.360000 218.730000 -66.640000
164.880000 216.230000 -66.640000
164.440000 213.650000 -66.640000
164.070000 211.040000 -66.640000
163.800000 208.450000 -66.640000
163.690000 205.950000 -66.640000
164.010000 203.490000 -66.640000
164.940000 201.010000 -66.640000
166.280000 198.620000 -66.640000
167.810000 196.390000 -66.640000
169.350000 194.410000 -66.640000
171.110000 192.540000 -66.640000
173.200000 190.820000 -66.640000
175.440000 189.450000 -66.640000
177.720000 188.530000 -66.640000
180.150000 187.710000 -66.640000
182.700000 187.000000 -66.640000
185.300000 186.480000 -66.640000
187.900000 186.220000 -66.640000
190.460000 186.210000 -66.640000
193.040000 186.230000 -66.640000
195.640000 186.260000 -66.640000
198.240000 186.310000 -66.640000
200.810000 186.360000 -66.640000
203.370000 186.460000 -66.640000
205.940000 186.820000 -66.640000
208.490000 187.430000 -66.640000
211.000000 188.200000 -66.640000
213.410000 189.050000 -66.640000
215.780000 190.000000 -66.640000
218.180000 191.220000 -66.640000
220.500000 192.650000 -66.640000
222.580000 194.260000 -66.640000
224.300000 195.980000 -66.640000
225.760000 197.930000 -66.640000
227.150000 200.220000 -66.640000
228.300000 202.690000 -66.640000
229.050000 205.220000 -66.640000
229.340000 207.700000 -66.640000
229.530000 210.260000 -66.640000
229.680000 212.880000 -66.640000
229.780000 215.500000 -66.640000
229.830000 218.080000 -66.640000
229.680000 220.600000 -66.640000
229.040000 223.120000 -66.640000
228.070000 225.590000 -66.640000
226.960000 227.980000 -66.640000
225.850000 230.280000 -66.640000
224.560000 232.600000 -66.640000
223.060000 234.830000 -66.640000
221.400000 236.830000 -66.640000
219.630000 238.460000 -66.640000
217.640000 240.000000 -66.640000
215.440000 241.500000 -66.640000
213.080000 242.880000 -66.640000
210.620000 244.040000 -66.640000
208.120000 244.920000 -66.640000
205.630000 245.430000 -66.640000
203.150000 245.610000 -66.640000
199.690000 251.740000 -57.120000
199.690000 251.740000 -57.120000
196.660000 251.170000 -57.120000
193.690000 250.470000 -57.120000
190.830000 249.700000 -57.120000
188.040000 248.630000 -57.120000
185.310000 247.310000 -57.120000
182.620000 245.830000 -57.120000
179.980000 244.280000 -57.120000
177.360000 242.760000 -57.120000
174.710000 241.230000 -57.120000
172.150000 239.580000 -57.120000
169.850000 237.730000 -57.120000
167.750000 235.620000 -57.120000
165.770000 233.280000 -57.120000
163.940000 230.810000 -57.120000
162.270000 228.260000 -57.120000
160.760000 225.700000 -57.120000
159.380000 223.030000 -57.120000
158.130000 220.260000 -57.120000
157.030000 217.400000 -57.120000
157.030000 217.400000 -57.120000
156.540000 214.310000 -57.120000
156.300000 211.280000 -57.120000
156.230000 208.300000 -57.120000
156.270000 205.390000 -57.120000
156.840000 202.420000 -57.120000
157.970000 199.450000 -57.120000
159.460000 196.610000 -57.120000
161.140000 194.010000 -57.120000
162.830000 191.770000 -57.120000
164.870000 189.760000 -57.120000
167.330000 187.890000 -57.120000
170.040000 186.220000 -57.120000
172.810000 184.770000 -57.120000
175.520000 183.520000 -57.120000
178.320000 182.250000 -57.120000
181.200000 181.100000 -57.120000
184.140000 180.250000 -57.120000
187.090000 179.900000 -57.120000
190.080000 179.970000 -57.120000
193.110000 180.190000 -57.120000
196.140000 180.500000 -57.120000
199.110000 180.870000 -57.120000
202.060000 181.490000 -57.120000
204.990000 182.350000 -57.120000
207.870000 183.380000 -57.120000
210.700000 184.510000 -57.120000
213.440000 185.670000 -57.120000
216.210000 186.960000 -57.120000
218.990000 188.410000 -57.120000
221.680000 190.010000 -57.120000
224.190000 191.770000 -57.120000
226.440000 193.650000 -57.120000
228.370000 195.710000 -57.120000
230.170000 198.130000 -57.120000
231.800000 200.810000 -57.120000
233.140000 203.610000 -57.120000
234.150000 206.400000 -57.120000
235.060000 209.290000 -57.120000
235.810000 212.280000 -57.120000
236.240000 215.280000 -57.120000
236.210000 218.270000 -57.120000
235.880000 221.310000 -57.120000
235.380000 224.300000 -57.120000
234.740000 227.220000 -57.120000
233.680000 230.120000 -57.120000
232.300000 232.840000 -57.120000
230.660000 235.220000 -57.120000
228.470000 237.330000 -57.120000
226.110000 239.330000 -57.120000
223.850000 241.370000 -57.120000
221.580000 243.450000 -57.120000
219.240000 245.380000 -57.120000
216.780000 247.010000 -57.120000
214.150000 248.480000 -57.120000
211.370000 249.950000 -57.120000
208.500000 251.170000 -57.120000
205.590000 251.940000 -57.120000
202.680000 252.060000 -57.120000
198.320000 255.070000 -47.600000
194.920000 254.980000 -47.600000
191.510000 254.800000 -47.600000
188.250000 254.560000 -47.600000
185.220000 253.870000 -47.600000
182.370000 252.090000 -47.600000
179.580000 249.900000 -47.600000
176.770000 248.020000 -47.600000
173.950000 246.220000 -47.600000
171.200000 244.340000 -47.600000
168.520000 242.340000 -47.600000
165.920000 240.210000 -47.600000
163.530000 237.930000 -47.600000
161.300000 235.470000 -47.600000
159.210000 232.850000 -47.600000
157.280000 230.070000 -47.600000
157.280000 230.070000 -47.600000
156.220000 226.880000 -47.600000
155.290000 223.660000 -47.600000
154.540000 220.420000 -47.600000
154.010000 217.140000 -47.600000
153.520000 213.820000 -47.600000
153.130000 210.470000 -47.600000
152.890000 207.150000 -47.600000
152.910000 203.840000 -47.600000
153.450000 200.470000 -47.600000
154.400000 197.160000 -47.600000
155.570000 194.070000 -47.600000
157.070000 191.310000 -47.600000
159.310000 188.750000 -47.600000
161.870000 186.400000 -47.600000
164.410000 184.240000 -47.600000
167.110000 182.240000 -47.600000
169.950000 180.440000 -47.600000
172.870000 178.820000 -47.600000
175.910000 177.200000 -47.600000
179.030000 175.980000 -47.600000
182.240000 175.510000 -47.600000
185.570000 175.260000 -47.600000
188.960000 175.090000 -47.600000
192.290000 175.030000 -47.600000
195.510000 175.430000 -47.600000
198.680000 176.540000 -47.600000
201.810000 177.950000 -47.600000
204.940000 179.240000 -47.600000
208.060000 180.440000 -47.600000
211.150000 181.690000 -47.600000
214.230000 183.000000 -47.600000
217.320000 184.330000 -47.600000
220.490000 185.640000 -47.600000
223.550000 187.070000 -47.600000
226.270000 188.760000 -47.600000
228.660000 190.930000 -47.600000
230.860000 193.560000 -47.600000
232.810000 196.380000 -47.600000
234.550000 199.210000 -47.600000
236.300000 202.140000 -47.600000
237.880000 205.200000 -47.600000
239.070000 208.330000 -47.600000
239.640000 211.520000 -47.600000
239.940000 214.860000 -47.600000
240.120000 218.240000 -47.600000
240.020000 221.500000 -47.600000
239.010000 224.690000 -47.600000
237.490000 227.790000 -47.600000
235.960000 230.750000 -47.600000
234.240000 233.630000 -47.600000
232.280000 236.380000 -47.600000
230.180000 238.980000 -47.600000
227.930000 241.400000 -47.600000
225.450000 243.670000 -47.600000
222.860000 245.810000 -47.600000
220.220000 247.920000 -47.600000
217.470000 249.910000 -47.600000
214.580000 251.390000 -47.600000
211.500000 252.570000 -47.600000
208.280000 253.650000 -47.600000
204.970000 254.500000 -47.600000
201.640000 255.000000 -47.600000
201.640000 255.000000 -47.600000
197.770000 256.030000 -38.080000
194.250000 256.100000 -38.080000
190.810000 256.130000 -38.080000
187.450000 256.130000 -38.080000
184.170000 255.700000 -38.080000
180.970000 254.140000 -38.080000
177.910000 252.220000 -38.080000
175.060000 250.320000 -38.080000
172.350000 248.110000 -38.080000
169.710000 245.810000 -38.080000
167.030000 243.570000 -38.080000
164.400000 241.280000 -38.080000
162.000000 238.820000 -38.080000
159.810000 236.120000 -38.080000
157.800000 233.260000 -38.080000
155.980000 230.310000 -38.080000
154.280000 227.260000 -38.080000
152.780000 224.110000 -38.080000
151.590000 220.870000 -38.080000
150.470000 217.540000 -38.080000
149.640000 214.130000 -38.080000
149.440000 210.700000 -38.080000
149.440000 207.170000 -38.080000
149.440000 203.660000 -38.080000
149.520000 200.340000 -38.080000
150.740000 197.180000 -38.080000
152.800000 194.140000 -38.080000
154.860000 191.240000 -38.080000
156.890000 188.390000 -38.080000
159.110000 185.640000 -38.080000
161.500000 183.120000 -38.080000
164.060000 180.860000 -38.080000
166.860000 178.560000 -38.080000
169.840000 176.500000 -38.080000
172.960000 175.040000 -38.080000
176.180000 174.390000 -38.080000
179.610000 173.950000 -38.080000
183.150000 173.660000 -38.080000
186.650000 173.560000 -38.080000
190.130000 173.730000 -38.080000
193.620000 174.120000 -38.080000
197.080000 174.680000 -38.080000
200.490000 175.360000 -38.080000
203.810000 176.110000 -38.080000
207.030000 177.240000 -38.080000
210.180000 178.760000 -38.080000
213.290000 180.440000 -38.080000
216.390000 182.090000 -38.080000
219.570000 183.620000 -38.080000
222.810000 185.160000 -38.080000
225.900000 186.830000 -38.080000
228.640000 188.720000 -38.080000
231.210000 190.960000 -38.080000
233.910000 193.570000 -38.080000
236.390000 196.460000 -38.080000
238.340000 199.530000 -38.080000
239.400000 202.680000 -38.080000
239.470000 205.920000 -38.080000
239.330000 209.430000 -38.080000
239.130000 212.970000 -38.080000
238.820000 216.450000 -38.080000
238.320000 219.910000 -38.080000
237.670000 223.280000 -38.080000
236.640000 226.550000 -38.080000
235.180000 229.750000 -38.080000
233.490000 232.850000 -38.080000
231.760000 235.840000 -38.080000
229.840000 238.750000 -38.080000
227.730000 241.530000 -38.080000
225.500000 244.180000 -38.080000
223.110000 246.740000 -38.080000
220.550000 249.110000 -38.080000
217.810000 251.210000 -38.080000
214.840000 253.230000 -38.080000
211.700000 254.620000 -38.080000
208.420000 255.260000 -38.080000
204.980000 255.720000 -38.080000
201.390000 255.900000 -38.080000
201.390000 255.900000 -38.080000
201.390000 255.900000 -38.080000
198.510000 256.930000 -28.560000
198.510000 256.930000 -28.560000
195.080000 257.030000 -28.560000
191.580000 256.750000 -28.560000
188.060000 256.170000 -28.560000
184.620000 255.380000 -28.560000
181.350000 254.480000 -28.560000
178.240000 253.040000 -28.560000
175.270000 251.040000 -28.560000
172.450000 248.890000 -28.560000
169.800000 246.650000 -28.560000
167.300000 244.190000 -28.560000
164.910000 241.620000 -28.560000
162.610000 239.010000 -28.560000
160.360000 236.310000 -28.560000
158.220000 233.530000 -28.560000
156.220000 230.680000 -28.560000
154.240000 227.770000 -28.560000
152.160000 224.780000 -28.560000
150.310000 221.720000 -28.560000
149.010000 218.550000 -28.560000
148.460000 215.250000 -28.560000
148.090000 211.750000 -28.560000
147.910000 208.220000 -28.560000
148.030000 204.730000 -28.560000
148.530000 201.190000 -28.560000
149.310000 197.700000 -28.560000
150.270000 194.380000 -28.560000
151.430000 191.270000 -28.560000
153.260000 188.220000 -28.560000
155.570000 185.370000 -28.560000
158.080000 182.920000 -28.560000
160.750000 180.850000 -28.560000
163.810000 178.960000 -28.560000
167.060000 177.460000 -28.560000
170.340000 176.510000 -28.560000
173.740000 175.740000 -28.560000
177.230000 175.150000 -28.560000
180.740000 174.860000 -28.560000
184.220000 174.870000 -28.560000
187.730000 174.920000 -28.560000
191.220000 175.000000 -28.560000
194.670000 175.190000 -28.560000
198.100000 175.860000 -28.560000
201.490000 176.840000 -28.560000
204.840000 177.880000 -28.560000
208.150000 178.970000 -28.560000
211.420000 180.240000 -28.560000
214.630000 181.610000 -28.560000
217.820000 183.050000 -28.560000
220.980000 184.600000 -28.560000
224.040000 186.300000 -28.560000
226.920000 188.200000 -28.560000
229.820000 190.320000 -28.560000
232.560000 192.680000 -28.560000
234.880000 195.250000 -28.560000
236.630000 198.050000 -28.560000
238.270000 201.230000 -28.560000
239.570000 204.630000 -28.560000
240.200000 208.070000 -28.560000
240.170000 211.530000 -28.560000
240.020000 215.100000 -28.560000
239.780000 218.630000 -28.560000
239.450000 221.960000 -28.560000
238.350000 225.090000 -28.560000
236.420000 228.100000 -28.560000
234.160000 231.010000 -28.560000
232.050000 233.880000 -28.560000
230.000000 236.710000 -28.560000
227.830000 239.470000 -28.560000
225.540000 242.100000 -28.560000
223.130000 244.640000 -28.560000
220.580000 247.050000 -28.560000
217.870000 249.190000 -28.560000
214.990000 251.120000 -28.560000
211.960000 252.870000 -28.560000
208.760000 254.410000 -28.560000
208.760000 254.410000 -28.560000
205.350000 255.580000 -28.560000
201.940000 256.440000 -28.560000
197.150000 257.180000 -19.040000
197.150000 257.180000 -19.040000
193.530000 256.760000 -19.040000
189.920000 256.290000 -19.040000
186.250000 255.790000 -19.040000
182.570000 255.190000 -19.040000
179.010000 254.450000 -19.040000
175.670000 253.490000 -19.040000
172.450000 251.880000 -19.040000
169.370000 249.690000 -19.040000
166.540000 247.230000 -19.040000
164.040000 244.700000 -19.040000
161.870000 241.810000 -19.040000
159.860000 238.700000 -19.040000
157.820000 235.620000 -19.040000
155.530000 232.720000 -19.040000
153.050000 229.910000 -19.040000
150.750000 227.040000 -19.040000
148.960000 224.000000 -19.040000
147.610000 220.690000 -19.040000
146.400000 217.150000 -19.040000
145.640000 213.530000 -19.040000
145.580000 209.940000 -19.040000
145.990000 206.300000 -19.040000
146.590000 202.680000 -19.040000
147.250000 199.070000 -19.040000
148.110000 195.410000 -19.040000
149.180000 191.880000 -19.040000
150.460000 188.630000 -19.040000
152.280000 185.650000 -19.040000
154.720000 182.850000 -19.040000
157.470000 180.240000 -19.040000
160.240000 177.810000 -19.040000
163.130000 175.360000 -19.040000
166.290000 173.960000 -19.040000
169.710000 173.160000 -19.040000
173.340000 172.500000 -19.040000
177.080000 172.010000 -19.040000
180.810000 171.690000 -19.040000
184.450000 171.570000 -19.040000
187.980000 171.870000 -19.040000
191.500000 172.720000 -19.040000
194.990000 173.930000 -19.040000
198.460000 175.340000 -19.040000
201.900000 176.760000 -19.040000
205.320000 178.050000 -19.040000
208.740000 179.350000 -19.040000
212.150000 180.720000 -19.040000
215.510000 182.190000 -19.040000
218.770000 183.780000 -19.040000
221.920000 185.520000 -19.040000
224.980000 187.500000 -19.040000
227.940000 189.670000 -19.040000
230.820000 191.940000 -19.040000
233.610000 194.270000 -19.040000
236.320000 196.730000 -19.040000
238.900000 199.310000 -19.040000
241.680000 201.990000 -19.040000
243.370000 204.920000 -19.040000
242.790000 208.360000 -19.040000
241.690000 212.020000 -19.040000
240.610000 215.550000 -19.040000
239.440000 219.010000 -19.040000
238.140000 222.430000 -19.040000
236.730000 225.790000 -19.040000
235.210000 229.080000 -19.040000
233.520000 232.330000 -19.040000
231.690000 235.510000 -19.040000
229.770000 238.580000 -19.040000
227.740000 241.660000 -19.040000
225.590000 244.690000 -19.040000
223.270000 247.540000 -19.040000
220.760000 250.060000 -19.040000
217.900000 252.290000 -19.040000
214.720000 254.200000 -19.040000
211.450000 255.670000 -19.040000
208.020000 256.900000 -19.040000
204.430000 257.810000 -19.040000
204.430000 257.810000 -19.040000
200.780000 257.530000 -19.040000
195.680000 254.570000 -9.520000
195.680000 254.570000 -9.520000
192.340000 254.570000 -9.520000
188.940000 254.120000 -9.520000
185.560000 253.320000 -9.520000
182.260000 252.320000 -9.520000
179.140000 251.200000 -9.520000
176.200000 249.530000 -9.520000
173.340000 247.560000 -9.520000
170.450000 245.650000 -9.520000
167.420000 243.980000 -9.520000
164.330000 242.350000 -9.520000
161.400000 240.610000 -9.520000
158.860000 238.570000 -9.520000
156.540000 236.110000 -9.520000
154.410000 233.320000 -9.520000
152.570000 230.350000 -9.520000
151.090000 227.360000 -9.520000
149.660000 224.220000 -9.520000
148.360000 220.950000 -9.520000
147.450000 217.620000 -9.520000
147.140000 214.280000 -9.520000
147.250000 210.880000 -9.520000
147.490000 207.440000 -9.520000
147.820000 204.050000 -9.520000
148.410000 200.700000 -9.520000
149.470000 197.340000 -9.520000
150.830000 194.140000 -9.520000
152.380000 191.280000 -9.520000
154.500000 188.700000 -9.520000
157.120000 186.340000 -9.520000
159.850000 184.180000 -9.520000
162.540000 182.000000 -9.520000
165.340000 179.650000 -9.520000
168.240000 177.410000 -9.520000
171.230000 175.550000 -9.520000
174.290000 174.350000 -9.520000
177.420000 174.050000 -9.520000
180.720000 174.130000 -9.520000
184.150000 174.330000 -9.520000
187.650000 174.610000 -9.520000
191.140000 174.960000 -9.520000
194.530000 175.370000 -9.520000
197.780000 175.880000 -9.520000
201.010000 176.760000 -9.520000
204.220000 177.970000 -9.520000
207.380000 179.450000 -9.520000
210.480000 181.120000 -9.520000
213.500000 182.920000 -9.520000
216.440000 184.770000 -9.520000
219.270000 186.590000 -9.520000
222.010000 188.540000 -9.520000
224.670000 190.720000 -9.520000
227.220000 193.070000 -9.520000
229.640000 195.500000 -9.520000
232.020000 197.990000 -9.520000
234.730000 200.570000 -9.520000
237.290000 203.280000 -9.520000
239.120000 206.100000 -9.520000
239.670000 209.050000 -9.520000
239.160000 212.240000 -9.520000
238.120000 215.610000 -9.520000
236.910000 218.970000 -9.520000
235.780000 222.200000 -9.520000
234.520000 225.390000 -9.520000
233.110000 228.520000 -9.520000
231.550000 231.520000 -9.520000
229.780000 234.420000 -9.520000
227.780000 237.220000 -9.520000
225.620000 239.900000 -9.520000
223.330000 242.390000 -9.520000
220.830000 244.720000 -9.520000
218.140000 246.840000 -9.520000
215.310000 248.710000 -9.520000
212.300000 250.350000 -9.520000
212.300000 250.350000 -9.520000
208.970000 251.810000 -9.520000
205.650000 252.940000 -9.520000
202.330000 253.760000 -9.520000
199.000000 254.300000 -9.520000
195.950000 255.930000 0.000000
195.950000 255.930000 0.000000
192.330000 255.460000 0.000000
188.720000 254.910000 0.000000
185.150000 254.330000 0.000000
181.570000 253.680000 0.000000
177.960000 252.870000 0.000000
174.450000 251.870000 0.000000
171.180000 250.680000 0.000000
168.140000 249.090000 0.000000
165.240000 246.940000 0.000000
162.480000 244.410000 0.000000
159.900000 241.710000 0.000000
157.520000 239.030000 0.000000
155.290000 236.240000 0.000000
153.190000 233.260000 0.000000
151.270000 230.160000 0.000000
149.550000 226.990000 0.000000
147.820000 223.770000 0.000000
146.160000 220.420000 0.000000
145.240000 217.000000 0.000000
145.270000 213.470000 0.000000
145.410000 209.830000 0.000000
145.430000 206.220000 0.000000
145.360000 202.620000 0.000000
145.200000 199.020000 0.000000
145.200000 199.020000 0.000000
146.970000 195.840000 0.000000
148.910000 192.800000 0.000000
150.990000 189.890000 0.000000
153.250000 187.080000 0.000000
155.690000 184.380000 0.000000
158.290000 181.900000 0.000000
161.010000 179.460000 0.000000
163.890000 176.900000 0.000000
166.900000 174.560000 0.000000
170.030000 172.790000 0.000000
173.280000 171.960000 0.000000
176.760000 171.710000 0.000000
180.440000 171.550000 0.000000
184.080000 171.500000 0.000000
187.650000 171.890000 0.000000
191.200000 172.740000 0.000000
194.670000 173.730000 0.000000
198.060000 174.830000 0.000000
201.380000 176.200000 0.000000
204.660000 177.760000 0.000000
207.910000 179.380000 0.000000
211.170000 180.950000 0.000000
214.510000 182.420000 0.000000
217.860000 183.910000 0.000000
221.010000 185.580000 0.000000
223.790000 187.660000 0.000000
226.310000 190.270000 0.000000
228.710000 193.050000 0.000000
231.230000 195.710000 0.000000
233.880000 198.370000 0.000000
236.170000 201.150000 0.000000
237.650000 204.180000 0.000000
238.850000 207.530000 0.000000
239.890000 211.110000 0.000000
240.620000 214.750000 0.000000
240.940000 218.330000 0.000000
240.670000 221.850000 0.000000
239.790000 225.390000 0.000000
238.520000 228.890000 0.000000
237.090000 232.240000 0.000000
235.570000 235.420000 0.000000
233.630000 238.540000 0.000000
231.360000 241.470000 0.000000
228.880000 244.030000 0.000000
226.140000 246.200000 0.000000
223.030000 248.120000 0.000000
219.780000 249.840000 0.000000
216.550000 251.470000 0.000000
213.270000 253.250000 0.000000
209.920000 254.880000 0.000000
206.510000 256.050000 0.000000
203.070000 256.420000 0.000000
199.550000 256.270000 0.000000
3 0 79 2
3 0 2 3
3 0 3 4
3 0 4 5
3 0 5 6
3 0 6 7
3 0 7 8
3 0 8 9
3 0 9 10
3 0 10 11
3 0 11 12
3 0 12 13
3 0 13 14
3 0 14 15
3 0 15 16
3 0 16 17
3 0 17 18
3 0 18 19
3 0 19 20
3 0 20 21
3 0 21 22
3 0 22 23
3 0 23 24
3 0 24 25
3 0 25 26
3 0 26 27
3 0 27 28
3 0 28 29
3 0 29 30
3 0 30 31
3 0 31 32
3 0 32 33
3 0 33 34
3 0 34 35
3 0 35 36
3 0 36 37
3 0 37 38
3 0 38 39
3 0 39 40
3 0 40 41
3 0 41 42
3 0 42 43
3 0 43 44
3 0 44 45
3 0 45 46
3 0 46 47
3 0 47 48
3 0 48 49
3 0 49 50
3 0 50 51
3 0 51 52
3 0 52 53
3 0 53 54
3 0 54 55
3 0 55 56
3 0 56 57
3 0 57 58
3 0 58 59
3 0 59 60
3 0 60 61
3 0 61 62
3 0 62 63
3 0 63 64
3 0 64 65
3 0 65 66
3 0 66 67
3 0 67 68
3 0 68 69
3 0 69 70
3 0 70 71
3 0 71 72
3 0 72 73
3 0 73 74
3 0 74 75
3 0 75 76
3 0 76 77
3 0 77 78
3 0 78 79
3 79 81 2
3 2 81 83
3 2 83 3
3 3 83 84
3 3 84 4
3 4 84 85
3 4 85 5
3 5 85 86
3 5 86 6
3 6 86 87
3 6 87 7
3 7 87 88
3 7 88 8
3 8 88 89
3 8 89 9
3 9 89 90
3 9 90 10
3 10 90 91
3 10 91 11
3 11 91 92
3 11 92 12
3 12 92 93
3 12 93 13
3 13 93 94
3 13 94 14
3 14 94 95
3 14 95 15
3 15 95 96
3 15 96 16
3 16 96 97
3 16 97 17
3 17 97 98
3 17 98 18
3 18 98 99
3 18 99 19
3 19 99 20
3 20 99 101
3 20 101 21
3 21 101 102
3 21 102 22
3 22 102 103
3 22 103 23
3 23 103 104
3 23 104 24
3 24 104 105
3 24 105 25
3 25 105 106
3 25 106 26
3 26 106 107
3 26 107 27
3 27 107 108
3 27 108 28
3 28 108 109
3 28 109 29
3 29 109 110
3 29 110 30
3 30 110 111
3 30 111 31
3 31 111 112
3 31 112 32
3 32 112 113
3 32 113 33
3 33 113 114
3 33 114 34
3 34 114 115
3 34 115 35
3 35 115 116
3 35 116 36
3 36 116 117
3 36 117 37
3 37 117 118
3 37 118 38
3 38 118 119
3 38 119 39
3 39 119 120
3 39 120 40
3 40 120 121
3 40 121 41
3 41 121 122
3 41 122 42
3 42 122 123
3 42 123 43
3 43 123 124
3 43 124 44
3 44 124 125
3 44 125 45
3 45 125 126
3 45 126 46
3 46 126 127
3 46 127 47
3 47 127 128
3 47 128 48
3 48 128 129
3 48 129 49
3 49 129 130
3 49 130 50
3 50 130 131
3 50 131 51
3 51 131 132
3 51 132 52
3 52 132 133
3 52 133 53
3 53 133 134
3 53 134 54
3 54 134 135
3 54 135 55
3 55 135 136
3 55 136 56
3 56 136 137
3 56 137 57
3 57 137 138
3 57 138 58
3 58 138 139
3 58 139 59
3 59 139 140
3 59 140 60
3 60 140 141
3 60 141 61
3 61 141 142
3 61 142 62
3 62 142 143
3 62 143 63
3 63 143 144
3 63 144 64
3 64 144 145
3 64 145 65
3 65 145 146
3 65 146 66
3 66 146 147
3 66 147 67
3 67 147 148
3 67 148 68
3 68 148 149
3 68 149 69
3 69 149 150
3 69 150 70
3 70 150 151
3 70 151 71
3 71 151 152
3 71 152 72
3 72 152 153
3 72 153 73
3 73 153 154
3 73 154 74
3 74 154 155
3 74 155 75
3 75 155 156
3 75 156 76
3 76 156 157
3 76 157 77
3 77 157 158
3 77 158 78
3 78 158 159
3 78 159 79
3 79 159 160
3 79 160 81
3 81 161 163
3 81 163 83
3 83 163 164
3 83 164 84
3 84 164 165
3 84 165 85
3 85 165 166
3 85 166 86
3 86 166 167
3 86 167 87
3 87 167 168
3 87 168 88
3 88 168 169
3 88 169 89
3 89 169 170
3 89 170 90
3 90 170 171
3 90 171 91
3 91 171 172
3 91 172 92
3 92 172 173
3 92 173 93
3 93 173 174
3 93 174 94
3 94 174 175
3 94 175 95
3 95 175 176
3 95 176 96
3 96 176 97
3 97 176 178
3 97 178 98
3 98 178 179
3 98 179 99
3 99 179 180
3 99 180 181
3 99 181 101
3 101 181 182
3 101 182 102
3 102 182 183
3 102 183 103
3 103 183 184
3 103 184 104
3 104 184 185
3 104 185 105
3 105 185 186
3 105 186 106
3 106 186 187
3 106 187 107
3 107 187 188
3 107 188 108
3 108 188 189
3 108 189 109
3 109 189 190
3 109 190 110
3 110 190 191
3 110 191 111
3 111 191 192
3 111 192 112
3 112 192 193
3 112 193 113
3 113 193 194
3 113 194 114
3 114 194 195
3 114 195 115
3 115 195 196
3 115 196 116
3 116 196 197
3 116 197 117
3 117 197 198
3 117 198 118
3 118 198 199
3 118 199 119
3 119 199 200
3 119 200 120
3 120 200 201
3 120 201 121
3 121 201 202
3 121 202 122
3 122 202 203
3 122 203 123
3 123 203 204
3 123 204 124
3 124 204 205
3 124 205 125
3 125 205 206
3 125 206 126
3 126 206 207
3 126 207 127
3 127 207 208
3 127 208 128
3 128 208 209
3 128 209 129
3 129 209 210
3 129 210 130
3 130 210 211
3 130 211 131
3 131 211 212
3 131 212 132
3 132 212 213
3 132 213 133
3 133 213 214
3 133 214 134
3 134 214 215
3 134 215 135
3 135 215 216
3 135 216 136
3 136 216 217
3 136 217 137
3 137 217 218
3 137 218 138
3 138 218 219
3 138 219 139
3 139 219 220
3 139 220 140
3 140 220 221
3 140 221 141
3 141 221 222
3 141 222 142
3 142 222 223
3 142 223 143
3 143 223 224
3 143 224 144
3 144 224 225
3 144 225 145
3 145 225 226
3 145 226 146
3 146 226 227
3 146 227 147
3 147 227 228
3 147 228 148
3 148 228 229
3 148 229 149
3 149 229 230
3 149 230 150
3 150 230 231
3 150 231 151
3 151 231 232
3 151 232 152
3 152 232 233
3 152 233 153
3 153 233 234
3 153 234 154
3 154 234 235
3 154 235 155
3 155 235 236
3 155 236 156
3 156 236 237
3 156 237 157
3 157 237 238
3 157 238 158
3 158 238 239
3 158 239 159
3 159 239 240
3 159 240 160
3 160 240 161
3 160 161 81
3 161 241 243
3 161 243 163
3 163 243 244
3 163 244 164
3 164 244 245
3 164 245 165
3 165 245 246
3 165 246 166
3 166 246 247
3 166 247 167
3 167 247 248
3 167 248 168
3 168 248 249
3 168 249 169
3 169 249 250
3 169 250 170
3 170 250 251
3 170 251 171
3 171 251 252
3 171 252 172
3 172 252 253
3 172 253 173
3 173 253 254
3 173 254 174
3 174 254 255
3 174 255 175
3 175 255 256
3 175 256 176
3 176 256 257
3 176 257 258
3 176 258 178
3 178 258 259
3 178 259 179
3 179 259 260
3 179 260 180
3 180 260 261
3 180 261 181
3 181 261 182
3 182 261 263
3 182 263 183
3 183 263 264
3 183 264 184
3 184 264 265
3 184 265 185
3 185 265 266
3 185 266 186
3 186 266 267
3 186 267 187
3 187 267 268
3 187 268 188
3 188 268 269
3 188 269 189
3 189 269 270
3 189 270 190
3 190 270 271
3 190 271 191
3 191 271 272
3 191 272 192
3 192 272 273
3 192 273 193
3 193 273 274
3 193 274 194
3 194 274 275
3 194 275 195
3 195 275 276
3 195 276 196
3 196 276 277
3 196 277 197
3 197 277 278
3 197 278 198
3 198 278 279
3 198 279 199
3 199 279 280
3 199 280 200
3 200 280 281
3 200 281 201
3 201 281 282
3 201 282 202
3 202 282 283
3 202 283 203
3 203 283 284
3 203 284 204
3 204 284 285
3 204 285 205
3 205 285 286
3 205 286 206
3 206 286 287
3 206 287 207
3 207 287 288
3 207 288 208
3 208 288 289
3 208 289 209
3 209 289 290
3 209 290 210
3 210 290 291
3 210 291 211
3 211 291 292
3 211 292 212
3 212 292 293
3 212 293 213
3 213 293 294
3 213 294 214
3 214 294 295
3 214 295 215
3 215 295 296
3 215 296 216
3 216 296 297
3 216 297 217
3 217 297 298
3 217 298 218
3 218 298 299
3 218 299 219
3 219 299 300
3 219 300 220
3 220 300 301
3 220 301 221
3 221 301 302
3 221 302 222
3 222 302 303
3 222 303 223
3 223 303 304
3 223 304 224
3 224 304 305
3 224 305 225
3 225 305 306
3 225 306 226
3 226 306 307
3 226 307 227
3 227 307 308
3 227 308 228
3 228 308 309
3 228 309 229
3 229 309 310
3 229 310 230
3 230 310 311
3 230 311 231
3 231 311 312
3 231 312 232
3 232 312 313
3 232 313 233
3 233 313 314
3 233 314 234
3 234 314 315
3 234 315 235
3 235 315 316
3 235 316 236
3 236 316 317
3 236 317 237
3 237 317 318
3 237 318 238
3 238 318 319
3 238 319 239
3 239 319 320
3 239 320 240
3 240 320 241
3 240 241 161
3 241 321 322
3 241 322 323
3 241 323 243
3 243 323 324
3 243 324 244
3 244 324 325
3 244 325 245
3 245 325 326
3 245 326 246
3 246 326 327
3 246 327 247
3 247 327 328
3 247 328 248
3 248 328 329
3 248 329 249
3 249 329 330
3 249 330 250
3 250 330 331
3 250 331 251
3 251 331 332
3 251 332 252
3 252 332 333
3 252 333 253
3 253 333 334
3 253 334 254
3 254 334 335
3 254 335 255
3 255 335 336
3 255 336 256
3 256 336 257
3 257 336 338
3 257 338 258
3 258 338 339
3 258 339 259
3 259 339 340
3 259 340 260
3 260 340 341
3 260 341 261
3 261 341 342
3 261 342 343
3 261 343 263
3 263 343 344
3 263 344 264
3 264 344 345
3 264 345 265
3 265 345 346
3 265 346 266
3 266 346 347
3 266 347 267
3 267 347 348
3 267 348 268
3 268 348 349
3 268 349 269
3 269 349 350
3 269 350 270
3 270 350 351
3 270 351 271
3 271 351 352
3 271 352 272
3 272 352 353
3 272 353 273
3 273 353 354
3 273 354 274
3 274 354 355
3 274 355 275
3 275 355 356
3 275 356 276
3 276 356 357
3 276 357 277
3 277 357 358
3 277 358 278
3 278 358 359
3 278 359 279
3 279 359 360
3 279 360 280
3 280 360 361
3 280 361 281
3 281 361 362
3 281 362 282
3 282 362 363
3 282 363 283
3 283 363 364
3 283 364 284
3 284 364 365
3 284 365 285
3 285 365 366
3 285 366 286
3 286 366 367
3 286 367 287
3 287 367 368
3 287 368 288
3 288 368 369
3 288 369 289
3 289 369 370
3 289 370 290
3 290 370 371
3 290 371 291
3 291 371 372
3 291 372 292
3 292 372 373
3 292 373 293
3 293 373 374
3 293 374 294
3 294 374 375
3 294 375 295
3 295 375 376
3 295 376 296
3 296 376 377
3 296 377 297
3 297 377 378
3 297 378 298
3 298 378 379
3 298 379 299
3 299 379 380
3 299 380 300
3 300 380 381
3 300 381 301
3 301 381 382
3 301 382 302
3 302 382 383
3 302 383 303
3 303 383 384
3 303 384 304
3 304 384 385
3 304 385 305
3 305 385 386
3 305 386 306
3 306 386 387
3 306 387 307
3 307 387 388
3 307 388 308
3 308 388 389
3 308 389 309
3 309 389 390
3 309 390 310
3 310 390 391
3 310 391 311
3 311 391 392
3 311 392 312
3 312 392 393
3 312 393 313
3 313 393 394
3 313 394 314
3 314 394 395
3 314 395 315
3 315 395 396
3 315 396 316
3 316 396 397
3 316 397 317
3 317 397 398
3 317 398 318
3 318 398 399
3 318 399 319
3 319 399 320
3 320 399 321
3 320 321 241
3 321 401 402
3 321 402 322
3 322 402 403
3 322 403 323
3 323 403 404
3 323 404 324
3 324 404 405
3 324 405 325
3 325 405 406
3 325 406 326
3 326 406 407
3 326 407 327
3 327 407 408
3 327 408 328
3 328 408 409
3 328 409 329
3 329 409 410
3 329 410 330
3 330 410 411
3 330 411 331
3 331 411 412
3 331 412 332
3 332 412 413
3 332 413 333
3 333 413 414
3 333 414 334
3 334 414 415
3 334 415 335
3 335 415 416
3 335 416 336
3 336 416 417
3 336 417 418
3 336 418 338
3 338 418 419
3 338 419 339
3 339 419 420
3 339 420 340
3 340 420 421
3 340 421 341
3 341 421 422
3 341 422 342
3 342 422 423
3 342 423 343
3 343 423 424
3 343 424 344
3 344 424 425
3 344 425 345
3 345 425 426
3 345 426 346
3 346 426 427
3 346 427 347
3 347 427 428
3 347 428 348
3 348 428 429
3 348 429 349
3 349 429 430
3 349 430 350
3 350 430 431
3 350 431 351
3 351 431 432
3 351 432 352
3 352 432 433
3 352 433 353
3 353 433 434
3 353 434 354
3 354 434 435
3 354 435 355
3 355 435 436
3 355 436 356
3 356 436 437
3 356 437 357
3 357 437 438
3 357 438 358
3 358 438 439
3 358 439 359
3 359 439 440
3 359 440 360
3 360 440 441
3 360 441 361
3 361 441 442
3 361 442 362
3 362 442 443
3 362 443 363
3 363 443 444
3 363 444 364
3 364 444 445
3 364 445 365
3 365 445 446
3 365 446 366
3 366 446 447
3 366 447 367
3 367 447 448
3 367 448 368
3 368 448 449
3 368 449 369
3 369 449 450
3 369 450 370
3 370 450 451
3 370 451 371
3 371 451 452
3 371 452 372
3 372 452 453
3 372 453 373
3 373 453 454
3 373 454 374
3 374 454 455
3 374 455 375
3 375 455 456
3 375 456 376
3 376 456 457
3 376 457 377
3 377 457 458
3 377 458 378
3 378 458 459
3 378 459 379
3 379 459 460
3 379 460 380
3 380 460 461
3 380 461 381
3 381 461 462
3 381 462 382
3 382 462 463
3 382 463 383
3 383 463 464
3 383 464 384
3 384 464 465
3 384 465 385
3 385 465 466
3 385 466 386
3 386 466 467
3 386 467 387
3 387 467 468
3 387 468 388
3 388 468 469
3 388 469 389
3 389 469 470
3 389 470 390
3 390 470 471
3 390 471 391
3 391 471 472
3 391 472 392
3 392 472 473
3 392 473 393
3 393 473 474
3 393 474 394
3 394 474 475
3 394 475 395
3 395 475 476
3 395 476 396
3 396 476 477
3 396 477 397
3 397 477 478
3 397 478 398
3 398 478 399
3 399 478 401
3 399 401 321
3 401 481 402
3 402 481 483
3 402 483 403
3 403 483 484
3 403 484 404
3 404 484 485
3 404 485 405
3 405 485 486
3 405 486 406
3 406 486 487
3 406 487 407
3 407 487 488
3 407 488 408
3 408 488 489
3 408 489 409
3 409 489 490
3 409 490 410
3 410 490 491
3 410 491 411
3 411 491 492
3 411 492 412
3 412 492 493
3 412 493 413
3 413 493 494
3 413 494 414
3 414 494 495
3 414 495 415
3 415 495 496
3 415 496 416
3 416 496 497
3 416 497 417
3 417 497 498
3 417 498 418
3 418 498 499
3 418 499 419
3 419 499 500
3 419 500 420
3 420 500 501
3 420 501 421
3 421 501 502
3 421 502 422
3 422 502 503
3 422 503 423
3 423 503 504
3 423 504 424
3 424 504 505
3 424 505 425
3 425 505 506
3 425 506 426
3 426 506 507
3 426 507 427
3 427 507 508
3 427 508 428
3 428 508 509
3 428 509 429
3 429 509 510
3 429 510 430
3 430 510 511
3 430 511 431
3 431 511 512
3 431 512 432
3 432 512 513
3 432 513 433
3 433 513 514
3 433 514 434
3 434 514 515
3 434 515 435
3 435 515 516
3 435 516 436
3 436 516 517
3 436 517 437
3 437 517 518
3 437 518 438
3 438 518 519
3 438 519 439
3 439 519 520
3 439 520 440
3 440 520 521
3 440 521 441
3 441 521 522
3 441 522 442
3 442 522 523
3 442 523 443
3 443 523 524
3 443 524 444
3 444 524 525
3 444 525 445
3 445 525 526
3 445 526 446
3 446 526 527
3 446 527 447
3 447 527 528
3 447 528 448
3 448 528 529
3 448 529 449
3 449 529 530
3 449 530 450
3 450 530 531
3 450 531 451
3 451 531 532
3 451 532 452
3 452 532 533
3 452 533 453
3 453 533 534
3 453 534 454
3 454 534 535
3 454 535 455
3 455 535 536
3 455 536 456
3 456 536 537
3 456 537 457
3 457 537 538
3 457 538 458
3 458 538 539
3 458 539 459
3 459 539 540
3 459 540 460
3 460 540 541
3 460 541 461
3 461 541 542
3 461 542 462
3 462 542 543
3 462 543 463
3 463 543 544
3 463 544 464
3 464 544 545
3 464 545 465
3 465 545 546
3 465 546 466
3 466 546 547
3 466 547 467
3 467 547 548
3 467 548 468
3 468 548 549
3 468 549 469
3 469 549 550
3 469 550 470
3 470 550 551
3 470 551 471
3 471 551 552
3 471 552 472
3 472 552 553
3 472 553 473
3 473 553 554
3 473 554 474
3 474 554 555
3 474 555 475
3 475 555 556
3 475 556 476
3 476 556 557
3 476 557 477
3 477 557 478
3 478 557 559
3 478 559 560
3 478 560 481
3 478 481 401
3 481 561 563
3 481 563 483
3 483 563 564
3 483 564 484
3 484 564 565
3 484 565 485
3 485 565 566
3 485 566 486
3 486 566 567
3 486 567 487
3 487 567 568
3 487 568 488
3 488 568 569
3 488 569 489
3 489 569 570
3 489 570 490
3 490 570 571
3 490 571 491
3 491 571 572
3 491 572 492
3 492 572 573
3 492 573 493
3 493 573 574
3 493 574 494
3 494 574 575
3 494 575 495
3 495 575 576
3 495 576 496
3 496 576 577
3 496 577 497
3 497 577 578
3 497 578 498
3 498 578 579
3 498 579 499
3 499 579 580
3 499 580 500
3 500 580 581
3 500 581 501
3 501 581 582
3 501 582 502
3 502 582 583
3 502 583 503
3 503 583 584
3 503 584 504
3 504 584 585
3 504 585 505
3 505 585 586
3 505 586 506
3 506 586 587
3 506 587 507
3 507 587 588
3 507 588 508
3 508 588 589
3 508 589 509
3 509 589 590
3 509 590 510
3 510 590 591
3 510 591 511
3 511 591 592
3 511 592 512
3 512 592 593
3 512 593 513
3 513 593 594
3 513 594 514
3 514 594 595
3 514 595 515
3 515 595 596
3 515 596 516
3 516 596 597
3 516 597 517
3 517 597 598
3 517 598 518
3 518 598 599
3 518 599 519
3 519 599 600
3 519 600 520
3 520 600 601
3 520 601 521
3 521 601 602
3 521 602 522
3 522 602 603
3 522 603 523
3 523 603 604
3 523 604 524
3 524 604 605
3 524 605 525
3 525 605 606
3 525 606 526
3 526 606 607
3 526 607 527
3 527 607 608
3 527 608 528
3 528 608 609
3 528 609 529
3 529 609 610
3 529 610 530
3 530 610 611
3 530 611 531
3 531 611 612
3 531 612 532
3 532 612 613
3 532 613 533
3 533 613 614
3 533 614 534
3 534 614 615
3 534 615 535
3 535 615 616
3 535 616 536
3 536 616 617
3 536 617 537
3 537 617 618
3 537 618 538
3 538 618 619
3 538 619 539
3 539 619 620
3 539 620 540
3 540 620 621
3 540 621 541
3 541 621 622
3 541 622 542
3 542 622 623
3 542 623 543
3 543 623 624
3 543 624 544
3 544 624 625
3 544 625 545
3 545 625 626
3 545 626 546
3 546 626 627
3 546 627 547
3 547 627 628
3 547 628 548
3 548 628 629
3 548 629 549
3 549 629 630
3 549 630 550
3 550 630 631
3 550 631 551
3 551 631 632
3 551 632 552
3 552 632 633
3 552 633 553
3 553 633 634
3 553 634 554
3 554 634 635
3 554 635 555
3 555 635 636
3 555 636 556
3 556 636 637
3 556 637 557
3 557 637 638
3 557 638 559
3 559 638 640
3 559 640 560
3 560 640 561
3 560 561 481
3 561 641 643
3 561 643 563
3 563 643 644
3 563 644 564
3 564 644 645
3 564 645 565
3 565 645 646
3 565 646 566
3 566 646 647
3 566 647 567
3 567 647 648
3 567 648 568
3 568 648 649
3 568 649 569
3 569 649 650
3 569 650 570
3 570 650 651
3 570 651 571
3 571 651 652
3 571 652 572
3 572 652 653
3 572 653 573
3 573 653 654
3 573 654 574
3 574 654 655
3 574 655 575
3 575 655 656
3 575 656 576
3 576 656 657
3 576 657 577
3 577 657 658
3 577 658 578
3 578 658 659
3 578 659 579
3 579 659 660
3 579 660 580
3 580 660 661
3 580 661 581
3 581 661 662
3 581 662 582
3 582 662 663
3 582 663 583
3 583 663 664
3 583 664 584
3 584 664 665
3 584 665 585
3 585 665 666
3 585 666 586
3 586 666 667
3 586 667 587
3 587 667 668
3 587 668 588
3 588 668 669
3 588 669 589
3 589 669 670
3 589 670 590
3 590 670 671
3 590 671 591
3 591 671 672
3 591 672 592
3 592 672 673
3 592 673 593
3 593 673 674
3 593 674 594
3 594 674 675
3 594 675 595
3 595 675 676
3 595 676 596
3 596 676 677
3 596 677 597
3 597 677 678
3 597 678 598
3 598 678 679
3 598 679 599
3 599 679 680
3 599 680 600
3 600 680 681
3 600 681 601
3 601 681 682
3 601 682 602
3 602 682 683
3 602 683 603
3 603 683 684
3 603 684 604
3 604 684 685
3 604 685 605
3 605 685 686
3 605 686 606
3 606 686 687
3 606 687 607
3 607 687 688
3 607 688 608
3 608 688 689
3 608 689 609
3 609 689 690
3 609 690 610
3 610 690 691
3 610 691 611
3 611 691 692
3 611 692 612
3 612 692 693
3 612 693 613
3 613 693 694
3 613 694 614
3 614 694 695
3 614 695 615
3 615 695 696
3 615 696 616
3 616 696 697
3 616 697 617
3 617 697 698
3 617 698 618
3 618 698 699
3 618 699 619
3 619 699 700
3 619 700 620
3 620 700 701
3 620 701 621
3 621 701 702
3 621 702 622
3 622 702 703
3 622 703 623
3 623 703 704
3 623 704 624
3 624 704 705
3 624 705 625
3 625 705 706
3 625 706 626
3 626 706 707
3 626 707 627
3 627 707 708
3 627 708 628
3 628 708 709
3 628 709 629
3 629 709 710
3 629 710 630
3 630 710 711
3 630 711 631
3 631 711 712
3 631 712 632
3 632 712 713
3 632 713 633
3 633 713 714
3 633 714 634
3 634 714 715
3 634 715 635
3 635 715 636
3 636 715 717
3 636 717 637
3 637 717 718
3 637 718 638
3 638 718 719
3 638 719 720
3 638 720 640
3 640 720 641
3 640 641 561
3 641 721 723
3 641 723 643
3 643 723 724
3 643 724 644
3 644 724 725
3 644 725 645
3 645 725 726
3 645 726 646
3 646 726 727
3 646 727 647
3 647 727 728
3 647 728 648
3 648 728 729
3 648 729 649
3 649 729 730
3 649 730 650
3 650 730 731
3 650 731 651
3 651 731 732
3 651 732 652
3 652 732 733
3 652 733 653
3 653 733 734
3 653 734 654
3 654 734 735
3 654 735 655
3 655 735 736
3 655 736 656
3 656 736 737
3 656 737 657
3 657 737 738
3 657 738 658
3 658 738 739
3 658 739 659
3 659 739 740
3 659 740 660
3 660 740 741
3 660 741 661
3 661 741 742
3 661 742 662
3 662 742 743
3 662 743 663
3 663 743 744
3 663 744 664
3 664 744 745
3 664 745 665
3 665 745 746
3 665 746 666
3 666 746 667
3 667 746 748
3 667 748 668
3 668 748 749
3 668 749 669
3 669 749 750
3 669 750 670
3 670 750 751
3 670 751 671
3 671 751 752
3 671 752 672
3 672 752 753
3 672 753 673
3 673 753 754
3 673 754 674
3 674 754 755
3 674 755 675
3 675 755 756
3 675 756 676
3 676 756 757
3 676 757 677
3 677 757 758
3 677 758 678
3 678 758 759
3 678 759 679
3 679 759 760
3 679 760 680
3 680 760 761
3 680 761 681
3 681 761 762
3 681 762 682
3 682 762 763
3 682 763 683
3 683 763 764
3 683 764 684
3 684 764 765
3 684 765 685
3 685 765 766
3 685 766 686
3 686 766 767
3 686 767 687
3 687 767 768
3 687 768 688
3 688 768 769
3 688 769 689
3 689 769 770
3 689 770 690
3 690 770 771
3 690 771 691
3 691 771 772
3 691 772 692
3 692 772 773
3 692 773 693
3 693 773 774
3 693 774 694
3 694 774 775
3 694 775 695
3 695 775 776
3 695 776 696
3 696 776 777
3 696 777 697
3 697 777 778
3 697 778 698
3 698 778 779
3 698 779 699
3 699 779 780
3 699 780 700
3 700 780 781
3 700 781 701
3 701 781 782
3 701 782 702
3 702 782 783
3 702 783 703
3 703 783 784
3 703 784 704
3 704 784 785
3 704 785 705
3 705 785 786
3 705 786 706
3 706 786 787
3 706 787 707
3 707 787 788
3 707 788 708
3 708 788 789
3 708 789 709
3 709 789 790
3 709 790 710
3 710 790 791
3 710 791 711
3 711 791 792
3 711 792 712
3 712 792 793
3 712 793 713
3 713 793 794
3 713 794 714
3 714 794 795
3 714 795 715
3 715 795 796
3 715 796 797
3 715 797 717
3 717 797 798
3 717 798 718
3 718 798 799
3 718 799 719
3 719 799 800
3 719 800 720
3 720 800 721
3 720 721 641
