ply 
format ascii 1.0 
comment this is a surface 
element vertex 561 
property float x 
property float y 
property float z 
element face 1027 
property list uchar int vertex_index 
end_header 
193.418000 206.108500 -51.840000
193.660000 226.740000 -51.840000
192.270000 226.170000 -51.840000
190.810000 225.790000 -51.840000
189.440000 225.140000 -51.840000
188.090000 224.470000 -51.840000
186.760000 223.750000 -51.840000
185.480000 222.960000 -51.840000
184.230000 222.100000 -51.840000
183.060000 221.150000 -51.840000
182.020000 220.050000 -51.840000
181.220000 218.780000 -51.840000
180.560000 217.420000 -51.840000
179.900000 216.060000 -51.840000
179.160000 214.750000 -51.840000
178.350000 213.470000 -51.840000
177.480000 212.230000 -51.840000
177.230000 210.740000 -51.840000
177.100000 209.240000 -51.840000
177.010000 207.730000 -51.840000
176.910000 206.230000 -51.840000
176.830000 204.720000 -51.840000
176.800000 203.210000 -51.840000
176.800000 201.700000 -51.840000
176.830000 200.190000 -51.840000
176.930000 198.680000 -51.840000
177.120000 197.190000 -51.840000
177.400000 195.700000 -51.840000
177.770000 194.240000 -51.840000
178.220000 192.800000 -51.840000
178.840000 191.420000 -51.840000
179.700000 190.180000 -51.840000
180.850000 189.210000 -51.840000
182.180000 188.490000 -51.840000
183.570000 187.890000 -51.840000
184.980000 187.350000 -51.840000
186.420000 186.910000 -51.840000
187.880000 186.510000 -51.840000
189.360000 186.210000 -51.840000
190.860000 186.040000 -51.840000
192.370000 186.000000 -51.840000
193.880000 186.050000 -51.840000
195.380000 186.200000 -51.840000
196.860000 186.480000 -51.840000
198.330000 186.850000 -51.840000
199.770000 187.290000 -51.840000
201.190000 187.790000 -51.840000
202.560000 188.440000 -51.840000
203.760000 189.350000 -51.840000
204.700000 190.540000 -51.840000
205.440000 191.850000 -51.840000
206.100000 193.210000 -51.840000
206.670000 194.610000 -51.840000
207.180000 196.030000 -51.840000
207.690000 197.450000 -51.840000
208.160000 198.880000 -51.840000
208.570000 200.340000 -51.840000
208.920000 201.810000 -51.840000
209.250000 203.280000 -51.840000
209.560000 204.760000 -51.840000
209.810000 206.250000 -51.840000
209.970000 207.750000 -51.840000
210.050000 209.260000 -51.840000
210.080000 210.760000 -51.840000
210.080000 212.270000 -51.840000
210.070000 213.780000 -51.840000
209.990000 215.290000 -51.840000
209.700000 216.770000 -51.840000
209.070000 218.150000 -51.840000
208.260000 219.420000 -51.840000
207.340000 220.620000 -51.840000
206.270000 221.680000 -51.840000
205.060000 222.580000 -51.840000
203.790000 223.410000 -51.840000
202.440000 224.090000 -51.840000
201.070000 224.710000 -51.840000
199.710000 225.360000 -51.840000
198.320000 225.960000 -51.840000
196.890000 226.450000 -51.840000
195.390000 226.560000 -51.840000
193.660000 226.740000 -51.840000
191.230000 230.500000 -43.200000
189.340000 230.010000 -43.200000
187.460000 229.530000 -43.200000
185.650000 228.790000 -43.200000
184.000000 227.750000 -43.200000
182.390000 226.670000 -43.200000
180.830000 225.500000 -43.200000
179.290000 224.290000 -43.200000
177.970000 222.870000 -43.200000
176.950000 221.200000 -43.200000
176.220000 219.400000 -43.200000
175.580000 217.560000 -43.200000
174.920000 215.730000 -43.200000
174.340000 213.860000 -43.200000
173.900000 211.970000 -43.200000
173.530000 210.050000 -43.200000
173.310000 208.120000 -43.200000
173.250000 206.170000 -43.200000
173.280000 204.220000 -43.200000
173.400000 202.280000 -43.200000
173.600000 200.340000 -43.200000
173.840000 198.400000 -43.200000
174.090000 196.470000 -43.200000
174.360000 194.540000 -43.200000
174.730000 192.630000 -43.200000
175.240000 190.750000 -43.200000
175.940000 188.930000 -43.200000
176.950000 187.260000 -43.200000
178.330000 185.890000 -43.200000
179.920000 184.770000 -43.200000
181.520000 183.660000 -43.200000
183.150000 182.580000 -43.200000
184.940000 181.810000 -43.200000
186.840000 181.380000 -43.200000
188.760000 181.040000 -43.200000
190.650000 180.590000 -43.200000
192.560000 180.170000 -43.200000
194.490000 179.930000 -43.200000
196.440000 179.880000 -43.200000
198.380000 179.990000 -43.200000
200.310000 180.260000 -43.200000
202.220000 180.670000 -43.200000
204.100000 181.170000 -43.200000
205.990000 181.650000 -43.200000
207.880000 182.130000 -43.200000
209.760000 182.640000 -43.200000
211.620000 183.200000 -43.200000
213.430000 183.920000 -43.200000
215.090000 184.950000 -43.200000
216.370000 186.420000 -43.200000
217.090000 188.230000 -43.200000
217.490000 190.140000 -43.200000
217.460000 192.080000 -43.200000
217.250000 194.020000 -43.200000
216.930000 195.940000 -43.200000
216.650000 197.870000 -43.200000
216.380000 199.800000 -43.200000
215.990000 201.710000 -43.200000
215.580000 203.610000 -43.200000
215.220000 205.530000 -43.200000
214.910000 207.450000 -43.200000
214.560000 209.370000 -43.200000
214.040000 211.250000 -43.200000
213.460000 213.110000 -43.200000
212.900000 214.980000 -43.200000
212.240000 216.810000 -43.200000
211.410000 218.580000 -43.200000
210.520000 220.310000 -43.200000
209.630000 222.040000 -43.200000
208.630000 223.710000 -43.200000
207.380000 225.210000 -43.200000
205.840000 226.400000 -43.200000
204.230000 227.490000 -43.200000
202.510000 228.420000 -43.200000
200.710000 229.170000 -43.200000
198.900000 229.890000 -43.200000
197.030000 230.510000 -43.200000
197.030000 230.510000 -43.200000
195.110000 230.840000 -43.200000
193.170000 230.730000 -43.200000
191.930000 234.430000 -34.560000
189.330000 234.520000 -34.560000
186.740000 234.340000 -34.560000
184.220000 233.690000 -34.560000
181.810000 232.700000 -34.560000
179.520000 231.480000 -34.560000
177.320000 230.090000 -34.560000
175.200000 228.580000 -34.560000
173.130000 227.000000 -34.560000
171.140000 225.330000 -34.560000
169.310000 223.480000 -34.560000
167.730000 221.410000 -34.560000
166.600000 219.070000 -34.560000
165.970000 216.550000 -34.560000
165.490000 213.990000 -34.560000
165.120000 211.420000 -34.560000
164.860000 208.830000 -34.560000
164.710000 206.230000 -34.560000
164.740000 203.630000 -34.560000
165.070000 201.050000 -34.560000
165.650000 198.510000 -34.560000
166.410000 196.030000 -34.560000
167.310000 193.590000 -34.560000
168.300000 191.180000 -34.560000
169.360000 188.810000 -34.560000
170.590000 186.510000 -34.560000
172.020000 184.340000 -34.560000
173.700000 182.360000 -34.560000
175.690000 180.690000 -34.560000
178.030000 179.530000 -34.560000
180.490000 178.710000 -34.560000
183.010000 178.050000 -34.560000
185.550000 177.490000 -34.560000
188.090000 176.940000 -34.560000
190.630000 176.390000 -34.560000
193.180000 175.880000 -34.560000
195.740000 175.400000 -34.560000
198.310000 174.970000 -34.560000
200.880000 174.600000 -34.560000
203.460000 174.260000 -34.560000
206.040000 173.910000 -34.560000
208.620000 173.590000 -34.560000
211.210000 173.340000 -34.560000
213.800000 173.190000 -34.560000
216.400000 173.200000 -34.560000
219.000000 173.420000 -34.560000
221.570000 173.820000 -34.560000
224.110000 174.380000 -34.560000
226.560000 175.230000 -34.560000
228.300000 177.160000 -34.560000
229.040000 179.660000 -34.560000
229.530000 182.210000 -34.560000
229.890000 184.790000 -34.560000
230.150000 187.370000 -34.560000
230.300000 189.970000 -34.560000
230.250000 192.570000 -34.560000
229.820000 195.140000 -34.560000
229.130000 197.650000 -34.560000
228.300000 200.110000 -34.560000
227.430000 202.560000 -34.560000
226.630000 205.040000 -34.560000
225.850000 207.520000 -34.560000
225.030000 209.990000 -34.560000
224.140000 212.430000 -34.560000
223.130000 214.830000 -34.560000
221.960000 217.150000 -34.560000
220.590000 219.360000 -34.560000
219.060000 221.470000 -34.560000
217.390000 223.460000 -34.560000
215.590000 225.330000 -34.560000
213.640000 227.060000 -34.560000
211.540000 228.600000 -34.560000
209.320000 229.950000 -34.560000
207.020000 231.170000 -34.560000
204.650000 232.230000 -34.560000
202.190000 233.080000 -34.560000
199.690000 233.620000 -34.560000
199.690000 233.620000 -34.560000
197.110000 233.950000 -34.560000
194.520000 234.230000 -34.560000
192.140000 237.850000 -25.920000
189.180000 237.680000 -25.920000
186.370000 236.770000 -25.920000
183.710000 235.490000 -25.920000
181.090000 234.120000 -25.920000
178.580000 232.560000 -25.920000
176.220000 230.790000 -25.920000
174.010000 228.820000 -25.920000
171.940000 226.710000 -25.920000
169.990000 224.490000 -25.920000
168.190000 222.150000 -25.920000
166.650000 219.620000 -25.920000
165.500000 216.900000 -25.920000
164.610000 214.080000 -25.920000
163.840000 211.230000 -25.920000
163.210000 208.340000 -25.920000
162.770000 205.420000 -25.920000
162.620000 202.470000 -25.920000
162.890000 199.530000 -25.920000
163.570000 196.650000 -25.920000
164.560000 193.860000 -25.920000
165.780000 191.170000 -25.920000
167.210000 188.590000 -25.920000
168.840000 186.120000 -25.920000
170.890000 183.990000 -25.920000
173.280000 182.250000 -25.920000
175.820000 180.740000 -25.920000
178.430000 179.350000 -25.920000
181.050000 177.980000 -25.920000
183.700000 176.680000 -25.920000
186.420000 175.520000 -25.920000
189.160000 174.420000 -25.920000
191.880000 173.270000 -25.920000
194.520000 171.940000 -25.920000
196.940000 170.230000 -25.920000
198.990000 168.110000 -25.920000
200.930000 165.880000 -25.920000
203.060000 163.830000 -25.920000
205.690000 162.490000 -25.920000
208.640000 162.310000 -25.920000
211.600000 162.220000 -25.920000
214.550000 162.160000 -25.920000
217.510000 162.110000 -25.920000
220.460000 162.090000 -25.920000
223.410000 162.240000 -25.920000
226.270000 162.990000 -25.920000
228.940000 164.270000 -25.920000
231.380000 165.930000 -25.920000
233.360000 168.120000 -25.920000
233.960000 171.020000 -25.920000
233.960000 173.970000 -25.920000
233.960000 176.930000 -25.920000
233.960000 179.880000 -25.920000
233.960000 182.840000 -25.920000
233.960000 185.790000 -25.920000
233.950000 188.750000 -25.920000
233.650000 191.690000 -25.920000
232.930000 194.560000 -25.920000
231.960000 197.350000 -25.920000
230.890000 200.100000 -25.920000
229.830000 202.860000 -25.920000
228.800000 205.630000 -25.920000
227.690000 208.370000 -25.920000
226.500000 211.070000 -25.920000
225.230000 213.740000 -25.920000
223.880000 216.370000 -25.920000
222.490000 218.980000 -25.920000
221.100000 221.590000 -25.920000
219.650000 224.170000 -25.920000
218.080000 226.670000 -25.920000
216.300000 229.030000 -25.920000
214.220000 231.130000 -25.920000
211.820000 232.860000 -25.920000
209.280000 234.360000 -25.920000
206.620000 235.640000 -25.920000
203.830000 236.630000 -25.920000
200.980000 237.210000 -25.920000
200.980000 237.210000 -25.920000
198.040000 237.510000 -25.920000
195.090000 237.730000 -25.920000
193.400000 242.050000 -17.280000
190.080000 242.530000 -17.280000
186.740000 242.420000 -17.280000
183.640000 241.160000 -17.280000
180.680000 239.590000 -17.280000
177.730000 238.010000 -17.280000
174.860000 236.290000 -17.280000
172.110000 234.390000 -17.280000
169.520000 232.260000 -17.280000
167.220000 229.840000 -17.280000
165.180000 227.180000 -17.280000
163.380000 224.360000 -17.280000
161.850000 221.390000 -17.280000
160.660000 218.260000 -17.280000
159.870000 215.000000 -17.280000
159.210000 211.720000 -17.280000
158.670000 208.420000 -17.280000
158.280000 205.100000 -17.280000
158.110000 201.750000 -17.280000
158.390000 198.420000 -17.280000
159.240000 195.180000 -17.280000
160.500000 192.080000 -17.280000
162.060000 189.120000 -17.280000
163.860000 186.300000 -17.280000
165.880000 183.630000 -17.280000
168.260000 181.280000 -17.280000
171.130000 179.560000 -17.280000
174.160000 178.140000 -17.280000
177.200000 176.730000 -17.280000
180.070000 175.010000 -17.280000
182.470000 172.680000 -17.280000
184.440000 169.970000 -17.280000
186.260000 167.160000 -17.280000
188.220000 164.450000 -17.280000
190.520000 162.020000 -17.280000
192.880000 159.640000 -17.280000
195.290000 157.320000 -17.280000
197.870000 155.180000 -17.280000
200.690000 153.390000 -17.280000
203.840000 152.260000 -17.280000
207.190000 152.180000 -17.280000
210.510000 152.560000 -17.280000
213.800000 153.160000 -17.280000
217.060000 153.940000 -17.280000
220.280000 154.860000 -17.280000
223.440000 155.970000 -17.280000
226.470000 157.370000 -17.280000
229.360000 159.060000 -17.280000
232.010000 161.110000 -17.280000
234.120000 163.710000 -17.280000
234.770000 166.990000 -17.280000
234.670000 170.330000 -17.280000
234.490000 173.680000 -17.280000
234.260000 177.020000 -17.280000
233.980000 180.350000 -17.280000
233.640000 183.680000 -17.280000
232.920000 186.950000 -17.280000
231.950000 190.150000 -17.280000
231.740000 193.490000 -17.280000
231.730000 196.840000 -17.280000
231.730000 200.180000 -17.280000
231.580000 203.530000 -17.280000
231.100000 206.840000 -17.280000
230.410000 210.110000 -17.280000
229.610000 213.360000 -17.280000
228.800000 216.610000 -17.280000
227.980000 219.860000 -17.280000
227.030000 223.070000 -17.280000
225.810000 226.180000 -17.280000
224.000000 229.000000 -17.280000
221.240000 230.880000 -17.280000
218.200000 232.300000 -17.280000
215.140000 233.650000 -17.280000
212.170000 235.190000 -17.280000
209.230000 236.780000 -17.280000
206.220000 238.250000 -17.280000
203.090000 239.440000 -17.280000
199.880000 240.410000 -17.280000
199.880000 240.410000 -17.280000
196.660000 241.310000 -17.280000
197.650000 242.750000 -8.640000
193.970000 242.720000 -8.640000
190.330000 242.210000 -8.640000
186.750000 241.380000 -8.640000
183.220000 240.340000 -8.640000
179.730000 239.170000 -8.640000
176.360000 237.710000 -8.640000
173.120000 235.970000 -8.640000
170.050000 233.950000 -8.640000
167.180000 231.650000 -8.640000
164.610000 229.020000 -8.640000
162.520000 225.990000 -8.640000
160.730000 222.780000 -8.640000
159.180000 219.440000 -8.640000
157.900000 216.000000 -8.640000
156.960000 212.440000 -8.640000
156.490000 208.790000 -8.640000
156.590000 205.120000 -8.640000
157.080000 201.470000 -8.640000
157.820000 197.870000 -8.640000
158.700000 194.300000 -8.640000
160.150000 190.920000 -8.640000
161.910000 187.690000 -8.640000
162.930000 184.160000 -8.640000
163.110000 180.490000 -8.640000
161.240000 177.330000 -8.640000
160.670000 173.690000 -8.640000
161.210000 170.060000 -8.640000
162.150000 166.500000 -8.640000
163.420000 163.050000 -8.640000
165.110000 159.780000 -8.640000
167.800000 157.270000 -8.640000
171.030000 155.510000 -8.640000
174.440000 154.130000 -8.640000
177.930000 152.980000 -8.640000
181.460000 151.970000 -8.640000
185.010000 150.990000 -8.640000
188.570000 150.080000 -8.640000
192.160000 149.260000 -8.640000
195.770000 148.570000 -8.640000
199.410000 148.060000 -8.640000
203.080000 147.780000 -8.640000
206.750000 147.800000 -8.640000
210.410000 148.150000 -8.640000
214.040000 148.760000 -8.640000
217.620000 149.580000 -8.640000
221.170000 150.570000 -8.640000
224.670000 151.700000 -8.640000
228.090000 153.030000 -8.640000
231.370000 154.710000 -8.640000
234.360000 156.840000 -8.640000
236.380000 159.920000 -8.640000
236.450000 163.600000 -8.640000
236.440000 167.270000 -8.640000
236.440000 170.950000 -8.640000
236.430000 174.630000 -8.640000
236.420000 178.300000 -8.640000
236.410000 181.980000 -8.640000
236.360000 185.660000 -8.640000
235.960000 189.310000 -8.640000
235.220000 192.920000 -8.640000
234.320000 196.480000 -8.640000
233.430000 200.050000 -8.640000
232.700000 203.650000 -8.640000
232.150000 207.290000 -8.640000
231.680000 210.940000 -8.640000
231.190000 214.580000 -8.640000
230.590000 218.210000 -8.640000
229.700000 221.780000 -8.640000
228.260000 225.160000 -8.640000
226.280000 228.260000 -8.640000
223.950000 231.100000 -8.640000
221.320000 233.680000 -8.640000
218.440000 235.960000 -8.640000
215.260000 237.820000 -8.640000
211.880000 239.260000 -8.640000
208.430000 240.510000 -8.640000
204.900000 241.550000 -8.640000
201.300000 242.320000 -8.640000
197.650000 242.750000 -8.640000
197.580000 242.680000 0.000000
193.790000 242.540000 0.000000
190.010000 242.190000 0.000000
186.250000 241.670000 0.000000
182.510000 241.000000 0.000000
178.850000 239.990000 0.000000
175.410000 238.380000 0.000000
172.210000 236.350000 0.000000
169.240000 233.980000 0.000000
166.510000 231.340000 0.000000
164.090000 228.420000 0.000000
162.040000 225.220000 0.000000
160.290000 221.860000 0.000000
158.830000 218.350000 0.000000
157.790000 214.700000 0.000000
157.360000 210.930000 0.000000
157.540000 207.140000 0.000000
158.040000 203.380000 0.000000
158.690000 199.640000 0.000000
159.320000 195.900000 0.000000
159.810000 192.130000 0.000000
160.140000 188.350000 0.000000
160.420000 184.570000 0.000000
160.670000 180.780000 0.000000
160.930000 176.990000 0.000000
161.220000 173.210000 0.000000
161.460000 169.420000 0.000000
161.690000 165.630000 0.000000
161.960000 161.840000 0.000000
162.350000 158.070000 0.000000
163.250000 154.380000 0.000000
165.610000 151.410000 0.000000
168.610000 149.080000 0.000000
171.900000 147.200000 0.000000
175.410000 145.760000 0.000000
179.100000 144.840000 0.000000
182.840000 144.230000 0.000000
186.600000 143.720000 0.000000
190.380000 143.310000 0.000000
194.160000 143.000000 0.000000
197.950000 142.780000 0.000000
201.740000 142.680000 0.000000
205.540000 142.780000 0.000000
209.310000 143.240000 0.000000
213.030000 143.970000 0.000000
216.700000 144.920000 0.000000
220.320000 146.070000 0.000000
223.860000 147.440000 0.000000
227.180000 149.290000 0.000000
230.220000 151.550000 0.000000
232.960000 154.180000 0.000000
235.230000 157.220000 0.000000
236.720000 160.720000 0.000000
237.670000 164.390000 0.000000
238.180000 168.150000 0.000000
238.160000 171.950000 0.000000
237.820000 175.730000 0.000000
237.340000 179.490000 0.000000
236.870000 183.260000 0.000000
236.450000 187.030000 0.000000
236.010000 190.800000 0.000000
235.550000 194.570000 0.000000
235.040000 198.330000 0.000000
234.490000 202.090000 0.000000
233.920000 205.840000 0.000000
233.330000 209.590000 0.000000
232.650000 213.320000 0.000000
231.820000 217.020000 0.000000
230.700000 220.650000 0.000000
229.060000 224.070000 0.000000
226.920000 227.210000 0.000000
224.450000 230.090000 0.000000
221.690000 232.700000 0.000000
218.680000 235.010000 0.000000
215.410000 236.940000 0.000000
212.040000 238.680000 0.000000
208.570000 240.210000 0.000000
204.980000 241.470000 0.000000
201.290000 242.350000 0.000000
197.580000 242.680000 0.000000
3 0 80 2
3 0 2 3
3 0 3 4
3 0 4 5
3 0 5 6
3 0 6 7
3 0 7 8
3 0 8 9
3 0 9 10
3 0 10 11
3 0 11 12
3 0 12 13
3 0 13 14
3 0 14 15
3 0 15 16
3 0 16 17
3 0 17 18
3 0 18 19
3 0 19 20
3 0 20 21
3 0 21 22
3 0 22 23
3 0 23 24
3 0 24 25
3 0 25 26
3 0 26 27
3 0 27 28
3 0 28 29
3 0 29 30
3 0 30 31
3 0 31 32
3 0 32 33
3 0 33 34
3 0 34 35
3 0 35 36
3 0 36 37
3 0 37 38
3 0 38 39
3 0 39 40
3 0 40 41
3 0 41 42
3 0 42 43
3 0 43 44
3 0 44 45
3 0 45 46
3 0 46 47
3 0 47 48
3 0 48 49
3 0 49 50
3 0 50 51
3 0 51 52
3 0 52 53
3 0 53 54
3 0 54 55
3 0 55 56
3 0 56 57
3 0 57 58
3 0 58 59
3 0 59 60
3 0 60 61
3 0 61 62
3 0 62 63
3 0 63 64
3 0 64 65
3 0 65 66
3 0 66 67
3 0 67 68
3 0 68 69
3 0 69 70
3 0 70 71
3 0 71 72
3 0 72 73
3 0 73 74
3 0 74 75
3 0 75 76
3 0 76 77
3 0 77 78
3 0 78 79
3 0 79 80
3 80 81 82
3 80 82 2
3 2 82 83
3 2 83 3
3 3 83 84
3 3 84 4
3 4 84 85
3 4 85 5
3 5 85 86
3 5 86 6
3 6 86 87
3 6 87 7
3 7 87 88
3 7 88 8
3 8 88 89
3 8 89 9
3 9 89 90
3 9 90 10
3 10 90 91
3 10 91 11
3 11 91 92
3 11 92 12
3 12 92 93
3 12 93 13
3 13 93 94
3 13 94 14
3 14 94 95
3 14 95 15
3 15 95 96
3 15 96 16
3 16 96 97
3 16 97 17
3 17 97 98
3 17 98 18
3 18 98 99
3 18 99 19
3 19 99 100
3 19 100 20
3 20 100 101
3 20 101 21
3 21 101 102
3 21 102 22
3 22 102 103
3 22 103 23
3 23 103 104
3 23 104 24
3 24 104 105
3 24 105 25
3 25 105 106
3 25 106 26
3 26 106 107
3 26 107 27
3 27 107 108
3 27 108 28
3 28 108 109
3 28 109 29
3 29 109 110
3 29 110 30
3 30 110 111
3 30 111 31
3 31 111 112
3 31 112 32
3 32 112 113
3 32 113 33
3 33 113 114
3 33 114 34
3 34 114 115
3 34 115 35
3 35 115 116
3 35 116 36
3 36 116 117
3 36 117 37
3 37 117 118
3 37 118 38
3 38 118 119
3 38 119 39
3 39 119 120
3 39 120 40
3 40 120 121
3 40 121 41
3 41 121 122
3 41 122 42
3 42 122 123
3 42 123 43
3 43 123 124
3 43 124 44
3 44 124 125
3 44 125 45
3 45 125 126
3 45 126 46
3 46 126 127
3 46 127 47
3 47 127 128
3 47 128 48
3 48 128 129
3 48 129 49
3 49 129 130
3 49 130 50
3 50 130 131
3 50 131 51
3 51 131 132
3 51 132 52
3 52 132 133
3 52 133 53
3 53 133 134
3 53 134 54
3 54 134 135
3 54 135 55
3 55 135 136
3 55 136 56
3 56 136 137
3 56 137 57
3 57 137 138
3 57 138 58
3 58 138 139
3 58 139 59
3 59 139 140
3 59 140 60
3 60 140 141
3 60 141 61
3 61 141 142
3 61 142 62
3 62 142 143
3 62 143 63
3 63 143 144
3 63 144 64
3 64 144 145
3 64 145 65
3 65 145 146
3 65 146 66
3 66 146 147
3 66 147 67
3 67 147 148
3 67 148 68
3 68 148 149
3 68 149 69
3 69 149 150
3 69 150 70
3 70 150 151
3 70 151 71
3 71 151 152
3 71 152 72
3 72 152 153
3 72 153 73
3 73 153 154
3 73 154 74
3 74 154 155
3 74 155 75
3 75 155 156
3 75 156 76
3 76 156 157
3 76 157 77
3 77 157 78
3 78 157 159
3 78 159 79
3 79 159 160
3 79 160 80
3 80 160 81
3 81 161 162
3 81 162 82
3 82 162 163
3 82 163 83
3 83 163 164
3 83 164 84
3 84 164 165
3 84 165 85
3 85 165 166
3 85 166 86
3 86 166 167
3 86 167 87
3 87 167 168
3 87 168 88
3 88 168 169
3 88 169 89
3 89 169 170
3 89 170 90
3 90 170 171
3 90 171 91
3 91 171 172
3 91 172 92
3 92 172 173
3 92 173 93
3 93 173 174
3 93 174 94
3 94 174 175
3 94 175 95
3 95 175 176
3 95 176 96
3 96 176 177
3 96 177 97
3 97 177 178
3 97 178 98
3 98 178 179
3 98 179 99
3 99 179 180
3 99 180 100
3 100 180 181
3 100 181 101
3 101 181 182
3 101 182 102
3 102 182 183
3 102 183 103
3 103 183 184
3 103 184 104
3 104 184 185
3 104 185 105
3 105 185 186
3 105 186 106
3 106 186 187
3 106 187 107
3 107 187 188
3 107 188 108
3 108 188 189
3 108 189 109
3 109 189 190
3 109 190 110
3 110 190 191
3 110 191 111
3 111 191 192
3 111 192 112
3 112 192 193
3 112 193 113
3 113 193 194
3 113 194 114
3 114 194 195
3 114 195 115
3 115 195 196
3 115 196 116
3 116 196 197
3 116 197 117
3 117 197 198
3 117 198 118
3 118 198 199
3 118 199 119
3 119 199 200
3 119 200 120
3 120 200 201
3 120 201 121
3 121 201 202
3 121 202 122
3 122 202 203
3 122 203 123
3 123 203 204
3 123 204 124
3 124 204 205
3 124 205 125
3 125 205 206
3 125 206 126
3 126 206 207
3 126 207 127
3 127 207 208
3 127 208 128
3 128 208 209
3 128 209 129
3 129 209 210
3 129 210 130
3 130 210 211
3 130 211 131
3 131 211 212
3 131 212 132
3 132 212 213
3 132 213 133
3 133 213 214
3 133 214 134
3 134 214 215
3 134 215 135
3 135 215 216
3 135 216 136
3 136 216 217
3 136 217 137
3 137 217 218
3 137 218 138
3 138 218 219
3 138 219 139
3 139 219 220
3 139 220 140
3 140 220 221
3 140 221 141
3 141 221 222
3 141 222 142
3 142 222 223
3 142 223 143
3 143 223 224
3 143 224 144
3 144 224 225
3 144 225 145
3 145 225 226
3 145 226 146
3 146 226 227
3 146 227 147
3 147 227 228
3 147 228 148
3 148 228 229
3 148 229 149
3 149 229 230
3 149 230 150
3 150 230 231
3 150 231 151
3 151 231 232
3 151 232 152
3 152 232 233
3 152 233 153
3 153 233 234
3 153 234 154
3 154 234 235
3 154 235 155
3 155 235 236
3 155 236 156
3 156 236 237
3 156 237 157
3 157 237 239
3 157 239 159
3 159 239 240
3 159 240 160
3 160 240 161
3 160 161 81
3 161 241 242
3 161 242 162
3 162 242 243
3 162 243 163
3 163 243 244
3 163 244 164
3 164 244 245
3 164 245 165
3 165 245 246
3 165 246 166
3 166 246 247
3 166 247 167
3 167 247 248
3 167 248 168
3 168 248 249
3 168 249 169
3 169 249 250
3 169 250 170
3 170 250 251
3 170 251 171
3 171 251 252
3 171 252 172
3 172 252 253
3 172 253 173
3 173 253 254
3 173 254 174
3 174 254 255
3 174 255 175
3 175 255 256
3 175 256 176
3 176 256 257
3 176 257 177
3 177 257 258
3 177 258 178
3 178 258 259
3 178 259 179
3 179 259 260
3 179 260 180
3 180 260 261
3 180 261 181
3 181 261 262
3 181 262 182
3 182 262 263
3 182 263 183
3 183 263 264
3 183 264 184
3 184 264 265
3 184 265 185
3 185 265 266
3 185 266 186
3 186 266 267
3 186 267 187
3 187 267 268
3 187 268 188
3 188 268 269
3 188 269 189
3 189 269 270
3 189 270 190
3 190 270 271
3 190 271 191
3 191 271 272
3 191 272 192
3 192 272 273
3 192 273 193
3 193 273 274
3 193 274 194
3 194 274 275
3 194 275 195
3 195 275 276
3 195 276 196
3 196 276 277
3 196 277 197
3 197 277 278
3 197 278 198
3 198 278 279
3 198 279 199
3 199 279 280
3 199 280 200
3 200 280 281
3 200 281 201
3 201 281 282
3 201 282 202
3 202 282 283
3 202 283 203
3 203 283 284
3 203 284 204
3 204 284 285
3 204 285 205
3 205 285 286
3 205 286 206
3 206 286 287
3 206 287 207
3 207 287 288
3 207 288 208
3 208 288 289
3 208 289 209
3 209 289 290
3 209 290 210
3 210 290 291
3 210 291 211
3 211 291 292
3 211 292 212
3 212 292 293
3 212 293 213
3 213 293 294
3 213 294 214
3 214 294 295
3 214 295 215
3 215 295 296
3 215 296 216
3 216 296 297
3 216 297 217
3 217 297 298
3 217 298 218
3 218 298 299
3 218 299 219
3 219 299 300
3 219 300 220
3 220 300 301
3 220 301 221
3 221 301 302
3 221 302 222
3 222 302 303
3 222 303 223
3 223 303 304
3 223 304 224
3 224 304 305
3 224 305 225
3 225 305 306
3 225 306 226
3 226 306 307
3 226 307 227
3 227 307 308
3 227 308 228
3 228 308 309
3 228 309 229
3 229 309 310
3 229 310 230
3 230 310 311
3 230 311 231
3 231 311 312
3 231 312 232
3 232 312 313
3 232 313 233
3 233 313 314
3 233 314 234
3 234 314 315
3 234 315 235
3 235 315 316
3 235 316 236
3 236 316 317
3 236 317 237
3 237 317 319
3 237 319 239
3 239 319 320
3 239 320 240
3 240 320 241
3 240 241 161
3 241 321 322
3 241 322 242
3 242 322 323
3 242 323 243
3 243 323 324
3 243 324 244
3 244 324 325
3 244 325 245
3 245 325 326
3 245 326 246
3 246 326 327
3 246 327 247
3 247 327 328
3 247 328 248
3 248 328 329
3 248 329 249
3 249 329 330
3 249 330 250
3 250 330 331
3 250 331 251
3 251 331 332
3 251 332 252
3 252 332 333
3 252 333 253
3 253 333 334
3 253 334 254
3 254 334 335
3 254 335 255
3 255 335 336
3 255 336 256
3 256 336 337
3 256 337 257
3 257 337 338
3 257 338 258
3 258 338 339
3 258 339 259
3 259 339 340
3 259 340 260
3 260 340 341
3 260 341 261
3 261 341 342
3 261 342 262
3 262 342 343
3 262 343 263
3 263 343 344
3 263 344 264
3 264 344 345
3 264 345 265
3 265 345 346
3 265 346 266
3 266 346 347
3 266 347 267
3 267 347 348
3 267 348 268
3 268 348 349
3 268 349 269
3 269 349 350
3 269 350 270
3 270 350 351
3 270 351 271
3 271 351 352
3 271 352 272
3 272 352 353
3 272 353 273
3 273 353 354
3 273 354 274
3 274 354 355
3 274 355 275
3 275 355 356
3 275 356 276
3 276 356 357
3 276 357 277
3 277 357 358
3 277 358 278
3 278 358 359
3 278 359 279
3 279 359 360
3 279 360 280
3 280 360 361
3 280 361 281
3 281 361 362
3 281 362 282
3 282 362 363
3 282 363 283
3 283 363 364
3 283 364 284
3 284 364 365
3 284 365 285
3 285 365 366
3 285 366 286
3 286 366 367
3 286 367 287
3 287 367 368
3 287 368 288
3 288 368 369
3 288 369 289
3 289 369 370
3 289 370 290
3 290 370 371
3 290 371 291
3 291 371 372
3 291 372 292
3 292 372 373
3 292 373 293
3 293 373 374
3 293 374 294
3 294 374 375
3 294 375 295
3 295 375 376
3 295 376 296
3 296 376 377
3 296 377 297
3 297 377 378
3 297 378 298
3 298 378 379
3 298 379 299
3 299 379 380
3 299 380 300
3 300 380 381
3 300 381 301
3 301 381 382
3 301 382 302
3 302 382 383
3 302 383 303
3 303 383 384
3 303 384 304
3 304 384 385
3 304 385 305
3 305 385 386
3 305 386 306
3 306 386 387
3 306 387 307
3 307 387 388
3 307 388 308
3 308 388 389
3 308 389 309
3 309 389 390
3 309 390 310
3 310 390 391
3 310 391 311
3 311 391 392
3 311 392 312
3 312 392 393
3 312 393 313
3 313 393 394
3 313 394 314
3 314 394 395
3 314 395 315
3 315 395 396
3 315 396 316
3 316 396 397
3 316 397 317
3 317 397 398
3 317 398 319
3 319 398 400
3 319 400 320
3 320 400 321
3 320 321 241
3 321 480 402
3 321 402 322
3 322 402 403
3 322 403 323
3 323 403 404
3 323 404 324
3 324 404 405
3 324 405 325
3 325 405 406
3 325 406 326
3 326 406 407
3 326 407 327
3 327 407 408
3 327 408 328
3 328 408 409
3 328 409 329
3 329 409 410
3 329 410 330
3 330 410 411
3 330 411 331
3 331 411 412
3 331 412 332
3 332 412 413
3 332 413 333
3 333 413 414
3 333 414 334
3 334 414 415
3 334 415 335
3 335 415 416
3 335 416 336
3 336 416 417
3 336 417 337
3 337 417 418
3 337 418 338
3 338 418 419
3 338 419 339
3 339 419 420
3 339 420 340
3 340 420 421
3 340 421 341
3 341 421 422
3 341 422 342
3 342 422 423
3 342 423 343
3 343 423 424
3 343 424 344
3 344 424 425
3 344 425 345
3 345 425 426
3 345 426 346
3 346 426 427
3 346 427 347
3 347 427 428
3 347 428 348
3 348 428 429
3 348 429 349
3 349 429 430
3 349 430 350
3 350 430 431
3 350 431 351
3 351 431 432
3 351 432 352
3 352 432 433
3 352 433 353
3 353 433 434
3 353 434 354
3 354 434 435
3 354 435 355
3 355 435 436
3 355 436 356
3 356 436 437
3 356 437 357
3 357 437 438
3 357 438 358
3 358 438 439
3 358 439 359
3 359 439 440
3 359 440 360
3 360 440 441
3 360 441 361
3 361 441 442
3 361 442 362
3 362 442 443
3 362 443 363
3 363 443 444
3 363 444 364
3 364 444 445
3 364 445 365
3 365 445 446
3 365 446 366
3 366 446 447
3 366 447 367
3 367 447 448
3 367 448 368
3 368 448 449
3 368 449 369
3 369 449 450
3 369 450 370
3 370 450 451
3 370 451 371
3 371 451 452
3 371 452 372
3 372 452 453
3 372 453 373
3 373 453 454
3 373 454 374
3 374 454 455
3 374 455 375
3 375 455 456
3 375 456 376
3 376 456 457
3 376 457 377
3 377 457 458
3 377 458 378
3 378 458 459
3 378 459 379
3 379 459 460
3 379 460 380
3 380 460 461
3 380 461 381
3 381 461 462
3 381 462 382
3 382 462 463
3 382 463 383
3 383 463 464
3 383 464 384
3 384 464 465
3 384 465 385
3 385 465 466
3 385 466 386
3 386 466 467
3 386 467 387
3 387 467 468
3 387 468 388
3 388 468 469
3 388 469 389
3 389 469 470
3 389 470 390
3 390 470 471
3 390 471 391
3 391 471 472
3 391 472 392
3 392 472 473
3 392 473 393
3 393 473 474
3 393 474 394
3 394 474 475
3 394 475 395
3 395 475 476
3 395 476 396
3 396 476 477
3 396 477 397
3 397 477 478
3 397 478 398
3 398 478 479
3 398 479 480
3 398 480 400
3 400 480 321
3 480 560 482
3 480 482 402
3 402 482 483
3 402 483 403
3 403 483 484
3 403 484 404
3 404 484 485
3 404 485 405
3 405 485 486
3 405 486 406
3 406 486 487
3 406 487 407
3 407 487 488
3 407 488 408
3 408 488 489
3 408 489 409
3 409 489 490
3 409 490 410
3 410 490 491
3 410 491 411
3 411 491 492
3 411 492 412
3 412 492 493
3 412 493 413
3 413 493 494
3 413 494 414
3 414 494 495
3 414 495 415
3 415 495 496
3 415 496 416
3 416 496 497
3 416 497 417
3 417 497 498
3 417 498 418
3 418 498 499
3 418 499 419
3 419 499 500
3 419 500 420
3 420 500 501
3 420 501 421
3 421 501 502
3 421 502 422
3 422 502 503
3 422 503 423
3 423 503 504
3 423 504 424
3 424 504 505
3 424 505 425
3 425 505 506
3 425 506 426
3 426 506 507
3 426 507 427
3 427 507 508
3 427 508 428
3 428 508 509
3 428 509 429
3 429 509 510
3 429 510 430
3 430 510 511
3 430 511 431
3 431 511 512
3 431 512 432
3 432 512 513
3 432 513 433
3 433 513 514
3 433 514 434
3 434 514 515
3 434 515 435
3 435 515 516
3 435 516 436
3 436 516 517
3 436 517 437
3 437 517 518
3 437 518 438
3 438 518 519
3 438 519 439
3 439 519 520
3 439 520 440
3 440 520 521
3 440 521 441
3 441 521 522
3 441 522 442
3 442 522 523
3 442 523 443
3 443 523 524
3 443 524 444
3 444 524 525
3 444 525 445
3 445 525 526
3 445 526 446
3 446 526 527
3 446 527 447
3 447 527 528
3 447 528 448
3 448 528 529
3 448 529 449
3 449 529 530
3 449 530 450
3 450 530 531
3 450 531 451
3 451 531 532
3 451 532 452
3 452 532 533
3 452 533 453
3 453 533 534
3 453 534 454
3 454 534 535
3 454 535 455
3 455 535 536
3 455 536 456
3 456 536 537
3 456 537 457
3 457 537 538
3 457 538 458
3 458 538 539
3 458 539 459
3 459 539 540
3 459 540 460
3 460 540 541
3 460 541 461
3 461 541 542
3 461 542 462
3 462 542 543
3 462 543 463
3 463 543 544
3 463 544 464
3 464 544 545
3 464 545 465
3 465 545 546
3 465 546 466
3 466 546 547
3 466 547 467
3 467 547 548
3 467 548 468
3 468 548 549
3 468 549 469
3 469 549 550
3 469 550 470
3 470 550 551
3 470 551 471
3 471 551 552
3 471 552 472
3 472 552 553
3 472 553 473
3 473 553 554
3 473 554 474
3 474 554 555
3 474 555 475
3 475 555 556
3 475 556 476
3 476 556 557
3 476 557 477
3 477 557 558
3 477 558 478
3 478 558 559
3 478 559 479
3 479 559 560
3 479 560 480
