ply 
format ascii 1.0 
comment this is a surface 
element vertex 801 
property float x 
property float y 
property float z 
element face 1482 
property list uchar int vertex_index 
end_header 
226.773500 201.307875 -77.760000
230.500000 233.210000 -77.760000
227.640000 233.130000 -77.760000
224.960000 232.890000 -77.760000
222.440000 232.500000 -77.760000
220.080000 232.000000 -77.760000
217.870000 231.400000 -77.760000
215.840000 230.290000 -77.760000
213.990000 228.340000 -77.760000
212.310000 226.340000 -77.760000
210.800000 224.330000 -77.760000
209.400000 222.190000 -77.760000
208.040000 220.020000 -77.760000
206.660000 217.870000 -77.760000
205.170000 215.760000 -77.760000
203.730000 213.630000 -77.760000
202.540000 211.420000 -77.760000
201.670000 209.110000 -77.760000
200.850000 206.680000 -77.760000
200.130000 204.190000 -77.760000
199.580000 201.670000 -77.760000
199.280000 199.140000 -77.760000
199.320000 196.640000 -77.760000
199.660000 194.130000 -77.760000
200.110000 191.600000 -77.760000
200.500000 189.080000 -77.760000
200.730000 186.480000 -77.760000
200.890000 183.750000 -77.760000
201.030000 181.020000 -77.760000
201.190000 178.390000 -77.760000
201.410000 175.990000 -77.760000
201.750000 173.920000 -77.760000
202.910000 171.890000 -77.760000
205.060000 169.930000 -77.760000
207.600000 168.520000 -77.760000
209.980000 168.130000 -77.760000
212.610000 168.470000 -77.760000
215.460000 169.210000 -77.760000
218.020000 170.230000 -77.760000
219.800000 171.440000 -77.760000
220.620000 173.810000 -77.760000
221.250000 176.630000 -77.760000
222.600000 177.120000 -77.760000
225.040000 177.250000 -77.760000
228.000000 177.340000 -77.760000
230.860000 177.470000 -77.760000
233.410000 177.730000 -77.760000
235.980000 178.110000 -77.760000
238.510000 178.590000 -77.760000
240.930000 179.180000 -77.760000
243.250000 179.920000 -77.760000
245.600000 180.990000 -77.760000
247.910000 182.330000 -77.760000
250.110000 183.880000 -77.760000
252.120000 185.580000 -77.760000
253.860000 187.350000 -77.760000
255.350000 189.220000 -77.760000
256.840000 191.430000 -77.760000
258.030000 193.840000 -77.760000
258.560000 196.270000 -77.760000
258.250000 198.670000 -77.760000
257.450000 201.120000 -77.760000
256.530000 203.580000 -77.760000
255.770000 206.020000 -77.760000
255.040000 208.460000 -77.760000
254.290000 210.900000 -77.760000
253.500000 213.310000 -77.760000
252.640000 215.690000 -77.760000
251.710000 218.110000 -77.760000
250.720000 220.700000 -77.760000
249.650000 223.250000 -77.760000
248.440000 225.530000 -77.760000
247.080000 227.310000 -77.760000
245.480000 228.570000 -77.760000
243.590000 229.760000 -77.760000
241.440000 230.860000 -77.760000
239.030000 231.810000 -77.760000
236.390000 232.550000 -77.760000
233.540000 233.040000 -77.760000
230.500000 233.210000 -77.760000
230.500000 233.210000 -77.760000
229.080000 239.850000 -69.120000
229.080000 239.850000 -69.120000
229.080000 239.850000 -69.120000
225.550000 240.320000 -69.120000
222.140000 240.580000 -69.120000
218.860000 240.680000 -69.120000
215.750000 240.700000 -69.120000
212.710000 240.370000 -69.120000
209.590000 239.110000 -69.120000
206.540000 237.150000 -69.120000
203.710000 234.730000 -69.120000
201.250000 232.100000 -69.120000
199.310000 229.500000 -69.120000
197.900000 226.910000 -69.120000
196.750000 223.910000 -69.120000
195.760000 220.640000 -69.120000
194.870000 217.250000 -69.120000
194.000000 213.900000 -69.120000
193.150000 210.670000 -69.120000
192.360000 207.440000 -69.120000
191.330000 204.280000 -69.120000
189.950000 201.190000 -69.120000
188.480000 198.120000 -69.120000
187.180000 195.030000 -69.120000
186.310000 191.900000 -69.120000
186.000000 188.620000 -69.120000
185.810000 185.140000 -69.120000
185.680000 181.750000 -69.120000
185.690000 178.800000 -69.120000
186.880000 176.270000 -69.120000
189.290000 173.980000 -69.120000
192.330000 171.800000 -69.120000
195.410000 169.580000 -69.120000
197.950000 167.200000 -69.120000
199.960000 164.250000 -69.120000
201.800000 160.880000 -69.120000
203.630000 157.600000 -69.120000
205.600000 154.940000 -69.120000
207.880000 153.400000 -69.120000
210.830000 153.040000 -69.120000
214.290000 152.910000 -69.120000
217.390000 153.480000 -69.120000
220.420000 155.030000 -69.120000
223.290000 157.120000 -69.120000
225.930000 159.350000 -69.120000
228.190000 161.730000 -69.120000
230.290000 164.350000 -69.120000
232.820000 166.290000 -69.120000
235.630000 167.970000 -69.120000
238.660000 169.480000 -69.120000
241.800000 170.870000 -69.120000
244.980000 172.220000 -69.120000
248.120000 173.620000 -69.120000
251.130000 175.110000 -69.120000
253.930000 176.790000 -69.120000
256.430000 178.720000 -69.120000
258.820000 181.030000 -69.120000
261.030000 183.660000 -69.120000
262.860000 186.460000 -69.120000
264.250000 189.380000 -69.120000
265.570000 192.520000 -69.120000
266.640000 195.790000 -69.120000
267.260000 199.060000 -69.120000
267.150000 202.230000 -69.120000
266.060000 205.390000 -69.120000
264.620000 208.510000 -69.120000
263.360000 211.610000 -69.120000
262.080000 214.800000 -69.120000
260.720000 217.960000 -69.120000
259.230000 220.960000 -69.120000
257.550000 223.690000 -69.120000
255.580000 226.060000 -69.120000
253.140000 228.260000 -69.120000
250.370000 230.280000 -69.120000
247.440000 232.100000 -69.120000
244.520000 233.720000 -69.120000
241.610000 235.200000 -69.120000
238.610000 236.570000 -69.120000
235.520000 237.820000 -69.120000
232.340000 238.920000 -69.120000
227.400000 240.470000 -60.480000
227.400000 240.470000 -60.480000
227.400000 240.470000 -60.480000
223.780000 240.340000 -60.480000
220.190000 240.020000 -60.480000
216.630000 239.580000 -60.480000
213.110000 239.020000 -60.480000
209.620000 238.120000 -60.480000
206.170000 237.010000 -60.480000
202.700000 235.870000 -60.480000
199.180000 234.610000 -60.480000
197.200000 232.540000 -60.480000
195.830000 229.410000 -60.480000
194.730000 225.680000 -60.480000
193.620000 221.830000 -60.480000
192.230000 218.340000 -60.480000
190.440000 215.220000 -60.480000
188.380000 212.190000 -60.480000
186.080000 209.390000 -60.480000
183.450000 207.030000 -60.480000
180.270000 205.090000 -60.480000
177.910000 202.640000 -60.480000
175.790000 199.520000 -60.480000
174.260000 196.070000 -60.480000
173.850000 192.610000 -60.480000
174.030000 188.940000 -60.480000
174.420000 185.190000 -60.480000
174.980000 181.740000 -60.480000
176.290000 178.870000 -60.480000
179.040000 176.350000 -60.480000
182.010000 173.830000 -60.480000
184.210000 170.970000 -60.480000
186.090000 167.840000 -60.480000
188.030000 164.790000 -60.480000
190.340000 162.170000 -60.480000
193.050000 159.830000 -60.480000
196.000000 157.670000 -60.480000
199.010000 155.630000 -60.480000
202.000000 153.370000 -60.480000
205.090000 151.160000 -60.480000
208.320000 150.010000 -60.480000
211.850000 150.020000 -60.480000
215.540000 150.130000 -60.480000
218.900000 150.540000 -60.480000
222.080000 152.200000 -60.480000
225.080000 154.610000 -60.480000
227.850000 157.080000 -60.480000
230.230000 159.870000 -60.480000
232.400000 163.020000 -60.480000
234.770000 165.570000 -60.480000
237.760000 166.920000 -60.480000
241.340000 167.800000 -60.480000
244.940000 168.740000 -60.480000
248.230000 170.150000 -60.480000
251.390000 171.980000 -60.480000
254.310000 174.030000 -60.480000
257.280000 176.320000 -60.480000
260.100000 178.870000 -60.480000
262.240000 181.670000 -60.480000
263.390000 184.780000 -60.480000
264.200000 188.340000 -60.480000
264.730000 192.020000 -60.480000
265.060000 195.600000 -60.480000
265.320000 199.190000 -60.480000
265.450000 202.790000 -60.480000
265.330000 206.420000 -60.480000
264.880000 210.000000 -60.480000
264.040000 213.340000 -60.480000
262.390000 216.550000 -60.480000
260.230000 219.630000 -60.480000
257.920000 222.530000 -60.480000
255.640000 225.250000 -60.480000
253.080000 227.870000 -60.480000
250.300000 230.230000 -60.480000
247.380000 232.190000 -60.480000
244.180000 233.800000 -60.480000
240.830000 235.230000 -60.480000
237.490000 236.620000 -60.480000
234.160000 237.970000 -60.480000
230.800000 239.260000 -60.480000
226.510000 246.240000 -51.840000
226.510000 246.240000 -51.840000
222.520000 245.540000 -51.840000
222.520000 245.540000 -51.840000
218.510000 245.500000 -51.840000
214.510000 245.370000 -51.840000
210.540000 245.010000 -51.840000
206.590000 244.290000 -51.840000
202.540000 243.620000 -51.840000
198.670000 242.790000 -51.840000
195.680000 240.900000 -51.840000
193.080000 237.720000 -51.840000
190.700000 234.050000 -51.840000
188.370000 230.660000 -51.840000
186.050000 227.320000 -51.840000
184.600000 223.700000 -51.840000
183.740000 219.770000 -51.840000
182.770000 215.860000 -51.840000
181.540000 212.050000 -51.840000
180.210000 208.270000 -51.840000
178.810000 204.490000 -51.840000
177.090000 200.750000 -51.840000
175.790000 196.970000 -51.840000
175.600000 193.070000 -51.840000
175.770000 188.970000 -51.840000
176.070000 184.860000 -51.840000
176.500000 180.980000 -51.840000
177.510000 177.470000 -51.840000
179.830000 174.170000 -51.840000
182.740000 171.020000 -51.840000
185.480000 167.960000 -51.840000
188.360000 165.100000 -51.840000
191.360000 162.330000 -51.840000
193.990000 159.390000 -51.840000
195.880000 155.990000 -51.840000
197.390000 152.210000 -51.840000
199.170000 148.590000 -51.840000
201.380000 144.790000 -51.840000
204.230000 142.920000 -51.840000
208.230000 142.150000 -51.840000
212.390000 141.930000 -51.840000
216.430000 142.460000 -51.840000
220.340000 143.500000 -51.840000
223.750000 145.070000 -51.840000
226.800000 147.760000 -51.840000
229.850000 150.580000 -51.840000
233.140000 152.860000 -51.840000
236.550000 154.980000 -51.840000
239.940000 157.120000 -51.840000
243.150000 159.480000 -51.840000
246.180000 162.070000 -51.840000
249.130000 164.790000 -51.840000
252.080000 167.520000 -51.840000
255.160000 170.160000 -51.840000
258.360000 172.760000 -51.840000
261.480000 175.410000 -51.840000
264.370000 178.180000 -51.840000
266.840000 181.160000 -51.840000
268.870000 184.500000 -51.840000
270.530000 188.240000 -51.840000
271.470000 192.080000 -51.840000
272.200000 196.080000 -51.840000
272.630000 200.090000 -51.840000
272.450000 203.940000 -51.840000
271.000000 207.640000 -51.840000
269.050000 211.320000 -51.840000
267.530000 215.070000 -51.840000
266.550000 219.010000 -51.840000
265.570000 222.920000 -51.840000
264.110000 226.520000 -51.840000
261.870000 229.960000 -51.840000
259.170000 232.920000 -51.840000
255.900000 235.130000 -51.840000
252.430000 237.220000 -51.840000
249.110000 239.490000 -51.840000
245.650000 241.470000 -51.840000
242.040000 243.280000 -51.840000
238.300000 244.710000 -51.840000
234.440000 245.740000 -51.840000
230.470000 246.370000 -51.840000
225.950000 247.250000 -43.200000
221.720000 247.480000 -43.200000
221.720000 247.480000 -43.200000
217.360000 247.230000 -43.200000
212.940000 246.680000 -43.200000
208.590000 245.880000 -43.200000
204.440000 244.910000 -43.200000
200.560000 243.550000 -43.200000
196.810000 241.120000 -43.200000
193.440000 238.160000 -43.200000
190.670000 235.070000 -43.200000
188.370000 231.390000 -43.200000
186.320000 227.370000 -43.200000
184.270000 223.360000 -43.200000
181.980000 219.670000 -43.200000
179.190000 216.650000 -43.200000
175.520000 214.300000 -43.200000
171.860000 211.880000 -43.200000
168.130000 208.980000 -43.200000
164.860000 205.740000 -43.200000
164.080000 202.150000 -43.200000
164.190000 198.040000 -43.200000
164.400000 193.580000 -43.200000
164.710000 189.010000 -43.200000
165.110000 184.590000 -43.200000
165.850000 180.480000 -43.200000
167.560000 176.480000 -43.200000
169.800000 172.600000 -43.200000
172.050000 168.850000 -43.200000
174.350000 165.100000 -43.200000
176.920000 161.500000 -43.200000
179.780000 158.350000 -43.200000
183.700000 156.020000 -43.200000
187.550000 153.830000 -43.200000
188.850000 150.180000 -43.200000
189.680000 145.760000 -43.200000
192.110000 142.630000 -43.200000
196.020000 140.010000 -43.200000
200.040000 138.090000 -43.200000
204.140000 136.470000 -43.200000
208.420000 135.350000 -43.200000
212.650000 135.380000 -43.200000
216.940000 136.910000 -43.200000
220.440000 138.980000 -43.200000
223.620000 142.030000 -43.200000
226.330000 145.850000 -43.200000
228.070000 149.910000 -43.200000
228.660000 154.690000 -43.200000
229.230000 158.120000 -43.200000
232.020000 158.930000 -43.200000
236.890000 159.350000 -43.200000
242.270000 159.800000 -43.200000
246.620000 160.680000 -43.200000
250.080000 163.020000 -43.200000
253.250000 166.370000 -43.200000
256.150000 169.660000 -43.200000
258.790000 173.090000 -43.200000
261.270000 176.680000 -43.200000
263.830000 180.260000 -43.200000
266.560000 183.870000 -43.200000
268.220000 187.680000 -43.200000
268.790000 191.890000 -43.200000
269.070000 196.300000 -43.200000
269.000000 200.640000 -43.200000
268.690000 204.950000 -43.200000
267.900000 209.220000 -43.200000
267.050000 213.500000 -43.200000
266.090000 217.790000 -43.200000
264.830000 221.860000 -43.200000
262.840000 225.650000 -43.200000
260.130000 229.180000 -43.200000
257.150000 232.250000 -43.200000
253.700000 234.910000 -43.200000
250.040000 237.280000 -43.200000
246.320000 239.470000 -43.200000
242.470000 241.460000 -43.200000
238.480000 243.240000 -43.200000
238.480000 243.240000 -43.200000
234.320000 245.010000 -43.200000
230.150000 246.390000 -43.200000
227.520000 246.010000 -34.560000
227.520000 246.010000 -34.560000
223.020000 246.730000 -34.560000
223.020000 246.730000 -34.560000
218.550000 247.020000 -34.560000
214.120000 247.070000 -34.560000
209.670000 246.710000 -34.560000
205.240000 245.620000 -34.560000
200.980000 244.190000 -34.560000
196.880000 242.550000 -34.560000
192.770000 240.310000 -34.560000
188.950000 237.640000 -34.560000
185.710000 234.680000 -34.560000
183.210000 231.370000 -34.560000
181.140000 227.380000 -34.560000
179.300000 223.100000 -34.560000
177.550000 218.870000 -34.560000
176.100000 214.190000 -34.560000
174.090000 210.970000 -34.560000
169.530000 209.460000 -34.560000
164.380000 208.260000 -34.560000
161.800000 206.300000 -34.560000
160.750000 202.360000 -34.560000
160.080000 197.330000 -34.560000
159.950000 192.630000 -34.560000
160.260000 188.120000 -34.560000
160.850000 183.620000 -34.560000
161.610000 179.260000 -34.560000
162.770000 175.050000 -34.560000
164.670000 170.930000 -34.560000
167.000000 166.960000 -34.560000
169.460000 163.210000 -34.560000
172.380000 159.830000 -34.560000
175.590000 156.610000 -34.560000
178.150000 152.990000 -34.560000
180.010000 148.390000 -34.560000
181.670000 143.660000 -34.560000
183.620000 139.950000 -34.560000
186.440000 138.050000 -34.560000
190.610000 136.670000 -34.560000
195.450000 135.710000 -34.560000
200.130000 135.400000 -34.560000
204.720000 135.510000 -34.560000
209.320000 135.750000 -34.560000
213.540000 136.110000 -34.560000
217.330000 137.470000 -34.560000
220.870000 140.250000 -34.560000
224.240000 143.770000 -34.560000
227.480000 147.360000 -34.560000
230.570000 150.630000 -34.560000
233.520000 154.020000 -34.560000
236.830000 157.180000 -34.560000
240.640000 159.190000 -34.560000
245.160000 160.060000 -34.560000
249.190000 161.530000 -34.560000
252.810000 164.220000 -34.560000
256.110000 167.510000 -34.560000
259.060000 170.840000 -34.560000
261.700000 174.490000 -34.560000
264.100000 178.310000 -34.560000
266.190000 182.250000 -34.560000
268.280000 186.230000 -34.560000
270.500000 190.120000 -34.560000
272.150000 194.350000 -34.560000
272.460000 198.700000 -34.560000
271.520000 203.100000 -34.560000
270.580000 207.520000 -34.560000
270.020000 211.990000 -34.560000
269.160000 216.340000 -34.560000
267.580000 220.590000 -34.560000
265.620000 224.580000 -34.560000
263.170000 228.520000 -34.560000
260.240000 231.880000 -34.560000
256.540000 234.160000 -34.560000
252.430000 236.100000 -34.560000
248.410000 238.100000 -34.560000
244.360000 240.070000 -34.560000
240.270000 241.890000 -34.560000
236.120000 243.500000 -34.560000
231.860000 244.850000 -34.560000
228.020000 245.200000 -25.920000
223.230000 245.540000 -25.920000
223.230000 245.540000 -25.920000
218.570000 245.700000 -25.920000
218.570000 245.700000 -25.920000
213.950000 245.750000 -25.920000
209.380000 245.740000 -25.920000
204.770000 245.140000 -25.920000
200.210000 243.920000 -25.920000
195.860000 242.360000 -25.920000
191.830000 240.330000 -25.920000
188.110000 237.450000 -25.920000
184.720000 234.340000 -25.920000
181.580000 230.840000 -25.920000
178.440000 227.370000 -25.920000
175.060000 224.350000 -25.920000
171.170000 222.030000 -25.920000
166.910000 220.070000 -25.920000
162.740000 218.010000 -25.920000
158.600000 215.440000 -25.920000
154.500000 212.400000 -25.920000
153.550000 208.830000 -25.920000
153.610000 204.500000 -25.920000
153.730000 199.670000 -25.920000
153.910000 194.720000 -25.920000
154.170000 190.030000 -25.920000
155.450000 185.710000 -25.920000
157.610000 181.480000 -25.920000
159.570000 177.260000 -25.920000
161.490000 173.020000 -25.920000
162.630000 168.620000 -25.920000
163.210000 163.990000 -25.920000
164.250000 159.590000 -25.920000
166.220000 155.390000 -25.920000
168.590000 151.330000 -25.920000
170.880000 147.220000 -25.920000
173.280000 143.030000 -25.920000
176.070000 139.560000 -25.920000
179.560000 136.910000 -25.920000
183.760000 134.450000 -25.920000
188.300000 132.690000 -25.920000
192.790000 132.150000 -25.920000
197.440000 132.320000 -25.920000
202.250000 132.710000 -25.920000
206.940000 133.300000 -25.920000
211.220000 134.040000 -25.920000
214.920000 135.980000 -25.920000
218.280000 139.440000 -25.920000
221.690000 143.040000 -25.920000
225.540000 145.580000 -25.920000
229.890000 147.520000 -25.920000
234.010000 149.590000 -25.920000
237.170000 152.870000 -25.920000
239.730000 157.280000 -25.920000
243.210000 158.970000 -25.920000
248.100000 159.350000 -25.920000
251.990000 160.780000 -25.920000
255.310000 164.270000 -25.920000
258.270000 168.260000 -25.920000
261.190000 171.910000 -25.920000
264.080000 175.770000 -25.920000
266.440000 179.810000 -25.920000
267.770000 183.990000 -25.920000
268.590000 188.410000 -25.920000
269.270000 193.040000 -25.920000
269.790000 197.750000 -25.920000
270.120000 202.440000 -25.920000
270.180000 206.970000 -25.920000
269.230000 211.480000 -25.920000
267.360000 215.880000 -25.920000
265.230000 219.950000 -25.920000
262.530000 223.640000 -25.920000
259.270000 227.060000 -25.920000
255.950000 230.230000 -25.920000
252.410000 233.220000 -25.920000
248.710000 236.030000 -25.920000
244.940000 238.720000 -25.920000
241.060000 241.410000 -25.920000
236.940000 243.130000 -25.920000
232.590000 244.330000 -25.920000
231.050000 247.540000 -17.280000
226.460000 248.790000 -17.280000
221.760000 249.450000 -17.280000
217.000000 249.740000 -17.280000
217.000000 249.740000 -17.280000
217.000000 249.740000 -17.280000
212.270000 249.110000 -17.280000
207.620000 248.200000 -17.280000
203.000000 246.940000 -17.280000
198.560000 245.290000 -17.280000
194.290000 243.180000 -17.280000
190.130000 240.570000 -17.280000
186.350000 237.600000 -17.280000
183.210000 234.280000 -17.280000
180.810000 229.730000 -17.280000
178.630000 224.970000 -17.280000
176.040000 221.510000 -17.280000
172.290000 220.010000 -17.280000
167.270000 219.150000 -17.280000
161.990000 218.400000 -17.280000
157.460000 217.290000 -17.280000
154.060000 214.970000 -17.280000
150.950000 210.720000 -17.280000
149.400000 205.980000 -17.280000
149.570000 201.400000 -17.280000
150.080000 196.560000 -17.280000
150.790000 191.830000 -17.280000
152.230000 187.370000 -17.280000
154.240000 182.980000 -17.280000
155.970000 178.530000 -17.280000
157.200000 173.930000 -17.280000
158.540000 169.370000 -17.280000
160.130000 164.890000 -17.280000
161.810000 160.440000 -17.280000
163.350000 155.720000 -17.280000
165.010000 151.120000 -17.280000
167.970000 147.990000 -17.280000
171.450000 144.860000 -17.280000
174.060000 140.670000 -17.280000
177.160000 137.280000 -17.280000
181.160000 134.390000 -17.280000
185.580000 132.380000 -17.280000
190.150000 131.820000 -17.280000
195.010000 131.530000 -17.280000
199.690000 131.460000 -17.280000
204.010000 132.820000 -17.280000
208.190000 135.460000 -17.280000
212.340000 138.220000 -17.280000
216.540000 140.490000 -17.280000
220.740000 142.730000 -17.280000
225.120000 144.660000 -17.280000
229.830000 146.210000 -17.280000
233.780000 148.250000 -17.280000
236.470000 152.250000 -17.280000
239.240000 156.130000 -17.280000
243.350000 158.250000 -17.280000
247.950000 160.060000 -17.280000
251.850000 162.570000 -17.280000
255.400000 165.760000 -17.280000
258.700000 169.320000 -17.280000
261.750000 172.980000 -17.280000
264.720000 176.800000 -17.280000
267.050000 180.890000 -17.280000
268.790000 185.270000 -17.280000
270.370000 189.890000 -17.280000
271.540000 194.620000 -17.280000
272.050000 199.270000 -17.280000
271.490000 203.840000 -17.280000
269.860000 208.390000 -17.280000
267.840000 212.850000 -17.280000
265.910000 217.200000 -17.280000
263.720000 221.470000 -17.280000
261.240000 225.530000 -17.280000
258.460000 229.340000 -17.280000
255.320000 233.030000 -17.280000
251.880000 236.390000 -17.280000
248.200000 239.230000 -17.280000
244.040000 241.560000 -17.280000
239.740000 243.680000 -17.280000
235.450000 245.790000 -17.280000
229.500000 243.260000 -8.640000
224.990000 244.620000 -8.640000
220.410000 245.170000 -8.640000
215.740000 245.560000 -8.640000
210.990000 245.820000 -8.640000
210.990000 245.820000 -8.640000
206.140000 245.910000 -8.640000
206.140000 245.910000 -8.640000
201.570000 244.480000 -8.640000
197.150000 242.740000 -8.640000
192.900000 240.770000 -8.640000
188.860000 238.360000 -8.640000
184.960000 235.630000 -8.640000
180.990000 232.880000 -8.640000
176.770000 231.510000 -8.640000
171.990000 232.060000 -8.640000
167.210000 232.110000 -8.640000
162.250000 230.850000 -8.640000
158.250000 228.830000 -8.640000
155.870000 225.210000 -8.640000
153.800000 220.520000 -8.640000
150.780000 216.670000 -8.640000
148.030000 212.840000 -8.640000
147.000000 208.490000 -8.640000
146.280000 203.750000 -8.640000
145.890000 198.900000 -8.640000
145.900000 194.150000 -8.640000
146.350000 189.380000 -8.640000
147.090000 184.780000 -8.640000
148.980000 180.450000 -8.640000
151.070000 176.130000 -8.640000
152.660000 171.680000 -8.640000
154.130000 167.170000 -8.640000
155.500000 162.630000 -8.640000
156.630000 157.890000 -8.640000
157.730000 153.170000 -8.640000
159.230000 148.890000 -8.640000
161.940000 145.210000 -8.640000
165.650000 141.980000 -8.640000
169.430000 139.140000 -8.640000
173.530000 136.690000 -8.640000
177.770000 134.580000 -8.640000
182.180000 132.460000 -8.640000
186.700000 130.770000 -8.640000
191.270000 129.970000 -8.640000
195.960000 130.170000 -8.640000
200.740000 130.840000 -8.640000
205.320000 131.740000 -8.640000
209.680000 133.290000 -8.640000
213.920000 135.630000 -8.640000
217.950000 138.410000 -8.640000
221.680000 141.290000 -8.640000
224.920000 144.770000 -8.640000
228.180000 148.240000 -8.640000
232.090000 150.850000 -8.640000
236.280000 153.150000 -8.640000
240.720000 155.180000 -8.640000
244.890000 157.350000 -8.640000
248.280000 160.170000 -8.640000
251.350000 163.670000 -8.640000
254.160000 167.620000 -8.640000
256.730000 171.840000 -8.640000
259.080000 176.100000 -8.640000
261.270000 180.290000 -8.640000
263.250000 184.660000 -8.640000
264.470000 189.170000 -8.640000
265.380000 193.860000 -8.640000
265.880000 198.590000 -8.640000
265.710000 203.310000 -8.640000
264.920000 208.100000 -8.640000
263.740000 212.750000 -8.640000
262.360000 217.090000 -8.640000
260.170000 221.250000 -8.640000
257.220000 225.190000 -8.640000
253.920000 228.740000 -8.640000
250.500000 231.770000 -8.640000
246.610000 234.500000 -8.640000
242.430000 236.960000 -8.640000
238.180000 239.140000 -8.640000
233.910000 241.270000 -8.640000
233.010000 248.960000 0.000000
228.010000 249.490000 0.000000
223.130000 249.490000 0.000000
218.210000 249.490000 0.000000
218.210000 249.490000 0.000000
213.240000 249.260000 0.000000
208.360000 248.690000 0.000000
208.360000 248.690000 0.000000
203.600000 247.950000 0.000000
198.810000 246.850000 0.000000
194.010000 245.230000 0.000000
189.390000 243.200000 0.000000
185.120000 240.850000 0.000000
181.480000 237.660000 0.000000
178.310000 233.610000 0.000000
174.020000 233.740000 0.000000
168.920000 234.490000 0.000000
163.930000 234.710000 0.000000
158.870000 233.660000 0.000000
154.250000 231.810000 0.000000
150.650000 229.430000 0.000000
147.250000 225.690000 0.000000
144.390000 221.100000 0.000000
142.520000 216.310000 0.000000
141.790000 211.710000 0.000000
141.290000 206.830000 0.000000
140.970000 201.810000 0.000000
140.890000 196.890000 0.000000
141.490000 192.050000 0.000000
142.600000 187.230000 0.000000
143.740000 182.450000 0.000000
144.960000 177.690000 0.000000
146.460000 173.040000 0.000000
148.230000 168.370000 0.000000
150.330000 163.840000 0.000000
152.790000 159.720000 0.000000
156.090000 156.280000 0.000000
159.950000 153.080000 0.000000
163.200000 149.380000 0.000000
166.190000 145.380000 0.000000
169.330000 141.650000 0.000000
173.000000 138.540000 0.000000
177.200000 135.690000 0.000000
181.680000 133.960000 0.000000
186.510000 133.120000 0.000000
191.430000 132.740000 0.000000
196.210000 133.440000 0.000000
200.930000 135.230000 0.000000
205.380000 137.450000 0.000000
209.350000 140.130000 0.000000
213.010000 143.580000 0.000000
216.950000 146.380000 0.000000
221.370000 148.380000 0.000000
226.040000 150.070000 0.000000
230.720000 151.610000 0.000000
235.550000 152.840000 0.000000
240.240000 154.180000 0.000000
244.380000 156.540000 0.000000
248.140000 159.830000 0.000000
251.930000 163.120000 0.000000
255.730000 166.570000 0.000000
258.960000 170.270000 0.000000
261.140000 174.270000 0.000000
262.900000 178.730000 0.000000
264.410000 183.550000 0.000000
265.470000 188.510000 0.000000
265.870000 193.410000 0.000000
265.420000 198.240000 0.000000
264.470000 203.090000 0.000000
263.630000 207.950000 0.000000
262.960000 212.880000 0.000000
262.070000 217.600000 0.000000
260.380000 222.060000 0.000000
257.870000 226.370000 0.000000
254.910000 230.480000 0.000000
251.890000 234.360000 0.000000
248.790000 238.370000 0.000000
245.410000 242.380000 0.000000
241.720000 245.730000 0.000000
237.710000 247.760000 0.000000
3 0 79 2
3 0 2 3
3 0 3 4
3 0 4 5
3 0 5 6
3 0 6 7
3 0 7 8
3 0 8 9
3 0 9 10
3 0 10 11
3 0 11 12
3 0 12 13
3 0 13 14
3 0 14 15
3 0 15 16
3 0 16 17
3 0 17 18
3 0 18 19
3 0 19 20
3 0 20 21
3 0 21 22
3 0 22 23
3 0 23 24
3 0 24 25
3 0 25 26
3 0 26 27
3 0 27 28
3 0 28 29
3 0 29 30
3 0 30 31
3 0 31 32
3 0 32 33
3 0 33 34
3 0 34 35
3 0 35 36
3 0 36 37
3 0 37 38
3 0 38 39
3 0 39 40
3 0 40 41
3 0 41 42
3 0 42 43
3 0 43 44
3 0 44 45
3 0 45 46
3 0 46 47
3 0 47 48
3 0 48 49
3 0 49 50
3 0 50 51
3 0 51 52
3 0 52 53
3 0 53 54
3 0 54 55
3 0 55 56
3 0 56 57
3 0 57 58
3 0 58 59
3 0 59 60
3 0 60 61
3 0 61 62
3 0 62 63
3 0 63 64
3 0 64 65
3 0 65 66
3 0 66 67
3 0 67 68
3 0 68 69
3 0 69 70
3 0 70 71
3 0 71 72
3 0 72 73
3 0 73 74
3 0 74 75
3 0 75 76
3 0 76 77
3 0 77 78
3 0 78 79
3 79 81 2
3 2 81 3
3 3 81 84
3 3 84 4
3 4 84 85
3 4 85 5
3 5 85 86
3 5 86 6
3 6 86 87
3 6 87 7
3 7 87 88
3 7 88 8
3 8 88 89
3 8 89 9
3 9 89 90
3 9 90 10
3 10 90 91
3 10 91 11
3 11 91 92
3 11 92 12
3 12 92 93
3 12 93 13
3 13 93 94
3 13 94 14
3 14 94 95
3 14 95 15
3 15 95 96
3 15 96 16
3 16 96 97
3 16 97 17
3 17 97 98
3 17 98 18
3 18 98 99
3 18 99 19
3 19 99 100
3 19 100 20
3 20 100 101
3 20 101 21
3 21 101 102
3 21 102 22
3 22 102 103
3 22 103 23
3 23 103 104
3 23 104 24
3 24 104 105
3 24 105 25
3 25 105 106
3 25 106 26
3 26 106 107
3 26 107 27
3 27 107 108
3 27 108 28
3 28 108 109
3 28 109 29
3 29 109 110
3 29 110 30
3 30 110 111
3 30 111 31
3 31 111 112
3 31 112 32
3 32 112 113
3 32 113 33
3 33 113 114
3 33 114 34
3 34 114 115
3 34 115 35
3 35 115 116
3 35 116 36
3 36 116 117
3 36 117 37
3 37 117 118
3 37 118 38
3 38 118 119
3 38 119 39
3 39 119 120
3 39 120 40
3 40 120 121
3 40 121 41
3 41 121 122
3 41 122 42
3 42 122 123
3 42 123 43
3 43 123 124
3 43 124 44
3 44 124 125
3 44 125 45
3 45 125 126
3 45 126 46
3 46 126 127
3 46 127 47
3 47 127 128
3 47 128 48
3 48 128 129
3 48 129 49
3 49 129 130
3 49 130 50
3 50 130 131
3 50 131 51
3 51 131 132
3 51 132 52
3 52 132 133
3 52 133 53
3 53 133 134
3 53 134 54
3 54 134 135
3 54 135 55
3 55 135 136
3 55 136 56
3 56 136 137
3 56 137 57
3 57 137 138
3 57 138 58
3 58 138 139
3 58 139 59
3 59 139 140
3 59 140 60
3 60 140 141
3 60 141 61
3 61 141 142
3 61 142 62
3 62 142 143
3 62 143 63
3 63 143 144
3 63 144 64
3 64 144 145
3 64 145 65
3 65 145 146
3 65 146 66
3 66 146 147
3 66 147 67
3 67 147 148
3 67 148 68
3 68 148 149
3 68 149 69
3 69 149 150
3 69 150 70
3 70 150 151
3 70 151 71
3 71 151 152
3 71 152 72
3 72 152 153
3 72 153 73
3 73 153 154
3 73 154 74
3 74 154 155
3 74 155 75
3 75 155 156
3 75 156 76
3 76 156 157
3 76 157 77
3 77 157 158
3 77 158 78
3 78 158 159
3 78 159 79
3 79 159 160
3 79 160 81
3 81 161 164
3 81 164 84
3 84 164 165
3 84 165 85
3 85 165 166
3 85 166 86
3 86 166 167
3 86 167 87
3 87 167 168
3 87 168 88
3 88 168 169
3 88 169 89
3 89 169 170
3 89 170 90
3 90 170 171
3 90 171 91
3 91 171 172
3 91 172 92
3 92 172 173
3 92 173 93
3 93 173 174
3 93 174 94
3 94 174 175
3 94 175 95
3 95 175 176
3 95 176 96
3 96 176 177
3 96 177 97
3 97 177 178
3 97 178 98
3 98 178 179
3 98 179 99
3 99 179 180
3 99 180 100
3 100 180 181
3 100 181 101
3 101 181 182
3 101 182 102
3 102 182 183
3 102 183 103
3 103 183 184
3 103 184 104
3 104 184 185
3 104 185 105
3 105 185 186
3 105 186 106
3 106 186 187
3 106 187 107
3 107 187 188
3 107 188 108
3 108 188 189
3 108 189 109
3 109 189 190
3 109 190 110
3 110 190 191
3 110 191 111
3 111 191 192
3 111 192 112
3 112 192 193
3 112 193 113
3 113 193 194
3 113 194 114
3 114 194 195
3 114 195 115
3 115 195 196
3 115 196 116
3 116 196 197
3 116 197 117
3 117 197 198
3 117 198 118
3 118 198 199
3 118 199 119
3 119 199 200
3 119 200 120
3 120 200 201
3 120 201 121
3 121 201 202
3 121 202 122
3 122 202 203
3 122 203 123
3 123 203 204
3 123 204 124
3 124 204 205
3 124 205 125
3 125 205 206
3 125 206 126
3 126 206 207
3 126 207 127
3 127 207 208
3 127 208 128
3 128 208 209
3 128 209 129
3 129 209 210
3 129 210 130
3 130 210 211
3 130 211 131
3 131 211 212
3 131 212 132
3 132 212 213
3 132 213 133
3 133 213 214
3 133 214 134
3 134 214 215
3 134 215 135
3 135 215 216
3 135 216 136
3 136 216 217
3 136 217 137
3 137 217 218
3 137 218 138
3 138 218 219
3 138 219 139
3 139 219 220
3 139 220 140
3 140 220 221
3 140 221 141
3 141 221 222
3 141 222 142
3 142 222 223
3 142 223 143
3 143 223 224
3 143 224 144
3 144 224 225
3 144 225 145
3 145 225 226
3 145 226 146
3 146 226 227
3 146 227 147
3 147 227 228
3 147 228 148
3 148 228 229
3 148 229 149
3 149 229 230
3 149 230 150
3 150 230 231
3 150 231 151
3 151 231 232
3 151 232 152
3 152 232 233
3 152 233 153
3 153 233 234
3 153 234 154
3 154 234 235
3 154 235 155
3 155 235 236
3 155 236 156
3 156 236 237
3 156 237 157
3 157 237 238
3 157 238 158
3 158 238 239
3 158 239 159
3 159 239 240
3 159 240 160
3 160 240 161
3 160 161 81
3 161 241 243
3 161 243 164
3 164 243 245
3 164 245 165
3 165 245 246
3 165 246 166
3 166 246 247
3 166 247 167
3 167 247 248
3 167 248 168
3 168 248 249
3 168 249 169
3 169 249 250
3 169 250 170
3 170 250 251
3 170 251 171
3 171 251 252
3 171 252 172
3 172 252 253
3 172 253 173
3 173 253 254
3 173 254 174
3 174 254 255
3 174 255 175
3 175 255 256
3 175 256 176
3 176 256 257
3 176 257 177
3 177 257 258
3 177 258 178
3 178 258 259
3 178 259 179
3 179 259 260
3 179 260 180
3 180 260 261
3 180 261 181
3 181 261 262
3 181 262 182
3 182 262 263
3 182 263 183
3 183 263 264
3 183 264 184
3 184 264 265
3 184 265 185
3 185 265 266
3 185 266 186
3 186 266 267
3 186 267 187
3 187 267 268
3 187 268 188
3 188 268 269
3 188 269 189
3 189 269 270
3 189 270 190
3 190 270 271
3 190 271 191
3 191 271 272
3 191 272 192
3 192 272 273
3 192 273 193
3 193 273 274
3 193 274 194
3 194 274 275
3 194 275 195
3 195 275 276
3 195 276 196
3 196 276 277
3 196 277 197
3 197 277 278
3 197 278 198
3 198 278 279
3 198 279 199
3 199 279 280
3 199 280 200
3 200 280 281
3 200 281 201
3 201 281 282
3 201 282 202
3 202 282 283
3 202 283 203
3 203 283 284
3 203 284 204
3 204 284 285
3 204 285 205
3 205 285 286
3 205 286 206
3 206 286 287
3 206 287 207
3 207 287 288
3 207 288 208
3 208 288 289
3 208 289 209
3 209 289 290
3 209 290 210
3 210 290 291
3 210 291 211
3 211 291 292
3 211 292 212
3 212 292 293
3 212 293 213
3 213 293 294
3 213 294 214
3 214 294 295
3 214 295 215
3 215 295 296
3 215 296 216
3 216 296 297
3 216 297 217
3 217 297 298
3 217 298 218
3 218 298 299
3 218 299 219
3 219 299 300
3 219 300 220
3 220 300 301
3 220 301 221
3 221 301 302
3 221 302 222
3 222 302 303
3 222 303 223
3 223 303 304
3 223 304 224
3 224 304 305
3 224 305 225
3 225 305 306
3 225 306 226
3 226 306 307
3 226 307 227
3 227 307 308
3 227 308 228
3 228 308 309
3 228 309 229
3 229 309 310
3 229 310 230
3 230 310 311
3 230 311 231
3 231 311 312
3 231 312 232
3 232 312 313
3 232 313 233
3 233 313 314
3 233 314 234
3 234 314 315
3 234 315 235
3 235 315 316
3 235 316 236
3 236 316 317
3 236 317 237
3 237 317 318
3 237 318 238
3 238 318 319
3 238 319 239
3 239 319 320
3 239 320 240
3 240 320 241
3 240 241 161
3 241 321 322
3 241 322 243
3 243 322 324
3 243 324 325
3 243 325 245
3 245 325 326
3 245 326 246
3 246 326 327
3 246 327 247
3 247 327 328
3 247 328 248
3 248 328 329
3 248 329 249
3 249 329 330
3 249 330 250
3 250 330 331
3 250 331 251
3 251 331 332
3 251 332 252
3 252 332 333
3 252 333 253
3 253 333 334
3 253 334 254
3 254 334 335
3 254 335 255
3 255 335 336
3 255 336 256
3 256 336 337
3 256 337 257
3 257 337 338
3 257 338 258
3 258 338 339
3 258 339 259
3 259 339 340
3 259 340 260
3 260 340 341
3 260 341 261
3 261 341 342
3 261 342 262
3 262 342 343
3 262 343 263
3 263 343 344
3 263 344 264
3 264 344 345
3 264 345 265
3 265 345 346
3 265 346 266
3 266 346 347
3 266 347 267
3 267 347 348
3 267 348 268
3 268 348 349
3 268 349 269
3 269 349 350
3 269 350 270
3 270 350 351
3 270 351 271
3 271 351 352
3 271 352 272
3 272 352 353
3 272 353 273
3 273 353 354
3 273 354 274
3 274 354 355
3 274 355 275
3 275 355 356
3 275 356 276
3 276 356 357
3 276 357 277
3 277 357 358
3 277 358 278
3 278 358 359
3 278 359 279
3 279 359 360
3 279 360 280
3 280 360 361
3 280 361 281
3 281 361 362
3 281 362 282
3 282 362 363
3 282 363 283
3 283 363 364
3 283 364 284
3 284 364 365
3 284 365 285
3 285 365 366
3 285 366 286
3 286 366 367
3 286 367 287
3 287 367 368
3 287 368 288
3 288 368 369
3 288 369 289
3 289 369 370
3 289 370 290
3 290 370 371
3 290 371 291
3 291 371 372
3 291 372 292
3 292 372 373
3 292 373 293
3 293 373 374
3 293 374 294
3 294 374 375
3 294 375 295
3 295 375 376
3 295 376 296
3 296 376 377
3 296 377 297
3 297 377 378
3 297 378 298
3 298 378 379
3 298 379 299
3 299 379 380
3 299 380 300
3 300 380 381
3 300 381 301
3 301 381 382
3 301 382 302
3 302 382 383
3 302 383 303
3 303 383 384
3 303 384 304
3 304 384 385
3 304 385 305
3 305 385 386
3 305 386 306
3 306 386 387
3 306 387 307
3 307 387 388
3 307 388 308
3 308 388 389
3 308 389 309
3 309 389 390
3 309 390 310
3 310 390 391
3 310 391 311
3 311 391 392
3 311 392 312
3 312 392 393
3 312 393 313
3 313 393 394
3 313 394 314
3 314 394 395
3 314 395 315
3 315 395 396
3 315 396 316
3 316 396 397
3 316 397 317
3 317 397 318
3 318 397 399
3 318 399 319
3 319 399 400
3 319 400 320
3 320 400 321
3 320 321 241
3 321 401 322
3 322 401 403
3 322 403 324
3 324 403 405
3 324 405 325
3 325 405 406
3 325 406 326
3 326 406 407
3 326 407 327
3 327 407 408
3 327 408 328
3 328 408 409
3 328 409 329
3 329 409 410
3 329 410 330
3 330 410 411
3 330 411 331
3 331 411 412
3 331 412 332
3 332 412 413
3 332 413 333
3 333 413 414
3 333 414 334
3 334 414 415
3 334 415 335
3 335 415 416
3 335 416 336
3 336 416 417
3 336 417 337
3 337 417 418
3 337 418 338
3 338 418 419
3 338 419 339
3 339 419 420
3 339 420 340
3 340 420 421
3 340 421 341
3 341 421 422
3 341 422 342
3 342 422 423
3 342 423 343
3 343 423 424
3 343 424 344
3 344 424 425
3 344 425 345
3 345 425 426
3 345 426 346
3 346 426 427
3 346 427 347
3 347 427 428
3 347 428 348
3 348 428 429
3 348 429 349
3 349 429 430
3 349 430 350
3 350 430 431
3 350 431 351
3 351 431 432
3 351 432 352
3 352 432 433
3 352 433 353
3 353 433 434
3 353 434 354
3 354 434 435
3 354 435 355
3 355 435 436
3 355 436 356
3 356 436 437
3 356 437 357
3 357 437 438
3 357 438 358
3 358 438 439
3 358 439 359
3 359 439 440
3 359 440 360
3 360 440 441
3 360 441 361
3 361 441 442
3 361 442 362
3 362 442 443
3 362 443 363
3 363 443 444
3 363 444 364
3 364 444 445
3 364 445 365
3 365 445 446
3 365 446 366
3 366 446 447
3 366 447 367
3 367 447 448
3 367 448 368
3 368 448 449
3 368 449 369
3 369 449 450
3 369 450 370
3 370 450 451
3 370 451 371
3 371 451 452
3 371 452 372
3 372 452 453
3 372 453 373
3 373 453 454
3 373 454 374
3 374 454 455
3 374 455 375
3 375 455 456
3 375 456 376
3 376 456 457
3 376 457 377
3 377 457 458
3 377 458 378
3 378 458 459
3 378 459 379
3 379 459 460
3 379 460 380
3 380 460 461
3 380 461 381
3 381 461 462
3 381 462 382
3 382 462 463
3 382 463 383
3 383 463 464
3 383 464 384
3 384 464 465
3 384 465 385
3 385 465 466
3 385 466 386
3 386 466 467
3 386 467 387
3 387 467 468
3 387 468 388
3 388 468 469
3 388 469 389
3 389 469 470
3 389 470 390
3 390 470 471
3 390 471 391
3 391 471 472
3 391 472 392
3 392 472 473
3 392 473 393
3 393 473 474
3 393 474 394
3 394 474 475
3 394 475 395
3 395 475 476
3 395 476 396
3 396 476 477
3 396 477 397
3 397 477 478
3 397 478 479
3 397 479 399
3 399 479 480
3 399 480 400
3 400 480 401
3 400 401 321
3 401 481 482
3 401 482 403
3 403 482 484
3 403 484 405
3 405 484 486
3 405 486 406
3 406 486 487
3 406 487 407
3 407 487 488
3 407 488 408
3 408 488 489
3 408 489 409
3 409 489 490
3 409 490 410
3 410 490 491
3 410 491 411
3 411 491 492
3 411 492 412
3 412 492 493
3 412 493 413
3 413 493 494
3 413 494 414
3 414 494 495
3 414 495 415
3 415 495 496
3 415 496 416
3 416 496 497
3 416 497 417
3 417 497 498
3 417 498 418
3 418 498 499
3 418 499 419
3 419 499 500
3 419 500 420
3 420 500 501
3 420 501 421
3 421 501 502
3 421 502 422
3 422 502 503
3 422 503 423
3 423 503 504
3 423 504 424
3 424 504 505
3 424 505 425
3 425 505 506
3 425 506 426
3 426 506 507
3 426 507 427
3 427 507 508
3 427 508 428
3 428 508 509
3 428 509 429
3 429 509 510
3 429 510 430
3 430 510 511
3 430 511 431
3 431 511 512
3 431 512 432
3 432 512 513
3 432 513 433
3 433 513 514
3 433 514 434
3 434 514 515
3 434 515 435
3 435 515 516
3 435 516 436
3 436 516 517
3 436 517 437
3 437 517 518
3 437 518 438
3 438 518 519
3 438 519 439
3 439 519 520
3 439 520 440
3 440 520 521
3 440 521 441
3 441 521 522
3 441 522 442
3 442 522 523
3 442 523 443
3 443 523 524
3 443 524 444
3 444 524 525
3 444 525 445
3 445 525 526
3 445 526 446
3 446 526 527
3 446 527 447
3 447 527 528
3 447 528 448
3 448 528 529
3 448 529 449
3 449 529 530
3 449 530 450
3 450 530 531
3 450 531 451
3 451 531 532
3 451 532 452
3 452 532 533
3 452 533 453
3 453 533 534
3 453 534 454
3 454 534 535
3 454 535 455
3 455 535 536
3 455 536 456
3 456 536 537
3 456 537 457
3 457 537 538
3 457 538 458
3 458 538 539
3 458 539 459
3 459 539 540
3 459 540 460
3 460 540 541
3 460 541 461
3 461 541 542
3 461 542 462
3 462 542 543
3 462 543 463
3 463 543 544
3 463 544 464
3 464 544 545
3 464 545 465
3 465 545 546
3 465 546 466
3 466 546 547
3 466 547 467
3 467 547 548
3 467 548 468
3 468 548 549
3 468 549 469
3 469 549 550
3 469 550 470
3 470 550 551
3 470 551 471
3 471 551 552
3 471 552 472
3 472 552 553
3 472 553 473
3 473 553 554
3 473 554 474
3 474 554 555
3 474 555 475
3 475 555 556
3 475 556 476
3 476 556 557
3 476 557 477
3 477 557 558
3 477 558 478
3 478 558 559
3 478 559 479
3 479 559 560
3 479 560 480
3 480 560 481
3 480 481 401
3 481 561 562
3 481 562 482
3 482 562 563
3 482 563 564
3 482 564 484
3 484 564 486
3 486 564 567
3 486 567 487
3 487 567 568
3 487 568 488
3 488 568 569
3 488 569 489
3 489 569 570
3 489 570 490
3 490 570 571
3 490 571 491
3 491 571 572
3 491 572 492
3 492 572 573
3 492 573 493
3 493 573 574
3 493 574 494
3 494 574 575
3 494 575 495
3 495 575 576
3 495 576 496
3 496 576 577
3 496 577 497
3 497 577 578
3 497 578 498
3 498 578 579
3 498 579 499
3 499 579 580
3 499 580 500
3 500 580 581
3 500 581 501
3 501 581 582
3 501 582 502
3 502 582 583
3 502 583 503
3 503 583 584
3 503 584 504
3 504 584 585
3 504 585 505
3 505 585 586
3 505 586 506
3 506 586 587
3 506 587 507
3 507 587 588
3 507 588 508
3 508 588 589
3 508 589 509
3 509 589 590
3 509 590 510
3 510 590 591
3 510 591 511
3 511 591 592
3 511 592 512
3 512 592 593
3 512 593 513
3 513 593 594
3 513 594 514
3 514 594 595
3 514 595 515
3 515 595 596
3 515 596 516
3 516 596 597
3 516 597 517
3 517 597 598
3 517 598 518
3 518 598 599
3 518 599 519
3 519 599 600
3 519 600 520
3 520 600 601
3 520 601 521
3 521 601 602
3 521 602 522
3 522 602 603
3 522 603 523
3 523 603 604
3 523 604 524
3 524 604 605
3 524 605 525
3 525 605 606
3 525 606 526
3 526 606 607
3 526 607 527
3 527 607 608
3 527 608 528
3 528 608 609
3 528 609 529
3 529 609 610
3 529 610 530
3 530 610 611
3 530 611 531
3 531 611 612
3 531 612 532
3 532 612 613
3 532 613 533
3 533 613 614
3 533 614 534
3 534 614 615
3 534 615 535
3 535 615 616
3 535 616 536
3 536 616 617
3 536 617 537
3 537 617 618
3 537 618 538
3 538 618 619
3 538 619 539
3 539 619 620
3 539 620 540
3 540 620 621
3 540 621 541
3 541 621 622
3 541 622 542
3 542 622 623
3 542 623 543
3 543 623 624
3 543 624 544
3 544 624 625
3 544 625 545
3 545 625 626
3 545 626 546
3 546 626 627
3 546 627 547
3 547 627 628
3 547 628 548
3 548 628 629
3 548 629 549
3 549 629 630
3 549 630 550
3 550 630 631
3 550 631 551
3 551 631 632
3 551 632 552
3 552 632 633
3 552 633 553
3 553 633 634
3 553 634 554
3 554 634 635
3 554 635 555
3 555 635 636
3 555 636 556
3 556 636 637
3 556 637 557
3 557 637 638
3 557 638 558
3 558 638 639
3 558 639 559
3 559 639 640
3 559 640 560
3 560 640 561
3 560 561 481
3 561 641 642
3 561 642 562
3 562 642 643
3 562 643 563
3 563 643 644
3 563 644 564
3 564 644 645
3 564 645 647
3 564 647 567
3 567 647 568
3 568 647 649
3 568 649 569
3 569 649 650
3 569 650 570
3 570 650 651
3 570 651 571
3 571 651 652
3 571 652 572
3 572 652 653
3 572 653 573
3 573 653 654
3 573 654 574
3 574 654 655
3 574 655 575
3 575 655 656
3 575 656 576
3 576 656 657
3 576 657 577
3 577 657 658
3 577 658 578
3 578 658 659
3 578 659 579
3 579 659 660
3 579 660 580
3 580 660 661
3 580 661 581
3 581 661 662
3 581 662 582
3 582 662 663
3 582 663 583
3 583 663 664
3 583 664 584
3 584 664 665
3 584 665 585
3 585 665 666
3 585 666 586
3 586 666 667
3 586 667 587
3 587 667 668
3 587 668 588
3 588 668 669
3 588 669 589
3 589 669 670
3 589 670 590
3 590 670 671
3 590 671 591
3 591 671 672
3 591 672 592
3 592 672 673
3 592 673 593
3 593 673 674
3 593 674 594
3 594 674 675
3 594 675 595
3 595 675 676
3 595 676 596
3 596 676 677
3 596 677 597
3 597 677 678
3 597 678 598
3 598 678 679
3 598 679 599
3 599 679 680
3 599 680 600
3 600 680 681
3 600 681 601
3 601 681 682
3 601 682 602
3 602 682 683
3 602 683 603
3 603 683 684
3 603 684 604
3 604 684 685
3 604 685 605
3 605 685 686
3 605 686 606
3 606 686 687
3 606 687 607
3 607 687 688
3 607 688 608
3 608 688 689
3 608 689 609
3 609 689 690
3 609 690 610
3 610 690 691
3 610 691 611
3 611 691 692
3 611 692 612
3 612 692 693
3 612 693 613
3 613 693 694
3 613 694 614
3 614 694 695
3 614 695 615
3 615 695 696
3 615 696 616
3 616 696 697
3 616 697 617
3 617 697 698
3 617 698 618
3 618 698 699
3 618 699 619
3 619 699 700
3 619 700 620
3 620 700 701
3 620 701 621
3 621 701 702
3 621 702 622
3 622 702 703
3 622 703 623
3 623 703 704
3 623 704 624
3 624 704 705
3 624 705 625
3 625 705 706
3 625 706 626
3 626 706 707
3 626 707 627
3 627 707 708
3 627 708 628
3 628 708 709
3 628 709 629
3 629 709 710
3 629 710 630
3 630 710 711
3 630 711 631
3 631 711 712
3 631 712 632
3 632 712 713
3 632 713 633
3 633 713 714
3 633 714 634
3 634 714 715
3 634 715 635
3 635 715 716
3 635 716 636
3 636 716 717
3 636 717 637
3 637 717 718
3 637 718 638
3 638 718 719
3 638 719 639
3 639 719 720
3 639 720 640
3 640 720 641
3 640 641 561
3 641 721 722
3 641 722 642
3 642 722 723
3 642 723 643
3 643 723 724
3 643 724 644
3 644 724 645
3 645 724 726
3 645 726 727
3 645 727 647
3 647 727 729
3 647 729 649
3 649 729 730
3 649 730 650
3 650 730 731
3 650 731 651
3 651 731 732
3 651 732 652
3 652 732 733
3 652 733 653
3 653 733 734
3 653 734 654
3 654 734 735
3 654 735 655
3 655 735 736
3 655 736 656
3 656 736 737
3 656 737 657
3 657 737 738
3 657 738 658
3 658 738 739
3 658 739 659
3 659 739 740
3 659 740 660
3 660 740 741
3 660 741 661
3 661 741 742
3 661 742 662
3 662 742 743
3 662 743 663
3 663 743 744
3 663 744 664
3 664 744 745
3 664 745 665
3 665 745 746
3 665 746 666
3 666 746 747
3 666 747 667
3 667 747 748
3 667 748 668
3 668 748 749
3 668 749 669
3 669 749 750
3 669 750 670
3 670 750 751
3 670 751 671
3 671 751 752
3 671 752 672
3 672 752 753
3 672 753 673
3 673 753 754
3 673 754 674
3 674 754 755
3 674 755 675
3 675 755 756
3 675 756 676
3 676 756 757
3 676 757 677
3 677 757 758
3 677 758 678
3 678 758 759
3 678 759 679
3 679 759 760
3 679 760 680
3 680 760 761
3 680 761 681
3 681 761 762
3 681 762 682
3 682 762 763
3 682 763 683
3 683 763 764
3 683 764 684
3 684 764 765
3 684 765 685
3 685 765 766
3 685 766 686
3 686 766 767
3 686 767 687
3 687 767 768
3 687 768 688
3 688 768 769
3 688 769 689
3 689 769 770
3 689 770 690
3 690 770 771
3 690 771 691
3 691 771 772
3 691 772 692
3 692 772 773
3 692 773 693
3 693 773 774
3 693 774 694
3 694 774 775
3 694 775 695
3 695 775 776
3 695 776 696
3 696 776 777
3 696 777 697
3 697 777 778
3 697 778 698
3 698 778 779
3 698 779 699
3 699 779 780
3 699 780 700
3 700 780 781
3 700 781 701
3 701 781 782
3 701 782 702
3 702 782 783
3 702 783 703
3 703 783 784
3 703 784 704
3 704 784 785
3 704 785 705
3 705 785 786
3 705 786 706
3 706 786 787
3 706 787 707
3 707 787 788
3 707 788 708
3 708 788 789
3 708 789 709
3 709 789 790
3 709 790 710
3 710 790 791
3 710 791 711
3 711 791 792
3 711 792 712
3 712 792 793
3 712 793 713
3 713 793 794
3 713 794 714
3 714 794 795
3 714 795 715
3 715 795 796
3 715 796 716
3 716 796 797
3 716 797 717
3 717 797 798
3 717 798 718
3 718 798 799
3 718 799 719
3 719 799 800
3 719 800 720
3 720 800 721
3 720 721 641
