ply 
format ascii 1.0 
comment this is a surface 
element vertex 801 
property float x 
property float y 
property float z 
element face 1482 
property list uchar int vertex_index 
end_header 
210.000500 177.753125 -77.760000
210.790000 181.070000 -77.760000
210.310000 181.180000 -77.760000
209.850000 181.280000 -77.760000
209.380000 181.390000 -77.760000
208.910000 181.490000 -77.760000
208.440000 181.590000 -77.760000
207.970000 181.680000 -77.760000
207.500000 181.770000 -77.760000
207.030000 181.860000 -77.760000
206.560000 181.950000 -77.760000
206.090000 182.040000 -77.760000
205.620000 182.120000 -77.760000
205.140000 182.190000 -77.760000
204.670000 182.270000 -77.760000
204.190000 182.340000 -77.760000
203.720000 182.410000 -77.760000
203.720000 182.410000 -77.760000
203.730000 181.770000 -77.760000
203.750000 181.130000 -77.760000
203.800000 180.510000 -77.760000
203.860000 179.900000 -77.760000
203.930000 179.320000 -77.760000
204.020000 178.750000 -77.760000
204.120000 178.200000 -77.760000
204.240000 177.680000 -77.760000
204.360000 177.190000 -77.760000
204.500000 176.720000 -77.760000
204.640000 176.290000 -77.760000
204.790000 175.890000 -77.760000
204.950000 175.530000 -77.760000
205.120000 175.220000 -77.760000
205.290000 174.940000 -77.760000
205.470000 174.710000 -77.760000
205.650000 174.530000 -77.760000
205.880000 174.370000 -77.760000
206.190000 174.210000 -77.760000
206.560000 174.060000 -77.760000
206.990000 173.910000 -77.760000
207.470000 173.770000 -77.760000
207.990000 173.640000 -77.760000
208.540000 173.510000 -77.760000
209.110000 173.400000 -77.760000
209.690000 173.290000 -77.760000
210.280000 173.190000 -77.760000
210.860000 173.110000 -77.760000
211.420000 173.030000 -77.760000
211.950000 172.970000 -77.760000
212.460000 172.910000 -77.760000
212.920000 172.880000 -77.760000
213.320000 172.850000 -77.760000
213.670000 172.840000 -77.760000
213.970000 172.890000 -77.760000
214.290000 173.070000 -77.760000
214.600000 173.360000 -77.760000
214.910000 173.730000 -77.760000
215.220000 174.190000 -77.760000
215.510000 174.700000 -77.760000
215.800000 175.260000 -77.760000
216.060000 175.840000 -77.760000
216.310000 176.430000 -77.760000
216.530000 177.000000 -77.760000
216.720000 177.560000 -77.760000
216.870000 178.070000 -77.760000
217.000000 178.520000 -77.760000
217.070000 178.890000 -77.760000
217.110000 179.170000 -77.760000
217.070000 179.370000 -77.760000
216.920000 179.560000 -77.760000
216.670000 179.730000 -77.760000
216.320000 179.880000 -77.760000
215.900000 180.030000 -77.760000
215.410000 180.170000 -77.760000
214.870000 180.300000 -77.760000
214.290000 180.420000 -77.760000
213.690000 180.540000 -77.760000
213.080000 180.650000 -77.760000
212.470000 180.760000 -77.760000
211.870000 180.860000 -77.760000
211.310000 180.970000 -77.760000
210.790000 181.070000 -77.760000
204.550000 175.160000 -69.120000
203.450000 176.080000 -69.120000
202.400000 177.030000 -69.120000
201.410000 178.010000 -69.120000
200.490000 179.010000 -69.120000
199.640000 180.010000 -69.120000
198.890000 181.150000 -69.120000
198.190000 182.560000 -69.120000
197.550000 184.150000 -69.120000
196.950000 185.780000 -69.120000
196.370000 187.350000 -69.120000
195.800000 188.740000 -69.120000
195.220000 189.830000 -69.120000
194.630000 190.500000 -69.120000
193.990000 190.630000 -69.120000
193.230000 190.120000 -69.120000
192.370000 189.080000 -69.120000
191.520000 187.690000 -69.120000
190.760000 186.120000 -69.120000
190.190000 184.530000 -69.120000
189.910000 183.100000 -69.120000
189.990000 181.900000 -69.120000
190.450000 180.710000 -69.120000
191.180000 179.530000 -69.120000
192.070000 178.360000 -69.120000
193.030000 177.200000 -69.120000
193.950000 176.060000 -69.120000
194.750000 174.930000 -69.120000
195.550000 173.820000 -69.120000
196.380000 172.720000 -69.120000
197.230000 171.640000 -69.120000
198.080000 170.560000 -69.120000
198.930000 169.480000 -69.120000
199.780000 168.400000 -69.120000
200.600000 167.300000 -69.120000
201.390000 166.150000 -69.120000
202.150000 164.910000 -69.120000
202.880000 163.630000 -69.120000
203.600000 162.330000 -69.120000
204.340000 161.070000 -69.120000
205.100000 159.880000 -69.120000
205.910000 158.790000 -69.120000
206.770000 157.830000 -69.120000
207.700000 157.060000 -69.120000
208.760000 156.450000 -69.120000
210.020000 155.870000 -69.120000
211.400000 155.340000 -69.120000
212.800000 154.930000 -69.120000
214.150000 154.700000 -69.120000
215.360000 154.740000 -69.120000
216.530000 155.210000 -69.120000
217.680000 156.010000 -69.120000
218.780000 157.030000 -69.120000
219.830000 158.140000 -69.120000
220.810000 159.220000 -69.120000
221.720000 160.210000 -69.120000
222.600000 161.230000 -69.120000
223.430000 162.300000 -69.120000
224.220000 163.430000 -69.120000
224.970000 164.610000 -69.120000
225.660000 165.830000 -69.120000
226.300000 167.100000 -69.120000
226.300000 167.100000 -69.120000
224.860000 167.230000 -69.120000
223.440000 167.420000 -69.120000
222.040000 167.660000 -69.120000
220.670000 167.950000 -69.120000
219.310000 168.290000 -69.120000
217.980000 168.660000 -69.120000
216.660000 169.070000 -69.120000
215.380000 169.500000 -69.120000
214.110000 169.960000 -69.120000
212.870000 170.440000 -69.120000
211.660000 170.930000 -69.120000
210.460000 171.440000 -69.120000
209.260000 172.040000 -69.120000
208.060000 172.720000 -69.120000
208.060000 172.720000 -69.120000
206.870000 173.470000 -69.120000
205.700000 174.290000 -69.120000
206.670000 177.630000 -60.480000
205.790000 179.590000 -60.480000
204.770000 181.290000 -60.480000
203.680000 182.910000 -60.480000
203.680000 182.910000 -60.480000
202.520000 184.510000 -60.480000
201.310000 186.070000 -60.480000
200.070000 187.600000 -60.480000
198.800000 189.090000 -60.480000
197.490000 190.560000 -60.480000
196.150000 192.000000 -60.480000
194.750000 193.400000 -60.480000
193.320000 194.750000 -60.480000
191.850000 196.030000 -60.480000
190.160000 197.390000 -60.480000
188.220000 198.870000 -60.480000
186.240000 200.300000 -60.480000
184.430000 201.530000 -60.480000
183.000000 202.380000 -60.480000
182.180000 202.680000 -60.480000
181.720000 202.120000 -60.480000
181.300000 200.690000 -60.480000
180.950000 198.620000 -60.480000
180.660000 196.180000 -60.480000
180.440000 193.590000 -60.480000
180.310000 191.120000 -60.480000
180.270000 189.010000 -60.480000
180.450000 187.090000 -60.480000
180.890000 185.170000 -60.480000
181.520000 183.260000 -60.480000
182.290000 181.370000 -60.480000
183.120000 179.540000 -60.480000
183.950000 177.780000 -60.480000
184.790000 176.080000 -60.480000
185.780000 174.430000 -60.480000
186.880000 172.810000 -60.480000
188.080000 171.230000 -60.480000
189.360000 169.680000 -60.480000
190.680000 168.170000 -60.480000
192.030000 166.680000 -60.480000
193.380000 165.220000 -60.480000
194.710000 163.790000 -60.480000
196.060000 162.360000 -60.480000
197.460000 160.940000 -60.480000
198.890000 159.550000 -60.480000
200.370000 158.230000 -60.480000
201.890000 156.990000 -60.480000
203.460000 155.870000 -60.480000
205.110000 154.780000 -60.480000
206.870000 153.620000 -60.480000
208.680000 152.550000 -60.480000
210.500000 151.730000 -60.480000
212.280000 151.300000 -60.480000
214.000000 151.460000 -60.480000
215.700000 152.290000 -60.480000
217.380000 153.540000 -60.480000
219.020000 154.930000 -60.480000
220.600000 156.190000 -60.480000
222.130000 157.390000 -60.480000
223.630000 158.630000 -60.480000
225.100000 159.930000 -60.480000
226.540000 161.280000 -60.480000
227.930000 162.680000 -60.480000
229.290000 164.120000 -60.480000
230.610000 165.620000 -60.480000
230.610000 165.620000 -60.480000
228.090000 165.670000 -60.480000
225.690000 165.800000 -60.480000
223.400000 166.020000 -60.480000
221.230000 166.310000 -60.480000
219.200000 166.670000 -60.480000
217.300000 167.100000 -60.480000
215.540000 167.580000 -60.480000
213.930000 168.120000 -60.480000
212.470000 168.710000 -60.480000
211.170000 169.340000 -60.480000
210.040000 170.200000 -60.480000
209.090000 171.630000 -60.480000
208.260000 173.470000 -60.480000
207.470000 175.530000 -60.480000
198.820000 168.740000 -51.840000
197.170000 170.380000 -51.840000
195.590000 172.110000 -51.840000
194.050000 173.880000 -51.840000
192.570000 175.670000 -51.840000
191.080000 177.450000 -51.840000
189.550000 179.260000 -51.840000
188.020000 181.100000 -51.840000
186.560000 182.970000 -51.840000
185.220000 184.890000 -51.840000
184.060000 186.860000 -51.840000
183.130000 188.890000 -51.840000
182.430000 191.260000 -51.840000
181.860000 194.160000 -51.840000
181.370000 197.120000 -51.840000
180.900000 199.670000 -51.840000
180.410000 201.350000 -51.840000
179.830000 201.680000 -51.840000
179.030000 200.300000 -51.840000
178.180000 197.780000 -51.840000
177.510000 194.850000 -51.840000
177.250000 192.230000 -51.840000
177.320000 189.890000 -51.840000
177.490000 187.480000 -51.840000
177.750000 185.140000 -51.840000
178.070000 182.960000 -51.840000
178.710000 181.000000 -51.840000
179.990000 179.190000 -51.840000
181.670000 177.460000 -51.840000
183.530000 175.770000 -51.840000
185.330000 174.060000 -51.840000
186.890000 172.300000 -51.840000
188.440000 170.550000 -51.840000
190.030000 168.820000 -51.840000
191.630000 167.100000 -51.840000
193.220000 165.370000 -51.840000
194.760000 163.610000 -51.840000
196.220000 161.820000 -51.840000
197.590000 159.990000 -51.840000
198.830000 158.090000 -51.840000
199.890000 156.030000 -51.840000
200.750000 153.730000 -51.840000
201.560000 151.390000 -51.840000
202.470000 149.260000 -51.840000
203.610000 147.560000 -51.840000
205.270000 146.080000 -51.840000
207.390000 144.690000 -51.840000
209.680000 143.660000 -51.840000
211.820000 143.280000 -51.840000
213.760000 143.800000 -51.840000
215.660000 145.060000 -51.840000
217.530000 146.720000 -51.840000
219.400000 148.480000 -51.840000
221.290000 150.000000 -51.840000
223.430000 151.390000 -51.840000
225.870000 152.850000 -51.840000
228.400000 154.330000 -51.840000
230.820000 155.780000 -51.840000
232.920000 157.150000 -51.840000
234.510000 158.390000 -51.840000
235.380000 159.460000 -51.840000
235.380000 159.460000 -51.840000
234.890000 160.300000 -51.840000
232.090000 160.940000 -51.840000
232.090000 160.940000 -51.840000
230.090000 159.460000 -51.840000
228.030000 158.310000 -51.840000
225.890000 157.970000 -51.840000
223.610000 158.000000 -51.840000
221.240000 158.090000 -51.840000
218.840000 158.220000 -51.840000
216.510000 158.400000 -51.840000
214.300000 158.620000 -51.840000
212.250000 159.350000 -51.840000
210.290000 160.660000 -51.840000
208.360000 162.180000 -51.840000
206.400000 163.520000 -51.840000
204.380000 164.690000 -51.840000
202.380000 165.890000 -51.840000
200.540000 167.230000 -51.840000
200.340000 169.580000 -43.200000
198.620000 171.720000 -43.200000
196.790000 173.710000 -43.200000
194.770000 175.520000 -43.200000
194.770000 175.520000 -43.200000
192.710000 177.290000 -43.200000
190.800000 179.150000 -43.200000
189.170000 181.190000 -43.200000
187.620000 183.390000 -43.200000
186.170000 185.700000 -43.200000
184.860000 188.100000 -43.200000
183.700000 190.530000 -43.200000
182.730000 192.990000 -43.200000
181.770000 195.510000 -43.200000
180.850000 198.090000 -43.200000
180.080000 200.720000 -43.200000
179.560000 203.360000 -43.200000
179.400000 206.000000 -43.200000
179.760000 209.230000 -43.200000
180.400000 212.650000 -43.200000
180.970000 215.140000 -43.200000
181.010000 215.690000 -43.200000
179.500000 215.000000 -43.200000
176.780000 213.650000 -43.200000
173.570000 211.820000 -43.200000
170.620000 209.740000 -43.200000
168.660000 207.590000 -43.200000
168.260000 205.550000 -43.200000
168.260000 203.260000 -43.200000
168.260000 200.690000 -43.200000
168.260000 197.920000 -43.200000
168.260000 195.030000 -43.200000
168.260000 192.110000 -43.200000
168.260000 189.240000 -43.200000
168.260000 186.510000 -43.200000
168.440000 183.940000 -43.200000
169.190000 181.410000 -43.200000
170.350000 178.920000 -43.200000
171.700000 176.460000 -43.200000
173.030000 174.050000 -43.200000
174.240000 171.670000 -43.200000
175.510000 169.320000 -43.200000
176.860000 167.000000 -43.200000
178.280000 164.720000 -43.200000
179.770000 162.470000 -43.200000
181.330000 160.260000 -43.200000
181.330000 160.260000 -43.200000
184.030000 159.310000 -43.200000
186.540000 158.110000 -43.200000
188.820000 156.710000 -43.200000
190.860000 155.160000 -43.200000
192.590000 153.350000 -43.200000
194.030000 151.060000 -43.200000
195.400000 148.630000 -43.200000
196.930000 146.400000 -43.200000
198.760000 144.250000 -43.200000
200.780000 142.060000 -43.200000
202.970000 140.680000 -43.200000
205.350000 140.580000 -43.200000
208.100000 140.760000 -43.200000
211.020000 141.070000 -43.200000
213.890000 141.500000 -43.200000
216.490000 142.020000 -43.200000
218.620000 142.650000 -43.200000
220.690000 144.170000 -43.200000
222.740000 146.540000 -43.200000
224.590000 149.330000 -43.200000
226.020000 152.080000 -43.200000
226.840000 154.320000 -43.200000
226.670000 155.710000 -43.200000
224.700000 156.700000 -43.200000
221.620000 157.540000 -43.200000
218.350000 158.390000 -43.200000
215.680000 159.380000 -43.200000
213.150000 160.420000 -43.200000
210.630000 161.500000 -43.200000
208.190000 162.670000 -43.200000
205.920000 163.990000 -43.200000
203.890000 165.530000 -43.200000
202.060000 167.450000 -43.200000
196.860000 166.870000 -34.560000
194.860000 168.690000 -34.560000
194.860000 168.690000 -34.560000
192.980000 170.610000 -34.560000
191.220000 172.670000 -34.560000
189.540000 174.840000 -34.560000
187.910000 177.070000 -34.560000
186.320000 179.300000 -34.560000
184.670000 181.500000 -34.560000
182.970000 183.720000 -34.560000
181.390000 185.980000 -34.560000
180.080000 188.330000 -34.560000
179.160000 190.920000 -34.560000
178.500000 194.100000 -34.560000
177.990000 197.560000 -34.560000
177.520000 200.930000 -34.560000
176.990000 203.860000 -34.560000
176.280000 205.980000 -34.560000
175.300000 206.930000 -34.560000
173.070000 207.060000 -34.560000
169.800000 207.140000 -34.560000
167.540000 207.040000 -34.560000
165.770000 205.520000 -34.560000
164.200000 202.810000 -34.560000
163.060000 199.620000 -34.560000
162.590000 196.660000 -34.560000
162.690000 194.080000 -34.560000
163.010000 191.420000 -34.560000
163.510000 188.710000 -34.560000
164.130000 185.980000 -34.560000
164.830000 183.250000 -34.560000
165.580000 180.560000 -34.560000
166.310000 177.940000 -34.560000
167.120000 175.330000 -34.560000
168.070000 172.720000 -34.560000
169.140000 170.170000 -34.560000
170.330000 167.710000 -34.560000
171.630000 165.390000 -34.560000
173.210000 163.230000 -34.560000
175.030000 161.180000 -34.560000
176.950000 159.170000 -34.560000
178.820000 157.130000 -34.560000
180.530000 154.990000 -34.560000
182.180000 152.790000 -34.560000
183.880000 150.640000 -34.560000
185.720000 148.680000 -34.560000
187.720000 146.780000 -34.560000
189.830000 144.900000 -34.560000
192.050000 143.190000 -34.560000
194.370000 141.800000 -34.560000
196.790000 140.830000 -34.560000
199.410000 139.980000 -34.560000
202.150000 139.280000 -34.560000
204.860000 138.880000 -34.560000
207.470000 138.920000 -34.560000
210.060000 139.520000 -34.560000
212.640000 140.570000 -34.560000
215.170000 141.900000 -34.560000
217.630000 143.400000 -34.560000
219.960000 144.900000 -34.560000
222.280000 146.450000 -34.560000
224.880000 148.530000 -34.560000
227.500000 150.870000 -34.560000
229.810000 153.130000 -34.560000
231.480000 154.970000 -34.560000
232.190000 156.040000 -34.560000
231.000000 156.500000 -34.560000
227.880000 156.840000 -34.560000
224.370000 157.020000 -34.560000
221.560000 157.040000 -34.560000
218.790000 157.040000 -34.560000
216.060000 157.040000 -34.560000
213.440000 157.110000 -34.560000
210.870000 157.710000 -34.560000
208.350000 158.820000 -34.560000
205.890000 160.280000 -34.560000
203.500000 161.960000 -34.560000
203.500000 161.960000 -34.560000
201.190000 163.500000 -34.560000
198.970000 165.140000 -34.560000
197.150000 168.410000 -25.920000
194.460000 170.280000 -25.920000
194.460000 170.280000 -25.920000
192.680000 173.030000 -25.920000
190.840000 175.740000 -25.920000
188.960000 178.410000 -25.920000
188.960000 178.410000 -25.920000
187.020000 181.050000 -25.920000
184.910000 183.580000 -25.920000
182.790000 186.100000 -25.920000
180.940000 188.750000 -25.920000
179.270000 191.570000 -25.920000
177.640000 194.510000 -25.920000
176.220000 197.540000 -25.920000
175.170000 200.640000 -25.920000
174.650000 203.780000 -25.920000
174.330000 207.020000 -25.920000
174.140000 210.320000 -25.920000
174.130000 213.820000 -25.920000
174.240000 218.070000 -25.920000
174.330000 220.760000 -25.920000
172.790000 220.680000 -25.920000
168.660000 219.980000 -25.920000
165.810000 218.880000 -25.920000
163.480000 216.590000 -25.920000
161.490000 213.530000 -25.920000
160.070000 210.300000 -25.920000
159.270000 207.280000 -25.920000
158.600000 204.040000 -25.920000
158.040000 200.660000 -25.920000
157.640000 197.300000 -25.920000
157.420000 194.090000 -25.920000
157.790000 191.170000 -25.920000
159.810000 188.490000 -25.920000
162.300000 185.870000 -25.920000
163.840000 183.060000 -25.920000
164.350000 179.980000 -25.920000
164.680000 176.720000 -25.920000
164.950000 173.380000 -25.920000
165.290000 170.050000 -25.920000
165.820000 166.830000 -25.920000
166.580000 163.650000 -25.920000
167.500000 160.490000 -25.920000
168.500000 157.370000 -25.920000
169.500000 154.190000 -25.920000
170.560000 150.890000 -25.920000
171.770000 147.780000 -25.920000
173.270000 145.190000 -25.920000
175.380000 143.110000 -25.920000
178.150000 141.270000 -25.920000
181.240000 139.630000 -25.920000
184.330000 138.170000 -25.920000
187.290000 136.670000 -25.920000
190.340000 135.240000 -25.920000
193.470000 134.510000 -25.920000
196.720000 134.570000 -25.920000
200.090000 134.770000 -25.920000
203.390000 135.080000 -25.920000
206.410000 135.530000 -25.920000
209.200000 136.840000 -25.920000
211.850000 138.930000 -25.920000
214.400000 141.350000 -25.920000
216.890000 143.630000 -25.920000
219.270000 145.870000 -25.920000
221.580000 148.190000 -25.920000
224.080000 150.500000 -25.920000
227.260000 153.160000 -25.920000
230.320000 155.670000 -25.920000
232.190000 157.360000 -25.920000
231.980000 157.860000 -25.920000
229.890000 158.090000 -25.920000
226.490000 158.230000 -25.920000
222.340000 158.340000 -25.920000
218.020000 158.480000 -25.920000
214.060000 158.730000 -25.920000
210.920000 159.280000 -25.920000
208.100000 160.960000 -25.920000
205.360000 163.020000 -25.920000
202.600000 164.790000 -25.920000
199.860000 166.580000 -25.920000
194.450000 166.110000 -17.280000
192.050000 168.370000 -17.280000
189.610000 170.640000 -17.280000
187.240000 172.970000 -17.280000
187.240000 172.970000 -17.280000
185.020000 175.380000 -17.280000
183.060000 177.920000 -17.280000
181.300000 180.640000 -17.280000
179.630000 183.510000 -17.280000
178.130000 186.500000 -17.280000
176.850000 189.540000 -17.280000
175.830000 192.610000 -17.280000
174.850000 195.750000 -17.280000
173.950000 198.960000 -17.280000
173.240000 202.200000 -17.280000
172.830000 205.460000 -17.280000
172.770000 208.920000 -17.280000
172.770000 213.200000 -17.280000
172.770000 216.970000 -17.280000
172.770000 218.630000 -17.280000
171.180000 218.420000 -17.280000
167.360000 217.840000 -17.280000
162.990000 216.970000 -17.280000
159.700000 215.890000 -17.280000
158.130000 214.190000 -17.280000
156.790000 211.130000 -17.280000
155.830000 207.430000 -17.280000
155.420000 203.850000 -17.280000
155.440000 200.610000 -17.280000
155.500000 197.300000 -17.280000
155.600000 193.970000 -17.280000
155.750000 190.650000 -17.280000
155.930000 187.390000 -17.280000
156.260000 184.240000 -17.280000
157.480000 181.220000 -17.280000
159.080000 178.230000 -17.280000
160.240000 175.150000 -17.280000
160.850000 171.930000 -17.280000
161.370000 168.670000 -17.280000
162.080000 165.490000 -17.280000
163.030000 162.370000 -17.280000
164.170000 159.300000 -17.280000
165.500000 156.270000 -17.280000
166.990000 153.290000 -17.280000
166.990000 153.290000 -17.280000
168.780000 150.480000 -17.280000
170.710000 147.800000 -17.280000
172.780000 145.280000 -17.280000
174.980000 142.880000 -17.280000
177.320000 140.350000 -17.280000
179.820000 137.920000 -17.280000
182.460000 135.950000 -17.280000
185.270000 134.800000 -17.280000
188.390000 134.120000 -17.280000
191.750000 133.610000 -17.280000
195.060000 133.380000 -17.280000
198.180000 133.730000 -17.280000
201.250000 134.830000 -17.280000
204.270000 136.380000 -17.280000
207.250000 138.050000 -17.280000
210.220000 139.540000 -17.280000
213.220000 140.950000 -17.280000
216.190000 142.440000 -17.280000
219.040000 144.070000 -17.280000
221.700000 145.940000 -17.280000
224.680000 148.700000 -17.280000
227.600000 151.800000 -17.280000
229.730000 154.230000 -17.280000
230.360000 155.000000 -17.280000
228.750000 154.760000 -17.280000
225.400000 154.290000 -17.280000
221.180000 153.770000 -17.280000
216.980000 153.390000 -17.280000
213.600000 153.350000 -17.280000
210.560000 154.150000 -17.280000
207.590000 155.680000 -17.280000
204.700000 157.640000 -17.280000
201.920000 159.690000 -17.280000
199.290000 161.630000 -17.280000
196.830000 163.810000 -17.280000
198.880000 168.970000 -8.640000
196.800000 171.850000 -8.640000
195.010000 174.900000 -8.640000
193.600000 178.410000 -8.640000
192.060000 181.530000 -8.640000
189.620000 183.440000 -8.640000
186.030000 184.670000 -8.640000
182.970000 186.230000 -8.640000
182.970000 186.230000 -8.640000
180.850000 188.910000 -8.640000
179.150000 192.220000 -8.640000
177.790000 195.460000 -8.640000
176.630000 198.830000 -8.640000
175.840000 202.260000 -8.640000
175.300000 205.730000 -8.640000
174.850000 209.240000 -8.640000
174.600000 212.770000 -8.640000
174.650000 216.520000 -8.640000
175.000000 220.960000 -8.640000
175.450000 225.200000 -8.640000
175.790000 228.170000 -8.640000
175.440000 229.090000 -8.640000
171.850000 229.410000 -8.640000
167.410000 229.560000 -8.640000
164.090000 228.740000 -8.640000
161.040000 226.490000 -8.640000
158.730000 224.040000 -8.640000
156.820000 221.030000 -8.640000
155.270000 217.700000 -8.640000
154.120000 214.410000 -8.640000
153.190000 211.010000 -8.640000
152.430000 207.530000 -8.640000
151.790000 204.060000 -8.640000
151.230000 200.580000 -8.640000
150.750000 197.090000 -8.640000
150.370000 193.580000 -8.640000
150.370000 193.580000 -8.640000
150.670000 190.040000 -8.640000
151.100000 186.530000 -8.640000
151.630000 183.040000 -8.640000
152.240000 179.590000 -8.640000
152.940000 176.160000 -8.640000
153.860000 172.770000 -8.640000
154.930000 169.410000 -8.640000
156.090000 166.060000 -8.640000
157.240000 162.710000 -8.640000
158.310000 159.340000 -8.640000
159.300000 155.910000 -8.640000
160.370000 152.540000 -8.640000
161.760000 149.380000 -8.640000
163.670000 146.300000 -8.640000
165.980000 143.660000 -8.640000
168.700000 141.680000 -8.640000
171.880000 140.020000 -8.640000
175.180000 138.510000 -8.640000
178.370000 136.910000 -8.640000
181.590000 135.160000 -8.640000
184.860000 133.690000 -8.640000
188.200000 132.970000 -8.640000
191.700000 132.990000 -8.640000
195.270000 133.100000 -8.640000
198.610000 133.590000 -8.640000
201.760000 135.250000 -8.640000
204.880000 137.170000 -8.640000
208.130000 138.670000 -8.640000
211.450000 140.110000 -8.640000
214.480000 141.750000 -8.640000
217.240000 144.090000 -8.640000
220.150000 147.360000 -8.640000
222.820000 150.860000 -8.640000
224.830000 153.890000 -8.640000
225.760000 155.740000 -8.640000
224.000000 156.320000 -8.640000
219.580000 156.700000 -8.640000
215.830000 157.300000 -8.640000
212.320000 158.170000 -8.640000
209.050000 159.330000 -8.640000
206.170000 161.130000 -8.640000
203.550000 163.660000 -8.640000
201.140000 166.250000 -8.640000
197.480000 165.910000 0.000000
194.430000 167.470000 0.000000
191.310000 168.950000 0.000000
188.590000 170.670000 0.000000
186.580000 173.050000 0.000000
184.940000 176.060000 0.000000
183.290000 179.010000 0.000000
181.560000 181.880000 0.000000
179.890000 184.770000 0.000000
178.420000 187.740000 0.000000
177.150000 190.810000 0.000000
176.040000 193.970000 0.000000
175.180000 197.170000 0.000000
174.500000 200.420000 0.000000
173.940000 203.700000 0.000000
173.940000 203.700000 0.000000
173.570000 207.040000 0.000000
173.570000 207.040000 0.000000
174.100000 210.330000 0.000000
174.630000 213.610000 0.000000
175.170000 216.900000 0.000000
175.800000 220.210000 0.000000
176.470000 223.530000 0.000000
176.560000 226.790000 0.000000
175.290000 230.630000 0.000000
173.250000 233.110000 0.000000
170.710000 233.200000 0.000000
167.200000 233.170000 0.000000
163.520000 233.100000 0.000000
160.180000 232.650000 0.000000
157.010000 231.240000 0.000000
154.760000 229.310000 0.000000
153.000000 226.390000 0.000000
151.430000 223.210000 0.000000
149.740000 220.290000 0.000000
148.050000 217.320000 0.000000
146.830000 214.270000 0.000000
146.250000 211.090000 0.000000
145.790000 207.770000 0.000000
145.480000 204.410000 0.000000
145.380000 201.070000 0.000000
145.590000 197.770000 0.000000
146.090000 194.480000 0.000000
146.760000 191.190000 0.000000
147.450000 187.910000 0.000000
148.090000 184.640000 0.000000
148.730000 181.330000 0.000000
149.470000 178.050000 0.000000
150.350000 174.870000 0.000000
151.530000 171.850000 0.000000
153.200000 168.970000 0.000000
155.100000 166.160000 0.000000
156.960000 163.380000 0.000000
158.860000 160.650000 0.000000
160.830000 157.960000 0.000000
162.850000 155.300000 0.000000
164.900000 152.680000 0.000000
166.950000 150.030000 0.000000
169.020000 147.350000 0.000000
171.180000 144.800000 0.000000
173.510000 142.510000 0.000000
176.070000 140.210000 0.000000
178.870000 137.960000 0.000000
181.820000 136.540000 0.000000
184.940000 136.380000 0.000000
188.310000 136.380000 0.000000
191.720000 136.380000 0.000000
194.970000 136.510000 0.000000
198.280000 137.400000 0.000000
201.510000 138.910000 0.000000
204.430000 140.780000 0.000000
206.830000 142.750000 0.000000
209.150000 145.370000 0.000000
210.750000 148.470000 0.000000
210.700000 151.580000 0.000000
209.590000 154.920000 0.000000
208.020000 157.940000 0.000000
206.110000 160.280000 0.000000
203.430000 162.300000 0.000000
200.410000 164.140000 0.000000
3 0 80 2
3 0 2 3
3 0 3 4
3 0 4 5
3 0 5 6
3 0 6 7
3 0 7 8
3 0 8 9
3 0 9 10
3 0 10 11
3 0 11 12
3 0 12 13
3 0 13 14
3 0 14 15
3 0 15 16
3 0 16 18
3 0 18 19
3 0 19 20
3 0 20 21
3 0 21 22
3 0 22 23
3 0 23 24
3 0 24 25
3 0 25 26
3 0 26 27
3 0 27 28
3 0 28 29
3 0 29 30
3 0 30 31
3 0 31 32
3 0 32 33
3 0 33 34
3 0 34 35
3 0 35 36
3 0 36 37
3 0 37 38
3 0 38 39
3 0 39 40
3 0 40 41
3 0 41 42
3 0 42 43
3 0 43 44
3 0 44 45
3 0 45 46
3 0 46 47
3 0 47 48
3 0 48 49
3 0 49 50
3 0 50 51
3 0 51 52
3 0 52 53
3 0 53 54
3 0 54 55
3 0 55 56
3 0 56 57
3 0 57 58
3 0 58 59
3 0 59 60
3 0 60 61
3 0 61 62
3 0 62 63
3 0 63 64
3 0 64 65
3 0 65 66
3 0 66 67
3 0 67 68
3 0 68 69
3 0 69 70
3 0 70 71
3 0 71 72
3 0 72 73
3 0 73 74
3 0 74 75
3 0 75 76
3 0 76 77
3 0 77 78
3 0 78 79
3 0 79 80
3 80 81 82
3 80 82 2
3 2 82 83
3 2 83 3
3 3 83 84
3 3 84 4
3 4 84 85
3 4 85 5
3 5 85 86
3 5 86 6
3 6 86 87
3 6 87 7
3 7 87 88
3 7 88 8
3 8 88 89
3 8 89 9
3 9 89 90
3 9 90 10
3 10 90 91
3 10 91 11
3 11 91 92
3 11 92 12
3 12 92 93
3 12 93 13
3 13 93 94
3 13 94 14
3 14 94 95
3 14 95 15
3 15 95 96
3 15 96 16
3 16 96 97
3 16 97 98
3 16 98 18
3 18 98 99
3 18 99 19
3 19 99 100
3 19 100 20
3 20 100 101
3 20 101 21
3 21 101 102
3 21 102 22
3 22 102 103
3 22 103 23
3 23 103 104
3 23 104 24
3 24 104 105
3 24 105 25
3 25 105 106
3 25 106 26
3 26 106 107
3 26 107 27
3 27 107 108
3 27 108 28
3 28 108 109
3 28 109 29
3 29 109 110
3 29 110 30
3 30 110 111
3 30 111 31
3 31 111 112
3 31 112 32
3 32 112 113
3 32 113 33
3 33 113 114
3 33 114 34
3 34 114 115
3 34 115 35
3 35 115 116
3 35 116 36
3 36 116 117
3 36 117 37
3 37 117 118
3 37 118 38
3 38 118 119
3 38 119 39
3 39 119 120
3 39 120 40
3 40 120 121
3 40 121 41
3 41 121 122
3 41 122 42
3 42 122 123
3 42 123 43
3 43 123 124
3 43 124 44
3 44 124 125
3 44 125 45
3 45 125 126
3 45 126 46
3 46 126 127
3 46 127 47
3 47 127 128
3 47 128 48
3 48 128 129
3 48 129 49
3 49 129 130
3 49 130 50
3 50 130 131
3 50 131 51
3 51 131 132
3 51 132 52
3 52 132 133
3 52 133 53
3 53 133 134
3 53 134 54
3 54 134 135
3 54 135 55
3 55 135 136
3 55 136 56
3 56 136 137
3 56 137 57
3 57 137 138
3 57 138 58
3 58 138 139
3 58 139 59
3 59 139 140
3 59 140 60
3 60 140 141
3 60 141 61
3 61 141 142
3 61 142 62
3 62 142 63
3 63 142 144
3 63 144 64
3 64 144 145
3 64 145 65
3 65 145 146
3 65 146 66
3 66 146 147
3 66 147 67
3 67 147 148
3 67 148 68
3 68 148 149
3 68 149 69
3 69 149 150
3 69 150 70
3 70 150 151
3 70 151 71
3 71 151 152
3 71 152 72
3 72 152 153
3 72 153 73
3 73 153 154
3 73 154 74
3 74 154 155
3 74 155 75
3 75 155 156
3 75 156 76
3 76 156 157
3 76 157 77
3 77 157 78
3 78 157 159
3 78 159 79
3 79 159 160
3 79 160 80
3 80 160 81
3 81 161 162
3 81 162 82
3 82 162 163
3 82 163 83
3 83 163 164
3 83 164 84
3 84 164 85
3 85 164 166
3 85 166 86
3 86 166 167
3 86 167 87
3 87 167 168
3 87 168 88
3 88 168 169
3 88 169 89
3 89 169 170
3 89 170 90
3 90 170 171
3 90 171 91
3 91 171 172
3 91 172 92
3 92 172 173
3 92 173 93
3 93 173 174
3 93 174 94
3 94 174 175
3 94 175 95
3 95 175 176
3 95 176 96
3 96 176 177
3 96 177 97
3 97 177 178
3 97 178 98
3 98 178 179
3 98 179 99
3 99 179 180
3 99 180 100
3 100 180 181
3 100 181 101
3 101 181 182
3 101 182 102
3 102 182 183
3 102 183 103
3 103 183 184
3 103 184 104
3 104 184 185
3 104 185 105
3 105 185 186
3 105 186 106
3 106 186 187
3 106 187 107
3 107 187 188
3 107 188 108
3 108 188 189
3 108 189 109
3 109 189 190
3 109 190 110
3 110 190 191
3 110 191 111
3 111 191 192
3 111 192 112
3 112 192 193
3 112 193 113
3 113 193 194
3 113 194 114
3 114 194 195
3 114 195 115
3 115 195 196
3 115 196 116
3 116 196 197
3 116 197 117
3 117 197 198
3 117 198 118
3 118 198 199
3 118 199 119
3 119 199 200
3 119 200 120
3 120 200 201
3 120 201 121
3 121 201 202
3 121 202 122
3 122 202 203
3 122 203 123
3 123 203 204
3 123 204 124
3 124 204 205
3 124 205 125
3 125 205 206
3 125 206 126
3 126 206 207
3 126 207 127
3 127 207 208
3 127 208 128
3 128 208 209
3 128 209 129
3 129 209 210
3 129 210 130
3 130 210 211
3 130 211 131
3 131 211 212
3 131 212 132
3 132 212 213
3 132 213 133
3 133 213 214
3 133 214 134
3 134 214 215
3 134 215 135
3 135 215 216
3 135 216 136
3 136 216 217
3 136 217 137
3 137 217 218
3 137 218 138
3 138 218 219
3 138 219 139
3 139 219 220
3 139 220 140
3 140 220 221
3 140 221 141
3 141 221 222
3 141 222 142
3 142 222 223
3 142 223 224
3 142 224 144
3 144 224 225
3 144 225 145
3 145 225 146
3 146 225 227
3 146 227 147
3 147 227 228
3 147 228 148
3 148 228 229
3 148 229 149
3 149 229 230
3 149 230 150
3 150 230 231
3 150 231 151
3 151 231 232
3 151 232 152
3 152 232 233
3 152 233 153
3 153 233 234
3 153 234 154
3 154 234 235
3 154 235 155
3 155 235 236
3 155 236 156
3 156 236 237
3 156 237 157
3 157 237 238
3 157 238 239
3 157 239 159
3 159 239 240
3 159 240 160
3 160 240 161
3 160 161 81
3 161 241 242
3 161 242 162
3 162 242 243
3 162 243 163
3 163 243 244
3 163 244 164
3 164 244 245
3 164 245 246
3 164 246 166
3 166 246 247
3 166 247 167
3 167 247 248
3 167 248 168
3 168 248 249
3 168 249 169
3 169 249 250
3 169 250 170
3 170 250 251
3 170 251 171
3 171 251 252
3 171 252 172
3 172 252 253
3 172 253 173
3 173 253 254
3 173 254 174
3 174 254 255
3 174 255 175
3 175 255 256
3 175 256 176
3 176 256 257
3 176 257 177
3 177 257 258
3 177 258 178
3 178 258 259
3 178 259 179
3 179 259 260
3 179 260 180
3 180 260 261
3 180 261 181
3 181 261 262
3 181 262 182
3 182 262 263
3 182 263 183
3 183 263 264
3 183 264 184
3 184 264 265
3 184 265 185
3 185 265 266
3 185 266 186
3 186 266 267
3 186 267 187
3 187 267 268
3 187 268 188
3 188 268 269
3 188 269 189
3 189 269 270
3 189 270 190
3 190 270 271
3 190 271 191
3 191 271 272
3 191 272 192
3 192 272 273
3 192 273 193
3 193 273 274
3 193 274 194
3 194 274 275
3 194 275 195
3 195 275 276
3 195 276 196
3 196 276 277
3 196 277 197
3 197 277 278
3 197 278 198
3 198 278 279
3 198 279 199
3 199 279 280
3 199 280 200
3 200 280 281
3 200 281 201
3 201 281 282
3 201 282 202
3 202 282 283
3 202 283 203
3 203 283 284
3 203 284 204
3 204 284 285
3 204 285 205
3 205 285 286
3 205 286 206
3 206 286 287
3 206 287 207
3 207 287 288
3 207 288 208
3 208 288 289
3 208 289 209
3 209 289 290
3 209 290 210
3 210 290 291
3 210 291 211
3 211 291 292
3 211 292 212
3 212 292 293
3 212 293 213
3 213 293 294
3 213 294 214
3 214 294 295
3 214 295 215
3 215 295 296
3 215 296 216
3 216 296 297
3 216 297 217
3 217 297 298
3 217 298 218
3 218 298 299
3 218 299 219
3 219 299 300
3 219 300 220
3 220 300 301
3 220 301 221
3 221 301 222
3 222 301 303
3 222 303 223
3 223 303 304
3 223 304 224
3 224 304 225
3 225 304 306
3 225 306 307
3 225 307 227
3 227 307 308
3 227 308 228
3 228 308 309
3 228 309 229
3 229 309 310
3 229 310 230
3 230 310 311
3 230 311 231
3 231 311 312
3 231 312 232
3 232 312 313
3 232 313 233
3 233 313 314
3 233 314 234
3 234 314 315
3 234 315 235
3 235 315 316
3 235 316 236
3 236 316 317
3 236 317 237
3 237 317 318
3 237 318 238
3 238 318 319
3 238 319 239
3 239 319 320
3 239 320 240
3 240 320 241
3 240 241 161
3 241 321 322
3 241 322 242
3 242 322 323
3 242 323 243
3 243 323 324
3 243 324 244
3 244 324 245
3 245 324 326
3 245 326 246
3 246 326 327
3 246 327 247
3 247 327 328
3 247 328 248
3 248 328 329
3 248 329 249
3 249 329 330
3 249 330 250
3 250 330 331
3 250 331 251
3 251 331 332
3 251 332 252
3 252 332 333
3 252 333 253
3 253 333 334
3 253 334 254
3 254 334 335
3 254 335 255
3 255 335 336
3 255 336 256
3 256 336 337
3 256 337 257
3 257 337 338
3 257 338 258
3 258 338 339
3 258 339 259
3 259 339 340
3 259 340 260
3 260 340 341
3 260 341 261
3 261 341 342
3 261 342 262
3 262 342 343
3 262 343 263
3 263 343 344
3 263 344 264
3 264 344 345
3 264 345 265
3 265 345 346
3 265 346 266
3 266 346 347
3 266 347 267
3 267 347 348
3 267 348 268
3 268 348 349
3 268 349 269
3 269 349 350
3 269 350 270
3 270 350 351
3 270 351 271
3 271 351 352
3 271 352 272
3 272 352 353
3 272 353 273
3 273 353 354
3 273 354 274
3 274 354 355
3 274 355 275
3 275 355 356
3 275 356 276
3 276 356 357
3 276 357 277
3 277 357 358
3 277 358 278
3 278 358 359
3 278 359 279
3 279 359 360
3 279 360 280
3 280 360 361
3 280 361 281
3 281 361 362
3 281 362 282
3 282 362 363
3 282 363 283
3 283 363 364
3 283 364 284
3 284 364 365
3 284 365 285
3 285 365 366
3 285 366 286
3 286 366 287
3 287 366 368
3 287 368 288
3 288 368 369
3 288 369 289
3 289 369 370
3 289 370 290
3 290 370 371
3 290 371 291
3 291 371 372
3 291 372 292
3 292 372 373
3 292 373 293
3 293 373 374
3 293 374 294
3 294 374 375
3 294 375 295
3 295 375 376
3 295 376 296
3 296 376 377
3 296 377 297
3 297 377 378
3 297 378 298
3 298 378 379
3 298 379 299
3 299 379 380
3 299 380 300
3 300 380 381
3 300 381 301
3 301 381 382
3 301 382 383
3 301 383 303
3 303 383 384
3 303 384 304
3 304 384 385
3 304 385 386
3 304 386 306
3 306 386 387
3 306 387 307
3 307 387 388
3 307 388 308
3 308 388 389
3 308 389 309
3 309 389 390
3 309 390 310
3 310 390 391
3 310 391 311
3 311 391 392
3 311 392 312
3 312 392 393
3 312 393 313
3 313 393 394
3 313 394 314
3 314 394 395
3 314 395 315
3 315 395 396
3 315 396 316
3 316 396 397
3 316 397 317
3 317 397 398
3 317 398 318
3 318 398 399
3 318 399 319
3 319 399 400
3 319 400 320
3 320 400 321
3 320 321 241
3 321 401 402
3 321 402 322
3 322 402 323
3 323 402 404
3 323 404 324
3 324 404 405
3 324 405 406
3 324 406 326
3 326 406 407
3 326 407 327
3 327 407 408
3 327 408 328
3 328 408 409
3 328 409 329
3 329 409 410
3 329 410 330
3 330 410 411
3 330 411 331
3 331 411 412
3 331 412 332
3 332 412 413
3 332 413 333
3 333 413 414
3 333 414 334
3 334 414 415
3 334 415 335
3 335 415 416
3 335 416 336
3 336 416 417
3 336 417 337
3 337 417 418
3 337 418 338
3 338 418 419
3 338 419 339
3 339 419 420
3 339 420 340
3 340 420 421
3 340 421 341
3 341 421 422
3 341 422 342
3 342 422 423
3 342 423 343
3 343 423 424
3 343 424 344
3 344 424 425
3 344 425 345
3 345 425 426
3 345 426 346
3 346 426 427
3 346 427 347
3 347 427 428
3 347 428 348
3 348 428 429
3 348 429 349
3 349 429 430
3 349 430 350
3 350 430 431
3 350 431 351
3 351 431 432
3 351 432 352
3 352 432 433
3 352 433 353
3 353 433 434
3 353 434 354
3 354 434 435
3 354 435 355
3 355 435 436
3 355 436 356
3 356 436 437
3 356 437 357
3 357 437 438
3 357 438 358
3 358 438 439
3 358 439 359
3 359 439 440
3 359 440 360
3 360 440 441
3 360 441 361
3 361 441 442
3 361 442 362
3 362 442 443
3 362 443 363
3 363 443 444
3 363 444 364
3 364 444 445
3 364 445 365
3 365 445 446
3 365 446 366
3 366 446 447
3 366 447 448
3 366 448 368
3 368 448 449
3 368 449 369
3 369 449 450
3 369 450 370
3 370 450 451
3 370 451 371
3 371 451 452
3 371 452 372
3 372 452 453
3 372 453 373
3 373 453 454
3 373 454 374
3 374 454 455
3 374 455 375
3 375 455 456
3 375 456 376
3 376 456 457
3 376 457 377
3 377 457 458
3 377 458 378
3 378 458 459
3 378 459 379
3 379 459 460
3 379 460 380
3 380 460 461
3 380 461 381
3 381 461 462
3 381 462 382
3 382 462 463
3 382 463 383
3 383 463 464
3 383 464 384
3 384 464 465
3 384 465 385
3 385 465 466
3 385 466 386
3 386 466 467
3 386 467 387
3 387 467 468
3 387 468 388
3 388 468 469
3 388 469 389
3 389 469 470
3 389 470 390
3 390 470 471
3 390 471 391
3 391 471 472
3 391 472 392
3 392 472 473
3 392 473 393
3 393 473 474
3 393 474 394
3 394 474 475
3 394 475 395
3 395 475 476
3 395 476 396
3 396 476 477
3 396 477 397
3 397 477 398
3 398 477 479
3 398 479 399
3 399 479 480
3 399 480 400
3 400 480 401
3 400 401 321
3 401 481 482
3 401 482 402
3 402 482 484
3 402 484 404
3 404 484 485
3 404 485 405
3 405 485 486
3 405 486 406
3 406 486 407
3 407 486 488
3 407 488 408
3 408 488 489
3 408 489 409
3 409 489 490
3 409 490 410
3 410 490 491
3 410 491 411
3 411 491 492
3 411 492 412
3 412 492 493
3 412 493 413
3 413 493 494
3 413 494 414
3 414 494 495
3 414 495 415
3 415 495 496
3 415 496 416
3 416 496 497
3 416 497 417
3 417 497 498
3 417 498 418
3 418 498 499
3 418 499 419
3 419 499 500
3 419 500 420
3 420 500 501
3 420 501 421
3 421 501 502
3 421 502 422
3 422 502 503
3 422 503 423
3 423 503 504
3 423 504 424
3 424 504 505
3 424 505 425
3 425 505 506
3 425 506 426
3 426 506 507
3 426 507 427
3 427 507 508
3 427 508 428
3 428 508 509
3 428 509 429
3 429 509 510
3 429 510 430
3 430 510 511
3 430 511 431
3 431 511 512
3 431 512 432
3 432 512 513
3 432 513 433
3 433 513 514
3 433 514 434
3 434 514 515
3 434 515 435
3 435 515 516
3 435 516 436
3 436 516 517
3 436 517 437
3 437 517 518
3 437 518 438
3 438 518 519
3 438 519 439
3 439 519 520
3 439 520 440
3 440 520 521
3 440 521 441
3 441 521 522
3 441 522 442
3 442 522 523
3 442 523 443
3 443 523 524
3 443 524 444
3 444 524 525
3 444 525 445
3 445 525 526
3 445 526 446
3 446 526 527
3 446 527 447
3 447 527 528
3 447 528 448
3 448 528 529
3 448 529 449
3 449 529 530
3 449 530 450
3 450 530 531
3 450 531 451
3 451 531 532
3 451 532 452
3 452 532 533
3 452 533 453
3 453 533 534
3 453 534 454
3 454 534 535
3 454 535 455
3 455 535 536
3 455 536 456
3 456 536 537
3 456 537 457
3 457 537 538
3 457 538 458
3 458 538 539
3 458 539 459
3 459 539 540
3 459 540 460
3 460 540 541
3 460 541 461
3 461 541 542
3 461 542 462
3 462 542 543
3 462 543 463
3 463 543 544
3 463 544 464
3 464 544 545
3 464 545 465
3 465 545 546
3 465 546 466
3 466 546 547
3 466 547 467
3 467 547 548
3 467 548 468
3 468 548 549
3 468 549 469
3 469 549 550
3 469 550 470
3 470 550 551
3 470 551 471
3 471 551 552
3 471 552 472
3 472 552 553
3 472 553 473
3 473 553 554
3 473 554 474
3 474 554 555
3 474 555 475
3 475 555 556
3 475 556 476
3 476 556 557
3 476 557 477
3 477 557 558
3 477 558 559
3 477 559 479
3 479 559 560
3 479 560 480
3 480 560 481
3 480 481 401
3 481 561 562
3 481 562 482
3 482 562 563
3 482 563 564
3 482 564 484
3 484 564 485
3 485 564 566
3 485 566 486
3 486 566 567
3 486 567 568
3 486 568 488
3 488 568 569
3 488 569 489
3 489 569 570
3 489 570 490
3 490 570 571
3 490 571 491
3 491 571 572
3 491 572 492
3 492 572 573
3 492 573 493
3 493 573 574
3 493 574 494
3 494 574 575
3 494 575 495
3 495 575 576
3 495 576 496
3 496 576 577
3 496 577 497
3 497 577 578
3 497 578 498
3 498 578 579
3 498 579 499
3 499 579 580
3 499 580 500
3 500 580 581
3 500 581 501
3 501 581 582
3 501 582 502
3 502 582 583
3 502 583 503
3 503 583 584
3 503 584 504
3 504 584 585
3 504 585 505
3 505 585 586
3 505 586 506
3 506 586 587
3 506 587 507
3 507 587 588
3 507 588 508
3 508 588 589
3 508 589 509
3 509 589 590
3 509 590 510
3 510 590 591
3 510 591 511
3 511 591 592
3 511 592 512
3 512 592 593
3 512 593 513
3 513 593 594
3 513 594 514
3 514 594 595
3 514 595 515
3 515 595 596
3 515 596 516
3 516 596 597
3 516 597 517
3 517 597 598
3 517 598 518
3 518 598 599
3 518 599 519
3 519 599 600
3 519 600 520
3 520 600 601
3 520 601 521
3 521 601 602
3 521 602 522
3 522 602 603
3 522 603 523
3 523 603 604
3 523 604 524
3 524 604 525
3 525 604 606
3 525 606 526
3 526 606 607
3 526 607 527
3 527 607 608
3 527 608 528
3 528 608 609
3 528 609 529
3 529 609 610
3 529 610 530
3 530 610 611
3 530 611 531
3 531 611 612
3 531 612 532
3 532 612 613
3 532 613 533
3 533 613 614
3 533 614 534
3 534 614 615
3 534 615 535
3 535 615 616
3 535 616 536
3 536 616 617
3 536 617 537
3 537 617 618
3 537 618 538
3 538 618 619
3 538 619 539
3 539 619 620
3 539 620 540
3 540 620 621
3 540 621 541
3 541 621 622
3 541 622 542
3 542 622 623
3 542 623 543
3 543 623 624
3 543 624 544
3 544 624 625
3 544 625 545
3 545 625 626
3 545 626 546
3 546 626 627
3 546 627 547
3 547 627 628
3 547 628 548
3 548 628 629
3 548 629 549
3 549 629 630
3 549 630 550
3 550 630 631
3 550 631 551
3 551 631 632
3 551 632 552
3 552 632 633
3 552 633 553
3 553 633 634
3 553 634 554
3 554 634 635
3 554 635 555
3 555 635 636
3 555 636 556
3 556 636 637
3 556 637 557
3 557 637 638
3 557 638 558
3 558 638 639
3 558 639 559
3 559 639 640
3 559 640 560
3 560 640 561
3 560 561 481
3 561 641 642
3 561 642 562
3 562 642 643
3 562 643 563
3 563 643 644
3 563 644 564
3 564 644 645
3 564 645 646
3 564 646 566
3 566 646 647
3 566 647 567
3 567 647 648
3 567 648 568
3 568 648 569
3 569 648 650
3 569 650 570
3 570 650 651
3 570 651 571
3 571 651 652
3 571 652 572
3 572 652 653
3 572 653 573
3 573 653 654
3 573 654 574
3 574 654 655
3 574 655 575
3 575 655 656
3 575 656 576
3 576 656 657
3 576 657 577
3 577 657 658
3 577 658 578
3 578 658 659
3 578 659 579
3 579 659 660
3 579 660 580
3 580 660 661
3 580 661 581
3 581 661 662
3 581 662 582
3 582 662 663
3 582 663 583
3 583 663 664
3 583 664 584
3 584 664 665
3 584 665 585
3 585 665 666
3 585 666 586
3 586 666 667
3 586 667 587
3 587 667 668
3 587 668 588
3 588 668 669
3 588 669 589
3 589 669 670
3 589 670 590
3 590 670 671
3 590 671 591
3 591 671 672
3 591 672 592
3 592 672 673
3 592 673 593
3 593 673 674
3 593 674 594
3 594 674 675
3 594 675 595
3 595 675 676
3 595 676 596
3 596 676 597
3 597 676 678
3 597 678 598
3 598 678 679
3 598 679 599
3 599 679 680
3 599 680 600
3 600 680 681
3 600 681 601
3 601 681 682
3 601 682 602
3 602 682 683
3 602 683 603
3 603 683 684
3 603 684 604
3 604 684 685
3 604 685 686
3 604 686 606
3 606 686 687
3 606 687 607
3 607 687 688
3 607 688 608
3 608 688 689
3 608 689 609
3 609 689 690
3 609 690 610
3 610 690 691
3 610 691 611
3 611 691 692
3 611 692 612
3 612 692 693
3 612 693 613
3 613 693 694
3 613 694 614
3 614 694 695
3 614 695 615
3 615 695 696
3 615 696 616
3 616 696 697
3 616 697 617
3 617 697 698
3 617 698 618
3 618 698 699
3 618 699 619
3 619 699 700
3 619 700 620
3 620 700 701
3 620 701 621
3 621 701 702
3 621 702 622
3 622 702 703
3 622 703 623
3 623 703 704
3 623 704 624
3 624 704 705
3 624 705 625
3 625 705 706
3 625 706 626
3 626 706 707
3 626 707 627
3 627 707 708
3 627 708 628
3 628 708 709
3 628 709 629
3 629 709 710
3 629 710 630
3 630 710 711
3 630 711 631
3 631 711 712
3 631 712 632
3 632 712 713
3 632 713 633
3 633 713 714
3 633 714 634
3 634 714 715
3 634 715 635
3 635 715 716
3 635 716 636
3 636 716 717
3 636 717 637
3 637 717 718
3 637 718 638
3 638 718 719
3 638 719 639
3 639 719 720
3 639 720 640
3 640 720 641
3 640 641 561
3 641 721 722
3 641 722 642
3 642 722 723
3 642 723 643
3 643 723 724
3 643 724 644
3 644 724 725
3 644 725 645
3 645 725 726
3 645 726 646
3 646 726 727
3 646 727 647
3 647 727 728
3 647 728 648
3 648 728 729
3 648 729 730
3 648 730 650
3 650 730 731
3 650 731 651
3 651 731 732
3 651 732 652
3 652 732 733
3 652 733 653
3 653 733 734
3 653 734 654
3 654 734 735
3 654 735 655
3 655 735 656
3 656 735 737
3 656 737 657
3 657 737 658
3 658 737 739
3 658 739 659
3 659 739 740
3 659 740 660
3 660 740 741
3 660 741 661
3 661 741 742
3 661 742 662
3 662 742 743
3 662 743 663
3 663 743 744
3 663 744 664
3 664 744 745
3 664 745 665
3 665 745 746
3 665 746 666
3 666 746 747
3 666 747 667
3 667 747 748
3 667 748 668
3 668 748 749
3 668 749 669
3 669 749 750
3 669 750 670
3 670 750 751
3 670 751 671
3 671 751 752
3 671 752 672
3 672 752 753
3 672 753 673
3 673 753 754
3 673 754 674
3 674 754 755
3 674 755 675
3 675 755 756
3 675 756 676
3 676 756 757
3 676 757 758
3 676 758 678
3 678 758 759
3 678 759 679
3 679 759 760
3 679 760 680
3 680 760 761
3 680 761 681
3 681 761 762
3 681 762 682
3 682 762 763
3 682 763 683
3 683 763 764
3 683 764 684
3 684 764 765
3 684 765 685
3 685 765 766
3 685 766 686
3 686 766 767
3 686 767 687
3 687 767 768
3 687 768 688
3 688 768 769
3 688 769 689
3 689 769 770
3 689 770 690
3 690 770 771
3 690 771 691
3 691 771 772
3 691 772 692
3 692 772 773
3 692 773 693
3 693 773 774
3 693 774 694
3 694 774 775
3 694 775 695
3 695 775 776
3 695 776 696
3 696 776 777
3 696 777 697
3 697 777 778
3 697 778 698
3 698 778 779
3 698 779 699
3 699 779 780
3 699 780 700
3 700 780 781
3 700 781 701
3 701 781 782
3 701 782 702
3 702 782 783
3 702 783 703
3 703 783 784
3 703 784 704
3 704 784 785
3 704 785 705
3 705 785 786
3 705 786 706
3 706 786 787
3 706 787 707
3 707 787 788
3 707 788 708
3 708 788 789
3 708 789 709
3 709 789 790
3 709 790 710
3 710 790 791
3 710 791 711
3 711 791 792
3 711 792 712
3 712 792 793
3 712 793 713
3 713 793 794
3 713 794 714
3 714 794 795
3 714 795 715
3 715 795 796
3 715 796 716
3 716 796 797
3 716 797 717
3 717 797 798
3 717 798 718
3 718 798 799
3 718 799 719
3 719 799 800
3 719 800 720
3 720 800 721
3 720 721 641
