ply 
format ascii 1.0 
comment this is a surface 
element vertex 801 
property float x 
property float y 
property float z 
element face 1482 
property list uchar int vertex_index 
end_header 
231.398875 204.835875 -77.760000
233.780000 224.190000 -77.760000
232.160000 224.520000 -77.760000
230.580000 224.730000 -77.760000
229.050000 224.850000 -77.760000
227.580000 224.910000 -77.760000
226.150000 224.920000 -77.760000
224.780000 224.870000 -77.760000
223.400000 224.410000 -77.760000
222.040000 223.570000 -77.760000
220.730000 222.450000 -77.760000
219.510000 221.170000 -77.760000
218.390000 219.830000 -77.760000
217.400000 218.530000 -77.760000
216.540000 217.310000 -77.760000
215.670000 215.980000 -77.760000
214.830000 214.570000 -77.760000
214.080000 213.090000 -77.760000
213.460000 211.560000 -77.760000
213.040000 210.030000 -77.760000
212.860000 208.510000 -77.760000
212.810000 206.940000 -77.760000
212.760000 205.290000 -77.760000
212.730000 203.600000 -77.760000
212.700000 201.910000 -77.760000
212.670000 200.260000 -77.760000
212.660000 198.700000 -77.760000
212.650000 197.270000 -77.760000
212.680000 196.000000 -77.760000
213.050000 194.760000 -77.760000
213.790000 193.540000 -77.760000
214.850000 192.340000 -77.760000
216.150000 191.190000 -77.760000
217.620000 190.110000 -77.760000
219.210000 189.120000 -77.760000
220.850000 188.240000 -77.760000
222.470000 187.480000 -77.760000
224.000000 186.860000 -77.760000
225.420000 186.390000 -77.760000
226.900000 185.940000 -77.760000
228.460000 185.540000 -77.760000
230.050000 185.200000 -77.760000
231.650000 184.970000 -77.760000
233.220000 184.870000 -77.760000
234.780000 184.950000 -77.760000
236.370000 185.200000 -77.760000
237.950000 185.580000 -77.760000
239.500000 186.060000 -77.760000
240.970000 186.580000 -77.760000
242.380000 187.140000 -77.760000
243.820000 187.890000 -77.760000
245.250000 188.810000 -77.760000
246.560000 189.870000 -77.760000
247.680000 191.010000 -77.760000
248.490000 192.180000 -77.760000
249.140000 193.470000 -77.760000
249.750000 194.910000 -77.760000
250.310000 196.460000 -77.760000
250.770000 198.080000 -77.760000
251.110000 199.710000 -77.760000
251.310000 201.300000 -77.760000
251.320000 202.820000 -77.760000
251.050000 204.340000 -77.760000
250.540000 205.850000 -77.760000
249.890000 207.350000 -77.760000
249.180000 208.820000 -77.760000
248.490000 210.250000 -77.760000
247.810000 211.670000 -77.760000
247.050000 213.090000 -77.760000
246.240000 214.480000 -77.760000
245.360000 215.820000 -77.760000
244.420000 217.090000 -77.760000
243.430000 218.250000 -77.760000
242.360000 219.340000 -77.760000
241.180000 220.370000 -77.760000
239.920000 221.330000 -77.760000
238.580000 222.240000 -77.760000
237.170000 223.070000 -77.760000
237.170000 223.070000 -77.760000
235.450000 223.710000 -77.760000
233.780000 224.190000 -77.760000
233.330000 223.920000 -69.120000
231.380000 224.480000 -69.120000
231.380000 224.480000 -69.120000
229.410000 224.690000 -69.120000
227.370000 224.660000 -69.120000
225.210000 224.580000 -69.120000
222.980000 224.430000 -69.120000
220.760000 224.240000 -69.120000
218.580000 223.990000 -69.120000
216.530000 223.700000 -69.120000
214.650000 223.370000 -69.120000
213.000000 222.990000 -69.120000
211.530000 222.280000 -69.120000
210.100000 220.930000 -69.120000
208.770000 219.120000 -69.120000
207.590000 217.080000 -69.120000
206.610000 214.980000 -69.120000
205.890000 213.020000 -69.120000
205.310000 211.130000 -69.120000
204.760000 209.150000 -69.120000
204.260000 207.100000 -69.120000
203.850000 205.030000 -69.120000
203.540000 202.950000 -69.120000
203.360000 200.890000 -69.120000
203.340000 198.870000 -69.120000
203.580000 196.780000 -69.120000
204.060000 194.650000 -69.120000
204.730000 192.550000 -69.120000
205.540000 190.600000 -69.120000
206.410000 188.870000 -69.120000
207.370000 187.410000 -69.120000
208.660000 186.060000 -69.120000
210.250000 184.810000 -69.120000
212.090000 183.680000 -69.120000
214.140000 182.690000 -69.120000
216.340000 181.870000 -69.120000
216.340000 181.870000 -69.120000
217.900000 180.190000 -69.120000
219.540000 178.650000 -69.120000
221.250000 177.490000 -69.120000
223.030000 176.960000 -69.120000
224.920000 176.950000 -69.120000
226.930000 176.950000 -69.120000
229.030000 176.950000 -69.120000
231.160000 176.950000 -69.120000
233.290000 176.950000 -69.120000
235.360000 176.950000 -69.120000
237.360000 177.020000 -69.120000
239.370000 177.470000 -69.120000
241.360000 178.220000 -69.120000
243.280000 179.160000 -69.120000
245.090000 180.160000 -69.120000
246.790000 181.190000 -69.120000
248.460000 182.460000 -69.120000
250.030000 183.910000 -69.120000
251.430000 185.460000 -69.120000
252.600000 187.050000 -69.120000
253.770000 188.770000 -69.120000
254.900000 190.620000 -69.120000
255.870000 192.550000 -69.120000
256.560000 194.520000 -69.120000
256.840000 196.490000 -69.120000
256.790000 198.510000 -69.120000
256.630000 200.660000 -69.120000
256.360000 202.860000 -69.120000
256.020000 205.030000 -69.120000
255.600000 207.080000 -69.120000
255.130000 208.930000 -69.120000
254.590000 210.510000 -69.120000
253.630000 211.970000 -69.120000
252.260000 213.330000 -69.120000
250.570000 214.610000 -69.120000
248.660000 215.820000 -69.120000
246.640000 216.950000 -69.120000
244.610000 218.020000 -69.120000
242.660000 219.030000 -69.120000
240.850000 220.010000 -69.120000
239.030000 221.060000 -69.120000
237.160000 222.120000 -69.120000
235.260000 223.110000 -69.120000
233.870000 223.270000 -60.480000
232.020000 223.980000 -60.480000
232.020000 223.980000 -60.480000
230.130000 224.220000 -60.480000
228.160000 224.190000 -60.480000
226.090000 224.120000 -60.480000
223.980000 224.010000 -60.480000
221.860000 223.860000 -60.480000
219.760000 223.670000 -60.480000
217.720000 223.450000 -60.480000
215.780000 223.190000 -60.480000
213.960000 222.850000 -60.480000
212.150000 222.100000 -60.480000
210.390000 220.990000 -60.480000
208.690000 219.630000 -60.480000
207.080000 218.120000 -60.480000
205.610000 216.550000 -60.480000
204.300000 215.040000 -60.480000
202.950000 213.410000 -60.480000
201.640000 211.600000 -60.480000
200.700000 209.740000 -60.480000
200.440000 207.950000 -60.480000
200.700000 206.200000 -60.480000
201.290000 204.440000 -60.480000
202.150000 202.680000 -60.480000
203.230000 200.920000 -60.480000
204.490000 199.170000 -60.480000
205.870000 197.430000 -60.480000
207.310000 195.700000 -60.480000
208.770000 194.000000 -60.480000
210.200000 192.330000 -60.480000
211.540000 190.690000 -60.480000
212.790000 189.080000 -60.480000
214.100000 187.520000 -60.480000
215.460000 185.990000 -60.480000
216.840000 184.480000 -60.480000
218.230000 182.980000 -60.480000
219.580000 181.250000 -60.480000
220.920000 179.320000 -60.480000
222.270000 177.420000 -60.480000
223.670000 175.770000 -60.480000
225.150000 174.610000 -60.480000
226.750000 174.170000 -60.480000
228.530000 174.240000 -60.480000
230.520000 174.450000 -60.480000
232.630000 174.780000 -60.480000
234.770000 175.190000 -60.480000
236.860000 175.660000 -60.480000
238.830000 176.170000 -60.480000
240.730000 176.820000 -60.480000
242.650000 177.740000 -60.480000
244.490000 178.850000 -60.480000
246.170000 180.090000 -60.480000
247.590000 181.390000 -60.480000
248.810000 182.850000 -60.480000
249.960000 184.540000 -60.480000
251.000000 186.380000 -60.480000
251.920000 188.320000 -60.480000
252.680000 190.280000 -60.480000
253.290000 192.190000 -60.480000
253.860000 194.170000 -60.480000
254.400000 196.220000 -60.480000
254.860000 198.280000 -60.480000
255.200000 200.310000 -60.480000
255.390000 202.280000 -60.480000
255.290000 204.160000 -60.480000
254.610000 206.040000 -60.480000
253.480000 207.870000 -60.480000
252.120000 209.610000 -60.480000
250.710000 211.200000 -60.480000
249.400000 212.640000 -60.480000
247.990000 214.000000 -60.480000
246.450000 215.300000 -60.480000
244.800000 216.520000 -60.480000
243.040000 217.640000 -60.480000
241.170000 218.670000 -60.480000
239.200000 219.590000 -60.480000
239.200000 219.590000 -60.480000
237.460000 220.950000 -60.480000
235.690000 222.220000 -60.480000
233.950000 229.050000 -51.840000
231.260000 229.310000 -51.840000
231.260000 229.310000 -51.840000
228.560000 229.450000 -51.840000
225.840000 229.560000 -51.840000
223.110000 229.660000 -51.840000
220.390000 229.780000 -51.840000
217.640000 229.970000 -51.840000
214.810000 230.220000 -51.840000
212.030000 230.460000 -51.840000
209.390000 230.630000 -51.840000
206.990000 230.550000 -51.840000
204.810000 229.300000 -51.840000
202.770000 227.210000 -51.840000
200.750000 224.960000 -51.840000
198.590000 223.150000 -51.840000
196.080000 221.510000 -51.840000
193.770000 219.810000 -51.840000
192.300000 217.900000 -51.840000
191.670000 215.580000 -51.840000
191.180000 212.860000 -51.840000
190.860000 209.990000 -51.840000
190.760000 207.210000 -51.840000
190.950000 204.490000 -51.840000
191.360000 201.760000 -51.840000
191.930000 199.080000 -51.840000
192.580000 196.510000 -51.840000
193.550000 194.040000 -51.840000
194.880000 191.640000 -51.840000
196.430000 189.310000 -51.840000
198.020000 187.060000 -51.840000
199.600000 184.890000 -51.840000
201.290000 182.780000 -51.840000
203.080000 180.730000 -51.840000
204.980000 178.760000 -51.840000
206.970000 176.850000 -51.840000
206.970000 176.850000 -51.840000
209.190000 175.160000 -51.840000
211.490000 173.630000 -51.840000
213.870000 172.310000 -51.840000
216.300000 171.240000 -51.840000
218.830000 170.360000 -51.840000
221.450000 169.530000 -51.840000
224.130000 168.860000 -51.840000
226.830000 168.490000 -51.840000
229.530000 168.490000 -51.840000
232.270000 168.640000 -51.840000
235.010000 168.890000 -51.840000
237.680000 169.220000 -51.840000
240.300000 169.710000 -51.840000
242.900000 170.640000 -51.840000
245.420000 171.880000 -51.840000
247.750000 173.280000 -51.840000
249.850000 174.850000 -51.840000
251.770000 176.820000 -51.840000
253.530000 178.970000 -51.840000
255.150000 181.130000 -51.840000
256.700000 183.390000 -51.840000
258.120000 185.740000 -51.840000
259.390000 188.150000 -51.840000
260.500000 190.610000 -51.840000
261.660000 193.160000 -51.840000
262.670000 195.760000 -51.840000
263.290000 198.380000 -51.840000
263.330000 200.990000 -51.840000
262.920000 203.690000 -51.840000
262.200000 206.420000 -51.840000
261.240000 209.090000 -51.840000
260.160000 211.600000 -51.840000
259.010000 213.900000 -51.840000
257.470000 216.030000 -51.840000
255.530000 218.040000 -51.840000
253.390000 219.900000 -51.840000
251.260000 221.610000 -51.840000
249.090000 223.260000 -51.840000
246.780000 224.810000 -51.840000
244.380000 226.100000 -51.840000
241.910000 227.050000 -51.840000
239.320000 227.870000 -51.840000
236.650000 228.560000 -51.840000
232.920000 228.940000 -43.200000
230.350000 229.650000 -43.200000
230.350000 229.650000 -43.200000
227.750000 230.210000 -43.200000
225.110000 230.740000 -43.200000
222.440000 231.200000 -43.200000
219.750000 231.530000 -43.200000
217.080000 231.690000 -43.200000
214.410000 231.630000 -43.200000
211.710000 231.380000 -43.200000
209.020000 230.960000 -43.200000
206.380000 230.440000 -43.200000
203.820000 229.870000 -43.200000
201.040000 229.070000 -43.200000
198.200000 227.960000 -43.200000
195.710000 226.610000 -43.200000
193.990000 225.060000 -43.200000
193.030000 223.160000 -43.200000
192.210000 220.630000 -43.200000
191.580000 217.760000 -43.200000
191.230000 214.860000 -43.200000
191.180000 212.150000 -43.200000
191.180000 209.450000 -43.200000
191.180000 206.740000 -43.200000
191.180000 204.080000 -43.200000
191.420000 201.510000 -43.200000
192.260000 198.990000 -43.200000
193.500000 196.510000 -43.200000
194.940000 194.080000 -43.200000
194.940000 194.080000 -43.200000
196.910000 192.260000 -43.200000
198.860000 190.410000 -43.200000
200.780000 188.540000 -43.200000
202.640000 186.610000 -43.200000
204.470000 184.630000 -43.200000
206.310000 182.680000 -43.200000
208.240000 180.830000 -43.200000
210.240000 179.040000 -43.200000
212.290000 177.300000 -43.200000
214.400000 175.640000 -43.200000
216.560000 174.050000 -43.200000
218.750000 172.260000 -43.200000
220.980000 170.410000 -43.200000
223.260000 168.790000 -43.200000
225.620000 167.720000 -43.200000
228.070000 167.480000 -43.200000
230.680000 167.720000 -43.200000
233.400000 168.190000 -43.200000
236.090000 168.780000 -43.200000
238.650000 169.450000 -43.200000
241.190000 170.380000 -43.200000
243.680000 171.570000 -43.200000
246.040000 172.950000 -43.200000
248.200000 174.420000 -43.200000
250.230000 176.080000 -43.200000
252.190000 177.990000 -43.200000
254.030000 180.090000 -43.200000
255.660000 182.310000 -43.200000
257.020000 184.570000 -43.200000
258.200000 186.900000 -43.200000
259.380000 189.390000 -43.200000
260.410000 191.980000 -43.200000
261.160000 194.610000 -43.200000
261.490000 197.230000 -43.200000
261.360000 199.860000 -43.200000
260.930000 202.560000 -43.200000
260.280000 205.240000 -43.200000
259.520000 207.810000 -43.200000
258.600000 210.220000 -43.200000
257.190000 212.540000 -43.200000
255.470000 214.720000 -43.200000
253.650000 216.680000 -43.200000
251.740000 218.460000 -43.200000
249.650000 220.140000 -43.200000
247.420000 221.720000 -43.200000
245.100000 223.190000 -43.200000
242.730000 224.540000 -43.200000
240.360000 225.770000 -43.200000
237.950000 226.920000 -43.200000
235.460000 228.000000 -43.200000
232.310000 230.650000 -34.560000
229.740000 232.220000 -34.560000
227.170000 233.690000 -34.560000
227.170000 233.690000 -34.560000
224.560000 234.700000 -34.560000
221.860000 234.910000 -34.560000
219.070000 234.710000 -34.560000
216.220000 234.320000 -34.560000
213.350000 233.820000 -34.560000
210.490000 233.270000 -34.560000
207.670000 232.720000 -34.560000
204.730000 232.150000 -34.560000
201.740000 231.490000 -34.560000
198.860000 230.710000 -34.560000
196.260000 229.770000 -34.560000
194.080000 228.630000 -34.560000
192.130000 226.820000 -34.560000
190.370000 224.380000 -34.560000
188.870000 221.650000 -34.560000
187.750000 218.960000 -34.560000
186.830000 216.280000 -34.560000
185.990000 213.450000 -34.560000
185.330000 210.570000 -34.560000
184.930000 207.750000 -34.560000
185.000000 205.080000 -34.560000
186.010000 202.500000 -34.560000
187.640000 199.980000 -34.560000
189.390000 197.510000 -34.560000
190.920000 195.080000 -34.560000
192.490000 192.690000 -34.560000
194.140000 190.350000 -34.560000
195.870000 188.050000 -34.560000
195.870000 188.050000 -34.560000
197.810000 185.950000 -34.560000
199.750000 183.850000 -34.560000
201.700000 181.760000 -34.560000
203.630000 179.650000 -34.560000
205.500000 177.350000 -34.560000
207.360000 175.060000 -34.560000
209.350000 173.060000 -34.560000
211.580000 171.600000 -34.560000
214.130000 170.440000 -34.560000
216.890000 169.440000 -34.560000
219.710000 168.600000 -34.560000
222.490000 167.860000 -34.560000
225.320000 167.110000 -34.560000
228.160000 166.520000 -34.560000
230.880000 166.390000 -34.560000
233.470000 167.350000 -34.560000
235.990000 168.970000 -34.560000
238.540000 170.470000 -34.560000
241.250000 171.570000 -34.560000
244.040000 172.590000 -34.560000
246.710000 173.680000 -34.560000
249.050000 175.000000 -34.560000
251.140000 176.730000 -34.560000
253.140000 178.850000 -34.560000
254.970000 181.250000 -34.560000
256.540000 183.780000 -34.560000
257.780000 186.310000 -34.560000
258.840000 188.900000 -34.560000
259.850000 191.640000 -34.560000
260.660000 194.460000 -34.560000
261.160000 197.310000 -34.560000
261.250000 200.140000 -34.560000
261.120000 203.080000 -34.560000
260.870000 206.050000 -34.560000
260.520000 208.920000 -34.560000
260.090000 211.530000 -34.560000
259.120000 213.950000 -34.560000
257.360000 216.290000 -34.560000
255.140000 218.460000 -34.560000
252.750000 220.400000 -34.560000
250.500000 222.060000 -34.560000
248.150000 223.490000 -34.560000
245.630000 224.780000 -34.560000
242.990000 225.950000 -34.560000
240.280000 227.080000 -34.560000
237.560000 228.190000 -34.560000
234.890000 229.330000 -34.560000
232.470000 231.430000 -25.920000
229.680000 232.280000 -25.920000
226.780000 232.940000 -25.920000
226.780000 232.940000 -25.920000
226.780000 232.940000 -25.920000
223.970000 232.930000 -25.920000
221.160000 232.900000 -25.920000
218.360000 232.860000 -25.920000
215.550000 232.810000 -25.920000
212.750000 232.740000 -25.920000
209.960000 232.660000 -25.920000
207.110000 232.550000 -25.920000
204.200000 232.330000 -25.920000
201.320000 232.010000 -25.920000
198.590000 231.590000 -25.920000
196.110000 231.040000 -25.920000
193.590000 229.770000 -25.920000
191.160000 227.820000 -25.920000
189.170000 225.520000 -25.920000
187.950000 223.210000 -25.920000
187.190000 220.730000 -25.920000
186.540000 217.940000 -25.920000
186.040000 215.010000 -25.920000
185.750000 212.110000 -25.920000
185.770000 209.400000 -25.920000
186.570000 206.790000 -25.920000
187.920000 204.230000 -25.920000
189.410000 201.710000 -25.920000
190.700000 199.200000 -25.920000
191.960000 196.660000 -25.920000
193.260000 194.130000 -25.920000
194.610000 191.620000 -25.920000
196.030000 189.180000 -25.920000
197.540000 186.830000 -25.920000
199.150000 184.600000 -25.920000
200.910000 182.490000 -25.920000
202.890000 180.470000 -25.920000
205.020000 178.570000 -25.920000
207.230000 176.840000 -25.920000
209.540000 175.340000 -25.920000
212.010000 174.000000 -25.920000
214.540000 172.730000 -25.920000
217.040000 171.420000 -25.920000
219.440000 169.750000 -25.920000
221.800000 167.920000 -25.920000
224.240000 166.770000 -25.920000
226.860000 166.750000 -25.920000
229.680000 167.060000 -25.920000
232.550000 167.560000 -25.920000
235.350000 168.200000 -25.920000
237.920000 168.940000 -25.920000
240.310000 170.200000 -25.920000
242.600000 171.910000 -25.920000
244.830000 173.810000 -25.920000
247.030000 175.640000 -25.920000
249.440000 177.330000 -25.920000
252.020000 179.020000 -25.920000
254.420000 180.790000 -25.920000
256.300000 182.720000 -25.920000
257.340000 184.890000 -25.920000
257.940000 187.530000 -25.920000
258.370000 190.440000 -25.920000
258.660000 193.300000 -25.920000
258.900000 196.110000 -25.920000
259.080000 198.940000 -25.920000
259.180000 201.720000 -25.920000
259.020000 204.440000 -25.920000
258.250000 207.150000 -25.920000
257.060000 209.810000 -25.920000
255.660000 212.370000 -25.920000
254.240000 214.750000 -25.920000
252.740000 217.050000 -25.920000
250.970000 219.320000 -25.920000
249.010000 221.480000 -25.920000
246.910000 223.460000 -25.920000
244.720000 225.200000 -25.920000
242.510000 226.660000 -25.920000
240.180000 228.010000 -25.920000
237.730000 229.270000 -25.920000
235.160000 230.420000 -25.920000
233.620000 233.960000 -17.280000
230.660000 234.540000 -17.280000
227.770000 235.270000 -17.280000
224.880000 236.030000 -17.280000
224.880000 236.030000 -17.280000
221.990000 236.690000 -17.280000
219.090000 237.120000 -17.280000
216.190000 237.180000 -17.280000
213.210000 236.950000 -17.280000
210.200000 236.500000 -17.280000
207.240000 235.880000 -17.280000
204.410000 235.150000 -17.280000
201.750000 234.350000 -17.280000
198.960000 233.170000 -17.280000
196.100000 231.570000 -17.280000
193.380000 229.660000 -17.280000
191.020000 227.520000 -17.280000
189.240000 225.260000 -17.280000
188.240000 222.970000 -17.280000
187.610000 220.400000 -17.280000
187.080000 217.490000 -17.280000
186.660000 214.400000 -17.280000
186.400000 211.270000 -17.280000
186.310000 208.270000 -17.280000
186.430000 205.370000 -17.280000
186.740000 202.470000 -17.280000
187.240000 199.570000 -17.280000
187.920000 196.680000 -17.280000
188.770000 193.790000 -17.280000
189.780000 190.910000 -17.280000
189.780000 190.910000 -17.280000
190.530000 187.770000 -17.280000
191.590000 184.850000 -17.280000
192.890000 182.170000 -17.280000
194.380000 179.770000 -17.280000
196.020000 177.670000 -17.280000
198.150000 175.880000 -17.280000
200.710000 174.290000 -17.280000
203.420000 172.770000 -17.280000
206.020000 171.210000 -17.280000
208.450000 169.310000 -17.280000
210.840000 167.170000 -17.280000
213.260000 165.200000 -17.280000
215.760000 163.820000 -17.280000
218.390000 163.430000 -17.280000
221.230000 163.570000 -17.280000
224.230000 163.890000 -17.280000
227.250000 164.330000 -17.280000
230.200000 164.850000 -17.280000
233.000000 165.460000 -17.280000
235.800000 166.420000 -17.280000
238.590000 167.700000 -17.280000
241.290000 169.230000 -17.280000
243.830000 170.940000 -17.280000
246.120000 172.740000 -17.280000
248.140000 174.580000 -17.280000
250.200000 176.670000 -17.280000
252.260000 179.020000 -17.280000
254.190000 181.570000 -17.280000
255.870000 184.250000 -17.280000
257.150000 187.010000 -17.280000
257.920000 189.770000 -17.280000
258.120000 192.540000 -17.280000
258.210000 195.460000 -17.280000
258.280000 198.500000 -17.280000
258.330000 201.540000 -17.280000
258.350000 204.490000 -17.280000
258.300000 207.290000 -17.280000
257.860000 210.220000 -17.280000
257.020000 213.270000 -17.280000
255.840000 216.350000 -17.280000
254.360000 219.390000 -17.280000
252.640000 222.300000 -17.280000
250.740000 225.000000 -17.280000
248.710000 227.420000 -17.280000
246.600000 229.470000 -17.280000
244.460000 231.070000 -17.280000
242.340000 232.150000 -17.280000
239.770000 232.880000 -17.280000
236.760000 233.440000 -17.280000
232.170000 226.620000 -8.640000
229.640000 227.450000 -8.640000
227.000000 228.110000 -8.640000
224.250000 228.560000 -8.640000
224.250000 228.560000 -8.640000
224.250000 228.560000 -8.640000
221.340000 229.850000 -8.640000
218.520000 230.840000 -8.640000
215.790000 231.550000 -8.640000
213.150000 232.040000 -8.640000
210.600000 232.350000 -8.640000
208.140000 232.520000 -8.640000
205.780000 232.590000 -8.640000
203.500000 232.610000 -8.640000
201.260000 232.320000 -8.640000
198.990000 231.110000 -8.640000
196.800000 229.220000 -8.640000
194.830000 226.960000 -8.640000
193.190000 224.640000 -8.640000
191.980000 222.510000 -8.640000
190.870000 220.250000 -8.640000
189.810000 217.790000 -8.640000
188.860000 215.210000 -8.640000
188.050000 212.550000 -8.640000
187.420000 209.880000 -8.640000
187.040000 207.260000 -8.640000
186.940000 204.740000 -8.640000
187.390000 202.250000 -8.640000
188.380000 199.760000 -8.640000
189.670000 197.320000 -8.640000
191.050000 194.990000 -8.640000
192.400000 192.820000 -8.640000
194.000000 190.770000 -8.640000
195.780000 188.810000 -8.640000
197.630000 186.880000 -8.640000
199.420000 184.910000 -8.640000
201.080000 182.870000 -8.640000
202.660000 180.760000 -8.640000
204.240000 178.640000 -8.640000
205.870000 176.570000 -8.640000
207.590000 174.620000 -8.640000
209.440000 172.620000 -8.640000
211.400000 170.630000 -8.640000
213.520000 169.330000 -8.640000
215.870000 168.800000 -8.640000
218.440000 168.360000 -8.640000
221.140000 168.040000 -8.640000
223.860000 167.850000 -8.640000
226.520000 167.800000 -8.640000
229.170000 167.940000 -8.640000
231.840000 168.240000 -8.640000
234.460000 168.670000 -8.640000
236.960000 169.170000 -8.640000
239.440000 169.920000 -8.640000
242.000000 171.120000 -8.640000
244.390000 172.650000 -8.640000
246.390000 174.380000 -8.640000
247.780000 176.210000 -8.640000
248.830000 178.420000 -8.640000
249.700000 180.980000 -8.640000
250.440000 183.680000 -8.640000
251.090000 186.330000 -8.640000
251.730000 188.890000 -8.640000
252.380000 191.490000 -8.640000
252.970000 194.100000 -8.640000
253.430000 196.710000 -8.640000
253.710000 199.280000 -8.640000
253.710000 201.800000 -8.640000
253.200000 204.350000 -8.640000
252.250000 206.880000 -8.640000
251.020000 209.350000 -8.640000
249.670000 211.700000 -8.640000
248.330000 213.870000 -8.640000
246.840000 215.990000 -8.640000
245.110000 218.070000 -8.640000
243.190000 220.050000 -8.640000
241.140000 221.850000 -8.640000
239.010000 223.380000 -8.640000
236.850000 224.580000 -8.640000
234.570000 225.650000 -8.640000
236.430000 233.910000 0.000000
233.650000 235.250000 0.000000
230.790000 236.240000 0.000000
227.970000 236.810000 0.000000
225.070000 237.280000 0.000000
222.110000 237.680000 0.000000
222.110000 237.680000 0.000000
219.110000 237.990000 0.000000
216.140000 238.200000 0.000000
213.220000 238.290000 0.000000
210.360000 237.910000 0.000000
207.530000 236.880000 0.000000
204.780000 235.630000 0.000000
202.080000 234.420000 0.000000
199.320000 233.040000 0.000000
196.640000 231.500000 0.000000
194.200000 229.790000 0.000000
192.120000 227.930000 0.000000
190.410000 225.810000 0.000000
188.880000 223.340000 0.000000
187.510000 220.620000 0.000000
186.280000 217.780000 0.000000
185.200000 214.940000 0.000000
184.200000 212.170000 0.000000
183.170000 209.360000 0.000000
182.250000 206.490000 0.000000
181.600000 203.600000 0.000000
181.390000 200.690000 0.000000
181.470000 197.680000 0.000000
181.670000 194.610000 0.000000
181.980000 191.660000 0.000000
182.400000 189.030000 0.000000
183.630000 186.650000 0.000000
185.640000 184.440000 0.000000
188.050000 182.320000 0.000000
190.490000 180.230000 0.000000
192.620000 178.100000 0.000000
194.640000 175.820000 0.000000
196.700000 173.580000 0.000000
198.860000 171.590000 0.000000
201.210000 170.050000 0.000000
203.810000 168.670000 0.000000
206.610000 167.420000 0.000000
209.510000 166.530000 0.000000
212.400000 166.240000 0.000000
215.280000 166.260000 0.000000
218.220000 166.320000 0.000000
221.190000 166.490000 0.000000
224.210000 166.820000 0.000000
224.210000 166.820000 0.000000
227.300000 166.910000 0.000000
230.290000 167.140000 0.000000
233.140000 167.470000 0.000000
235.870000 167.980000 0.000000
238.550000 169.190000 0.000000
241.120000 170.940000 0.000000
243.490000 172.910000 0.000000
245.620000 174.850000 0.000000
247.850000 176.960000 0.000000
250.080000 179.280000 0.000000
252.070000 181.770000 0.000000
253.620000 184.360000 0.000000
254.480000 187.010000 0.000000
254.660000 189.730000 0.000000
254.760000 192.650000 0.000000
254.830000 195.680000 0.000000
254.870000 198.710000 0.000000
254.850000 201.660000 0.000000
254.560000 204.620000 0.000000
253.980000 207.570000 0.000000
253.200000 210.500000 0.000000
252.280000 213.340000 0.000000
251.310000 216.070000 0.000000
250.230000 218.710000 0.000000
248.830000 221.380000 0.000000
247.170000 224.010000 0.000000
245.310000 226.490000 0.000000
243.300000 228.760000 0.000000
241.200000 230.710000 0.000000
238.980000 232.360000 0.000000
3 0 80 2
3 0 2 3
3 0 3 4
3 0 4 5
3 0 5 6
3 0 6 7
3 0 7 8
3 0 8 9
3 0 9 10
3 0 10 11
3 0 11 12
3 0 12 13
3 0 13 14
3 0 14 15
3 0 15 16
3 0 16 17
3 0 17 18
3 0 18 19
3 0 19 20
3 0 20 21
3 0 21 22
3 0 22 23
3 0 23 24
3 0 24 25
3 0 25 26
3 0 26 27
3 0 27 28
3 0 28 29
3 0 29 30
3 0 30 31
3 0 31 32
3 0 32 33
3 0 33 34
3 0 34 35
3 0 35 36
3 0 36 37
3 0 37 38
3 0 38 39
3 0 39 40
3 0 40 41
3 0 41 42
3 0 42 43
3 0 43 44
3 0 44 45
3 0 45 46
3 0 46 47
3 0 47 48
3 0 48 49
3 0 49 50
3 0 50 51
3 0 51 52
3 0 52 53
3 0 53 54
3 0 54 55
3 0 55 56
3 0 56 57
3 0 57 58
3 0 58 59
3 0 59 60
3 0 60 61
3 0 61 62
3 0 62 63
3 0 63 64
3 0 64 65
3 0 65 66
3 0 66 67
3 0 67 68
3 0 68 69
3 0 69 70
3 0 70 71
3 0 71 72
3 0 72 73
3 0 73 74
3 0 74 75
3 0 75 76
3 0 76 77
3 0 77 79
3 0 79 80
3 80 81 82
3 80 82 2
3 2 82 3
3 3 82 84
3 3 84 4
3 4 84 85
3 4 85 5
3 5 85 86
3 5 86 6
3 6 86 87
3 6 87 7
3 7 87 88
3 7 88 8
3 8 88 89
3 8 89 9
3 9 89 90
3 9 90 10
3 10 90 91
3 10 91 11
3 11 91 92
3 11 92 12
3 12 92 93
3 12 93 13
3 13 93 94
3 13 94 14
3 14 94 95
3 14 95 15
3 15 95 96
3 15 96 16
3 16 96 97
3 16 97 17
3 17 97 98
3 17 98 18
3 18 98 99
3 18 99 19
3 19 99 100
3 19 100 20
3 20 100 101
3 20 101 21
3 21 101 102
3 21 102 22
3 22 102 103
3 22 103 23
3 23 103 104
3 23 104 24
3 24 104 105
3 24 105 25
3 25 105 106
3 25 106 26
3 26 106 107
3 26 107 27
3 27 107 108
3 27 108 28
3 28 108 109
3 28 109 29
3 29 109 110
3 29 110 30
3 30 110 111
3 30 111 31
3 31 111 112
3 31 112 32
3 32 112 113
3 32 113 33
3 33 113 114
3 33 114 34
3 34 114 115
3 34 115 35
3 35 115 116
3 35 116 36
3 36 116 37
3 37 116 118
3 37 118 38
3 38 118 119
3 38 119 39
3 39 119 120
3 39 120 40
3 40 120 121
3 40 121 41
3 41 121 122
3 41 122 42
3 42 122 123
3 42 123 43
3 43 123 124
3 43 124 44
3 44 124 125
3 44 125 45
3 45 125 126
3 45 126 46
3 46 126 127
3 46 127 47
3 47 127 128
3 47 128 48
3 48 128 129
3 48 129 49
3 49 129 130
3 49 130 50
3 50 130 131
3 50 131 51
3 51 131 132
3 51 132 52
3 52 132 133
3 52 133 53
3 53 133 134
3 53 134 54
3 54 134 135
3 54 135 55
3 55 135 136
3 55 136 56
3 56 136 137
3 56 137 57
3 57 137 138
3 57 138 58
3 58 138 139
3 58 139 59
3 59 139 140
3 59 140 60
3 60 140 141
3 60 141 61
3 61 141 142
3 61 142 62
3 62 142 143
3 62 143 63
3 63 143 144
3 63 144 64
3 64 144 145
3 64 145 65
3 65 145 146
3 65 146 66
3 66 146 147
3 66 147 67
3 67 147 148
3 67 148 68
3 68 148 149
3 68 149 69
3 69 149 150
3 69 150 70
3 70 150 151
3 70 151 71
3 71 151 152
3 71 152 72
3 72 152 153
3 72 153 73
3 73 153 154
3 73 154 74
3 74 154 155
3 74 155 75
3 75 155 156
3 75 156 76
3 76 156 157
3 76 157 77
3 77 157 158
3 77 158 159
3 77 159 79
3 79 159 160
3 79 160 80
3 80 160 81
3 81 161 162
3 81 162 82
3 82 162 164
3 82 164 84
3 84 164 165
3 84 165 85
3 85 165 166
3 85 166 86
3 86 166 167
3 86 167 87
3 87 167 168
3 87 168 88
3 88 168 169
3 88 169 89
3 89 169 170
3 89 170 90
3 90 170 171
3 90 171 91
3 91 171 172
3 91 172 92
3 92 172 173
3 92 173 93
3 93 173 174
3 93 174 94
3 94 174 175
3 94 175 95
3 95 175 176
3 95 176 96
3 96 176 177
3 96 177 97
3 97 177 178
3 97 178 98
3 98 178 179
3 98 179 99
3 99 179 180
3 99 180 100
3 100 180 181
3 100 181 101
3 101 181 182
3 101 182 102
3 102 182 183
3 102 183 103
3 103 183 184
3 103 184 104
3 104 184 185
3 104 185 105
3 105 185 186
3 105 186 106
3 106 186 187
3 106 187 107
3 107 187 188
3 107 188 108
3 108 188 189
3 108 189 109
3 109 189 190
3 109 190 110
3 110 190 191
3 110 191 111
3 111 191 192
3 111 192 112
3 112 192 193
3 112 193 113
3 113 193 194
3 113 194 114
3 114 194 195
3 114 195 115
3 115 195 196
3 115 196 116
3 116 196 197
3 116 197 198
3 116 198 118
3 118 198 199
3 118 199 119
3 119 199 200
3 119 200 120
3 120 200 201
3 120 201 121
3 121 201 202
3 121 202 122
3 122 202 203
3 122 203 123
3 123 203 204
3 123 204 124
3 124 204 205
3 124 205 125
3 125 205 206
3 125 206 126
3 126 206 207
3 126 207 127
3 127 207 208
3 127 208 128
3 128 208 209
3 128 209 129
3 129 209 210
3 129 210 130
3 130 210 211
3 130 211 131
3 131 211 212
3 131 212 132
3 132 212 213
3 132 213 133
3 133 213 214
3 133 214 134
3 134 214 215
3 134 215 135
3 135 215 216
3 135 216 136
3 136 216 217
3 136 217 137
3 137 217 218
3 137 218 138
3 138 218 219
3 138 219 139
3 139 219 220
3 139 220 140
3 140 220 221
3 140 221 141
3 141 221 222
3 141 222 142
3 142 222 223
3 142 223 143
3 143 223 224
3 143 224 144
3 144 224 225
3 144 225 145
3 145 225 226
3 145 226 146
3 146 226 227
3 146 227 147
3 147 227 228
3 147 228 148
3 148 228 229
3 148 229 149
3 149 229 230
3 149 230 150
3 150 230 231
3 150 231 151
3 151 231 232
3 151 232 152
3 152 232 233
3 152 233 153
3 153 233 234
3 153 234 154
3 154 234 235
3 154 235 155
3 155 235 236
3 155 236 156
3 156 236 237
3 156 237 157
3 157 237 158
3 158 237 239
3 158 239 159
3 159 239 240
3 159 240 160
3 160 240 161
3 160 161 81
3 161 241 242
3 161 242 162
3 162 242 244
3 162 244 164
3 164 244 245
3 164 245 165
3 165 245 246
3 165 246 166
3 166 246 247
3 166 247 167
3 167 247 248
3 167 248 168
3 168 248 249
3 168 249 169
3 169 249 250
3 169 250 170
3 170 250 251
3 170 251 171
3 171 251 252
3 171 252 172
3 172 252 253
3 172 253 173
3 173 253 254
3 173 254 174
3 174 254 255
3 174 255 175
3 175 255 256
3 175 256 176
3 176 256 257
3 176 257 177
3 177 257 258
3 177 258 178
3 178 258 259
3 178 259 179
3 179 259 260
3 179 260 180
3 180 260 261
3 180 261 181
3 181 261 262
3 181 262 182
3 182 262 263
3 182 263 183
3 183 263 264
3 183 264 184
3 184 264 265
3 184 265 185
3 185 265 266
3 185 266 186
3 186 266 267
3 186 267 187
3 187 267 268
3 187 268 188
3 188 268 269
3 188 269 189
3 189 269 270
3 189 270 190
3 190 270 271
3 190 271 191
3 191 271 272
3 191 272 192
3 192 272 273
3 192 273 193
3 193 273 274
3 193 274 194
3 194 274 275
3 194 275 195
3 195 275 276
3 195 276 196
3 196 276 197
3 197 276 278
3 197 278 198
3 198 278 279
3 198 279 199
3 199 279 280
3 199 280 200
3 200 280 281
3 200 281 201
3 201 281 282
3 201 282 202
3 202 282 283
3 202 283 203
3 203 283 284
3 203 284 204
3 204 284 285
3 204 285 205
3 205 285 286
3 205 286 206
3 206 286 287
3 206 287 207
3 207 287 288
3 207 288 208
3 208 288 289
3 208 289 209
3 209 289 290
3 209 290 210
3 210 290 291
3 210 291 211
3 211 291 292
3 211 292 212
3 212 292 293
3 212 293 213
3 213 293 294
3 213 294 214
3 214 294 295
3 214 295 215
3 215 295 296
3 215 296 216
3 216 296 297
3 216 297 217
3 217 297 298
3 217 298 218
3 218 298 299
3 218 299 219
3 219 299 300
3 219 300 220
3 220 300 301
3 220 301 221
3 221 301 302
3 221 302 222
3 222 302 303
3 222 303 223
3 223 303 304
3 223 304 224
3 224 304 305
3 224 305 225
3 225 305 306
3 225 306 226
3 226 306 307
3 226 307 227
3 227 307 308
3 227 308 228
3 228 308 309
3 228 309 229
3 229 309 310
3 229 310 230
3 230 310 311
3 230 311 231
3 231 311 312
3 231 312 232
3 232 312 313
3 232 313 233
3 233 313 314
3 233 314 234
3 234 314 315
3 234 315 235
3 235 315 316
3 235 316 236
3 236 316 317
3 236 317 237
3 237 317 318
3 237 318 319
3 237 319 239
3 239 319 320
3 239 320 240
3 240 320 241
3 240 241 161
3 241 321 322
3 241 322 242
3 242 322 324
3 242 324 244
3 244 324 325
3 244 325 245
3 245 325 326
3 245 326 246
3 246 326 327
3 246 327 247
3 247 327 328
3 247 328 248
3 248 328 329
3 248 329 249
3 249 329 330
3 249 330 250
3 250 330 331
3 250 331 251
3 251 331 332
3 251 332 252
3 252 332 333
3 252 333 253
3 253 333 334
3 253 334 254
3 254 334 335
3 254 335 255
3 255 335 336
3 255 336 256
3 256 336 337
3 256 337 257
3 257 337 338
3 257 338 258
3 258 338 339
3 258 339 259
3 259 339 340
3 259 340 260
3 260 340 341
3 260 341 261
3 261 341 342
3 261 342 262
3 262 342 343
3 262 343 263
3 263 343 344
3 263 344 264
3 264 344 345
3 264 345 265
3 265 345 346
3 265 346 266
3 266 346 347
3 266 347 267
3 267 347 348
3 267 348 268
3 268 348 349
3 268 349 269
3 269 349 270
3 270 349 351
3 270 351 271
3 271 351 352
3 271 352 272
3 272 352 353
3 272 353 273
3 273 353 354
3 273 354 274
3 274 354 355
3 274 355 275
3 275 355 356
3 275 356 276
3 276 356 357
3 276 357 358
3 276 358 278
3 278 358 359
3 278 359 279
3 279 359 360
3 279 360 280
3 280 360 361
3 280 361 281
3 281 361 362
3 281 362 282
3 282 362 363
3 282 363 283
3 283 363 364
3 283 364 284
3 284 364 365
3 284 365 285
3 285 365 366
3 285 366 286
3 286 366 367
3 286 367 287
3 287 367 368
3 287 368 288
3 288 368 369
3 288 369 289
3 289 369 370
3 289 370 290
3 290 370 371
3 290 371 291
3 291 371 372
3 291 372 292
3 292 372 373
3 292 373 293
3 293 373 374
3 293 374 294
3 294 374 375
3 294 375 295
3 295 375 376
3 295 376 296
3 296 376 377
3 296 377 297
3 297 377 378
3 297 378 298
3 298 378 379
3 298 379 299
3 299 379 380
3 299 380 300
3 300 380 381
3 300 381 301
3 301 381 382
3 301 382 302
3 302 382 383
3 302 383 303
3 303 383 384
3 303 384 304
3 304 384 385
3 304 385 305
3 305 385 386
3 305 386 306
3 306 386 387
3 306 387 307
3 307 387 388
3 307 388 308
3 308 388 389
3 308 389 309
3 309 389 390
3 309 390 310
3 310 390 391
3 310 391 311
3 311 391 392
3 311 392 312
3 312 392 393
3 312 393 313
3 313 393 394
3 313 394 314
3 314 394 395
3 314 395 315
3 315 395 396
3 315 396 316
3 316 396 397
3 316 397 317
3 317 397 398
3 317 398 318
3 318 398 399
3 318 399 319
3 319 399 400
3 319 400 320
3 320 400 321
3 320 321 241
3 321 401 402
3 321 402 322
3 322 402 403
3 322 403 324
3 324 403 405
3 324 405 325
3 325 405 406
3 325 406 326
3 326 406 407
3 326 407 327
3 327 407 408
3 327 408 328
3 328 408 409
3 328 409 329
3 329 409 410
3 329 410 330
3 330 410 411
3 330 411 331
3 331 411 412
3 331 412 332
3 332 412 413
3 332 413 333
3 333 413 414
3 333 414 334
3 334 414 415
3 334 415 335
3 335 415 416
3 335 416 336
3 336 416 417
3 336 417 337
3 337 417 418
3 337 418 338
3 338 418 419
3 338 419 339
3 339 419 420
3 339 420 340
3 340 420 421
3 340 421 341
3 341 421 422
3 341 422 342
3 342 422 423
3 342 423 343
3 343 423 424
3 343 424 344
3 344 424 425
3 344 425 345
3 345 425 426
3 345 426 346
3 346 426 427
3 346 427 347
3 347 427 428
3 347 428 348
3 348 428 429
3 348 429 349
3 349 429 430
3 349 430 431
3 349 431 351
3 351 431 432
3 351 432 352
3 352 432 353
3 353 432 434
3 353 434 354
3 354 434 435
3 354 435 355
3 355 435 436
3 355 436 356
3 356 436 437
3 356 437 357
3 357 437 438
3 357 438 358
3 358 438 439
3 358 439 359
3 359 439 440
3 359 440 360
3 360 440 441
3 360 441 361
3 361 441 442
3 361 442 362
3 362 442 443
3 362 443 363
3 363 443 444
3 363 444 364
3 364 444 445
3 364 445 365
3 365 445 446
3 365 446 366
3 366 446 447
3 366 447 367
3 367 447 448
3 367 448 368
3 368 448 449
3 368 449 369
3 369 449 450
3 369 450 370
3 370 450 451
3 370 451 371
3 371 451 452
3 371 452 372
3 372 452 453
3 372 453 373
3 373 453 454
3 373 454 374
3 374 454 455
3 374 455 375
3 375 455 456
3 375 456 376
3 376 456 457
3 376 457 377
3 377 457 458
3 377 458 378
3 378 458 459
3 378 459 379
3 379 459 460
3 379 460 380
3 380 460 461
3 380 461 381
3 381 461 462
3 381 462 382
3 382 462 463
3 382 463 383
3 383 463 464
3 383 464 384
3 384 464 465
3 384 465 385
3 385 465 466
3 385 466 386
3 386 466 467
3 386 467 387
3 387 467 468
3 387 468 388
3 388 468 469
3 388 469 389
3 389 469 470
3 389 470 390
3 390 470 471
3 390 471 391
3 391 471 472
3 391 472 392
3 392 472 473
3 392 473 393
3 393 473 474
3 393 474 394
3 394 474 475
3 394 475 395
3 395 475 476
3 395 476 396
3 396 476 477
3 396 477 397
3 397 477 478
3 397 478 398
3 398 478 479
3 398 479 399
3 399 479 480
3 399 480 400
3 400 480 401
3 400 401 321
3 401 481 482
3 401 482 402
3 402 482 483
3 402 483 403
3 403 483 405
3 405 483 486
3 405 486 406
3 406 486 487
3 406 487 407
3 407 487 488
3 407 488 408
3 408 488 489
3 408 489 409
3 409 489 490
3 409 490 410
3 410 490 491
3 410 491 411
3 411 491 492
3 411 492 412
3 412 492 493
3 412 493 413
3 413 493 494
3 413 494 414
3 414 494 495
3 414 495 415
3 415 495 496
3 415 496 416
3 416 496 497
3 416 497 417
3 417 497 498
3 417 498 418
3 418 498 499
3 418 499 419
3 419 499 500
3 419 500 420
3 420 500 501
3 420 501 421
3 421 501 502
3 421 502 422
3 422 502 503
3 422 503 423
3 423 503 504
3 423 504 424
3 424 504 505
3 424 505 425
3 425 505 506
3 425 506 426
3 426 506 507
3 426 507 427
3 427 507 508
3 427 508 428
3 428 508 509
3 428 509 429
3 429 509 510
3 429 510 430
3 430 510 511
3 430 511 431
3 431 511 512
3 431 512 432
3 432 512 513
3 432 513 514
3 432 514 434
3 434 514 515
3 434 515 435
3 435 515 516
3 435 516 436
3 436 516 517
3 436 517 437
3 437 517 518
3 437 518 438
3 438 518 519
3 438 519 439
3 439 519 520
3 439 520 440
3 440 520 521
3 440 521 441
3 441 521 522
3 441 522 442
3 442 522 523
3 442 523 443
3 443 523 524
3 443 524 444
3 444 524 525
3 444 525 445
3 445 525 526
3 445 526 446
3 446 526 527
3 446 527 447
3 447 527 528
3 447 528 448
3 448 528 529
3 448 529 449
3 449 529 530
3 449 530 450
3 450 530 531
3 450 531 451
3 451 531 532
3 451 532 452
3 452 532 533
3 452 533 453
3 453 533 534
3 453 534 454
3 454 534 535
3 454 535 455
3 455 535 536
3 455 536 456
3 456 536 537
3 456 537 457
3 457 537 538
3 457 538 458
3 458 538 539
3 458 539 459
3 459 539 540
3 459 540 460
3 460 540 541
3 460 541 461
3 461 541 542
3 461 542 462
3 462 542 543
3 462 543 463
3 463 543 544
3 463 544 464
3 464 544 545
3 464 545 465
3 465 545 546
3 465 546 466
3 466 546 547
3 466 547 467
3 467 547 548
3 467 548 468
3 468 548 549
3 468 549 469
3 469 549 550
3 469 550 470
3 470 550 551
3 470 551 471
3 471 551 552
3 471 552 472
3 472 552 553
3 472 553 473
3 473 553 554
3 473 554 474
3 474 554 555
3 474 555 475
3 475 555 556
3 475 556 476
3 476 556 557
3 476 557 477
3 477 557 558
3 477 558 478
3 478 558 559
3 478 559 479
3 479 559 560
3 479 560 480
3 480 560 481
3 480 481 401
3 481 561 562
3 481 562 482
3 482 562 563
3 482 563 483
3 483 563 564
3 483 564 566
3 483 566 486
3 486 566 567
3 486 567 487
3 487 567 568
3 487 568 488
3 488 568 569
3 488 569 489
3 489 569 570
3 489 570 490
3 490 570 571
3 490 571 491
3 491 571 572
3 491 572 492
3 492 572 573
3 492 573 493
3 493 573 574
3 493 574 494
3 494 574 575
3 494 575 495
3 495 575 576
3 495 576 496
3 496 576 577
3 496 577 497
3 497 577 578
3 497 578 498
3 498 578 579
3 498 579 499
3 499 579 580
3 499 580 500
3 500 580 581
3 500 581 501
3 501 581 582
3 501 582 502
3 502 582 583
3 502 583 503
3 503 583 584
3 503 584 504
3 504 584 585
3 504 585 505
3 505 585 586
3 505 586 506
3 506 586 587
3 506 587 507
3 507 587 588
3 507 588 508
3 508 588 589
3 508 589 509
3 509 589 590
3 509 590 510
3 510 590 511
3 511 590 592
3 511 592 512
3 512 592 593
3 512 593 513
3 513 593 594
3 513 594 514
3 514 594 595
3 514 595 515
3 515 595 596
3 515 596 516
3 516 596 597
3 516 597 517
3 517 597 598
3 517 598 518
3 518 598 599
3 518 599 519
3 519 599 600
3 519 600 520
3 520 600 601
3 520 601 521
3 521 601 602
3 521 602 522
3 522 602 603
3 522 603 523
3 523 603 604
3 523 604 524
3 524 604 605
3 524 605 525
3 525 605 606
3 525 606 526
3 526 606 607
3 526 607 527
3 527 607 608
3 527 608 528
3 528 608 609
3 528 609 529
3 529 609 610
3 529 610 530
3 530 610 611
3 530 611 531
3 531 611 612
3 531 612 532
3 532 612 613
3 532 613 533
3 533 613 614
3 533 614 534
3 534 614 615
3 534 615 535
3 535 615 616
3 535 616 536
3 536 616 617
3 536 617 537
3 537 617 618
3 537 618 538
3 538 618 619
3 538 619 539
3 539 619 620
3 539 620 540
3 540 620 621
3 540 621 541
3 541 621 622
3 541 622 542
3 542 622 623
3 542 623 543
3 543 623 624
3 543 624 544
3 544 624 625
3 544 625 545
3 545 625 626
3 545 626 546
3 546 626 627
3 546 627 547
3 547 627 628
3 547 628 548
3 548 628 629
3 548 629 549
3 549 629 630
3 549 630 550
3 550 630 631
3 550 631 551
3 551 631 632
3 551 632 552
3 552 632 633
3 552 633 553
3 553 633 634
3 553 634 554
3 554 634 635
3 554 635 555
3 555 635 636
3 555 636 556
3 556 636 637
3 556 637 557
3 557 637 638
3 557 638 558
3 558 638 639
3 558 639 559
3 559 639 640
3 559 640 560
3 560 640 561
3 560 561 481
3 561 641 642
3 561 642 562
3 562 642 643
3 562 643 563
3 563 643 644
3 563 644 564
3 564 644 566
3 566 644 647
3 566 647 567
3 567 647 648
3 567 648 568
3 568 648 649
3 568 649 569
3 569 649 650
3 569 650 570
3 570 650 651
3 570 651 571
3 571 651 652
3 571 652 572
3 572 652 653
3 572 653 573
3 573 653 654
3 573 654 574
3 574 654 655
3 574 655 575
3 575 655 656
3 575 656 576
3 576 656 657
3 576 657 577
3 577 657 658
3 577 658 578
3 578 658 659
3 578 659 579
3 579 659 660
3 579 660 580
3 580 660 661
3 580 661 581
3 581 661 662
3 581 662 582
3 582 662 663
3 582 663 583
3 583 663 664
3 583 664 584
3 584 664 665
3 584 665 585
3 585 665 666
3 585 666 586
3 586 666 667
3 586 667 587
3 587 667 668
3 587 668 588
3 588 668 669
3 588 669 589
3 589 669 670
3 589 670 590
3 590 670 671
3 590 671 672
3 590 672 592
3 592 672 673
3 592 673 593
3 593 673 674
3 593 674 594
3 594 674 675
3 594 675 595
3 595 675 676
3 595 676 596
3 596 676 677
3 596 677 597
3 597 677 678
3 597 678 598
3 598 678 679
3 598 679 599
3 599 679 680
3 599 680 600
3 600 680 681
3 600 681 601
3 601 681 682
3 601 682 602
3 602 682 683
3 602 683 603
3 603 683 684
3 603 684 604
3 604 684 685
3 604 685 605
3 605 685 686
3 605 686 606
3 606 686 687
3 606 687 607
3 607 687 688
3 607 688 608
3 608 688 689
3 608 689 609
3 609 689 690
3 609 690 610
3 610 690 691
3 610 691 611
3 611 691 692
3 611 692 612
3 612 692 693
3 612 693 613
3 613 693 694
3 613 694 614
3 614 694 695
3 614 695 615
3 615 695 696
3 615 696 616
3 616 696 697
3 616 697 617
3 617 697 698
3 617 698 618
3 618 698 699
3 618 699 619
3 619 699 700
3 619 700 620
3 620 700 701
3 620 701 621
3 621 701 702
3 621 702 622
3 622 702 703
3 622 703 623
3 623 703 704
3 623 704 624
3 624 704 705
3 624 705 625
3 625 705 706
3 625 706 626
3 626 706 707
3 626 707 627
3 627 707 708
3 627 708 628
3 628 708 709
3 628 709 629
3 629 709 710
3 629 710 630
3 630 710 711
3 630 711 631
3 631 711 712
3 631 712 632
3 632 712 713
3 632 713 633
3 633 713 714
3 633 714 634
3 634 714 715
3 634 715 635
3 635 715 716
3 635 716 636
3 636 716 717
3 636 717 637
3 637 717 718
3 637 718 638
3 638 718 719
3 638 719 639
3 639 719 720
3 639 720 640
3 640 720 641
3 640 641 561
3 641 721 722
3 641 722 642
3 642 722 723
3 642 723 643
3 643 723 724
3 643 724 644
3 644 724 725
3 644 725 726
3 644 726 647
3 647 726 728
3 647 728 648
3 648 728 729
3 648 729 649
3 649 729 730
3 649 730 650
3 650 730 731
3 650 731 651
3 651 731 732
3 651 732 652
3 652 732 733
3 652 733 653
3 653 733 734
3 653 734 654
3 654 734 735
3 654 735 655
3 655 735 736
3 655 736 656
3 656 736 737
3 656 737 657
3 657 737 738
3 657 738 658
3 658 738 739
3 658 739 659
3 659 739 740
3 659 740 660
3 660 740 741
3 660 741 661
3 661 741 742
3 661 742 662
3 662 742 743
3 662 743 663
3 663 743 744
3 663 744 664
3 664 744 745
3 664 745 665
3 665 745 746
3 665 746 666
3 666 746 747
3 666 747 667
3 667 747 748
3 667 748 668
3 668 748 749
3 668 749 669
3 669 749 750
3 669 750 670
3 670 750 751
3 670 751 671
3 671 751 752
3 671 752 672
3 672 752 753
3 672 753 673
3 673 753 754
3 673 754 674
3 674 754 755
3 674 755 675
3 675 755 756
3 675 756 676
3 676 756 757
3 676 757 677
3 677 757 758
3 677 758 678
3 678 758 759
3 678 759 679
3 679 759 760
3 679 760 680
3 680 760 761
3 680 761 681
3 681 761 762
3 681 762 682
3 682 762 763
3 682 763 683
3 683 763 764
3 683 764 684
3 684 764 765
3 684 765 685
3 685 765 766
3 685 766 686
3 686 766 767
3 686 767 687
3 687 767 768
3 687 768 688
3 688 768 769
3 688 769 689
3 689 769 690
3 690 769 771
3 690 771 691
3 691 771 772
3 691 772 692
3 692 772 773
3 692 773 693
3 693 773 774
3 693 774 694
3 694 774 775
3 694 775 695
3 695 775 776
3 695 776 696
3 696 776 777
3 696 777 697
3 697 777 778
3 697 778 698
3 698 778 779
3 698 779 699
3 699 779 780
3 699 780 700
3 700 780 781
3 700 781 701
3 701 781 782
3 701 782 702
3 702 782 783
3 702 783 703
3 703 783 784
3 703 784 704
3 704 784 785
3 704 785 705
3 705 785 786
3 705 786 706
3 706 786 787
3 706 787 707
3 707 787 788
3 707 788 708
3 708 788 789
3 708 789 709
3 709 789 790
3 709 790 710
3 710 790 791
3 710 791 711
3 711 791 792
3 711 792 712
3 712 792 793
3 712 793 713
3 713 793 794
3 713 794 714
3 714 794 795
3 714 795 715
3 715 795 796
3 715 796 716
3 716 796 797
3 716 797 717
3 717 797 798
3 717 798 718
3 718 798 799
3 718 799 719
3 719 799 800
3 719 800 720
3 720 800 721
3 720 721 641
