ply 
format ascii 1.0 
comment this is a surface 
element vertex 801 
property float x 
property float y 
property float z 
element face 1482 
property list uchar int vertex_index 
end_header 
229.395125 205.188750 -77.760000
233.290000 231.880000 -77.760000
231.110000 232.030000 -77.760000
228.830000 232.120000 -77.760000
226.460000 232.150000 -77.760000
226.460000 232.150000 -77.760000
224.030000 232.010000 -77.760000
221.800000 231.620000 -77.760000
219.770000 231.030000 -77.760000
217.950000 230.320000 -77.760000
216.360000 229.100000 -77.760000
214.950000 227.270000 -77.760000
213.560000 225.590000 -77.760000
212.150000 223.910000 -77.760000
210.770000 222.190000 -77.760000
209.460000 220.430000 -77.760000
208.290000 218.620000 -77.760000
207.280000 216.760000 -77.760000
206.340000 214.830000 -77.760000
205.380000 212.830000 -77.760000
204.470000 210.780000 -77.760000
203.640000 208.690000 -77.760000
202.960000 206.590000 -77.760000
202.490000 204.480000 -77.760000
202.270000 202.390000 -77.760000
202.360000 200.280000 -77.760000
202.740000 198.120000 -77.760000
203.340000 195.950000 -77.760000
204.090000 193.840000 -77.760000
204.900000 191.860000 -77.760000
205.800000 190.020000 -77.760000
206.990000 188.240000 -77.760000
208.430000 186.530000 -77.760000
210.020000 184.920000 -77.760000
211.680000 183.440000 -77.760000
213.340000 182.080000 -77.760000
215.110000 180.630000 -77.760000
217.000000 179.350000 -77.760000
218.970000 178.630000 -77.760000
221.000000 178.520000 -77.760000
223.140000 178.460000 -77.760000
225.340000 178.420000 -77.760000
227.560000 178.390000 -77.760000
229.770000 178.370000 -77.760000
231.920000 178.410000 -77.760000
234.110000 178.710000 -77.760000
236.290000 179.230000 -77.760000
238.380000 179.890000 -77.760000
240.320000 180.590000 -77.760000
242.300000 181.410000 -77.760000
244.410000 182.440000 -77.760000
246.570000 183.650000 -77.760000
248.700000 185.010000 -77.760000
250.740000 186.500000 -77.760000
252.610000 188.100000 -77.760000
254.230000 189.790000 -77.760000
255.520000 191.530000 -77.760000
256.420000 193.300000 -77.760000
256.840000 195.080000 -77.760000
256.780000 196.950000 -77.760000
256.450000 199.080000 -77.760000
255.970000 201.320000 -77.760000
255.460000 203.520000 -77.760000
254.950000 205.630000 -77.760000
254.390000 207.730000 -77.760000
253.750000 209.830000 -77.760000
253.060000 211.900000 -77.760000
252.310000 213.940000 -77.760000
251.500000 215.920000 -77.760000
250.610000 217.880000 -77.760000
249.600000 219.840000 -77.760000
248.480000 221.760000 -77.760000
247.270000 223.600000 -77.760000
245.960000 225.300000 -77.760000
244.550000 226.870000 -77.760000
242.950000 228.510000 -77.760000
241.180000 230.010000 -77.760000
239.310000 231.050000 -77.760000
237.390000 231.440000 -77.760000
235.390000 231.680000 -77.760000
233.290000 231.880000 -77.760000
234.270000 237.190000 -69.120000
231.560000 238.030000 -69.120000
231.560000 238.030000 -69.120000
228.840000 238.630000 -69.120000
226.090000 238.950000 -69.120000
223.310000 238.980000 -69.120000
220.390000 238.870000 -69.120000
217.430000 238.650000 -69.120000
214.550000 238.330000 -69.120000
211.880000 237.940000 -69.120000
209.480000 237.310000 -69.120000
207.160000 235.810000 -69.120000
204.980000 233.660000 -69.120000
203.050000 231.200000 -69.120000
201.500000 228.780000 -69.120000
200.330000 226.370000 -69.120000
199.370000 223.730000 -69.120000
198.520000 220.950000 -69.120000
197.670000 218.170000 -69.120000
196.710000 215.480000 -69.120000
195.510000 212.810000 -69.120000
194.240000 210.140000 -69.120000
193.110000 207.480000 -69.120000
192.320000 204.830000 -69.120000
192.100000 202.190000 -69.120000
192.390000 199.500000 -69.120000
193.080000 196.750000 -69.120000
194.080000 193.990000 -69.120000
195.330000 191.270000 -69.120000
196.770000 188.620000 -69.120000
198.310000 186.090000 -69.120000
199.900000 183.720000 -69.120000
201.480000 181.570000 -69.120000
203.280000 179.490000 -69.120000
205.420000 177.480000 -69.120000
207.770000 175.660000 -69.120000
210.230000 174.140000 -69.120000
212.690000 173.000000 -69.120000
215.280000 171.980000 -69.120000
218.020000 171.040000 -69.120000
220.830000 170.280000 -69.120000
223.660000 169.800000 -69.120000
226.460000 169.670000 -69.120000
229.280000 169.860000 -69.120000
232.110000 170.260000 -69.120000
234.920000 170.780000 -69.120000
237.640000 171.350000 -69.120000
240.340000 172.150000 -69.120000
243.030000 173.200000 -69.120000
245.650000 174.430000 -69.120000
248.180000 175.790000 -69.120000
250.580000 177.230000 -69.120000
252.880000 178.760000 -69.120000
255.190000 180.530000 -69.120000
257.390000 182.500000 -69.120000
259.360000 184.610000 -69.120000
260.980000 186.830000 -69.120000
262.330000 189.200000 -69.120000
263.640000 191.820000 -69.120000
264.680000 194.580000 -69.120000
265.200000 197.350000 -69.120000
265.120000 200.090000 -69.120000
264.730000 202.890000 -69.120000
264.120000 205.710000 -69.120000
263.360000 208.510000 -69.120000
262.550000 211.230000 -69.120000
261.680000 213.870000 -69.120000
260.570000 216.550000 -69.120000
259.240000 219.180000 -69.120000
257.740000 221.660000 -69.120000
256.110000 223.910000 -69.120000
254.360000 225.860000 -69.120000
252.370000 227.670000 -69.120000
250.140000 229.370000 -69.120000
247.700000 230.910000 -69.120000
245.060000 232.290000 -69.120000
242.260000 233.470000 -69.120000
242.260000 233.470000 -69.120000
239.620000 234.880000 -69.120000
236.950000 236.130000 -69.120000
233.820000 237.010000 -60.480000
231.040000 238.140000 -60.480000
231.040000 238.140000 -60.480000
228.190000 238.570000 -60.480000
225.260000 238.660000 -60.480000
222.270000 238.720000 -60.480000
219.270000 238.750000 -60.480000
216.300000 238.770000 -60.480000
213.380000 238.480000 -60.480000
210.500000 237.670000 -60.480000
207.630000 236.760000 -60.480000
204.550000 236.020000 -60.480000
201.610000 235.190000 -60.480000
199.780000 233.880000 -60.480000
198.440000 231.710000 -60.480000
197.370000 228.900000 -60.480000
196.420000 225.730000 -60.480000
195.460000 222.490000 -60.480000
194.360000 219.470000 -60.480000
192.910000 216.800000 -60.480000
191.010000 214.180000 -60.480000
189.110000 211.600000 -60.480000
187.690000 209.050000 -60.480000
187.240000 206.560000 -60.480000
188.190000 204.130000 -60.480000
190.160000 201.740000 -60.480000
192.470000 199.370000 -60.480000
194.480000 196.990000 -60.480000
196.200000 194.560000 -60.480000
197.910000 192.130000 -60.480000
199.670000 189.740000 -60.480000
201.600000 187.470000 -60.480000
203.770000 185.340000 -60.480000
205.770000 183.150000 -60.480000
207.210000 180.650000 -60.480000
208.180000 177.640000 -60.480000
209.190000 174.810000 -60.480000
210.760000 172.760000 -60.480000
213.160000 170.950000 -60.480000
216.020000 169.470000 -60.480000
218.950000 168.510000 -60.480000
221.770000 168.050000 -60.480000
224.720000 167.660000 -60.480000
227.750000 167.370000 -60.480000
230.760000 167.180000 -60.480000
233.690000 167.130000 -60.480000
236.580000 167.550000 -60.480000
239.450000 168.500000 -60.480000
242.250000 169.720000 -60.480000
244.960000 170.980000 -60.480000
247.570000 172.320000 -60.480000
250.110000 173.910000 -60.480000
252.560000 175.660000 -60.480000
254.890000 177.510000 -60.480000
257.290000 179.420000 -60.480000
259.710000 181.490000 -60.480000
261.570000 183.750000 -60.480000
262.480000 186.260000 -60.480000
263.050000 189.140000 -60.480000
263.470000 192.200000 -60.480000
263.800000 195.220000 -60.480000
264.120000 198.180000 -60.480000
264.350000 201.140000 -60.480000
264.330000 204.100000 -60.480000
263.900000 207.050000 -60.480000
263.380000 209.990000 -60.480000
262.640000 212.860000 -60.480000
261.510000 215.530000 -60.480000
259.940000 218.100000 -60.480000
258.130000 220.550000 -60.480000
256.260000 222.860000 -60.480000
254.290000 225.090000 -60.480000
252.140000 227.220000 -60.480000
249.850000 229.140000 -60.480000
247.450000 230.750000 -60.480000
244.930000 232.200000 -60.480000
242.260000 233.520000 -60.480000
239.470000 234.650000 -60.480000
236.540000 235.580000 -60.480000
236.540000 235.580000 -60.480000
235.700000 243.210000 -51.840000
232.300000 244.170000 -51.840000
232.300000 244.170000 -51.840000
228.870000 244.680000 -51.840000
225.420000 244.590000 -51.840000
221.940000 244.290000 -51.840000
218.450000 243.930000 -51.840000
214.970000 243.660000 -51.840000
211.480000 243.420000 -51.840000
208.000000 243.130000 -51.840000
204.570000 242.700000 -51.840000
201.080000 241.840000 -51.840000
198.120000 240.480000 -51.840000
195.580000 238.210000 -51.840000
193.310000 235.310000 -51.840000
191.310000 232.260000 -51.840000
189.550000 229.310000 -51.840000
187.940000 226.170000 -51.840000
186.580000 222.920000 -51.840000
185.500000 219.640000 -51.840000
184.450000 216.280000 -51.840000
183.570000 212.850000 -51.840000
183.080000 209.410000 -51.840000
183.070000 205.940000 -51.840000
183.240000 202.390000 -51.840000
183.530000 198.840000 -51.840000
183.920000 195.380000 -51.840000
184.400000 192.100000 -51.840000
185.540000 189.000000 -51.840000
187.400000 186.010000 -51.840000
189.640000 183.110000 -51.840000
191.920000 180.280000 -51.840000
193.990000 177.450000 -51.840000
196.090000 174.560000 -51.840000
198.310000 171.780000 -51.840000
200.710000 169.320000 -51.840000
203.370000 167.310000 -51.840000
206.410000 165.600000 -51.840000
209.640000 164.100000 -51.840000
212.860000 162.710000 -51.840000
216.130000 161.200000 -51.840000
219.450000 160.130000 -51.840000
222.800000 160.100000 -51.840000
226.180000 160.750000 -51.840000
229.590000 161.720000 -51.840000
233.000000 162.720000 -51.840000
236.440000 163.440000 -51.840000
239.990000 163.950000 -51.840000
243.480000 164.480000 -51.840000
246.710000 165.240000 -51.840000
249.600000 166.830000 -51.840000
252.300000 169.190000 -51.840000
254.910000 171.750000 -51.840000
257.540000 174.080000 -51.840000
260.190000 176.430000 -51.840000
262.620000 178.920000 -51.840000
264.660000 181.650000 -51.840000
266.530000 184.650000 -51.840000
268.120000 187.830000 -51.840000
269.240000 191.070000 -51.840000
270.140000 194.460000 -51.840000
270.910000 197.960000 -51.840000
271.410000 201.440000 -51.840000
271.440000 204.750000 -51.840000
270.040000 207.880000 -51.840000
268.050000 210.970000 -51.840000
266.750000 214.210000 -51.840000
265.900000 217.620000 -51.840000
265.010000 221.000000 -51.840000
263.780000 224.260000 -51.840000
262.160000 227.530000 -51.840000
260.190000 230.380000 -51.840000
257.660000 232.380000 -51.840000
254.410000 233.940000 -51.840000
251.320000 235.650000 -51.840000
248.350000 237.510000 -51.840000
245.360000 239.310000 -51.840000
242.270000 240.850000 -51.840000
239.040000 242.130000 -51.840000
235.700000 243.210000 -51.840000
234.710000 242.980000 -43.200000
231.340000 243.850000 -43.200000
231.340000 243.850000 -43.200000
227.950000 244.510000 -43.200000
224.530000 244.940000 -43.200000
221.070000 245.310000 -43.200000
217.600000 245.540000 -43.200000
214.130000 245.540000 -43.200000
210.650000 245.300000 -43.200000
207.300000 244.800000 -43.200000
204.010000 243.580000 -43.200000
200.850000 241.900000 -43.200000
197.940000 240.100000 -43.200000
195.170000 237.980000 -43.200000
192.620000 235.520000 -43.200000
190.440000 232.880000 -43.200000
188.520000 230.040000 -43.200000
186.780000 226.970000 -43.200000
185.280000 223.780000 -43.200000
184.060000 220.560000 -43.200000
182.900000 217.260000 -43.200000
181.900000 213.870000 -43.200000
181.360000 210.460000 -43.200000
181.430000 207.040000 -43.200000
181.850000 203.550000 -43.200000
182.490000 200.090000 -43.200000
183.240000 196.750000 -43.200000
184.210000 193.500000 -43.200000
185.600000 190.280000 -43.200000
187.280000 187.130000 -43.200000
189.180000 184.120000 -43.200000
191.190000 181.290000 -43.200000
193.330000 178.700000 -43.200000
195.910000 176.380000 -43.200000
198.620000 174.120000 -43.200000
201.150000 171.710000 -43.200000
203.590000 169.210000 -43.200000
206.220000 167.040000 -43.200000
209.130000 165.120000 -43.200000
212.210000 163.410000 -43.200000
215.380000 162.050000 -43.200000
218.660000 160.880000 -43.200000
222.060000 159.990000 -43.200000
225.460000 159.890000 -43.200000
228.880000 160.360000 -43.200000
232.310000 161.050000 -43.200000
235.750000 161.650000 -43.200000
239.270000 161.970000 -43.200000
242.860000 162.180000 -43.200000
246.220000 162.480000 -43.200000
249.160000 163.530000 -43.200000
251.820000 166.000000 -43.200000
254.260000 168.720000 -43.200000
256.530000 171.310000 -43.200000
258.640000 174.080000 -43.200000
260.640000 176.940000 -43.200000
262.610000 179.820000 -43.200000
264.730000 182.750000 -43.200000
266.380000 185.780000 -43.200000
267.090000 189.010000 -43.200000
267.520000 192.480000 -43.200000
267.720000 195.990000 -43.200000
267.620000 199.460000 -43.200000
267.320000 202.920000 -43.200000
266.880000 206.350000 -43.200000
266.150000 209.740000 -43.200000
265.410000 213.150000 -43.200000
264.730000 216.670000 -43.200000
263.920000 220.030000 -43.200000
262.740000 223.000000 -43.200000
260.940000 225.810000 -43.200000
258.630000 228.490000 -43.200000
255.970000 231.010000 -43.200000
253.130000 233.350000 -43.200000
250.260000 235.480000 -43.200000
247.460000 237.380000 -43.200000
244.490000 239.090000 -43.200000
241.340000 240.620000 -43.200000
238.050000 241.960000 -43.200000
238.050000 241.960000 -43.200000
235.020000 242.270000 -34.560000
231.560000 243.240000 -34.560000
231.560000 243.240000 -34.560000
228.030000 244.280000 -34.560000
228.030000 244.280000 -34.560000
224.500000 245.050000 -34.560000
220.970000 245.500000 -34.560000
217.420000 245.560000 -34.560000
213.790000 245.310000 -34.560000
210.150000 244.840000 -34.560000
206.560000 244.200000 -34.560000
203.090000 243.450000 -34.560000
199.770000 242.550000 -34.560000
196.310000 241.110000 -34.560000
192.910000 239.190000 -34.560000
189.820000 236.950000 -34.560000
187.280000 234.510000 -34.560000
185.460000 231.970000 -34.560000
183.820000 228.970000 -34.560000
182.320000 225.560000 -34.560000
181.090000 221.920000 -34.560000
180.260000 218.220000 -34.560000
179.960000 214.620000 -34.560000
179.990000 211.060000 -34.560000
180.090000 207.400000 -34.560000
180.250000 203.700000 -34.560000
180.470000 200.020000 -34.560000
180.740000 196.420000 -34.560000
181.060000 192.970000 -34.560000
181.540000 189.700000 -34.560000
182.840000 186.510000 -34.560000
184.830000 183.420000 -34.560000
187.230000 180.440000 -34.560000
189.780000 177.590000 -34.560000
192.220000 174.910000 -34.560000
194.640000 172.180000 -34.560000
197.240000 169.380000 -34.560000
200.000000 166.740000 -34.560000
202.890000 164.500000 -34.560000
205.900000 162.910000 -34.560000
209.040000 162.020000 -34.560000
212.410000 161.260000 -34.560000
215.970000 160.600000 -34.560000
219.640000 160.050000 -34.560000
223.350000 159.640000 -34.560000
227.020000 159.380000 -34.560000
230.600000 159.310000 -34.560000
234.220000 159.580000 -34.560000
237.920000 160.240000 -34.560000
241.570000 161.180000 -34.560000
245.050000 162.340000 -34.560000
248.210000 163.620000 -34.560000
251.010000 165.130000 -34.560000
253.600000 167.370000 -34.560000
256.020000 170.150000 -34.560000
258.290000 173.250000 -34.560000
260.450000 176.410000 -34.560000
262.510000 179.400000 -34.560000
264.500000 182.410000 -34.560000
266.280000 185.550000 -34.560000
267.850000 188.790000 -34.560000
269.430000 192.140000 -34.560000
270.510000 195.570000 -34.560000
270.630000 199.060000 -34.560000
270.350000 202.640000 -34.560000
269.890000 206.250000 -34.560000
269.340000 209.800000 -34.560000
268.570000 213.320000 -34.560000
267.490000 216.820000 -34.560000
266.190000 220.170000 -34.560000
264.640000 223.310000 -34.560000
262.570000 226.310000 -34.560000
260.180000 229.050000 -34.560000
257.610000 231.500000 -34.560000
254.730000 233.720000 -34.560000
251.690000 235.630000 -34.560000
248.520000 237.240000 -34.560000
245.210000 238.670000 -34.560000
241.830000 239.970000 -34.560000
238.440000 241.170000 -34.560000
234.560000 243.150000 -25.920000
230.970000 243.710000 -25.920000
227.370000 244.140000 -25.920000
227.370000 244.140000 -25.920000
223.760000 244.380000 -25.920000
220.140000 244.410000 -25.920000
216.450000 244.390000 -25.920000
212.740000 244.360000 -25.920000
209.060000 244.300000 -25.920000
205.480000 244.230000 -25.920000
202.050000 244.130000 -25.920000
198.750000 243.240000 -25.920000
195.560000 241.310000 -25.920000
192.500000 238.940000 -25.920000
189.600000 236.680000 -25.920000
186.660000 234.410000 -25.920000
183.810000 231.930000 -25.920000
181.370000 229.240000 -25.920000
179.600000 226.330000 -25.920000
178.230000 223.020000 -25.920000
177.140000 219.450000 -25.920000
176.330000 215.890000 -25.920000
175.640000 212.280000 -25.920000
175.210000 208.680000 -25.920000
175.440000 205.190000 -25.920000
176.570000 201.740000 -25.920000
178.220000 198.360000 -25.920000
179.990000 195.110000 -25.920000
181.810000 192.040000 -25.920000
183.990000 189.120000 -25.920000
186.190000 186.200000 -25.920000
188.110000 183.110000 -25.920000
189.840000 179.840000 -25.920000
191.690000 176.750000 -25.920000
193.960000 174.110000 -25.920000
196.690000 171.770000 -25.920000
199.670000 169.590000 -25.920000
202.670000 167.440000 -25.920000
205.530000 165.080000 -25.920000
208.420000 162.720000 -25.920000
211.560000 161.440000 -25.920000
215.070000 160.680000 -25.920000
218.750000 160.170000 -25.920000
222.410000 160.000000 -25.920000
226.010000 160.380000 -25.920000
229.610000 160.930000 -25.920000
233.220000 161.060000 -25.920000
236.870000 160.980000 -25.920000
240.510000 160.890000 -25.920000
244.080000 160.860000 -25.920000
247.730000 161.510000 -25.920000
251.210000 162.870000 -25.920000
254.100000 164.640000 -25.920000
256.500000 167.510000 -25.920000
258.660000 170.450000 -25.920000
260.660000 173.470000 -25.920000
262.540000 176.590000 -25.920000
264.380000 179.740000 -25.920000
266.440000 182.920000 -25.920000
268.000000 186.180000 -25.920000
268.420000 189.590000 -25.920000
268.620000 193.180000 -25.920000
268.770000 196.870000 -25.920000
268.870000 200.570000 -25.920000
268.920000 204.210000 -25.920000
268.800000 207.730000 -25.920000
267.880000 211.250000 -25.920000
266.340000 214.700000 -25.920000
264.530000 217.950000 -25.920000
262.660000 220.890000 -25.920000
260.250000 223.560000 -25.920000
257.520000 226.090000 -25.920000
254.800000 228.550000 -25.920000
252.140000 231.000000 -25.920000
249.450000 233.410000 -25.920000
246.700000 235.780000 -25.920000
243.900000 238.090000 -25.920000
241.060000 240.340000 -25.920000
238.150000 242.530000 -25.920000
238.150000 242.530000 -25.920000
236.340000 244.190000 -17.280000
232.820000 245.460000 -17.280000
229.300000 246.600000 -17.280000
229.300000 246.600000 -17.280000
225.720000 247.610000 -17.280000
225.720000 247.610000 -17.280000
222.040000 248.370000 -17.280000
218.360000 248.670000 -17.280000
214.680000 248.430000 -17.280000
211.010000 247.730000 -17.280000
207.390000 246.880000 -17.280000
203.840000 245.700000 -17.280000
200.470000 244.300000 -17.280000
197.060000 242.630000 -17.280000
193.660000 240.700000 -17.280000
190.380000 238.530000 -17.280000
187.380000 236.170000 -17.280000
184.780000 233.640000 -17.280000
182.710000 230.960000 -17.280000
181.000000 227.820000 -17.280000
179.560000 224.270000 -17.280000
178.390000 220.610000 -17.280000
177.450000 217.030000 -17.280000
176.640000 213.380000 -17.280000
176.200000 209.700000 -17.280000
176.080000 205.990000 -17.280000
176.000000 202.260000 -17.280000
176.070000 198.610000 -17.280000
177.140000 195.060000 -17.280000
178.630000 191.570000 -17.280000
179.980000 188.100000 -17.280000
181.470000 184.680000 -17.280000
183.180000 181.440000 -17.280000
185.220000 178.340000 -17.280000
187.510000 175.370000 -17.280000
189.940000 172.570000 -17.280000
192.480000 169.880000 -17.280000
195.190000 167.300000 -17.280000
198.050000 164.890000 -17.280000
201.010000 162.720000 -17.280000
204.130000 160.580000 -17.280000
207.410000 158.700000 -17.280000
210.820000 157.500000 -17.280000
214.440000 156.750000 -17.280000
218.170000 156.320000 -17.280000
221.870000 156.370000 -17.280000
225.580000 156.670000 -17.280000
229.280000 157.140000 -17.280000
232.930000 157.670000 -17.280000
236.610000 158.410000 -17.280000
240.240000 159.420000 -17.280000
243.710000 160.660000 -17.280000
246.940000 162.240000 -17.280000
250.030000 164.380000 -17.280000
252.920000 166.870000 -17.280000
255.510000 169.470000 -17.280000
257.760000 172.410000 -17.280000
259.900000 175.490000 -17.280000
262.080000 178.490000 -17.280000
264.190000 181.550000 -17.280000
266.260000 184.690000 -17.280000
268.360000 187.920000 -17.280000
269.490000 191.290000 -17.280000
269.840000 194.930000 -17.280000
270.070000 198.720000 -17.280000
270.150000 202.410000 -17.280000
269.550000 205.930000 -17.280000
268.100000 209.390000 -17.280000
266.250000 212.780000 -17.280000
264.440000 216.120000 -17.280000
262.780000 219.450000 -17.280000
261.000000 222.770000 -17.280000
259.080000 225.980000 -17.280000
256.980000 228.980000 -17.280000
254.650000 231.760000 -17.280000
252.030000 234.460000 -17.280000
249.190000 237.000000 -17.280000
246.200000 239.270000 -17.280000
243.130000 241.180000 -17.280000
239.820000 242.790000 -17.280000
234.730000 239.190000 -8.640000
231.490000 240.520000 -8.640000
228.250000 241.710000 -8.640000
224.960000 242.790000 -8.640000
224.960000 242.790000 -8.640000
221.600000 243.750000 -8.640000
218.200000 244.570000 -8.640000
218.200000 244.570000 -8.640000
214.690000 244.510000 -8.640000
211.220000 244.330000 -8.640000
207.770000 244.060000 -8.640000
204.340000 243.480000 -8.640000
201.010000 242.520000 -8.640000
197.770000 241.260000 -8.640000
194.580000 239.690000 -8.640000
191.540000 237.870000 -8.640000
188.720000 235.880000 -8.640000
186.170000 233.590000 -8.640000
183.910000 230.880000 -8.640000
181.820000 228.060000 -8.640000
179.770000 225.060000 -8.640000
178.240000 221.930000 -8.640000
177.590000 218.690000 -8.640000
177.210000 215.230000 -8.640000
176.920000 211.670000 -8.640000
176.750000 208.150000 -8.640000
176.800000 204.790000 -8.640000
177.960000 201.580000 -8.640000
179.810000 198.450000 -8.640000
181.510000 195.340000 -8.640000
183.080000 192.070000 -8.640000
184.780000 188.920000 -8.640000
186.780000 186.290000 -8.640000
189.650000 184.490000 -8.640000
192.860000 182.880000 -8.640000
195.100000 180.490000 -8.640000
196.940000 177.460000 -8.640000
198.780000 174.390000 -8.640000
200.770000 171.460000 -8.640000
202.820000 168.540000 -8.640000
205.080000 166.020000 -8.640000
207.750000 163.970000 -8.640000
210.800000 162.080000 -8.640000
214.050000 160.570000 -8.640000
217.330000 159.610000 -8.640000
220.710000 159.010000 -8.640000
224.210000 158.570000 -8.640000
227.700000 158.230000 -8.640000
231.270000 157.920000 -8.640000
234.890000 157.650000 -8.640000
238.290000 157.490000 -8.640000
241.270000 157.730000 -8.640000
244.050000 159.300000 -8.640000
246.670000 161.880000 -8.640000
249.110000 164.990000 -8.640000
251.360000 168.150000 -8.640000
253.390000 170.980000 -8.640000
255.200000 173.960000 -8.640000
256.830000 177.070000 -8.640000
258.420000 180.190000 -8.640000
260.090000 183.340000 -8.640000
261.640000 186.530000 -8.640000
262.850000 189.790000 -8.640000
263.520000 193.100000 -8.640000
263.870000 196.530000 -8.640000
264.140000 200.050000 -8.640000
264.280000 203.540000 -8.640000
264.060000 206.940000 -8.640000
262.950000 210.290000 -8.640000
261.660000 213.550000 -8.640000
260.300000 216.800000 -8.640000
258.740000 219.960000 -8.640000
256.960000 222.890000 -8.640000
254.860000 225.590000 -8.640000
252.410000 228.140000 -8.640000
249.740000 230.490000 -8.640000
246.990000 232.540000 -8.640000
244.120000 234.400000 -8.640000
241.090000 236.130000 -8.640000
237.940000 237.730000 -8.640000
236.270000 246.420000 0.000000
232.550000 247.510000 0.000000
228.550000 248.130000 0.000000
228.550000 248.130000 0.000000
224.750000 248.110000 0.000000
224.750000 248.110000 0.000000
220.970000 248.050000 0.000000
217.210000 247.970000 0.000000
213.480000 247.850000 0.000000
209.760000 247.560000 0.000000
206.050000 246.890000 0.000000
202.360000 245.950000 0.000000
198.710000 244.860000 0.000000
195.130000 243.740000 0.000000
191.380000 242.540000 0.000000
187.740000 241.070000 0.000000
184.870000 239.200000 0.000000
182.670000 236.370000 0.000000
180.850000 232.800000 0.000000
179.510000 229.180000 0.000000
178.570000 225.570000 0.000000
177.820000 221.840000 0.000000
177.100000 218.130000 0.000000
176.250000 214.410000 0.000000
175.460000 210.690000 0.000000
174.980000 206.990000 0.000000
175.160000 203.310000 0.000000
176.180000 199.660000 0.000000
177.410000 196.040000 0.000000
178.500000 192.420000 0.000000
179.680000 188.810000 0.000000
181.010000 185.290000 0.000000
182.600000 181.930000 0.000000
184.590000 178.710000 0.000000
186.780000 175.630000 0.000000
189.080000 172.530000 0.000000
191.640000 169.840000 0.000000
194.750000 167.950000 0.000000
198.360000 166.470000 0.000000
202.020000 165.050000 0.000000
205.260000 163.330000 0.000000
207.760000 160.540000 0.000000
209.830000 156.570000 0.000000
211.870000 152.930000 0.000000
214.290000 151.160000 0.000000
217.520000 151.360000 0.000000
221.400000 151.970000 0.000000
225.370000 152.750000 0.000000
229.030000 153.640000 0.000000
232.630000 154.840000 0.000000
236.140000 156.260000 0.000000
239.570000 157.790000 0.000000
243.080000 159.480000 0.000000
246.530000 161.360000 0.000000
249.770000 163.430000 0.000000
252.640000 165.690000 0.000000
255.060000 168.200000 0.000000
257.410000 171.140000 0.000000
259.600000 174.450000 0.000000
261.420000 177.970000 0.000000
262.690000 181.550000 0.000000
263.310000 185.120000 0.000000
263.750000 188.860000 0.000000
264.050000 192.680000 0.000000
264.120000 196.460000 0.000000
263.920000 200.230000 0.000000
263.490000 204.010000 0.000000
262.900000 207.760000 0.000000
262.200000 211.430000 0.000000
261.290000 215.020000 0.000000
259.870000 218.540000 0.000000
258.200000 221.960000 0.000000
256.460000 225.290000 0.000000
254.510000 228.530000 0.000000
252.400000 231.660000 0.000000
250.200000 234.800000 0.000000
247.890000 238.040000 0.000000
245.410000 241.020000 0.000000
242.700000 243.370000 0.000000
239.680000 245.010000 0.000000
3 0 80 2
3 0 2 3
3 0 3 4
3 0 4 6
3 0 6 7
3 0 7 8
3 0 8 9
3 0 9 10
3 0 10 11
3 0 11 12
3 0 12 13
3 0 13 14
3 0 14 15
3 0 15 16
3 0 16 17
3 0 17 18
3 0 18 19
3 0 19 20
3 0 20 21
3 0 21 22
3 0 22 23
3 0 23 24
3 0 24 25
3 0 25 26
3 0 26 27
3 0 27 28
3 0 28 29
3 0 29 30
3 0 30 31
3 0 31 32
3 0 32 33
3 0 33 34
3 0 34 35
3 0 35 36
3 0 36 37
3 0 37 38
3 0 38 39
3 0 39 40
3 0 40 41
3 0 41 42
3 0 42 43
3 0 43 44
3 0 44 45
3 0 45 46
3 0 46 47
3 0 47 48
3 0 48 49
3 0 49 50
3 0 50 51
3 0 51 52
3 0 52 53
3 0 53 54
3 0 54 55
3 0 55 56
3 0 56 57
3 0 57 58
3 0 58 59
3 0 59 60
3 0 60 61
3 0 61 62
3 0 62 63
3 0 63 64
3 0 64 65
3 0 65 66
3 0 66 67
3 0 67 68
3 0 68 69
3 0 69 70
3 0 70 71
3 0 71 72
3 0 72 73
3 0 73 74
3 0 74 75
3 0 75 76
3 0 76 77
3 0 77 78
3 0 78 79
3 0 79 80
3 80 81 82
3 80 82 2
3 2 82 3
3 3 82 84
3 3 84 4
3 4 84 85
3 4 85 86
3 4 86 6
3 6 86 87
3 6 87 7
3 7 87 88
3 7 88 8
3 8 88 89
3 8 89 9
3 9 89 90
3 9 90 10
3 10 90 91
3 10 91 11
3 11 91 92
3 11 92 12
3 12 92 93
3 12 93 13
3 13 93 94
3 13 94 14
3 14 94 95
3 14 95 15
3 15 95 96
3 15 96 16
3 16 96 97
3 16 97 17
3 17 97 98
3 17 98 18
3 18 98 99
3 18 99 19
3 19 99 100
3 19 100 20
3 20 100 101
3 20 101 21
3 21 101 102
3 21 102 22
3 22 102 103
3 22 103 23
3 23 103 104
3 23 104 24
3 24 104 105
3 24 105 25
3 25 105 106
3 25 106 26
3 26 106 107
3 26 107 27
3 27 107 108
3 27 108 28
3 28 108 109
3 28 109 29
3 29 109 110
3 29 110 30
3 30 110 111
3 30 111 31
3 31 111 112
3 31 112 32
3 32 112 113
3 32 113 33
3 33 113 114
3 33 114 34
3 34 114 115
3 34 115 35
3 35 115 116
3 35 116 36
3 36 116 117
3 36 117 37
3 37 117 118
3 37 118 38
3 38 118 119
3 38 119 39
3 39 119 120
3 39 120 40
3 40 120 121
3 40 121 41
3 41 121 122
3 41 122 42
3 42 122 123
3 42 123 43
3 43 123 124
3 43 124 44
3 44 124 125
3 44 125 45
3 45 125 126
3 45 126 46
3 46 126 127
3 46 127 47
3 47 127 128
3 47 128 48
3 48 128 129
3 48 129 49
3 49 129 130
3 49 130 50
3 50 130 131
3 50 131 51
3 51 131 132
3 51 132 52
3 52 132 133
3 52 133 53
3 53 133 134
3 53 134 54
3 54 134 135
3 54 135 55
3 55 135 136
3 55 136 56
3 56 136 137
3 56 137 57
3 57 137 138
3 57 138 58
3 58 138 139
3 58 139 59
3 59 139 140
3 59 140 60
3 60 140 141
3 60 141 61
3 61 141 142
3 61 142 62
3 62 142 143
3 62 143 63
3 63 143 144
3 63 144 64
3 64 144 145
3 64 145 65
3 65 145 146
3 65 146 66
3 66 146 147
3 66 147 67
3 67 147 148
3 67 148 68
3 68 148 149
3 68 149 69
3 69 149 150
3 69 150 70
3 70 150 151
3 70 151 71
3 71 151 152
3 71 152 72
3 72 152 153
3 72 153 73
3 73 153 154
3 73 154 74
3 74 154 155
3 74 155 75
3 75 155 156
3 75 156 76
3 76 156 157
3 76 157 77
3 77 157 78
3 78 157 159
3 78 159 79
3 79 159 160
3 79 160 80
3 80 160 81
3 81 161 162
3 81 162 82
3 82 162 164
3 82 164 84
3 84 164 165
3 84 165 85
3 85 165 166
3 85 166 86
3 86 166 167
3 86 167 87
3 87 167 168
3 87 168 88
3 88 168 169
3 88 169 89
3 89 169 170
3 89 170 90
3 90 170 171
3 90 171 91
3 91 171 172
3 91 172 92
3 92 172 173
3 92 173 93
3 93 173 174
3 93 174 94
3 94 174 175
3 94 175 95
3 95 175 176
3 95 176 96
3 96 176 177
3 96 177 97
3 97 177 178
3 97 178 98
3 98 178 179
3 98 179 99
3 99 179 180
3 99 180 100
3 100 180 181
3 100 181 101
3 101 181 182
3 101 182 102
3 102 182 183
3 102 183 103
3 103 183 184
3 103 184 104
3 104 184 185
3 104 185 105
3 105 185 186
3 105 186 106
3 106 186 187
3 106 187 107
3 107 187 188
3 107 188 108
3 108 188 189
3 108 189 109
3 109 189 190
3 109 190 110
3 110 190 191
3 110 191 111
3 111 191 192
3 111 192 112
3 112 192 193
3 112 193 113
3 113 193 194
3 113 194 114
3 114 194 195
3 114 195 115
3 115 195 196
3 115 196 116
3 116 196 197
3 116 197 117
3 117 197 198
3 117 198 118
3 118 198 199
3 118 199 119
3 119 199 200
3 119 200 120
3 120 200 201
3 120 201 121
3 121 201 202
3 121 202 122
3 122 202 203
3 122 203 123
3 123 203 204
3 123 204 124
3 124 204 205
3 124 205 125
3 125 205 206
3 125 206 126
3 126 206 207
3 126 207 127
3 127 207 208
3 127 208 128
3 128 208 209
3 128 209 129
3 129 209 210
3 129 210 130
3 130 210 211
3 130 211 131
3 131 211 212
3 131 212 132
3 132 212 213
3 132 213 133
3 133 213 214
3 133 214 134
3 134 214 215
3 134 215 135
3 135 215 216
3 135 216 136
3 136 216 217
3 136 217 137
3 137 217 218
3 137 218 138
3 138 218 219
3 138 219 139
3 139 219 220
3 139 220 140
3 140 220 221
3 140 221 141
3 141 221 222
3 141 222 142
3 142 222 223
3 142 223 143
3 143 223 224
3 143 224 144
3 144 224 225
3 144 225 145
3 145 225 226
3 145 226 146
3 146 226 227
3 146 227 147
3 147 227 228
3 147 228 148
3 148 228 229
3 148 229 149
3 149 229 230
3 149 230 150
3 150 230 231
3 150 231 151
3 151 231 232
3 151 232 152
3 152 232 233
3 152 233 153
3 153 233 234
3 153 234 154
3 154 234 235
3 154 235 155
3 155 235 236
3 155 236 156
3 156 236 237
3 156 237 157
3 157 237 238
3 157 238 239
3 157 239 159
3 159 239 160
3 160 239 161
3 160 161 81
3 161 320 242
3 161 242 162
3 162 242 244
3 162 244 164
3 164 244 245
3 164 245 165
3 165 245 246
3 165 246 166
3 166 246 247
3 166 247 167
3 167 247 248
3 167 248 168
3 168 248 249
3 168 249 169
3 169 249 250
3 169 250 170
3 170 250 251
3 170 251 171
3 171 251 252
3 171 252 172
3 172 252 253
3 172 253 173
3 173 253 254
3 173 254 174
3 174 254 255
3 174 255 175
3 175 255 256
3 175 256 176
3 176 256 257
3 176 257 177
3 177 257 258
3 177 258 178
3 178 258 259
3 178 259 179
3 179 259 260
3 179 260 180
3 180 260 261
3 180 261 181
3 181 261 262
3 181 262 182
3 182 262 263
3 182 263 183
3 183 263 264
3 183 264 184
3 184 264 265
3 184 265 185
3 185 265 266
3 185 266 186
3 186 266 267
3 186 267 187
3 187 267 268
3 187 268 188
3 188 268 269
3 188 269 189
3 189 269 270
3 189 270 190
3 190 270 271
3 190 271 191
3 191 271 272
3 191 272 192
3 192 272 273
3 192 273 193
3 193 273 274
3 193 274 194
3 194 274 275
3 194 275 195
3 195 275 276
3 195 276 196
3 196 276 277
3 196 277 197
3 197 277 278
3 197 278 198
3 198 278 279
3 198 279 199
3 199 279 280
3 199 280 200
3 200 280 281
3 200 281 201
3 201 281 282
3 201 282 202
3 202 282 283
3 202 283 203
3 203 283 284
3 203 284 204
3 204 284 285
3 204 285 205
3 205 285 286
3 205 286 206
3 206 286 287
3 206 287 207
3 207 287 288
3 207 288 208
3 208 288 289
3 208 289 209
3 209 289 290
3 209 290 210
3 210 290 291
3 210 291 211
3 211 291 292
3 211 292 212
3 212 292 293
3 212 293 213
3 213 293 294
3 213 294 214
3 214 294 295
3 214 295 215
3 215 295 296
3 215 296 216
3 216 296 297
3 216 297 217
3 217 297 298
3 217 298 218
3 218 298 299
3 218 299 219
3 219 299 300
3 219 300 220
3 220 300 301
3 220 301 221
3 221 301 302
3 221 302 222
3 222 302 303
3 222 303 223
3 223 303 304
3 223 304 224
3 224 304 305
3 224 305 225
3 225 305 306
3 225 306 226
3 226 306 307
3 226 307 227
3 227 307 308
3 227 308 228
3 228 308 309
3 228 309 229
3 229 309 310
3 229 310 230
3 230 310 311
3 230 311 231
3 231 311 312
3 231 312 232
3 232 312 313
3 232 313 233
3 233 313 314
3 233 314 234
3 234 314 315
3 234 315 235
3 235 315 316
3 235 316 236
3 236 316 317
3 236 317 237
3 237 317 318
3 237 318 238
3 238 318 319
3 238 319 239
3 239 319 320
3 239 320 161
3 320 321 322
3 320 322 242
3 242 322 324
3 242 324 244
3 244 324 325
3 244 325 245
3 245 325 326
3 245 326 246
3 246 326 327
3 246 327 247
3 247 327 328
3 247 328 248
3 248 328 329
3 248 329 249
3 249 329 330
3 249 330 250
3 250 330 331
3 250 331 251
3 251 331 332
3 251 332 252
3 252 332 333
3 252 333 253
3 253 333 334
3 253 334 254
3 254 334 335
3 254 335 255
3 255 335 336
3 255 336 256
3 256 336 337
3 256 337 257
3 257 337 338
3 257 338 258
3 258 338 339
3 258 339 259
3 259 339 340
3 259 340 260
3 260 340 341
3 260 341 261
3 261 341 342
3 261 342 262
3 262 342 343
3 262 343 263
3 263 343 344
3 263 344 264
3 264 344 345
3 264 345 265
3 265 345 346
3 265 346 266
3 266 346 347
3 266 347 267
3 267 347 348
3 267 348 268
3 268 348 349
3 268 349 269
3 269 349 350
3 269 350 270
3 270 350 351
3 270 351 271
3 271 351 352
3 271 352 272
3 272 352 353
3 272 353 273
3 273 353 354
3 273 354 274
3 274 354 355
3 274 355 275
3 275 355 356
3 275 356 276
3 276 356 357
3 276 357 277
3 277 357 358
3 277 358 278
3 278 358 359
3 278 359 279
3 279 359 360
3 279 360 280
3 280 360 361
3 280 361 281
3 281 361 362
3 281 362 282
3 282 362 363
3 282 363 283
3 283 363 364
3 283 364 284
3 284 364 365
3 284 365 285
3 285 365 366
3 285 366 286
3 286 366 367
3 286 367 287
3 287 367 368
3 287 368 288
3 288 368 369
3 288 369 289
3 289 369 370
3 289 370 290
3 290 370 371
3 290 371 291
3 291 371 372
3 291 372 292
3 292 372 373
3 292 373 293
3 293 373 374
3 293 374 294
3 294 374 375
3 294 375 295
3 295 375 376
3 295 376 296
3 296 376 377
3 296 377 297
3 297 377 378
3 297 378 298
3 298 378 379
3 298 379 299
3 299 379 380
3 299 380 300
3 300 380 381
3 300 381 301
3 301 381 382
3 301 382 302
3 302 382 383
3 302 383 303
3 303 383 384
3 303 384 304
3 304 384 385
3 304 385 305
3 305 385 386
3 305 386 306
3 306 386 387
3 306 387 307
3 307 387 388
3 307 388 308
3 308 388 389
3 308 389 309
3 309 389 390
3 309 390 310
3 310 390 391
3 310 391 311
3 311 391 392
3 311 392 312
3 312 392 393
3 312 393 313
3 313 393 394
3 313 394 314
3 314 394 395
3 314 395 315
3 315 395 396
3 315 396 316
3 316 396 397
3 316 397 317
3 317 397 398
3 317 398 318
3 318 398 399
3 318 399 319
3 319 399 320
3 320 399 321
3 321 401 402
3 321 402 322
3 322 402 404
3 322 404 324
3 324 404 325
3 325 404 406
3 325 406 326
3 326 406 407
3 326 407 327
3 327 407 408
3 327 408 328
3 328 408 409
3 328 409 329
3 329 409 410
3 329 410 330
3 330 410 411
3 330 411 331
3 331 411 412
3 331 412 332
3 332 412 413
3 332 413 333
3 333 413 414
3 333 414 334
3 334 414 415
3 334 415 335
3 335 415 416
3 335 416 336
3 336 416 417
3 336 417 337
3 337 417 418
3 337 418 338
3 338 418 419
3 338 419 339
3 339 419 420
3 339 420 340
3 340 420 421
3 340 421 341
3 341 421 422
3 341 422 342
3 342 422 423
3 342 423 343
3 343 423 424
3 343 424 344
3 344 424 425
3 344 425 345
3 345 425 426
3 345 426 346
3 346 426 427
3 346 427 347
3 347 427 428
3 347 428 348
3 348 428 429
3 348 429 349
3 349 429 430
3 349 430 350
3 350 430 431
3 350 431 351
3 351 431 432
3 351 432 352
3 352 432 433
3 352 433 353
3 353 433 434
3 353 434 354
3 354 434 435
3 354 435 355
3 355 435 436
3 355 436 356
3 356 436 437
3 356 437 357
3 357 437 438
3 357 438 358
3 358 438 439
3 358 439 359
3 359 439 440
3 359 440 360
3 360 440 441
3 360 441 361
3 361 441 442
3 361 442 362
3 362 442 443
3 362 443 363
3 363 443 444
3 363 444 364
3 364 444 445
3 364 445 365
3 365 445 446
3 365 446 366
3 366 446 447
3 366 447 367
3 367 447 448
3 367 448 368
3 368 448 449
3 368 449 369
3 369 449 450
3 369 450 370
3 370 450 451
3 370 451 371
3 371 451 452
3 371 452 372
3 372 452 453
3 372 453 373
3 373 453 454
3 373 454 374
3 374 454 455
3 374 455 375
3 375 455 456
3 375 456 376
3 376 456 457
3 376 457 377
3 377 457 458
3 377 458 378
3 378 458 459
3 378 459 379
3 379 459 460
3 379 460 380
3 380 460 461
3 380 461 381
3 381 461 462
3 381 462 382
3 382 462 463
3 382 463 383
3 383 463 464
3 383 464 384
3 384 464 465
3 384 465 385
3 385 465 466
3 385 466 386
3 386 466 467
3 386 467 387
3 387 467 468
3 387 468 388
3 388 468 469
3 388 469 389
3 389 469 470
3 389 470 390
3 390 470 471
3 390 471 391
3 391 471 472
3 391 472 392
3 392 472 473
3 392 473 393
3 393 473 474
3 393 474 394
3 394 474 475
3 394 475 395
3 395 475 476
3 395 476 396
3 396 476 477
3 396 477 397
3 397 477 478
3 397 478 398
3 398 478 479
3 398 479 399
3 399 479 480
3 399 480 401
3 399 401 321
3 401 481 482
3 401 482 402
3 402 482 483
3 402 483 404
3 404 483 485
3 404 485 486
3 404 486 406
3 406 486 487
3 406 487 407
3 407 487 488
3 407 488 408
3 408 488 489
3 408 489 409
3 409 489 490
3 409 490 410
3 410 490 491
3 410 491 411
3 411 491 492
3 411 492 412
3 412 492 493
3 412 493 413
3 413 493 494
3 413 494 414
3 414 494 495
3 414 495 415
3 415 495 496
3 415 496 416
3 416 496 497
3 416 497 417
3 417 497 498
3 417 498 418
3 418 498 499
3 418 499 419
3 419 499 500
3 419 500 420
3 420 500 501
3 420 501 421
3 421 501 502
3 421 502 422
3 422 502 503
3 422 503 423
3 423 503 504
3 423 504 424
3 424 504 505
3 424 505 425
3 425 505 506
3 425 506 426
3 426 506 507
3 426 507 427
3 427 507 508
3 427 508 428
3 428 508 509
3 428 509 429
3 429 509 510
3 429 510 430
3 430 510 511
3 430 511 431
3 431 511 512
3 431 512 432
3 432 512 513
3 432 513 433
3 433 513 514
3 433 514 434
3 434 514 515
3 434 515 435
3 435 515 516
3 435 516 436
3 436 516 517
3 436 517 437
3 437 517 518
3 437 518 438
3 438 518 519
3 438 519 439
3 439 519 520
3 439 520 440
3 440 520 521
3 440 521 441
3 441 521 522
3 441 522 442
3 442 522 523
3 442 523 443
3 443 523 524
3 443 524 444
3 444 524 525
3 444 525 445
3 445 525 526
3 445 526 446
3 446 526 527
3 446 527 447
3 447 527 528
3 447 528 448
3 448 528 529
3 448 529 449
3 449 529 530
3 449 530 450
3 450 530 531
3 450 531 451
3 451 531 532
3 451 532 452
3 452 532 533
3 452 533 453
3 453 533 534
3 453 534 454
3 454 534 535
3 454 535 455
3 455 535 536
3 455 536 456
3 456 536 537
3 456 537 457
3 457 537 538
3 457 538 458
3 458 538 539
3 458 539 459
3 459 539 540
3 459 540 460
3 460 540 541
3 460 541 461
3 461 541 542
3 461 542 462
3 462 542 543
3 462 543 463
3 463 543 544
3 463 544 464
3 464 544 545
3 464 545 465
3 465 545 546
3 465 546 466
3 466 546 547
3 466 547 467
3 467 547 548
3 467 548 468
3 468 548 549
3 468 549 469
3 469 549 550
3 469 550 470
3 470 550 551
3 470 551 471
3 471 551 552
3 471 552 472
3 472 552 553
3 472 553 473
3 473 553 554
3 473 554 474
3 474 554 555
3 474 555 475
3 475 555 556
3 475 556 476
3 476 556 557
3 476 557 477
3 477 557 558
3 477 558 478
3 478 558 559
3 478 559 479
3 479 559 480
3 480 559 481
3 480 481 401
3 481 561 562
3 481 562 482
3 482 562 563
3 482 563 483
3 483 563 565
3 483 565 485
3 485 565 486
3 486 565 567
3 486 567 487
3 487 567 568
3 487 568 488
3 488 568 569
3 488 569 489
3 489 569 570
3 489 570 490
3 490 570 571
3 490 571 491
3 491 571 572
3 491 572 492
3 492 572 573
3 492 573 493
3 493 573 574
3 493 574 494
3 494 574 575
3 494 575 495
3 495 575 576
3 495 576 496
3 496 576 577
3 496 577 497
3 497 577 578
3 497 578 498
3 498 578 579
3 498 579 499
3 499 579 580
3 499 580 500
3 500 580 581
3 500 581 501
3 501 581 582
3 501 582 502
3 502 582 583
3 502 583 503
3 503 583 584
3 503 584 504
3 504 584 585
3 504 585 505
3 505 585 586
3 505 586 506
3 506 586 587
3 506 587 507
3 507 587 588
3 507 588 508
3 508 588 589
3 508 589 509
3 509 589 590
3 509 590 510
3 510 590 591
3 510 591 511
3 511 591 592
3 511 592 512
3 512 592 593
3 512 593 513
3 513 593 594
3 513 594 514
3 514 594 595
3 514 595 515
3 515 595 596
3 515 596 516
3 516 596 597
3 516 597 517
3 517 597 598
3 517 598 518
3 518 598 599
3 518 599 519
3 519 599 600
3 519 600 520
3 520 600 601
3 520 601 521
3 521 601 602
3 521 602 522
3 522 602 603
3 522 603 523
3 523 603 604
3 523 604 524
3 524 604 605
3 524 605 525
3 525 605 606
3 525 606 526
3 526 606 607
3 526 607 527
3 527 607 608
3 527 608 528
3 528 608 609
3 528 609 529
3 529 609 610
3 529 610 530
3 530 610 611
3 530 611 531
3 531 611 612
3 531 612 532
3 532 612 613
3 532 613 533
3 533 613 614
3 533 614 534
3 534 614 615
3 534 615 535
3 535 615 616
3 535 616 536
3 536 616 617
3 536 617 537
3 537 617 618
3 537 618 538
3 538 618 619
3 538 619 539
3 539 619 620
3 539 620 540
3 540 620 621
3 540 621 541
3 541 621 622
3 541 622 542
3 542 622 623
3 542 623 543
3 543 623 624
3 543 624 544
3 544 624 625
3 544 625 545
3 545 625 626
3 545 626 546
3 546 626 627
3 546 627 547
3 547 627 628
3 547 628 548
3 548 628 629
3 548 629 549
3 549 629 630
3 549 630 550
3 550 630 631
3 550 631 551
3 551 631 632
3 551 632 552
3 552 632 633
3 552 633 553
3 553 633 634
3 553 634 554
3 554 634 635
3 554 635 555
3 555 635 636
3 555 636 556
3 556 636 637
3 556 637 557
3 557 637 638
3 557 638 558
3 558 638 639
3 558 639 559
3 559 639 640
3 559 640 561
3 559 561 481
3 561 641 642
3 561 642 562
3 562 642 643
3 562 643 563
3 563 643 644
3 563 644 565
3 565 644 646
3 565 646 647
3 565 647 567
3 567 647 568
3 568 647 649
3 568 649 569
3 569 649 650
3 569 650 570
3 570 650 651
3 570 651 571
3 571 651 652
3 571 652 572
3 572 652 653
3 572 653 573
3 573 653 654
3 573 654 574
3 574 654 655
3 574 655 575
3 575 655 656
3 575 656 576
3 576 656 657
3 576 657 577
3 577 657 658
3 577 658 578
3 578 658 659
3 578 659 579
3 579 659 660
3 579 660 580
3 580 660 661
3 580 661 581
3 581 661 662
3 581 662 582
3 582 662 663
3 582 663 583
3 583 663 664
3 583 664 584
3 584 664 665
3 584 665 585
3 585 665 666
3 585 666 586
3 586 666 667
3 586 667 587
3 587 667 668
3 587 668 588
3 588 668 669
3 588 669 589
3 589 669 670
3 589 670 590
3 590 670 671
3 590 671 591
3 591 671 672
3 591 672 592
3 592 672 673
3 592 673 593
3 593 673 674
3 593 674 594
3 594 674 675
3 594 675 595
3 595 675 676
3 595 676 596
3 596 676 677
3 596 677 597
3 597 677 678
3 597 678 598
3 598 678 679
3 598 679 599
3 599 679 680
3 599 680 600
3 600 680 681
3 600 681 601
3 601 681 682
3 601 682 602
3 602 682 683
3 602 683 603
3 603 683 684
3 603 684 604
3 604 684 685
3 604 685 605
3 605 685 686
3 605 686 606
3 606 686 687
3 606 687 607
3 607 687 688
3 607 688 608
3 608 688 689
3 608 689 609
3 609 689 690
3 609 690 610
3 610 690 691
3 610 691 611
3 611 691 692
3 611 692 612
3 612 692 693
3 612 693 613
3 613 693 694
3 613 694 614
3 614 694 695
3 614 695 615
3 615 695 696
3 615 696 616
3 616 696 697
3 616 697 617
3 617 697 698
3 617 698 618
3 618 698 699
3 618 699 619
3 619 699 700
3 619 700 620
3 620 700 701
3 620 701 621
3 621 701 702
3 621 702 622
3 622 702 703
3 622 703 623
3 623 703 704
3 623 704 624
3 624 704 705
3 624 705 625
3 625 705 706
3 625 706 626
3 626 706 707
3 626 707 627
3 627 707 708
3 627 708 628
3 628 708 709
3 628 709 629
3 629 709 710
3 629 710 630
3 630 710 711
3 630 711 631
3 631 711 712
3 631 712 632
3 632 712 713
3 632 713 633
3 633 713 714
3 633 714 634
3 634 714 715
3 634 715 635
3 635 715 716
3 635 716 636
3 636 716 717
3 636 717 637
3 637 717 718
3 637 718 638
3 638 718 719
3 638 719 639
3 639 719 720
3 639 720 640
3 640 720 641
3 640 641 561
3 641 721 722
3 641 722 642
3 642 722 723
3 642 723 643
3 643 723 644
3 644 723 725
3 644 725 646
3 646 725 727
3 646 727 647
3 647 727 728
3 647 728 729
3 647 729 649
3 649 729 730
3 649 730 650
3 650 730 731
3 650 731 651
3 651 731 732
3 651 732 652
3 652 732 733
3 652 733 653
3 653 733 734
3 653 734 654
3 654 734 735
3 654 735 655
3 655 735 736
3 655 736 656
3 656 736 737
3 656 737 657
3 657 737 738
3 657 738 658
3 658 738 739
3 658 739 659
3 659 739 740
3 659 740 660
3 660 740 741
3 660 741 661
3 661 741 742
3 661 742 662
3 662 742 743
3 662 743 663
3 663 743 744
3 663 744 664
3 664 744 745
3 664 745 665
3 665 745 746
3 665 746 666
3 666 746 747
3 666 747 667
3 667 747 748
3 667 748 668
3 668 748 749
3 668 749 669
3 669 749 750
3 669 750 670
3 670 750 751
3 670 751 671
3 671 751 752
3 671 752 672
3 672 752 753
3 672 753 673
3 673 753 754
3 673 754 674
3 674 754 755
3 674 755 675
3 675 755 756
3 675 756 676
3 676 756 757
3 676 757 677
3 677 757 758
3 677 758 678
3 678 758 759
3 678 759 679
3 679 759 760
3 679 760 680
3 680 760 761
3 680 761 681
3 681 761 762
3 681 762 682
3 682 762 763
3 682 763 683
3 683 763 764
3 683 764 684
3 684 764 765
3 684 765 685
3 685 765 766
3 685 766 686
3 686 766 767
3 686 767 687
3 687 767 768
3 687 768 688
3 688 768 769
3 688 769 689
3 689 769 770
3 689 770 690
3 690 770 771
3 690 771 691
3 691 771 772
3 691 772 692
3 692 772 773
3 692 773 693
3 693 773 774
3 693 774 694
3 694 774 775
3 694 775 695
3 695 775 776
3 695 776 696
3 696 776 777
3 696 777 697
3 697 777 778
3 697 778 698
3 698 778 779
3 698 779 699
3 699 779 780
3 699 780 700
3 700 780 781
3 700 781 701
3 701 781 782
3 701 782 702
3 702 782 783
3 702 783 703
3 703 783 784
3 703 784 704
3 704 784 785
3 704 785 705
3 705 785 786
3 705 786 706
3 706 786 787
3 706 787 707
3 707 787 788
3 707 788 708
3 708 788 789
3 708 789 709
3 709 789 790
3 709 790 710
3 710 790 791
3 710 791 711
3 711 791 792
3 711 792 712
3 712 792 793
3 712 793 713
3 713 793 794
3 713 794 714
3 714 794 795
3 714 795 715
3 715 795 796
3 715 796 716
3 716 796 797
3 716 797 717
3 717 797 798
3 717 798 718
3 718 798 799
3 718 799 719
3 719 799 800
3 719 800 720
3 720 800 721
3 720 721 641
