ply 
format ascii 1.0 
comment this is a surface 
element vertex 801 
property float x 
property float y 
property float z 
element face 1482 
property list uchar int vertex_index 
end_header 
191.700000 194.409250 -77.760000
193.460000 207.680000 -77.760000
192.330000 207.640000 -77.760000
191.230000 207.540000 -77.760000
190.170000 207.390000 -77.760000
189.150000 207.210000 -77.760000
188.170000 207.000000 -77.760000
187.220000 206.720000 -77.760000
186.230000 206.290000 -77.760000
185.240000 205.720000 -77.760000
184.270000 205.040000 -77.760000
183.360000 204.290000 -77.760000
182.550000 203.480000 -77.760000
181.870000 202.650000 -77.760000
181.350000 201.810000 -77.760000
181.000000 200.990000 -77.760000
180.690000 200.090000 -77.760000
180.390000 199.110000 -77.760000
180.110000 198.060000 -77.760000
179.850000 196.960000 -77.760000
179.610000 195.840000 -77.760000
179.400000 194.690000 -77.760000
179.220000 193.550000 -77.760000
179.060000 192.430000 -77.760000
178.940000 191.330000 -77.760000
178.860000 190.290000 -77.760000
178.810000 189.310000 -77.760000
178.810000 188.400000 -77.760000
179.040000 187.430000 -77.760000
179.520000 186.400000 -77.760000
180.190000 185.370000 -77.760000
181.010000 184.390000 -77.760000
181.920000 183.510000 -77.760000
182.890000 182.810000 -77.760000
183.860000 182.320000 -77.760000
184.780000 182.110000 -77.760000
185.700000 182.270000 -77.760000
186.730000 182.690000 -77.760000
187.790000 183.060000 -77.760000
188.840000 183.110000 -77.760000
189.890000 183.040000 -77.760000
190.950000 182.910000 -77.760000
192.020000 182.770000 -77.760000
193.090000 182.650000 -77.760000
194.140000 182.580000 -77.760000
195.210000 182.590000 -77.760000
196.440000 182.710000 -77.760000
197.770000 182.910000 -77.760000
199.110000 183.190000 -77.760000
200.400000 183.530000 -77.760000
201.540000 183.920000 -77.760000
202.470000 184.350000 -77.760000
203.100000 184.810000 -77.760000
203.350000 185.280000 -77.760000
203.350000 185.830000 -77.760000
203.350000 186.560000 -77.760000
203.350000 187.440000 -77.760000
203.340000 188.450000 -77.760000
203.330000 189.560000 -77.760000
203.320000 190.740000 -77.760000
203.300000 191.970000 -77.760000
203.280000 193.230000 -77.760000
203.260000 194.480000 -77.760000
203.240000 195.710000 -77.760000
203.220000 196.890000 -77.760000
203.190000 197.980000 -77.760000
203.130000 199.000000 -77.760000
202.920000 200.050000 -77.760000
202.550000 201.130000 -77.760000
202.060000 202.200000 -77.760000
201.470000 203.210000 -77.760000
200.820000 204.130000 -77.760000
200.140000 204.910000 -77.760000
199.460000 205.510000 -77.760000
198.720000 206.020000 -77.760000
197.850000 206.490000 -77.760000
196.870000 206.900000 -77.760000
195.800000 207.250000 -77.760000
194.660000 207.520000 -77.760000
193.460000 207.680000 -77.760000
193.460000 207.680000 -77.760000
192.310000 214.710000 -69.120000
190.690000 214.390000 -69.120000
189.070000 213.980000 -69.120000
187.480000 213.500000 -69.120000
185.930000 212.980000 -69.120000
184.460000 212.440000 -69.120000
183.000000 211.790000 -69.120000
181.550000 210.990000 -69.120000
180.140000 210.070000 -69.120000
178.800000 209.050000 -69.120000
177.580000 207.970000 -69.120000
176.490000 206.860000 -69.120000
175.420000 205.660000 -69.120000
174.330000 204.310000 -69.120000
173.360000 202.870000 -69.120000
172.680000 201.380000 -69.120000
172.420000 199.870000 -69.120000
172.430000 198.350000 -69.120000
172.470000 196.770000 -69.120000
172.520000 195.140000 -69.120000
172.600000 193.500000 -69.120000
172.690000 191.840000 -69.120000
172.790000 190.190000 -69.120000
172.910000 188.560000 -69.120000
173.050000 186.940000 -69.120000
173.290000 185.330000 -69.120000
173.590000 183.750000 -69.120000
173.980000 182.080000 -69.120000
174.500000 180.250000 -69.120000
175.140000 178.480000 -69.120000
175.870000 176.970000 -69.120000
176.700000 175.960000 -69.120000
177.610000 175.500000 -69.120000
178.680000 175.140000 -69.120000
179.900000 174.810000 -69.120000
181.290000 174.520000 -69.120000
182.820000 174.280000 -69.120000
184.490000 174.070000 -69.120000
186.290000 173.900000 -69.120000
188.230000 173.790000 -69.120000
190.280000 173.710000 -69.120000
192.450000 173.690000 -69.120000
192.450000 173.690000 -69.120000
194.300000 174.260000 -69.120000
196.070000 174.920000 -69.120000
197.760000 175.660000 -69.120000
199.330000 176.490000 -69.120000
200.800000 177.390000 -69.120000
202.140000 178.350000 -69.120000
203.340000 179.360000 -69.120000
204.390000 180.430000 -69.120000
205.290000 181.540000 -69.120000
206.010000 182.690000 -69.120000
206.600000 183.910000 -69.120000
207.130000 185.320000 -69.120000
207.610000 186.860000 -69.120000
208.040000 188.490000 -69.120000
208.410000 190.180000 -69.120000
208.710000 191.880000 -69.120000
208.950000 193.550000 -69.120000
209.130000 195.160000 -69.120000
209.290000 196.820000 -69.120000
209.440000 198.500000 -69.120000
209.560000 200.180000 -69.120000
209.660000 201.820000 -69.120000
209.720000 203.380000 -69.120000
209.730000 204.830000 -69.120000
209.300000 206.230000 -69.120000
208.330000 207.600000 -69.120000
207.050000 208.880000 -69.120000
205.670000 210.000000 -69.120000
204.400000 210.930000 -69.120000
203.090000 211.830000 -69.120000
201.660000 212.710000 -69.120000
200.150000 213.530000 -69.120000
198.590000 214.210000 -69.120000
197.010000 214.700000 -69.120000
195.450000 214.930000 -69.120000
193.910000 214.900000 -69.120000
193.910000 214.900000 -69.120000
192.130000 218.720000 -60.480000
192.130000 218.720000 -60.480000
190.140000 218.680000 -60.480000
188.160000 218.300000 -60.480000
186.200000 217.660000 -60.480000
184.280000 216.920000 -60.480000
182.380000 216.210000 -60.480000
180.430000 215.440000 -60.480000
178.500000 214.570000 -60.480000
176.670000 213.600000 -60.480000
175.050000 212.530000 -60.480000
173.670000 211.330000 -60.480000
172.300000 209.920000 -60.480000
170.970000 208.340000 -60.480000
169.700000 206.620000 -60.480000
168.530000 204.790000 -60.480000
167.510000 202.880000 -60.480000
166.670000 200.950000 -60.480000
166.050000 199.020000 -60.480000
165.680000 197.120000 -60.480000
165.420000 195.170000 -60.480000
165.190000 193.140000 -60.480000
165.010000 191.080000 -60.480000
164.910000 189.030000 -60.480000
164.890000 187.000000 -60.480000
165.050000 184.830000 -60.480000
165.400000 182.610000 -60.480000
165.880000 180.540000 -60.480000
166.470000 178.800000 -60.480000
167.220000 177.500000 -60.480000
168.540000 176.360000 -60.480000
170.360000 175.370000 -60.480000
172.550000 174.580000 -60.480000
174.980000 174.050000 -60.480000
174.980000 174.050000 -60.480000
176.740000 172.840000 -60.480000
178.530000 171.740000 -60.480000
180.370000 170.850000 -60.480000
182.240000 170.260000 -60.480000
184.170000 170.030000 -60.480000
186.170000 169.870000 -60.480000
188.220000 169.750000 -60.480000
190.290000 169.660000 -60.480000
192.320000 169.610000 -60.480000
194.290000 169.640000 -60.480000
196.270000 170.000000 -60.480000
198.230000 170.660000 -60.480000
200.150000 171.530000 -60.480000
201.990000 172.490000 -60.480000
203.730000 173.450000 -60.480000
205.430000 174.540000 -60.480000
207.090000 175.840000 -60.480000
208.590000 177.270000 -60.480000
209.820000 178.790000 -60.480000
210.900000 180.430000 -60.480000
211.950000 182.220000 -60.480000
212.870000 184.120000 -60.480000
213.610000 186.070000 -60.480000
214.090000 188.040000 -60.480000
214.300000 189.990000 -60.480000
214.470000 192.010000 -60.480000
214.590000 194.060000 -60.480000
214.670000 196.100000 -60.480000
214.700000 198.110000 -60.480000
214.570000 200.150000 -60.480000
214.230000 202.260000 -60.480000
213.720000 204.370000 -60.480000
213.070000 206.420000 -60.480000
212.310000 208.350000 -60.480000
211.480000 210.100000 -60.480000
210.610000 211.610000 -60.480000
209.410000 213.060000 -60.480000
207.840000 214.460000 -60.480000
206.010000 215.720000 -60.480000
204.070000 216.740000 -60.480000
202.150000 217.430000 -60.480000
200.280000 217.810000 -60.480000
198.300000 218.140000 -60.480000
196.250000 218.410000 -60.480000
194.180000 218.610000 -60.480000
191.590000 221.470000 -51.840000
191.590000 221.470000 -51.840000
189.290000 221.400000 -51.840000
186.990000 221.280000 -51.840000
184.720000 221.130000 -51.840000
182.520000 220.940000 -51.840000
180.280000 220.390000 -51.840000
178.080000 219.480000 -51.840000
176.040000 218.370000 -51.840000
174.270000 217.200000 -51.840000
172.660000 215.800000 -51.840000
171.140000 214.150000 -51.840000
169.720000 212.310000 -51.840000
168.380000 210.330000 -51.840000
167.130000 208.280000 -51.840000
165.950000 206.230000 -51.840000
164.860000 204.240000 -51.840000
163.750000 202.230000 -51.840000
162.710000 200.140000 -51.840000
161.910000 198.010000 -51.840000
161.480000 195.840000 -51.840000
161.170000 193.580000 -51.840000
160.910000 191.270000 -51.840000
160.720000 188.950000 -51.840000
160.600000 186.690000 -51.840000
160.620000 184.520000 -51.840000
161.200000 182.390000 -51.840000
162.270000 180.320000 -51.840000
163.580000 178.300000 -51.840000
164.890000 176.360000 -51.840000
166.140000 174.400000 -51.840000
167.540000 172.450000 -51.840000
169.100000 170.830000 -51.840000
170.850000 169.750000 -51.840000
172.860000 168.830000 -51.840000
175.090000 168.130000 -51.840000
177.530000 167.750000 -51.840000
177.530000 167.750000 -51.840000
179.790000 167.210000 -51.840000
182.040000 166.830000 -51.840000
184.290000 166.610000 -51.840000
186.540000 166.560000 -51.840000
188.790000 166.730000 -51.840000
191.040000 167.090000 -51.840000
193.290000 167.570000 -51.840000
195.520000 168.130000 -51.840000
197.730000 168.700000 -51.840000
199.970000 169.250000 -51.840000
202.300000 169.880000 -51.840000
204.570000 170.600000 -51.840000
206.660000 171.440000 -51.840000
208.440000 172.440000 -51.840000
210.010000 173.810000 -51.840000
211.460000 175.600000 -51.840000
212.770000 177.660000 -51.840000
213.890000 179.810000 -51.840000
214.790000 181.890000 -51.840000
215.620000 184.000000 -51.840000
216.390000 186.190000 -51.840000
216.970000 188.440000 -51.840000
217.240000 190.690000 -51.840000
217.220000 192.950000 -51.840000
217.130000 195.250000 -51.840000
216.970000 197.560000 -51.840000
216.760000 199.830000 -51.840000
216.510000 202.010000 -51.840000
215.910000 204.140000 -51.840000
214.910000 206.220000 -51.840000
213.680000 208.240000 -51.840000
212.370000 210.180000 -51.840000
211.100000 212.060000 -51.840000
209.730000 214.010000 -51.840000
208.220000 215.900000 -51.840000
206.600000 217.530000 -51.840000
204.850000 218.720000 -51.840000
202.920000 219.580000 -51.840000
200.760000 220.380000 -51.840000
198.460000 221.010000 -51.840000
196.140000 221.410000 -51.840000
193.870000 221.510000 -51.840000
191.100000 222.690000 -43.200000
191.100000 222.690000 -43.200000
188.630000 222.690000 -43.200000
186.130000 222.430000 -43.200000
183.640000 221.980000 -43.200000
181.170000 221.420000 -43.200000
178.770000 220.830000 -43.200000
176.300000 220.090000 -43.200000
173.830000 219.170000 -43.200000
171.470000 218.090000 -43.200000
169.350000 216.870000 -43.200000
167.560000 215.490000 -43.200000
165.980000 213.710000 -43.200000
164.540000 211.590000 -43.200000
163.230000 209.290000 -43.200000
162.040000 206.960000 -43.200000
160.890000 204.740000 -43.200000
159.660000 202.470000 -43.200000
158.460000 200.160000 -43.200000
157.420000 197.810000 -43.200000
156.680000 195.430000 -43.200000
156.390000 193.020000 -43.200000
156.430000 190.560000 -43.200000
156.540000 188.010000 -43.200000
156.730000 185.450000 -43.200000
156.980000 182.920000 -43.200000
157.290000 180.480000 -43.200000
157.760000 178.150000 -43.200000
158.780000 175.820000 -43.200000
160.200000 173.590000 -43.200000
161.800000 171.550000 -43.200000
163.420000 169.780000 -43.200000
165.310000 168.020000 -43.200000
167.430000 166.440000 -43.200000
169.670000 165.260000 -43.200000
171.960000 164.640000 -43.200000
174.390000 164.190000 -43.200000
176.930000 163.860000 -43.200000
179.480000 163.680000 -43.200000
181.990000 163.670000 -43.200000
184.510000 163.760000 -43.200000
187.040000 163.910000 -43.200000
189.540000 164.110000 -43.200000
191.990000 164.340000 -43.200000
194.410000 164.780000 -43.200000
196.790000 165.530000 -43.200000
199.150000 166.480000 -43.200000
201.480000 167.550000 -43.200000
203.770000 168.630000 -43.200000
206.070000 169.670000 -43.200000
208.430000 170.790000 -43.200000
210.600000 172.050000 -43.200000
212.370000 173.570000 -43.200000
213.860000 175.530000 -43.200000
215.160000 177.780000 -43.200000
216.340000 180.060000 -43.200000
217.550000 182.290000 -43.200000
218.820000 184.590000 -43.200000
219.940000 186.930000 -43.200000
220.720000 189.290000 -43.200000
220.960000 191.650000 -43.200000
220.690000 194.020000 -43.200000
220.080000 196.420000 -43.200000
219.240000 198.820000 -43.200000
218.280000 201.230000 -43.200000
217.310000 203.640000 -43.200000
216.450000 206.030000 -43.200000
215.720000 208.500000 -43.200000
214.920000 210.900000 -43.200000
213.790000 212.930000 -43.200000
212.130000 214.820000 -43.200000
210.110000 216.540000 -43.200000
207.940000 217.970000 -43.200000
205.780000 219.050000 -43.200000
203.500000 219.960000 -43.200000
201.060000 220.700000 -43.200000
198.500000 221.180000 -43.200000
198.500000 221.180000 -43.200000
196.040000 221.910000 -43.200000
193.570000 222.420000 -43.200000
190.800000 225.420000 -34.560000
190.800000 225.420000 -34.560000
187.980000 225.270000 -34.560000
187.980000 225.270000 -34.560000
185.250000 224.770000 -34.560000
182.550000 224.170000 -34.560000
179.880000 223.500000 -34.560000
177.230000 222.770000 -34.560000
174.590000 221.950000 -34.560000
171.990000 221.000000 -34.560000
169.440000 219.930000 -34.560000
166.720000 218.760000 -34.560000
164.100000 217.440000 -34.560000
162.000000 215.880000 -34.560000
160.740000 213.850000 -34.560000
159.860000 211.140000 -34.560000
158.980000 208.380000 -34.560000
157.780000 205.860000 -34.560000
156.440000 203.380000 -34.560000
155.250000 200.870000 -34.560000
154.490000 198.300000 -34.560000
154.070000 195.620000 -34.560000
153.710000 192.880000 -34.560000
153.440000 190.090000 -34.560000
153.270000 187.320000 -34.560000
153.270000 184.570000 -34.560000
153.580000 181.800000 -34.560000
154.160000 179.040000 -34.560000
154.890000 176.380000 -34.560000
155.750000 173.850000 -34.560000
157.010000 171.300000 -34.560000
158.620000 168.870000 -34.560000
160.430000 166.760000 -34.560000
162.400000 165.110000 -34.560000
164.810000 163.720000 -34.560000
167.460000 162.610000 -34.560000
170.060000 161.780000 -34.560000
172.730000 161.000000 -34.560000
175.450000 160.340000 -34.560000
178.190000 159.900000 -34.560000
180.930000 159.800000 -34.560000
183.690000 159.800000 -34.560000
186.470000 159.800000 -34.560000
189.230000 159.800000 -34.560000
191.950000 159.840000 -34.560000
194.700000 160.230000 -34.560000
197.450000 160.930000 -34.560000
200.130000 161.860000 -34.560000
202.710000 162.910000 -34.560000
205.140000 163.990000 -34.560000
207.650000 165.310000 -34.560000
210.170000 166.950000 -34.560000
212.420000 168.840000 -34.560000
214.130000 170.910000 -34.560000
215.070000 173.200000 -34.560000
215.610000 176.000000 -34.560000
216.430000 178.660000 -34.560000
217.630000 181.220000 -34.560000
218.970000 183.760000 -34.560000
220.180000 186.300000 -34.560000
221.010000 188.870000 -34.560000
221.210000 191.520000 -34.560000
221.180000 194.270000 -34.560000
221.100000 197.080000 -34.560000
220.990000 199.890000 -34.560000
220.830000 202.640000 -34.560000
220.550000 205.270000 -34.560000
219.470000 207.820000 -34.560000
217.960000 210.260000 -34.560000
216.470000 212.550000 -34.560000
214.830000 214.870000 -34.560000
213.010000 217.110000 -34.560000
211.060000 219.160000 -34.560000
208.990000 220.920000 -34.560000
206.800000 222.320000 -34.560000
204.340000 223.670000 -34.560000
201.690000 224.810000 -34.560000
198.980000 225.460000 -34.560000
196.300000 225.520000 -34.560000
193.570000 225.500000 -34.560000
190.130000 226.620000 -25.920000
190.130000 226.620000 -25.920000
187.150000 226.780000 -25.920000
187.150000 226.780000 -25.920000
184.310000 226.240000 -25.920000
181.480000 225.650000 -25.920000
178.660000 225.020000 -25.920000
175.810000 224.360000 -25.920000
172.840000 223.710000 -25.920000
169.940000 222.990000 -25.920000
167.260000 222.130000 -25.920000
164.980000 221.010000 -25.920000
162.890000 219.380000 -25.920000
160.950000 217.300000 -25.920000
159.120000 214.900000 -25.920000
157.410000 212.310000 -25.920000
155.790000 209.650000 -25.920000
154.260000 207.050000 -25.920000
152.730000 204.580000 -25.920000
151.050000 202.040000 -25.920000
149.630000 199.420000 -25.920000
148.930000 196.730000 -25.920000
149.000000 193.940000 -25.920000
149.280000 191.040000 -25.920000
149.700000 188.120000 -25.920000
150.170000 185.270000 -25.920000
150.800000 182.440000 -25.920000
151.670000 179.590000 -25.920000
152.750000 176.830000 -25.920000
153.980000 174.220000 -25.920000
155.360000 171.860000 -25.920000
157.160000 169.660000 -25.920000
159.330000 167.600000 -25.920000
161.650000 165.740000 -25.920000
163.960000 164.060000 -25.920000
166.370000 162.380000 -25.920000
168.890000 160.770000 -25.920000
171.500000 159.350000 -25.920000
174.160000 158.230000 -25.920000
176.860000 157.520000 -25.920000
179.670000 157.060000 -25.920000
182.590000 156.650000 -25.920000
185.540000 156.330000 -25.920000
188.450000 156.120000 -25.920000
191.230000 156.070000 -25.920000
193.930000 156.560000 -25.920000
196.600000 157.680000 -25.920000
199.210000 159.240000 -25.920000
201.730000 161.010000 -25.920000
204.120000 162.810000 -25.920000
206.380000 164.480000 -25.920000
208.620000 166.290000 -25.920000
210.830000 168.250000 -25.920000
212.960000 170.340000 -25.920000
214.980000 172.530000 -25.920000
216.850000 174.800000 -25.920000
218.540000 177.140000 -25.920000
220.010000 179.510000 -25.920000
221.460000 182.030000 -25.920000
222.870000 184.700000 -25.920000
224.000000 187.460000 -25.920000
224.600000 190.240000 -25.920000
224.480000 193.010000 -25.920000
223.830000 195.850000 -25.920000
222.900000 198.670000 -25.920000
221.900000 201.390000 -25.920000
220.580000 203.970000 -25.920000
219.250000 206.570000 -25.920000
217.970000 209.310000 -25.920000
216.660000 212.020000 -25.920000
215.240000 214.560000 -25.920000
213.630000 216.760000 -25.920000
211.720000 218.590000 -25.920000
209.410000 220.320000 -25.920000
206.820000 221.890000 -25.920000
204.090000 223.230000 -25.920000
201.340000 224.260000 -25.920000
198.640000 225.000000 -25.920000
195.880000 225.660000 -25.920000
193.040000 226.220000 -25.920000
190.290000 226.520000 -17.280000
190.290000 226.520000 -17.280000
187.280000 226.700000 -17.280000
187.280000 226.700000 -17.280000
184.510000 226.180000 -17.280000
181.780000 225.520000 -17.280000
179.110000 224.750000 -17.280000
176.500000 223.890000 -17.280000
173.910000 222.910000 -17.280000
171.300000 221.770000 -17.280000
168.730000 220.490000 -17.280000
166.250000 219.080000 -17.280000
163.920000 217.550000 -17.280000
161.790000 215.930000 -17.280000
159.780000 214.120000 -17.280000
157.800000 212.060000 -17.280000
155.960000 209.790000 -17.280000
154.370000 207.400000 -17.280000
153.170000 204.960000 -17.280000
152.280000 202.450000 -17.280000
151.450000 199.770000 -17.280000
150.740000 196.990000 -17.280000
150.240000 194.180000 -17.280000
150.000000 191.410000 -17.280000
150.120000 188.680000 -17.280000
150.570000 185.900000 -17.280000
151.290000 183.120000 -17.280000
152.210000 180.380000 -17.280000
153.250000 177.750000 -17.280000
154.340000 175.260000 -17.280000
155.570000 172.920000 -17.280000
157.180000 170.640000 -17.280000
159.070000 168.460000 -17.280000
161.120000 166.430000 -17.280000
163.230000 164.580000 -17.280000
165.370000 162.870000 -17.280000
167.670000 161.140000 -17.280000
170.110000 159.580000 -17.280000
172.630000 158.340000 -17.280000
175.210000 157.610000 -17.280000
177.900000 157.130000 -17.280000
180.710000 156.750000 -17.280000
183.540000 156.520000 -17.280000
186.280000 156.530000 -17.280000
188.990000 157.160000 -17.280000
191.650000 158.180000 -17.280000
194.230000 159.230000 -17.280000
196.760000 160.380000 -17.280000
199.260000 161.700000 -17.280000
201.690000 163.150000 -17.280000
204.010000 164.710000 -17.280000
206.200000 166.350000 -17.280000
208.340000 168.130000 -17.280000
210.440000 170.060000 -17.280000
212.410000 172.130000 -17.280000
214.180000 174.300000 -17.280000
215.680000 176.540000 -17.280000
217.120000 178.910000 -17.280000
218.560000 181.420000 -17.280000
219.880000 184.040000 -17.280000
220.950000 186.710000 -17.280000
221.640000 189.390000 -17.280000
221.830000 192.030000 -17.280000
221.480000 194.690000 -17.280000
220.730000 197.400000 -17.280000
219.720000 200.090000 -17.280000
218.590000 202.740000 -17.280000
217.490000 205.300000 -17.280000
216.330000 207.890000 -17.280000
215.000000 210.470000 -17.280000
213.490000 212.870000 -17.280000
211.780000 214.910000 -17.280000
209.640000 216.470000 -17.280000
207.100000 217.800000 -17.280000
204.710000 219.300000 -17.280000
202.640000 221.320000 -17.280000
200.580000 223.270000 -17.280000
198.290000 224.440000 -17.280000
195.790000 225.300000 -17.280000
193.120000 226.030000 -17.280000
189.340000 226.170000 -8.640000
189.340000 226.170000 -8.640000
186.160000 226.300000 -8.640000
186.160000 226.300000 -8.640000
183.270000 226.100000 -8.640000
180.470000 225.630000 -8.640000
177.780000 224.980000 -8.640000
175.220000 224.190000 -8.640000
172.770000 222.900000 -8.640000
170.400000 221.280000 -8.640000
168.070000 219.560000 -8.640000
165.770000 217.940000 -8.640000
163.470000 216.300000 -8.640000
161.290000 214.540000 -8.640000
159.190000 212.660000 -8.640000
157.010000 210.690000 -8.640000
154.920000 208.630000 -8.640000
153.080000 206.460000 -8.640000
151.650000 204.180000 -8.640000
150.690000 201.750000 -8.640000
149.810000 199.090000 -8.640000
149.060000 196.290000 -8.640000
148.490000 193.430000 -8.640000
148.190000 190.620000 -8.640000
148.240000 187.900000 -8.640000
148.710000 185.110000 -8.640000
149.530000 182.300000 -8.640000
150.610000 179.550000 -8.640000
151.870000 176.930000 -8.640000
153.210000 174.530000 -8.640000
154.690000 172.420000 -8.640000
156.800000 170.590000 -8.640000
159.170000 168.850000 -8.640000
161.320000 166.970000 -8.640000
163.020000 164.600000 -8.640000
164.590000 162.040000 -8.640000
166.350000 160.060000 -8.640000
168.590000 158.930000 -8.640000
171.290000 157.990000 -8.640000
174.200000 157.330000 -8.640000
177.040000 157.110000 -8.640000
179.840000 157.160000 -8.640000
182.700000 157.270000 -8.640000
185.580000 157.450000 -8.640000
188.420000 157.690000 -8.640000
191.190000 157.980000 -8.640000
193.830000 158.320000 -8.640000
196.400000 159.030000 -8.640000
198.910000 160.320000 -8.640000
201.340000 161.970000 -8.640000
203.660000 163.800000 -8.640000
205.840000 165.620000 -8.640000
207.920000 167.450000 -8.640000
209.980000 169.450000 -8.640000
211.920000 171.610000 -8.640000
213.650000 173.880000 -8.640000
215.080000 176.210000 -8.640000
216.290000 178.640000 -8.640000
217.490000 181.220000 -8.640000
218.600000 183.900000 -8.640000
219.530000 186.650000 -8.640000
220.190000 189.430000 -8.640000
220.490000 192.170000 -8.640000
220.330000 194.910000 -8.640000
219.770000 197.700000 -8.640000
218.960000 200.450000 -8.640000
218.050000 203.100000 -8.640000
216.940000 205.610000 -8.640000
215.470000 208.030000 -8.640000
213.820000 210.370000 -8.640000
212.170000 212.650000 -8.640000
210.510000 215.090000 -8.640000
208.770000 217.570000 -8.640000
206.930000 219.850000 -8.640000
204.950000 221.650000 -8.640000
202.790000 222.780000 -8.640000
200.450000 223.710000 -8.640000
197.920000 224.540000 -8.640000
195.230000 225.260000 -8.640000
192.360000 225.810000 -8.640000
189.900000 224.250000 0.000000
187.370000 224.110000 0.000000
187.370000 224.110000 0.000000
184.830000 223.500000 0.000000
182.270000 222.410000 0.000000
179.700000 220.840000 0.000000
179.700000 220.840000 0.000000
176.670000 220.740000 0.000000
173.820000 220.450000 0.000000
171.180000 220.020000 0.000000
168.760000 219.470000 0.000000
166.590000 218.680000 0.000000
164.730000 216.910000 0.000000
163.010000 214.550000 0.000000
161.220000 212.250000 0.000000
159.100000 210.540000 0.000000
156.550000 209.170000 0.000000
154.100000 207.790000 0.000000
152.370000 206.130000 0.000000
151.120000 203.960000 0.000000
149.990000 201.390000 0.000000
149.150000 198.620000 0.000000
148.730000 195.860000 0.000000
148.720000 193.180000 0.000000
148.740000 190.410000 0.000000
148.770000 187.630000 0.000000
148.830000 184.920000 0.000000
148.900000 182.380000 0.000000
149.640000 179.990000 0.000000
151.170000 177.690000 0.000000
153.100000 175.490000 0.000000
155.050000 173.400000 0.000000
156.820000 171.380000 0.000000
158.710000 169.380000 0.000000
160.710000 167.470000 0.000000
162.810000 165.720000 0.000000
164.990000 164.210000 0.000000
167.280000 162.850000 0.000000
169.710000 161.460000 0.000000
172.240000 160.220000 0.000000
174.840000 159.310000 0.000000
177.440000 158.930000 0.000000
180.080000 158.960000 0.000000
182.820000 159.040000 0.000000
185.590000 159.180000 0.000000
188.350000 159.370000 0.000000
191.040000 159.610000 0.000000
193.610000 159.890000 0.000000
196.100000 160.560000 0.000000
198.560000 161.780000 0.000000
200.930000 163.360000 0.000000
203.170000 165.090000 0.000000
205.230000 166.800000 0.000000
207.200000 168.600000 0.000000
209.100000 170.600000 0.000000
210.870000 172.750000 0.000000
212.440000 174.990000 0.000000
213.760000 177.270000 0.000000
215.040000 179.640000 0.000000
216.310000 182.120000 0.000000
217.450000 184.690000 0.000000
218.360000 187.300000 0.000000
218.920000 189.930000 0.000000
219.040000 192.560000 0.000000
218.880000 195.310000 0.000000
218.560000 198.090000 0.000000
218.120000 200.780000 0.000000
217.550000 203.230000 0.000000
216.280000 205.480000 0.000000
214.390000 207.590000 0.000000
212.350000 209.590000 0.000000
210.460000 211.510000 0.000000
208.500000 213.410000 0.000000
206.460000 215.260000 0.000000
204.350000 217.010000 0.000000
202.160000 218.600000 0.000000
199.900000 219.980000 0.000000
197.530000 221.340000 0.000000
195.030000 222.680000 0.000000
192.460000 223.740000 0.000000
3 0 79 2
3 0 2 3
3 0 3 4
3 0 4 5
3 0 5 6
3 0 6 7
3 0 7 8
3 0 8 9
3 0 9 10
3 0 10 11
3 0 11 12
3 0 12 13
3 0 13 14
3 0 14 15
3 0 15 16
3 0 16 17
3 0 17 18
3 0 18 19
3 0 19 20
3 0 20 21
3 0 21 22
3 0 22 23
3 0 23 24
3 0 24 25
3 0 25 26
3 0 26 27
3 0 27 28
3 0 28 29
3 0 29 30
3 0 30 31
3 0 31 32
3 0 32 33
3 0 33 34
3 0 34 35
3 0 35 36
3 0 36 37
3 0 37 38
3 0 38 39
3 0 39 40
3 0 40 41
3 0 41 42
3 0 42 43
3 0 43 44
3 0 44 45
3 0 45 46
3 0 46 47
3 0 47 48
3 0 48 49
3 0 49 50
3 0 50 51
3 0 51 52
3 0 52 53
3 0 53 54
3 0 54 55
3 0 55 56
3 0 56 57
3 0 57 58
3 0 58 59
3 0 59 60
3 0 60 61
3 0 61 62
3 0 62 63
3 0 63 64
3 0 64 65
3 0 65 66
3 0 66 67
3 0 67 68
3 0 68 69
3 0 69 70
3 0 70 71
3 0 71 72
3 0 72 73
3 0 73 74
3 0 74 75
3 0 75 76
3 0 76 77
3 0 77 78
3 0 78 79
3 79 81 82
3 79 82 2
3 2 82 83
3 2 83 3
3 3 83 84
3 3 84 4
3 4 84 85
3 4 85 5
3 5 85 86
3 5 86 6
3 6 86 87
3 6 87 7
3 7 87 88
3 7 88 8
3 8 88 89
3 8 89 9
3 9 89 90
3 9 90 10
3 10 90 91
3 10 91 11
3 11 91 92
3 11 92 12
3 12 92 93
3 12 93 13
3 13 93 94
3 13 94 14
3 14 94 95
3 14 95 15
3 15 95 96
3 15 96 16
3 16 96 97
3 16 97 17
3 17 97 98
3 17 98 18
3 18 98 99
3 18 99 19
3 19 99 100
3 19 100 20
3 20 100 101
3 20 101 21
3 21 101 102
3 21 102 22
3 22 102 103
3 22 103 23
3 23 103 104
3 23 104 24
3 24 104 105
3 24 105 25
3 25 105 106
3 25 106 26
3 26 106 107
3 26 107 27
3 27 107 108
3 27 108 28
3 28 108 109
3 28 109 29
3 29 109 110
3 29 110 30
3 30 110 111
3 30 111 31
3 31 111 112
3 31 112 32
3 32 112 113
3 32 113 33
3 33 113 114
3 33 114 34
3 34 114 115
3 34 115 35
3 35 115 116
3 35 116 36
3 36 116 117
3 36 117 37
3 37 117 118
3 37 118 38
3 38 118 119
3 38 119 39
3 39 119 120
3 39 120 40
3 40 120 121
3 40 121 41
3 41 121 122
3 41 122 42
3 42 122 43
3 43 122 124
3 43 124 44
3 44 124 125
3 44 125 45
3 45 125 126
3 45 126 46
3 46 126 127
3 46 127 47
3 47 127 128
3 47 128 48
3 48 128 129
3 48 129 49
3 49 129 130
3 49 130 50
3 50 130 131
3 50 131 51
3 51 131 132
3 51 132 52
3 52 132 133
3 52 133 53
3 53 133 134
3 53 134 54
3 54 134 135
3 54 135 55
3 55 135 136
3 55 136 56
3 56 136 137
3 56 137 57
3 57 137 138
3 57 138 58
3 58 138 139
3 58 139 59
3 59 139 140
3 59 140 60
3 60 140 141
3 60 141 61
3 61 141 142
3 61 142 62
3 62 142 143
3 62 143 63
3 63 143 144
3 63 144 64
3 64 144 145
3 64 145 65
3 65 145 146
3 65 146 66
3 66 146 147
3 66 147 67
3 67 147 148
3 67 148 68
3 68 148 149
3 68 149 69
3 69 149 150
3 69 150 70
3 70 150 151
3 70 151 71
3 71 151 152
3 71 152 72
3 72 152 153
3 72 153 73
3 73 153 154
3 73 154 74
3 74 154 155
3 74 155 75
3 75 155 156
3 75 156 76
3 76 156 157
3 76 157 77
3 77 157 158
3 77 158 78
3 78 158 159
3 78 159 79
3 79 159 81
3 81 161 82
3 82 161 163
3 82 163 83
3 83 163 164
3 83 164 84
3 84 164 165
3 84 165 85
3 85 165 166
3 85 166 86
3 86 166 167
3 86 167 87
3 87 167 168
3 87 168 88
3 88 168 169
3 88 169 89
3 89 169 170
3 89 170 90
3 90 170 171
3 90 171 91
3 91 171 172
3 91 172 92
3 92 172 173
3 92 173 93
3 93 173 174
3 93 174 94
3 94 174 175
3 94 175 95
3 95 175 176
3 95 176 96
3 96 176 177
3 96 177 97
3 97 177 178
3 97 178 98
3 98 178 179
3 98 179 99
3 99 179 180
3 99 180 100
3 100 180 181
3 100 181 101
3 101 181 182
3 101 182 102
3 102 182 183
3 102 183 103
3 103 183 184
3 103 184 104
3 104 184 185
3 104 185 105
3 105 185 186
3 105 186 106
3 106 186 187
3 106 187 107
3 107 187 188
3 107 188 108
3 108 188 189
3 108 189 109
3 109 189 190
3 109 190 110
3 110 190 191
3 110 191 111
3 111 191 192
3 111 192 112
3 112 192 193
3 112 193 113
3 113 193 194
3 113 194 114
3 114 194 115
3 115 194 196
3 115 196 116
3 116 196 197
3 116 197 117
3 117 197 198
3 117 198 118
3 118 198 199
3 118 199 119
3 119 199 200
3 119 200 120
3 120 200 201
3 120 201 121
3 121 201 202
3 121 202 122
3 122 202 203
3 122 203 204
3 122 204 124
3 124 204 205
3 124 205 125
3 125 205 206
3 125 206 126
3 126 206 207
3 126 207 127
3 127 207 208
3 127 208 128
3 128 208 209
3 128 209 129
3 129 209 210
3 129 210 130
3 130 210 211
3 130 211 131
3 131 211 212
3 131 212 132
3 132 212 213
3 132 213 133
3 133 213 214
3 133 214 134
3 134 214 215
3 134 215 135
3 135 215 216
3 135 216 136
3 136 216 217
3 136 217 137
3 137 217 218
3 137 218 138
3 138 218 219
3 138 219 139
3 139 219 220
3 139 220 140
3 140 220 221
3 140 221 141
3 141 221 222
3 141 222 142
3 142 222 223
3 142 223 143
3 143 223 224
3 143 224 144
3 144 224 225
3 144 225 145
3 145 225 226
3 145 226 146
3 146 226 227
3 146 227 147
3 147 227 228
3 147 228 148
3 148 228 229
3 148 229 149
3 149 229 230
3 149 230 150
3 150 230 231
3 150 231 151
3 151 231 232
3 151 232 152
3 152 232 233
3 152 233 153
3 153 233 234
3 153 234 154
3 154 234 235
3 154 235 155
3 155 235 236
3 155 236 156
3 156 236 237
3 156 237 157
3 157 237 238
3 157 238 158
3 158 238 239
3 158 239 159
3 159 239 240
3 159 240 161
3 159 161 81
3 161 241 243
3 161 243 163
3 163 243 244
3 163 244 164
3 164 244 245
3 164 245 165
3 165 245 246
3 165 246 166
3 166 246 247
3 166 247 167
3 167 247 248
3 167 248 168
3 168 248 249
3 168 249 169
3 169 249 250
3 169 250 170
3 170 250 251
3 170 251 171
3 171 251 252
3 171 252 172
3 172 252 253
3 172 253 173
3 173 253 254
3 173 254 174
3 174 254 255
3 174 255 175
3 175 255 256
3 175 256 176
3 176 256 257
3 176 257 177
3 177 257 258
3 177 258 178
3 178 258 259
3 178 259 179
3 179 259 260
3 179 260 180
3 180 260 261
3 180 261 181
3 181 261 262
3 181 262 182
3 182 262 263
3 182 263 183
3 183 263 264
3 183 264 184
3 184 264 265
3 184 265 185
3 185 265 266
3 185 266 186
3 186 266 267
3 186 267 187
3 187 267 268
3 187 268 188
3 188 268 269
3 188 269 189
3 189 269 270
3 189 270 190
3 190 270 271
3 190 271 191
3 191 271 272
3 191 272 192
3 192 272 273
3 192 273 193
3 193 273 274
3 193 274 194
3 194 274 275
3 194 275 276
3 194 276 196
3 196 276 277
3 196 277 197
3 197 277 198
3 198 277 279
3 198 279 199
3 199 279 280
3 199 280 200
3 200 280 281
3 200 281 201
3 201 281 282
3 201 282 202
3 202 282 283
3 202 283 203
3 203 283 284
3 203 284 204
3 204 284 285
3 204 285 205
3 205 285 286
3 205 286 206
3 206 286 287
3 206 287 207
3 207 287 288
3 207 288 208
3 208 288 289
3 208 289 209
3 209 289 290
3 209 290 210
3 210 290 291
3 210 291 211
3 211 291 292
3 211 292 212
3 212 292 293
3 212 293 213
3 213 293 294
3 213 294 214
3 214 294 295
3 214 295 215
3 215 295 296
3 215 296 216
3 216 296 297
3 216 297 217
3 217 297 298
3 217 298 218
3 218 298 299
3 218 299 219
3 219 299 300
3 219 300 220
3 220 300 301
3 220 301 221
3 221 301 302
3 221 302 222
3 222 302 303
3 222 303 223
3 223 303 304
3 223 304 224
3 224 304 305
3 224 305 225
3 225 305 306
3 225 306 226
3 226 306 307
3 226 307 227
3 227 307 308
3 227 308 228
3 228 308 309
3 228 309 229
3 229 309 310
3 229 310 230
3 230 310 311
3 230 311 231
3 231 311 312
3 231 312 232
3 232 312 313
3 232 313 233
3 233 313 314
3 233 314 234
3 234 314 315
3 234 315 235
3 235 315 316
3 235 316 236
3 236 316 317
3 236 317 237
3 237 317 318
3 237 318 238
3 238 318 319
3 238 319 239
3 239 319 320
3 239 320 240
3 240 320 241
3 240 241 161
3 241 321 323
3 241 323 243
3 243 323 324
3 243 324 244
3 244 324 325
3 244 325 245
3 245 325 326
3 245 326 246
3 246 326 327
3 246 327 247
3 247 327 328
3 247 328 248
3 248 328 329
3 248 329 249
3 249 329 330
3 249 330 250
3 250 330 331
3 250 331 251
3 251 331 332
3 251 332 252
3 252 332 333
3 252 333 253
3 253 333 334
3 253 334 254
3 254 334 335
3 254 335 255
3 255 335 336
3 255 336 256
3 256 336 337
3 256 337 257
3 257 337 338
3 257 338 258
3 258 338 339
3 258 339 259
3 259 339 340
3 259 340 260
3 260 340 341
3 260 341 261
3 261 341 342
3 261 342 262
3 262 342 343
3 262 343 263
3 263 343 344
3 263 344 264
3 264 344 345
3 264 345 265
3 265 345 346
3 265 346 266
3 266 346 347
3 266 347 267
3 267 347 348
3 267 348 268
3 268 348 349
3 268 349 269
3 269 349 350
3 269 350 270
3 270 350 351
3 270 351 271
3 271 351 352
3 271 352 272
3 272 352 353
3 272 353 273
3 273 353 354
3 273 354 274
3 274 354 355
3 274 355 275
3 275 355 356
3 275 356 276
3 276 356 357
3 276 357 277
3 277 357 358
3 277 358 359
3 277 359 279
3 279 359 360
3 279 360 280
3 280 360 361
3 280 361 281
3 281 361 362
3 281 362 282
3 282 362 363
3 282 363 283
3 283 363 364
3 283 364 284
3 284 364 365
3 284 365 285
3 285 365 366
3 285 366 286
3 286 366 367
3 286 367 287
3 287 367 368
3 287 368 288
3 288 368 369
3 288 369 289
3 289 369 370
3 289 370 290
3 290 370 371
3 290 371 291
3 291 371 372
3 291 372 292
3 292 372 373
3 292 373 293
3 293 373 374
3 293 374 294
3 294 374 375
3 294 375 295
3 295 375 376
3 295 376 296
3 296 376 377
3 296 377 297
3 297 377 378
3 297 378 298
3 298 378 379
3 298 379 299
3 299 379 380
3 299 380 300
3 300 380 381
3 300 381 301
3 301 381 382
3 301 382 302
3 302 382 383
3 302 383 303
3 303 383 384
3 303 384 304
3 304 384 385
3 304 385 305
3 305 385 386
3 305 386 306
3 306 386 387
3 306 387 307
3 307 387 388
3 307 388 308
3 308 388 389
3 308 389 309
3 309 389 390
3 309 390 310
3 310 390 391
3 310 391 311
3 311 391 392
3 311 392 312
3 312 392 393
3 312 393 313
3 313 393 394
3 313 394 314
3 314 394 395
3 314 395 315
3 315 395 396
3 315 396 316
3 316 396 397
3 316 397 317
3 317 397 318
3 318 397 399
3 318 399 319
3 319 399 400
3 319 400 320
3 320 400 321
3 320 321 241
3 321 401 403
3 321 403 323
3 323 403 324
3 324 403 405
3 324 405 325
3 325 405 406
3 325 406 326
3 326 406 407
3 326 407 327
3 327 407 408
3 327 408 328
3 328 408 409
3 328 409 329
3 329 409 410
3 329 410 330
3 330 410 411
3 330 411 331
3 331 411 412
3 331 412 332
3 332 412 413
3 332 413 333
3 333 413 414
3 333 414 334
3 334 414 415
3 334 415 335
3 335 415 416
3 335 416 336
3 336 416 417
3 336 417 337
3 337 417 418
3 337 418 338
3 338 418 419
3 338 419 339
3 339 419 420
3 339 420 340
3 340 420 421
3 340 421 341
3 341 421 422
3 341 422 342
3 342 422 423
3 342 423 343
3 343 423 424
3 343 424 344
3 344 424 425
3 344 425 345
3 345 425 426
3 345 426 346
3 346 426 427
3 346 427 347
3 347 427 428
3 347 428 348
3 348 428 429
3 348 429 349
3 349 429 430
3 349 430 350
3 350 430 431
3 350 431 351
3 351 431 432
3 351 432 352
3 352 432 433
3 352 433 353
3 353 433 434
3 353 434 354
3 354 434 435
3 354 435 355
3 355 435 436
3 355 436 356
3 356 436 437
3 356 437 357
3 357 437 438
3 357 438 358
3 358 438 439
3 358 439 359
3 359 439 440
3 359 440 360
3 360 440 441
3 360 441 361
3 361 441 442
3 361 442 362
3 362 442 443
3 362 443 363
3 363 443 444
3 363 444 364
3 364 444 445
3 364 445 365
3 365 445 446
3 365 446 366
3 366 446 447
3 366 447 367
3 367 447 448
3 367 448 368
3 368 448 449
3 368 449 369
3 369 449 450
3 369 450 370
3 370 450 451
3 370 451 371
3 371 451 452
3 371 452 372
3 372 452 453
3 372 453 373
3 373 453 454
3 373 454 374
3 374 454 455
3 374 455 375
3 375 455 456
3 375 456 376
3 376 456 457
3 376 457 377
3 377 457 458
3 377 458 378
3 378 458 459
3 378 459 379
3 379 459 460
3 379 460 380
3 380 460 461
3 380 461 381
3 381 461 462
3 381 462 382
3 382 462 463
3 382 463 383
3 383 463 464
3 383 464 384
3 384 464 465
3 384 465 385
3 385 465 466
3 385 466 386
3 386 466 467
3 386 467 387
3 387 467 468
3 387 468 388
3 388 468 469
3 388 469 389
3 389 469 470
3 389 470 390
3 390 470 471
3 390 471 391
3 391 471 472
3 391 472 392
3 392 472 473
3 392 473 393
3 393 473 474
3 393 474 394
3 394 474 475
3 394 475 395
3 395 475 476
3 395 476 396
3 396 476 477
3 396 477 397
3 397 477 478
3 397 478 479
3 397 479 399
3 399 479 480
3 399 480 400
3 400 480 401
3 400 401 321
3 401 481 483
3 401 483 403
3 403 483 485
3 403 485 405
3 405 485 486
3 405 486 406
3 406 486 487
3 406 487 407
3 407 487 488
3 407 488 408
3 408 488 489
3 408 489 409
3 409 489 490
3 409 490 410
3 410 490 491
3 410 491 411
3 411 491 492
3 411 492 412
3 412 492 493
3 412 493 413
3 413 493 494
3 413 494 414
3 414 494 495
3 414 495 415
3 415 495 496
3 415 496 416
3 416 496 497
3 416 497 417
3 417 497 498
3 417 498 418
3 418 498 499
3 418 499 419
3 419 499 500
3 419 500 420
3 420 500 501
3 420 501 421
3 421 501 502
3 421 502 422
3 422 502 503
3 422 503 423
3 423 503 504
3 423 504 424
3 424 504 505
3 424 505 425
3 425 505 506
3 425 506 426
3 426 506 507
3 426 507 427
3 427 507 508
3 427 508 428
3 428 508 509
3 428 509 429
3 429 509 510
3 429 510 430
3 430 510 511
3 430 511 431
3 431 511 512
3 431 512 432
3 432 512 513
3 432 513 433
3 433 513 514
3 433 514 434
3 434 514 515
3 434 515 435
3 435 515 516
3 435 516 436
3 436 516 517
3 436 517 437
3 437 517 518
3 437 518 438
3 438 518 519
3 438 519 439
3 439 519 520
3 439 520 440
3 440 520 521
3 440 521 441
3 441 521 522
3 441 522 442
3 442 522 523
3 442 523 443
3 443 523 524
3 443 524 444
3 444 524 525
3 444 525 445
3 445 525 526
3 445 526 446
3 446 526 527
3 446 527 447
3 447 527 528
3 447 528 448
3 448 528 529
3 448 529 449
3 449 529 530
3 449 530 450
3 450 530 531
3 450 531 451
3 451 531 532
3 451 532 452
3 452 532 533
3 452 533 453
3 453 533 534
3 453 534 454
3 454 534 535
3 454 535 455
3 455 535 536
3 455 536 456
3 456 536 537
3 456 537 457
3 457 537 538
3 457 538 458
3 458 538 539
3 458 539 459
3 459 539 540
3 459 540 460
3 460 540 541
3 460 541 461
3 461 541 542
3 461 542 462
3 462 542 543
3 462 543 463
3 463 543 544
3 463 544 464
3 464 544 545
3 464 545 465
3 465 545 546
3 465 546 466
3 466 546 547
3 466 547 467
3 467 547 548
3 467 548 468
3 468 548 549
3 468 549 469
3 469 549 550
3 469 550 470
3 470 550 551
3 470 551 471
3 471 551 552
3 471 552 472
3 472 552 553
3 472 553 473
3 473 553 554
3 473 554 474
3 474 554 555
3 474 555 475
3 475 555 556
3 475 556 476
3 476 556 557
3 476 557 477
3 477 557 558
3 477 558 478
3 478 558 559
3 478 559 479
3 479 559 560
3 479 560 480
3 480 560 481
3 480 481 401
3 481 561 563
3 481 563 483
3 483 563 565
3 483 565 485
3 485 565 566
3 485 566 486
3 486 566 567
3 486 567 487
3 487 567 568
3 487 568 488
3 488 568 569
3 488 569 489
3 489 569 570
3 489 570 490
3 490 570 571
3 490 571 491
3 491 571 572
3 491 572 492
3 492 572 573
3 492 573 493
3 493 573 574
3 493 574 494
3 494 574 575
3 494 575 495
3 495 575 576
3 495 576 496
3 496 576 577
3 496 577 497
3 497 577 578
3 497 578 498
3 498 578 579
3 498 579 499
3 499 579 580
3 499 580 500
3 500 580 581
3 500 581 501
3 501 581 582
3 501 582 502
3 502 582 583
3 502 583 503
3 503 583 584
3 503 584 504
3 504 584 585
3 504 585 505
3 505 585 586
3 505 586 506
3 506 586 587
3 506 587 507
3 507 587 588
3 507 588 508
3 508 588 589
3 508 589 509
3 509 589 590
3 509 590 510
3 510 590 591
3 510 591 511
3 511 591 592
3 511 592 512
3 512 592 593
3 512 593 513
3 513 593 594
3 513 594 514
3 514 594 595
3 514 595 515
3 515 595 596
3 515 596 516
3 516 596 597
3 516 597 517
3 517 597 598
3 517 598 518
3 518 598 599
3 518 599 519
3 519 599 600
3 519 600 520
3 520 600 601
3 520 601 521
3 521 601 602
3 521 602 522
3 522 602 603
3 522 603 523
3 523 603 604
3 523 604 524
3 524 604 605
3 524 605 525
3 525 605 606
3 525 606 526
3 526 606 607
3 526 607 527
3 527 607 608
3 527 608 528
3 528 608 609
3 528 609 529
3 529 609 610
3 529 610 530
3 530 610 611
3 530 611 531
3 531 611 612
3 531 612 532
3 532 612 613
3 532 613 533
3 533 613 614
3 533 614 534
3 534 614 615
3 534 615 535
3 535 615 616
3 535 616 536
3 536 616 617
3 536 617 537
3 537 617 618
3 537 618 538
3 538 618 619
3 538 619 539
3 539 619 620
3 539 620 540
3 540 620 621
3 540 621 541
3 541 621 622
3 541 622 542
3 542 622 623
3 542 623 543
3 543 623 624
3 543 624 544
3 544 624 625
3 544 625 545
3 545 625 626
3 545 626 546
3 546 626 627
3 546 627 547
3 547 627 628
3 547 628 548
3 548 628 629
3 548 629 549
3 549 629 630
3 549 630 550
3 550 630 631
3 550 631 551
3 551 631 632
3 551 632 552
3 552 632 633
3 552 633 553
3 553 633 634
3 553 634 554
3 554 634 635
3 554 635 555
3 555 635 636
3 555 636 556
3 556 636 637
3 556 637 557
3 557 637 638
3 557 638 558
3 558 638 639
3 558 639 559
3 559 639 640
3 559 640 560
3 560 640 561
3 560 561 481
3 561 641 643
3 561 643 563
3 563 643 645
3 563 645 565
3 565 645 646
3 565 646 566
3 566 646 647
3 566 647 567
3 567 647 648
3 567 648 568
3 568 648 649
3 568 649 569
3 569 649 650
3 569 650 570
3 570 650 651
3 570 651 571
3 571 651 652
3 571 652 572
3 572 652 653
3 572 653 573
3 573 653 654
3 573 654 574
3 574 654 655
3 574 655 575
3 575 655 656
3 575 656 576
3 576 656 657
3 576 657 577
3 577 657 658
3 577 658 578
3 578 658 659
3 578 659 579
3 579 659 660
3 579 660 580
3 580 660 661
3 580 661 581
3 581 661 662
3 581 662 582
3 582 662 663
3 582 663 583
3 583 663 664
3 583 664 584
3 584 664 665
3 584 665 585
3 585 665 666
3 585 666 586
3 586 666 667
3 586 667 587
3 587 667 668
3 587 668 588
3 588 668 669
3 588 669 589
3 589 669 670
3 589 670 590
3 590 670 671
3 590 671 591
3 591 671 672
3 591 672 592
3 592 672 673
3 592 673 593
3 593 673 674
3 593 674 594
3 594 674 675
3 594 675 595
3 595 675 676
3 595 676 596
3 596 676 677
3 596 677 597
3 597 677 678
3 597 678 598
3 598 678 679
3 598 679 599
3 599 679 680
3 599 680 600
3 600 680 681
3 600 681 601
3 601 681 682
3 601 682 602
3 602 682 683
3 602 683 603
3 603 683 684
3 603 684 604
3 604 684 685
3 604 685 605
3 605 685 686
3 605 686 606
3 606 686 687
3 606 687 607
3 607 687 688
3 607 688 608
3 608 688 689
3 608 689 609
3 609 689 690
3 609 690 610
3 610 690 691
3 610 691 611
3 611 691 692
3 611 692 612
3 612 692 693
3 612 693 613
3 613 693 694
3 613 694 614
3 614 694 695
3 614 695 615
3 615 695 696
3 615 696 616
3 616 696 697
3 616 697 617
3 617 697 698
3 617 698 618
3 618 698 699
3 618 699 619
3 619 699 700
3 619 700 620
3 620 700 701
3 620 701 621
3 621 701 702
3 621 702 622
3 622 702 703
3 622 703 623
3 623 703 704
3 623 704 624
3 624 704 705
3 624 705 625
3 625 705 706
3 625 706 626
3 626 706 707
3 626 707 627
3 627 707 708
3 627 708 628
3 628 708 709
3 628 709 629
3 629 709 710
3 629 710 630
3 630 710 711
3 630 711 631
3 631 711 712
3 631 712 632
3 632 712 713
3 632 713 633
3 633 713 714
3 633 714 634
3 634 714 715
3 634 715 635
3 635 715 716
3 635 716 636
3 636 716 717
3 636 717 637
3 637 717 718
3 637 718 638
3 638 718 719
3 638 719 639
3 639 719 720
3 639 720 640
3 640 720 641
3 640 641 561
3 641 721 722
3 641 722 643
3 643 722 724
3 643 724 725
3 643 725 645
3 645 725 726
3 645 726 646
3 646 726 647
3 647 726 728
3 647 728 648
3 648 728 729
3 648 729 649
3 649 729 730
3 649 730 650
3 650 730 731
3 650 731 651
3 651 731 732
3 651 732 652
3 652 732 733
3 652 733 653
3 653 733 734
3 653 734 654
3 654 734 735
3 654 735 655
3 655 735 736
3 655 736 656
3 656 736 737
3 656 737 657
3 657 737 738
3 657 738 658
3 658 738 739
3 658 739 659
3 659 739 740
3 659 740 660
3 660 740 741
3 660 741 661
3 661 741 742
3 661 742 662
3 662 742 743
3 662 743 663
3 663 743 744
3 663 744 664
3 664 744 745
3 664 745 665
3 665 745 746
3 665 746 666
3 666 746 747
3 666 747 667
3 667 747 748
3 667 748 668
3 668 748 749
3 668 749 669
3 669 749 750
3 669 750 670
3 670 750 751
3 670 751 671
3 671 751 752
3 671 752 672
3 672 752 753
3 672 753 673
3 673 753 754
3 673 754 674
3 674 754 755
3 674 755 675
3 675 755 756
3 675 756 676
3 676 756 757
3 676 757 677
3 677 757 758
3 677 758 678
3 678 758 759
3 678 759 679
3 679 759 760
3 679 760 680
3 680 760 761
3 680 761 681
3 681 761 762
3 681 762 682
3 682 762 763
3 682 763 683
3 683 763 764
3 683 764 684
3 684 764 765
3 684 765 685
3 685 765 766
3 685 766 686
3 686 766 767
3 686 767 687
3 687 767 768
3 687 768 688
3 688 768 769
3 688 769 689
3 689 769 770
3 689 770 690
3 690 770 771
3 690 771 691
3 691 771 772
3 691 772 692
3 692 772 773
3 692 773 693
3 693 773 774
3 693 774 694
3 694 774 775
3 694 775 695
3 695 775 776
3 695 776 696
3 696 776 777
3 696 777 697
3 697 777 778
3 697 778 698
3 698 778 779
3 698 779 699
3 699 779 780
3 699 780 700
3 700 780 781
3 700 781 701
3 701 781 782
3 701 782 702
3 702 782 783
3 702 783 703
3 703 783 784
3 703 784 704
3 704 784 785
3 704 785 705
3 705 785 786
3 705 786 706
3 706 786 787
3 706 787 707
3 707 787 788
3 707 788 708
3 708 788 789
3 708 789 709
3 709 789 790
3 709 790 710
3 710 790 791
3 710 791 711
3 711 791 792
3 711 792 712
3 712 792 793
3 712 793 713
3 713 793 794
3 713 794 714
3 714 794 795
3 714 795 715
3 715 795 796
3 715 796 716
3 716 796 797
3 716 797 717
3 717 797 798
3 717 798 718
3 718 798 799
3 718 799 719
3 719 799 800
3 719 800 720
3 720 800 721
3 720 721 641
