ply 
format ascii 1.0 
comment this is a surface 
element vertex 721 
property float x 
property float y 
property float z 
element face 1326 
property list uchar int vertex_index 
end_header 
197.012875 173.232875 -69.120000
212.400000 202.920000 -69.120000
211.210000 203.640000 -69.120000
210.710000 202.300000 -69.120000
210.390000 199.310000 -69.120000
210.140000 195.410000 -69.120000
209.830000 191.380000 -69.120000
209.340000 187.980000 -69.120000
208.500000 184.890000 -69.120000
207.300000 181.780000 -69.120000
205.810000 178.970000 -69.120000
204.110000 176.800000 -69.120000
201.830000 175.010000 -69.120000
198.940000 173.450000 -69.120000
195.820000 172.340000 -69.120000
192.800000 171.830000 -69.120000
189.720000 171.530000 -69.120000
186.580000 171.340000 -69.120000
183.470000 171.320000 -69.120000
180.080000 171.870000 -69.120000
176.990000 172.870000 -69.120000
174.980000 174.150000 -69.120000
173.410000 176.430000 -69.120000
172.090000 179.550000 -69.120000
171.180000 182.980000 -69.120000
170.870000 186.220000 -69.120000
170.870000 190.020000 -69.120000
170.870000 193.840000 -69.120000
170.870000 195.760000 -69.120000
170.010000 194.770000 -69.120000
167.850000 192.030000 -69.120000
165.610000 188.640000 -69.120000
164.440000 185.600000 -69.120000
163.750000 182.580000 -69.120000
163.280000 179.450000 -69.120000
163.180000 176.350000 -69.120000
163.390000 173.080000 -69.120000
163.820000 169.690000 -69.120000
164.470000 166.380000 -69.120000
165.290000 163.360000 -69.120000
166.270000 160.810000 -69.120000
167.740000 158.850000 -69.120000
170.610000 157.240000 -69.120000
173.710000 156.040000 -69.120000
176.620000 155.190000 -69.120000
179.640000 154.520000 -69.120000
182.710000 153.930000 -69.120000
185.790000 153.340000 -69.120000
188.820000 152.630000 -69.120000
191.780000 151.600000 -69.120000
194.690000 150.280000 -69.120000
197.610000 149.260000 -69.120000
200.590000 149.080000 -69.120000
203.640000 149.550000 -69.120000
206.730000 150.260000 -69.120000
209.800000 150.880000 -69.120000
212.830000 151.060000 -69.120000
215.780000 150.030000 -69.120000
218.730000 148.930000 -69.120000
222.070000 148.860000 -69.120000
225.510000 148.860000 -69.120000
227.310000 149.060000 -69.120000
228.420000 151.250000 -69.120000
229.240000 154.890000 -69.120000
229.700000 158.810000 -69.120000
229.720000 162.010000 -69.120000
229.370000 165.090000 -69.120000
228.770000 168.180000 -69.120000
228.040000 171.220000 -69.120000
227.260000 174.170000 -69.120000
226.140000 177.010000 -69.120000
224.750000 179.800000 -69.120000
223.260000 182.560000 -69.120000
221.840000 185.350000 -69.120000
220.590000 188.190000 -69.120000
219.390000 191.040000 -69.120000
218.230000 193.910000 -69.120000
217.100000 196.800000 -69.120000
217.100000 196.800000 -69.120000
214.530000 200.550000 -69.120000
212.400000 202.920000 -69.120000
216.330000 197.490000 -60.480000
216.240000 194.630000 -60.480000
216.160000 191.350000 -60.480000
216.020000 188.230000 -60.480000
215.730000 185.760000 -60.480000
214.890000 183.450000 -60.480000
213.580000 181.210000 -60.480000
212.020000 179.090000 -60.480000
210.420000 177.160000 -60.480000
208.780000 175.320000 -60.480000
206.900000 173.470000 -60.480000
206.900000 173.470000 -60.480000
204.850000 171.810000 -60.480000
202.700000 170.580000 -60.480000
200.500000 169.920000 -60.480000
198.160000 169.440000 -60.480000
195.680000 169.020000 -60.480000
193.120000 168.660000 -60.480000
190.530000 168.380000 -60.480000
187.980000 168.180000 -60.480000
185.510000 168.080000 -60.480000
183.180000 168.190000 -60.480000
180.960000 169.140000 -60.480000
178.780000 170.600000 -60.480000
176.590000 172.040000 -60.480000
174.070000 173.240000 -60.480000
171.080000 174.580000 -60.480000
168.700000 175.620000 -60.480000
167.960000 175.900000 -60.480000
168.070000 174.630000 -60.480000
168.630000 171.920000 -60.480000
170.020000 168.230000 -60.480000
170.020000 168.230000 -60.480000
171.810000 166.470000 -60.480000
173.660000 164.780000 -60.480000
175.550000 163.150000 -60.480000
177.490000 161.590000 -60.480000
179.460000 160.100000 -60.480000
181.480000 158.620000 -60.480000
183.530000 157.080000 -60.480000
185.660000 155.690000 -60.480000
187.860000 154.680000 -60.480000
190.210000 154.120000 -60.480000
192.690000 153.740000 -60.480000
195.200000 153.390000 -60.480000
197.660000 152.980000 -60.480000
200.110000 152.550000 -60.480000
202.570000 152.120000 -60.480000
205.030000 151.720000 -60.480000
207.500000 151.380000 -60.480000
209.970000 151.130000 -60.480000
212.470000 150.950000 -60.480000
214.990000 150.780000 -60.480000
217.490000 150.650000 -60.480000
219.930000 150.600000 -60.480000
222.490000 150.840000 -60.480000
225.240000 151.600000 -60.480000
227.850000 152.730000 -60.480000
229.960000 154.090000 -60.480000
231.210000 155.530000 -60.480000
231.980000 157.490000 -60.480000
232.610000 160.050000 -60.480000
233.040000 162.810000 -60.480000
233.190000 165.380000 -60.480000
232.760000 167.690000 -60.480000
231.720000 169.960000 -60.480000
230.390000 172.200000 -60.480000
229.100000 174.460000 -60.480000
228.100000 176.750000 -60.480000
227.220000 179.090000 -60.480000
226.370000 181.450000 -60.480000
225.500000 183.790000 -60.480000
224.560000 186.080000 -60.480000
223.450000 188.420000 -60.480000
222.000000 191.140000 -60.480000
220.380000 193.970000 -60.480000
218.820000 196.570000 -60.480000
217.520000 198.580000 -60.480000
216.710000 199.650000 -60.480000
216.460000 199.350000 -60.480000
217.630000 192.740000 -51.840000
216.770000 190.220000 -51.840000
216.000000 186.660000 -51.840000
215.360000 182.130000 -51.840000
215.360000 182.130000 -51.840000
214.090000 179.260000 -51.840000
212.630000 176.590000 -51.840000
210.990000 174.170000 -51.840000
209.200000 172.050000 -51.840000
207.280000 170.270000 -51.840000
207.280000 170.270000 -51.840000
205.260000 168.890000 -51.840000
203.050000 167.800000 -51.840000
200.520000 166.780000 -51.840000
197.760000 165.910000 -51.840000
194.930000 165.290000 -51.840000
192.140000 165.020000 -51.840000
189.410000 165.050000 -51.840000
186.640000 165.200000 -51.840000
183.840000 165.430000 -51.840000
181.050000 165.730000 -51.840000
178.320000 166.100000 -51.840000
175.690000 166.520000 -51.840000
172.830000 167.390000 -51.840000
169.620000 168.980000 -51.840000
166.570000 170.800000 -51.840000
164.200000 172.370000 -51.840000
163.020000 173.200000 -51.840000
163.210000 172.320000 -51.840000
164.040000 169.350000 -51.840000
165.190000 165.980000 -51.840000
166.490000 163.610000 -51.840000
168.320000 161.580000 -51.840000
170.510000 159.720000 -51.840000
172.770000 158.010000 -51.840000
175.020000 156.470000 -51.840000
177.420000 155.120000 -51.840000
179.870000 153.800000 -51.840000
182.210000 152.360000 -51.840000
184.430000 150.740000 -51.840000
186.600000 149.030000 -51.840000
188.780000 147.340000 -51.840000
190.990000 145.660000 -51.840000
193.200000 143.940000 -51.840000
195.480000 142.390000 -51.840000
197.870000 141.180000 -51.840000
200.430000 140.070000 -51.840000
203.100000 139.120000 -51.840000
205.790000 138.580000 -51.840000
208.480000 138.580000 -51.840000
211.200000 138.830000 -51.840000
213.950000 139.240000 -51.840000
216.700000 139.780000 -51.840000
219.430000 140.410000 -51.840000
222.100000 141.090000 -51.840000
224.730000 141.820000 -51.840000
227.410000 142.790000 -51.840000
229.960000 143.980000 -51.840000
232.200000 145.370000 -51.840000
234.410000 147.130000 -51.840000
236.600000 149.300000 -51.840000
238.240000 151.690000 -51.840000
238.820000 154.090000 -51.840000
238.300000 156.560000 -51.840000
237.170000 159.160000 -51.840000
235.840000 161.790000 -51.840000
234.670000 164.340000 -51.840000
233.490000 166.830000 -51.840000
232.280000 169.300000 -51.840000
231.110000 171.790000 -51.840000
230.010000 174.320000 -51.840000
228.950000 176.870000 -51.840000
227.860000 179.400000 -51.840000
226.700000 181.890000 -51.840000
225.370000 184.650000 -51.840000
223.880000 187.780000 -51.840000
222.350000 190.780000 -51.840000
220.900000 193.140000 -51.840000
219.630000 194.380000 -51.840000
218.590000 194.160000 -51.840000
219.440000 186.650000 -43.200000
218.450000 183.090000 -43.200000
217.430000 179.770000 -43.200000
216.430000 176.850000 -43.200000
215.320000 174.060000 -43.200000
213.740000 171.760000 -43.200000
211.510000 169.770000 -43.200000
208.770000 168.110000 -43.200000
208.770000 168.110000 -43.200000
206.000000 166.870000 -43.200000
206.000000 166.870000 -43.200000
203.200000 165.760000 -43.200000
200.350000 164.820000 -43.200000
197.480000 164.080000 -43.200000
194.560000 163.460000 -43.200000
191.590000 162.890000 -43.200000
188.600000 162.530000 -43.200000
185.620000 162.460000 -43.200000
182.590000 162.460000 -43.200000
179.560000 162.460000 -43.200000
176.580000 162.460000 -43.200000
173.680000 162.600000 -43.200000
170.840000 163.600000 -43.200000
168.100000 165.080000 -43.200000
165.530000 166.670000 -43.200000
163.180000 168.970000 -43.200000
160.820000 170.860000 -43.200000
157.830000 170.850000 -43.200000
157.290000 169.150000 -43.200000
158.320000 166.250000 -43.200000
159.760000 163.030000 -43.200000
161.240000 160.380000 -43.200000
163.040000 158.000000 -43.200000
165.080000 155.730000 -43.200000
167.190000 153.550000 -43.200000
169.300000 151.430000 -43.200000
171.530000 149.400000 -43.200000
173.840000 147.520000 -43.200000
176.280000 145.800000 -43.200000
178.810000 144.180000 -43.200000
181.350000 142.570000 -43.200000
183.830000 140.880000 -43.200000
186.230000 138.950000 -43.200000
188.600000 136.940000 -43.200000
190.990000 135.050000 -43.200000
193.480000 133.520000 -43.200000
196.130000 132.490000 -43.200000
198.960000 131.620000 -43.200000
201.910000 130.850000 -43.200000
204.930000 130.270000 -43.200000
207.940000 129.960000 -43.200000
210.930000 129.940000 -43.200000
213.980000 130.000000 -43.200000
217.050000 130.100000 -43.200000
220.050000 130.250000 -43.200000
222.930000 130.430000 -43.200000
225.760000 131.030000 -43.200000
228.600000 132.380000 -43.200000
231.260000 134.200000 -43.200000
233.550000 136.200000 -43.200000
235.450000 138.280000 -43.200000
237.340000 140.830000 -43.200000
238.810000 143.670000 -43.200000
239.420000 146.510000 -43.200000
239.120000 149.350000 -43.200000
238.370000 152.280000 -43.200000
237.380000 155.220000 -43.200000
236.360000 158.100000 -43.200000
235.340000 160.910000 -43.200000
234.150000 163.680000 -43.200000
232.850000 166.390000 -43.200000
231.420000 169.020000 -43.200000
229.610000 171.500000 -43.200000
227.760000 173.950000 -43.200000
226.390000 176.530000 -43.200000
225.760000 179.420000 -43.200000
225.350000 182.500000 -43.200000
224.550000 185.280000 -43.200000
222.410000 188.120000 -43.200000
220.600000 188.850000 -43.200000
221.450000 183.340000 -34.560000
219.980000 180.900000 -34.560000
218.710000 178.280000 -34.560000
217.500000 175.590000 -34.560000
216.210000 172.970000 -34.560000
214.700000 170.530000 -34.560000
213.000000 168.210000 -34.560000
211.160000 165.970000 -34.560000
209.220000 163.790000 -34.560000
209.220000 163.790000 -34.560000
206.490000 162.760000 -34.560000
206.490000 162.760000 -34.560000
203.750000 161.820000 -34.560000
200.980000 160.960000 -34.560000
198.190000 160.200000 -34.560000
195.390000 159.540000 -34.560000
192.570000 158.950000 -34.560000
189.720000 158.370000 -34.560000
186.860000 157.930000 -34.560000
183.980000 157.800000 -34.560000
181.070000 157.800000 -34.560000
178.190000 157.800000 -34.560000
175.380000 158.080000 -34.560000
172.650000 159.070000 -34.560000
169.930000 160.310000 -34.560000
167.180000 161.300000 -34.560000
164.280000 161.650000 -34.560000
161.610000 161.500000 -34.560000
159.090000 159.500000 -34.560000
157.450000 156.670000 -34.560000
157.490000 154.160000 -34.560000
158.460000 151.430000 -34.560000
159.940000 148.650000 -34.560000
161.610000 146.110000 -34.560000
163.380000 143.950000 -34.560000
165.610000 141.990000 -34.560000
168.030000 140.350000 -34.560000
170.520000 138.860000 -34.560000
173.180000 137.430000 -34.560000
175.930000 136.380000 -34.560000
178.710000 136.040000 -34.560000
181.570000 136.040000 -34.560000
184.540000 136.050000 -34.560000
187.510000 136.050000 -34.560000
190.400000 136.050000 -34.560000
193.130000 136.030000 -34.560000
195.660000 134.960000 -34.560000
198.060000 132.920000 -34.560000
200.450000 130.770000 -34.560000
202.930000 129.360000 -34.560000
205.610000 129.200000 -34.560000
208.470000 129.240000 -34.560000
211.420000 129.320000 -34.560000
214.370000 129.430000 -34.560000
217.250000 129.570000 -34.560000
220.170000 130.050000 -34.560000
223.040000 130.870000 -34.560000
225.680000 131.900000 -34.560000
228.030000 133.260000 -34.560000
230.260000 135.220000 -34.560000
232.260000 137.520000 -34.560000
233.940000 139.900000 -34.560000
235.460000 142.330000 -34.560000
236.950000 144.970000 -34.560000
238.130000 147.730000 -34.560000
238.750000 150.500000 -34.560000
238.610000 153.270000 -34.560000
237.930000 156.100000 -34.560000
236.980000 158.920000 -34.560000
235.990000 161.640000 -34.560000
234.810000 164.270000 -34.560000
233.440000 166.840000 -34.560000
232.020000 169.360000 -34.560000
230.410000 171.800000 -34.560000
228.710000 174.200000 -34.560000
227.220000 176.660000 -34.560000
226.210000 179.460000 -34.560000
225.600000 183.100000 -34.560000
224.920000 185.900000 -34.560000
223.510000 185.770000 -34.560000
223.030000 181.480000 -25.920000
221.150000 179.000000 -25.920000
219.230000 176.550000 -25.920000
217.250000 174.150000 -25.920000
215.180000 171.850000 -25.920000
213.020000 169.620000 -25.920000
210.780000 167.460000 -25.920000
208.460000 165.380000 -25.920000
208.460000 165.380000 -25.920000
208.460000 165.380000 -25.920000
205.790000 163.790000 -25.920000
203.130000 162.190000 -25.920000
200.470000 160.580000 -25.920000
197.860000 158.700000 -25.920000
195.230000 157.010000 -25.920000
192.390000 156.200000 -25.920000
189.310000 155.670000 -25.920000
186.160000 155.350000 -25.920000
183.060000 155.330000 -25.920000
179.940000 155.830000 -25.920000
176.920000 156.670000 -25.920000
174.180000 157.960000 -25.920000
171.670000 160.260000 -25.920000
169.200000 162.410000 -25.920000
166.550000 163.140000 -25.920000
163.060000 162.530000 -25.920000
159.610000 161.240000 -25.920000
157.800000 159.600000 -25.920000
157.450000 156.940000 -25.920000
157.280000 153.460000 -25.920000
157.500000 150.320000 -25.920000
158.360000 147.140000 -25.920000
159.640000 144.190000 -25.920000
161.120000 141.760000 -25.920000
163.470000 139.830000 -25.920000
166.330000 138.200000 -25.920000
169.050000 136.740000 -25.920000
171.880000 135.450000 -25.920000
174.750000 134.210000 -25.920000
177.590000 132.950000 -25.920000
180.440000 131.700000 -25.920000
183.310000 130.510000 -25.920000
186.200000 129.260000 -25.920000
189.090000 127.950000 -25.920000
191.990000 126.690000 -25.920000
194.920000 125.590000 -25.920000
197.880000 124.750000 -25.920000
200.880000 124.280000 -25.920000
203.930000 124.080000 -25.920000
207.040000 123.940000 -25.920000
210.170000 123.820000 -25.920000
213.290000 123.670000 -25.920000
216.430000 123.420000 -25.920000
219.600000 123.060000 -25.920000
222.630000 122.830000 -25.920000
225.500000 123.130000 -25.920000
228.450000 124.230000 -25.920000
231.350000 125.940000 -25.920000
234.090000 128.080000 -25.920000
236.520000 130.480000 -25.920000
238.540000 132.930000 -25.920000
240.050000 135.310000 -25.920000
241.410000 138.080000 -25.920000
242.520000 141.180000 -25.920000
243.100000 144.310000 -25.920000
242.850000 147.270000 -25.920000
241.870000 150.240000 -25.920000
240.610000 153.190000 -25.920000
239.510000 156.130000 -25.920000
238.480000 159.090000 -25.920000
237.410000 162.020000 -25.920000
236.230000 164.890000 -25.920000
234.830000 167.610000 -25.920000
233.030000 170.170000 -25.920000
231.270000 172.750000 -25.920000
229.920000 175.810000 -25.920000
228.810000 179.570000 -25.920000
227.740000 183.040000 -25.920000
226.530000 185.170000 -25.920000
224.930000 184.400000 -25.920000
223.200000 185.360000 -17.280000
221.670000 183.360000 -17.280000
220.230000 179.610000 -17.280000
218.220000 176.960000 -17.280000
215.850000 174.490000 -17.280000
213.420000 172.110000 -17.280000
210.980000 169.780000 -17.280000
208.450000 167.540000 -17.280000
205.840000 165.380000 -17.280000
205.840000 165.380000 -17.280000
203.150000 163.290000 -17.280000
203.150000 163.290000 -17.280000
200.350000 161.390000 -17.280000
197.460000 159.690000 -17.280000
194.440000 158.090000 -17.280000
191.320000 156.810000 -17.280000
188.070000 155.920000 -17.280000
184.710000 155.200000 -17.280000
181.390000 154.940000 -17.280000
178.140000 155.430000 -17.280000
174.920000 156.510000 -17.280000
171.720000 157.850000 -17.280000
168.520000 159.150000 -17.280000
165.210000 160.410000 -17.280000
161.780000 161.860000 -17.280000
158.690000 162.860000 -17.280000
156.250000 162.360000 -17.280000
154.190000 159.250000 -17.280000
152.760000 155.820000 -17.280000
151.680000 152.580000 -17.280000
150.970000 149.220000 -17.280000
151.100000 145.940000 -17.280000
152.240000 142.690000 -17.280000
153.660000 139.590000 -17.280000
155.310000 136.530000 -17.280000
157.320000 133.800000 -17.280000
159.760000 131.770000 -17.280000
162.760000 130.150000 -17.280000
165.900000 128.600000 -17.280000
168.740000 126.750000 -17.280000
171.150000 124.100000 -17.280000
173.700000 122.110000 -17.280000
176.800000 121.450000 -17.280000
180.250000 121.030000 -17.280000
183.690000 120.540000 -17.280000
186.960000 119.750000 -17.280000
190.200000 118.780000 -17.280000
193.430000 117.750000 -17.280000
196.680000 116.810000 -17.280000
199.970000 116.020000 -17.280000
203.280000 115.230000 -17.280000
206.620000 114.880000 -17.280000
210.000000 114.880000 -17.280000
213.390000 114.880000 -17.280000
216.760000 114.880000 -17.280000
220.270000 115.200000 -17.280000
223.790000 115.930000 -17.280000
226.960000 116.910000 -17.280000
229.500000 118.210000 -17.280000
231.660000 120.620000 -17.280000
233.580000 123.730000 -17.280000
235.340000 126.950000 -17.280000
237.050000 129.900000 -17.280000
238.690000 132.900000 -17.280000
240.050000 136.000000 -17.280000
241.030000 139.220000 -17.280000
241.800000 142.570000 -17.280000
241.810000 145.800000 -17.280000
240.520000 148.880000 -17.280000
238.720000 151.930000 -17.280000
237.340000 155.050000 -17.280000
236.310000 158.270000 -17.280000
235.400000 161.550000 -17.280000
234.530000 164.840000 -17.280000
233.600000 168.090000 -17.280000
232.530000 171.280000 -17.280000
231.250000 174.380000 -17.280000
229.710000 177.440000 -17.280000
227.930000 180.300000 -17.280000
225.650000 183.270000 -17.280000
223.260000 186.800000 -8.640000
220.460000 185.750000 -8.640000
217.470000 182.810000 -8.640000
215.610000 179.490000 -8.640000
215.060000 175.960000 -8.640000
214.650000 172.210000 -8.640000
213.490000 169.290000 -8.640000
210.900000 166.790000 -8.640000
207.640000 164.530000 -8.640000
204.550000 162.410000 -8.640000
204.550000 162.410000 -8.640000
201.560000 160.280000 -8.640000
198.420000 158.440000 -8.640000
195.130000 157.270000 -8.640000
191.640000 156.320000 -8.640000
188.040000 155.610000 -8.640000
184.430000 155.320000 -8.640000
180.810000 155.410000 -8.640000
177.140000 155.660000 -8.640000
173.550000 156.050000 -8.640000
170.160000 156.610000 -8.640000
166.920000 157.940000 -8.640000
163.800000 159.940000 -8.640000
160.810000 162.340000 -8.640000
160.810000 162.340000 -8.640000
156.410000 161.970000 -8.640000
152.990000 161.040000 -8.640000
150.930000 159.590000 -8.640000
149.420000 156.230000 -8.640000
148.670000 152.210000 -8.640000
148.790000 148.590000 -8.640000
149.220000 144.910000 -8.640000
149.900000 141.550000 -8.640000
151.700000 138.530000 -8.640000
154.230000 135.690000 -8.640000
156.660000 132.980000 -8.640000
159.240000 130.440000 -8.640000
161.760000 127.850000 -8.640000
163.900000 124.760000 -8.640000
165.960000 121.620000 -8.640000
168.440000 119.560000 -8.640000
171.660000 118.390000 -8.640000
175.310000 117.500000 -8.640000
178.950000 116.570000 -8.640000
182.360000 115.300000 -8.640000
185.750000 113.880000 -8.640000
189.160000 112.730000 -8.640000
192.650000 112.260000 -8.640000
196.240000 112.030000 -8.640000
199.870000 111.880000 -8.640000
203.480000 111.840000 -8.640000
207.080000 112.040000 -8.640000
210.670000 112.470000 -8.640000
214.230000 112.990000 -8.640000
217.770000 113.730000 -8.640000
221.260000 114.710000 -8.640000
224.650000 115.850000 -8.640000
227.970000 117.300000 -8.640000
231.190000 119.010000 -8.640000
234.240000 120.880000 -8.640000
237.490000 122.920000 -8.640000
240.620000 125.190000 -8.640000
242.960000 127.750000 -8.640000
244.200000 130.730000 -8.640000
245.110000 134.340000 -8.640000
245.550000 138.050000 -8.640000
245.020000 141.520000 -8.640000
243.710000 144.970000 -8.640000
242.640000 148.430000 -8.640000
241.700000 151.910000 -8.640000
240.720000 155.380000 -8.640000
239.620000 158.810000 -8.640000
238.400000 162.210000 -8.640000
237.070000 165.550000 -8.640000
235.620000 168.870000 -8.640000
234.040000 172.140000 -8.640000
232.290000 175.270000 -8.640000
230.310000 178.610000 -8.640000
228.080000 182.290000 -8.640000
225.690000 185.350000 -8.640000
220.660000 184.980000 0.000000
218.890000 182.070000 0.000000
217.150000 177.720000 0.000000
215.290000 174.060000 0.000000
213.380000 170.650000 0.000000
211.150000 167.720000 0.000000
208.150000 165.550000 0.000000
204.750000 163.650000 0.000000
201.520000 161.520000 0.000000
201.520000 161.520000 0.000000
198.280000 159.380000 0.000000
194.860000 158.100000 0.000000
191.130000 157.450000 0.000000
187.310000 157.160000 0.000000
183.510000 157.310000 0.000000
179.660000 157.790000 0.000000
175.840000 158.530000 0.000000
172.140000 159.470000 0.000000
168.650000 160.550000 0.000000
165.420000 162.330000 0.000000
162.410000 164.860000 0.000000
162.410000 164.860000 0.000000
158.250000 164.670000 0.000000
154.490000 164.170000 0.000000
151.260000 163.450000 0.000000
147.990000 161.540000 0.000000
144.870000 158.490000 0.000000
142.560000 154.900000 0.000000
141.700000 151.390000 0.000000
142.100000 147.720000 0.000000
143.020000 143.850000 0.000000
144.370000 140.440000 0.000000
146.790000 137.360000 0.000000
149.510000 134.790000 0.000000
152.680000 132.690000 0.000000
155.950000 130.650000 0.000000
158.910000 128.300000 0.000000
161.640000 125.660000 0.000000
164.290000 122.920000 0.000000
166.830000 119.870000 0.000000
169.280000 116.550000 0.000000
171.860000 113.840000 0.000000
174.820000 112.470000 0.000000
178.250000 111.690000 0.000000
182.010000 111.090000 0.000000
185.960000 110.610000 0.000000
189.930000 110.170000 0.000000
193.790000 109.700000 0.000000
197.550000 109.120000 0.000000
201.320000 108.720000 0.000000
205.110000 108.730000 0.000000
208.930000 108.840000 0.000000
212.730000 109.020000 0.000000
216.460000 109.280000 0.000000
220.150000 110.130000 0.000000
223.760000 111.490000 0.000000
227.250000 112.940000 0.000000
230.660000 114.670000 0.000000
233.900000 116.650000 0.000000
237.090000 118.840000 0.000000
240.150000 121.310000 0.000000
242.400000 124.120000 0.000000
244.140000 127.490000 0.000000
245.380000 131.240000 0.000000
245.600000 134.970000 0.000000
245.520000 138.780000 0.000000
245.360000 142.630000 0.000000
245.130000 146.390000 0.000000
244.390000 149.980000 0.000000
242.810000 153.480000 0.000000
241.080000 156.970000 0.000000
239.850000 160.570000 0.000000
238.890000 164.300000 0.000000
237.880000 167.980000 0.000000
236.540000 171.430000 0.000000
234.550000 174.920000 0.000000
232.040000 177.560000 0.000000
228.450000 178.840000 0.000000
224.810000 180.090000 0.000000
222.560000 183.630000 0.000000
3 0 80 2
3 0 2 3
3 0 3 4
3 0 4 5
3 0 5 6
3 0 6 7
3 0 7 8
3 0 8 9
3 0 9 10
3 0 10 11
3 0 11 12
3 0 12 13
3 0 13 14
3 0 14 15
3 0 15 16
3 0 16 17
3 0 17 18
3 0 18 19
3 0 19 20
3 0 20 21
3 0 21 22
3 0 22 23
3 0 23 24
3 0 24 25
3 0 25 26
3 0 26 27
3 0 27 28
3 0 28 29
3 0 29 30
3 0 30 31
3 0 31 32
3 0 32 33
3 0 33 34
3 0 34 35
3 0 35 36
3 0 36 37
3 0 37 38
3 0 38 39
3 0 39 40
3 0 40 41
3 0 41 42
3 0 42 43
3 0 43 44
3 0 44 45
3 0 45 46
3 0 46 47
3 0 47 48
3 0 48 49
3 0 49 50
3 0 50 51
3 0 51 52
3 0 52 53
3 0 53 54
3 0 54 55
3 0 55 56
3 0 56 57
3 0 57 58
3 0 58 59
3 0 59 60
3 0 60 61
3 0 61 62
3 0 62 63
3 0 63 64
3 0 64 65
3 0 65 66
3 0 66 67
3 0 67 68
3 0 68 69
3 0 69 70
3 0 70 71
3 0 71 72
3 0 72 73
3 0 73 74
3 0 74 75
3 0 75 76
3 0 76 77
3 0 77 79
3 0 79 80
3 80 81 82
3 80 82 2
3 2 82 83
3 2 83 3
3 3 83 84
3 3 84 4
3 4 84 85
3 4 85 5
3 5 85 86
3 5 86 6
3 6 86 87
3 6 87 7
3 7 87 88
3 7 88 8
3 8 88 89
3 8 89 9
3 9 89 90
3 9 90 10
3 10 90 91
3 10 91 11
3 11 91 12
3 12 91 93
3 12 93 13
3 13 93 94
3 13 94 14
3 14 94 95
3 14 95 15
3 15 95 96
3 15 96 16
3 16 96 97
3 16 97 17
3 17 97 98
3 17 98 18
3 18 98 99
3 18 99 19
3 19 99 100
3 19 100 20
3 20 100 101
3 20 101 21
3 21 101 102
3 21 102 22
3 22 102 103
3 22 103 23
3 23 103 104
3 23 104 24
3 24 104 105
3 24 105 25
3 25 105 106
3 25 106 26
3 26 106 107
3 26 107 27
3 27 107 108
3 27 108 28
3 28 108 109
3 28 109 29
3 29 109 110
3 29 110 30
3 30 110 111
3 30 111 31
3 31 111 112
3 31 112 32
3 32 112 33
3 33 112 114
3 33 114 34
3 34 114 115
3 34 115 35
3 35 115 116
3 35 116 36
3 36 116 117
3 36 117 37
3 37 117 118
3 37 118 38
3 38 118 119
3 38 119 39
3 39 119 120
3 39 120 40
3 40 120 121
3 40 121 41
3 41 121 122
3 41 122 42
3 42 122 123
3 42 123 43
3 43 123 124
3 43 124 44
3 44 124 125
3 44 125 45
3 45 125 126
3 45 126 46
3 46 126 127
3 46 127 47
3 47 127 128
3 47 128 48
3 48 128 129
3 48 129 49
3 49 129 130
3 49 130 50
3 50 130 131
3 50 131 51
3 51 131 132
3 51 132 52
3 52 132 133
3 52 133 53
3 53 133 134
3 53 134 54
3 54 134 135
3 54 135 55
3 55 135 136
3 55 136 56
3 56 136 137
3 56 137 57
3 57 137 138
3 57 138 58
3 58 138 139
3 58 139 59
3 59 139 140
3 59 140 60
3 60 140 141
3 60 141 61
3 61 141 142
3 61 142 62
3 62 142 143
3 62 143 63
3 63 143 144
3 63 144 64
3 64 144 145
3 64 145 65
3 65 145 146
3 65 146 66
3 66 146 147
3 66 147 67
3 67 147 148
3 67 148 68
3 68 148 149
3 68 149 69
3 69 149 150
3 69 150 70
3 70 150 151
3 70 151 71
3 71 151 152
3 71 152 72
3 72 152 153
3 72 153 73
3 73 153 154
3 73 154 74
3 74 154 155
3 74 155 75
3 75 155 156
3 75 156 76
3 76 156 157
3 76 157 77
3 77 157 158
3 77 158 159
3 77 159 79
3 79 159 160
3 79 160 80
3 80 160 81
3 81 161 162
3 81 162 82
3 82 162 163
3 82 163 83
3 83 163 164
3 83 164 84
3 84 164 85
3 85 164 166
3 85 166 86
3 86 166 167
3 86 167 87
3 87 167 168
3 87 168 88
3 88 168 169
3 88 169 89
3 89 169 170
3 89 170 90
3 90 170 91
3 91 170 172
3 91 172 173
3 91 173 93
3 93 173 174
3 93 174 94
3 94 174 175
3 94 175 95
3 95 175 176
3 95 176 96
3 96 176 177
3 96 177 97
3 97 177 178
3 97 178 98
3 98 178 179
3 98 179 99
3 99 179 180
3 99 180 100
3 100 180 181
3 100 181 101
3 101 181 182
3 101 182 102
3 102 182 183
3 102 183 103
3 103 183 184
3 103 184 104
3 104 184 185
3 104 185 105
3 105 185 186
3 105 186 106
3 106 186 187
3 106 187 107
3 107 187 188
3 107 188 108
3 108 188 189
3 108 189 109
3 109 189 190
3 109 190 110
3 110 190 191
3 110 191 111
3 111 191 192
3 111 192 112
3 112 192 193
3 112 193 194
3 112 194 114
3 114 194 195
3 114 195 115
3 115 195 196
3 115 196 116
3 116 196 197
3 116 197 117
3 117 197 198
3 117 198 118
3 118 198 199
3 118 199 119
3 119 199 200
3 119 200 120
3 120 200 201
3 120 201 121
3 121 201 202
3 121 202 122
3 122 202 203
3 122 203 123
3 123 203 204
3 123 204 124
3 124 204 205
3 124 205 125
3 125 205 206
3 125 206 126
3 126 206 207
3 126 207 127
3 127 207 208
3 127 208 128
3 128 208 209
3 128 209 129
3 129 209 210
3 129 210 130
3 130 210 211
3 130 211 131
3 131 211 212
3 131 212 132
3 132 212 213
3 132 213 133
3 133 213 214
3 133 214 134
3 134 214 215
3 134 215 135
3 135 215 216
3 135 216 136
3 136 216 217
3 136 217 137
3 137 217 218
3 137 218 138
3 138 218 219
3 138 219 139
3 139 219 220
3 139 220 140
3 140 220 221
3 140 221 141
3 141 221 222
3 141 222 142
3 142 222 223
3 142 223 143
3 143 223 224
3 143 224 144
3 144 224 225
3 144 225 145
3 145 225 226
3 145 226 146
3 146 226 227
3 146 227 147
3 147 227 228
3 147 228 148
3 148 228 229
3 148 229 149
3 149 229 230
3 149 230 150
3 150 230 231
3 150 231 151
3 151 231 232
3 151 232 152
3 152 232 233
3 152 233 153
3 153 233 234
3 153 234 154
3 154 234 235
3 154 235 155
3 155 235 236
3 155 236 156
3 156 236 237
3 156 237 157
3 157 237 238
3 157 238 158
3 158 238 239
3 158 239 159
3 159 239 240
3 159 240 160
3 160 240 161
3 160 161 81
3 161 241 242
3 161 242 162
3 162 242 243
3 162 243 163
3 163 243 244
3 163 244 164
3 164 244 245
3 164 245 246
3 164 246 166
3 166 246 247
3 166 247 167
3 167 247 248
3 167 248 168
3 168 248 169
3 169 248 250
3 169 250 170
3 170 250 252
3 170 252 172
3 172 252 253
3 172 253 173
3 173 253 254
3 173 254 174
3 174 254 255
3 174 255 175
3 175 255 256
3 175 256 176
3 176 256 257
3 176 257 177
3 177 257 258
3 177 258 178
3 178 258 259
3 178 259 179
3 179 259 260
3 179 260 180
3 180 260 261
3 180 261 181
3 181 261 262
3 181 262 182
3 182 262 263
3 182 263 183
3 183 263 264
3 183 264 184
3 184 264 265
3 184 265 185
3 185 265 266
3 185 266 186
3 186 266 267
3 186 267 187
3 187 267 268
3 187 268 188
3 188 268 269
3 188 269 189
3 189 269 270
3 189 270 190
3 190 270 271
3 190 271 191
3 191 271 272
3 191 272 192
3 192 272 273
3 192 273 193
3 193 273 274
3 193 274 194
3 194 274 275
3 194 275 195
3 195 275 276
3 195 276 196
3 196 276 277
3 196 277 197
3 197 277 278
3 197 278 198
3 198 278 279
3 198 279 199
3 199 279 280
3 199 280 200
3 200 280 281
3 200 281 201
3 201 281 282
3 201 282 202
3 202 282 283
3 202 283 203
3 203 283 284
3 203 284 204
3 204 284 285
3 204 285 205
3 205 285 286
3 205 286 206
3 206 286 287
3 206 287 207
3 207 287 288
3 207 288 208
3 208 288 289
3 208 289 209
3 209 289 290
3 209 290 210
3 210 290 291
3 210 291 211
3 211 291 292
3 211 292 212
3 212 292 293
3 212 293 213
3 213 293 294
3 213 294 214
3 214 294 295
3 214 295 215
3 215 295 296
3 215 296 216
3 216 296 297
3 216 297 217
3 217 297 298
3 217 298 218
3 218 298 299
3 218 299 219
3 219 299 300
3 219 300 220
3 220 300 301
3 220 301 221
3 221 301 302
3 221 302 222
3 222 302 303
3 222 303 223
3 223 303 304
3 223 304 224
3 224 304 305
3 224 305 225
3 225 305 306
3 225 306 226
3 226 306 307
3 226 307 227
3 227 307 308
3 227 308 228
3 228 308 309
3 228 309 229
3 229 309 310
3 229 310 230
3 230 310 311
3 230 311 231
3 231 311 312
3 231 312 232
3 232 312 313
3 232 313 233
3 233 313 314
3 233 314 234
3 234 314 315
3 234 315 235
3 235 315 316
3 235 316 236
3 236 316 317
3 236 317 237
3 237 317 318
3 237 318 238
3 238 318 319
3 238 319 239
3 239 319 320
3 239 320 240
3 240 320 241
3 240 241 161
3 241 321 322
3 241 322 242
3 242 322 323
3 242 323 243
3 243 323 324
3 243 324 244
3 244 324 325
3 244 325 245
3 245 325 326
3 245 326 246
3 246 326 327
3 246 327 247
3 247 327 328
3 247 328 248
3 248 328 329
3 248 329 250
3 250 329 331
3 250 331 252
3 252 331 333
3 252 333 253
3 253 333 334
3 253 334 254
3 254 334 335
3 254 335 255
3 255 335 336
3 255 336 256
3 256 336 337
3 256 337 257
3 257 337 338
3 257 338 258
3 258 338 339
3 258 339 259
3 259 339 340
3 259 340 260
3 260 340 341
3 260 341 261
3 261 341 342
3 261 342 262
3 262 342 343
3 262 343 263
3 263 343 344
3 263 344 264
3 264 344 345
3 264 345 265
3 265 345 346
3 265 346 266
3 266 346 347
3 266 347 267
3 267 347 348
3 267 348 268
3 268 348 349
3 268 349 269
3 269 349 350
3 269 350 270
3 270 350 351
3 270 351 271
3 271 351 352
3 271 352 272
3 272 352 353
3 272 353 273
3 273 353 354
3 273 354 274
3 274 354 355
3 274 355 275
3 275 355 356
3 275 356 276
3 276 356 357
3 276 357 277
3 277 357 358
3 277 358 278
3 278 358 359
3 278 359 279
3 279 359 360
3 279 360 280
3 280 360 361
3 280 361 281
3 281 361 362
3 281 362 282
3 282 362 363
3 282 363 283
3 283 363 364
3 283 364 284
3 284 364 365
3 284 365 285
3 285 365 366
3 285 366 286
3 286 366 367
3 286 367 287
3 287 367 368
3 287 368 288
3 288 368 369
3 288 369 289
3 289 369 370
3 289 370 290
3 290 370 371
3 290 371 291
3 291 371 372
3 291 372 292
3 292 372 373
3 292 373 293
3 293 373 374
3 293 374 294
3 294 374 375
3 294 375 295
3 295 375 376
3 295 376 296
3 296 376 377
3 296 377 297
3 297 377 378
3 297 378 298
3 298 378 379
3 298 379 299
3 299 379 380
3 299 380 300
3 300 380 381
3 300 381 301
3 301 381 382
3 301 382 302
3 302 382 383
3 302 383 303
3 303 383 384
3 303 384 304
3 304 384 385
3 304 385 305
3 305 385 386
3 305 386 306
3 306 386 387
3 306 387 307
3 307 387 388
3 307 388 308
3 308 388 389
3 308 389 309
3 309 389 390
3 309 390 310
3 310 390 391
3 310 391 311
3 311 391 392
3 311 392 312
3 312 392 393
3 312 393 313
3 313 393 394
3 313 394 314
3 314 394 395
3 314 395 315
3 315 395 396
3 315 396 316
3 316 396 397
3 316 397 317
3 317 397 398
3 317 398 318
3 318 398 399
3 318 399 319
3 319 399 400
3 319 400 320
3 320 400 321
3 320 321 241
3 321 401 402
3 321 402 322
3 322 402 403
3 322 403 323
3 323 403 404
3 323 404 324
3 324 404 405
3 324 405 325
3 325 405 406
3 325 406 326
3 326 406 407
3 326 407 327
3 327 407 408
3 327 408 328
3 328 408 329
3 329 408 411
3 329 411 331
3 331 411 412
3 331 412 413
3 331 413 333
3 333 413 414
3 333 414 334
3 334 414 415
3 334 415 335
3 335 415 416
3 335 416 336
3 336 416 417
3 336 417 337
3 337 417 418
3 337 418 338
3 338 418 419
3 338 419 339
3 339 419 420
3 339 420 340
3 340 420 421
3 340 421 341
3 341 421 422
3 341 422 342
3 342 422 423
3 342 423 343
3 343 423 424
3 343 424 344
3 344 424 425
3 344 425 345
3 345 425 426
3 345 426 346
3 346 426 427
3 346 427 347
3 347 427 428
3 347 428 348
3 348 428 429
3 348 429 349
3 349 429 430
3 349 430 350
3 350 430 431
3 350 431 351
3 351 431 432
3 351 432 352
3 352 432 433
3 352 433 353
3 353 433 434
3 353 434 354
3 354 434 435
3 354 435 355
3 355 435 436
3 355 436 356
3 356 436 437
3 356 437 357
3 357 437 438
3 357 438 358
3 358 438 439
3 358 439 359
3 359 439 440
3 359 440 360
3 360 440 441
3 360 441 361
3 361 441 442
3 361 442 362
3 362 442 443
3 362 443 363
3 363 443 444
3 363 444 364
3 364 444 445
3 364 445 365
3 365 445 446
3 365 446 366
3 366 446 447
3 366 447 367
3 367 447 448
3 367 448 368
3 368 448 449
3 368 449 369
3 369 449 450
3 369 450 370
3 370 450 451
3 370 451 371
3 371 451 452
3 371 452 372
3 372 452 453
3 372 453 373
3 373 453 454
3 373 454 374
3 374 454 455
3 374 455 375
3 375 455 456
3 375 456 376
3 376 456 457
3 376 457 377
3 377 457 458
3 377 458 378
3 378 458 459
3 378 459 379
3 379 459 460
3 379 460 380
3 380 460 461
3 380 461 381
3 381 461 462
3 381 462 382
3 382 462 463
3 382 463 383
3 383 463 464
3 383 464 384
3 384 464 465
3 384 465 385
3 385 465 466
3 385 466 386
3 386 466 467
3 386 467 387
3 387 467 468
3 387 468 388
3 388 468 469
3 388 469 389
3 389 469 470
3 389 470 390
3 390 470 471
3 390 471 391
3 391 471 472
3 391 472 392
3 392 472 473
3 392 473 393
3 393 473 474
3 393 474 394
3 394 474 475
3 394 475 395
3 395 475 476
3 395 476 396
3 396 476 477
3 396 477 397
3 397 477 478
3 397 478 398
3 398 478 479
3 398 479 399
3 399 479 480
3 399 480 400
3 400 480 401
3 400 401 321
3 401 481 482
3 401 482 402
3 402 482 483
3 402 483 403
3 403 483 484
3 403 484 404
3 404 484 485
3 404 485 405
3 405 485 486
3 405 486 406
3 406 486 487
3 406 487 407
3 407 487 488
3 407 488 408
3 408 488 489
3 408 489 491
3 408 491 411
3 411 491 412
3 412 491 493
3 412 493 413
3 413 493 494
3 413 494 414
3 414 494 495
3 414 495 415
3 415 495 496
3 415 496 416
3 416 496 497
3 416 497 417
3 417 497 498
3 417 498 418
3 418 498 499
3 418 499 419
3 419 499 500
3 419 500 420
3 420 500 501
3 420 501 421
3 421 501 502
3 421 502 422
3 422 502 503
3 422 503 423
3 423 503 504
3 423 504 424
3 424 504 505
3 424 505 425
3 425 505 506
3 425 506 426
3 426 506 507
3 426 507 427
3 427 507 508
3 427 508 428
3 428 508 509
3 428 509 429
3 429 509 510
3 429 510 430
3 430 510 511
3 430 511 431
3 431 511 512
3 431 512 432
3 432 512 513
3 432 513 433
3 433 513 514
3 433 514 434
3 434 514 515
3 434 515 435
3 435 515 516
3 435 516 436
3 436 516 517
3 436 517 437
3 437 517 518
3 437 518 438
3 438 518 519
3 438 519 439
3 439 519 520
3 439 520 440
3 440 520 521
3 440 521 441
3 441 521 522
3 441 522 442
3 442 522 523
3 442 523 443
3 443 523 524
3 443 524 444
3 444 524 525
3 444 525 445
3 445 525 526
3 445 526 446
3 446 526 527
3 446 527 447
3 447 527 528
3 447 528 448
3 448 528 529
3 448 529 449
3 449 529 530
3 449 530 450
3 450 530 531
3 450 531 451
3 451 531 532
3 451 532 452
3 452 532 533
3 452 533 453
3 453 533 534
3 453 534 454
3 454 534 535
3 454 535 455
3 455 535 536
3 455 536 456
3 456 536 537
3 456 537 457
3 457 537 538
3 457 538 458
3 458 538 539
3 458 539 459
3 459 539 540
3 459 540 460
3 460 540 541
3 460 541 461
3 461 541 542
3 461 542 462
3 462 542 543
3 462 543 463
3 463 543 544
3 463 544 464
3 464 544 545
3 464 545 465
3 465 545 546
3 465 546 466
3 466 546 547
3 466 547 467
3 467 547 548
3 467 548 468
3 468 548 549
3 468 549 469
3 469 549 550
3 469 550 470
3 470 550 551
3 470 551 471
3 471 551 552
3 471 552 472
3 472 552 553
3 472 553 473
3 473 553 554
3 473 554 474
3 474 554 555
3 474 555 475
3 475 555 556
3 475 556 476
3 476 556 557
3 476 557 477
3 477 557 558
3 477 558 478
3 478 558 559
3 478 559 479
3 479 559 560
3 479 560 480
3 480 560 481
3 480 481 401
3 481 561 562
3 481 562 482
3 482 562 563
3 482 563 483
3 483 563 564
3 483 564 484
3 484 564 565
3 484 565 485
3 485 565 566
3 485 566 486
3 486 566 567
3 486 567 487
3 487 567 568
3 487 568 488
3 488 568 569
3 488 569 489
3 489 569 570
3 489 570 491
3 491 570 572
3 491 572 573
3 491 573 493
3 493 573 574
3 493 574 494
3 494 574 575
3 494 575 495
3 495 575 576
3 495 576 496
3 496 576 577
3 496 577 497
3 497 577 578
3 497 578 498
3 498 578 579
3 498 579 499
3 499 579 580
3 499 580 500
3 500 580 581
3 500 581 501
3 501 581 582
3 501 582 502
3 502 582 583
3 502 583 503
3 503 583 584
3 503 584 504
3 504 584 505
3 505 584 586
3 505 586 506
3 506 586 587
3 506 587 507
3 507 587 588
3 507 588 508
3 508 588 589
3 508 589 509
3 509 589 590
3 509 590 510
3 510 590 591
3 510 591 511
3 511 591 592
3 511 592 512
3 512 592 593
3 512 593 513
3 513 593 594
3 513 594 514
3 514 594 595
3 514 595 515
3 515 595 596
3 515 596 516
3 516 596 597
3 516 597 517
3 517 597 598
3 517 598 518
3 518 598 599
3 518 599 519
3 519 599 600
3 519 600 520
3 520 600 601
3 520 601 521
3 521 601 602
3 521 602 522
3 522 602 603
3 522 603 523
3 523 603 604
3 523 604 524
3 524 604 605
3 524 605 525
3 525 605 606
3 525 606 526
3 526 606 607
3 526 607 527
3 527 607 608
3 527 608 528
3 528 608 609
3 528 609 529
3 529 609 610
3 529 610 530
3 530 610 611
3 530 611 531
3 531 611 612
3 531 612 532
3 532 612 613
3 532 613 533
3 533 613 614
3 533 614 534
3 534 614 615
3 534 615 535
3 535 615 616
3 535 616 536
3 536 616 617
3 536 617 537
3 537 617 618
3 537 618 538
3 538 618 619
3 538 619 539
3 539 619 620
3 539 620 540
3 540 620 621
3 540 621 541
3 541 621 622
3 541 622 542
3 542 622 623
3 542 623 543
3 543 623 624
3 543 624 544
3 544 624 625
3 544 625 545
3 545 625 626
3 545 626 546
3 546 626 627
3 546 627 547
3 547 627 628
3 547 628 548
3 548 628 629
3 548 629 549
3 549 629 630
3 549 630 550
3 550 630 631
3 550 631 551
3 551 631 632
3 551 632 552
3 552 632 633
3 552 633 553
3 553 633 634
3 553 634 554
3 554 634 635
3 554 635 555
3 555 635 636
3 555 636 556
3 556 636 637
3 556 637 557
3 557 637 638
3 557 638 558
3 558 638 639
3 558 639 559
3 559 639 640
3 559 640 560
3 560 640 561
3 560 561 481
3 561 641 642
3 561 642 562
3 562 642 643
3 562 643 563
3 563 643 644
3 563 644 564
3 564 644 645
3 564 645 565
3 565 645 646
3 565 646 566
3 566 646 647
3 566 647 567
3 567 647 648
3 567 648 568
3 568 648 649
3 568 649 569
3 569 649 570
3 570 649 651
3 570 651 652
3 570 652 572
3 572 652 653
3 572 653 573
3 573 653 654
3 573 654 574
3 574 654 655
3 574 655 575
3 575 655 656
3 575 656 576
3 576 656 657
3 576 657 577
3 577 657 658
3 577 658 578
3 578 658 659
3 578 659 579
3 579 659 660
3 579 660 580
3 580 660 661
3 580 661 581
3 581 661 582
3 582 661 663
3 582 663 583
3 583 663 664
3 583 664 584
3 584 664 665
3 584 665 666
3 584 666 586
3 586 666 667
3 586 667 587
3 587 667 668
3 587 668 588
3 588 668 669
3 588 669 589
3 589 669 670
3 589 670 590
3 590 670 671
3 590 671 591
3 591 671 672
3 591 672 592
3 592 672 673
3 592 673 593
3 593 673 674
3 593 674 594
3 594 674 675
3 594 675 595
3 595 675 676
3 595 676 596
3 596 676 677
3 596 677 597
3 597 677 678
3 597 678 598
3 598 678 679
3 598 679 599
3 599 679 680
3 599 680 600
3 600 680 681
3 600 681 601
3 601 681 682
3 601 682 602
3 602 682 683
3 602 683 603
3 603 683 684
3 603 684 604
3 604 684 685
3 604 685 605
3 605 685 686
3 605 686 606
3 606 686 687
3 606 687 607
3 607 687 688
3 607 688 608
3 608 688 689
3 608 689 609
3 609 689 690
3 609 690 610
3 610 690 691
3 610 691 611
3 611 691 692
3 611 692 612
3 612 692 693
3 612 693 613
3 613 693 694
3 613 694 614
3 614 694 695
3 614 695 615
3 615 695 696
3 615 696 616
3 616 696 697
3 616 697 617
3 617 697 698
3 617 698 618
3 618 698 699
3 618 699 619
3 619 699 700
3 619 700 620
3 620 700 701
3 620 701 621
3 621 701 702
3 621 702 622
3 622 702 703
3 622 703 623
3 623 703 704
3 623 704 624
3 624 704 705
3 624 705 625
3 625 705 706
3 625 706 626
3 626 706 707
3 626 707 627
3 627 707 708
3 627 708 628
3 628 708 709
3 628 709 629
3 629 709 710
3 629 710 630
3 630 710 711
3 630 711 631
3 631 711 712
3 631 712 632
3 632 712 713
3 632 713 633
3 633 713 714
3 633 714 634
3 634 714 715
3 634 715 635
3 635 715 716
3 635 716 636
3 636 716 717
3 636 717 637
3 637 717 718
3 637 718 638
3 638 718 719
3 638 719 639
3 639 719 720
3 639 720 640
3 640 720 641
3 640 641 561
