ply 
format ascii 1.0 
comment this is a surface 
element vertex 721 
property float x 
property float y 
property float z 
element face 1326 
property list uchar int vertex_index 
end_header 
190.923250 195.363500 -69.120000
192.500000 211.690000 -69.120000
191.320000 211.640000 -69.120000
190.150000 211.380000 -69.120000
188.980000 210.930000 -69.120000
187.820000 210.350000 -69.120000
186.680000 209.670000 -69.120000
185.550000 208.920000 -69.120000
184.450000 208.160000 -69.120000
183.380000 207.420000 -69.120000
182.330000 206.730000 -69.120000
181.220000 206.010000 -69.120000
180.100000 205.240000 -69.120000
179.030000 204.430000 -69.120000
178.090000 203.560000 -69.120000
177.340000 202.640000 -69.120000
176.820000 201.650000 -69.120000
176.360000 200.540000 -69.120000
175.930000 199.330000 -69.120000
175.560000 198.060000 -69.120000
175.270000 196.750000 -69.120000
175.070000 195.460000 -69.120000
174.980000 194.200000 -69.120000
175.050000 192.960000 -69.120000
175.260000 191.700000 -69.120000
175.600000 190.420000 -69.120000
176.030000 189.170000 -69.120000
176.530000 187.950000 -69.120000
177.060000 186.810000 -69.120000
177.600000 185.760000 -69.120000
178.230000 184.680000 -69.120000
179.010000 183.530000 -69.120000
179.910000 182.400000 -69.120000
180.900000 181.370000 -69.120000
181.960000 180.510000 -69.120000
183.040000 179.930000 -69.120000
184.120000 179.680000 -69.120000
185.220000 179.680000 -69.120000
186.380000 179.680000 -69.120000
187.600000 179.690000 -69.120000
188.870000 179.710000 -69.120000
190.180000 179.740000 -69.120000
191.550000 179.790000 -69.120000
192.960000 179.850000 -69.120000
192.960000 179.850000 -69.120000
194.350000 180.280000 -69.120000
195.670000 180.790000 -69.120000
196.930000 181.370000 -69.120000
198.110000 182.010000 -69.120000
199.210000 182.700000 -69.120000
200.220000 183.450000 -69.120000
201.140000 184.230000 -69.120000
201.940000 185.060000 -69.120000
202.640000 185.910000 -69.120000
203.270000 186.840000 -69.120000
203.900000 187.900000 -69.120000
204.500000 189.060000 -69.120000
205.040000 190.300000 -69.120000
205.480000 191.580000 -69.120000
205.800000 192.870000 -69.120000
205.960000 194.130000 -69.120000
205.970000 195.370000 -69.120000
205.950000 196.660000 -69.120000
205.910000 197.970000 -69.120000
205.860000 199.290000 -69.120000
205.800000 200.580000 -69.120000
205.720000 201.820000 -69.120000
205.630000 202.970000 -69.120000
205.350000 204.100000 -69.120000
204.770000 205.250000 -69.120000
203.950000 206.370000 -69.120000
202.990000 207.410000 -69.120000
201.960000 208.320000 -69.120000
200.920000 209.050000 -69.120000
199.930000 209.590000 -69.120000
198.820000 210.090000 -69.120000
197.610000 210.570000 -69.120000
196.340000 210.980000 -69.120000
195.030000 211.330000 -69.120000
193.740000 211.570000 -69.120000
192.500000 211.690000 -69.120000
192.210000 214.950000 -60.480000
192.210000 214.950000 -60.480000
190.570000 214.960000 -60.480000
188.940000 214.770000 -60.480000
187.280000 214.340000 -60.480000
185.650000 213.730000 -60.480000
184.060000 213.000000 -60.480000
182.570000 212.210000 -60.480000
181.200000 211.410000 -60.480000
179.930000 210.510000 -60.480000
178.710000 209.420000 -60.480000
177.550000 208.170000 -60.480000
176.460000 206.820000 -60.480000
175.430000 205.410000 -60.480000
174.490000 203.990000 -60.480000
173.610000 202.610000 -60.480000
172.680000 201.180000 -60.480000
171.740000 199.710000 -60.480000
170.870000 198.190000 -60.480000
170.150000 196.640000 -60.480000
169.670000 195.070000 -60.480000
169.500000 193.490000 -60.480000
169.540000 191.850000 -60.480000
169.630000 190.140000 -60.480000
169.780000 188.410000 -60.480000
169.970000 186.710000 -60.480000
170.200000 185.100000 -60.480000
170.490000 183.610000 -60.480000
171.110000 182.110000 -60.480000
172.070000 180.630000 -60.480000
173.250000 179.230000 -60.480000
174.560000 177.990000 -60.480000
175.900000 176.990000 -60.480000
177.210000 176.260000 -60.480000
178.660000 175.610000 -60.480000
180.230000 175.060000 -60.480000
181.930000 174.640000 -60.480000
183.710000 174.390000 -60.480000
183.710000 174.390000 -60.480000
185.500000 174.410000 -60.480000
187.240000 174.450000 -60.480000
188.940000 174.510000 -60.480000
190.590000 174.600000 -60.480000
192.200000 174.710000 -60.480000
193.760000 174.840000 -60.480000
195.270000 175.050000 -60.480000
196.750000 175.660000 -60.480000
198.180000 176.580000 -60.480000
199.570000 177.700000 -60.480000
200.890000 178.860000 -60.480000
202.160000 179.950000 -60.480000
203.430000 181.050000 -60.480000
204.720000 182.210000 -60.480000
205.950000 183.440000 -60.480000
207.090000 184.720000 -60.480000
208.060000 186.060000 -60.480000
208.820000 187.440000 -60.480000
209.420000 188.890000 -60.480000
210.010000 190.450000 -60.480000
210.540000 192.080000 -60.480000
210.980000 193.760000 -60.480000
211.290000 195.430000 -60.480000
211.440000 197.080000 -60.480000
211.390000 198.710000 -60.480000
211.170000 200.400000 -60.480000
210.790000 202.110000 -60.480000
210.290000 203.790000 -60.480000
209.700000 205.410000 -60.480000
209.050000 206.920000 -60.480000
208.370000 208.290000 -60.480000
207.510000 209.630000 -60.480000
206.370000 211.000000 -60.480000
205.030000 212.260000 -60.480000
203.580000 213.300000 -60.480000
202.100000 213.970000 -60.480000
200.630000 214.250000 -60.480000
199.050000 214.470000 -60.480000
197.380000 214.640000 -60.480000
195.650000 214.790000 -60.480000
193.920000 214.890000 -60.480000
192.960000 218.370000 -51.840000
191.010000 218.580000 -51.840000
191.010000 218.580000 -51.840000
189.060000 218.720000 -51.840000
187.170000 218.770000 -51.840000
185.280000 218.620000 -51.840000
183.350000 218.180000 -51.840000
181.420000 217.520000 -51.840000
179.570000 216.700000 -51.840000
177.840000 215.780000 -51.840000
176.310000 214.830000 -51.840000
174.970000 213.820000 -51.840000
173.720000 212.550000 -51.840000
172.530000 211.050000 -51.840000
171.410000 209.390000 -51.840000
170.390000 207.610000 -51.840000
169.460000 205.790000 -51.840000
168.650000 203.980000 -51.840000
167.940000 202.230000 -51.840000
167.240000 200.460000 -51.840000
166.560000 198.640000 -51.840000
165.960000 196.780000 -51.840000
165.500000 194.900000 -51.840000
165.240000 193.010000 -51.840000
165.220000 191.130000 -51.840000
165.330000 189.190000 -51.840000
165.550000 187.230000 -51.840000
165.850000 185.290000 -51.840000
166.200000 183.430000 -51.840000
166.600000 181.680000 -51.840000
167.200000 180.040000 -51.840000
168.100000 178.450000 -51.840000
169.250000 176.910000 -51.840000
170.610000 175.440000 -51.840000
172.130000 174.040000 -51.840000
173.760000 172.720000 -51.840000
173.760000 172.720000 -51.840000
175.670000 172.430000 -51.840000
177.580000 172.240000 -51.840000
179.480000 172.110000 -51.840000
181.380000 172.050000 -51.840000
183.280000 172.030000 -51.840000
185.190000 172.120000 -51.840000
187.090000 172.320000 -51.840000
188.990000 172.590000 -51.840000
190.870000 172.890000 -51.840000
192.780000 173.210000 -51.840000
194.700000 173.600000 -51.840000
196.590000 174.080000 -51.840000
198.360000 174.660000 -51.840000
200.000000 175.390000 -51.840000
201.560000 176.470000 -51.840000
203.040000 177.800000 -51.840000
204.400000 179.250000 -51.840000
205.620000 180.670000 -51.840000
206.880000 182.140000 -51.840000
208.180000 183.690000 -51.840000
209.460000 185.310000 -51.840000
210.630000 186.990000 -51.840000
211.640000 188.700000 -51.840000
212.410000 190.440000 -51.840000
212.870000 192.200000 -51.840000
212.960000 193.970000 -51.840000
212.840000 195.820000 -51.840000
212.580000 197.750000 -51.840000
212.210000 199.700000 -51.840000
211.760000 201.630000 -51.840000
211.240000 203.490000 -51.840000
210.690000 205.230000 -51.840000
209.890000 206.890000 -51.840000
208.780000 208.500000 -51.840000
207.480000 210.020000 -51.840000
206.130000 211.410000 -51.840000
204.780000 212.710000 -51.840000
203.310000 214.040000 -51.840000
201.740000 215.310000 -51.840000
200.100000 216.430000 -51.840000
198.400000 217.280000 -51.840000
196.680000 217.780000 -51.840000
194.870000 218.090000 -51.840000
193.260000 219.120000 -43.200000
191.310000 219.290000 -43.200000
189.260000 219.170000 -43.200000
189.260000 219.170000 -43.200000
187.160000 218.910000 -43.200000
185.040000 218.530000 -43.200000
182.980000 218.080000 -43.200000
181.030000 217.560000 -43.200000
179.220000 216.910000 -43.200000
177.470000 215.870000 -43.200000
175.780000 214.560000 -43.200000
174.170000 213.100000 -43.200000
172.650000 211.600000 -43.200000
171.220000 210.150000 -43.200000
169.860000 208.600000 -43.200000
168.550000 206.960000 -43.200000
167.330000 205.260000 -43.200000
166.200000 203.520000 -43.200000
165.120000 201.760000 -43.200000
163.940000 199.950000 -43.200000
162.830000 198.080000 -43.200000
161.970000 196.180000 -43.200000
161.540000 194.240000 -43.200000
161.520000 192.240000 -43.200000
161.520000 190.150000 -43.200000
161.520000 188.030000 -43.200000
161.520000 185.920000 -43.200000
161.520000 183.870000 -43.200000
161.620000 181.910000 -43.200000
162.220000 179.910000 -43.200000
163.220000 177.940000 -43.200000
164.480000 176.100000 -43.200000
165.830000 174.460000 -43.200000
167.150000 173.120000 -43.200000
168.630000 171.900000 -43.200000
170.320000 170.780000 -43.200000
172.200000 169.790000 -43.200000
174.240000 168.950000 -43.200000
176.420000 168.280000 -43.200000
176.420000 168.280000 -43.200000
178.480000 167.800000 -43.200000
180.540000 167.480000 -43.200000
182.590000 167.310000 -43.200000
184.630000 167.260000 -43.200000
186.680000 167.390000 -43.200000
188.750000 167.750000 -43.200000
190.800000 168.270000 -43.200000
192.800000 168.900000 -43.200000
194.710000 169.580000 -43.200000
196.540000 170.400000 -43.200000
198.310000 171.510000 -43.200000
200.010000 172.800000 -43.200000
201.600000 174.170000 -43.200000
203.080000 175.560000 -43.200000
204.480000 177.080000 -43.200000
205.810000 178.700000 -43.200000
207.060000 180.380000 -43.200000
208.220000 182.090000 -43.200000
209.420000 183.820000 -43.200000
210.710000 185.590000 -43.200000
211.920000 187.420000 -43.200000
212.890000 189.280000 -43.200000
213.470000 191.180000 -43.200000
213.550000 193.130000 -43.200000
213.400000 195.170000 -43.200000
213.110000 197.260000 -43.200000
212.730000 199.350000 -43.200000
212.300000 201.370000 -43.200000
211.770000 203.340000 -43.200000
210.970000 205.320000 -43.200000
209.970000 207.220000 -43.200000
208.840000 208.950000 -43.200000
207.620000 210.430000 -43.200000
206.110000 211.760000 -43.200000
204.390000 212.990000 -43.200000
202.550000 214.110000 -43.200000
200.700000 215.170000 -43.200000
198.900000 216.210000 -43.200000
197.060000 217.360000 -43.200000
195.180000 218.400000 -43.200000
193.170000 218.370000 -34.560000
190.990000 218.650000 -34.560000
188.790000 218.880000 -34.560000
188.790000 218.880000 -34.560000
186.600000 219.020000 -34.560000
184.450000 219.070000 -34.560000
182.310000 218.810000 -34.560000
180.180000 218.210000 -34.560000
178.100000 217.440000 -34.560000
176.060000 216.670000 -34.560000
173.950000 215.800000 -34.560000
171.910000 214.770000 -34.560000
170.090000 213.600000 -34.560000
168.670000 212.250000 -34.560000
167.540000 210.510000 -34.560000
166.560000 208.480000 -34.560000
165.640000 206.380000 -34.560000
164.650000 204.390000 -34.560000
163.520000 202.460000 -34.560000
162.360000 200.540000 -34.560000
161.320000 198.590000 -34.560000
160.580000 196.590000 -34.560000
160.220000 194.530000 -34.560000
159.940000 192.370000 -34.560000
159.720000 190.160000 -34.560000
159.570000 187.950000 -34.560000
159.520000 185.790000 -34.560000
159.650000 183.600000 -34.560000
160.050000 181.290000 -34.560000
160.670000 178.970000 -34.560000
161.460000 176.720000 -34.560000
162.390000 174.640000 -34.560000
163.400000 172.820000 -34.560000
164.450000 171.340000 -34.560000
165.700000 170.110000 -34.560000
167.320000 168.970000 -34.560000
169.240000 167.930000 -34.560000
171.410000 167.050000 -34.560000
173.780000 166.330000 -34.560000
176.300000 165.830000 -34.560000
176.300000 165.830000 -34.560000
178.740000 165.860000 -34.560000
181.100000 165.940000 -34.560000
183.380000 166.080000 -34.560000
185.590000 166.270000 -34.560000
187.730000 166.510000 -34.560000
189.790000 166.800000 -34.560000
191.780000 167.130000 -34.560000
193.690000 167.490000 -34.560000
195.510000 168.170000 -34.560000
197.220000 169.440000 -34.560000
198.850000 171.060000 -34.560000
200.470000 172.780000 -34.560000
202.100000 174.330000 -34.560000
203.850000 175.710000 -34.560000
205.630000 177.080000 -34.560000
207.320000 178.500000 -34.560000
208.780000 180.030000 -34.560000
209.950000 181.750000 -34.560000
211.060000 183.660000 -34.560000
212.020000 185.700000 -34.560000
212.760000 187.800000 -34.560000
213.210000 189.890000 -34.560000
213.540000 192.050000 -34.560000
213.810000 194.270000 -34.560000
214.020000 196.490000 -34.560000
214.120000 198.630000 -34.560000
213.970000 200.660000 -34.560000
213.170000 202.640000 -34.560000
211.920000 204.560000 -34.560000
210.510000 206.410000 -34.560000
209.170000 208.170000 -34.560000
207.850000 209.940000 -34.560000
206.430000 211.700000 -34.560000
204.890000 213.340000 -34.560000
203.250000 214.740000 -34.560000
201.510000 215.830000 -34.560000
199.540000 216.770000 -34.560000
197.430000 217.540000 -34.560000
195.300000 218.050000 -34.560000
192.940000 219.810000 -25.920000
190.680000 219.740000 -25.920000
188.330000 219.580000 -25.920000
188.330000 219.580000 -25.920000
185.910000 219.290000 -25.920000
185.910000 219.290000 -25.920000
183.570000 219.070000 -25.920000
181.300000 218.670000 -25.920000
179.100000 218.140000 -25.920000
176.980000 217.540000 -25.920000
174.900000 216.740000 -25.920000
172.850000 215.680000 -25.920000
170.850000 214.430000 -25.920000
168.940000 213.040000 -25.920000
167.170000 211.580000 -25.920000
165.540000 210.100000 -25.920000
163.960000 208.470000 -25.920000
162.460000 206.670000 -25.920000
161.100000 204.760000 -25.920000
159.940000 202.780000 -25.920000
159.040000 200.770000 -25.920000
158.180000 198.650000 -25.920000
157.390000 196.440000 -25.920000
156.790000 194.190000 -25.920000
156.460000 191.940000 -25.920000
156.470000 189.710000 -25.920000
156.730000 187.420000 -25.920000
157.160000 185.110000 -25.920000
157.740000 182.830000 -25.920000
158.410000 180.630000 -25.920000
159.150000 178.550000 -25.920000
160.040000 176.570000 -25.920000
161.310000 174.600000 -25.920000
162.840000 172.730000 -25.920000
164.520000 171.070000 -25.920000
166.250000 169.720000 -25.920000
168.100000 168.510000 -25.920000
170.150000 167.340000 -25.920000
172.340000 166.350000 -25.920000
174.570000 165.680000 -25.920000
176.790000 165.480000 -25.920000
179.030000 165.480000 -25.920000
181.330000 165.500000 -25.920000
183.660000 165.520000 -25.920000
185.980000 165.550000 -25.920000
188.240000 165.590000 -25.920000
190.420000 165.670000 -25.920000
192.570000 166.220000 -25.920000
194.680000 167.200000 -25.920000
196.730000 168.430000 -25.920000
198.700000 169.730000 -25.920000
200.590000 170.960000 -25.920000
202.440000 172.300000 -25.920000
204.240000 173.780000 -25.920000
205.930000 175.360000 -25.920000
207.480000 177.010000 -25.920000
208.890000 178.730000 -25.920000
210.290000 180.560000 -25.920000
211.640000 182.500000 -25.920000
212.860000 184.510000 -25.920000
213.870000 186.570000 -25.920000
214.610000 188.670000 -25.920000
215.120000 190.840000 -25.920000
215.600000 193.140000 -25.920000
215.980000 195.490000 -25.920000
216.240000 197.770000 -25.920000
216.330000 199.890000 -25.920000
215.840000 201.880000 -25.920000
214.620000 203.790000 -25.920000
212.980000 205.630000 -25.920000
211.170000 207.380000 -25.920000
209.490000 209.030000 -25.920000
207.920000 210.750000 -25.920000
206.290000 212.610000 -25.920000
204.580000 214.490000 -25.920000
202.810000 216.260000 -25.920000
200.970000 217.800000 -25.920000
199.070000 218.980000 -25.920000
197.110000 219.680000 -25.920000
195.080000 219.820000 -25.920000
193.200000 219.510000 -17.280000
191.070000 219.700000 -17.280000
188.830000 219.770000 -17.280000
188.830000 219.770000 -17.280000
186.510000 219.810000 -17.280000
184.100000 219.820000 -17.280000
184.100000 219.820000 -17.280000
181.630000 219.710000 -17.280000
179.260000 219.410000 -17.280000
176.970000 218.950000 -17.280000
174.780000 218.370000 -17.280000
172.670000 217.700000 -17.280000
170.640000 216.980000 -17.280000
168.690000 215.900000 -17.280000
166.830000 214.440000 -17.280000
165.090000 212.810000 -17.280000
163.490000 211.180000 -17.280000
161.890000 209.490000 -17.280000
160.320000 207.690000 -17.280000
158.860000 205.800000 -17.280000
157.600000 203.840000 -17.280000
156.650000 201.820000 -17.280000
156.000000 199.740000 -17.280000
155.430000 197.520000 -17.280000
154.940000 195.220000 -17.280000
154.610000 192.890000 -17.280000
154.480000 190.600000 -17.280000
154.620000 188.320000 -17.280000
155.030000 186.000000 -17.280000
155.640000 183.690000 -17.280000
156.380000 181.460000 -17.280000
157.210000 179.370000 -17.280000
158.150000 177.430000 -17.280000
159.500000 175.550000 -17.280000
161.150000 173.780000 -17.280000
162.930000 172.210000 -17.280000
164.720000 170.920000 -17.280000
166.620000 169.650000 -17.280000
168.650000 168.400000 -17.280000
170.780000 167.250000 -17.280000
172.980000 166.260000 -17.280000
175.200000 165.520000 -17.280000
177.420000 165.100000 -17.280000
179.620000 165.060000 -17.280000
181.860000 165.250000 -17.280000
184.140000 165.610000 -17.280000
186.440000 166.090000 -17.280000
188.720000 166.650000 -17.280000
190.970000 167.240000 -17.280000
193.170000 167.850000 -17.280000
195.360000 168.590000 -17.280000
197.530000 169.470000 -17.280000
199.600000 170.480000 -17.280000
201.540000 171.590000 -17.280000
203.420000 172.900000 -17.280000
205.230000 174.400000 -17.280000
206.940000 176.040000 -17.280000
208.480000 177.750000 -17.280000
209.850000 179.510000 -17.280000
211.280000 181.400000 -17.280000
212.700000 183.420000 -17.280000
213.940000 185.510000 -17.280000
214.870000 187.640000 -17.280000
215.340000 189.770000 -17.280000
215.250000 191.900000 -17.280000
214.730000 194.100000 -17.280000
213.930000 196.320000 -17.280000
213.000000 198.530000 -17.280000
212.080000 200.690000 -17.280000
211.230000 202.860000 -17.280000
210.330000 205.100000 -17.280000
209.350000 207.290000 -17.280000
208.240000 209.300000 -17.280000
206.970000 211.010000 -17.280000
205.370000 212.370000 -17.280000
203.380000 213.540000 -17.280000
201.220000 214.620000 -17.280000
199.130000 215.730000 -17.280000
197.170000 217.110000 -17.280000
195.220000 218.540000 -17.280000
193.040000 218.120000 -8.640000
190.830000 218.780000 -8.640000
188.590000 219.360000 -8.640000
188.590000 219.360000 -8.640000
186.320000 219.860000 -8.640000
186.320000 219.860000 -8.640000
183.710000 219.810000 -8.640000
181.220000 219.660000 -8.640000
178.870000 219.420000 -8.640000
176.660000 219.110000 -8.640000
174.610000 218.730000 -8.640000
172.730000 218.240000 -8.640000
171.040000 217.060000 -8.640000
169.480000 215.320000 -8.640000
167.990000 213.280000 -8.640000
166.510000 211.190000 -8.640000
164.980000 209.320000 -8.640000
163.260000 207.670000 -8.640000
161.420000 206.060000 -8.640000
159.680000 204.430000 -8.640000
158.240000 202.700000 -8.640000
157.310000 200.800000 -8.640000
156.550000 198.690000 -8.640000
155.890000 196.410000 -8.640000
155.370000 194.050000 -8.640000
155.080000 191.720000 -8.640000
155.080000 189.470000 -8.640000
155.450000 187.200000 -8.640000
156.110000 184.920000 -8.640000
156.980000 182.680000 -8.640000
157.970000 180.520000 -8.640000
158.980000 178.490000 -8.640000
160.100000 176.580000 -8.640000
161.510000 174.750000 -8.640000
163.100000 173.000000 -8.640000
164.800000 171.330000 -8.640000
166.530000 169.750000 -8.640000
168.240000 168.140000 -8.640000
170.030000 166.380000 -8.640000
171.900000 164.730000 -8.640000
173.850000 163.510000 -8.640000
175.870000 163.020000 -8.640000
178.050000 162.950000 -8.640000
180.380000 162.890000 -8.640000
182.790000 162.840000 -8.640000
185.190000 162.810000 -8.640000
187.520000 162.800000 -8.640000
189.700000 162.820000 -8.640000
191.790000 163.420000 -8.640000
193.810000 164.610000 -8.640000
195.770000 166.120000 -8.640000
197.680000 167.690000 -8.640000
199.520000 169.090000 -8.640000
201.340000 170.530000 -8.640000
203.110000 172.050000 -8.640000
204.810000 173.650000 -8.640000
206.420000 175.310000 -8.640000
207.950000 177.010000 -8.640000
209.640000 178.790000 -8.640000
211.380000 180.630000 -8.640000
212.970000 182.530000 -8.640000
214.190000 184.510000 -8.640000
214.850000 186.540000 -8.640000
214.860000 188.660000 -8.640000
214.610000 190.940000 -8.640000
214.210000 193.280000 -8.640000
213.710000 195.620000 -8.640000
213.180000 197.850000 -8.640000
212.480000 200.050000 -8.640000
211.590000 202.230000 -8.640000
210.570000 204.350000 -8.640000
209.450000 206.380000 -8.640000
208.260000 208.300000 -8.640000
206.860000 210.210000 -8.640000
205.290000 212.000000 -8.640000
203.580000 213.520000 -8.640000
201.730000 214.710000 -8.640000
199.670000 215.720000 -8.640000
197.470000 216.610000 -8.640000
195.240000 217.400000 -8.640000
191.480000 214.960000 0.000000
189.240000 215.330000 0.000000
187.020000 215.360000 0.000000
187.020000 215.360000 0.000000
184.720000 215.320000 0.000000
182.380000 215.260000 0.000000
180.060000 215.160000 0.000000
177.790000 215.040000 0.000000
175.630000 214.880000 0.000000
173.600000 214.390000 0.000000
171.670000 213.180000 0.000000
169.800000 211.640000 0.000000
167.970000 210.160000 0.000000
166.090000 208.830000 0.000000
164.140000 207.460000 0.000000
162.240000 206.040000 0.000000
160.510000 204.540000 0.000000
159.040000 202.920000 0.000000
157.910000 201.160000 0.000000
156.900000 199.120000 0.000000
156.070000 196.910000 0.000000
155.590000 194.670000 0.000000
155.440000 192.420000 0.000000
155.330000 190.090000 0.000000
155.250000 187.780000 0.000000
155.220000 185.580000 0.000000
155.650000 183.580000 0.000000
156.970000 181.700000 0.000000
158.590000 179.850000 0.000000
159.930000 177.940000 0.000000
161.020000 175.930000 0.000000
162.040000 173.870000 0.000000
163.050000 171.810000 0.000000
164.110000 169.800000 0.000000
165.270000 167.890000 0.000000
166.580000 166.050000 0.000000
168.050000 164.000000 0.000000
169.650000 162.090000 0.000000
171.380000 160.690000 0.000000
173.210000 160.170000 0.000000
175.270000 159.960000 0.000000
177.520000 159.780000 0.000000
179.900000 159.640000 0.000000
182.330000 159.520000 0.000000
184.730000 159.440000 0.000000
187.030000 159.400000 0.000000
189.160000 159.380000 0.000000
191.120000 160.010000 0.000000
192.980000 161.450000 0.000000
194.790000 163.150000 0.000000
196.580000 164.610000 0.000000
198.340000 166.040000 0.000000
200.080000 167.500000 0.000000
201.780000 169.010000 0.000000
203.450000 170.540000 0.000000
205.090000 172.100000 0.000000
206.870000 173.660000 0.000000
208.700000 175.250000 0.000000
210.190000 176.930000 0.000000
211.050000 178.780000 0.000000
211.640000 180.800000 0.000000
212.120000 182.990000 0.000000
212.450000 185.320000 0.000000
212.570000 187.800000 0.000000
212.570000 187.800000 0.000000
212.240000 190.180000 0.000000
211.750000 192.490000 0.000000
211.110000 194.720000 0.000000
210.350000 196.870000 0.000000
209.500000 198.930000 0.000000
208.580000 200.910000 0.000000
207.600000 202.820000 0.000000
206.400000 204.730000 0.000000
204.960000 206.620000 0.000000
203.340000 208.380000 0.000000
201.610000 209.930000 0.000000
199.840000 211.190000 0.000000
197.970000 212.270000 0.000000
195.910000 213.330000 0.000000
193.720000 214.260000 0.000000
3 0 80 2
3 0 2 3
3 0 3 4
3 0 4 5
3 0 5 6
3 0 6 7
3 0 7 8
3 0 8 9
3 0 9 10
3 0 10 11
3 0 11 12
3 0 12 13
3 0 13 14
3 0 14 15
3 0 15 16
3 0 16 17
3 0 17 18
3 0 18 19
3 0 19 20
3 0 20 21
3 0 21 22
3 0 22 23
3 0 23 24
3 0 24 25
3 0 25 26
3 0 26 27
3 0 27 28
3 0 28 29
3 0 29 30
3 0 30 31
3 0 31 32
3 0 32 33
3 0 33 34
3 0 34 35
3 0 35 36
3 0 36 37
3 0 37 38
3 0 38 39
3 0 39 40
3 0 40 41
3 0 41 42
3 0 42 43
3 0 43 45
3 0 45 46
3 0 46 47
3 0 47 48
3 0 48 49
3 0 49 50
3 0 50 51
3 0 51 52
3 0 52 53
3 0 53 54
3 0 54 55
3 0 55 56
3 0 56 57
3 0 57 58
3 0 58 59
3 0 59 60
3 0 60 61
3 0 61 62
3 0 62 63
3 0 63 64
3 0 64 65
3 0 65 66
3 0 66 67
3 0 67 68
3 0 68 69
3 0 69 70
3 0 70 71
3 0 71 72
3 0 72 73
3 0 73 74
3 0 74 75
3 0 75 76
3 0 76 77
3 0 77 78
3 0 78 79
3 0 79 80
3 80 81 2
3 2 81 83
3 2 83 3
3 3 83 84
3 3 84 4
3 4 84 85
3 4 85 5
3 5 85 86
3 5 86 6
3 6 86 87
3 6 87 7
3 7 87 88
3 7 88 8
3 8 88 89
3 8 89 9
3 9 89 90
3 9 90 10
3 10 90 91
3 10 91 11
3 11 91 92
3 11 92 12
3 12 92 93
3 12 93 13
3 13 93 94
3 13 94 14
3 14 94 95
3 14 95 15
3 15 95 96
3 15 96 16
3 16 96 97
3 16 97 17
3 17 97 98
3 17 98 18
3 18 98 99
3 18 99 19
3 19 99 100
3 19 100 20
3 20 100 101
3 20 101 21
3 21 101 102
3 21 102 22
3 22 102 103
3 22 103 23
3 23 103 104
3 23 104 24
3 24 104 105
3 24 105 25
3 25 105 106
3 25 106 26
3 26 106 107
3 26 107 27
3 27 107 108
3 27 108 28
3 28 108 109
3 28 109 29
3 29 109 110
3 29 110 30
3 30 110 111
3 30 111 31
3 31 111 112
3 31 112 32
3 32 112 113
3 32 113 33
3 33 113 114
3 33 114 34
3 34 114 115
3 34 115 35
3 35 115 116
3 35 116 36
3 36 116 117
3 36 117 37
3 37 117 118
3 37 118 38
3 38 118 39
3 39 118 120
3 39 120 40
3 40 120 121
3 40 121 41
3 41 121 122
3 41 122 42
3 42 122 123
3 42 123 43
3 43 123 124
3 43 124 125
3 43 125 45
3 45 125 126
3 45 126 46
3 46 126 127
3 46 127 47
3 47 127 128
3 47 128 48
3 48 128 129
3 48 129 49
3 49 129 130
3 49 130 50
3 50 130 131
3 50 131 51
3 51 131 132
3 51 132 52
3 52 132 133
3 52 133 53
3 53 133 134
3 53 134 54
3 54 134 135
3 54 135 55
3 55 135 136
3 55 136 56
3 56 136 137
3 56 137 57
3 57 137 138
3 57 138 58
3 58 138 139
3 58 139 59
3 59 139 140
3 59 140 60
3 60 140 141
3 60 141 61
3 61 141 142
3 61 142 62
3 62 142 143
3 62 143 63
3 63 143 144
3 63 144 64
3 64 144 145
3 64 145 65
3 65 145 146
3 65 146 66
3 66 146 147
3 66 147 67
3 67 147 148
3 67 148 68
3 68 148 149
3 68 149 69
3 69 149 150
3 69 150 70
3 70 150 151
3 70 151 71
3 71 151 152
3 71 152 72
3 72 152 153
3 72 153 73
3 73 153 154
3 73 154 74
3 74 154 155
3 74 155 75
3 75 155 156
3 75 156 76
3 76 156 157
3 76 157 77
3 77 157 158
3 77 158 78
3 78 158 159
3 78 159 79
3 79 159 160
3 79 160 80
3 80 160 81
3 81 161 162
3 81 162 83
3 83 162 164
3 83 164 84
3 84 164 165
3 84 165 85
3 85 165 166
3 85 166 86
3 86 166 167
3 86 167 87
3 87 167 168
3 87 168 88
3 88 168 169
3 88 169 89
3 89 169 170
3 89 170 90
3 90 170 171
3 90 171 91
3 91 171 172
3 91 172 92
3 92 172 173
3 92 173 93
3 93 173 174
3 93 174 94
3 94 174 175
3 94 175 95
3 95 175 176
3 95 176 96
3 96 176 177
3 96 177 97
3 97 177 178
3 97 178 98
3 98 178 179
3 98 179 99
3 99 179 180
3 99 180 100
3 100 180 181
3 100 181 101
3 101 181 182
3 101 182 102
3 102 182 183
3 102 183 103
3 103 183 184
3 103 184 104
3 104 184 185
3 104 185 105
3 105 185 186
3 105 186 106
3 106 186 187
3 106 187 107
3 107 187 188
3 107 188 108
3 108 188 189
3 108 189 109
3 109 189 190
3 109 190 110
3 110 190 191
3 110 191 111
3 111 191 192
3 111 192 112
3 112 192 193
3 112 193 113
3 113 193 194
3 113 194 114
3 114 194 195
3 114 195 115
3 115 195 196
3 115 196 116
3 116 196 117
3 117 196 198
3 117 198 118
3 118 198 199
3 118 199 200
3 118 200 120
3 120 200 201
3 120 201 121
3 121 201 202
3 121 202 122
3 122 202 203
3 122 203 123
3 123 203 204
3 123 204 124
3 124 204 205
3 124 205 125
3 125 205 206
3 125 206 126
3 126 206 207
3 126 207 127
3 127 207 208
3 127 208 128
3 128 208 209
3 128 209 129
3 129 209 210
3 129 210 130
3 130 210 211
3 130 211 131
3 131 211 212
3 131 212 132
3 132 212 213
3 132 213 133
3 133 213 214
3 133 214 134
3 134 214 215
3 134 215 135
3 135 215 216
3 135 216 136
3 136 216 217
3 136 217 137
3 137 217 218
3 137 218 138
3 138 218 219
3 138 219 139
3 139 219 220
3 139 220 140
3 140 220 221
3 140 221 141
3 141 221 222
3 141 222 142
3 142 222 223
3 142 223 143
3 143 223 224
3 143 224 144
3 144 224 225
3 144 225 145
3 145 225 226
3 145 226 146
3 146 226 227
3 146 227 147
3 147 227 228
3 147 228 148
3 148 228 229
3 148 229 149
3 149 229 230
3 149 230 150
3 150 230 231
3 150 231 151
3 151 231 232
3 151 232 152
3 152 232 233
3 152 233 153
3 153 233 234
3 153 234 154
3 154 234 235
3 154 235 155
3 155 235 236
3 155 236 156
3 156 236 237
3 156 237 157
3 157 237 238
3 157 238 158
3 158 238 239
3 158 239 159
3 159 239 240
3 159 240 160
3 160 240 161
3 160 161 81
3 161 241 242
3 161 242 162
3 162 242 243
3 162 243 164
3 164 243 245
3 164 245 165
3 165 245 246
3 165 246 166
3 166 246 247
3 166 247 167
3 167 247 248
3 167 248 168
3 168 248 249
3 168 249 169
3 169 249 250
3 169 250 170
3 170 250 251
3 170 251 171
3 171 251 252
3 171 252 172
3 172 252 253
3 172 253 173
3 173 253 254
3 173 254 174
3 174 254 255
3 174 255 175
3 175 255 256
3 175 256 176
3 176 256 257
3 176 257 177
3 177 257 258
3 177 258 178
3 178 258 259
3 178 259 179
3 179 259 260
3 179 260 180
3 180 260 261
3 180 261 181
3 181 261 262
3 181 262 182
3 182 262 263
3 182 263 183
3 183 263 264
3 183 264 184
3 184 264 265
3 184 265 185
3 185 265 266
3 185 266 186
3 186 266 267
3 186 267 187
3 187 267 268
3 187 268 188
3 188 268 269
3 188 269 189
3 189 269 270
3 189 270 190
3 190 270 271
3 190 271 191
3 191 271 272
3 191 272 192
3 192 272 273
3 192 273 193
3 193 273 274
3 193 274 194
3 194 274 275
3 194 275 195
3 195 275 276
3 195 276 196
3 196 276 277
3 196 277 278
3 196 278 198
3 198 278 279
3 198 279 199
3 199 279 200
3 200 279 281
3 200 281 201
3 201 281 282
3 201 282 202
3 202 282 283
3 202 283 203
3 203 283 284
3 203 284 204
3 204 284 285
3 204 285 205
3 205 285 286
3 205 286 206
3 206 286 287
3 206 287 207
3 207 287 288
3 207 288 208
3 208 288 289
3 208 289 209
3 209 289 290
3 209 290 210
3 210 290 291
3 210 291 211
3 211 291 292
3 211 292 212
3 212 292 293
3 212 293 213
3 213 293 294
3 213 294 214
3 214 294 295
3 214 295 215
3 215 295 296
3 215 296 216
3 216 296 297
3 216 297 217
3 217 297 298
3 217 298 218
3 218 298 299
3 218 299 219
3 219 299 300
3 219 300 220
3 220 300 301
3 220 301 221
3 221 301 302
3 221 302 222
3 222 302 303
3 222 303 223
3 223 303 304
3 223 304 224
3 224 304 305
3 224 305 225
3 225 305 306
3 225 306 226
3 226 306 307
3 226 307 227
3 227 307 308
3 227 308 228
3 228 308 309
3 228 309 229
3 229 309 310
3 229 310 230
3 230 310 311
3 230 311 231
3 231 311 312
3 231 312 232
3 232 312 313
3 232 313 233
3 233 313 314
3 233 314 234
3 234 314 315
3 234 315 235
3 235 315 316
3 235 316 236
3 236 316 317
3 236 317 237
3 237 317 318
3 237 318 238
3 238 318 319
3 238 319 239
3 239 319 320
3 239 320 240
3 240 320 241
3 240 241 161
3 241 321 322
3 241 322 242
3 242 322 323
3 242 323 243
3 243 323 325
3 243 325 245
3 245 325 326
3 245 326 246
3 246 326 327
3 246 327 247
3 247 327 328
3 247 328 248
3 248 328 329
3 248 329 249
3 249 329 330
3 249 330 250
3 250 330 331
3 250 331 251
3 251 331 332
3 251 332 252
3 252 332 333
3 252 333 253
3 253 333 334
3 253 334 254
3 254 334 335
3 254 335 255
3 255 335 336
3 255 336 256
3 256 336 337
3 256 337 257
3 257 337 338
3 257 338 258
3 258 338 339
3 258 339 259
3 259 339 340
3 259 340 260
3 260 340 341
3 260 341 261
3 261 341 342
3 261 342 262
3 262 342 343
3 262 343 263
3 263 343 344
3 263 344 264
3 264 344 345
3 264 345 265
3 265 345 346
3 265 346 266
3 266 346 347
3 266 347 267
3 267 347 348
3 267 348 268
3 268 348 349
3 268 349 269
3 269 349 350
3 269 350 270
3 270 350 351
3 270 351 271
3 271 351 352
3 271 352 272
3 272 352 353
3 272 353 273
3 273 353 354
3 273 354 274
3 274 354 355
3 274 355 275
3 275 355 356
3 275 356 276
3 276 356 357
3 276 357 277
3 277 357 358
3 277 358 278
3 278 358 359
3 278 359 279
3 279 359 360
3 279 360 281
3 281 360 362
3 281 362 282
3 282 362 363
3 282 363 283
3 283 363 364
3 283 364 284
3 284 364 365
3 284 365 285
3 285 365 366
3 285 366 286
3 286 366 367
3 286 367 287
3 287 367 368
3 287 368 288
3 288 368 369
3 288 369 289
3 289 369 370
3 289 370 290
3 290 370 371
3 290 371 291
3 291 371 372
3 291 372 292
3 292 372 373
3 292 373 293
3 293 373 374
3 293 374 294
3 294 374 375
3 294 375 295
3 295 375 376
3 295 376 296
3 296 376 377
3 296 377 297
3 297 377 378
3 297 378 298
3 298 378 379
3 298 379 299
3 299 379 380
3 299 380 300
3 300 380 381
3 300 381 301
3 301 381 382
3 301 382 302
3 302 382 383
3 302 383 303
3 303 383 384
3 303 384 304
3 304 384 385
3 304 385 305
3 305 385 386
3 305 386 306
3 306 386 387
3 306 387 307
3 307 387 388
3 307 388 308
3 308 388 389
3 308 389 309
3 309 389 390
3 309 390 310
3 310 390 391
3 310 391 311
3 311 391 392
3 311 392 312
3 312 392 393
3 312 393 313
3 313 393 394
3 313 394 314
3 314 394 395
3 314 395 315
3 315 395 396
3 315 396 316
3 316 396 397
3 316 397 317
3 317 397 398
3 317 398 318
3 318 398 399
3 318 399 319
3 319 399 400
3 319 400 320
3 320 400 321
3 320 321 241
3 321 401 402
3 321 402 322
3 322 402 403
3 322 403 323
3 323 403 405
3 323 405 325
3 325 405 326
3 326 405 407
3 326 407 327
3 327 407 408
3 327 408 328
3 328 408 409
3 328 409 329
3 329 409 410
3 329 410 330
3 330 410 411
3 330 411 331
3 331 411 412
3 331 412 332
3 332 412 413
3 332 413 333
3 333 413 414
3 333 414 334
3 334 414 415
3 334 415 335
3 335 415 416
3 335 416 336
3 336 416 417
3 336 417 337
3 337 417 418
3 337 418 338
3 338 418 419
3 338 419 339
3 339 419 420
3 339 420 340
3 340 420 421
3 340 421 341
3 341 421 422
3 341 422 342
3 342 422 423
3 342 423 343
3 343 423 424
3 343 424 344
3 344 424 425
3 344 425 345
3 345 425 426
3 345 426 346
3 346 426 427
3 346 427 347
3 347 427 428
3 347 428 348
3 348 428 429
3 348 429 349
3 349 429 430
3 349 430 350
3 350 430 431
3 350 431 351
3 351 431 432
3 351 432 352
3 352 432 433
3 352 433 353
3 353 433 434
3 353 434 354
3 354 434 435
3 354 435 355
3 355 435 436
3 355 436 356
3 356 436 437
3 356 437 357
3 357 437 438
3 357 438 358
3 358 438 439
3 358 439 359
3 359 439 440
3 359 440 360
3 360 440 441
3 360 441 442
3 360 442 362
3 362 442 443
3 362 443 363
3 363 443 444
3 363 444 364
3 364 444 445
3 364 445 365
3 365 445 446
3 365 446 366
3 366 446 447
3 366 447 367
3 367 447 448
3 367 448 368
3 368 448 449
3 368 449 369
3 369 449 450
3 369 450 370
3 370 450 451
3 370 451 371
3 371 451 452
3 371 452 372
3 372 452 453
3 372 453 373
3 373 453 454
3 373 454 374
3 374 454 455
3 374 455 375
3 375 455 456
3 375 456 376
3 376 456 457
3 376 457 377
3 377 457 458
3 377 458 378
3 378 458 459
3 378 459 379
3 379 459 460
3 379 460 380
3 380 460 461
3 380 461 381
3 381 461 462
3 381 462 382
3 382 462 463
3 382 463 383
3 383 463 464
3 383 464 384
3 384 464 465
3 384 465 385
3 385 465 466
3 385 466 386
3 386 466 467
3 386 467 387
3 387 467 468
3 387 468 388
3 388 468 469
3 388 469 389
3 389 469 470
3 389 470 390
3 390 470 471
3 390 471 391
3 391 471 472
3 391 472 392
3 392 472 473
3 392 473 393
3 393 473 474
3 393 474 394
3 394 474 475
3 394 475 395
3 395 475 476
3 395 476 396
3 396 476 477
3 396 477 397
3 397 477 478
3 397 478 398
3 398 478 479
3 398 479 399
3 399 479 480
3 399 480 400
3 400 480 401
3 400 401 321
3 401 481 482
3 401 482 402
3 402 482 483
3 402 483 403
3 403 483 485
3 403 485 405
3 405 485 486
3 405 486 407
3 407 486 488
3 407 488 408
3 408 488 489
3 408 489 409
3 409 489 490
3 409 490 410
3 410 490 491
3 410 491 411
3 411 491 492
3 411 492 412
3 412 492 493
3 412 493 413
3 413 493 494
3 413 494 414
3 414 494 495
3 414 495 415
3 415 495 496
3 415 496 416
3 416 496 497
3 416 497 417
3 417 497 498
3 417 498 418
3 418 498 499
3 418 499 419
3 419 499 500
3 419 500 420
3 420 500 501
3 420 501 421
3 421 501 502
3 421 502 422
3 422 502 503
3 422 503 423
3 423 503 504
3 423 504 424
3 424 504 505
3 424 505 425
3 425 505 506
3 425 506 426
3 426 506 507
3 426 507 427
3 427 507 508
3 427 508 428
3 428 508 509
3 428 509 429
3 429 509 510
3 429 510 430
3 430 510 511
3 430 511 431
3 431 511 512
3 431 512 432
3 432 512 513
3 432 513 433
3 433 513 514
3 433 514 434
3 434 514 515
3 434 515 435
3 435 515 516
3 435 516 436
3 436 516 517
3 436 517 437
3 437 517 518
3 437 518 438
3 438 518 519
3 438 519 439
3 439 519 520
3 439 520 440
3 440 520 521
3 440 521 441
3 441 521 522
3 441 522 442
3 442 522 523
3 442 523 443
3 443 523 524
3 443 524 444
3 444 524 525
3 444 525 445
3 445 525 526
3 445 526 446
3 446 526 527
3 446 527 447
3 447 527 528
3 447 528 448
3 448 528 529
3 448 529 449
3 449 529 530
3 449 530 450
3 450 530 531
3 450 531 451
3 451 531 532
3 451 532 452
3 452 532 533
3 452 533 453
3 453 533 534
3 453 534 454
3 454 534 535
3 454 535 455
3 455 535 536
3 455 536 456
3 456 536 537
3 456 537 457
3 457 537 538
3 457 538 458
3 458 538 539
3 458 539 459
3 459 539 540
3 459 540 460
3 460 540 541
3 460 541 461
3 461 541 542
3 461 542 462
3 462 542 543
3 462 543 463
3 463 543 544
3 463 544 464
3 464 544 545
3 464 545 465
3 465 545 546
3 465 546 466
3 466 546 547
3 466 547 467
3 467 547 548
3 467 548 468
3 468 548 549
3 468 549 469
3 469 549 550
3 469 550 470
3 470 550 551
3 470 551 471
3 471 551 552
3 471 552 472
3 472 552 553
3 472 553 473
3 473 553 554
3 473 554 474
3 474 554 555
3 474 555 475
3 475 555 556
3 475 556 476
3 476 556 557
3 476 557 477
3 477 557 558
3 477 558 478
3 478 558 559
3 478 559 479
3 479 559 560
3 479 560 480
3 480 560 481
3 480 481 401
3 481 561 562
3 481 562 482
3 482 562 563
3 482 563 483
3 483 563 565
3 483 565 485
3 485 565 486
3 486 565 567
3 486 567 568
3 486 568 488
3 488 568 569
3 488 569 489
3 489 569 570
3 489 570 490
3 490 570 571
3 490 571 491
3 491 571 572
3 491 572 492
3 492 572 573
3 492 573 493
3 493 573 574
3 493 574 494
3 494 574 575
3 494 575 495
3 495 575 576
3 495 576 496
3 496 576 577
3 496 577 497
3 497 577 578
3 497 578 498
3 498 578 579
3 498 579 499
3 499 579 580
3 499 580 500
3 500 580 581
3 500 581 501
3 501 581 582
3 501 582 502
3 502 582 583
3 502 583 503
3 503 583 584
3 503 584 504
3 504 584 585
3 504 585 505
3 505 585 586
3 505 586 506
3 506 586 587
3 506 587 507
3 507 587 588
3 507 588 508
3 508 588 589
3 508 589 509
3 509 589 590
3 509 590 510
3 510 590 591
3 510 591 511
3 511 591 592
3 511 592 512
3 512 592 593
3 512 593 513
3 513 593 594
3 513 594 514
3 514 594 595
3 514 595 515
3 515 595 596
3 515 596 516
3 516 596 597
3 516 597 517
3 517 597 598
3 517 598 518
3 518 598 599
3 518 599 519
3 519 599 600
3 519 600 520
3 520 600 601
3 520 601 521
3 521 601 602
3 521 602 522
3 522 602 603
3 522 603 523
3 523 603 604
3 523 604 524
3 524 604 605
3 524 605 525
3 525 605 606
3 525 606 526
3 526 606 607
3 526 607 527
3 527 607 608
3 527 608 528
3 528 608 609
3 528 609 529
3 529 609 610
3 529 610 530
3 530 610 611
3 530 611 531
3 531 611 612
3 531 612 532
3 532 612 613
3 532 613 533
3 533 613 614
3 533 614 534
3 534 614 615
3 534 615 535
3 535 615 616
3 535 616 536
3 536 616 617
3 536 617 537
3 537 617 618
3 537 618 538
3 538 618 619
3 538 619 539
3 539 619 620
3 539 620 540
3 540 620 621
3 540 621 541
3 541 621 622
3 541 622 542
3 542 622 623
3 542 623 543
3 543 623 624
3 543 624 544
3 544 624 625
3 544 625 545
3 545 625 626
3 545 626 546
3 546 626 627
3 546 627 547
3 547 627 628
3 547 628 548
3 548 628 629
3 548 629 549
3 549 629 630
3 549 630 550
3 550 630 631
3 550 631 551
3 551 631 632
3 551 632 552
3 552 632 633
3 552 633 553
3 553 633 634
3 553 634 554
3 554 634 635
3 554 635 555
3 555 635 636
3 555 636 556
3 556 636 637
3 556 637 557
3 557 637 638
3 557 638 558
3 558 638 639
3 558 639 559
3 559 639 640
3 559 640 560
3 560 640 561
3 560 561 481
3 561 641 642
3 561 642 562
3 562 642 643
3 562 643 563
3 563 643 645
3 563 645 565
3 565 645 646
3 565 646 647
3 565 647 567
3 567 647 648
3 567 648 568
3 568 648 649
3 568 649 569
3 569 649 650
3 569 650 570
3 570 650 651
3 570 651 571
3 571 651 652
3 571 652 572
3 572 652 653
3 572 653 573
3 573 653 654
3 573 654 574
3 574 654 655
3 574 655 575
3 575 655 656
3 575 656 576
3 576 656 657
3 576 657 577
3 577 657 658
3 577 658 578
3 578 658 659
3 578 659 579
3 579 659 660
3 579 660 580
3 580 660 661
3 580 661 581
3 581 661 662
3 581 662 582
3 582 662 663
3 582 663 583
3 583 663 664
3 583 664 584
3 584 664 665
3 584 665 585
3 585 665 666
3 585 666 586
3 586 666 667
3 586 667 587
3 587 667 668
3 587 668 588
3 588 668 669
3 588 669 589
3 589 669 670
3 589 670 590
3 590 670 671
3 590 671 591
3 591 671 672
3 591 672 592
3 592 672 673
3 592 673 593
3 593 673 674
3 593 674 594
3 594 674 675
3 594 675 595
3 595 675 676
3 595 676 596
3 596 676 677
3 596 677 597
3 597 677 678
3 597 678 598
3 598 678 679
3 598 679 599
3 599 679 680
3 599 680 600
3 600 680 681
3 600 681 601
3 601 681 682
3 601 682 602
3 602 682 683
3 602 683 603
3 603 683 684
3 603 684 604
3 604 684 685
3 604 685 605
3 605 685 686
3 605 686 606
3 606 686 687
3 606 687 607
3 607 687 688
3 607 688 608
3 608 688 689
3 608 689 609
3 609 689 690
3 609 690 610
3 610 690 691
3 610 691 611
3 611 691 692
3 611 692 612
3 612 692 693
3 612 693 613
3 613 693 694
3 613 694 614
3 614 694 695
3 614 695 615
3 615 695 696
3 615 696 616
3 616 696 697
3 616 697 617
3 617 697 698
3 617 698 618
3 618 698 699
3 618 699 619
3 619 699 700
3 619 700 620
3 620 700 701
3 620 701 621
3 621 701 702
3 621 702 622
3 622 702 703
3 622 703 623
3 623 703 704
3 623 704 624
3 624 704 625
3 625 704 706
3 625 706 626
3 626 706 707
3 626 707 627
3 627 707 708
3 627 708 628
3 628 708 709
3 628 709 629
3 629 709 710
3 629 710 630
3 630 710 711
3 630 711 631
3 631 711 712
3 631 712 632
3 632 712 713
3 632 713 633
3 633 713 714
3 633 714 634
3 634 714 715
3 634 715 635
3 635 715 716
3 635 716 636
3 636 716 717
3 636 717 637
3 637 717 718
3 637 718 638
3 638 718 719
3 638 719 639
3 639 719 720
3 639 720 640
3 640 720 641
3 640 641 561
