ply 
format ascii 1.0 
comment this is a surface 
element vertex 801 
property float x 
property float y 
property float z 
element face 1482 
property list uchar int vertex_index 
end_header 
191.787000 193.630250 -77.760000
193.350000 216.750000 -77.760000
191.830000 216.070000 -77.760000
190.240000 215.200000 -77.760000
188.650000 214.250000 -77.760000
187.120000 213.300000 -77.760000
185.690000 212.440000 -77.760000
184.230000 211.570000 -77.760000
182.760000 210.660000 -77.760000
181.290000 209.700000 -77.760000
179.870000 208.700000 -77.760000
178.540000 207.650000 -77.760000
177.330000 206.540000 -77.760000
176.280000 205.370000 -77.760000
175.400000 204.130000 -77.760000
174.540000 202.740000 -77.760000
173.710000 201.230000 -77.760000
172.990000 199.620000 -77.760000
172.470000 197.980000 -77.760000
172.210000 196.350000 -77.760000
172.210000 194.730000 -77.760000
172.260000 193.040000 -77.760000
172.340000 191.320000 -77.760000
172.460000 189.580000 -77.760000
172.610000 187.870000 -77.760000
172.780000 186.220000 -77.760000
172.990000 184.670000 -77.760000
173.280000 183.220000 -77.760000
174.010000 181.780000 -77.760000
175.120000 180.390000 -77.760000
176.440000 179.130000 -77.760000
177.800000 178.050000 -77.760000
179.110000 177.220000 -77.760000
180.540000 176.480000 -77.760000
182.080000 175.820000 -77.760000
183.690000 175.240000 -77.760000
185.340000 174.730000 -77.760000
186.980000 174.290000 -77.760000
188.590000 173.910000 -77.760000
190.220000 173.530000 -77.760000
191.870000 173.170000 -77.760000
193.530000 172.860000 -77.760000
195.180000 172.630000 -77.760000
196.810000 172.510000 -77.760000
198.430000 172.540000 -77.760000
200.120000 172.820000 -77.760000
201.820000 173.300000 -77.760000
203.480000 173.940000 -77.760000
205.010000 174.680000 -77.760000
206.370000 175.480000 -77.760000
207.570000 176.370000 -77.760000
208.810000 177.610000 -77.760000
209.920000 179.100000 -77.760000
210.670000 180.670000 -77.760000
210.860000 182.190000 -77.760000
210.620000 183.730000 -77.760000
210.150000 185.340000 -77.760000
209.570000 186.970000 -77.760000
209.000000 188.610000 -77.760000
208.540000 190.220000 -77.760000
208.120000 191.830000 -77.760000
207.710000 193.440000 -77.760000
207.300000 195.050000 -77.760000
206.900000 196.660000 -77.760000
206.510000 198.270000 -77.760000
206.120000 199.890000 -77.760000
205.740000 201.510000 -77.760000
205.370000 203.130000 -77.760000
205.000000 204.750000 -77.760000
205.000000 204.750000 -77.760000
204.250000 207.180000 -77.760000
203.430000 209.360000 -77.760000
202.530000 211.290000 -77.760000
201.570000 212.960000 -77.760000
200.550000 214.360000 -77.760000
199.480000 215.480000 -77.760000
198.370000 216.330000 -77.760000
197.210000 216.900000 -77.760000
196.010000 217.180000 -77.760000
194.760000 217.140000 -77.760000
193.350000 216.750000 -77.760000
191.500000 216.370000 -69.120000
188.660000 215.630000 -69.120000
185.880000 214.550000 -69.120000
183.230000 213.430000 -69.120000
180.630000 212.030000 -69.120000
178.150000 210.400000 -69.120000
175.880000 208.610000 -69.120000
173.840000 206.630000 -69.120000
171.930000 204.350000 -69.120000
170.260000 201.910000 -69.120000
168.910000 199.430000 -69.120000
167.600000 196.850000 -69.120000
166.300000 194.190000 -69.120000
165.060000 191.450000 -69.120000
163.950000 188.660000 -69.120000
162.990000 185.830000 -69.120000
162.260000 182.980000 -69.120000
161.790000 180.130000 -69.120000
161.630000 177.300000 -69.120000
161.710000 174.300000 -69.120000
161.930000 171.070000 -69.120000
162.270000 167.820000 -69.120000
162.730000 164.720000 -69.120000
163.300000 161.950000 -69.120000
163.970000 159.700000 -69.120000
165.120000 158.020000 -69.120000
167.600000 156.610000 -69.120000
170.740000 155.410000 -69.120000
173.830000 154.430000 -69.120000
176.630000 153.710000 -69.120000
179.490000 153.090000 -69.120000
182.270000 152.280000 -69.120000
185.000000 151.230000 -69.120000
187.710000 150.110000 -69.120000
190.440000 149.130000 -69.120000
193.230000 148.440000 -69.120000
196.080000 147.850000 -69.120000
198.970000 147.340000 -69.120000
201.860000 147.030000 -69.120000
204.750000 147.040000 -69.120000
207.650000 147.420000 -69.120000
210.540000 147.840000 -69.120000
213.410000 147.900000 -69.120000
216.270000 147.250000 -69.120000
219.120000 146.350000 -69.120000
221.930000 145.800000 -69.120000
225.020000 146.140000 -69.120000
228.260000 147.270000 -69.120000
230.220000 148.740000 -69.120000
230.810000 150.590000 -69.120000
231.290000 153.180000 -69.120000
231.670000 156.260000 -69.120000
231.940000 159.580000 -69.120000
232.110000 162.900000 -69.120000
232.160000 165.960000 -69.120000
231.840000 168.800000 -69.120000
231.040000 171.630000 -69.120000
230.050000 174.420000 -69.120000
229.110000 177.160000 -69.120000
228.050000 179.890000 -69.120000
226.870000 182.570000 -69.120000
225.560000 185.170000 -69.120000
224.110000 187.630000 -69.120000
222.380000 189.940000 -69.120000
220.470000 192.160000 -69.120000
218.540000 194.380000 -69.120000
216.770000 196.690000 -69.120000
215.190000 199.100000 -69.120000
213.660000 201.560000 -69.120000
212.190000 204.070000 -69.120000
210.790000 206.620000 -69.120000
209.450000 209.220000 -69.120000
208.200000 211.870000 -69.120000
208.200000 211.870000 -69.120000
205.420000 213.560000 -69.120000
202.640000 214.810000 -69.120000
202.640000 214.810000 -69.120000
199.860000 215.690000 -69.120000
197.080000 216.220000 -69.120000
194.300000 216.460000 -69.120000
191.550000 219.460000 -60.480000
188.580000 219.370000 -60.480000
185.710000 219.250000 -60.480000
182.850000 218.690000 -60.480000
180.000000 217.510000 -60.480000
177.290000 215.940000 -60.480000
174.890000 214.260000 -60.480000
172.740000 212.470000 -60.480000
170.630000 210.300000 -60.480000
168.680000 207.840000 -60.480000
167.010000 205.220000 -60.480000
165.760000 202.530000 -60.480000
164.930000 199.820000 -60.480000
164.240000 196.920000 -60.480000
163.780000 193.920000 -60.480000
163.680000 190.960000 -60.480000
163.680000 187.980000 -60.480000
163.680000 185.000000 -60.480000
163.680000 182.070000 -60.480000
164.040000 179.160000 -60.480000
164.920000 176.270000 -60.480000
166.060000 173.470000 -60.480000
167.230000 170.790000 -60.480000
168.650000 168.160000 -60.480000
170.330000 165.620000 -60.480000
172.190000 163.260000 -60.480000
174.160000 161.200000 -60.480000
176.400000 159.340000 -60.480000
178.870000 157.650000 -60.480000
181.470000 156.080000 -60.480000
184.080000 154.620000 -60.480000
186.690000 153.190000 -60.480000
189.370000 151.860000 -60.480000
192.120000 150.800000 -60.480000
194.950000 150.020000 -60.480000
197.870000 149.310000 -60.480000
200.810000 148.830000 -60.480000
203.740000 148.750000 -60.480000
206.660000 149.280000 -60.480000
209.580000 150.030000 -60.480000
212.490000 150.430000 -60.480000
215.450000 150.130000 -60.480000
218.440000 149.450000 -60.480000
221.370000 148.790000 -60.480000
224.150000 148.560000 -60.480000
227.020000 149.290000 -60.480000
229.870000 150.870000 -60.480000
232.360000 152.910000 -60.480000
234.130000 155.010000 -60.480000
235.490000 157.440000 -60.480000
236.650000 160.360000 -60.480000
237.360000 163.410000 -60.480000
237.380000 166.290000 -60.480000
236.730000 169.170000 -60.480000
235.690000 172.040000 -60.480000
234.590000 174.830000 -60.480000
233.440000 177.510000 -60.480000
232.070000 180.120000 -60.480000
230.570000 182.690000 -60.480000
229.000000 185.230000 -60.480000
227.440000 187.790000 -60.480000
225.970000 190.370000 -60.480000
224.670000 193.030000 -60.480000
223.550000 195.790000 -60.480000
222.530000 198.620000 -60.480000
221.530000 201.460000 -60.480000
220.460000 204.230000 -60.480000
219.240000 206.860000 -60.480000
217.770000 209.320000 -60.480000
215.990000 211.660000 -60.480000
213.970000 213.880000 -60.480000
211.790000 216.000000 -60.480000
211.790000 216.000000 -60.480000
209.020000 217.320000 -60.480000
206.220000 218.480000 -60.480000
203.380000 219.300000 -60.480000
203.380000 219.300000 -60.480000
200.510000 219.590000 -60.480000
197.570000 219.580000 -60.480000
194.570000 219.530000 -60.480000
192.480000 223.390000 -51.840000
189.060000 223.260000 -51.840000
185.600000 222.960000 -51.840000
182.280000 222.550000 -51.840000
179.040000 221.710000 -51.840000
175.830000 220.170000 -51.840000
172.840000 218.220000 -51.840000
170.260000 216.110000 -51.840000
168.130000 213.670000 -51.840000
166.280000 210.710000 -51.840000
164.560000 207.640000 -51.840000
162.780000 204.680000 -51.840000
160.970000 201.680000 -51.840000
159.630000 198.580000 -51.840000
159.010000 195.350000 -51.840000
158.540000 191.980000 -51.840000
158.200000 188.530000 -51.840000
158.030000 185.090000 -51.840000
158.120000 181.700000 -51.840000
158.590000 178.310000 -51.840000
159.250000 174.950000 -51.840000
159.970000 171.600000 -51.840000
160.930000 168.290000 -51.840000
162.110000 165.150000 -51.840000
163.660000 162.000000 -51.840000
165.580000 158.950000 -51.840000
167.810000 156.410000 -51.840000
170.400000 154.690000 -51.840000
173.660000 153.490000 -51.840000
176.940000 152.210000 -51.840000
179.940000 150.600000 -51.840000
182.860000 148.780000 -51.840000
185.590000 146.780000 -51.840000
188.010000 144.210000 -51.840000
190.410000 141.730000 -51.840000
193.190000 140.210000 -51.840000
196.350000 138.950000 -51.840000
199.730000 137.920000 -51.840000
203.180000 137.260000 -51.840000
206.560000 137.120000 -51.840000
209.940000 137.300000 -51.840000
213.340000 137.660000 -51.840000
216.750000 138.130000 -51.840000
220.140000 138.640000 -51.840000
223.590000 139.150000 -51.840000
227.290000 139.710000 -51.840000
230.960000 140.390000 -51.840000
234.290000 141.260000 -51.840000
236.940000 142.380000 -51.840000
239.050000 144.430000 -51.840000
240.820000 147.810000 -51.840000
241.380000 151.240000 -51.840000
241.080000 154.610000 -51.840000
240.490000 158.070000 -51.840000
239.780000 161.370000 -51.840000
238.850000 164.520000 -51.840000
237.580000 167.620000 -51.840000
236.010000 170.640000 -51.840000
234.170000 173.590000 -51.840000
232.070000 176.460000 -51.840000
229.750000 179.220000 -51.840000
229.750000 179.220000 -51.840000
228.340000 182.340000 -51.840000
226.870000 185.410000 -51.840000
225.330000 188.450000 -51.840000
223.690000 191.440000 -51.840000
221.920000 194.360000 -51.840000
220.210000 197.310000 -51.840000
218.750000 200.390000 -51.840000
217.520000 203.640000 -51.840000
216.310000 206.870000 -51.840000
214.890000 209.900000 -51.840000
213.070000 212.730000 -51.840000
210.850000 215.560000 -51.840000
208.340000 218.020000 -51.840000
205.650000 219.780000 -51.840000
202.650000 221.140000 -51.840000
202.650000 221.140000 -51.840000
199.330000 222.320000 -51.840000
195.880000 223.140000 -51.840000
193.050000 223.330000 -43.200000
189.240000 223.620000 -43.200000
185.470000 223.750000 -43.200000
181.790000 223.340000 -43.200000
178.150000 222.120000 -43.200000
174.640000 220.710000 -43.200000
171.120000 219.100000 -43.200000
167.810000 217.140000 -43.200000
165.110000 214.830000 -43.200000
162.850000 211.880000 -43.200000
160.890000 208.500000 -43.200000
159.220000 205.080000 -43.200000
157.560000 201.620000 -43.200000
156.240000 198.030000 -43.200000
155.830000 194.390000 -43.200000
155.740000 190.670000 -43.200000
155.690000 186.880000 -43.200000
155.640000 183.070000 -43.200000
155.550000 179.290000 -43.200000
155.150000 175.550000 -43.200000
154.510000 171.810000 -43.200000
154.380000 168.070000 -43.200000
154.880000 164.200000 -43.200000
155.790000 160.470000 -43.200000
157.010000 157.210000 -43.200000
159.360000 154.360000 -43.200000
162.550000 151.850000 -43.200000
162.550000 151.850000 -43.200000
165.610000 149.660000 -43.200000
168.670000 147.460000 -43.200000
171.720000 145.250000 -43.200000
174.760000 143.030000 -43.200000
177.790000 140.780000 -43.200000
180.860000 138.610000 -43.200000
183.960000 136.430000 -43.200000
187.110000 134.340000 -43.200000
190.380000 132.540000 -43.200000
193.800000 130.920000 -43.200000
197.340000 129.520000 -43.200000
200.940000 128.590000 -43.200000
204.640000 127.870000 -43.200000
208.400000 127.280000 -43.200000
212.170000 126.920000 -43.200000
215.900000 126.890000 -43.200000
219.690000 127.300000 -43.200000
223.490000 128.070000 -43.200000
227.220000 129.120000 -43.200000
230.780000 130.340000 -43.200000
234.120000 131.670000 -43.200000
237.890000 133.600000 -43.200000
241.390000 136.130000 -43.200000
243.400000 139.000000 -43.200000
243.530000 142.180000 -43.200000
243.530000 146.040000 -43.200000
243.530000 150.060000 -43.200000
243.420000 153.730000 -43.200000
242.130000 157.130000 -43.200000
239.990000 160.430000 -43.200000
237.800000 163.730000 -43.200000
236.030000 167.060000 -43.200000
234.260000 170.380000 -43.200000
232.480000 173.700000 -43.200000
230.690000 177.010000 -43.200000
228.860000 180.310000 -43.200000
227.030000 183.600000 -43.200000
225.220000 186.900000 -43.200000
223.470000 190.240000 -43.200000
221.790000 193.610000 -43.200000
220.140000 197.020000 -43.200000
218.750000 200.500000 -43.200000
217.820000 204.220000 -43.200000
217.010000 207.970000 -43.200000
215.700000 211.240000 -43.200000
213.370000 214.250000 -43.200000
210.420000 216.910000 -43.200000
207.360000 219.010000 -43.200000
204.020000 220.860000 -43.200000
204.020000 220.860000 -43.200000
200.430000 222.270000 -43.200000
196.800000 222.920000 -43.200000
191.830000 225.010000 -34.560000
187.860000 224.780000 -34.560000
183.900000 224.280000 -34.560000
179.990000 223.610000 -34.560000
176.090000 222.590000 -34.560000
172.400000 221.290000 -34.560000
168.740000 219.530000 -34.560000
165.240000 217.330000 -34.560000
162.230000 214.800000 -34.560000
159.870000 211.860000 -34.560000
157.890000 208.280000 -34.560000
156.300000 204.590000 -34.560000
154.910000 200.830000 -34.560000
153.930000 196.970000 -34.560000
153.430000 193.060000 -34.560000
153.070000 189.070000 -34.560000
152.950000 185.100000 -34.560000
153.240000 181.120000 -34.560000
153.900000 177.140000 -34.560000
154.770000 173.280000 -34.560000
156.370000 169.600000 -34.560000
158.600000 166.070000 -34.560000
158.520000 162.660000 -34.560000
155.550000 159.420000 -34.560000
153.850000 156.010000 -34.560000
154.360000 152.090000 -34.560000
155.400000 148.120000 -34.560000
156.810000 144.460000 -34.560000
159.050000 140.840000 -34.560000
161.800000 137.850000 -34.560000
164.880000 135.910000 -34.560000
168.700000 134.350000 -34.560000
172.720000 133.640000 -34.560000
176.670000 133.660000 -34.560000
180.670000 133.680000 -34.560000
184.680000 133.340000 -34.560000
188.500000 132.580000 -34.560000
191.910000 130.440000 -34.560000
195.240000 127.930000 -34.560000
198.860000 126.950000 -34.560000
202.790000 126.630000 -34.560000
206.840000 126.390000 -34.560000
210.840000 126.040000 -34.560000
214.840000 125.480000 -34.560000
218.760000 125.100000 -34.560000
222.650000 125.540000 -34.560000
226.540000 127.120000 -34.560000
230.010000 129.250000 -34.560000
232.760000 131.670000 -34.560000
235.100000 134.980000 -34.560000
237.090000 138.640000 -34.560000
238.920000 142.210000 -34.560000
240.710000 145.920000 -34.560000
241.780000 149.720000 -34.560000
241.650000 153.550000 -34.560000
240.740000 157.470000 -34.560000
239.560000 161.350000 -34.560000
238.360000 165.140000 -34.560000
236.890000 168.880000 -34.560000
235.130000 172.390000 -34.560000
232.630000 175.500000 -34.560000
230.280000 178.690000 -34.560000
228.610000 182.340000 -34.560000
227.030000 186.030000 -34.560000
224.740000 189.250000 -34.560000
221.290000 191.970000 -34.560000
220.600000 195.260000 -34.560000
221.430000 199.340000 -34.560000
221.120000 203.030000 -34.560000
218.890000 206.420000 -34.560000
216.340000 209.780000 -34.560000
214.560000 213.370000 -34.560000
212.710000 216.860000 -34.560000
210.260000 219.930000 -34.560000
207.310000 222.700000 -34.560000
207.310000 222.700000 -34.560000
203.600000 224.450000 -34.560000
199.780000 225.190000 -34.560000
199.780000 225.190000 -34.560000
195.830000 225.130000 -34.560000
191.530000 226.770000 -25.920000
187.410000 226.780000 -25.920000
183.250000 226.240000 -25.920000
179.130000 225.350000 -25.920000
175.100000 224.340000 -25.920000
171.030000 222.940000 -25.920000
167.230000 221.130000 -25.920000
164.040000 218.850000 -25.920000
161.310000 215.680000 -25.920000
158.750000 212.180000 -25.920000
156.040000 208.910000 -25.920000
153.160000 205.670000 -25.920000
151.060000 202.210000 -25.920000
149.920000 198.250000 -25.920000
149.420000 194.070000 -25.920000
149.690000 189.910000 -25.920000
150.390000 185.710000 -25.920000
151.370000 181.570000 -25.920000
152.510000 177.590000 -25.920000
154.180000 173.830000 -25.920000
157.080000 170.250000 -25.920000
159.680000 166.780000 -25.920000
160.170000 163.380000 -25.920000
156.980000 160.170000 -25.920000
154.660000 156.760000 -25.920000
154.980000 152.660000 -25.920000
155.680000 148.470000 -25.920000
157.110000 144.400000 -25.920000
159.370000 140.890000 -25.920000
162.680000 138.660000 -25.920000
166.500000 136.690000 -25.920000
170.110000 134.570000 -25.920000
173.700000 132.430000 -25.920000
177.340000 130.380000 -25.920000
181.050000 128.510000 -25.920000
184.850000 126.720000 -25.920000
188.730000 125.130000 -25.920000
192.690000 123.940000 -25.920000
196.750000 122.940000 -25.920000
200.880000 122.160000 -25.920000
205.020000 121.690000 -25.920000
209.180000 121.400000 -25.920000
213.360000 121.180000 -25.920000
217.540000 121.060000 -25.920000
221.740000 121.120000 -25.920000
226.030000 121.600000 -25.920000
230.060000 122.380000 -25.920000
233.670000 123.880000 -25.920000
237.010000 126.740000 -25.920000
239.810000 129.980000 -25.920000
242.450000 133.350000 -25.920000
244.690000 137.130000 -25.920000
245.430000 141.040000 -25.920000
245.240000 145.210000 -25.920000
244.800000 149.500000 -25.920000
244.130000 153.500000 -25.920000
241.910000 157.030000 -25.920000
239.770000 160.650000 -25.920000
238.560000 164.650000 -25.920000
237.450000 168.720000 -25.920000
235.970000 172.560000 -25.920000
234.070000 176.260000 -25.920000
231.900000 179.870000 -25.920000
229.580000 183.390000 -25.920000
227.150000 186.810000 -25.920000
224.980000 190.250000 -25.920000
223.920000 194.290000 -25.920000
223.160000 198.580000 -25.920000
222.290000 202.740000 -25.920000
220.860000 206.400000 -25.920000
217.950000 209.460000 -25.920000
215.390000 212.810000 -25.920000
213.480000 216.690000 -25.920000
211.140000 219.870000 -25.920000
207.860000 222.280000 -25.920000
203.840000 224.100000 -25.920000
203.840000 224.100000 -25.920000
203.840000 224.100000 -25.920000
199.740000 225.430000 -25.920000
195.630000 226.320000 -25.920000
192.510000 226.360000 -17.280000
188.110000 226.520000 -17.280000
183.830000 226.560000 -17.280000
179.580000 226.330000 -17.280000
175.150000 225.320000 -17.280000
170.730000 223.660000 -17.280000
166.480000 221.530000 -17.280000
162.590000 219.080000 -17.280000
159.250000 216.510000 -17.280000
156.570000 213.880000 -17.280000
154.050000 210.560000 -17.280000
151.720000 206.620000 -17.280000
149.760000 202.310000 -17.280000
148.360000 197.910000 -17.280000
147.680000 193.630000 -17.280000
147.350000 189.210000 -17.280000
147.510000 185.000000 -17.280000
149.210000 181.050000 -17.280000
151.690000 177.200000 -17.280000
153.950000 173.300000 -17.280000
156.320000 169.240000 -17.280000
157.780000 165.370000 -17.280000
155.370000 162.150000 -17.280000
152.250000 158.820000 -17.280000
150.550000 154.770000 -17.280000
149.330000 150.400000 -17.280000
149.100000 146.160000 -17.280000
150.060000 141.820000 -17.280000
151.870000 137.540000 -17.280000
154.070000 133.660000 -17.280000
156.410000 130.440000 -17.280000
159.460000 127.470000 -17.280000
163.120000 124.740000 -17.280000
167.110000 122.340000 -17.280000
171.170000 120.360000 -17.280000
175.160000 118.880000 -17.280000
179.400000 117.750000 -17.280000
183.710000 116.740000 -17.280000
187.960000 115.580000 -17.280000
192.180000 114.240000 -17.280000
196.430000 113.080000 -17.280000
200.700000 112.450000 -17.280000
205.080000 112.380000 -17.280000
209.590000 112.340000 -17.280000
214.050000 112.310000 -17.280000
218.300000 112.300000 -17.280000
222.350000 112.650000 -17.280000
226.590000 114.390000 -17.280000
230.680000 117.140000 -17.280000
234.220000 120.460000 -17.280000
236.820000 123.880000 -17.280000
238.410000 127.240000 -17.280000
239.820000 131.190000 -17.280000
241.040000 135.560000 -17.280000
242.010000 140.160000 -17.280000
242.640000 144.750000 -17.280000
242.860000 149.130000 -17.280000
242.410000 153.340000 -17.280000
241.230000 157.540000 -17.280000
239.580000 161.720000 -17.280000
237.720000 165.830000 -17.280000
235.900000 169.850000 -17.280000
233.990000 173.740000 -17.280000
231.790000 177.530000 -17.280000
229.540000 181.310000 -17.280000
227.410000 185.130000 -17.280000
225.290000 188.960000 -17.280000
223.280000 192.840000 -17.280000
221.500000 196.910000 -17.280000
219.910000 201.170000 -17.280000
218.320000 205.390000 -17.280000
216.560000 209.350000 -17.280000
214.450000 212.830000 -17.280000
211.830000 215.920000 -17.280000
208.710000 218.810000 -17.280000
205.140000 221.460000 -17.280000
201.210000 223.860000 -17.280000
201.210000 223.860000 -17.280000
196.980000 225.960000 -17.280000
196.980000 225.960000 -17.280000
190.480000 227.170000 -8.640000
185.870000 227.220000 -8.640000
181.280000 227.220000 -8.640000
176.840000 226.450000 -8.640000
172.490000 224.530000 -8.640000
168.380000 222.190000 -8.640000
164.560000 219.790000 -8.640000
160.910000 216.850000 -8.640000
157.560000 213.570000 -8.640000
154.610000 210.110000 -8.640000
151.870000 206.300000 -8.640000
149.670000 202.210000 -8.640000
148.180000 197.930000 -8.640000
146.960000 193.380000 -8.640000
146.420000 188.830000 -8.640000
147.090000 184.360000 -8.640000
148.770000 179.920000 -8.640000
150.750000 175.740000 -8.640000
153.830000 171.650000 -8.640000
157.360000 167.810000 -8.640000
158.890000 164.780000 -8.640000
155.060000 162.880000 -8.640000
149.620000 161.120000 -8.640000
148.150000 158.010000 -8.640000
147.570000 153.120000 -8.640000
147.450000 148.260000 -8.640000
148.330000 143.720000 -8.640000
149.940000 139.290000 -8.640000
151.760000 135.160000 -8.640000
154.230000 131.240000 -8.640000
157.120000 127.550000 -8.640000
160.110000 124.010000 -8.640000
163.390000 120.590000 -8.640000
167.070000 118.130000 -8.640000
171.420000 116.590000 -8.640000
175.880000 115.240000 -8.640000
180.290000 113.890000 -8.640000
184.750000 112.720000 -8.640000
189.250000 111.800000 -8.640000
193.810000 110.990000 -8.640000
198.390000 110.620000 -8.640000
203.000000 110.520000 -8.640000
207.610000 110.460000 -8.640000
212.190000 110.520000 -8.640000
216.730000 111.410000 -8.640000
221.170000 112.710000 -8.640000
225.490000 114.270000 -8.640000
229.680000 116.260000 -8.640000
233.740000 118.440000 -8.640000
237.800000 120.820000 -8.640000
241.560000 123.520000 -8.640000
244.850000 126.690000 -8.640000
247.770000 130.570000 -8.640000
248.050000 134.890000 -8.640000
247.690000 139.590000 -8.640000
247.070000 144.130000 -8.640000
246.000000 148.630000 -8.640000
244.630000 153.070000 -8.640000
243.130000 157.440000 -8.640000
241.480000 161.700000 -8.640000
239.500000 165.870000 -8.640000
237.370000 169.980000 -8.640000
235.290000 174.120000 -8.640000
233.190000 178.290000 -8.640000
230.840000 182.220000 -8.640000
227.580000 185.530000 -8.640000
224.180000 188.630000 -8.640000
223.130000 192.870000 -8.640000
222.330000 197.570000 -8.640000
220.850000 201.930000 -8.640000
218.870000 206.140000 -8.640000
216.620000 210.120000 -8.640000
213.940000 213.950000 -8.640000
210.890000 217.410000 -8.640000
207.500000 220.340000 -8.640000
203.690000 222.950000 -8.640000
199.500000 225.170000 -8.640000
199.500000 225.170000 -8.640000
199.500000 225.170000 -8.640000
195.010000 226.440000 -8.640000
190.800000 226.710000 0.000000
186.470000 226.580000 0.000000
182.050000 224.960000 0.000000
177.560000 222.820000 0.000000
173.000000 221.300000 0.000000
168.310000 220.280000 0.000000
164.220000 218.370000 0.000000
160.550000 215.230000 0.000000
156.920000 211.990000 0.000000
152.740000 209.120000 0.000000
149.890000 205.840000 0.000000
148.400000 201.620000 0.000000
147.300000 196.780000 0.000000
146.750000 191.840000 0.000000
146.930000 187.080000 0.000000
147.740000 182.330000 0.000000
149.230000 177.900000 0.000000
152.640000 173.430000 0.000000
155.980000 169.530000 0.000000
156.620000 166.970000 0.000000
151.670000 165.580000 0.000000
147.120000 163.540000 0.000000
143.690000 159.920000 0.000000
141.560000 155.730000 0.000000
140.390000 151.090000 0.000000
140.010000 146.380000 0.000000
141.750000 141.890000 0.000000
144.320000 137.970000 0.000000
147.650000 134.560000 0.000000
151.390000 131.470000 0.000000
155.310000 128.780000 0.000000
159.180000 126.070000 0.000000
162.350000 122.580000 0.000000
165.440000 118.920000 0.000000
168.530000 115.130000 0.000000
172.130000 112.460000 0.000000
176.490000 110.510000 0.000000
181.180000 109.130000 0.000000
185.850000 108.480000 0.000000
190.600000 108.120000 0.000000
195.320000 107.570000 0.000000
200.030000 107.050000 0.000000
204.780000 106.870000 0.000000
209.530000 106.780000 0.000000
214.200000 107.100000 0.000000
218.800000 108.420000 0.000000
223.360000 109.840000 0.000000
227.930000 111.390000 0.000000
232.230000 113.270000 0.000000
236.410000 115.700000 0.000000
240.660000 118.740000 0.000000
244.150000 122.210000 0.000000
246.060000 125.960000 0.000000
247.050000 130.330000 0.000000
247.790000 135.220000 0.000000
248.160000 140.150000 0.000000
247.670000 144.770000 0.000000
246.030000 149.320000 0.000000
244.440000 153.800000 0.000000
242.730000 158.230000 0.000000
241.260000 162.730000 0.000000
239.990000 167.310000 0.000000
238.360000 171.830000 0.000000
236.240000 176.060000 0.000000
232.640000 179.060000 0.000000
227.910000 181.500000 0.000000
224.600000 184.370000 0.000000
223.650000 188.790000 0.000000
222.620000 193.530000 0.000000
221.010000 198.010000 0.000000
219.300000 202.490000 0.000000
217.420000 206.940000 0.000000
214.980000 210.730000 0.000000
211.600000 213.980000 0.000000
207.450000 216.720000 0.000000
207.450000 216.720000 0.000000
203.390000 220.730000 0.000000
199.260000 223.720000 0.000000
199.260000 223.720000 0.000000
195.060000 225.710000 0.000000
3 0 80 2
3 0 2 3
3 0 3 4
3 0 4 5
3 0 5 6
3 0 6 7
3 0 7 8
3 0 8 9
3 0 9 10
3 0 10 11
3 0 11 12
3 0 12 13
3 0 13 14
3 0 14 15
3 0 15 16
3 0 16 17
3 0 17 18
3 0 18 19
3 0 19 20
3 0 20 21
3 0 21 22
3 0 22 23
3 0 23 24
3 0 24 25
3 0 25 26
3 0 26 27
3 0 27 28
3 0 28 29
3 0 29 30
3 0 30 31
3 0 31 32
3 0 32 33
3 0 33 34
3 0 34 35
3 0 35 36
3 0 36 37
3 0 37 38
3 0 38 39
3 0 39 40
3 0 40 41
3 0 41 42
3 0 42 43
3 0 43 44
3 0 44 45
3 0 45 46
3 0 46 47
3 0 47 48
3 0 48 49
3 0 49 50
3 0 50 51
3 0 51 52
3 0 52 53
3 0 53 54
3 0 54 55
3 0 55 56
3 0 56 57
3 0 57 58
3 0 58 59
3 0 59 60
3 0 60 61
3 0 61 62
3 0 62 63
3 0 63 64
3 0 64 65
3 0 65 66
3 0 66 67
3 0 67 68
3 0 68 70
3 0 70 71
3 0 71 72
3 0 72 73
3 0 73 74
3 0 74 75
3 0 75 76
3 0 76 77
3 0 77 78
3 0 78 79
3 0 79 80
3 80 81 82
3 80 82 2
3 2 82 83
3 2 83 3
3 3 83 84
3 3 84 4
3 4 84 85
3 4 85 5
3 5 85 86
3 5 86 6
3 6 86 87
3 6 87 7
3 7 87 88
3 7 88 8
3 8 88 89
3 8 89 9
3 9 89 90
3 9 90 10
3 10 90 91
3 10 91 11
3 11 91 92
3 11 92 12
3 12 92 93
3 12 93 13
3 13 93 94
3 13 94 14
3 14 94 95
3 14 95 15
3 15 95 96
3 15 96 16
3 16 96 97
3 16 97 17
3 17 97 98
3 17 98 18
3 18 98 99
3 18 99 19
3 19 99 100
3 19 100 20
3 20 100 101
3 20 101 21
3 21 101 102
3 21 102 22
3 22 102 103
3 22 103 23
3 23 103 104
3 23 104 24
3 24 104 105
3 24 105 25
3 25 105 106
3 25 106 26
3 26 106 107
3 26 107 27
3 27 107 108
3 27 108 28
3 28 108 109
3 28 109 29
3 29 109 110
3 29 110 30
3 30 110 111
3 30 111 31
3 31 111 112
3 31 112 32
3 32 112 113
3 32 113 33
3 33 113 114
3 33 114 34
3 34 114 115
3 34 115 35
3 35 115 116
3 35 116 36
3 36 116 117
3 36 117 37
3 37 117 118
3 37 118 38
3 38 118 119
3 38 119 39
3 39 119 120
3 39 120 40
3 40 120 121
3 40 121 41
3 41 121 122
3 41 122 42
3 42 122 123
3 42 123 43
3 43 123 124
3 43 124 44
3 44 124 125
3 44 125 45
3 45 125 126
3 45 126 46
3 46 126 127
3 46 127 47
3 47 127 128
3 47 128 48
3 48 128 129
3 48 129 49
3 49 129 130
3 49 130 50
3 50 130 131
3 50 131 51
3 51 131 132
3 51 132 52
3 52 132 133
3 52 133 53
3 53 133 134
3 53 134 54
3 54 134 135
3 54 135 55
3 55 135 136
3 55 136 56
3 56 136 137
3 56 137 57
3 57 137 138
3 57 138 58
3 58 138 139
3 58 139 59
3 59 139 140
3 59 140 60
3 60 140 141
3 60 141 61
3 61 141 142
3 61 142 62
3 62 142 143
3 62 143 63
3 63 143 144
3 63 144 64
3 64 144 145
3 64 145 65
3 65 145 146
3 65 146 66
3 66 146 147
3 66 147 67
3 67 147 148
3 67 148 68
3 68 148 149
3 68 149 150
3 68 150 70
3 70 150 151
3 70 151 71
3 71 151 152
3 71 152 72
3 72 152 153
3 72 153 73
3 73 153 74
3 74 153 155
3 74 155 75
3 75 155 156
3 75 156 76
3 76 156 77
3 77 156 158
3 77 158 78
3 78 158 159
3 78 159 79
3 79 159 160
3 79 160 80
3 80 160 81
3 81 161 162
3 81 162 82
3 82 162 163
3 82 163 83
3 83 163 164
3 83 164 84
3 84 164 165
3 84 165 85
3 85 165 166
3 85 166 86
3 86 166 167
3 86 167 87
3 87 167 168
3 87 168 88
3 88 168 169
3 88 169 89
3 89 169 170
3 89 170 90
3 90 170 171
3 90 171 91
3 91 171 172
3 91 172 92
3 92 172 173
3 92 173 93
3 93 173 174
3 93 174 94
3 94 174 175
3 94 175 95
3 95 175 176
3 95 176 96
3 96 176 177
3 96 177 97
3 97 177 178
3 97 178 98
3 98 178 179
3 98 179 99
3 99 179 180
3 99 180 100
3 100 180 181
3 100 181 101
3 101 181 182
3 101 182 102
3 102 182 183
3 102 183 103
3 103 183 184
3 103 184 104
3 104 184 185
3 104 185 105
3 105 185 186
3 105 186 106
3 106 186 187
3 106 187 107
3 107 187 188
3 107 188 108
3 108 188 189
3 108 189 109
3 109 189 190
3 109 190 110
3 110 190 191
3 110 191 111
3 111 191 192
3 111 192 112
3 112 192 193
3 112 193 113
3 113 193 194
3 113 194 114
3 114 194 195
3 114 195 115
3 115 195 196
3 115 196 116
3 116 196 197
3 116 197 117
3 117 197 198
3 117 198 118
3 118 198 199
3 118 199 119
3 119 199 200
3 119 200 120
3 120 200 201
3 120 201 121
3 121 201 202
3 121 202 122
3 122 202 203
3 122 203 123
3 123 203 204
3 123 204 124
3 124 204 205
3 124 205 125
3 125 205 206
3 125 206 126
3 126 206 207
3 126 207 127
3 127 207 208
3 127 208 128
3 128 208 209
3 128 209 129
3 129 209 210
3 129 210 130
3 130 210 211
3 130 211 131
3 131 211 212
3 131 212 132
3 132 212 213
3 132 213 133
3 133 213 214
3 133 214 134
3 134 214 215
3 134 215 135
3 135 215 216
3 135 216 136
3 136 216 217
3 136 217 137
3 137 217 218
3 137 218 138
3 138 218 219
3 138 219 139
3 139 219 220
3 139 220 140
3 140 220 221
3 140 221 141
3 141 221 222
3 141 222 142
3 142 222 223
3 142 223 143
3 143 223 224
3 143 224 144
3 144 224 225
3 144 225 145
3 145 225 226
3 145 226 146
3 146 226 227
3 146 227 147
3 147 227 228
3 147 228 148
3 148 228 229
3 148 229 149
3 149 229 230
3 149 230 150
3 150 230 231
3 150 231 151
3 151 231 232
3 151 232 152
3 152 232 153
3 153 232 234
3 153 234 235
3 153 235 155
3 155 235 236
3 155 236 156
3 156 236 238
3 156 238 158
3 158 238 239
3 158 239 159
3 159 239 240
3 159 240 160
3 160 240 161
3 160 161 81
3 161 241 242
3 161 242 162
3 162 242 243
3 162 243 163
3 163 243 244
3 163 244 164
3 164 244 245
3 164 245 165
3 165 245 246
3 165 246 166
3 166 246 247
3 166 247 167
3 167 247 248
3 167 248 168
3 168 248 249
3 168 249 169
3 169 249 250
3 169 250 170
3 170 250 251
3 170 251 171
3 171 251 252
3 171 252 172
3 172 252 253
3 172 253 173
3 173 253 254
3 173 254 174
3 174 254 255
3 174 255 175
3 175 255 256
3 175 256 176
3 176 256 257
3 176 257 177
3 177 257 258
3 177 258 178
3 178 258 259
3 178 259 179
3 179 259 260
3 179 260 180
3 180 260 261
3 180 261 181
3 181 261 262
3 181 262 182
3 182 262 263
3 182 263 183
3 183 263 264
3 183 264 184
3 184 264 265
3 184 265 185
3 185 265 266
3 185 266 186
3 186 266 267
3 186 267 187
3 187 267 268
3 187 268 188
3 188 268 269
3 188 269 189
3 189 269 270
3 189 270 190
3 190 270 271
3 190 271 191
3 191 271 272
3 191 272 192
3 192 272 273
3 192 273 193
3 193 273 274
3 193 274 194
3 194 274 275
3 194 275 195
3 195 275 276
3 195 276 196
3 196 276 277
3 196 277 197
3 197 277 278
3 197 278 198
3 198 278 279
3 198 279 199
3 199 279 280
3 199 280 200
3 200 280 281
3 200 281 201
3 201 281 282
3 201 282 202
3 202 282 283
3 202 283 203
3 203 283 284
3 203 284 204
3 204 284 285
3 204 285 205
3 205 285 286
3 205 286 206
3 206 286 287
3 206 287 207
3 207 287 288
3 207 288 208
3 208 288 289
3 208 289 209
3 209 289 290
3 209 290 210
3 210 290 291
3 210 291 211
3 211 291 292
3 211 292 212
3 212 292 293
3 212 293 213
3 213 293 294
3 213 294 214
3 214 294 295
3 214 295 215
3 215 295 296
3 215 296 216
3 216 296 297
3 216 297 217
3 217 297 298
3 217 298 218
3 218 298 299
3 218 299 219
3 219 299 300
3 219 300 220
3 220 300 301
3 220 301 221
3 221 301 222
3 222 301 303
3 222 303 223
3 223 303 304
3 223 304 224
3 224 304 305
3 224 305 225
3 225 305 306
3 225 306 226
3 226 306 307
3 226 307 227
3 227 307 308
3 227 308 228
3 228 308 309
3 228 309 229
3 229 309 310
3 229 310 230
3 230 310 311
3 230 311 231
3 231 311 312
3 231 312 232
3 232 312 313
3 232 313 314
3 232 314 234
3 234 314 315
3 234 315 235
3 235 315 316
3 235 316 236
3 236 316 317
3 236 317 238
3 238 317 319
3 238 319 239
3 239 319 320
3 239 320 240
3 240 320 241
3 240 241 161
3 241 321 322
3 241 322 242
3 242 322 323
3 242 323 243
3 243 323 324
3 243 324 244
3 244 324 325
3 244 325 245
3 245 325 326
3 245 326 246
3 246 326 327
3 246 327 247
3 247 327 328
3 247 328 248
3 248 328 329
3 248 329 249
3 249 329 330
3 249 330 250
3 250 330 331
3 250 331 251
3 251 331 332
3 251 332 252
3 252 332 333
3 252 333 253
3 253 333 334
3 253 334 254
3 254 334 335
3 254 335 255
3 255 335 336
3 255 336 256
3 256 336 337
3 256 337 257
3 257 337 338
3 257 338 258
3 258 338 339
3 258 339 259
3 259 339 340
3 259 340 260
3 260 340 341
3 260 341 261
3 261 341 342
3 261 342 262
3 262 342 343
3 262 343 263
3 263 343 344
3 263 344 264
3 264 344 345
3 264 345 265
3 265 345 346
3 265 346 266
3 266 346 347
3 266 347 267
3 267 347 268
3 268 347 349
3 268 349 269
3 269 349 350
3 269 350 270
3 270 350 351
3 270 351 271
3 271 351 352
3 271 352 272
3 272 352 353
3 272 353 273
3 273 353 354
3 273 354 274
3 274 354 355
3 274 355 275
3 275 355 356
3 275 356 276
3 276 356 357
3 276 357 277
3 277 357 358
3 277 358 278
3 278 358 359
3 278 359 279
3 279 359 360
3 279 360 280
3 280 360 361
3 280 361 281
3 281 361 362
3 281 362 282
3 282 362 363
3 282 363 283
3 283 363 364
3 283 364 284
3 284 364 365
3 284 365 285
3 285 365 366
3 285 366 286
3 286 366 367
3 286 367 287
3 287 367 368
3 287 368 288
3 288 368 369
3 288 369 289
3 289 369 370
3 289 370 290
3 290 370 371
3 290 371 291
3 291 371 372
3 291 372 292
3 292 372 373
3 292 373 293
3 293 373 374
3 293 374 294
3 294 374 375
3 294 375 295
3 295 375 376
3 295 376 296
3 296 376 377
3 296 377 297
3 297 377 378
3 297 378 298
3 298 378 379
3 298 379 299
3 299 379 380
3 299 380 300
3 300 380 381
3 300 381 301
3 301 381 382
3 301 382 383
3 301 383 303
3 303 383 384
3 303 384 304
3 304 384 385
3 304 385 305
3 305 385 386
3 305 386 306
3 306 386 387
3 306 387 307
3 307 387 388
3 307 388 308
3 308 388 389
3 308 389 309
3 309 389 390
3 309 390 310
3 310 390 391
3 310 391 311
3 311 391 392
3 311 392 312
3 312 392 393
3 312 393 313
3 313 393 394
3 313 394 314
3 314 394 395
3 314 395 315
3 315 395 396
3 315 396 316
3 316 396 397
3 316 397 317
3 317 397 399
3 317 399 319
3 319 399 400
3 319 400 320
3 320 400 321
3 320 321 241
3 321 401 402
3 321 402 322
3 322 402 403
3 322 403 323
3 323 403 404
3 323 404 324
3 324 404 405
3 324 405 325
3 325 405 406
3 325 406 326
3 326 406 407
3 326 407 327
3 327 407 408
3 327 408 328
3 328 408 409
3 328 409 329
3 329 409 410
3 329 410 330
3 330 410 411
3 330 411 331
3 331 411 412
3 331 412 332
3 332 412 413
3 332 413 333
3 333 413 414
3 333 414 334
3 334 414 415
3 334 415 335
3 335 415 416
3 335 416 336
3 336 416 417
3 336 417 337
3 337 417 418
3 337 418 338
3 338 418 419
3 338 419 339
3 339 419 420
3 339 420 340
3 340 420 421
3 340 421 341
3 341 421 422
3 341 422 342
3 342 422 423
3 342 423 343
3 343 423 424
3 343 424 344
3 344 424 425
3 344 425 345
3 345 425 426
3 345 426 346
3 346 426 427
3 346 427 347
3 347 427 428
3 347 428 429
3 347 429 349
3 349 429 430
3 349 430 350
3 350 430 431
3 350 431 351
3 351 431 432
3 351 432 352
3 352 432 433
3 352 433 353
3 353 433 434
3 353 434 354
3 354 434 435
3 354 435 355
3 355 435 436
3 355 436 356
3 356 436 437
3 356 437 357
3 357 437 438
3 357 438 358
3 358 438 439
3 358 439 359
3 359 439 440
3 359 440 360
3 360 440 441
3 360 441 361
3 361 441 442
3 361 442 362
3 362 442 443
3 362 443 363
3 363 443 444
3 363 444 364
3 364 444 445
3 364 445 365
3 365 445 446
3 365 446 366
3 366 446 447
3 366 447 367
3 367 447 448
3 367 448 368
3 368 448 449
3 368 449 369
3 369 449 450
3 369 450 370
3 370 450 451
3 370 451 371
3 371 451 452
3 371 452 372
3 372 452 453
3 372 453 373
3 373 453 454
3 373 454 374
3 374 454 455
3 374 455 375
3 375 455 456
3 375 456 376
3 376 456 457
3 376 457 377
3 377 457 458
3 377 458 378
3 378 458 459
3 378 459 379
3 379 459 460
3 379 460 380
3 380 460 461
3 380 461 381
3 381 461 462
3 381 462 382
3 382 462 463
3 382 463 383
3 383 463 464
3 383 464 384
3 384 464 465
3 384 465 385
3 385 465 466
3 385 466 386
3 386 466 467
3 386 467 387
3 387 467 468
3 387 468 388
3 388 468 469
3 388 469 389
3 389 469 470
3 389 470 390
3 390 470 471
3 390 471 391
3 391 471 472
3 391 472 392
3 392 472 473
3 392 473 393
3 393 473 474
3 393 474 394
3 394 474 475
3 394 475 395
3 395 475 396
3 396 475 477
3 396 477 397
3 397 477 478
3 397 478 399
3 399 478 480
3 399 480 400
3 400 480 401
3 400 401 321
3 401 481 482
3 401 482 402
3 402 482 483
3 402 483 403
3 403 483 484
3 403 484 404
3 404 484 485
3 404 485 405
3 405 485 486
3 405 486 406
3 406 486 487
3 406 487 407
3 407 487 488
3 407 488 408
3 408 488 489
3 408 489 409
3 409 489 490
3 409 490 410
3 410 490 491
3 410 491 411
3 411 491 492
3 411 492 412
3 412 492 493
3 412 493 413
3 413 493 494
3 413 494 414
3 414 494 495
3 414 495 415
3 415 495 496
3 415 496 416
3 416 496 497
3 416 497 417
3 417 497 498
3 417 498 418
3 418 498 499
3 418 499 419
3 419 499 500
3 419 500 420
3 420 500 501
3 420 501 421
3 421 501 502
3 421 502 422
3 422 502 503
3 422 503 423
3 423 503 504
3 423 504 424
3 424 504 505
3 424 505 425
3 425 505 506
3 425 506 426
3 426 506 507
3 426 507 427
3 427 507 508
3 427 508 428
3 428 508 509
3 428 509 429
3 429 509 510
3 429 510 430
3 430 510 511
3 430 511 431
3 431 511 512
3 431 512 432
3 432 512 513
3 432 513 433
3 433 513 514
3 433 514 434
3 434 514 515
3 434 515 435
3 435 515 516
3 435 516 436
3 436 516 517
3 436 517 437
3 437 517 518
3 437 518 438
3 438 518 519
3 438 519 439
3 439 519 520
3 439 520 440
3 440 520 521
3 440 521 441
3 441 521 522
3 441 522 442
3 442 522 523
3 442 523 443
3 443 523 524
3 443 524 444
3 444 524 525
3 444 525 445
3 445 525 526
3 445 526 446
3 446 526 527
3 446 527 447
3 447 527 528
3 447 528 448
3 448 528 529
3 448 529 449
3 449 529 530
3 449 530 450
3 450 530 531
3 450 531 451
3 451 531 532
3 451 532 452
3 452 532 533
3 452 533 453
3 453 533 534
3 453 534 454
3 454 534 535
3 454 535 455
3 455 535 536
3 455 536 456
3 456 536 537
3 456 537 457
3 457 537 538
3 457 538 458
3 458 538 539
3 458 539 459
3 459 539 540
3 459 540 460
3 460 540 541
3 460 541 461
3 461 541 542
3 461 542 462
3 462 542 543
3 462 543 463
3 463 543 544
3 463 544 464
3 464 544 545
3 464 545 465
3 465 545 546
3 465 546 466
3 466 546 547
3 466 547 467
3 467 547 548
3 467 548 468
3 468 548 549
3 468 549 469
3 469 549 550
3 469 550 470
3 470 550 551
3 470 551 471
3 471 551 552
3 471 552 472
3 472 552 553
3 472 553 473
3 473 553 554
3 473 554 474
3 474 554 555
3 474 555 475
3 475 555 556
3 475 556 477
3 477 556 478
3 478 556 559
3 478 559 560
3 478 560 480
3 480 560 481
3 480 481 401
3 481 561 562
3 481 562 482
3 482 562 563
3 482 563 483
3 483 563 564
3 483 564 484
3 484 564 565
3 484 565 485
3 485 565 566
3 485 566 486
3 486 566 567
3 486 567 487
3 487 567 568
3 487 568 488
3 488 568 569
3 488 569 489
3 489 569 570
3 489 570 490
3 490 570 571
3 490 571 491
3 491 571 572
3 491 572 492
3 492 572 573
3 492 573 493
3 493 573 574
3 493 574 494
3 494 574 575
3 494 575 495
3 495 575 576
3 495 576 496
3 496 576 577
3 496 577 497
3 497 577 578
3 497 578 498
3 498 578 579
3 498 579 499
3 499 579 580
3 499 580 500
3 500 580 581
3 500 581 501
3 501 581 582
3 501 582 502
3 502 582 583
3 502 583 503
3 503 583 584
3 503 584 504
3 504 584 585
3 504 585 505
3 505 585 586
3 505 586 506
3 506 586 587
3 506 587 507
3 507 587 588
3 507 588 508
3 508 588 589
3 508 589 509
3 509 589 590
3 509 590 510
3 510 590 591
3 510 591 511
3 511 591 592
3 511 592 512
3 512 592 593
3 512 593 513
3 513 593 594
3 513 594 514
3 514 594 595
3 514 595 515
3 515 595 596
3 515 596 516
3 516 596 597
3 516 597 517
3 517 597 598
3 517 598 518
3 518 598 599
3 518 599 519
3 519 599 600
3 519 600 520
3 520 600 601
3 520 601 521
3 521 601 602
3 521 602 522
3 522 602 603
3 522 603 523
3 523 603 604
3 523 604 524
3 524 604 605
3 524 605 525
3 525 605 606
3 525 606 526
3 526 606 607
3 526 607 527
3 527 607 608
3 527 608 528
3 528 608 609
3 528 609 529
3 529 609 610
3 529 610 530
3 530 610 611
3 530 611 531
3 531 611 612
3 531 612 532
3 532 612 613
3 532 613 533
3 533 613 614
3 533 614 534
3 534 614 615
3 534 615 535
3 535 615 616
3 535 616 536
3 536 616 617
3 536 617 537
3 537 617 618
3 537 618 538
3 538 618 619
3 538 619 539
3 539 619 620
3 539 620 540
3 540 620 621
3 540 621 541
3 541 621 622
3 541 622 542
3 542 622 623
3 542 623 543
3 543 623 624
3 543 624 544
3 544 624 625
3 544 625 545
3 545 625 626
3 545 626 546
3 546 626 627
3 546 627 547
3 547 627 628
3 547 628 548
3 548 628 629
3 548 629 549
3 549 629 630
3 549 630 550
3 550 630 631
3 550 631 551
3 551 631 632
3 551 632 552
3 552 632 633
3 552 633 553
3 553 633 634
3 553 634 554
3 554 634 635
3 554 635 555
3 555 635 636
3 555 636 556
3 556 636 637
3 556 637 639
3 556 639 559
3 559 639 560
3 560 639 561
3 560 561 481
3 561 641 642
3 561 642 562
3 562 642 643
3 562 643 563
3 563 643 644
3 563 644 564
3 564 644 645
3 564 645 565
3 565 645 646
3 565 646 566
3 566 646 647
3 566 647 567
3 567 647 648
3 567 648 568
3 568 648 649
3 568 649 569
3 569 649 650
3 569 650 570
3 570 650 651
3 570 651 571
3 571 651 652
3 571 652 572
3 572 652 653
3 572 653 573
3 573 653 654
3 573 654 574
3 574 654 655
3 574 655 575
3 575 655 656
3 575 656 576
3 576 656 657
3 576 657 577
3 577 657 658
3 577 658 578
3 578 658 659
3 578 659 579
3 579 659 660
3 579 660 580
3 580 660 661
3 580 661 581
3 581 661 662
3 581 662 582
3 582 662 663
3 582 663 583
3 583 663 664
3 583 664 584
3 584 664 665
3 584 665 585
3 585 665 666
3 585 666 586
3 586 666 667
3 586 667 587
3 587 667 668
3 587 668 588
3 588 668 669
3 588 669 589
3 589 669 670
3 589 670 590
3 590 670 671
3 590 671 591
3 591 671 672
3 591 672 592
3 592 672 673
3 592 673 593
3 593 673 674
3 593 674 594
3 594 674 675
3 594 675 595
3 595 675 676
3 595 676 596
3 596 676 677
3 596 677 597
3 597 677 678
3 597 678 598
3 598 678 679
3 598 679 599
3 599 679 680
3 599 680 600
3 600 680 681
3 600 681 601
3 601 681 682
3 601 682 602
3 602 682 683
3 602 683 603
3 603 683 684
3 603 684 604
3 604 684 685
3 604 685 605
3 605 685 686
3 605 686 606
3 606 686 687
3 606 687 607
3 607 687 688
3 607 688 608
3 608 688 689
3 608 689 609
3 609 689 690
3 609 690 610
3 610 690 691
3 610 691 611
3 611 691 692
3 611 692 612
3 612 692 693
3 612 693 613
3 613 693 694
3 613 694 614
3 614 694 695
3 614 695 615
3 615 695 696
3 615 696 616
3 616 696 697
3 616 697 617
3 617 697 698
3 617 698 618
3 618 698 699
3 618 699 619
3 619 699 700
3 619 700 620
3 620 700 701
3 620 701 621
3 621 701 702
3 621 702 622
3 622 702 703
3 622 703 623
3 623 703 704
3 623 704 624
3 624 704 705
3 624 705 625
3 625 705 706
3 625 706 626
3 626 706 707
3 626 707 627
3 627 707 708
3 627 708 628
3 628 708 709
3 628 709 629
3 629 709 710
3 629 710 630
3 630 710 711
3 630 711 631
3 631 711 712
3 631 712 632
3 632 712 713
3 632 713 633
3 633 713 714
3 633 714 634
3 634 714 715
3 634 715 635
3 635 715 716
3 635 716 636
3 636 716 717
3 636 717 637
3 637 717 639
3 639 717 720
3 639 720 641
3 639 641 561
3 641 721 722
3 641 722 642
3 642 722 723
3 642 723 643
3 643 723 724
3 643 724 644
3 644 724 725
3 644 725 645
3 645 725 726
3 645 726 646
3 646 726 727
3 646 727 647
3 647 727 728
3 647 728 648
3 648 728 729
3 648 729 649
3 649 729 730
3 649 730 650
3 650 730 731
3 650 731 651
3 651 731 732
3 651 732 652
3 652 732 733
3 652 733 653
3 653 733 734
3 653 734 654
3 654 734 735
3 654 735 655
3 655 735 736
3 655 736 656
3 656 736 737
3 656 737 657
3 657 737 738
3 657 738 658
3 658 738 739
3 658 739 659
3 659 739 740
3 659 740 660
3 660 740 741
3 660 741 661
3 661 741 742
3 661 742 662
3 662 742 743
3 662 743 663
3 663 743 744
3 663 744 664
3 664 744 745
3 664 745 665
3 665 745 746
3 665 746 666
3 666 746 747
3 666 747 667
3 667 747 748
3 667 748 668
3 668 748 749
3 668 749 669
3 669 749 750
3 669 750 670
3 670 750 751
3 670 751 671
3 671 751 752
3 671 752 672
3 672 752 753
3 672 753 673
3 673 753 754
3 673 754 674
3 674 754 755
3 674 755 675
3 675 755 756
3 675 756 676
3 676 756 757
3 676 757 677
3 677 757 758
3 677 758 678
3 678 758 759
3 678 759 679
3 679 759 760
3 679 760 680
3 680 760 761
3 680 761 681
3 681 761 762
3 681 762 682
3 682 762 763
3 682 763 683
3 683 763 764
3 683 764 684
3 684 764 765
3 684 765 685
3 685 765 766
3 685 766 686
3 686 766 767
3 686 767 687
3 687 767 768
3 687 768 688
3 688 768 769
3 688 769 689
3 689 769 770
3 689 770 690
3 690 770 771
3 690 771 691
3 691 771 772
3 691 772 692
3 692 772 773
3 692 773 693
3 693 773 774
3 693 774 694
3 694 774 775
3 694 775 695
3 695 775 776
3 695 776 696
3 696 776 777
3 696 777 697
3 697 777 778
3 697 778 698
3 698 778 779
3 698 779 699
3 699 779 780
3 699 780 700
3 700 780 781
3 700 781 701
3 701 781 782
3 701 782 702
3 702 782 783
3 702 783 703
3 703 783 784
3 703 784 704
3 704 784 785
3 704 785 705
3 705 785 786
3 705 786 706
3 706 786 787
3 706 787 707
3 707 787 788
3 707 788 708
3 708 788 789
3 708 789 709
3 709 789 790
3 709 790 710
3 710 790 791
3 710 791 711
3 711 791 792
3 711 792 712
3 712 792 793
3 712 793 713
3 713 793 794
3 713 794 714
3 714 794 795
3 714 795 715
3 715 795 716
3 716 795 797
3 716 797 717
3 717 797 798
3 717 798 800
3 717 800 720
3 720 800 721
3 720 721 641
