ply 
format ascii 1.0 
comment this is a surface 
element vertex 721 
property float x 
property float y 
property float z 
element face 1326 
property list uchar int vertex_index 
end_header 
212.636125 169.841625 -69.120000
224.180000 202.960000 -69.120000
223.950000 202.650000 -69.120000
223.770000 201.410000 -69.120000
223.640000 199.430000 -69.120000
223.530000 196.920000 -69.120000
223.410000 194.100000 -69.120000
223.280000 191.180000 -69.120000
223.110000 188.360000 -69.120000
222.890000 185.850000 -69.120000
222.530000 183.710000 -69.120000
221.940000 181.610000 -69.120000
221.160000 179.530000 -69.120000
220.260000 177.470000 -69.120000
219.320000 175.430000 -69.120000
219.320000 175.430000 -69.120000
217.890000 173.580000 -69.120000
216.330000 171.930000 -69.120000
214.650000 170.510000 -69.120000
212.880000 169.370000 -69.120000
210.950000 168.500000 -69.120000
208.850000 167.780000 -69.120000
206.680000 167.150000 -69.120000
204.530000 166.510000 -69.120000
202.160000 165.910000 -69.120000
199.530000 165.360000 -69.120000
196.740000 164.840000 -69.120000
193.910000 164.350000 -69.120000
191.140000 163.860000 -69.120000
188.530000 163.350000 -69.120000
186.190000 162.820000 -69.120000
184.240000 162.250000 -69.120000
182.780000 161.620000 -69.120000
181.910000 160.910000 -69.120000
181.760000 160.100000 -69.120000
182.670000 159.120000 -69.120000
184.460000 157.960000 -69.120000
186.750000 156.670000 -69.120000
189.160000 155.290000 -69.120000
191.330000 153.850000 -69.120000
192.950000 152.310000 -69.120000
194.310000 150.320000 -69.120000
195.560000 148.110000 -69.120000
196.810000 146.010000 -69.120000
198.160000 144.370000 -69.120000
199.730000 143.520000 -69.120000
201.760000 143.290000 -69.120000
204.140000 143.120000 -69.120000
206.280000 143.070000 -69.120000
208.060000 143.590000 -69.120000
209.710000 144.890000 -69.120000
211.260000 146.690000 -69.120000
212.750000 148.720000 -69.120000
214.220000 150.700000 -69.120000
215.700000 152.410000 -69.120000
217.130000 154.090000 -69.120000
218.550000 155.780000 -69.120000
220.050000 157.410000 -69.120000
221.660000 158.970000 -69.120000
223.320000 160.500000 -69.120000
224.950000 162.040000 -69.120000
226.470000 163.630000 -69.120000
227.810000 165.310000 -69.120000
228.960000 167.120000 -69.120000
230.160000 169.070000 -69.120000
231.280000 171.120000 -69.120000
232.170000 173.220000 -69.120000
232.690000 175.310000 -69.120000
232.630000 177.340000 -69.120000
231.830000 179.370000 -69.120000
230.710000 181.400000 -69.120000
229.780000 183.460000 -69.120000
229.040000 185.780000 -69.120000
228.280000 188.410000 -69.120000
227.540000 191.210000 -69.120000
226.820000 194.010000 -69.120000
226.140000 196.680000 -69.120000
225.520000 199.060000 -69.120000
224.980000 200.990000 -69.120000
224.530000 202.340000 -69.120000
224.180000 202.960000 -69.120000
227.900000 179.120000 -60.480000
226.480000 177.510000 -60.480000
225.230000 175.940000 -60.480000
223.940000 174.430000 -60.480000
222.550000 173.020000 -60.480000
221.120000 171.640000 -60.480000
219.620000 170.310000 -60.480000
218.080000 169.040000 -60.480000
216.470000 167.830000 -60.480000
216.470000 167.830000 -60.480000
214.920000 166.500000 -60.480000
213.330000 165.240000 -60.480000
213.330000 165.240000 -60.480000
211.690000 164.110000 -60.480000
209.990000 163.170000 -60.480000
208.230000 162.300000 -60.480000
206.410000 161.440000 -60.480000
204.540000 160.620000 -60.480000
202.630000 159.860000 -60.480000
200.700000 159.210000 -60.480000
198.750000 158.690000 -60.480000
196.800000 158.340000 -60.480000
194.850000 158.190000 -60.480000
192.870000 158.130000 -60.480000
190.860000 158.100000 -60.480000
188.850000 158.060000 -60.480000
186.860000 157.990000 -60.480000
184.500000 157.750000 -60.480000
182.800000 157.240000 -60.480000
182.580000 155.850000 -60.480000
182.470000 153.490000 -60.480000
182.500000 151.430000 -60.480000
183.250000 149.480000 -60.480000
184.590000 147.650000 -60.480000
186.140000 146.280000 -60.480000
187.770000 145.610000 -60.480000
190.110000 145.230000 -60.480000
192.730000 144.960000 -60.480000
195.100000 144.700000 -60.480000
196.630000 144.320000 -60.480000
196.930000 143.620000 -60.480000
196.930000 141.790000 -60.480000
196.930000 139.250000 -60.480000
196.930000 136.700000 -60.480000
196.930000 134.860000 -60.480000
197.280000 134.060000 -60.480000
198.950000 133.440000 -60.480000
201.390000 132.960000 -60.480000
203.930000 132.650000 -60.480000
205.900000 132.580000 -60.480000
207.430000 133.410000 -60.480000
208.830000 135.000000 -60.480000
210.220000 136.800000 -60.480000
211.700000 138.260000 -60.480000
213.200000 139.700000 -60.480000
214.720000 141.170000 -60.480000
216.290000 142.490000 -60.480000
217.940000 143.470000 -60.480000
219.760000 143.970000 -60.480000
221.910000 144.200000 -60.480000
223.660000 144.530000 -60.480000
225.010000 145.380000 -60.480000
226.290000 146.790000 -60.480000
227.450000 148.590000 -60.480000
228.470000 150.650000 -60.480000
229.310000 152.820000 -60.480000
229.930000 154.940000 -60.480000
230.330000 156.870000 -60.480000
230.630000 158.800000 -60.480000
230.890000 160.790000 -60.480000
231.080000 162.820000 -60.480000
231.190000 164.840000 -60.480000
231.190000 166.830000 -60.480000
231.070000 168.820000 -60.480000
230.870000 170.810000 -60.480000
230.620000 172.790000 -60.480000
230.340000 174.780000 -60.480000
230.090000 176.970000 -60.480000
229.790000 179.450000 -60.480000
229.310000 180.490000 -60.480000
227.880000 177.410000 -51.840000
226.660000 175.340000 -51.840000
225.430000 173.640000 -51.840000
224.240000 171.940000 -51.840000
223.070000 170.210000 -51.840000
221.870000 168.510000 -51.840000
220.630000 166.900000 -51.840000
219.290000 165.460000 -51.840000
217.830000 164.200000 -51.840000
216.260000 163.020000 -51.840000
214.600000 161.900000 -51.840000
212.840000 160.860000 -51.840000
210.990000 159.910000 -51.840000
209.060000 159.050000 -51.840000
209.060000 159.050000 -51.840000
207.050000 158.310000 -51.840000
207.050000 158.310000 -51.840000
205.100000 157.630000 -51.840000
203.140000 157.020000 -51.840000
201.170000 156.510000 -51.840000
199.190000 156.170000 -51.840000
197.180000 155.980000 -51.840000
195.160000 155.810000 -51.840000
193.130000 155.670000 -51.840000
191.080000 155.560000 -51.840000
189.040000 155.490000 -51.840000
187.000000 155.470000 -51.840000
184.970000 155.500000 -51.840000
182.930000 155.590000 -51.840000
180.910000 155.710000 -51.840000
178.790000 155.960000 -51.840000
176.730000 156.400000 -51.840000
174.970000 157.110000 -51.840000
174.540000 157.530000 -51.840000
175.010000 156.300000 -51.840000
175.820000 154.320000 -51.840000
176.880000 151.930000 -51.840000
178.100000 149.500000 -51.840000
179.400000 147.370000 -51.840000
180.680000 145.910000 -51.840000
182.130000 144.810000 -51.840000
183.850000 143.740000 -51.840000
185.770000 142.770000 -51.840000
187.810000 141.940000 -51.840000
189.890000 141.300000 -51.840000
191.940000 140.930000 -51.840000
193.920000 140.800000 -51.840000
195.940000 140.720000 -51.840000
198.000000 140.650000 -51.840000
200.070000 140.590000 -51.840000
202.130000 140.550000 -51.840000
204.160000 140.530000 -51.840000
206.120000 140.560000 -51.840000
208.110000 140.890000 -51.840000
210.090000 141.530000 -51.840000
212.050000 142.400000 -51.840000
213.930000 143.420000 -51.840000
215.700000 144.520000 -51.840000
217.340000 145.620000 -51.840000
218.870000 146.830000 -51.840000
220.340000 148.300000 -51.840000
221.680000 149.940000 -51.840000
222.850000 151.660000 -51.840000
223.770000 153.400000 -51.840000
224.530000 155.270000 -51.840000
225.180000 157.220000 -51.840000
225.800000 159.200000 -51.840000
226.440000 161.140000 -51.840000
227.070000 163.070000 -51.840000
227.680000 165.020000 -51.840000
228.240000 166.970000 -51.840000
228.740000 168.940000 -51.840000
229.170000 170.930000 -51.840000
229.560000 172.930000 -51.840000
229.940000 174.940000 -51.840000
230.350000 176.930000 -51.840000
230.830000 178.900000 -51.840000
231.520000 180.860000 -51.840000
230.350000 180.890000 -51.840000
229.090000 179.450000 -51.840000
226.620000 175.640000 -43.200000
225.080000 172.580000 -43.200000
223.410000 169.530000 -43.200000
221.670000 166.660000 -43.200000
219.910000 164.150000 -43.200000
218.180000 162.190000 -43.200000
216.220000 160.610000 -43.200000
213.910000 159.200000 -43.200000
211.490000 158.040000 -43.200000
209.080000 157.140000 -43.200000
206.570000 156.390000 -43.200000
203.970000 155.850000 -43.200000
203.970000 155.850000 -43.200000
201.410000 155.260000 -43.200000
198.850000 154.730000 -43.200000
196.270000 154.270000 -43.200000
193.690000 153.890000 -43.200000
191.090000 153.530000 -43.200000
188.470000 153.230000 -43.200000
185.880000 153.120000 -43.200000
183.310000 153.380000 -43.200000
180.740000 154.010000 -43.200000
178.200000 154.830000 -43.200000
175.730000 155.710000 -43.200000
173.090000 156.780000 -43.200000
170.080000 158.300000 -43.200000
167.100000 159.990000 -43.200000
164.560000 161.510000 -43.200000
162.870000 162.560000 -43.200000
162.460000 162.750000 -43.200000
163.200000 160.470000 -43.200000
164.310000 157.350000 -43.200000
165.350000 154.920000 -43.200000
166.490000 152.500000 -43.200000
167.770000 150.210000 -43.200000
169.220000 148.150000 -43.200000
170.950000 146.280000 -43.200000
172.920000 144.530000 -43.200000
175.040000 142.890000 -43.200000
177.210000 141.320000 -43.200000
179.350000 139.820000 -43.200000
181.530000 138.370000 -43.200000
183.770000 136.990000 -43.200000
186.070000 135.740000 -43.200000
188.410000 134.560000 -43.200000
190.810000 133.280000 -43.200000
193.260000 132.150000 -43.200000
195.740000 131.470000 -43.200000
198.270000 131.470000 -43.200000
200.910000 131.970000 -43.200000
203.420000 132.720000 -43.200000
205.630000 133.860000 -43.200000
207.670000 135.600000 -43.200000
209.720000 137.330000 -43.200000
211.940000 138.780000 -43.200000
214.260000 140.140000 -43.200000
216.540000 141.510000 -43.200000
218.650000 143.010000 -43.200000
220.460000 144.720000 -43.200000
222.050000 146.780000 -43.200000
223.460000 149.070000 -43.200000
224.630000 151.400000 -43.200000
225.600000 153.780000 -43.200000
226.460000 156.250000 -43.200000
227.250000 158.770000 -43.200000
228.000000 161.300000 -43.200000
228.760000 163.820000 -43.200000
229.660000 166.310000 -43.200000
230.590000 168.810000 -43.200000
231.080000 171.340000 -43.200000
231.070000 174.260000 -43.200000
231.050000 177.690000 -43.200000
231.000000 181.000000 -43.200000
230.940000 183.550000 -43.200000
230.940000 183.550000 -43.200000
230.870000 184.700000 -43.200000
230.640000 184.330000 -43.200000
230.060000 183.050000 -43.200000
229.160000 181.050000 -43.200000
228.000000 178.520000 -43.200000
225.040000 162.700000 -34.560000
222.540000 162.430000 -34.560000
220.480000 161.520000 -34.560000
218.490000 160.180000 -34.560000
216.500000 158.770000 -34.560000
214.440000 157.650000 -34.560000
212.310000 156.730000 -34.560000
210.140000 155.870000 -34.560000
207.940000 155.110000 -34.560000
205.720000 154.470000 -34.560000
203.480000 153.890000 -34.560000
201.220000 153.360000 -34.560000
198.930000 152.910000 -34.560000
196.620000 152.550000 -34.560000
196.620000 152.550000 -34.560000
196.620000 152.550000 -34.560000
194.260000 152.550000 -34.560000
191.920000 152.570000 -34.560000
189.590000 152.600000 -34.560000
187.270000 152.630000 -34.560000
184.970000 152.680000 -34.560000
182.670000 152.740000 -34.560000
180.380000 152.880000 -34.560000
178.060000 153.350000 -34.560000
175.800000 154.040000 -34.560000
173.670000 154.820000 -34.560000
171.730000 156.090000 -34.560000
169.900000 157.720000 -34.560000
168.040000 159.170000 -34.560000
165.910000 159.930000 -34.560000
162.940000 160.380000 -34.560000
160.870000 160.630000 -34.560000
160.910000 159.960000 -34.560000
161.500000 157.550000 -34.560000
162.370000 154.620000 -34.560000
163.400000 152.420000 -34.560000
165.140000 150.930000 -34.560000
167.100000 149.480000 -34.560000
168.800000 147.830000 -34.560000
170.520000 146.080000 -34.560000
171.970000 144.220000 -34.560000
172.850000 142.250000 -34.560000
173.290000 140.060000 -34.560000
173.590000 137.700000 -34.560000
173.870000 135.300000 -34.560000
174.270000 133.030000 -34.560000
174.970000 130.680000 -34.560000
176.010000 128.060000 -34.560000
177.310000 125.720000 -34.560000
178.800000 124.240000 -34.560000
180.490000 123.990000 -34.560000
182.750000 123.990000 -34.560000
185.290000 123.990000 -34.560000
187.690000 124.010000 -34.560000
189.950000 124.380000 -34.560000
192.190000 125.110000 -34.560000
194.400000 125.960000 -34.560000
196.590000 126.750000 -34.560000
198.840000 127.530000 -34.560000
201.130000 128.340000 -34.560000
203.440000 129.200000 -34.560000
205.730000 130.100000 -34.560000
207.960000 131.060000 -34.560000
210.110000 132.080000 -34.560000
212.130000 133.170000 -34.560000
213.990000 134.350000 -34.560000
215.670000 135.610000 -34.560000
217.180000 137.000000 -34.560000
218.650000 138.650000 -34.560000
220.070000 140.530000 -34.560000
221.410000 142.560000 -34.560000
222.640000 144.720000 -34.560000
223.710000 146.940000 -34.560000
224.610000 149.170000 -34.560000
225.300000 151.370000 -34.560000
225.830000 153.850000 -34.560000
226.340000 156.850000 -34.560000
226.760000 159.750000 -34.560000
227.040000 161.930000 -34.560000
227.140000 162.780000 -34.560000
226.310000 167.640000 -25.920000
226.310000 169.310000 -25.920000
225.830000 168.940000 -25.920000
223.910000 167.010000 -25.920000
221.320000 164.470000 -25.920000
218.930000 162.210000 -25.920000
216.880000 160.240000 -25.920000
214.810000 158.240000 -25.920000
212.660000 156.430000 -25.920000
210.380000 155.010000 -25.920000
207.960000 153.930000 -25.920000
205.400000 152.940000 -25.920000
202.730000 152.100000 -25.920000
199.930000 151.460000 -25.920000
197.020000 151.070000 -25.920000
197.020000 151.070000 -25.920000
197.020000 151.070000 -25.920000
194.230000 150.780000 -25.920000
191.440000 150.630000 -25.920000
188.660000 150.590000 -25.920000
185.870000 150.650000 -25.920000
183.050000 150.930000 -25.920000
180.260000 151.380000 -25.920000
177.550000 151.940000 -25.920000
174.940000 152.640000 -25.920000
172.400000 153.810000 -25.920000
169.940000 155.300000 -25.920000
167.630000 156.930000 -25.920000
165.330000 158.760000 -25.920000
162.780000 161.240000 -25.920000
160.270000 163.920000 -25.920000
158.140000 166.340000 -25.920000
156.710000 168.030000 -25.920000
156.300000 168.510000 -25.920000
156.450000 167.810000 -25.920000
156.800000 166.200000 -25.920000
157.310000 163.860000 -25.920000
157.960000 160.940000 -25.920000
158.720000 157.630000 -25.920000
159.560000 154.090000 -25.920000
160.440000 150.490000 -25.920000
161.350000 146.990000 -25.920000
162.240000 143.760000 -25.920000
163.100000 140.970000 -25.920000
163.980000 138.280000 -25.920000
164.960000 135.590000 -25.920000
166.060000 133.010000 -25.920000
167.320000 130.620000 -25.920000
168.820000 128.180000 -25.920000
170.630000 125.550000 -25.920000
172.660000 123.190000 -25.920000
174.870000 121.520000 -25.920000
177.190000 120.980000 -25.920000
179.860000 120.980000 -25.920000
182.770000 120.980000 -25.920000
185.610000 120.970000 -25.920000
188.450000 120.940000 -25.920000
191.280000 120.880000 -25.920000
194.060000 120.830000 -25.920000
196.740000 120.830000 -25.920000
199.310000 121.600000 -25.920000
201.790000 123.090000 -25.920000
204.250000 124.650000 -25.920000
206.740000 125.960000 -25.920000
209.290000 127.270000 -25.920000
211.750000 128.660000 -25.920000
214.020000 130.200000 -25.920000
216.030000 131.960000 -25.920000
217.990000 134.010000 -25.920000
219.800000 136.280000 -25.920000
221.350000 138.680000 -25.920000
222.520000 141.120000 -25.920000
223.490000 143.640000 -25.920000
224.420000 146.300000 -25.920000
225.220000 149.050000 -25.920000
225.850000 151.840000 -25.920000
226.230000 154.640000 -25.920000
226.310000 157.450000 -25.920000
226.310000 160.920000 -25.920000
226.310000 164.580000 -25.920000
227.750000 166.610000 -17.280000
228.450000 169.600000 -17.280000
228.250000 172.790000 -17.280000
226.780000 173.560000 -17.280000
225.160000 171.490000 -17.280000
223.330000 168.370000 -17.280000
221.340000 165.250000 -17.280000
219.210000 163.010000 -17.280000
216.800000 161.120000 -17.280000
214.200000 159.430000 -17.280000
211.560000 157.970000 -17.280000
208.850000 156.630000 -17.280000
206.060000 155.410000 -17.280000
203.180000 154.330000 -17.280000
200.210000 153.430000 -17.280000
200.210000 153.430000 -17.280000
197.200000 152.260000 -17.280000
197.200000 152.260000 -17.280000
194.190000 151.430000 -17.280000
191.190000 150.880000 -17.280000
188.200000 150.570000 -17.280000
185.210000 150.430000 -17.280000
182.220000 150.510000 -17.280000
179.210000 151.350000 -17.280000
176.250000 152.130000 -17.280000
173.340000 151.540000 -17.280000
170.490000 149.820000 -17.280000
167.920000 149.320000 -17.280000
165.160000 151.120000 -17.280000
163.100000 153.980000 -17.280000
163.020000 156.770000 -17.280000
164.290000 159.920000 -17.280000
164.470000 162.350000 -17.280000
161.590000 164.450000 -17.280000
158.250000 165.840000 -17.280000
157.070000 165.610000 -17.280000
156.370000 163.380000 -17.280000
155.840000 159.870000 -17.280000
155.490000 155.890000 -17.280000
155.340000 152.250000 -17.280000
155.420000 149.160000 -17.280000
155.710000 146.030000 -17.280000
156.140000 142.970000 -17.280000
156.670000 140.130000 -17.280000
157.640000 137.520000 -17.280000
159.260000 135.030000 -17.280000
161.320000 132.640000 -17.280000
163.610000 130.330000 -17.280000
165.930000 128.060000 -17.280000
168.060000 125.800000 -17.280000
170.100000 123.210000 -17.280000
172.280000 120.940000 -17.280000
174.780000 119.970000 -17.280000
177.780000 119.530000 -17.280000
180.950000 119.310000 -17.280000
183.990000 119.420000 -17.280000
187.010000 119.910000 -17.280000
190.010000 120.590000 -17.280000
192.960000 121.310000 -17.280000
195.860000 122.230000 -17.280000
198.730000 123.280000 -17.280000
201.630000 124.270000 -17.280000
204.590000 125.150000 -17.280000
207.580000 125.990000 -17.280000
210.530000 126.860000 -17.280000
213.400000 127.840000 -17.280000
216.120000 129.000000 -17.280000
219.040000 130.440000 -17.280000
222.190000 132.180000 -17.280000
224.860000 134.190000 -17.280000
226.340000 136.390000 -17.280000
226.450000 138.860000 -17.280000
226.460000 141.820000 -17.280000
226.470000 145.050000 -17.280000
226.480000 148.310000 -17.280000
226.500000 151.400000 -17.280000
226.570000 154.460000 -17.280000
226.680000 157.510000 -17.280000
226.840000 160.550000 -17.280000
227.070000 163.580000 -17.280000
228.980000 167.620000 -8.640000
229.060000 170.840000 -8.640000
228.080000 174.570000 -8.640000
226.310000 176.500000 -8.640000
224.640000 174.480000 -8.640000
222.820000 170.890000 -8.640000
220.910000 167.950000 -8.640000
218.950000 165.150000 -8.640000
216.870000 162.500000 -8.640000
214.590000 160.270000 -8.640000
212.060000 158.540000 -8.640000
209.290000 156.940000 -8.640000
206.280000 155.550000 -8.640000
203.050000 154.420000 -8.640000
199.610000 153.620000 -8.640000
199.610000 153.620000 -8.640000
196.450000 152.620000 -8.640000
196.450000 152.620000 -8.640000
193.270000 151.750000 -8.640000
190.060000 151.060000 -8.640000
186.820000 150.460000 -8.640000
183.550000 149.950000 -8.640000
180.270000 149.760000 -8.640000
176.950000 149.810000 -8.640000
173.640000 149.940000 -8.640000
170.380000 150.200000 -8.640000
166.770000 151.180000 -8.640000
163.910000 152.750000 -8.640000
162.770000 155.230000 -8.640000
162.190000 159.060000 -8.640000
160.940000 161.440000 -8.640000
157.200000 162.720000 -8.640000
155.450000 162.440000 -8.640000
154.960000 158.860000 -8.640000
154.400000 154.910000 -8.640000
152.320000 152.900000 -8.640000
149.040000 151.260000 -8.640000
147.120000 148.780000 -8.640000
145.920000 145.550000 -8.640000
146.010000 142.220000 -8.640000
146.640000 138.570000 -8.640000
147.640000 135.190000 -8.640000
148.880000 132.740000 -8.640000
151.340000 131.390000 -8.640000
154.890000 130.320000 -8.640000
157.830000 128.780000 -8.640000
160.400000 126.670000 -8.640000
162.840000 124.430000 -8.640000
165.100000 121.950000 -8.640000
167.540000 119.840000 -8.640000
170.370000 117.930000 -8.640000
173.430000 116.460000 -8.640000
176.560000 116.150000 -8.640000
179.850000 116.540000 -8.640000
183.130000 117.170000 -8.640000
186.230000 118.250000 -8.640000
189.230000 119.930000 -8.640000
192.240000 121.420000 -8.640000
195.340000 121.910000 -8.640000
198.580000 121.790000 -8.640000
201.890000 121.550000 -8.640000
205.210000 121.270000 -8.640000
208.520000 121.020000 -8.640000
211.840000 120.720000 -8.640000
215.060000 120.690000 -8.640000
218.370000 121.640000 -8.640000
221.430000 123.340000 -8.640000
223.750000 125.340000 -8.640000
225.410000 128.320000 -8.640000
226.250000 131.450000 -8.640000
226.860000 134.730000 -8.640000
227.120000 138.040000 -8.640000
227.060000 141.330000 -8.640000
226.910000 144.630000 -8.640000
226.810000 147.920000 -8.640000
226.990000 151.190000 -8.640000
227.550000 154.440000 -8.640000
228.190000 157.700000 -8.640000
228.590000 160.960000 -8.640000
228.810000 164.290000 -8.640000
226.990000 166.430000 0.000000
226.310000 170.630000 0.000000
225.490000 174.670000 0.000000
224.390000 175.800000 0.000000
222.650000 173.870000 0.000000
220.380000 170.460000 0.000000
217.880000 166.820000 0.000000
215.380000 164.070000 0.000000
212.730000 161.570000 0.000000
209.900000 159.240000 0.000000
206.900000 157.370000 0.000000
203.750000 156.140000 0.000000
200.340000 155.220000 0.000000
196.730000 154.680000 0.000000
196.730000 154.680000 0.000000
193.180000 154.780000 0.000000
189.640000 154.920000 0.000000
189.640000 154.920000 0.000000
186.080000 155.100000 0.000000
182.450000 155.290000 0.000000
178.910000 155.590000 0.000000
175.650000 156.220000 0.000000
172.730000 158.290000 0.000000
169.810000 160.580000 0.000000
166.570000 161.870000 0.000000
163.110000 162.800000 0.000000
159.650000 163.750000 0.000000
156.360000 165.130000 0.000000
152.820000 167.380000 0.000000
149.330000 169.940000 0.000000
146.350000 172.090000 0.000000
144.330000 173.120000 0.000000
143.240000 171.880000 0.000000
142.420000 168.240000 0.000000
141.780000 163.690000 0.000000
141.230000 159.730000 0.000000
140.750000 156.210000 0.000000
140.390000 152.680000 0.000000
140.130000 149.110000 0.000000
139.950000 145.560000 0.000000
140.030000 142.110000 0.000000
140.970000 138.690000 0.000000
142.550000 135.360000 0.000000
144.390000 132.210000 0.000000
146.280000 129.320000 0.000000
148.640000 126.630000 0.000000
151.240000 124.130000 0.000000
153.880000 121.780000 0.000000
156.670000 119.540000 0.000000
159.590000 117.520000 0.000000
162.620000 115.680000 0.000000
165.800000 114.020000 0.000000
169.110000 112.890000 0.000000
172.570000 111.990000 0.000000
176.100000 111.380000 0.000000
179.610000 111.320000 0.000000
183.110000 111.840000 0.000000
186.620000 112.520000 0.000000
190.150000 113.000000 0.000000
193.690000 113.380000 0.000000
197.230000 113.760000 0.000000
200.730000 114.230000 0.000000
204.190000 114.900000 0.000000
207.720000 115.840000 0.000000
211.190000 117.030000 0.000000
214.420000 118.440000 0.000000
217.310000 120.090000 0.000000
220.130000 122.370000 0.000000
222.690000 125.140000 0.000000
224.630000 128.130000 0.000000
225.870000 131.210000 0.000000
226.910000 134.600000 0.000000
227.730000 138.170000 0.000000
228.270000 141.760000 0.000000
228.550000 145.290000 0.000000
228.750000 148.830000 0.000000
228.870000 152.390000 0.000000
228.800000 155.920000 0.000000
228.360000 159.440000 0.000000
227.690000 162.940000 0.000000
3 0 80 2
3 0 2 3
3 0 3 4
3 0 4 5
3 0 5 6
3 0 6 7
3 0 7 8
3 0 8 9
3 0 9 10
3 0 10 11
3 0 11 12
3 0 12 13
3 0 13 14
3 0 14 16
3 0 16 17
3 0 17 18
3 0 18 19
3 0 19 20
3 0 20 21
3 0 21 22
3 0 22 23
3 0 23 24
3 0 24 25
3 0 25 26
3 0 26 27
3 0 27 28
3 0 28 29
3 0 29 30
3 0 30 31
3 0 31 32
3 0 32 33
3 0 33 34
3 0 34 35
3 0 35 36
3 0 36 37
3 0 37 38
3 0 38 39
3 0 39 40
3 0 40 41
3 0 41 42
3 0 42 43
3 0 43 44
3 0 44 45
3 0 45 46
3 0 46 47
3 0 47 48
3 0 48 49
3 0 49 50
3 0 50 51
3 0 51 52
3 0 52 53
3 0 53 54
3 0 54 55
3 0 55 56
3 0 56 57
3 0 57 58
3 0 58 59
3 0 59 60
3 0 60 61
3 0 61 62
3 0 62 63
3 0 63 64
3 0 64 65
3 0 65 66
3 0 66 67
3 0 67 68
3 0 68 69
3 0 69 70
3 0 70 71
3 0 71 72
3 0 72 73
3 0 73 74
3 0 74 75
3 0 75 76
3 0 76 77
3 0 77 78
3 0 78 79
3 0 79 80
3 80 81 82
3 80 82 2
3 2 82 83
3 2 83 3
3 3 83 84
3 3 84 4
3 4 84 85
3 4 85 5
3 5 85 86
3 5 86 6
3 6 86 87
3 6 87 7
3 7 87 88
3 7 88 8
3 8 88 89
3 8 89 9
3 9 89 10
3 10 89 91
3 10 91 11
3 11 91 92
3 11 92 12
3 12 92 13
3 13 92 94
3 13 94 14
3 14 94 95
3 14 95 96
3 14 96 16
3 16 96 97
3 16 97 17
3 17 97 98
3 17 98 18
3 18 98 99
3 18 99 19
3 19 99 100
3 19 100 20
3 20 100 101
3 20 101 21
3 21 101 102
3 21 102 22
3 22 102 103
3 22 103 23
3 23 103 104
3 23 104 24
3 24 104 105
3 24 105 25
3 25 105 106
3 25 106 26
3 26 106 107
3 26 107 27
3 27 107 108
3 27 108 28
3 28 108 109
3 28 109 29
3 29 109 110
3 29 110 30
3 30 110 111
3 30 111 31
3 31 111 112
3 31 112 32
3 32 112 113
3 32 113 33
3 33 113 114
3 33 114 34
3 34 114 115
3 34 115 35
3 35 115 116
3 35 116 36
3 36 116 117
3 36 117 37
3 37 117 118
3 37 118 38
3 38 118 119
3 38 119 39
3 39 119 120
3 39 120 40
3 40 120 121
3 40 121 41
3 41 121 122
3 41 122 42
3 42 122 123
3 42 123 43
3 43 123 124
3 43 124 44
3 44 124 125
3 44 125 45
3 45 125 126
3 45 126 46
3 46 126 127
3 46 127 47
3 47 127 128
3 47 128 48
3 48 128 129
3 48 129 49
3 49 129 130
3 49 130 50
3 50 130 131
3 50 131 51
3 51 131 132
3 51 132 52
3 52 132 133
3 52 133 53
3 53 133 134
3 53 134 54
3 54 134 135
3 54 135 55
3 55 135 136
3 55 136 56
3 56 136 137
3 56 137 57
3 57 137 138
3 57 138 58
3 58 138 139
3 58 139 59
3 59 139 140
3 59 140 60
3 60 140 141
3 60 141 61
3 61 141 142
3 61 142 62
3 62 142 143
3 62 143 63
3 63 143 144
3 63 144 64
3 64 144 145
3 64 145 65
3 65 145 146
3 65 146 66
3 66 146 147
3 66 147 67
3 67 147 148
3 67 148 68
3 68 148 149
3 68 149 69
3 69 149 150
3 69 150 70
3 70 150 151
3 70 151 71
3 71 151 152
3 71 152 72
3 72 152 153
3 72 153 73
3 73 153 154
3 73 154 74
3 74 154 155
3 74 155 75
3 75 155 156
3 75 156 76
3 76 156 157
3 76 157 77
3 77 157 158
3 77 158 78
3 78 158 159
3 78 159 79
3 79 159 160
3 79 160 80
3 80 160 81
3 81 161 162
3 81 162 82
3 82 162 163
3 82 163 83
3 83 163 164
3 83 164 84
3 84 164 165
3 84 165 85
3 85 165 166
3 85 166 86
3 86 166 167
3 86 167 87
3 87 167 168
3 87 168 88
3 88 168 169
3 88 169 89
3 89 169 170
3 89 170 171
3 89 171 91
3 91 171 172
3 91 172 92
3 92 172 173
3 92 173 174
3 92 174 94
3 94 174 95
3 95 174 176
3 95 176 96
3 96 176 97
3 97 176 178
3 97 178 98
3 98 178 179
3 98 179 99
3 99 179 180
3 99 180 100
3 100 180 181
3 100 181 101
3 101 181 182
3 101 182 102
3 102 182 183
3 102 183 103
3 103 183 184
3 103 184 104
3 104 184 185
3 104 185 105
3 105 185 186
3 105 186 106
3 106 186 187
3 106 187 107
3 107 187 188
3 107 188 108
3 108 188 189
3 108 189 109
3 109 189 190
3 109 190 110
3 110 190 191
3 110 191 111
3 111 191 192
3 111 192 112
3 112 192 193
3 112 193 113
3 113 193 194
3 113 194 114
3 114 194 195
3 114 195 115
3 115 195 196
3 115 196 116
3 116 196 197
3 116 197 117
3 117 197 198
3 117 198 118
3 118 198 199
3 118 199 119
3 119 199 200
3 119 200 120
3 120 200 201
3 120 201 121
3 121 201 202
3 121 202 122
3 122 202 203
3 122 203 123
3 123 203 204
3 123 204 124
3 124 204 205
3 124 205 125
3 125 205 206
3 125 206 126
3 126 206 207
3 126 207 127
3 127 207 208
3 127 208 128
3 128 208 209
3 128 209 129
3 129 209 210
3 129 210 130
3 130 210 211
3 130 211 131
3 131 211 212
3 131 212 132
3 132 212 213
3 132 213 133
3 133 213 214
3 133 214 134
3 134 214 215
3 134 215 135
3 135 215 216
3 135 216 136
3 136 216 217
3 136 217 137
3 137 217 218
3 137 218 138
3 138 218 219
3 138 219 139
3 139 219 220
3 139 220 140
3 140 220 221
3 140 221 141
3 141 221 222
3 141 222 142
3 142 222 223
3 142 223 143
3 143 223 224
3 143 224 144
3 144 224 225
3 144 225 145
3 145 225 226
3 145 226 146
3 146 226 227
3 146 227 147
3 147 227 228
3 147 228 148
3 148 228 229
3 148 229 149
3 149 229 230
3 149 230 150
3 150 230 231
3 150 231 151
3 151 231 232
3 151 232 152
3 152 232 233
3 152 233 153
3 153 233 234
3 153 234 154
3 154 234 235
3 154 235 155
3 155 235 236
3 155 236 156
3 156 236 237
3 156 237 157
3 157 237 238
3 157 238 158
3 158 238 239
3 158 239 159
3 159 239 240
3 159 240 160
3 160 240 161
3 160 161 81
3 161 241 242
3 161 242 162
3 162 242 243
3 162 243 163
3 163 243 244
3 163 244 164
3 164 244 245
3 164 245 165
3 165 245 246
3 165 246 166
3 166 246 247
3 166 247 167
3 167 247 248
3 167 248 168
3 168 248 249
3 168 249 169
3 169 249 250
3 169 250 170
3 170 250 251
3 170 251 171
3 171 251 252
3 171 252 172
3 172 252 173
3 173 252 254
3 173 254 174
3 174 254 255
3 174 255 256
3 174 256 176
3 176 256 257
3 176 257 258
3 176 258 178
3 178 258 259
3 178 259 179
3 179 259 260
3 179 260 180
3 180 260 261
3 180 261 181
3 181 261 262
3 181 262 182
3 182 262 263
3 182 263 183
3 183 263 264
3 183 264 184
3 184 264 265
3 184 265 185
3 185 265 266
3 185 266 186
3 186 266 267
3 186 267 187
3 187 267 268
3 187 268 188
3 188 268 269
3 188 269 189
3 189 269 270
3 189 270 190
3 190 270 271
3 190 271 191
3 191 271 272
3 191 272 192
3 192 272 273
3 192 273 193
3 193 273 274
3 193 274 194
3 194 274 275
3 194 275 195
3 195 275 276
3 195 276 196
3 196 276 277
3 196 277 197
3 197 277 278
3 197 278 198
3 198 278 279
3 198 279 199
3 199 279 280
3 199 280 200
3 200 280 281
3 200 281 201
3 201 281 282
3 201 282 202
3 202 282 283
3 202 283 203
3 203 283 284
3 203 284 204
3 204 284 285
3 204 285 205
3 205 285 286
3 205 286 206
3 206 286 287
3 206 287 207
3 207 287 288
3 207 288 208
3 208 288 289
3 208 289 209
3 209 289 290
3 209 290 210
3 210 290 291
3 210 291 211
3 211 291 292
3 211 292 212
3 212 292 293
3 212 293 213
3 213 293 294
3 213 294 214
3 214 294 295
3 214 295 215
3 215 295 296
3 215 296 216
3 216 296 297
3 216 297 217
3 217 297 298
3 217 298 218
3 218 298 299
3 218 299 219
3 219 299 300
3 219 300 220
3 220 300 301
3 220 301 221
3 221 301 302
3 221 302 222
3 222 302 303
3 222 303 223
3 223 303 304
3 223 304 224
3 224 304 305
3 224 305 225
3 225 305 306
3 225 306 226
3 226 306 307
3 226 307 227
3 227 307 308
3 227 308 228
3 228 308 309
3 228 309 229
3 229 309 310
3 229 310 230
3 230 310 311
3 230 311 231
3 231 311 312
3 231 312 232
3 232 312 313
3 232 313 233
3 233 313 314
3 233 314 234
3 234 314 235
3 235 314 316
3 235 316 236
3 236 316 317
3 236 317 237
3 237 317 318
3 237 318 238
3 238 318 319
3 238 319 239
3 239 319 320
3 239 320 240
3 240 320 241
3 240 241 161
3 241 321 322
3 241 322 242
3 242 322 323
3 242 323 243
3 243 323 324
3 243 324 244
3 244 324 325
3 244 325 245
3 245 325 326
3 245 326 246
3 246 326 327
3 246 327 247
3 247 327 328
3 247 328 248
3 248 328 329
3 248 329 249
3 249 329 330
3 249 330 250
3 250 330 331
3 250 331 251
3 251 331 332
3 251 332 252
3 252 332 333
3 252 333 334
3 252 334 254
3 254 334 255
3 255 334 256
3 256 334 337
3 256 337 257
3 257 337 338
3 257 338 258
3 258 338 339
3 258 339 259
3 259 339 340
3 259 340 260
3 260 340 341
3 260 341 261
3 261 341 342
3 261 342 262
3 262 342 343
3 262 343 263
3 263 343 344
3 263 344 264
3 264 344 345
3 264 345 265
3 265 345 346
3 265 346 266
3 266 346 347
3 266 347 267
3 267 347 348
3 267 348 268
3 268 348 349
3 268 349 269
3 269 349 350
3 269 350 270
3 270 350 351
3 270 351 271
3 271 351 352
3 271 352 272
3 272 352 353
3 272 353 273
3 273 353 354
3 273 354 274
3 274 354 355
3 274 355 275
3 275 355 356
3 275 356 276
3 276 356 357
3 276 357 277
3 277 357 358
3 277 358 278
3 278 358 359
3 278 359 279
3 279 359 360
3 279 360 280
3 280 360 361
3 280 361 281
3 281 361 362
3 281 362 282
3 282 362 363
3 282 363 283
3 283 363 364
3 283 364 284
3 284 364 365
3 284 365 285
3 285 365 366
3 285 366 286
3 286 366 367
3 286 367 287
3 287 367 368
3 287 368 288
3 288 368 369
3 288 369 289
3 289 369 370
3 289 370 290
3 290 370 371
3 290 371 291
3 291 371 372
3 291 372 292
3 292 372 373
3 292 373 293
3 293 373 374
3 293 374 294
3 294 374 375
3 294 375 295
3 295 375 376
3 295 376 296
3 296 376 377
3 296 377 297
3 297 377 378
3 297 378 298
3 298 378 379
3 298 379 299
3 299 379 380
3 299 380 300
3 300 380 381
3 300 381 301
3 301 381 382
3 301 382 302
3 302 382 383
3 302 383 303
3 303 383 384
3 303 384 304
3 304 384 385
3 304 385 305
3 305 385 386
3 305 386 306
3 306 386 387
3 306 387 307
3 307 387 388
3 307 388 308
3 308 388 389
3 308 389 309
3 309 389 390
3 309 390 310
3 310 390 391
3 310 391 311
3 311 391 392
3 311 392 312
3 312 392 393
3 312 393 313
3 313 393 394
3 313 394 314
3 314 394 395
3 314 395 396
3 314 396 316
3 316 396 397
3 316 397 317
3 317 397 398
3 317 398 318
3 318 398 399
3 318 399 319
3 319 399 400
3 319 400 320
3 320 400 321
3 320 321 241
3 321 401 402
3 321 402 322
3 322 402 403
3 322 403 323
3 323 403 404
3 323 404 324
3 324 404 405
3 324 405 325
3 325 405 406
3 325 406 326
3 326 406 407
3 326 407 327
3 327 407 408
3 327 408 328
3 328 408 409
3 328 409 329
3 329 409 410
3 329 410 330
3 330 410 411
3 330 411 331
3 331 411 412
3 331 412 332
3 332 412 413
3 332 413 333
3 333 413 414
3 333 414 334
3 334 414 415
3 334 415 337
3 337 415 418
3 337 418 338
3 338 418 419
3 338 419 339
3 339 419 420
3 339 420 340
3 340 420 421
3 340 421 341
3 341 421 422
3 341 422 342
3 342 422 423
3 342 423 343
3 343 423 424
3 343 424 344
3 344 424 425
3 344 425 345
3 345 425 426
3 345 426 346
3 346 426 427
3 346 427 347
3 347 427 428
3 347 428 348
3 348 428 429
3 348 429 349
3 349 429 430
3 349 430 350
3 350 430 431
3 350 431 351
3 351 431 432
3 351 432 352
3 352 432 433
3 352 433 353
3 353 433 434
3 353 434 354
3 354 434 435
3 354 435 355
3 355 435 436
3 355 436 356
3 356 436 437
3 356 437 357
3 357 437 438
3 357 438 358
3 358 438 439
3 358 439 359
3 359 439 440
3 359 440 360
3 360 440 441
3 360 441 361
3 361 441 442
3 361 442 362
3 362 442 443
3 362 443 363
3 363 443 444
3 363 444 364
3 364 444 445
3 364 445 365
3 365 445 446
3 365 446 366
3 366 446 447
3 366 447 367
3 367 447 448
3 367 448 368
3 368 448 449
3 368 449 369
3 369 449 450
3 369 450 370
3 370 450 451
3 370 451 371
3 371 451 452
3 371 452 372
3 372 452 453
3 372 453 373
3 373 453 454
3 373 454 374
3 374 454 455
3 374 455 375
3 375 455 456
3 375 456 376
3 376 456 457
3 376 457 377
3 377 457 458
3 377 458 378
3 378 458 459
3 378 459 379
3 379 459 460
3 379 460 380
3 380 460 461
3 380 461 381
3 381 461 462
3 381 462 382
3 382 462 463
3 382 463 383
3 383 463 464
3 383 464 384
3 384 464 465
3 384 465 385
3 385 465 466
3 385 466 386
3 386 466 467
3 386 467 387
3 387 467 468
3 387 468 388
3 388 468 469
3 388 469 389
3 389 469 470
3 389 470 390
3 390 470 471
3 390 471 391
3 391 471 472
3 391 472 392
3 392 472 473
3 392 473 393
3 393 473 474
3 393 474 394
3 394 474 475
3 394 475 395
3 395 475 476
3 395 476 396
3 396 476 477
3 396 477 397
3 397 477 478
3 397 478 398
3 398 478 479
3 398 479 399
3 399 479 480
3 399 480 400
3 400 480 401
3 400 401 321
3 401 481 482
3 401 482 402
3 402 482 483
3 402 483 403
3 403 483 484
3 403 484 404
3 404 484 485
3 404 485 405
3 405 485 486
3 405 486 406
3 406 486 487
3 406 487 407
3 407 487 488
3 407 488 408
3 408 488 489
3 408 489 409
3 409 489 490
3 409 490 410
3 410 490 491
3 410 491 411
3 411 491 492
3 411 492 412
3 412 492 493
3 412 493 413
3 413 493 494
3 413 494 414
3 414 494 495
3 414 495 415
3 415 495 497
3 415 497 418
3 418 497 499
3 418 499 419
3 419 499 500
3 419 500 420
3 420 500 501
3 420 501 421
3 421 501 502
3 421 502 422
3 422 502 503
3 422 503 423
3 423 503 504
3 423 504 424
3 424 504 505
3 424 505 425
3 425 505 506
3 425 506 426
3 426 506 507
3 426 507 427
3 427 507 508
3 427 508 428
3 428 508 509
3 428 509 429
3 429 509 510
3 429 510 430
3 430 510 511
3 430 511 431
3 431 511 512
3 431 512 432
3 432 512 513
3 432 513 433
3 433 513 514
3 433 514 434
3 434 514 515
3 434 515 435
3 435 515 516
3 435 516 436
3 436 516 517
3 436 517 437
3 437 517 518
3 437 518 438
3 438 518 519
3 438 519 439
3 439 519 520
3 439 520 440
3 440 520 521
3 440 521 441
3 441 521 522
3 441 522 442
3 442 522 523
3 442 523 443
3 443 523 524
3 443 524 444
3 444 524 525
3 444 525 445
3 445 525 526
3 445 526 446
3 446 526 527
3 446 527 447
3 447 527 528
3 447 528 448
3 448 528 529
3 448 529 449
3 449 529 530
3 449 530 450
3 450 530 531
3 450 531 451
3 451 531 532
3 451 532 452
3 452 532 533
3 452 533 453
3 453 533 534
3 453 534 454
3 454 534 535
3 454 535 455
3 455 535 536
3 455 536 456
3 456 536 537
3 456 537 457
3 457 537 538
3 457 538 458
3 458 538 539
3 458 539 459
3 459 539 540
3 459 540 460
3 460 540 541
3 460 541 461
3 461 541 542
3 461 542 462
3 462 542 543
3 462 543 463
3 463 543 544
3 463 544 464
3 464 544 545
3 464 545 465
3 465 545 546
3 465 546 466
3 466 546 547
3 466 547 467
3 467 547 548
3 467 548 468
3 468 548 549
3 468 549 469
3 469 549 550
3 469 550 470
3 470 550 551
3 470 551 471
3 471 551 552
3 471 552 472
3 472 552 553
3 472 553 473
3 473 553 554
3 473 554 474
3 474 554 555
3 474 555 475
3 475 555 556
3 475 556 476
3 476 556 557
3 476 557 477
3 477 557 558
3 477 558 478
3 478 558 559
3 478 559 479
3 479 559 560
3 479 560 480
3 480 560 481
3 480 481 401
3 481 561 562
3 481 562 482
3 482 562 563
3 482 563 483
3 483 563 564
3 483 564 484
3 484 564 565
3 484 565 485
3 485 565 566
3 485 566 486
3 486 566 567
3 486 567 487
3 487 567 568
3 487 568 488
3 488 568 569
3 488 569 489
3 489 569 570
3 489 570 490
3 490 570 571
3 490 571 491
3 491 571 572
3 491 572 492
3 492 572 573
3 492 573 493
3 493 573 574
3 493 574 494
3 494 574 575
3 494 575 495
3 495 575 577
3 495 577 497
3 497 577 579
3 497 579 499
3 499 579 580
3 499 580 500
3 500 580 581
3 500 581 501
3 501 581 582
3 501 582 502
3 502 582 583
3 502 583 503
3 503 583 584
3 503 584 504
3 504 584 585
3 504 585 505
3 505 585 586
3 505 586 506
3 506 586 587
3 506 587 507
3 507 587 588
3 507 588 508
3 508 588 589
3 508 589 509
3 509 589 590
3 509 590 510
3 510 590 591
3 510 591 511
3 511 591 592
3 511 592 512
3 512 592 593
3 512 593 513
3 513 593 594
3 513 594 514
3 514 594 595
3 514 595 515
3 515 595 596
3 515 596 516
3 516 596 597
3 516 597 517
3 517 597 598
3 517 598 518
3 518 598 599
3 518 599 519
3 519 599 600
3 519 600 520
3 520 600 601
3 520 601 521
3 521 601 602
3 521 602 522
3 522 602 603
3 522 603 523
3 523 603 604
3 523 604 524
3 524 604 605
3 524 605 525
3 525 605 606
3 525 606 526
3 526 606 607
3 526 607 527
3 527 607 608
3 527 608 528
3 528 608 609
3 528 609 529
3 529 609 610
3 529 610 530
3 530 610 611
3 530 611 531
3 531 611 612
3 531 612 532
3 532 612 613
3 532 613 533
3 533 613 614
3 533 614 534
3 534 614 615
3 534 615 535
3 535 615 616
3 535 616 536
3 536 616 617
3 536 617 537
3 537 617 618
3 537 618 538
3 538 618 619
3 538 619 539
3 539 619 620
3 539 620 540
3 540 620 621
3 540 621 541
3 541 621 622
3 541 622 542
3 542 622 623
3 542 623 543
3 543 623 624
3 543 624 544
3 544 624 625
3 544 625 545
3 545 625 626
3 545 626 546
3 546 626 627
3 546 627 547
3 547 627 628
3 547 628 548
3 548 628 629
3 548 629 549
3 549 629 630
3 549 630 550
3 550 630 631
3 550 631 551
3 551 631 632
3 551 632 552
3 552 632 633
3 552 633 553
3 553 633 634
3 553 634 554
3 554 634 635
3 554 635 555
3 555 635 636
3 555 636 556
3 556 636 637
3 556 637 557
3 557 637 638
3 557 638 558
3 558 638 639
3 558 639 559
3 559 639 640
3 559 640 560
3 560 640 561
3 560 561 481
3 561 641 642
3 561 642 562
3 562 642 643
3 562 643 563
3 563 643 644
3 563 644 564
3 564 644 645
3 564 645 565
3 565 645 646
3 565 646 566
3 566 646 647
3 566 647 567
3 567 647 648
3 567 648 568
3 568 648 649
3 568 649 569
3 569 649 650
3 569 650 570
3 570 650 651
3 570 651 571
3 571 651 652
3 571 652 572
3 572 652 653
3 572 653 573
3 573 653 654
3 573 654 574
3 574 654 575
3 575 654 656
3 575 656 657
3 575 657 577
3 577 657 659
3 577 659 579
3 579 659 660
3 579 660 580
3 580 660 661
3 580 661 581
3 581 661 662
3 581 662 582
3 582 662 663
3 582 663 583
3 583 663 664
3 583 664 584
3 584 664 665
3 584 665 585
3 585 665 666
3 585 666 586
3 586 666 667
3 586 667 587
3 587 667 668
3 587 668 588
3 588 668 669
3 588 669 589
3 589 669 670
3 589 670 590
3 590 670 671
3 590 671 591
3 591 671 672
3 591 672 592
3 592 672 673
3 592 673 593
3 593 673 674
3 593 674 594
3 594 674 675
3 594 675 595
3 595 675 676
3 595 676 596
3 596 676 677
3 596 677 597
3 597 677 678
3 597 678 598
3 598 678 679
3 598 679 599
3 599 679 680
3 599 680 600
3 600 680 681
3 600 681 601
3 601 681 682
3 601 682 602
3 602 682 683
3 602 683 603
3 603 683 684
3 603 684 604
3 604 684 685
3 604 685 605
3 605 685 686
3 605 686 606
3 606 686 687
3 606 687 607
3 607 687 688
3 607 688 608
3 608 688 689
3 608 689 609
3 609 689 690
3 609 690 610
3 610 690 691
3 610 691 611
3 611 691 692
3 611 692 612
3 612 692 693
3 612 693 613
3 613 693 694
3 613 694 614
3 614 694 695
3 614 695 615
3 615 695 696
3 615 696 616
3 616 696 697
3 616 697 617
3 617 697 698
3 617 698 618
3 618 698 699
3 618 699 619
3 619 699 700
3 619 700 620
3 620 700 701
3 620 701 621
3 621 701 702
3 621 702 622
3 622 702 703
3 622 703 623
3 623 703 704
3 623 704 624
3 624 704 705
3 624 705 625
3 625 705 706
3 625 706 626
3 626 706 707
3 626 707 627
3 627 707 708
3 627 708 628
3 628 708 709
3 628 709 629
3 629 709 710
3 629 710 630
3 630 710 711
3 630 711 631
3 631 711 712
3 631 712 632
3 632 712 713
3 632 713 633
3 633 713 714
3 633 714 634
3 634 714 715
3 634 715 635
3 635 715 716
3 635 716 636
3 636 716 717
3 636 717 637
3 637 717 718
3 637 718 638
3 638 718 719
3 638 719 639
3 639 719 720
3 639 720 640
3 640 720 641
3 640 641 561
