ply 
format ascii 1.0 
comment this is a surface 
element vertex 481 
property float x 
property float y 
property float z 
element face 869 
property list uchar int vertex_index 
end_header 
195.946375 205.507375 -43.200000
196.340000 217.750000 -43.200000
195.440000 217.690000 -43.200000
194.540000 217.580000 -43.200000
193.650000 217.400000 -43.200000
192.800000 217.100000 -43.200000
192.000000 216.670000 -43.200000
191.300000 216.110000 -43.200000
190.670000 215.450000 -43.200000
190.110000 214.740000 -43.200000
189.590000 214.000000 -43.200000
189.100000 213.230000 -43.200000
188.660000 212.450000 -43.200000
188.250000 211.640000 -43.200000
187.880000 210.810000 -43.200000
187.510000 209.980000 -43.200000
187.150000 209.150000 -43.200000
186.780000 208.320000 -43.200000
186.420000 207.490000 -43.200000
186.110000 206.640000 -43.200000
185.890000 205.760000 -43.200000
185.780000 204.860000 -43.200000
185.770000 203.960000 -43.200000
185.820000 203.050000 -43.200000
185.910000 202.150000 -43.200000
186.040000 201.260000 -43.200000
186.220000 200.370000 -43.200000
186.450000 199.490000 -43.200000
186.780000 198.650000 -43.200000
187.210000 197.850000 -43.200000
187.740000 197.120000 -43.200000
188.330000 196.420000 -43.200000
188.950000 195.770000 -43.200000
189.590000 195.130000 -43.200000
190.260000 194.520000 -43.200000
190.960000 193.940000 -43.200000
191.720000 193.450000 -43.200000
192.560000 193.110000 -43.200000
193.460000 192.950000 -43.200000
194.360000 192.930000 -43.200000
195.270000 192.990000 -43.200000
196.170000 193.080000 -43.200000
197.070000 193.200000 -43.200000
197.960000 193.370000 -43.200000
198.820000 193.650000 -43.200000
199.620000 194.060000 -43.200000
200.360000 194.590000 -43.200000
201.050000 195.180000 -43.200000
201.720000 195.790000 -43.200000
202.390000 196.400000 -43.200000
203.070000 197.000000 -43.200000
203.710000 197.640000 -43.200000
203.850000 198.470000 -43.200000
203.920000 199.370000 -43.200000
204.160000 200.240000 -43.200000
204.500000 201.080000 -43.200000
204.800000 201.940000 -43.200000
205.090000 202.790000 -43.200000
205.200000 203.680000 -43.200000
205.210000 204.590000 -43.200000
205.320000 205.490000 -43.200000
205.390000 206.380000 -43.200000
205.390000 207.290000 -43.200000
205.390000 208.200000 -43.200000
205.390000 209.100000 -43.200000
205.390000 210.010000 -43.200000
205.480000 210.910000 -43.200000
205.360000 211.750000 -43.200000
205.080000 212.600000 -43.200000
204.660000 213.380000 -43.200000
203.990000 213.990000 -43.200000
203.440000 214.700000 -43.200000
202.920000 215.180000 -43.200000
202.180000 215.680000 -43.200000
201.370000 216.100000 -43.200000
200.550000 216.480000 -43.200000
199.750000 216.910000 -43.200000
198.900000 217.200000 -43.200000
198.130000 217.670000 -43.200000
197.250000 217.770000 -43.200000
196.340000 217.750000 -43.200000
196.150000 216.800000 -34.560000
195.180000 216.790000 -34.560000
194.210000 216.730000 -34.560000
194.210000 216.730000 -34.560000
193.250000 216.660000 -34.560000
192.280000 216.580000 -34.560000
191.330000 216.410000 -34.560000
190.470000 215.980000 -34.560000
189.720000 215.370000 -34.560000
189.090000 214.640000 -34.560000
188.590000 213.800000 -34.560000
188.160000 212.940000 -34.560000
187.710000 212.080000 -34.560000
187.150000 211.290000 -34.560000
186.530000 210.540000 -34.560000
185.910000 209.800000 -34.560000
185.280000 209.070000 -34.560000
184.680000 208.310000 -34.560000
184.090000 207.510000 -34.560000
183.560000 206.710000 -34.560000
183.060000 205.880000 -34.560000
182.690000 204.980000 -34.560000
182.510000 204.040000 -34.560000
182.270000 203.100000 -34.560000
182.220000 202.140000 -34.560000
182.220000 201.170000 -34.560000
182.370000 200.210000 -34.560000
182.250000 199.260000 -34.560000
182.410000 198.320000 -34.560000
182.980000 197.530000 -34.560000
183.560000 196.760000 -34.560000
184.070000 195.930000 -34.560000
184.590000 195.120000 -34.560000
185.340000 194.600000 -34.560000
186.290000 194.450000 -34.560000
187.150000 194.080000 -34.560000
187.420000 193.290000 -34.560000
188.220000 193.090000 -34.560000
189.190000 193.080000 -34.560000
190.160000 193.090000 -34.560000
191.120000 193.230000 -34.560000
192.080000 193.270000 -34.560000
193.040000 193.430000 -34.560000
193.970000 193.700000 -34.560000
194.900000 193.980000 -34.560000
195.850000 194.140000 -34.560000
196.770000 194.440000 -34.560000
197.690000 194.740000 -34.560000
198.600000 195.060000 -34.560000
199.550000 195.250000 -34.560000
200.450000 195.570000 -34.560000
201.260000 196.110000 -34.560000
202.010000 196.710000 -34.560000
202.740000 197.360000 -34.560000
203.400000 198.060000 -34.560000
203.960000 198.850000 -34.560000
204.410000 199.700000 -34.560000
204.760000 200.600000 -34.560000
205.070000 201.520000 -34.560000
205.340000 202.450000 -34.560000
205.590000 203.390000 -34.560000
205.790000 204.340000 -34.560000
205.940000 205.290000 -34.560000
206.020000 206.260000 -34.560000
206.030000 207.230000 -34.560000
205.940000 208.190000 -34.560000
205.750000 209.140000 -34.560000
205.480000 210.070000 -34.560000
205.140000 210.980000 -34.560000
204.770000 211.870000 -34.560000
204.380000 212.760000 -34.560000
203.930000 213.610000 -34.560000
203.350000 214.380000 -34.560000
202.620000 215.010000 -34.560000
201.780000 215.490000 -34.560000
200.880000 215.850000 -34.560000
199.960000 216.150000 -34.560000
199.020000 216.390000 -34.560000
198.070000 216.590000 -34.560000
197.110000 216.730000 -34.560000
195.880000 217.060000 -25.920000
195.040000 216.820000 -25.920000
194.210000 216.560000 -25.920000
193.380000 216.270000 -25.920000
192.570000 215.950000 -25.920000
191.800000 215.540000 -25.920000
191.110000 215.010000 -25.920000
190.520000 214.370000 -25.920000
190.000000 213.670000 -25.920000
189.560000 212.910000 -25.920000
189.200000 212.120000 -25.920000
188.910000 211.300000 -25.920000
188.680000 210.450000 -25.920000
188.490000 209.600000 -25.920000
188.390000 208.740000 -25.920000
188.350000 207.860000 -25.920000
188.250000 207.000000 -25.920000
188.080000 206.140000 -25.920000
187.890000 205.290000 -25.920000
187.800000 204.420000 -25.920000
187.850000 203.550000 -25.920000
187.920000 202.680000 -25.920000
188.040000 201.820000 -25.920000
188.400000 201.030000 -25.920000
188.800000 200.260000 -25.920000
189.120000 199.450000 -25.920000
189.540000 198.680000 -25.920000
189.920000 197.900000 -25.920000
190.290000 197.110000 -25.920000
190.900000 196.500000 -25.920000
191.680000 196.110000 -25.920000
192.540000 195.960000 -25.920000
193.410000 195.930000 -25.920000
194.270000 195.780000 -25.920000
195.140000 195.780000 -25.920000
196.010000 195.810000 -25.920000
196.790000 196.200000 -25.920000
197.620000 196.490000 -25.920000
198.440000 196.780000 -25.920000
199.300000 196.970000 -25.920000
200.150000 197.170000 -25.920000
200.990000 197.380000 -25.920000
201.860000 197.450000 -25.920000
202.720000 197.620000 -25.920000
203.370000 198.190000 -25.920000
204.000000 198.790000 -25.920000
204.640000 199.380000 -25.920000
205.300000 199.960000 -25.920000
205.970000 200.520000 -25.920000
206.630000 201.090000 -25.920000
207.090000 201.810000 -25.920000
207.530000 202.570000 -25.920000
207.880000 203.360000 -25.920000
208.230000 204.150000 -25.920000
208.580000 204.950000 -25.920000
208.850000 205.780000 -25.920000
208.870000 206.650000 -25.920000
208.870000 207.530000 -25.920000
208.870000 208.400000 -25.920000
208.680000 209.250000 -25.920000
208.450000 210.090000 -25.920000
208.310000 210.950000 -25.920000
208.130000 211.820000 -25.920000
207.760000 212.610000 -25.920000
207.370000 213.390000 -25.920000
207.180000 214.240000 -25.920000
206.580000 214.870000 -25.920000
205.900000 215.410000 -25.920000
205.190000 215.840000 -25.920000
204.370000 216.170000 -25.920000
203.540000 216.420000 -25.920000
202.710000 216.700000 -25.920000
201.890000 217.000000 -25.920000
201.060000 217.280000 -25.920000
200.210000 217.460000 -25.920000
199.340000 217.530000 -25.920000
198.460000 217.500000 -25.920000
198.460000 217.500000 -25.920000
197.600000 217.400000 -25.920000
196.740000 217.250000 -25.920000
196.060000 220.010000 -17.280000
194.900000 219.940000 -17.280000
193.850000 219.480000 -17.280000
192.930000 218.770000 -17.280000
192.020000 218.050000 -17.280000
191.080000 217.370000 -17.280000
190.110000 216.720000 -17.280000
189.250000 215.950000 -17.280000
188.420000 215.130000 -17.280000
187.690000 214.230000 -17.280000
187.040000 213.260000 -17.280000
186.360000 212.320000 -17.280000
185.560000 211.470000 -17.280000
185.330000 210.510000 -17.280000
184.770000 209.500000 -17.280000
184.770000 208.330000 -17.280000
184.770000 207.170000 -17.280000
184.950000 206.020000 -17.280000
184.950000 204.860000 -17.280000
184.980000 203.700000 -17.280000
185.140000 202.540000 -17.280000
185.140000 201.380000 -17.280000
185.150000 200.220000 -17.280000
185.460000 199.110000 -17.280000
186.020000 198.090000 -17.280000
186.510000 197.040000 -17.280000
187.020000 195.990000 -17.280000
187.550000 194.960000 -17.280000
188.180000 193.980000 -17.280000
188.930000 193.080000 -17.280000
189.750000 192.270000 -17.280000
190.690000 191.580000 -17.280000
191.650000 190.920000 -17.280000
192.670000 190.360000 -17.280000
193.750000 189.930000 -17.280000
194.880000 189.700000 -17.280000
196.040000 189.550000 -17.280000
197.200000 189.590000 -17.280000
198.340000 189.800000 -17.280000
199.480000 190.050000 -17.280000
200.620000 190.280000 -17.280000
201.730000 190.630000 -17.280000
202.790000 191.090000 -17.280000
203.800000 191.670000 -17.280000
204.750000 192.350000 -17.280000
205.620000 193.110000 -17.280000
206.440000 193.940000 -17.280000
207.220000 194.810000 -17.280000
207.950000 195.710000 -17.280000
208.660000 196.630000 -17.280000
209.350000 197.570000 -17.280000
210.040000 198.510000 -17.280000
210.660000 199.490000 -17.280000
211.050000 200.590000 -17.280000
211.300000 201.720000 -17.280000
211.470000 202.870000 -17.280000
211.550000 204.030000 -17.280000
211.660000 205.190000 -17.280000
211.790000 206.350000 -17.280000
211.860000 207.510000 -17.280000
211.860000 208.670000 -17.280000
211.760000 209.830000 -17.280000
211.570000 210.980000 -17.280000
211.320000 212.110000 -17.280000
211.010000 213.230000 -17.280000
210.630000 214.330000 -17.280000
210.130000 215.380000 -17.280000
209.380000 216.270000 -17.280000
208.400000 216.880000 -17.280000
207.320000 217.320000 -17.280000
206.210000 217.660000 -17.280000
205.100000 218.010000 -17.280000
204.010000 218.420000 -17.280000
202.910000 218.800000 -17.280000
201.790000 219.110000 -17.280000
200.660000 219.380000 -17.280000
199.520000 219.610000 -17.280000
198.380000 219.820000 -17.280000
198.380000 219.820000 -17.280000
197.220000 219.960000 -17.280000
196.450000 219.680000 -8.640000
195.330000 219.360000 -8.640000
194.220000 218.990000 -8.640000
193.110000 218.650000 -8.640000
191.980000 218.400000 -8.640000
190.830000 218.210000 -8.640000
189.740000 217.790000 -8.640000
188.880000 217.010000 -8.640000
188.010000 216.240000 -8.640000
187.100000 215.510000 -8.640000
186.280000 214.690000 -8.640000
185.560000 213.770000 -8.640000
184.860000 212.850000 -8.640000
184.180000 211.900000 -8.640000
183.570000 210.910000 -8.640000
183.070000 209.860000 -8.640000
182.580000 208.800000 -8.640000
182.270000 207.680000 -8.640000
182.120000 206.530000 -8.640000
182.100000 205.370000 -8.640000
182.210000 204.210000 -8.640000
182.520000 203.090000 -8.640000
182.900000 201.990000 -8.640000
183.240000 200.880000 -8.640000
183.640000 199.790000 -8.640000
184.170000 198.760000 -8.640000
184.740000 197.740000 -8.640000
185.720000 197.160000 -8.640000
186.770000 196.650000 -8.640000
187.710000 195.980000 -8.640000
188.650000 195.300000 -8.640000
189.600000 194.630000 -8.640000
190.580000 194.000000 -8.640000
191.640000 193.520000 -8.640000
192.710000 193.050000 -8.640000
193.800000 192.680000 -8.640000
194.950000 192.560000 -8.640000
196.120000 192.560000 -8.640000
197.280000 192.560000 -8.640000
198.430000 192.690000 -8.640000
199.570000 192.900000 -8.640000
200.710000 193.090000 -8.640000
201.830000 193.380000 -8.640000
202.980000 193.600000 -8.640000
204.090000 193.900000 -8.640000
205.220000 194.180000 -8.640000
206.370000 194.370000 -8.640000
207.480000 194.700000 -8.640000
208.540000 195.120000 -8.640000
209.340000 195.960000 -8.640000
210.040000 196.890000 -8.640000
210.640000 197.880000 -8.640000
211.120000 198.940000 -8.640000
211.460000 200.050000 -8.640000
211.700000 201.190000 -8.640000
211.890000 202.340000 -8.640000
212.030000 203.490000 -8.640000
212.120000 204.650000 -8.640000
212.170000 205.820000 -8.640000
212.180000 206.980000 -8.640000
212.170000 208.140000 -8.640000
212.110000 209.300000 -8.640000
211.920000 210.450000 -8.640000
211.540000 211.550000 -8.640000
211.030000 212.600000 -8.640000
210.430000 213.590000 -8.640000
209.750000 214.530000 -8.640000
208.960000 215.390000 -8.640000
208.080000 216.150000 -8.640000
207.130000 216.820000 -8.640000
206.160000 217.470000 -8.640000
205.200000 218.110000 -8.640000
204.220000 218.740000 -8.640000
203.200000 219.300000 -8.640000
202.130000 219.760000 -8.640000
201.020000 220.140000 -8.640000
199.870000 220.310000 -8.640000
198.710000 220.210000 -8.640000
198.710000 220.210000 -8.640000
197.580000 219.960000 -8.640000
195.620000 221.870000 0.000000
194.160000 221.770000 0.000000
192.720000 221.620000 0.000000
191.270000 221.410000 0.000000
189.860000 221.080000 0.000000
188.490000 220.590000 0.000000
187.250000 219.830000 0.000000
186.160000 218.870000 0.000000
185.140000 217.830000 0.000000
184.180000 216.730000 0.000000
183.290000 215.580000 0.000000
182.500000 214.360000 0.000000
181.740000 213.110000 0.000000
181.050000 211.830000 0.000000
180.430000 210.520000 0.000000
179.930000 209.150000 0.000000
179.650000 207.720000 0.000000
179.550000 206.270000 0.000000
179.530000 204.820000 0.000000
179.580000 203.360000 0.000000
179.690000 201.910000 0.000000
179.890000 200.470000 0.000000
180.130000 199.030000 0.000000
180.600000 197.660000 0.000000
181.290000 196.380000 0.000000
182.090000 195.170000 0.000000
183.020000 194.050000 0.000000
184.050000 193.030000 0.000000
185.150000 192.070000 0.000000
186.250000 191.120000 0.000000
187.420000 190.260000 0.000000
188.660000 189.490000 0.000000
189.930000 188.780000 0.000000
191.250000 188.180000 0.000000
192.570000 187.560000 0.000000
193.960000 187.170000 0.000000
195.390000 186.860000 0.000000
196.810000 186.540000 0.000000
198.250000 186.350000 0.000000
199.710000 186.350000 0.000000
201.160000 186.350000 0.000000
202.620000 186.360000 0.000000
204.020000 186.760000 0.000000
205.360000 187.320000 0.000000
206.710000 187.850000 0.000000
207.960000 188.580000 0.000000
209.050000 189.540000 0.000000
210.120000 190.530000 0.000000
211.100000 191.600000 0.000000
211.980000 192.750000 0.000000
212.730000 194.000000 0.000000
213.370000 195.310000 0.000000
213.900000 196.660000 0.000000
214.370000 198.040000 0.000000
214.750000 199.450000 0.000000
215.050000 200.870000 0.000000
215.260000 202.310000 0.000000
215.400000 203.760000 0.000000
215.490000 205.220000 0.000000
215.540000 206.670000 0.000000
215.520000 208.130000 0.000000
215.410000 209.580000 0.000000
215.160000 211.010000 0.000000
214.750000 212.410000 0.000000
214.210000 213.760000 0.000000
213.590000 215.080000 0.000000
212.900000 216.360000 0.000000
212.090000 217.560000 0.000000
211.070000 218.600000 0.000000
209.830000 219.360000 0.000000
208.470000 219.890000 0.000000
207.080000 220.330000 0.000000
205.690000 220.740000 0.000000
204.290000 221.140000 0.000000
202.870000 221.500000 0.000000
201.440000 221.770000 0.000000
199.980000 221.940000 0.000000
198.520000 222.010000 0.000000
198.520000 222.010000 0.000000
197.070000 221.960000 0.000000
3 0 80 2
3 0 2 3
3 0 3 4
3 0 4 5
3 0 5 6
3 0 6 7
3 0 7 8
3 0 8 9
3 0 9 10
3 0 10 11
3 0 11 12
3 0 12 13
3 0 13 14
3 0 14 15
3 0 15 16
3 0 16 17
3 0 17 18
3 0 18 19
3 0 19 20
3 0 20 21
3 0 21 22
3 0 22 23
3 0 23 24
3 0 24 25
3 0 25 26
3 0 26 27
3 0 27 28
3 0 28 29
3 0 29 30
3 0 30 31
3 0 31 32
3 0 32 33
3 0 33 34
3 0 34 35
3 0 35 36
3 0 36 37
3 0 37 38
3 0 38 39
3 0 39 40
3 0 40 41
3 0 41 42
3 0 42 43
3 0 43 44
3 0 44 45
3 0 45 46
3 0 46 47
3 0 47 48
3 0 48 49
3 0 49 50
3 0 50 51
3 0 51 52
3 0 52 53
3 0 53 54
3 0 54 55
3 0 55 56
3 0 56 57
3 0 57 58
3 0 58 59
3 0 59 60
3 0 60 61
3 0 61 62
3 0 62 63
3 0 63 64
3 0 64 65
3 0 65 66
3 0 66 67
3 0 67 68
3 0 68 69
3 0 69 70
3 0 70 71
3 0 71 72
3 0 72 73
3 0 73 74
3 0 74 75
3 0 75 76
3 0 76 77
3 0 77 78
3 0 78 79
3 0 79 80
3 80 81 82
3 80 82 2
3 2 82 83
3 2 83 3
3 3 83 4
3 4 83 85
3 4 85 5
3 5 85 86
3 5 86 6
3 6 86 87
3 6 87 7
3 7 87 88
3 7 88 8
3 8 88 89
3 8 89 9
3 9 89 90
3 9 90 10
3 10 90 91
3 10 91 11
3 11 91 92
3 11 92 12
3 12 92 93
3 12 93 13
3 13 93 94
3 13 94 14
3 14 94 95
3 14 95 15
3 15 95 96
3 15 96 16
3 16 96 97
3 16 97 17
3 17 97 98
3 17 98 18
3 18 98 99
3 18 99 19
3 19 99 100
3 19 100 20
3 20 100 101
3 20 101 21
3 21 101 102
3 21 102 22
3 22 102 103
3 22 103 23
3 23 103 104
3 23 104 24
3 24 104 105
3 24 105 25
3 25 105 106
3 25 106 26
3 26 106 107
3 26 107 27
3 27 107 108
3 27 108 28
3 28 108 109
3 28 109 29
3 29 109 110
3 29 110 30
3 30 110 111
3 30 111 31
3 31 111 112
3 31 112 32
3 32 112 113
3 32 113 33
3 33 113 114
3 33 114 34
3 34 114 115
3 34 115 35
3 35 115 116
3 35 116 36
3 36 116 117
3 36 117 37
3 37 117 118
3 37 118 38
3 38 118 119
3 38 119 39
3 39 119 120
3 39 120 40
3 40 120 121
3 40 121 41
3 41 121 122
3 41 122 42
3 42 122 123
3 42 123 43
3 43 123 124
3 43 124 44
3 44 124 125
3 44 125 45
3 45 125 126
3 45 126 46
3 46 126 127
3 46 127 47
3 47 127 128
3 47 128 48
3 48 128 129
3 48 129 49
3 49 129 130
3 49 130 50
3 50 130 131
3 50 131 51
3 51 131 132
3 51 132 52
3 52 132 133
3 52 133 53
3 53 133 134
3 53 134 54
3 54 134 135
3 54 135 55
3 55 135 136
3 55 136 56
3 56 136 137
3 56 137 57
3 57 137 138
3 57 138 58
3 58 138 139
3 58 139 59
3 59 139 140
3 59 140 60
3 60 140 141
3 60 141 61
3 61 141 142
3 61 142 62
3 62 142 143
3 62 143 63
3 63 143 144
3 63 144 64
3 64 144 145
3 64 145 65
3 65 145 146
3 65 146 66
3 66 146 147
3 66 147 67
3 67 147 148
3 67 148 68
3 68 148 149
3 68 149 69
3 69 149 150
3 69 150 70
3 70 150 151
3 70 151 71
3 71 151 152
3 71 152 72
3 72 152 153
3 72 153 73
3 73 153 154
3 73 154 74
3 74 154 155
3 74 155 75
3 75 155 156
3 75 156 76
3 76 156 157
3 76 157 77
3 77 157 158
3 77 158 78
3 78 158 159
3 78 159 79
3 79 159 160
3 79 160 80
3 80 160 81
3 81 161 162
3 81 162 82
3 82 162 163
3 82 163 83
3 83 163 164
3 83 164 165
3 83 165 85
3 85 165 166
3 85 166 86
3 86 166 167
3 86 167 87
3 87 167 168
3 87 168 88
3 88 168 169
3 88 169 89
3 89 169 170
3 89 170 90
3 90 170 171
3 90 171 91
3 91 171 172
3 91 172 92
3 92 172 173
3 92 173 93
3 93 173 174
3 93 174 94
3 94 174 175
3 94 175 95
3 95 175 176
3 95 176 96
3 96 176 177
3 96 177 97
3 97 177 178
3 97 178 98
3 98 178 179
3 98 179 99
3 99 179 180
3 99 180 100
3 100 180 181
3 100 181 101
3 101 181 182
3 101 182 102
3 102 182 183
3 102 183 103
3 103 183 184
3 103 184 104
3 104 184 185
3 104 185 105
3 105 185 186
3 105 186 106
3 106 186 187
3 106 187 107
3 107 187 188
3 107 188 108
3 108 188 189
3 108 189 109
3 109 189 190
3 109 190 110
3 110 190 191
3 110 191 111
3 111 191 192
3 111 192 112
3 112 192 193
3 112 193 113
3 113 193 194
3 113 194 114
3 114 194 195
3 114 195 115
3 115 195 196
3 115 196 116
3 116 196 197
3 116 197 117
3 117 197 198
3 117 198 118
3 118 198 199
3 118 199 119
3 119 199 200
3 119 200 120
3 120 200 201
3 120 201 121
3 121 201 202
3 121 202 122
3 122 202 203
3 122 203 123
3 123 203 204
3 123 204 124
3 124 204 205
3 124 205 125
3 125 205 206
3 125 206 126
3 126 206 207
3 126 207 127
3 127 207 208
3 127 208 128
3 128 208 209
3 128 209 129
3 129 209 210
3 129 210 130
3 130 210 211
3 130 211 131
3 131 211 212
3 131 212 132
3 132 212 213
3 132 213 133
3 133 213 214
3 133 214 134
3 134 214 215
3 134 215 135
3 135 215 216
3 135 216 136
3 136 216 217
3 136 217 137
3 137 217 218
3 137 218 138
3 138 218 219
3 138 219 139
3 139 219 220
3 139 220 140
3 140 220 221
3 140 221 141
3 141 221 222
3 141 222 142
3 142 222 223
3 142 223 143
3 143 223 224
3 143 224 144
3 144 224 225
3 144 225 145
3 145 225 226
3 145 226 146
3 146 226 227
3 146 227 147
3 147 227 228
3 147 228 148
3 148 228 229
3 148 229 149
3 149 229 230
3 149 230 150
3 150 230 231
3 150 231 151
3 151 231 232
3 151 232 152
3 152 232 233
3 152 233 153
3 153 233 234
3 153 234 154
3 154 234 235
3 154 235 155
3 155 235 236
3 155 236 156
3 156 236 237
3 156 237 157
3 157 237 158
3 158 237 239
3 158 239 159
3 159 239 240
3 159 240 160
3 160 240 161
3 160 161 81
3 161 241 242
3 161 242 162
3 162 242 243
3 162 243 163
3 163 243 244
3 163 244 164
3 164 244 245
3 164 245 165
3 165 245 246
3 165 246 166
3 166 246 247
3 166 247 167
3 167 247 248
3 167 248 168
3 168 248 249
3 168 249 169
3 169 249 250
3 169 250 170
3 170 250 251
3 170 251 171
3 171 251 252
3 171 252 172
3 172 252 253
3 172 253 173
3 173 253 254
3 173 254 174
3 174 254 255
3 174 255 175
3 175 255 256
3 175 256 176
3 176 256 257
3 176 257 177
3 177 257 258
3 177 258 178
3 178 258 259
3 178 259 179
3 179 259 260
3 179 260 180
3 180 260 261
3 180 261 181
3 181 261 262
3 181 262 182
3 182 262 263
3 182 263 183
3 183 263 264
3 183 264 184
3 184 264 265
3 184 265 185
3 185 265 266
3 185 266 186
3 186 266 267
3 186 267 187
3 187 267 268
3 187 268 188
3 188 268 269
3 188 269 189
3 189 269 270
3 189 270 190
3 190 270 271
3 190 271 191
3 191 271 272
3 191 272 192
3 192 272 273
3 192 273 193
3 193 273 274
3 193 274 194
3 194 274 275
3 194 275 195
3 195 275 276
3 195 276 196
3 196 276 277
3 196 277 197
3 197 277 278
3 197 278 198
3 198 278 279
3 198 279 199
3 199 279 280
3 199 280 200
3 200 280 281
3 200 281 201
3 201 281 282
3 201 282 202
3 202 282 283
3 202 283 203
3 203 283 284
3 203 284 204
3 204 284 285
3 204 285 205
3 205 285 286
3 205 286 206
3 206 286 287
3 206 287 207
3 207 287 288
3 207 288 208
3 208 288 289
3 208 289 209
3 209 289 290
3 209 290 210
3 210 290 291
3 210 291 211
3 211 291 292
3 211 292 212
3 212 292 293
3 212 293 213
3 213 293 294
3 213 294 214
3 214 294 295
3 214 295 215
3 215 295 296
3 215 296 216
3 216 296 297
3 216 297 217
3 217 297 298
3 217 298 218
3 218 298 299
3 218 299 219
3 219 299 300
3 219 300 220
3 220 300 301
3 220 301 221
3 221 301 302
3 221 302 222
3 222 302 303
3 222 303 223
3 223 303 304
3 223 304 224
3 224 304 305
3 224 305 225
3 225 305 306
3 225 306 226
3 226 306 307
3 226 307 227
3 227 307 308
3 227 308 228
3 228 308 309
3 228 309 229
3 229 309 310
3 229 310 230
3 230 310 311
3 230 311 231
3 231 311 312
3 231 312 232
3 232 312 313
3 232 313 233
3 233 313 314
3 233 314 234
3 234 314 315
3 234 315 235
3 235 315 316
3 235 316 236
3 236 316 317
3 236 317 237
3 237 317 318
3 237 318 239
3 239 318 320
3 239 320 240
3 240 320 241
3 240 241 161
3 241 321 322
3 241 322 242
3 242 322 323
3 242 323 243
3 243 323 324
3 243 324 244
3 244 324 325
3 244 325 245
3 245 325 326
3 245 326 246
3 246 326 327
3 246 327 247
3 247 327 328
3 247 328 248
3 248 328 329
3 248 329 249
3 249 329 330
3 249 330 250
3 250 330 331
3 250 331 251
3 251 331 332
3 251 332 252
3 252 332 333
3 252 333 253
3 253 333 334
3 253 334 254
3 254 334 335
3 254 335 255
3 255 335 336
3 255 336 256
3 256 336 337
3 256 337 257
3 257 337 338
3 257 338 258
3 258 338 339
3 258 339 259
3 259 339 340
3 259 340 260
3 260 340 341
3 260 341 261
3 261 341 342
3 261 342 262
3 262 342 343
3 262 343 263
3 263 343 344
3 263 344 264
3 264 344 345
3 264 345 265
3 265 345 346
3 265 346 266
3 266 346 347
3 266 347 267
3 267 347 348
3 267 348 268
3 268 348 349
3 268 349 269
3 269 349 350
3 269 350 270
3 270 350 351
3 270 351 271
3 271 351 352
3 271 352 272
3 272 352 353
3 272 353 273
3 273 353 354
3 273 354 274
3 274 354 355
3 274 355 275
3 275 355 356
3 275 356 276
3 276 356 357
3 276 357 277
3 277 357 358
3 277 358 278
3 278 358 359
3 278 359 279
3 279 359 360
3 279 360 280
3 280 360 361
3 280 361 281
3 281 361 362
3 281 362 282
3 282 362 363
3 282 363 283
3 283 363 364
3 283 364 284
3 284 364 365
3 284 365 285
3 285 365 366
3 285 366 286
3 286 366 367
3 286 367 287
3 287 367 368
3 287 368 288
3 288 368 369
3 288 369 289
3 289 369 370
3 289 370 290
3 290 370 371
3 290 371 291
3 291 371 372
3 291 372 292
3 292 372 373
3 292 373 293
3 293 373 374
3 293 374 294
3 294 374 375
3 294 375 295
3 295 375 376
3 295 376 296
3 296 376 377
3 296 377 297
3 297 377 378
3 297 378 298
3 298 378 379
3 298 379 299
3 299 379 380
3 299 380 300
3 300 380 381
3 300 381 301
3 301 381 382
3 301 382 302
3 302 382 383
3 302 383 303
3 303 383 384
3 303 384 304
3 304 384 385
3 304 385 305
3 305 385 386
3 305 386 306
3 306 386 387
3 306 387 307
3 307 387 388
3 307 388 308
3 308 388 389
3 308 389 309
3 309 389 390
3 309 390 310
3 310 390 391
3 310 391 311
3 311 391 392
3 311 392 312
3 312 392 393
3 312 393 313
3 313 393 394
3 313 394 314
3 314 394 395
3 314 395 315
3 315 395 396
3 315 396 316
3 316 396 397
3 316 397 317
3 317 397 398
3 317 398 318
3 318 398 400
3 318 400 320
3 320 400 321
3 320 321 241
3 321 401 402
3 321 402 322
3 322 402 403
3 322 403 323
3 323 403 404
3 323 404 324
3 324 404 405
3 324 405 325
3 325 405 406
3 325 406 326
3 326 406 407
3 326 407 327
3 327 407 408
3 327 408 328
3 328 408 409
3 328 409 329
3 329 409 410
3 329 410 330
3 330 410 411
3 330 411 331
3 331 411 412
3 331 412 332
3 332 412 413
3 332 413 333
3 333 413 414
3 333 414 334
3 334 414 415
3 334 415 335
3 335 415 416
3 335 416 336
3 336 416 417
3 336 417 337
3 337 417 418
3 337 418 338
3 338 418 419
3 338 419 339
3 339 419 420
3 339 420 340
3 340 420 421
3 340 421 341
3 341 421 422
3 341 422 342
3 342 422 423
3 342 423 343
3 343 423 424
3 343 424 344
3 344 424 425
3 344 425 345
3 345 425 426
3 345 426 346
3 346 426 427
3 346 427 347
3 347 427 428
3 347 428 348
3 348 428 429
3 348 429 349
3 349 429 430
3 349 430 350
3 350 430 431
3 350 431 351
3 351 431 432
3 351 432 352
3 352 432 433
3 352 433 353
3 353 433 434
3 353 434 354
3 354 434 435
3 354 435 355
3 355 435 436
3 355 436 356
3 356 436 437
3 356 437 357
3 357 437 438
3 357 438 358
3 358 438 439
3 358 439 359
3 359 439 440
3 359 440 360
3 360 440 441
3 360 441 361
3 361 441 442
3 361 442 362
3 362 442 443
3 362 443 363
3 363 443 444
3 363 444 364
3 364 444 445
3 364 445 365
3 365 445 446
3 365 446 366
3 366 446 447
3 366 447 367
3 367 447 448
3 367 448 368
3 368 448 449
3 368 449 369
3 369 449 450
3 369 450 370
3 370 450 451
3 370 451 371
3 371 451 452
3 371 452 372
3 372 452 453
3 372 453 373
3 373 453 454
3 373 454 374
3 374 454 455
3 374 455 375
3 375 455 456
3 375 456 376
3 376 456 457
3 376 457 377
3 377 457 458
3 377 458 378
3 378 458 459
3 378 459 379
3 379 459 460
3 379 460 380
3 380 460 461
3 380 461 381
3 381 461 462
3 381 462 382
3 382 462 463
3 382 463 383
3 383 463 464
3 383 464 384
3 384 464 465
3 384 465 385
3 385 465 466
3 385 466 386
3 386 466 467
3 386 467 387
3 387 467 468
3 387 468 388
3 388 468 469
3 388 469 389
3 389 469 470
3 389 470 390
3 390 470 471
3 390 471 391
3 391 471 472
3 391 472 392
3 392 472 473
3 392 473 393
3 393 473 474
3 393 474 394
3 394 474 475
3 394 475 395
3 395 475 476
3 395 476 396
3 396 476 477
3 396 477 397
3 397 477 478
3 397 478 398
3 398 478 480
3 398 480 400
3 400 480 401
3 400 401 321
