ply 
format ascii 1.0 
comment this is a surface 
element vertex 801 
property float x 
property float y 
property float z 
element face 1501 
property list uchar int vertex_index 
end_header 
202.248250 194.644625 -77.760000
202.440000 200.090000 -77.760000
201.870000 200.090000 -77.760000
201.300000 200.090000 -77.760000
200.740000 200.090000 -77.760000
200.170000 200.090000 -77.760000
199.600000 200.090000 -77.760000
199.030000 200.090000 -77.760000
198.460000 200.090000 -77.760000
198.120000 199.870000 -77.760000
197.660000 199.600000 -77.760000
197.260000 199.330000 -77.760000
196.880000 199.050000 -77.760000
196.480000 198.650000 -77.760000
196.170000 198.330000 -77.760000
196.160000 197.770000 -77.760000
196.140000 197.230000 -77.760000
195.940000 196.860000 -77.760000
195.940000 196.290000 -77.760000
195.940000 195.720000 -77.760000
195.940000 195.150000 -77.760000
196.100000 194.650000 -77.760000
196.160000 194.110000 -77.760000
196.330000 193.580000 -77.760000
196.550000 193.090000 -77.760000
196.950000 192.690000 -77.760000
197.200000 192.230000 -77.760000
197.300000 191.720000 -77.760000
197.480000 191.340000 -77.760000
197.840000 190.920000 -77.760000
198.290000 190.620000 -77.760000
198.580000 190.350000 -77.760000
198.930000 190.050000 -77.760000
199.370000 189.740000 -77.760000
199.940000 189.740000 -77.760000
200.420000 189.520000 -77.760000
200.980000 189.520000 -77.760000
201.550000 189.520000 -77.760000
202.120000 189.520000 -77.760000
202.690000 189.520000 -77.760000
203.260000 189.520000 -77.760000
203.820000 189.520000 -77.760000
204.390000 189.520000 -77.760000
204.740000 189.740000 -77.760000
205.090000 189.960000 -77.760000
205.390000 190.390000 -77.760000
205.880000 190.660000 -77.760000
206.160000 191.060000 -77.760000
206.500000 191.280000 -77.760000
206.100000 190.880000 -77.760000
205.700000 190.480000 -77.760000
205.300000 190.080000 -77.760000
205.470000 190.250000 -77.760000
205.780000 190.720000 -77.760000
206.060000 191.050000 -77.760000
206.520000 191.300000 -77.760000
206.770000 191.770000 -77.760000
207.040000 192.160000 -77.760000
207.170000 192.600000 -77.760000
207.510000 192.820000 -77.760000
207.600000 193.300000 -77.760000
207.720000 193.820000 -77.760000
207.820000 194.350000 -77.760000
207.820000 194.920000 -77.760000
207.820000 195.480000 -77.760000
207.820000 196.050000 -77.760000
207.820000 196.620000 -77.760000
207.820000 197.190000 -77.760000
207.540000 197.510000 -77.760000
207.080000 197.760000 -77.760000
206.720000 198.180000 -77.760000
206.500000 198.530000 -77.760000
206.120000 198.930000 -77.760000
205.790000 199.210000 -77.760000
205.220000 199.210000 -77.760000
204.680000 199.270000 -77.760000
204.180000 199.430000 -77.760000
203.640000 199.460000 -77.760000
203.260000 199.650000 -77.760000
202.780000 199.850000 -77.760000
202.440000 200.090000 -77.760000
205.650000 208.430000 -69.120000
204.410000 208.890000 -69.120000
204.410000 208.890000 -69.120000
203.110000 209.150000 -69.120000
201.840000 209.510000 -69.120000
200.530000 209.650000 -69.120000
199.220000 209.820000 -69.120000
198.130000 209.170000 -69.120000
196.950000 208.570000 -69.120000
195.800000 207.910000 -69.120000
194.740000 207.120000 -69.120000
193.770000 206.220000 -69.120000
192.820000 205.290000 -69.120000
191.860000 204.370000 -69.120000
190.930000 203.430000 -69.120000
190.060000 202.420000 -69.120000
189.400000 201.270000 -69.120000
189.040000 200.000000 -69.120000
188.760000 198.700000 -69.120000
188.300000 197.450000 -69.120000
187.700000 196.270000 -69.120000
187.030000 195.120000 -69.120000
186.390000 193.970000 -69.120000
185.990000 192.710000 -69.120000
186.310000 191.470000 -69.120000
186.720000 190.210000 -69.120000
187.100000 188.940000 -69.120000
187.510000 187.680000 -69.120000
187.910000 186.420000 -69.120000
188.330000 185.160000 -69.120000
188.910000 183.970000 -69.120000
189.680000 182.900000 -69.120000
190.620000 181.960000 -69.120000
191.670000 181.160000 -69.120000
192.810000 180.480000 -69.120000
194.000000 179.880000 -69.120000
195.230000 179.390000 -69.120000
196.500000 179.010000 -69.120000
197.800000 178.750000 -69.120000
199.120000 178.620000 -69.120000
200.440000 178.570000 -69.120000
201.770000 178.530000 -69.120000
203.090000 178.420000 -69.120000
204.400000 178.220000 -69.120000
205.710000 177.980000 -69.120000
207.020000 177.780000 -69.120000
208.340000 177.670000 -69.120000
209.670000 177.640000 -69.120000
211.000000 177.630000 -69.120000
212.320000 177.670000 -69.120000
213.640000 177.840000 -69.120000
214.890000 178.250000 -69.120000
216.030000 178.920000 -69.120000
217.040000 179.770000 -69.120000
217.930000 180.760000 -69.120000
218.680000 181.850000 -69.120000
219.320000 183.010000 -69.120000
219.870000 184.210000 -69.120000
220.330000 185.460000 -69.120000
220.520000 186.750000 -69.120000
220.220000 188.010000 -69.120000
219.590000 189.180000 -69.120000
219.070000 190.400000 -69.120000
218.650000 191.650000 -69.120000
218.170000 192.890000 -69.120000
217.680000 194.100000 -69.120000
216.850000 195.140000 -69.120000
216.170000 196.280000 -69.120000
215.490000 197.410000 -69.120000
215.160000 198.700000 -69.120000
214.720000 199.950000 -69.120000
214.240000 201.180000 -69.120000
213.690000 202.400000 -69.120000
213.180000 203.620000 -69.120000
212.150000 204.430000 -69.120000
211.100000 205.240000 -69.120000
209.990000 205.970000 -69.120000
208.780000 206.500000 -69.120000
207.670000 207.210000 -69.120000
206.660000 207.590000 -69.120000
204.530000 215.790000 -60.480000
202.150000 215.780000 -60.480000
199.790000 215.590000 -60.480000
197.450000 215.140000 -60.480000
195.190000 214.420000 -60.480000
192.990000 213.520000 -60.480000
190.850000 212.470000 -60.480000
188.770000 211.330000 -60.480000
186.750000 210.070000 -60.480000
184.820000 208.680000 -60.480000
183.020000 207.130000 -60.480000
181.410000 205.390000 -60.480000
180.060000 203.430000 -60.480000
179.020000 201.300000 -60.480000
178.220000 199.060000 -60.480000
177.600000 196.770000 -60.480000
177.130000 194.440000 -60.480000
176.840000 192.080000 -60.480000
176.730000 189.710000 -60.480000
176.770000 187.330000 -60.480000
176.910000 184.950000 -60.480000
177.120000 182.590000 -60.480000
177.430000 180.230000 -60.480000
177.900000 177.900000 -60.480000
178.710000 175.680000 -60.480000
180.090000 173.780000 -60.480000
182.000000 172.400000 -60.480000
184.180000 171.460000 -60.480000
186.460000 170.820000 -60.480000
188.810000 170.490000 -60.480000
191.180000 170.540000 -60.480000
193.520000 170.940000 -60.480000
195.820000 171.560000 -60.480000
198.100000 172.220000 -60.480000
200.420000 172.730000 -60.480000
202.600000 172.260000 -60.480000
204.770000 171.340000 -60.480000
207.090000 170.840000 -60.480000
209.430000 170.410000 -60.480000
211.730000 169.810000 -60.480000
214.000000 169.100000 -60.480000
216.340000 168.800000 -60.480000
218.710000 168.630000 -60.480000
221.060000 168.310000 -60.480000
223.430000 168.180000 -60.480000
225.740000 168.670000 -60.480000
227.980000 169.450000 -60.480000
230.110000 170.510000 -60.480000
232.160000 171.700000 -60.480000
234.350000 172.600000 -60.480000
236.560000 173.490000 -60.480000
238.650000 174.620000 -60.480000
239.910000 176.560000 -60.480000
240.690000 178.790000 -60.480000
241.310000 181.090000 -60.480000
241.340000 183.460000 -60.480000
241.340000 185.840000 -60.480000
241.340000 188.220000 -60.480000
241.340000 190.600000 -60.480000
240.880000 192.670000 -60.480000
239.970000 194.140000 -60.480000
238.960000 195.770000 -60.480000
238.960000 195.770000 -60.480000
237.490000 196.680000 -60.480000
235.470000 197.540000 -60.480000
233.380000 198.250000 -60.480000
231.680000 199.880000 -60.480000
229.990000 201.070000 -60.480000
228.130000 202.540000 -60.480000
226.350000 204.120000 -60.480000
224.660000 205.780000 -60.480000
223.280000 207.720000 -60.480000
221.830000 209.610000 -60.480000
220.090000 211.230000 -60.480000
218.180000 212.650000 -60.480000
216.140000 213.870000 -60.480000
213.960000 214.800000 -60.480000
211.650000 215.370000 -60.480000
209.290000 215.620000 -60.480000
206.910000 215.720000 -60.480000
204.670000 223.080000 -51.840000
201.680000 223.210000 -51.840000
198.680000 223.260000 -51.840000
195.700000 223.060000 -51.840000
192.800000 222.320000 -51.840000
190.030000 221.190000 -51.840000
187.370000 219.800000 -51.840000
184.800000 218.270000 -51.840000
182.270000 216.660000 -51.840000
179.800000 214.960000 -51.840000
177.460000 213.080000 -51.840000
175.320000 210.990000 -51.840000
173.470000 208.640000 -51.840000
172.010000 206.020000 -51.840000
170.860000 203.260000 -51.840000
169.890000 200.420000 -51.840000
169.140000 197.520000 -51.840000
168.680000 194.560000 -51.840000
168.590000 191.570000 -51.840000
168.850000 188.580000 -51.840000
169.370000 185.630000 -51.840000
170.080000 182.720000 -51.840000
170.910000 179.840000 -51.840000
171.810000 176.980000 -51.840000
172.750000 174.140000 -51.840000
173.800000 171.330000 -51.840000
175.120000 168.650000 -51.840000
177.040000 166.360000 -51.840000
179.540000 164.710000 -51.840000
182.270000 163.470000 -51.840000
185.130000 162.590000 -51.840000
188.090000 162.170000 -51.840000
191.050000 162.630000 -51.840000
193.870000 163.620000 -51.840000
196.840000 163.970000 -51.840000
199.840000 163.900000 -51.840000
202.840000 163.770000 -51.840000
205.830000 163.610000 -51.840000
208.820000 163.460000 -51.840000
211.820000 163.330000 -51.840000
214.810000 163.250000 -51.840000
217.810000 163.230000 -51.840000
220.810000 163.230000 -51.840000
223.800000 163.230000 -51.840000
226.800000 163.230000 -51.840000
229.800000 163.250000 -51.840000
232.790000 163.460000 -51.840000
235.730000 164.040000 -51.840000
238.570000 164.980000 -51.840000
241.310000 166.220000 -51.840000
243.850000 167.800000 -51.840000
246.060000 169.820000 -51.840000
247.800000 172.270000 -51.840000
248.700000 175.120000 -51.840000
248.640000 178.120000 -51.840000
248.120000 181.070000 -51.840000
247.400000 183.980000 -51.840000
246.240000 186.740000 -51.840000
244.610000 189.260000 -51.840000
242.800000 191.650000 -51.840000
242.220000 193.880000 -51.840000
240.690000 196.130000 -51.840000
239.740000 198.200000 -51.840000
239.740000 198.200000 -51.840000
238.370000 199.820000 -51.840000
237.380000 202.090000 -51.840000
236.090000 203.800000 -51.840000
235.180000 206.420000 -51.840000
233.930000 206.460000 -51.840000
231.610000 208.350000 -51.840000
230.440000 210.780000 -51.840000
228.700000 213.220000 -51.840000
226.780000 215.510000 -51.840000
224.570000 217.530000 -51.840000
222.040000 219.120000 -51.840000
219.320000 220.390000 -51.840000
216.510000 221.410000 -51.840000
213.610000 222.180000 -51.840000
210.650000 222.640000 -51.840000
207.670000 222.900000 -51.840000
208.110000 227.150000 -43.200000
204.960000 227.280000 -43.200000
201.810000 227.380000 -43.200000
198.660000 227.450000 -43.200000
195.500000 227.490000 -43.200000
192.360000 227.330000 -43.200000
189.330000 226.450000 -43.200000
186.510000 225.050000 -43.200000
183.870000 223.320000 -43.200000
181.380000 221.380000 -43.200000
178.990000 219.320000 -43.200000
176.650000 217.210000 -43.200000
174.420000 214.970000 -43.200000
172.370000 212.580000 -43.200000
170.510000 210.030000 -43.200000
168.920000 207.310000 -43.200000
167.690000 204.400000 -43.200000
166.710000 201.400000 -43.200000
165.860000 198.370000 -43.200000
165.160000 195.290000 -43.200000
164.660000 192.180000 -43.200000
164.450000 189.030000 -43.200000
164.580000 185.880000 -43.200000
165.030000 182.750000 -43.200000
165.710000 179.680000 -43.200000
166.590000 176.640000 -43.200000
167.640000 173.670000 -43.200000
168.850000 170.760000 -43.200000
170.420000 168.020000 -43.200000
172.400000 165.570000 -43.200000
174.670000 163.380000 -43.200000
177.180000 161.470000 -43.200000
179.930000 159.940000 -43.200000
182.900000 158.860000 -43.200000
185.940000 158.020000 -43.200000
189.020000 157.340000 -43.200000
192.130000 156.800000 -43.200000
195.260000 156.420000 -43.200000
198.400000 156.190000 -43.200000
201.550000 156.000000 -43.200000
204.700000 155.830000 -43.200000
207.850000 155.690000 -43.200000
211.010000 155.600000 -43.200000
214.160000 155.540000 -43.200000
217.320000 155.550000 -43.200000
220.460000 155.760000 -43.200000
223.600000 156.110000 -43.200000
226.720000 156.590000 -43.200000
229.770000 157.390000 -43.200000
232.750000 158.420000 -43.200000
235.680000 159.600000 -43.200000
238.520000 160.960000 -43.200000
241.230000 162.570000 -43.200000
243.670000 164.570000 -43.200000
245.390000 167.190000 -43.200000
246.560000 170.120000 -43.200000
247.430000 173.150000 -43.200000
248.030000 176.250000 -43.200000
248.240000 179.400000 -43.200000
247.950000 182.540000 -43.200000
247.270000 185.620000 -43.200000
246.300000 188.620000 -43.200000
245.140000 191.550000 -43.200000
243.840000 194.430000 -43.200000
242.460000 197.260000 -43.200000
241.050000 200.090000 -43.200000
239.450000 202.800000 -43.200000
237.590000 205.350000 -43.200000
235.640000 207.840000 -43.200000
233.710000 210.330000 -43.200000
231.750000 212.800000 -43.200000
229.690000 215.190000 -43.200000
227.450000 217.410000 -43.200000
224.960000 219.340000 -43.200000
222.370000 221.150000 -43.200000
219.720000 222.850000 -43.200000
216.970000 224.410000 -43.200000
214.110000 225.730000 -43.200000
211.110000 226.700000 -43.200000
208.110000 227.150000 -43.200000
205.490000 229.620000 -34.560000
201.880000 229.970000 -34.560000
198.270000 229.560000 -34.560000
194.830000 228.400000 -34.560000
191.580000 226.780000 -34.560000
188.480000 224.880000 -34.560000
185.480000 222.840000 -34.560000
182.490000 220.770000 -34.560000
179.490000 218.730000 -34.560000
176.550000 216.600000 -34.560000
173.740000 214.290000 -34.560000
171.140000 211.750000 -34.560000
168.910000 208.890000 -34.560000
167.120000 205.730000 -34.560000
165.520000 202.470000 -34.560000
164.150000 199.100000 -34.560000
163.100000 195.620000 -34.560000
162.520000 192.040000 -34.560000
162.520000 188.410000 -34.560000
162.850000 184.790000 -34.560000
163.420000 181.200000 -34.560000
164.180000 177.650000 -34.560000
165.140000 174.150000 -34.560000
166.310000 170.710000 -34.560000
167.800000 167.400000 -34.560000
170.130000 164.620000 -34.560000
172.930000 162.300000 -34.560000
175.990000 160.350000 -34.560000
179.250000 158.750000 -34.560000
182.670000 157.530000 -34.560000
186.190000 156.620000 -34.560000
189.750000 155.900000 -34.560000
193.330000 155.270000 -34.560000
196.910000 154.650000 -34.560000
200.480000 153.980000 -34.560000
204.060000 153.320000 -34.560000
207.640000 152.710000 -34.560000
211.220000 152.110000 -34.560000
214.800000 151.490000 -34.560000
218.370000 150.820000 -34.560000
221.920000 150.060000 -34.560000
225.410000 149.040000 -34.560000
228.800000 147.740000 -34.560000
232.180000 146.390000 -34.560000
235.630000 145.260000 -34.560000
239.210000 144.680000 -34.560000
242.840000 144.900000 -34.560000
246.390000 145.680000 -34.560000
249.830000 146.830000 -34.560000
253.110000 148.370000 -34.560000
256.020000 150.520000 -34.560000
257.610000 153.740000 -34.560000
258.530000 157.260000 -34.560000
259.160000 160.830000 -34.560000
259.530000 164.450000 -34.560000
259.530000 168.080000 -34.560000
259.060000 171.680000 -34.560000
258.250000 175.220000 -34.560000
257.190000 178.700000 -34.560000
255.980000 182.130000 -34.560000
254.690000 185.520000 -34.560000
253.380000 188.910000 -34.560000
251.760000 192.170000 -34.560000
249.960000 195.320000 -34.560000
248.160000 198.480000 -34.560000
246.340000 201.620000 -34.560000
244.200000 204.550000 -34.560000
241.520000 207.010000 -34.560000
238.540000 209.080000 -34.560000
235.420000 210.940000 -34.560000
232.270000 212.760000 -34.560000
229.210000 214.710000 -34.560000
226.360000 216.960000 -34.560000
223.830000 219.570000 -34.560000
221.400000 222.270000 -34.560000
218.780000 224.790000 -34.560000
215.930000 226.550000 -34.560000
212.520000 227.810000 -34.560000
212.520000 227.810000 -34.560000
209.040000 228.850000 -34.560000
203.250000 230.260000 -25.920000
199.220000 230.130000 -25.920000
195.230000 229.480000 -25.920000
191.330000 228.440000 -25.920000
187.520000 227.110000 -25.920000
183.800000 225.550000 -25.920000
180.170000 223.780000 -25.920000
176.730000 221.680000 -25.920000
173.660000 219.070000 -25.920000
170.900000 216.120000 -25.920000
168.450000 212.910000 -25.920000
166.320000 209.480000 -25.920000
164.500000 205.880000 -25.920000
162.830000 202.210000 -25.920000
161.360000 198.450000 -25.920000
160.180000 194.590000 -25.920000
159.430000 190.620000 -25.920000
159.270000 186.590000 -25.920000
159.720000 182.580000 -25.920000
160.590000 178.640000 -25.920000
161.760000 174.780000 -25.920000
163.120000 170.980000 -25.920000
164.570000 167.210000 -25.920000
166.040000 163.450000 -25.920000
167.550000 159.710000 -25.920000
169.240000 156.040000 -25.920000
171.210000 152.520000 -25.920000
173.640000 149.300000 -25.920000
176.630000 146.600000 -25.920000
179.990000 144.370000 -25.920000
183.670000 142.710000 -25.920000
187.610000 141.900000 -25.920000
191.630000 141.490000 -25.920000
195.660000 141.280000 -25.920000
199.690000 141.260000 -25.920000
203.730000 141.270000 -25.920000
207.770000 141.290000 -25.920000
211.790000 141.550000 -25.920000
215.620000 142.820000 -25.920000
219.390000 144.260000 -25.920000
223.380000 144.880000 -25.920000
227.410000 144.730000 -25.920000
231.430000 144.400000 -25.920000
235.450000 143.980000 -25.920000
239.460000 143.570000 -25.920000
243.490000 143.260000 -25.920000
247.520000 143.070000 -25.920000
251.550000 142.910000 -25.920000
255.590000 142.830000 -25.920000
259.610000 143.150000 -25.920000
263.510000 144.190000 -25.920000
266.820000 146.360000 -25.920000
268.050000 150.200000 -25.920000
267.580000 154.210000 -25.920000
266.580000 158.120000 -25.920000
265.270000 161.930000 -25.920000
263.790000 165.690000 -25.920000
262.270000 169.430000 -25.920000
260.810000 173.190000 -25.920000
259.280000 176.920000 -25.920000
257.580000 180.590000 -25.920000
255.730000 184.170000 -25.920000
253.710000 187.670000 -25.920000
251.520000 191.060000 -25.920000
249.140000 194.320000 -25.920000
246.580000 197.440000 -25.920000
243.860000 200.430000 -25.920000
241.060000 203.330000 -25.920000
238.210000 206.190000 -25.920000
235.350000 209.040000 -25.920000
232.550000 211.940000 -25.920000
229.920000 215.000000 -25.920000
227.390000 218.150000 -25.920000
224.770000 221.220000 -25.920000
221.850000 224.000000 -25.920000
218.730000 225.970000 -25.920000
215.000000 227.500000 -25.920000
215.000000 227.500000 -25.920000
211.170000 228.780000 -25.920000
207.260000 229.750000 -25.920000
204.060000 230.320000 -17.280000
199.940000 230.840000 -17.280000
195.810000 230.530000 -17.280000
191.820000 229.410000 -17.280000
188.010000 227.760000 -17.280000
184.380000 225.750000 -17.280000
180.900000 223.490000 -17.280000
177.530000 221.080000 -17.280000
174.280000 218.500000 -17.280000
171.280000 215.630000 -17.280000
168.550000 212.510000 -17.280000
166.110000 209.160000 -17.280000
164.040000 205.560000 -17.280000
162.450000 201.730000 -17.280000
161.070000 197.820000 -17.280000
159.870000 193.850000 -17.280000
158.910000 189.810000 -17.280000
158.270000 185.710000 -17.280000
158.090000 181.570000 -17.280000
158.700000 177.470000 -17.280000
159.950000 173.520000 -17.280000
161.600000 169.710000 -17.280000
163.460000 166.000000 -17.280000
165.370000 162.320000 -17.280000
167.180000 158.590000 -17.280000
168.900000 154.810000 -17.280000
170.830000 151.140000 -17.280000
173.300000 147.810000 -17.280000
176.260000 144.900000 -17.280000
179.460000 142.260000 -17.280000
182.920000 139.980000 -17.280000
186.670000 138.200000 -17.280000
190.690000 137.220000 -17.280000
194.830000 136.990000 -17.280000
198.980000 136.860000 -17.280000
203.130000 136.780000 -17.280000
207.270000 136.850000 -17.280000
211.400000 137.240000 -17.280000
215.500000 137.880000 -17.280000
219.550000 138.770000 -17.280000
223.340000 140.470000 -17.280000
227.150000 142.100000 -17.280000
231.250000 142.720000 -17.280000
235.390000 143.030000 -17.280000
239.530000 143.220000 -17.280000
243.680000 143.220000 -17.280000
247.820000 143.020000 -17.280000
251.960000 142.700000 -17.280000
256.090000 142.370000 -17.280000
260.230000 142.150000 -17.280000
263.910000 143.740000 -17.280000
266.530000 146.910000 -17.280000
268.520000 150.540000 -17.280000
270.080000 154.380000 -17.280000
271.150000 158.390000 -17.280000
271.540000 162.510000 -17.280000
271.030000 166.620000 -17.280000
269.970000 170.630000 -17.280000
268.560000 174.530000 -17.280000
266.310000 178.010000 -17.280000
263.550000 181.110000 -17.280000
260.750000 184.160000 -17.280000
258.000000 187.280000 -17.280000
255.190000 190.330000 -17.280000
252.340000 193.340000 -17.280000
249.490000 196.360000 -17.280000
246.690000 199.420000 -17.280000
243.930000 202.520000 -17.280000
241.170000 205.610000 -17.280000
238.350000 208.660000 -17.280000
235.440000 211.610000 -17.280000
232.390000 214.430000 -17.280000
229.290000 217.180000 -17.280000
226.160000 219.900000 -17.280000
222.900000 222.470000 -17.280000
219.450000 224.770000 -17.280000
215.900000 226.520000 -17.280000
215.900000 226.520000 -17.280000
212.020000 227.990000 -17.280000
208.080000 229.310000 -17.280000
202.560000 228.530000 -8.640000
198.300000 228.600000 -8.640000
194.050000 228.470000 -8.640000
189.900000 227.560000 -8.640000
185.930000 226.020000 -8.640000
182.170000 224.020000 -8.640000
178.620000 221.680000 -8.640000
175.260000 219.060000 -8.640000
172.140000 216.170000 -8.640000
169.390000 212.920000 -8.640000
167.060000 209.360000 -8.640000
165.050000 205.610000 -8.640000
163.380000 201.700000 -8.640000
162.070000 197.650000 -8.640000
161.180000 193.480000 -8.640000
160.480000 189.290000 -8.640000
159.890000 185.070000 -8.640000
159.410000 180.840000 -8.640000
159.090000 176.600000 -8.640000
158.940000 172.340000 -8.640000
159.890000 168.210000 -8.640000
162.120000 164.580000 -8.640000
164.740000 161.230000 -8.640000
167.230000 157.780000 -8.640000
169.090000 153.950000 -8.640000
170.510000 149.930000 -8.640000
172.300000 146.080000 -8.640000
174.290000 142.310000 -8.640000
176.470000 138.660000 -8.640000
178.970000 135.220000 -8.640000
182.020000 132.280000 -8.640000
185.880000 130.690000 -8.640000
190.110000 130.250000 -8.640000
194.360000 129.990000 -8.640000
198.610000 129.810000 -8.640000
202.870000 129.710000 -8.640000
207.120000 129.760000 -8.640000
211.320000 130.460000 -8.640000
215.380000 131.730000 -8.640000
219.350000 133.250000 -8.640000
223.330000 134.780000 -8.640000
227.380000 136.060000 -8.640000
231.570000 136.810000 -8.640000
235.820000 136.900000 -8.640000
240.080000 136.850000 -8.640000
244.330000 136.760000 -8.640000
248.590000 136.670000 -8.640000
252.850000 136.590000 -8.640000
257.100000 136.550000 -8.640000
260.450000 139.060000 -8.640000
262.690000 142.680000 -8.640000
265.110000 146.180000 -8.640000
267.620000 149.630000 -8.640000
269.580000 153.390000 -8.640000
270.090000 157.580000 -8.640000
269.750000 161.820000 -8.640000
269.080000 166.020000 -8.640000
268.190000 170.180000 -8.640000
267.080000 174.290000 -8.640000
265.610000 178.290000 -8.640000
263.270000 181.840000 -8.640000
260.420000 185.000000 -8.640000
257.370000 187.970000 -8.640000
254.280000 190.900000 -8.640000
250.940000 193.530000 -8.640000
247.430000 195.930000 -8.640000
244.020000 198.490000 -8.640000
241.120000 201.590000 -8.640000
238.970000 205.260000 -8.640000
237.180000 209.120000 -8.640000
235.370000 212.980000 -8.640000
233.660000 216.880000 -8.640000
230.930000 220.110000 -8.640000
227.220000 222.190000 -8.640000
223.280000 223.780000 -8.640000
219.120000 225.240000 -8.640000
215.120000 226.710000 -8.640000
215.120000 226.710000 -8.640000
211.050000 227.930000 -8.640000
206.820000 228.390000 -8.640000
203.210000 228.090000 0.000000
198.680000 227.800000 0.000000
194.140000 227.720000 0.000000
189.660000 226.960000 0.000000
185.430000 225.300000 0.000000
181.250000 223.540000 0.000000
177.280000 221.340000 0.000000
173.610000 218.660000 0.000000
170.360000 215.490000 0.000000
167.630000 211.860000 0.000000
164.850000 208.270000 0.000000
162.030000 204.710000 0.000000
159.880000 200.710000 0.000000
158.430000 196.410000 0.000000
157.490000 191.960000 0.000000
157.440000 187.420000 0.000000
157.320000 182.880000 0.000000
157.590000 178.350000 0.000000
158.640000 173.930000 0.000000
160.410000 169.750000 0.000000
162.460000 165.700000 0.000000
164.390000 161.580000 0.000000
166.230000 157.440000 0.000000
167.760000 153.160000 0.000000
169.000000 148.790000 0.000000
168.810000 144.250000 0.000000
169.170000 139.730000 0.000000
171.000000 135.570000 0.000000
174.160000 132.300000 0.000000
177.570000 129.310000 0.000000
180.850000 126.170000 0.000000
184.740000 123.820000 0.000000
189.060000 122.430000 0.000000
193.510000 121.510000 0.000000
198.030000 121.130000 0.000000
202.560000 121.430000 0.000000
206.880000 122.850000 0.000000
210.910000 124.930000 0.000000
215.020000 126.870000 0.000000
219.400000 128.060000 0.000000
223.880000 128.850000 0.000000
228.350000 129.620000 0.000000
232.870000 130.080000 0.000000
237.410000 130.170000 0.000000
241.910000 129.520000 0.000000
246.430000 129.120000 0.000000
250.970000 129.060000 0.000000
255.510000 129.130000 0.000000
260.030000 129.600000 0.000000
264.290000 131.160000 0.000000
267.970000 133.820000 0.000000
271.000000 137.210000 0.000000
273.190000 141.180000 0.000000
274.480000 145.540000 0.000000
275.050000 150.040000 0.000000
275.040000 154.580000 0.000000
274.270000 159.060000 0.000000
272.860000 163.380000 0.000000
271.120000 167.570000 0.000000
269.200000 171.680000 0.000000
267.090000 175.710000 0.000000
264.860000 179.660000 0.000000
262.390000 183.480000 0.000000
259.460000 186.950000 0.000000
256.040000 189.930000 0.000000
252.280000 192.470000 0.000000
248.700000 195.270000 0.000000
244.520000 197.040000 0.000000
240.760000 199.600000 0.000000
238.280000 203.400000 0.000000
235.830000 207.220000 0.000000
233.040000 210.800000 0.000000
229.580000 213.750000 0.000000
225.720000 216.140000 0.000000
222.800000 219.620000 0.000000
220.140000 223.300000 0.000000
216.590000 225.940000 0.000000
216.590000 225.940000 0.000000
212.170000 227.000000 0.000000
207.750000 228.050000 0.000000
3 0 80 2
3 0 2 3
3 0 3 4
3 0 4 5
3 0 5 6
3 0 6 7
3 0 7 8
3 0 8 9
3 0 9 10
3 0 10 11
3 0 11 12
3 0 12 13
3 0 13 14
3 0 14 15
3 0 15 16
3 0 16 17
3 0 17 18
3 0 18 19
3 0 19 20
3 0 20 21
3 0 21 22
3 0 22 23
3 0 23 24
3 0 24 25
3 0 25 26
3 0 26 27
3 0 27 28
3 0 28 29
3 0 29 30
3 0 30 31
3 0 31 32
3 0 32 33
3 0 33 34
3 0 34 35
3 0 35 36
3 0 36 37
3 0 37 38
3 0 38 39
3 0 39 40
3 0 40 41
3 0 41 42
3 0 42 43
3 0 43 44
3 0 44 45
3 0 45 46
3 0 46 47
3 0 47 48
3 0 48 49
3 0 49 50
3 0 50 51
3 0 51 52
3 0 52 53
3 0 53 54
3 0 54 55
3 0 55 56
3 0 56 57
3 0 57 58
3 0 58 59
3 0 59 60
3 0 60 61
3 0 61 62
3 0 62 63
3 0 63 64
3 0 64 65
3 0 65 66
3 0 66 67
3 0 67 68
3 0 68 69
3 0 69 70
3 0 70 71
3 0 71 72
3 0 72 73
3 0 73 74
3 0 74 75
3 0 75 76
3 0 76 77
3 0 77 78
3 0 78 79
3 0 79 80
3 80 81 82
3 80 82 2
3 2 82 3
3 3 82 84
3 3 84 4
3 4 84 85
3 4 85 5
3 5 85 86
3 5 86 6
3 6 86 87
3 6 87 7
3 7 87 88
3 7 88 8
3 8 88 89
3 8 89 9
3 9 89 90
3 9 90 10
3 10 90 91
3 10 91 11
3 11 91 92
3 11 92 12
3 12 92 93
3 12 93 13
3 13 93 94
3 13 94 14
3 14 94 95
3 14 95 15
3 15 95 96
3 15 96 16
3 16 96 97
3 16 97 17
3 17 97 98
3 17 98 18
3 18 98 99
3 18 99 19
3 19 99 100
3 19 100 20
3 20 100 101
3 20 101 21
3 21 101 102
3 21 102 22
3 22 102 103
3 22 103 23
3 23 103 104
3 23 104 24
3 24 104 105
3 24 105 25
3 25 105 106
3 25 106 26
3 26 106 107
3 26 107 27
3 27 107 108
3 27 108 28
3 28 108 109
3 28 109 29
3 29 109 110
3 29 110 30
3 30 110 111
3 30 111 31
3 31 111 112
3 31 112 32
3 32 112 113
3 32 113 33
3 33 113 114
3 33 114 34
3 34 114 115
3 34 115 35
3 35 115 116
3 35 116 36
3 36 116 117
3 36 117 37
3 37 117 118
3 37 118 38
3 38 118 119
3 38 119 39
3 39 119 120
3 39 120 40
3 40 120 121
3 40 121 41
3 41 121 122
3 41 122 42
3 42 122 123
3 42 123 43
3 43 123 124
3 43 124 44
3 44 124 125
3 44 125 45
3 45 125 126
3 45 126 46
3 46 126 127
3 46 127 47
3 47 127 128
3 47 128 48
3 48 128 129
3 48 129 49
3 49 129 130
3 49 130 50
3 50 130 131
3 50 131 51
3 51 131 132
3 51 132 52
3 52 132 133
3 52 133 53
3 53 133 134
3 53 134 54
3 54 134 135
3 54 135 55
3 55 135 136
3 55 136 56
3 56 136 137
3 56 137 57
3 57 137 138
3 57 138 58
3 58 138 139
3 58 139 59
3 59 139 140
3 59 140 60
3 60 140 141
3 60 141 61
3 61 141 142
3 61 142 62
3 62 142 143
3 62 143 63
3 63 143 144
3 63 144 64
3 64 144 145
3 64 145 65
3 65 145 146
3 65 146 66
3 66 146 147
3 66 147 67
3 67 147 148
3 67 148 68
3 68 148 149
3 68 149 69
3 69 149 150
3 69 150 70
3 70 150 151
3 70 151 71
3 71 151 152
3 71 152 72
3 72 152 153
3 72 153 73
3 73 153 154
3 73 154 74
3 74 154 155
3 74 155 75
3 75 155 156
3 75 156 76
3 76 156 157
3 76 157 77
3 77 157 158
3 77 158 78
3 78 158 159
3 78 159 79
3 79 159 160
3 79 160 80
3 80 160 81
3 81 161 162
3 81 162 82
3 82 162 163
3 82 163 164
3 82 164 84
3 84 164 165
3 84 165 85
3 85 165 166
3 85 166 86
3 86 166 167
3 86 167 87
3 87 167 168
3 87 168 88
3 88 168 169
3 88 169 89
3 89 169 170
3 89 170 90
3 90 170 171
3 90 171 91
3 91 171 172
3 91 172 92
3 92 172 173
3 92 173 93
3 93 173 174
3 93 174 94
3 94 174 175
3 94 175 95
3 95 175 176
3 95 176 96
3 96 176 177
3 96 177 97
3 97 177 178
3 97 178 98
3 98 178 179
3 98 179 99
3 99 179 180
3 99 180 100
3 100 180 181
3 100 181 101
3 101 181 182
3 101 182 102
3 102 182 183
3 102 183 103
3 103 183 184
3 103 184 104
3 104 184 185
3 104 185 105
3 105 185 186
3 105 186 106
3 106 186 187
3 106 187 107
3 107 187 188
3 107 188 108
3 108 188 189
3 108 189 109
3 109 189 190
3 109 190 110
3 110 190 191
3 110 191 111
3 111 191 192
3 111 192 112
3 112 192 193
3 112 193 113
3 113 193 194
3 113 194 114
3 114 194 195
3 114 195 115
3 115 195 196
3 115 196 116
3 116 196 197
3 116 197 117
3 117 197 198
3 117 198 118
3 118 198 199
3 118 199 119
3 119 199 200
3 119 200 120
3 120 200 201
3 120 201 121
3 121 201 202
3 121 202 122
3 122 202 203
3 122 203 123
3 123 203 204
3 123 204 124
3 124 204 205
3 124 205 125
3 125 205 206
3 125 206 126
3 126 206 207
3 126 207 127
3 127 207 208
3 127 208 128
3 128 208 209
3 128 209 129
3 129 209 210
3 129 210 130
3 130 210 211
3 130 211 131
3 131 211 212
3 131 212 132
3 132 212 213
3 132 213 133
3 133 213 214
3 133 214 134
3 134 214 215
3 134 215 135
3 135 215 216
3 135 216 136
3 136 216 217
3 136 217 137
3 137 217 218
3 137 218 138
3 138 218 219
3 138 219 139
3 139 219 220
3 139 220 140
3 140 220 221
3 140 221 141
3 141 221 222
3 141 222 142
3 142 222 143
3 143 222 224
3 143 224 144
3 144 224 225
3 144 225 145
3 145 225 226
3 145 226 146
3 146 226 227
3 146 227 147
3 147 227 228
3 147 228 148
3 148 228 229
3 148 229 149
3 149 229 230
3 149 230 150
3 150 230 231
3 150 231 151
3 151 231 232
3 151 232 152
3 152 232 233
3 152 233 153
3 153 233 234
3 153 234 154
3 154 234 235
3 154 235 155
3 155 235 236
3 155 236 156
3 156 236 237
3 156 237 157
3 157 237 238
3 157 238 158
3 158 238 239
3 158 239 159
3 159 239 240
3 159 240 160
3 160 240 161
3 160 161 81
3 161 241 242
3 161 242 162
3 162 242 243
3 162 243 163
3 163 243 244
3 163 244 164
3 164 244 245
3 164 245 165
3 165 245 246
3 165 246 166
3 166 246 247
3 166 247 167
3 167 247 248
3 167 248 168
3 168 248 249
3 168 249 169
3 169 249 250
3 169 250 170
3 170 250 251
3 170 251 171
3 171 251 252
3 171 252 172
3 172 252 253
3 172 253 173
3 173 253 254
3 173 254 174
3 174 254 255
3 174 255 175
3 175 255 256
3 175 256 176
3 176 256 257
3 176 257 177
3 177 257 258
3 177 258 178
3 178 258 259
3 178 259 179
3 179 259 260
3 179 260 180
3 180 260 261
3 180 261 181
3 181 261 262
3 181 262 182
3 182 262 263
3 182 263 183
3 183 263 264
3 183 264 184
3 184 264 265
3 184 265 185
3 185 265 266
3 185 266 186
3 186 266 267
3 186 267 187
3 187 267 268
3 187 268 188
3 188 268 269
3 188 269 189
3 189 269 270
3 189 270 190
3 190 270 271
3 190 271 191
3 191 271 272
3 191 272 192
3 192 272 273
3 192 273 193
3 193 273 274
3 193 274 194
3 194 274 275
3 194 275 195
3 195 275 276
3 195 276 196
3 196 276 277
3 196 277 197
3 197 277 278
3 197 278 198
3 198 278 279
3 198 279 199
3 199 279 280
3 199 280 200
3 200 280 281
3 200 281 201
3 201 281 282
3 201 282 202
3 202 282 283
3 202 283 203
3 203 283 284
3 203 284 204
3 204 284 285
3 204 285 205
3 205 285 286
3 205 286 206
3 206 286 287
3 206 287 207
3 207 287 288
3 207 288 208
3 208 288 289
3 208 289 209
3 209 289 290
3 209 290 210
3 210 290 291
3 210 291 211
3 211 291 292
3 211 292 212
3 212 292 293
3 212 293 213
3 213 293 294
3 213 294 214
3 214 294 295
3 214 295 215
3 215 295 296
3 215 296 216
3 216 296 297
3 216 297 217
3 217 297 298
3 217 298 218
3 218 298 299
3 218 299 219
3 219 299 300
3 219 300 220
3 220 300 301
3 220 301 221
3 221 301 302
3 221 302 222
3 222 302 303
3 222 303 224
3 224 303 305
3 224 305 225
3 225 305 306
3 225 306 226
3 226 306 307
3 226 307 227
3 227 307 308
3 227 308 228
3 228 308 309
3 228 309 229
3 229 309 310
3 229 310 230
3 230 310 311
3 230 311 231
3 231 311 312
3 231 312 232
3 232 312 313
3 232 313 233
3 233 313 314
3 233 314 234
3 234 314 315
3 234 315 235
3 235 315 316
3 235 316 236
3 236 316 317
3 236 317 237
3 237 317 318
3 237 318 238
3 238 318 319
3 238 319 239
3 239 319 320
3 239 320 240
3 240 320 241
3 240 241 161
3 241 400 322
3 241 322 242
3 242 322 323
3 242 323 243
3 243 323 324
3 243 324 244
3 244 324 325
3 244 325 245
3 245 325 326
3 245 326 246
3 246 326 327
3 246 327 247
3 247 327 328
3 247 328 248
3 248 328 329
3 248 329 249
3 249 329 330
3 249 330 250
3 250 330 331
3 250 331 251
3 251 331 332
3 251 332 252
3 252 332 333
3 252 333 253
3 253 333 334
3 253 334 254
3 254 334 335
3 254 335 255
3 255 335 336
3 255 336 256
3 256 336 337
3 256 337 257
3 257 337 338
3 257 338 258
3 258 338 339
3 258 339 259
3 259 339 340
3 259 340 260
3 260 340 341
3 260 341 261
3 261 341 342
3 261 342 262
3 262 342 343
3 262 343 263
3 263 343 344
3 263 344 264
3 264 344 345
3 264 345 265
3 265 345 346
3 265 346 266
3 266 346 347
3 266 347 267
3 267 347 348
3 267 348 268
3 268 348 349
3 268 349 269
3 269 349 350
3 269 350 270
3 270 350 351
3 270 351 271
3 271 351 352
3 271 352 272
3 272 352 353
3 272 353 273
3 273 353 354
3 273 354 274
3 274 354 355
3 274 355 275
3 275 355 356
3 275 356 276
3 276 356 357
3 276 357 277
3 277 357 358
3 277 358 278
3 278 358 359
3 278 359 279
3 279 359 360
3 279 360 280
3 280 360 361
3 280 361 281
3 281 361 362
3 281 362 282
3 282 362 363
3 282 363 283
3 283 363 364
3 283 364 284
3 284 364 365
3 284 365 285
3 285 365 366
3 285 366 286
3 286 366 367
3 286 367 287
3 287 367 368
3 287 368 288
3 288 368 369
3 288 369 289
3 289 369 370
3 289 370 290
3 290 370 371
3 290 371 291
3 291 371 372
3 291 372 292
3 292 372 373
3 292 373 293
3 293 373 374
3 293 374 294
3 294 374 375
3 294 375 295
3 295 375 376
3 295 376 296
3 296 376 377
3 296 377 297
3 297 377 378
3 297 378 298
3 298 378 379
3 298 379 299
3 299 379 380
3 299 380 300
3 300 380 381
3 300 381 301
3 301 381 382
3 301 382 302
3 302 382 383
3 302 383 303
3 303 383 384
3 303 384 385
3 303 385 305
3 305 385 386
3 305 386 306
3 306 386 387
3 306 387 307
3 307 387 388
3 307 388 308
3 308 388 389
3 308 389 309
3 309 389 390
3 309 390 310
3 310 390 391
3 310 391 311
3 311 391 392
3 311 392 312
3 312 392 393
3 312 393 313
3 313 393 394
3 313 394 314
3 314 394 395
3 314 395 315
3 315 395 396
3 315 396 316
3 316 396 397
3 316 397 317
3 317 397 398
3 317 398 318
3 318 398 399
3 318 399 319
3 319 399 400
3 319 400 320
3 320 400 241
3 400 401 402
3 400 402 322
3 322 402 403
3 322 403 323
3 323 403 404
3 323 404 324
3 324 404 405
3 324 405 325
3 325 405 406
3 325 406 326
3 326 406 407
3 326 407 327
3 327 407 408
3 327 408 328
3 328 408 409
3 328 409 329
3 329 409 410
3 329 410 330
3 330 410 411
3 330 411 331
3 331 411 412
3 331 412 332
3 332 412 413
3 332 413 333
3 333 413 414
3 333 414 334
3 334 414 415
3 334 415 335
3 335 415 416
3 335 416 336
3 336 416 417
3 336 417 337
3 337 417 418
3 337 418 338
3 338 418 419
3 338 419 339
3 339 419 420
3 339 420 340
3 340 420 421
3 340 421 341
3 341 421 422
3 341 422 342
3 342 422 423
3 342 423 343
3 343 423 424
3 343 424 344
3 344 424 425
3 344 425 345
3 345 425 426
3 345 426 346
3 346 426 427
3 346 427 347
3 347 427 428
3 347 428 348
3 348 428 429
3 348 429 349
3 349 429 430
3 349 430 350
3 350 430 431
3 350 431 351
3 351 431 432
3 351 432 352
3 352 432 433
3 352 433 353
3 353 433 434
3 353 434 354
3 354 434 435
3 354 435 355
3 355 435 436
3 355 436 356
3 356 436 437
3 356 437 357
3 357 437 438
3 357 438 358
3 358 438 439
3 358 439 359
3 359 439 440
3 359 440 360
3 360 440 441
3 360 441 361
3 361 441 442
3 361 442 362
3 362 442 443
3 362 443 363
3 363 443 444
3 363 444 364
3 364 444 445
3 364 445 365
3 365 445 446
3 365 446 366
3 366 446 447
3 366 447 367
3 367 447 448
3 367 448 368
3 368 448 449
3 368 449 369
3 369 449 450
3 369 450 370
3 370 450 451
3 370 451 371
3 371 451 452
3 371 452 372
3 372 452 453
3 372 453 373
3 373 453 454
3 373 454 374
3 374 454 455
3 374 455 375
3 375 455 456
3 375 456 376
3 376 456 457
3 376 457 377
3 377 457 458
3 377 458 378
3 378 458 459
3 378 459 379
3 379 459 460
3 379 460 380
3 380 460 461
3 380 461 381
3 381 461 462
3 381 462 382
3 382 462 463
3 382 463 383
3 383 463 464
3 383 464 384
3 384 464 465
3 384 465 385
3 385 465 466
3 385 466 386
3 386 466 467
3 386 467 387
3 387 467 468
3 387 468 388
3 388 468 469
3 388 469 389
3 389 469 470
3 389 470 390
3 390 470 471
3 390 471 391
3 391 471 472
3 391 472 392
3 392 472 473
3 392 473 393
3 393 473 474
3 393 474 394
3 394 474 475
3 394 475 395
3 395 475 476
3 395 476 396
3 396 476 477
3 396 477 397
3 397 477 478
3 397 478 398
3 398 478 399
3 399 478 480
3 399 480 400
3 400 480 401
3 401 481 482
3 401 482 402
3 402 482 483
3 402 483 403
3 403 483 484
3 403 484 404
3 404 484 485
3 404 485 405
3 405 485 486
3 405 486 406
3 406 486 487
3 406 487 407
3 407 487 488
3 407 488 408
3 408 488 489
3 408 489 409
3 409 489 490
3 409 490 410
3 410 490 491
3 410 491 411
3 411 491 492
3 411 492 412
3 412 492 493
3 412 493 413
3 413 493 494
3 413 494 414
3 414 494 495
3 414 495 415
3 415 495 496
3 415 496 416
3 416 496 497
3 416 497 417
3 417 497 498
3 417 498 418
3 418 498 499
3 418 499 419
3 419 499 500
3 419 500 420
3 420 500 501
3 420 501 421
3 421 501 502
3 421 502 422
3 422 502 503
3 422 503 423
3 423 503 504
3 423 504 424
3 424 504 505
3 424 505 425
3 425 505 506
3 425 506 426
3 426 506 507
3 426 507 427
3 427 507 508
3 427 508 428
3 428 508 509
3 428 509 429
3 429 509 510
3 429 510 430
3 430 510 511
3 430 511 431
3 431 511 512
3 431 512 432
3 432 512 513
3 432 513 433
3 433 513 514
3 433 514 434
3 434 514 515
3 434 515 435
3 435 515 516
3 435 516 436
3 436 516 517
3 436 517 437
3 437 517 518
3 437 518 438
3 438 518 519
3 438 519 439
3 439 519 520
3 439 520 440
3 440 520 521
3 440 521 441
3 441 521 522
3 441 522 442
3 442 522 523
3 442 523 443
3 443 523 524
3 443 524 444
3 444 524 525
3 444 525 445
3 445 525 526
3 445 526 446
3 446 526 527
3 446 527 447
3 447 527 528
3 447 528 448
3 448 528 529
3 448 529 449
3 449 529 530
3 449 530 450
3 450 530 531
3 450 531 451
3 451 531 532
3 451 532 452
3 452 532 533
3 452 533 453
3 453 533 534
3 453 534 454
3 454 534 535
3 454 535 455
3 455 535 536
3 455 536 456
3 456 536 537
3 456 537 457
3 457 537 538
3 457 538 458
3 458 538 539
3 458 539 459
3 459 539 540
3 459 540 460
3 460 540 541
3 460 541 461
3 461 541 542
3 461 542 462
3 462 542 543
3 462 543 463
3 463 543 544
3 463 544 464
3 464 544 545
3 464 545 465
3 465 545 546
3 465 546 466
3 466 546 547
3 466 547 467
3 467 547 548
3 467 548 468
3 468 548 549
3 468 549 469
3 469 549 550
3 469 550 470
3 470 550 551
3 470 551 471
3 471 551 552
3 471 552 472
3 472 552 553
3 472 553 473
3 473 553 554
3 473 554 474
3 474 554 555
3 474 555 475
3 475 555 556
3 475 556 476
3 476 556 557
3 476 557 477
3 477 557 478
3 478 557 559
3 478 559 560
3 478 560 480
3 480 560 481
3 480 481 401
3 481 561 562
3 481 562 482
3 482 562 563
3 482 563 483
3 483 563 564
3 483 564 484
3 484 564 565
3 484 565 485
3 485 565 566
3 485 566 486
3 486 566 567
3 486 567 487
3 487 567 568
3 487 568 488
3 488 568 569
3 488 569 489
3 489 569 570
3 489 570 490
3 490 570 571
3 490 571 491
3 491 571 572
3 491 572 492
3 492 572 573
3 492 573 493
3 493 573 574
3 493 574 494
3 494 574 575
3 494 575 495
3 495 575 576
3 495 576 496
3 496 576 577
3 496 577 497
3 497 577 578
3 497 578 498
3 498 578 579
3 498 579 499
3 499 579 580
3 499 580 500
3 500 580 581
3 500 581 501
3 501 581 582
3 501 582 502
3 502 582 583
3 502 583 503
3 503 583 584
3 503 584 504
3 504 584 585
3 504 585 505
3 505 585 586
3 505 586 506
3 506 586 587
3 506 587 507
3 507 587 588
3 507 588 508
3 508 588 589
3 508 589 509
3 509 589 590
3 509 590 510
3 510 590 591
3 510 591 511
3 511 591 592
3 511 592 512
3 512 592 593
3 512 593 513
3 513 593 594
3 513 594 514
3 514 594 595
3 514 595 515
3 515 595 596
3 515 596 516
3 516 596 597
3 516 597 517
3 517 597 598
3 517 598 518
3 518 598 599
3 518 599 519
3 519 599 600
3 519 600 520
3 520 600 601
3 520 601 521
3 521 601 602
3 521 602 522
3 522 602 603
3 522 603 523
3 523 603 604
3 523 604 524
3 524 604 605
3 524 605 525
3 525 605 606
3 525 606 526
3 526 606 607
3 526 607 527
3 527 607 608
3 527 608 528
3 528 608 609
3 528 609 529
3 529 609 610
3 529 610 530
3 530 610 611
3 530 611 531
3 531 611 612
3 531 612 532
3 532 612 613
3 532 613 533
3 533 613 614
3 533 614 534
3 534 614 615
3 534 615 535
3 535 615 616
3 535 616 536
3 536 616 617
3 536 617 537
3 537 617 618
3 537 618 538
3 538 618 619
3 538 619 539
3 539 619 620
3 539 620 540
3 540 620 621
3 540 621 541
3 541 621 622
3 541 622 542
3 542 622 623
3 542 623 543
3 543 623 624
3 543 624 544
3 544 624 625
3 544 625 545
3 545 625 626
3 545 626 546
3 546 626 627
3 546 627 547
3 547 627 628
3 547 628 548
3 548 628 629
3 548 629 549
3 549 629 630
3 549 630 550
3 550 630 631
3 550 631 551
3 551 631 632
3 551 632 552
3 552 632 633
3 552 633 553
3 553 633 634
3 553 634 554
3 554 634 635
3 554 635 555
3 555 635 636
3 555 636 556
3 556 636 637
3 556 637 557
3 557 637 639
3 557 639 559
3 559 639 640
3 559 640 560
3 560 640 561
3 560 561 481
3 561 641 642
3 561 642 562
3 562 642 643
3 562 643 563
3 563 643 644
3 563 644 564
3 564 644 645
3 564 645 565
3 565 645 646
3 565 646 566
3 566 646 647
3 566 647 567
3 567 647 648
3 567 648 568
3 568 648 649
3 568 649 569
3 569 649 650
3 569 650 570
3 570 650 651
3 570 651 571
3 571 651 652
3 571 652 572
3 572 652 653
3 572 653 573
3 573 653 654
3 573 654 574
3 574 654 655
3 574 655 575
3 575 655 656
3 575 656 576
3 576 656 657
3 576 657 577
3 577 657 658
3 577 658 578
3 578 658 659
3 578 659 579
3 579 659 660
3 579 660 580
3 580 660 661
3 580 661 581
3 581 661 662
3 581 662 582
3 582 662 663
3 582 663 583
3 583 663 664
3 583 664 584
3 584 664 665
3 584 665 585
3 585 665 666
3 585 666 586
3 586 666 667
3 586 667 587
3 587 667 668
3 587 668 588
3 588 668 669
3 588 669 589
3 589 669 670
3 589 670 590
3 590 670 671
3 590 671 591
3 591 671 672
3 591 672 592
3 592 672 673
3 592 673 593
3 593 673 674
3 593 674 594
3 594 674 675
3 594 675 595
3 595 675 676
3 595 676 596
3 596 676 677
3 596 677 597
3 597 677 678
3 597 678 598
3 598 678 679
3 598 679 599
3 599 679 680
3 599 680 600
3 600 680 681
3 600 681 601
3 601 681 682
3 601 682 602
3 602 682 683
3 602 683 603
3 603 683 684
3 603 684 604
3 604 684 685
3 604 685 605
3 605 685 686
3 605 686 606
3 606 686 687
3 606 687 607
3 607 687 688
3 607 688 608
3 608 688 689
3 608 689 609
3 609 689 690
3 609 690 610
3 610 690 691
3 610 691 611
3 611 691 692
3 611 692 612
3 612 692 693
3 612 693 613
3 613 693 694
3 613 694 614
3 614 694 695
3 614 695 615
3 615 695 696
3 615 696 616
3 616 696 697
3 616 697 617
3 617 697 698
3 617 698 618
3 618 698 699
3 618 699 619
3 619 699 700
3 619 700 620
3 620 700 701
3 620 701 621
3 621 701 702
3 621 702 622
3 622 702 703
3 622 703 623
3 623 703 704
3 623 704 624
3 624 704 705
3 624 705 625
3 625 705 706
3 625 706 626
3 626 706 707
3 626 707 627
3 627 707 708
3 627 708 628
3 628 708 709
3 628 709 629
3 629 709 710
3 629 710 630
3 630 710 711
3 630 711 631
3 631 711 712
3 631 712 632
3 632 712 713
3 632 713 633
3 633 713 714
3 633 714 634
3 634 714 715
3 634 715 635
3 635 715 716
3 635 716 636
3 636 716 717
3 636 717 637
3 637 717 719
3 637 719 639
3 639 719 720
3 639 720 640
3 640 720 641
3 640 641 561
3 641 721 722
3 641 722 642
3 642 722 723
3 642 723 643
3 643 723 724
3 643 724 644
3 644 724 725
3 644 725 645
3 645 725 726
3 645 726 646
3 646 726 727
3 646 727 647
3 647 727 728
3 647 728 648
3 648 728 729
3 648 729 649
3 649 729 730
3 649 730 650
3 650 730 731
3 650 731 651
3 651 731 732
3 651 732 652
3 652 732 733
3 652 733 653
3 653 733 734
3 653 734 654
3 654 734 735
3 654 735 655
3 655 735 736
3 655 736 656
3 656 736 737
3 656 737 657
3 657 737 738
3 657 738 658
3 658 738 739
3 658 739 659
3 659 739 740
3 659 740 660
3 660 740 741
3 660 741 661
3 661 741 742
3 661 742 662
3 662 742 743
3 662 743 663
3 663 743 744
3 663 744 664
3 664 744 745
3 664 745 665
3 665 745 746
3 665 746 666
3 666 746 747
3 666 747 667
3 667 747 748
3 667 748 668
3 668 748 749
3 668 749 669
3 669 749 750
3 669 750 670
3 670 750 751
3 670 751 671
3 671 751 752
3 671 752 672
3 672 752 753
3 672 753 673
3 673 753 754
3 673 754 674
3 674 754 755
3 674 755 675
3 675 755 756
3 675 756 676
3 676 756 757
3 676 757 677
3 677 757 758
3 677 758 678
3 678 758 759
3 678 759 679
3 679 759 760
3 679 760 680
3 680 760 761
3 680 761 681
3 681 761 762
3 681 762 682
3 682 762 763
3 682 763 683
3 683 763 764
3 683 764 684
3 684 764 765
3 684 765 685
3 685 765 766
3 685 766 686
3 686 766 767
3 686 767 687
3 687 767 768
3 687 768 688
3 688 768 769
3 688 769 689
3 689 769 770
3 689 770 690
3 690 770 771
3 690 771 691
3 691 771 772
3 691 772 692
3 692 772 773
3 692 773 693
3 693 773 774
3 693 774 694
3 694 774 775
3 694 775 695
3 695 775 776
3 695 776 696
3 696 776 777
3 696 777 697
3 697 777 778
3 697 778 698
3 698 778 779
3 698 779 699
3 699 779 780
3 699 780 700
3 700 780 781
3 700 781 701
3 701 781 782
3 701 782 702
3 702 782 783
3 702 783 703
3 703 783 784
3 703 784 704
3 704 784 785
3 704 785 705
3 705 785 786
3 705 786 706
3 706 786 787
3 706 787 707
3 707 787 788
3 707 788 708
3 708 788 789
3 708 789 709
3 709 789 790
3 709 790 710
3 710 790 791
3 710 791 711
3 711 791 792
3 711 792 712
3 712 792 793
3 712 793 713
3 713 793 794
3 713 794 714
3 714 794 795
3 714 795 715
3 715 795 796
3 715 796 716
3 716 796 797
3 716 797 717
3 717 797 799
3 717 799 719
3 719 799 800
3 719 800 720
3 720 800 721
3 720 721 641
