ply 
format ascii 1.0 
comment this is a surface 
element vertex 641 
property float x 
property float y 
property float z 
element face 1185 
property list uchar int vertex_index 
end_header 
229.632500 181.249250 -60.480000
229.640000 189.190000 -60.480000
229.440000 188.260000 -60.480000
229.210000 187.340000 -60.480000
228.940000 186.420000 -60.480000
228.630000 185.530000 -60.480000
228.270000 184.650000 -60.480000
227.870000 183.790000 -60.480000
227.430000 182.940000 -60.480000
226.940000 182.120000 -60.480000
226.410000 181.330000 -60.480000
225.830000 180.580000 -60.480000
225.200000 179.870000 -60.480000
224.540000 179.180000 -60.480000
223.870000 178.510000 -60.480000
223.160000 177.870000 -60.480000
222.420000 177.280000 -60.480000
221.650000 176.710000 -60.480000
220.880000 176.160000 -60.480000
220.110000 175.600000 -60.480000
219.380000 174.990000 -60.480000
218.690000 174.330000 -60.480000
218.050000 173.630000 -60.480000
217.440000 172.900000 -60.480000
216.840000 172.160000 -60.480000
216.270000 171.400000 -60.480000
216.880000 170.730000 -60.480000
217.830000 170.690000 -60.480000
218.780000 170.660000 -60.480000
219.730000 170.640000 -60.480000
220.680000 170.630000 -60.480000
221.630000 170.640000 -60.480000
222.580000 170.750000 -60.480000
223.500000 170.980000 -60.480000
224.400000 171.290000 -60.480000
225.280000 171.640000 -60.480000
226.170000 171.980000 -60.480000
227.070000 172.290000 -60.480000
227.980000 172.580000 -60.480000
228.890000 172.870000 -60.480000
229.790000 173.170000 -60.480000
230.680000 173.510000 -60.480000
231.550000 173.890000 -60.480000
232.390000 174.340000 -60.480000
233.190000 174.850000 -60.480000
233.970000 175.390000 -60.480000
234.750000 175.940000 -60.480000
235.560000 176.440000 -60.480000
236.400000 176.880000 -60.480000
237.250000 177.310000 -60.480000
238.020000 177.860000 -60.480000
238.480000 178.690000 -60.480000
238.690000 179.620000 -60.480000
238.840000 180.560000 -60.480000
238.950000 181.500000 -60.480000
239.040000 182.450000 -60.480000
239.090000 183.400000 -60.480000
239.120000 184.350000 -60.480000
239.120000 185.300000 -60.480000
239.090000 186.250000 -60.480000
239.030000 187.200000 -60.480000
238.960000 188.150000 -60.480000
238.860000 189.090000 -60.480000
238.730000 190.040000 -60.480000
238.510000 190.960000 -60.480000
238.190000 191.860000 -60.480000
237.780000 192.710000 -60.480000
237.290000 193.530000 -60.480000
236.710000 194.280000 -60.480000
236.010000 194.930000 -60.480000
235.160000 195.350000 -60.480000
234.210000 195.340000 -60.480000
233.270000 195.190000 -60.480000
232.350000 194.960000 -60.480000
231.480000 194.570000 -60.480000
230.970000 193.770000 -60.480000
230.650000 192.870000 -60.480000
230.370000 191.960000 -60.480000
230.090000 191.050000 -60.480000
229.860000 190.130000 -60.480000
229.640000 189.190000 -60.480000
233.960000 187.310000 -51.840000
233.790000 186.030000 -51.840000
233.470000 184.770000 -51.840000
233.070000 183.540000 -51.840000
232.610000 182.330000 -51.840000
232.150000 181.120000 -51.840000
231.680000 179.910000 -51.840000
231.210000 178.700000 -51.840000
230.700000 177.510000 -51.840000
230.160000 176.340000 -51.840000
229.580000 175.180000 -51.840000
228.950000 174.050000 -51.840000
228.270000 172.950000 -51.840000
227.520000 171.890000 -51.840000
226.680000 170.900000 -51.840000
225.790000 169.970000 -51.840000
224.850000 169.080000 -51.840000
223.880000 168.210000 -51.840000
222.910000 167.360000 -51.840000
221.900000 166.540000 -51.840000
221.310000 165.390000 -51.840000
222.610000 165.330000 -51.840000
223.900000 165.430000 -51.840000
225.190000 165.540000 -51.840000
226.480000 165.670000 -51.840000
227.770000 165.800000 -51.840000
229.050000 165.970000 -51.840000
230.330000 166.170000 -51.840000
231.600000 166.420000 -51.840000
232.860000 166.700000 -51.840000
234.120000 167.030000 -51.840000
235.360000 167.390000 -51.840000
236.590000 167.790000 -51.840000
237.800000 168.250000 -51.840000
238.980000 168.780000 -51.840000
240.120000 169.390000 -51.840000
241.210000 170.100000 -51.840000
242.230000 170.900000 -51.840000
243.190000 171.760000 -51.840000
244.090000 172.700000 -51.840000
244.870000 173.740000 -51.840000
245.450000 174.890000 -51.840000
245.750000 176.150000 -51.840000
245.730000 177.450000 -51.840000
245.560000 178.730000 -51.840000
245.310000 180.000000 -51.840000
245.000000 181.260000 -51.840000
244.570000 182.480000 -51.840000
243.990000 183.640000 -51.840000
243.320000 184.740000 -51.840000
242.610000 185.830000 -51.840000
241.910000 186.910000 -51.840000
241.260000 188.030000 -51.840000
240.700000 189.200000 -51.840000
240.230000 190.410000 -51.840000
239.800000 191.630000 -51.840000
239.370000 192.850000 -51.840000
238.920000 194.070000 -51.840000
238.410000 195.260000 -51.840000
237.840000 196.420000 -51.840000
237.240000 197.570000 -51.840000
236.600000 198.690000 -51.840000
235.930000 199.800000 -51.840000
235.190000 200.910000 -51.840000
235.190000 200.910000 -51.840000
234.440000 201.970000 -51.840000
233.670000 203.010000 -51.840000
232.890000 204.050000 -51.840000
232.940000 202.750000 -51.840000
233.220000 201.490000 -51.840000
233.470000 200.220000 -51.840000
233.700000 198.940000 -51.840000
233.870000 197.660000 -51.840000
233.990000 196.370000 -51.840000
234.020000 195.080000 -51.840000
234.030000 193.780000 -51.840000
234.030000 192.490000 -51.840000
234.030000 191.190000 -51.840000
234.030000 189.900000 -51.840000
234.020000 188.600000 -51.840000
235.930000 186.970000 -43.200000
235.760000 185.640000 -43.200000
235.560000 184.320000 -43.200000
235.330000 183.000000 -43.200000
235.090000 181.690000 -43.200000
234.820000 180.380000 -43.200000
234.510000 179.080000 -43.200000
234.160000 177.790000 -43.200000
233.730000 176.520000 -43.200000
233.200000 175.290000 -43.200000
232.600000 174.100000 -43.200000
231.940000 172.940000 -43.200000
231.230000 171.810000 -43.200000
230.460000 170.720000 -43.200000
229.640000 169.660000 -43.200000
228.760000 168.650000 -43.200000
227.840000 167.690000 -43.200000
226.850000 166.780000 -43.200000
225.800000 165.960000 -43.200000
224.680000 165.230000 -43.200000
223.510000 164.580000 -43.200000
222.330000 163.970000 -43.200000
221.150000 163.330000 -43.200000
220.020000 162.620000 -43.200000
218.940000 161.840000 -43.200000
217.890000 161.000000 -43.200000
216.870000 160.140000 -43.200000
217.040000 159.540000 -43.200000
218.330000 159.560000 -43.200000
219.610000 159.930000 -43.200000
220.910000 160.270000 -43.200000
222.210000 160.570000 -43.200000
223.520000 160.820000 -43.200000
224.840000 161.020000 -43.200000
226.170000 161.180000 -43.200000
227.500000 161.320000 -43.200000
228.830000 161.490000 -43.200000
230.140000 161.730000 -43.200000
231.440000 162.060000 -43.200000
232.700000 162.490000 -43.200000
233.930000 163.010000 -43.200000
235.130000 163.600000 -43.200000
236.290000 164.260000 -43.200000
237.410000 164.990000 -43.200000
238.470000 165.810000 -43.200000
239.470000 166.690000 -43.200000
240.410000 167.640000 -43.200000
241.280000 168.660000 -43.200000
242.100000 169.720000 -43.200000
242.870000 170.810000 -43.200000
243.600000 171.930000 -43.200000
244.250000 173.090000 -43.200000
244.770000 174.320000 -43.200000
245.080000 175.620000 -43.200000
245.140000 176.950000 -43.200000
245.020000 178.290000 -43.200000
244.820000 179.610000 -43.200000
244.560000 180.920000 -43.200000
244.270000 182.220000 -43.200000
243.960000 183.520000 -43.200000
243.630000 184.820000 -43.200000
243.230000 186.100000 -43.200000
242.790000 187.360000 -43.200000
242.320000 188.610000 -43.200000
241.870000 189.870000 -43.200000
241.460000 191.140000 -43.200000
241.120000 192.440000 -43.200000
240.700000 193.990000 -43.200000
240.700000 195.330000 -43.200000
240.700000 195.330000 -43.200000
239.620000 195.850000 -43.200000
238.870000 196.450000 -43.200000
238.150000 197.260000 -43.200000
237.590000 196.140000 -43.200000
237.130000 194.880000 -43.200000
236.780000 193.600000 -43.200000
236.540000 192.280000 -43.200000
236.360000 190.960000 -43.200000
236.210000 189.630000 -43.200000
236.070000 188.300000 -43.200000
237.770000 186.210000 -34.560000
237.740000 184.180000 -34.560000
237.550000 182.160000 -34.560000
237.180000 180.160000 -34.560000
236.670000 178.190000 -34.560000
236.070000 176.250000 -34.560000
235.370000 174.350000 -34.560000
234.560000 172.480000 -34.560000
233.620000 170.680000 -34.560000
232.520000 168.970000 -34.560000
231.290000 167.350000 -34.560000
229.950000 165.830000 -34.560000
228.500000 164.400000 -34.560000
226.920000 163.130000 -34.560000
225.190000 162.080000 -34.560000
223.340000 161.250000 -34.560000
221.430000 160.530000 -34.560000
219.590000 159.680000 -34.560000
218.340000 158.200000 -34.560000
218.510000 156.340000 -34.560000
219.750000 154.780000 -34.560000
221.360000 153.540000 -34.560000
223.120000 152.540000 -34.560000
225.000000 151.760000 -34.560000
226.940000 151.150000 -34.560000
228.900000 150.640000 -34.560000
230.880000 150.180000 -34.560000
232.870000 149.740000 -34.560000
234.850000 149.290000 -34.560000
236.840000 148.860000 -34.560000
238.830000 148.470000 -34.560000
240.840000 148.130000 -34.560000
242.860000 147.910000 -34.560000
244.890000 147.900000 -34.560000
246.890000 148.270000 -34.560000
248.740000 149.090000 -34.560000
250.410000 150.250000 -34.560000
251.900000 151.630000 -34.560000
253.220000 153.180000 -34.560000
253.250000 155.370000 -34.560000
253.800000 157.190000 -34.560000
254.620000 158.690000 -34.560000
255.310000 160.210000 -34.560000
255.990000 162.000000 -34.560000
256.440000 163.840000 -34.560000
256.440000 165.880000 -34.560000
256.440000 167.910000 -34.560000
256.440000 169.940000 -34.560000
256.070000 171.890000 -34.560000
255.530000 173.450000 -34.560000
255.070000 175.290000 -34.560000
255.070000 175.290000 -34.560000
254.250000 176.980000 -34.560000
253.170000 177.980000 -34.560000
252.500000 179.350000 -34.560000
251.880000 181.030000 -34.560000
251.550000 182.840000 -34.560000
250.810000 184.660000 -34.560000
249.910000 186.480000 -34.560000
249.010000 188.310000 -34.560000
248.110000 190.130000 -34.560000
247.200000 191.950000 -34.560000
246.290000 193.760000 -34.560000
245.420000 195.610000 -34.560000
244.670000 197.490000 -34.560000
243.990000 199.410000 -34.560000
243.280000 201.320000 -34.560000
242.430000 203.160000 -34.560000
241.200000 204.730000 -34.560000
239.240000 205.210000 -34.560000
237.220000 205.120000 -34.560000
235.530000 204.220000 -34.560000
235.200000 202.250000 -34.560000
235.680000 200.270000 -34.560000
236.110000 198.290000 -34.560000
236.500000 196.290000 -34.560000
236.850000 194.290000 -34.560000
237.170000 192.280000 -34.560000
237.450000 190.270000 -34.560000
237.660000 188.240000 -34.560000
240.220000 183.630000 -25.920000
240.070000 180.410000 -25.920000
239.200000 177.300000 -25.920000
237.800000 174.390000 -25.920000
236.080000 171.660000 -25.920000
234.160000 169.070000 -25.920000
232.130000 166.560000 -25.920000
230.060000 164.080000 -25.920000
227.970000 161.620000 -25.920000
225.780000 159.250000 -25.920000
223.450000 157.010000 -25.920000
220.910000 155.030000 -25.920000
218.090000 153.450000 -25.920000
214.990000 152.550000 -25.920000
211.820000 151.940000 -25.920000
208.630000 151.470000 -25.920000
205.420000 151.120000 -25.920000
202.200000 150.930000 -25.920000
198.970000 151.050000 -25.920000
195.850000 151.840000 -25.920000
192.860000 153.080000 -25.920000
189.960000 154.490000 -25.920000
187.030000 155.840000 -25.920000
183.960000 156.850000 -25.920000
180.750000 157.110000 -25.920000
177.580000 156.470000 -25.920000
174.890000 154.690000 -25.920000
176.080000 151.690000 -25.920000
177.970000 149.080000 -25.920000
180.220000 146.760000 -25.920000
182.980000 145.080000 -25.920000
186.040000 144.050000 -25.920000
189.200000 143.400000 -25.920000
192.420000 143.180000 -25.920000
195.650000 143.110000 -25.920000
198.870000 143.070000 -25.920000
202.100000 143.030000 -25.920000
205.330000 143.010000 -25.920000
208.550000 143.070000 -25.920000
211.750000 143.510000 -25.920000
214.810000 144.530000 -25.920000
217.790000 145.780000 -25.920000
220.810000 146.930000 -25.920000
223.960000 147.630000 -25.920000
227.190000 147.650000 -25.920000
230.390000 147.240000 -25.920000
233.560000 146.670000 -25.920000
236.740000 146.070000 -25.920000
239.930000 145.620000 -25.920000
243.150000 145.450000 -25.920000
246.380000 145.550000 -25.920000
249.600000 145.790000 -25.920000
252.810000 146.160000 -25.920000
255.990000 146.650000 -25.920000
259.160000 147.310000 -25.920000
262.240000 148.260000 -25.920000
264.540000 150.530000 -25.920000
264.070000 153.720000 -25.920000
263.400000 156.880000 -25.920000
262.620000 160.010000 -25.920000
261.660000 163.090000 -25.920000
260.430000 166.070000 -25.920000
259.000000 168.970000 -25.920000
257.490000 171.820000 -25.920000
255.980000 174.670000 -25.920000
254.530000 177.560000 -25.920000
253.170000 180.480000 -25.920000
251.810000 183.410000 -25.920000
250.390000 186.310000 -25.920000
248.810000 189.130000 -25.920000
246.970000 191.780000 -25.920000
244.860000 194.220000 -25.920000
242.590000 196.520000 -25.920000
240.240000 198.720000 -25.920000
239.110000 199.730000 -25.920000
239.110000 199.730000 -25.920000
239.400000 196.510000 -25.920000
239.660000 193.300000 -25.920000
239.890000 190.080000 -25.920000
240.090000 186.860000 -25.920000
244.610000 184.940000 -17.280000
244.060000 182.090000 -17.280000
243.230000 179.320000 -17.280000
242.180000 176.620000 -17.280000
240.950000 173.990000 -17.280000
239.570000 171.450000 -17.280000
237.900000 169.080000 -17.280000
235.910000 166.990000 -17.280000
233.680000 165.140000 -17.280000
231.330000 163.440000 -17.280000
228.950000 161.780000 -17.280000
226.600000 160.090000 -17.280000
224.260000 158.370000 -17.280000
221.910000 156.680000 -17.280000
219.490000 155.090000 -17.280000
216.960000 153.670000 -17.280000
214.330000 152.460000 -17.280000
211.630000 151.390000 -17.280000
208.900000 150.420000 -17.280000
206.130000 149.570000 -17.280000
203.320000 148.850000 -17.280000
200.470000 148.320000 -17.280000
197.590000 148.040000 -17.280000
194.690000 147.980000 -17.280000
191.800000 148.090000 -17.280000
188.910000 148.300000 -17.280000
187.190000 146.220000 -17.280000
189.200000 144.740000 -17.280000
191.890000 143.660000 -17.280000
194.690000 142.920000 -17.280000
197.560000 142.490000 -17.280000
200.450000 142.240000 -17.280000
203.340000 142.050000 -17.280000
206.230000 141.920000 -17.280000
209.130000 141.870000 -17.280000
212.030000 141.980000 -17.280000
214.900000 142.370000 -17.280000
217.690000 143.150000 -17.280000
220.380000 144.240000 -17.280000
223.050000 145.360000 -17.280000
225.800000 146.270000 -17.280000
228.640000 146.860000 -17.280000
231.510000 147.200000 -17.280000
234.400000 147.460000 -17.280000
237.300000 147.640000 -17.280000
240.190000 147.730000 -17.280000
243.090000 147.710000 -17.280000
245.990000 147.550000 -17.280000
248.870000 147.260000 -17.280000
251.750000 146.920000 -17.280000
254.630000 146.630000 -17.280000
257.530000 146.560000 -17.280000
260.370000 147.540000 -17.280000
261.570000 149.230000 -17.280000
263.470000 150.800000 -17.280000
265.220000 152.520000 -17.280000
266.140000 154.780000 -17.280000
267.050000 157.030000 -17.280000
267.050000 159.930000 -17.280000
267.730000 162.280000 -17.280000
267.120000 165.100000 -17.280000
266.190000 167.850000 -17.280000
265.060000 170.510000 -17.280000
265.060000 170.510000 -17.280000
263.780000 173.110000 -17.280000
262.300000 175.610000 -17.280000
260.620000 177.960000 -17.280000
258.790000 180.210000 -17.280000
256.890000 182.400000 -17.280000
254.960000 184.570000 -17.280000
253.070000 186.760000 -17.280000
251.220000 188.990000 -17.280000
249.390000 191.240000 -17.280000
247.560000 193.490000 -17.280000
245.730000 195.740000 -17.280000
243.650000 197.740000 -17.280000
243.430000 196.390000 -17.280000
244.050000 193.560000 -17.280000
244.550000 190.710000 -17.280000
244.790000 187.820000 -17.280000
240.660000 184.280000 -8.640000
240.460000 181.180000 -8.640000
239.880000 178.130000 -8.640000
239.010000 175.140000 -8.640000
237.930000 172.230000 -8.640000
236.620000 169.410000 -8.640000
235.060000 166.720000 -8.640000
233.250000 164.200000 -8.640000
231.240000 161.830000 -8.640000
229.050000 159.620000 -8.640000
226.690000 157.600000 -8.640000
224.180000 155.770000 -8.640000
221.520000 154.160000 -8.640000
218.750000 152.760000 -8.640000
215.890000 151.530000 -8.640000
212.990000 150.410000 -8.640000
210.050000 149.400000 -8.640000
207.070000 148.530000 -8.640000
204.030000 147.860000 -8.640000
200.950000 147.450000 -8.640000
197.850000 147.280000 -8.640000
194.740000 147.260000 -8.640000
191.630000 147.310000 -8.640000
188.520000 147.370000 -8.640000
185.410000 147.400000 -8.640000
182.460000 146.610000 -8.640000
181.710000 144.080000 -8.640000
182.620000 141.140000 -8.640000
184.150000 138.440000 -8.640000
186.380000 136.330000 -8.640000
189.210000 135.150000 -8.640000
192.250000 134.520000 -8.640000
195.330000 134.110000 -8.640000
198.420000 133.820000 -8.640000
201.530000 133.670000 -8.640000
204.630000 133.760000 -8.640000
207.680000 134.340000 -8.640000
210.560000 135.470000 -8.640000
213.330000 136.880000 -8.640000
216.130000 138.210000 -8.640000
219.070000 139.230000 -8.640000
222.090000 139.930000 -8.640000
225.160000 140.470000 -8.640000
228.230000 140.910000 -8.640000
231.330000 141.230000 -8.640000
234.430000 141.420000 -8.640000
237.540000 141.490000 -8.640000
240.650000 141.510000 -8.640000
243.750000 141.520000 -8.640000
246.860000 141.520000 -8.640000
249.970000 141.530000 -8.640000
253.080000 141.550000 -8.640000
256.180000 141.740000 -8.640000
258.290000 143.340000 -8.640000
260.300000 145.670000 -8.640000
261.210000 147.630000 -8.640000
262.140000 149.820000 -8.640000
263.500000 151.840000 -8.640000
264.410000 154.030000 -8.640000
264.900000 156.640000 -8.640000
265.590000 159.070000 -8.640000
265.750000 162.170000 -8.640000
265.690000 165.280000 -8.640000
265.060000 168.310000 -8.640000
264.340000 171.340000 -8.640000
263.040000 174.150000 -8.640000
263.040000 174.150000 -8.640000
261.550000 176.880000 -8.640000
259.760000 179.410000 -8.640000
257.880000 181.890000 -8.640000
255.920000 184.300000 -8.640000
253.860000 186.630000 -8.640000
251.650000 188.820000 -8.640000
249.300000 190.850000 -8.640000
246.820000 192.730000 -8.640000
244.270000 194.500000 -8.640000
241.430000 195.710000 -8.640000
240.060000 193.580000 -8.640000
240.270000 190.490000 -8.640000
240.540000 187.390000 -8.640000
242.990000 184.310000 0.000000
242.560000 180.920000 0.000000
241.780000 177.620000 0.000000
240.150000 174.670000 0.000000
237.710000 172.300000 0.000000
234.930000 170.320000 0.000000
232.110000 168.400000 0.000000
229.450000 166.280000 0.000000
227.130000 163.780000 0.000000
225.100000 161.040000 0.000000
223.060000 158.300000 0.000000
220.720000 155.820000 0.000000
217.940000 153.850000 0.000000
214.970000 152.160000 0.000000
211.910000 150.670000 0.000000
208.740000 149.400000 0.000000
205.470000 148.440000 0.000000
202.110000 147.880000 0.000000
198.700000 147.770000 0.000000
195.290000 147.880000 0.000000
191.880000 148.060000 0.000000
188.480000 148.260000 0.000000
185.070000 148.410000 0.000000
181.660000 148.420000 0.000000
178.260000 148.140000 0.000000
175.010000 147.170000 0.000000
174.150000 144.320000 0.000000
174.690000 140.970000 0.000000
175.790000 137.750000 0.000000
177.650000 134.940000 0.000000
180.150000 132.640000 0.000000
183.040000 130.850000 0.000000
186.220000 129.660000 0.000000
189.570000 129.110000 0.000000
192.980000 128.980000 0.000000
196.390000 128.970000 0.000000
199.800000 128.970000 0.000000
203.210000 128.980000 0.000000
206.610000 129.200000 0.000000
209.910000 129.970000 0.000000
213.010000 131.360000 0.000000
215.990000 133.020000 0.000000
219.030000 134.570000 0.000000
222.240000 135.700000 0.000000
225.580000 136.360000 0.000000
228.970000 136.790000 0.000000
232.360000 137.130000 0.000000
235.760000 137.400000 0.000000
239.170000 137.560000 0.000000
242.580000 137.570000 0.000000
245.980000 137.370000 0.000000
249.370000 136.990000 0.000000
252.760000 136.560000 0.000000
256.150000 136.210000 0.000000
259.560000 136.160000 0.000000
262.900000 136.850000 0.000000
264.860000 138.220000 0.000000
266.660000 139.820000 0.000000
268.510000 141.390000 0.000000
269.900000 144.310000 0.000000
271.180000 147.440000 0.000000
272.040000 150.710000 0.000000
271.590000 154.090000 0.000000
271.090000 157.460000 0.000000
270.030000 160.580000 0.000000
268.740000 163.620000 0.000000
266.840000 166.030000 0.000000
266.840000 166.030000 0.000000
264.820000 168.760000 0.000000
263.180000 171.760000 0.000000
261.700000 174.830000 0.000000
260.180000 177.880000 0.000000
258.450000 180.820000 0.000000
256.410000 183.550000 0.000000
254.130000 186.090000 0.000000
251.720000 188.500000 0.000000
249.190000 190.780000 0.000000
246.360000 192.630000 0.000000
243.950000 191.060000 0.000000
243.370000 187.700000 0.000000
3 0 80 2
3 0 2 3
3 0 3 4
3 0 4 5
3 0 5 6
3 0 6 7
3 0 7 8
3 0 8 9
3 0 9 10
3 0 10 11
3 0 11 12
3 0 12 13
3 0 13 14
3 0 14 15
3 0 15 16
3 0 16 17
3 0 17 18
3 0 18 19
3 0 19 20
3 0 20 21
3 0 21 22
3 0 22 23
3 0 23 24
3 0 24 25
3 0 25 26
3 0 26 27
3 0 27 28
3 0 28 29
3 0 29 30
3 0 30 31
3 0 31 32
3 0 32 33
3 0 33 34
3 0 34 35
3 0 35 36
3 0 36 37
3 0 37 38
3 0 38 39
3 0 39 40
3 0 40 41
3 0 41 42
3 0 42 43
3 0 43 44
3 0 44 45
3 0 45 46
3 0 46 47
3 0 47 48
3 0 48 49
3 0 49 50
3 0 50 51
3 0 51 52
3 0 52 53
3 0 53 54
3 0 54 55
3 0 55 56
3 0 56 57
3 0 57 58
3 0 58 59
3 0 59 60
3 0 60 61
3 0 61 62
3 0 62 63
3 0 63 64
3 0 64 65
3 0 65 66
3 0 66 67
3 0 67 68
3 0 68 69
3 0 69 70
3 0 70 71
3 0 71 72
3 0 72 73
3 0 73 74
3 0 74 75
3 0 75 76
3 0 76 77
3 0 77 78
3 0 78 79
3 0 79 80
3 80 81 82
3 80 82 2
3 2 82 83
3 2 83 3
3 3 83 84
3 3 84 4
3 4 84 85
3 4 85 5
3 5 85 86
3 5 86 6
3 6 86 87
3 6 87 7
3 7 87 88
3 7 88 8
3 8 88 89
3 8 89 9
3 9 89 90
3 9 90 10
3 10 90 91
3 10 91 11
3 11 91 92
3 11 92 12
3 12 92 93
3 12 93 13
3 13 93 94
3 13 94 14
3 14 94 95
3 14 95 15
3 15 95 96
3 15 96 16
3 16 96 97
3 16 97 17
3 17 97 98
3 17 98 18
3 18 98 99
3 18 99 19
3 19 99 100
3 19 100 20
3 20 100 101
3 20 101 21
3 21 101 102
3 21 102 22
3 22 102 103
3 22 103 23
3 23 103 104
3 23 104 24
3 24 104 105
3 24 105 25
3 25 105 106
3 25 106 26
3 26 106 107
3 26 107 27
3 27 107 108
3 27 108 28
3 28 108 109
3 28 109 29
3 29 109 110
3 29 110 30
3 30 110 111
3 30 111 31
3 31 111 112
3 31 112 32
3 32 112 113
3 32 113 33
3 33 113 114
3 33 114 34
3 34 114 115
3 34 115 35
3 35 115 116
3 35 116 36
3 36 116 117
3 36 117 37
3 37 117 118
3 37 118 38
3 38 118 119
3 38 119 39
3 39 119 120
3 39 120 40
3 40 120 121
3 40 121 41
3 41 121 122
3 41 122 42
3 42 122 123
3 42 123 43
3 43 123 124
3 43 124 44
3 44 124 125
3 44 125 45
3 45 125 126
3 45 126 46
3 46 126 127
3 46 127 47
3 47 127 128
3 47 128 48
3 48 128 129
3 48 129 49
3 49 129 130
3 49 130 50
3 50 130 131
3 50 131 51
3 51 131 132
3 51 132 52
3 52 132 133
3 52 133 53
3 53 133 134
3 53 134 54
3 54 134 135
3 54 135 55
3 55 135 136
3 55 136 56
3 56 136 137
3 56 137 57
3 57 137 138
3 57 138 58
3 58 138 139
3 58 139 59
3 59 139 140
3 59 140 60
3 60 140 141
3 60 141 61
3 61 141 142
3 61 142 62
3 62 142 143
3 62 143 63
3 63 143 144
3 63 144 64
3 64 144 65
3 65 144 146
3 65 146 66
3 66 146 147
3 66 147 67
3 67 147 148
3 67 148 68
3 68 148 149
3 68 149 69
3 69 149 150
3 69 150 70
3 70 150 151
3 70 151 71
3 71 151 152
3 71 152 72
3 72 152 153
3 72 153 73
3 73 153 154
3 73 154 74
3 74 154 155
3 74 155 75
3 75 155 156
3 75 156 76
3 76 156 157
3 76 157 77
3 77 157 158
3 77 158 78
3 78 158 159
3 78 159 79
3 79 159 160
3 79 160 80
3 80 160 81
3 81 161 162
3 81 162 82
3 82 162 163
3 82 163 83
3 83 163 164
3 83 164 84
3 84 164 165
3 84 165 85
3 85 165 166
3 85 166 86
3 86 166 167
3 86 167 87
3 87 167 168
3 87 168 88
3 88 168 169
3 88 169 89
3 89 169 170
3 89 170 90
3 90 170 171
3 90 171 91
3 91 171 172
3 91 172 92
3 92 172 173
3 92 173 93
3 93 173 174
3 93 174 94
3 94 174 175
3 94 175 95
3 95 175 176
3 95 176 96
3 96 176 177
3 96 177 97
3 97 177 178
3 97 178 98
3 98 178 179
3 98 179 99
3 99 179 180
3 99 180 100
3 100 180 181
3 100 181 101
3 101 181 182
3 101 182 102
3 102 182 183
3 102 183 103
3 103 183 184
3 103 184 104
3 104 184 185
3 104 185 105
3 105 185 186
3 105 186 106
3 106 186 187
3 106 187 107
3 107 187 188
3 107 188 108
3 108 188 189
3 108 189 109
3 109 189 190
3 109 190 110
3 110 190 191
3 110 191 111
3 111 191 192
3 111 192 112
3 112 192 193
3 112 193 113
3 113 193 194
3 113 194 114
3 114 194 195
3 114 195 115
3 115 195 196
3 115 196 116
3 116 196 197
3 116 197 117
3 117 197 198
3 117 198 118
3 118 198 199
3 118 199 119
3 119 199 200
3 119 200 120
3 120 200 201
3 120 201 121
3 121 201 202
3 121 202 122
3 122 202 203
3 122 203 123
3 123 203 204
3 123 204 124
3 124 204 205
3 124 205 125
3 125 205 206
3 125 206 126
3 126 206 207
3 126 207 127
3 127 207 208
3 127 208 128
3 128 208 209
3 128 209 129
3 129 209 210
3 129 210 130
3 130 210 211
3 130 211 131
3 131 211 212
3 131 212 132
3 132 212 213
3 132 213 133
3 133 213 214
3 133 214 134
3 134 214 215
3 134 215 135
3 135 215 216
3 135 216 136
3 136 216 217
3 136 217 137
3 137 217 218
3 137 218 138
3 138 218 219
3 138 219 139
3 139 219 220
3 139 220 140
3 140 220 221
3 140 221 141
3 141 221 222
3 141 222 142
3 142 222 223
3 142 223 143
3 143 223 224
3 143 224 144
3 144 224 225
3 144 225 226
3 144 226 146
3 146 226 227
3 146 227 147
3 147 227 228
3 147 228 148
3 148 228 229
3 148 229 149
3 149 229 150
3 150 229 231
3 150 231 151
3 151 231 232
3 151 232 152
3 152 232 233
3 152 233 153
3 153 233 234
3 153 234 154
3 154 234 235
3 154 235 155
3 155 235 236
3 155 236 156
3 156 236 237
3 156 237 157
3 157 237 238
3 157 238 158
3 158 238 239
3 158 239 159
3 159 239 240
3 159 240 160
3 160 240 161
3 160 161 81
3 161 241 242
3 161 242 162
3 162 242 243
3 162 243 163
3 163 243 244
3 163 244 164
3 164 244 245
3 164 245 165
3 165 245 246
3 165 246 166
3 166 246 247
3 166 247 167
3 167 247 248
3 167 248 168
3 168 248 249
3 168 249 169
3 169 249 250
3 169 250 170
3 170 250 251
3 170 251 171
3 171 251 252
3 171 252 172
3 172 252 253
3 172 253 173
3 173 253 254
3 173 254 174
3 174 254 255
3 174 255 175
3 175 255 256
3 175 256 176
3 176 256 257
3 176 257 177
3 177 257 258
3 177 258 178
3 178 258 259
3 178 259 179
3 179 259 260
3 179 260 180
3 180 260 261
3 180 261 181
3 181 261 262
3 181 262 182
3 182 262 263
3 182 263 183
3 183 263 264
3 183 264 184
3 184 264 265
3 184 265 185
3 185 265 266
3 185 266 186
3 186 266 267
3 186 267 187
3 187 267 268
3 187 268 188
3 188 268 269
3 188 269 189
3 189 269 270
3 189 270 190
3 190 270 271
3 190 271 191
3 191 271 272
3 191 272 192
3 192 272 273
3 192 273 193
3 193 273 274
3 193 274 194
3 194 274 275
3 194 275 195
3 195 275 276
3 195 276 196
3 196 276 277
3 196 277 197
3 197 277 278
3 197 278 198
3 198 278 279
3 198 279 199
3 199 279 280
3 199 280 200
3 200 280 281
3 200 281 201
3 201 281 282
3 201 282 202
3 202 282 283
3 202 283 203
3 203 283 284
3 203 284 204
3 204 284 285
3 204 285 205
3 205 285 286
3 205 286 206
3 206 286 287
3 206 287 207
3 207 287 288
3 207 288 208
3 208 288 289
3 208 289 209
3 209 289 290
3 209 290 210
3 210 290 291
3 210 291 211
3 211 291 212
3 212 291 293
3 212 293 213
3 213 293 294
3 213 294 214
3 214 294 295
3 214 295 215
3 215 295 296
3 215 296 216
3 216 296 297
3 216 297 217
3 217 297 298
3 217 298 218
3 218 298 299
3 218 299 219
3 219 299 300
3 219 300 220
3 220 300 301
3 220 301 221
3 221 301 302
3 221 302 222
3 222 302 303
3 222 303 223
3 223 303 304
3 223 304 224
3 224 304 305
3 224 305 225
3 225 305 306
3 225 306 226
3 226 306 307
3 226 307 227
3 227 307 308
3 227 308 228
3 228 308 309
3 228 309 229
3 229 309 310
3 229 310 311
3 229 311 231
3 231 311 312
3 231 312 232
3 232 312 313
3 232 313 233
3 233 313 314
3 233 314 234
3 234 314 315
3 234 315 235
3 235 315 316
3 235 316 236
3 236 316 317
3 236 317 237
3 237 317 318
3 237 318 238
3 238 318 319
3 238 319 239
3 239 319 320
3 239 320 240
3 240 320 241
3 240 241 161
3 241 321 322
3 241 322 242
3 242 322 323
3 242 323 243
3 243 323 324
3 243 324 244
3 244 324 325
3 244 325 245
3 245 325 326
3 245 326 246
3 246 326 327
3 246 327 247
3 247 327 328
3 247 328 248
3 248 328 329
3 248 329 249
3 249 329 330
3 249 330 250
3 250 330 331
3 250 331 251
3 251 331 332
3 251 332 252
3 252 332 333
3 252 333 253
3 253 333 334
3 253 334 254
3 254 334 335
3 254 335 255
3 255 335 336
3 255 336 256
3 256 336 337
3 256 337 257
3 257 337 338
3 257 338 258
3 258 338 339
3 258 339 259
3 259 339 340
3 259 340 260
3 260 340 341
3 260 341 261
3 261 341 342
3 261 342 262
3 262 342 343
3 262 343 263
3 263 343 344
3 263 344 264
3 264 344 345
3 264 345 265
3 265 345 346
3 265 346 266
3 266 346 347
3 266 347 267
3 267 347 348
3 267 348 268
3 268 348 349
3 268 349 269
3 269 349 350
3 269 350 270
3 270 350 351
3 270 351 271
3 271 351 352
3 271 352 272
3 272 352 353
3 272 353 273
3 273 353 354
3 273 354 274
3 274 354 355
3 274 355 275
3 275 355 356
3 275 356 276
3 276 356 357
3 276 357 277
3 277 357 358
3 277 358 278
3 278 358 359
3 278 359 279
3 279 359 360
3 279 360 280
3 280 360 361
3 280 361 281
3 281 361 362
3 281 362 282
3 282 362 363
3 282 363 283
3 283 363 364
3 283 364 284
3 284 364 365
3 284 365 285
3 285 365 366
3 285 366 286
3 286 366 367
3 286 367 287
3 287 367 368
3 287 368 288
3 288 368 369
3 288 369 289
3 289 369 370
3 289 370 290
3 290 370 371
3 290 371 291
3 291 371 372
3 291 372 373
3 291 373 293
3 293 373 374
3 293 374 294
3 294 374 375
3 294 375 295
3 295 375 376
3 295 376 296
3 296 376 377
3 296 377 297
3 297 377 378
3 297 378 298
3 298 378 379
3 298 379 299
3 299 379 380
3 299 380 300
3 300 380 381
3 300 381 301
3 301 381 382
3 301 382 302
3 302 382 383
3 302 383 303
3 303 383 384
3 303 384 304
3 304 384 385
3 304 385 305
3 305 385 386
3 305 386 306
3 306 386 387
3 306 387 307
3 307 387 388
3 307 388 308
3 308 388 389
3 308 389 309
3 309 389 390
3 309 390 310
3 310 390 391
3 310 391 311
3 311 391 392
3 311 392 312
3 312 392 393
3 312 393 313
3 313 393 394
3 313 394 314
3 314 394 395
3 314 395 315
3 315 395 316
3 316 395 397
3 316 397 317
3 317 397 398
3 317 398 318
3 318 398 399
3 318 399 319
3 319 399 400
3 319 400 320
3 320 400 321
3 320 321 241
3 321 401 402
3 321 402 322
3 322 402 403
3 322 403 323
3 323 403 404
3 323 404 324
3 324 404 405
3 324 405 325
3 325 405 406
3 325 406 326
3 326 406 407
3 326 407 327
3 327 407 408
3 327 408 328
3 328 408 409
3 328 409 329
3 329 409 410
3 329 410 330
3 330 410 411
3 330 411 331
3 331 411 412
3 331 412 332
3 332 412 413
3 332 413 333
3 333 413 414
3 333 414 334
3 334 414 415
3 334 415 335
3 335 415 416
3 335 416 336
3 336 416 417
3 336 417 337
3 337 417 418
3 337 418 338
3 338 418 419
3 338 419 339
3 339 419 420
3 339 420 340
3 340 420 421
3 340 421 341
3 341 421 422
3 341 422 342
3 342 422 423
3 342 423 343
3 343 423 424
3 343 424 344
3 344 424 425
3 344 425 345
3 345 425 426
3 345 426 346
3 346 426 427
3 346 427 347
3 347 427 428
3 347 428 348
3 348 428 429
3 348 429 349
3 349 429 430
3 349 430 350
3 350 430 431
3 350 431 351
3 351 431 432
3 351 432 352
3 352 432 433
3 352 433 353
3 353 433 434
3 353 434 354
3 354 434 435
3 354 435 355
3 355 435 436
3 355 436 356
3 356 436 437
3 356 437 357
3 357 437 438
3 357 438 358
3 358 438 439
3 358 439 359
3 359 439 440
3 359 440 360
3 360 440 441
3 360 441 361
3 361 441 442
3 361 442 362
3 362 442 443
3 362 443 363
3 363 443 444
3 363 444 364
3 364 444 445
3 364 445 365
3 365 445 446
3 365 446 366
3 366 446 447
3 366 447 367
3 367 447 448
3 367 448 368
3 368 448 449
3 368 449 369
3 369 449 450
3 369 450 370
3 370 450 451
3 370 451 371
3 371 451 452
3 371 452 372
3 372 452 453
3 372 453 373
3 373 453 454
3 373 454 374
3 374 454 455
3 374 455 375
3 375 455 456
3 375 456 376
3 376 456 457
3 376 457 377
3 377 457 458
3 377 458 378
3 378 458 459
3 378 459 379
3 379 459 460
3 379 460 380
3 380 460 461
3 380 461 381
3 381 461 462
3 381 462 382
3 382 462 463
3 382 463 383
3 383 463 384
3 384 463 465
3 384 465 385
3 385 465 466
3 385 466 386
3 386 466 467
3 386 467 387
3 387 467 468
3 387 468 388
3 388 468 469
3 388 469 389
3 389 469 470
3 389 470 390
3 390 470 471
3 390 471 391
3 391 471 472
3 391 472 392
3 392 472 473
3 392 473 393
3 393 473 474
3 393 474 394
3 394 474 475
3 394 475 395
3 395 475 476
3 395 476 477
3 395 477 397
3 397 477 478
3 397 478 398
3 398 478 479
3 398 479 399
3 399 479 480
3 399 480 400
3 400 480 401
3 400 401 321
3 401 481 482
3 401 482 402
3 402 482 483
3 402 483 403
3 403 483 484
3 403 484 404
3 404 484 485
3 404 485 405
3 405 485 486
3 405 486 406
3 406 486 487
3 406 487 407
3 407 487 488
3 407 488 408
3 408 488 489
3 408 489 409
3 409 489 490
3 409 490 410
3 410 490 491
3 410 491 411
3 411 491 492
3 411 492 412
3 412 492 493
3 412 493 413
3 413 493 494
3 413 494 414
3 414 494 495
3 414 495 415
3 415 495 496
3 415 496 416
3 416 496 497
3 416 497 417
3 417 497 498
3 417 498 418
3 418 498 499
3 418 499 419
3 419 499 500
3 419 500 420
3 420 500 501
3 420 501 421
3 421 501 502
3 421 502 422
3 422 502 503
3 422 503 423
3 423 503 504
3 423 504 424
3 424 504 505
3 424 505 425
3 425 505 506
3 425 506 426
3 426 506 507
3 426 507 427
3 427 507 508
3 427 508 428
3 428 508 509
3 428 509 429
3 429 509 510
3 429 510 430
3 430 510 511
3 430 511 431
3 431 511 512
3 431 512 432
3 432 512 513
3 432 513 433
3 433 513 514
3 433 514 434
3 434 514 515
3 434 515 435
3 435 515 516
3 435 516 436
3 436 516 517
3 436 517 437
3 437 517 518
3 437 518 438
3 438 518 519
3 438 519 439
3 439 519 520
3 439 520 440
3 440 520 521
3 440 521 441
3 441 521 522
3 441 522 442
3 442 522 523
3 442 523 443
3 443 523 524
3 443 524 444
3 444 524 525
3 444 525 445
3 445 525 526
3 445 526 446
3 446 526 527
3 446 527 447
3 447 527 528
3 447 528 448
3 448 528 529
3 448 529 449
3 449 529 530
3 449 530 450
3 450 530 531
3 450 531 451
3 451 531 532
3 451 532 452
3 452 532 533
3 452 533 453
3 453 533 534
3 453 534 454
3 454 534 535
3 454 535 455
3 455 535 536
3 455 536 456
3 456 536 537
3 456 537 457
3 457 537 538
3 457 538 458
3 458 538 539
3 458 539 459
3 459 539 540
3 459 540 460
3 460 540 541
3 460 541 461
3 461 541 542
3 461 542 462
3 462 542 543
3 462 543 463
3 463 543 544
3 463 544 545
3 463 545 465
3 465 545 546
3 465 546 466
3 466 546 467
3 467 546 548
3 467 548 468
3 468 548 549
3 468 549 469
3 469 549 550
3 469 550 470
3 470 550 551
3 470 551 471
3 471 551 552
3 471 552 472
3 472 552 553
3 472 553 473
3 473 553 554
3 473 554 474
3 474 554 555
3 474 555 475
3 475 555 556
3 475 556 476
3 476 556 557
3 476 557 477
3 477 557 558
3 477 558 478
3 478 558 559
3 478 559 479
3 479 559 560
3 479 560 480
3 480 560 481
3 480 481 401
3 481 561 562
3 481 562 482
3 482 562 563
3 482 563 483
3 483 563 564
3 483 564 484
3 484 564 565
3 484 565 485
3 485 565 566
3 485 566 486
3 486 566 567
3 486 567 487
3 487 567 568
3 487 568 488
3 488 568 569
3 488 569 489
3 489 569 570
3 489 570 490
3 490 570 571
3 490 571 491
3 491 571 572
3 491 572 492
3 492 572 573
3 492 573 493
3 493 573 574
3 493 574 494
3 494 574 575
3 494 575 495
3 495 575 576
3 495 576 496
3 496 576 577
3 496 577 497
3 497 577 578
3 497 578 498
3 498 578 579
3 498 579 499
3 499 579 580
3 499 580 500
3 500 580 581
3 500 581 501
3 501 581 582
3 501 582 502
3 502 582 583
3 502 583 503
3 503 583 584
3 503 584 504
3 504 584 585
3 504 585 505
3 505 585 586
3 505 586 506
3 506 586 587
3 506 587 507
3 507 587 588
3 507 588 508
3 508 588 589
3 508 589 509
3 509 589 590
3 509 590 510
3 510 590 591
3 510 591 511
3 511 591 592
3 511 592 512
3 512 592 593
3 512 593 513
3 513 593 594
3 513 594 514
3 514 594 595
3 514 595 515
3 515 595 596
3 515 596 516
3 516 596 597
3 516 597 517
3 517 597 598
3 517 598 518
3 518 598 599
3 518 599 519
3 519 599 600
3 519 600 520
3 520 600 601
3 520 601 521
3 521 601 602
3 521 602 522
3 522 602 603
3 522 603 523
3 523 603 604
3 523 604 524
3 524 604 605
3 524 605 525
3 525 605 606
3 525 606 526
3 526 606 607
3 526 607 527
3 527 607 608
3 527 608 528
3 528 608 609
3 528 609 529
3 529 609 610
3 529 610 530
3 530 610 611
3 530 611 531
3 531 611 612
3 531 612 532
3 532 612 613
3 532 613 533
3 533 613 614
3 533 614 534
3 534 614 615
3 534 615 535
3 535 615 616
3 535 616 536
3 536 616 617
3 536 617 537
3 537 617 618
3 537 618 538
3 538 618 619
3 538 619 539
3 539 619 620
3 539 620 540
3 540 620 621
3 540 621 541
3 541 621 622
3 541 622 542
3 542 622 623
3 542 623 543
3 543 623 624
3 543 624 544
3 544 624 625
3 544 625 545
3 545 625 626
3 545 626 546
3 546 626 627
3 546 627 548
3 548 627 629
3 548 629 549
3 549 629 630
3 549 630 550
3 550 630 631
3 550 631 551
3 551 631 632
3 551 632 552
3 552 632 633
3 552 633 553
3 553 633 634
3 553 634 554
3 554 634 635
3 554 635 555
3 555 635 636
3 555 636 556
3 556 636 637
3 556 637 557
3 557 637 638
3 557 638 558
3 558 638 639
3 558 639 559
3 559 639 640
3 559 640 560
3 560 640 561
3 560 561 481
