ply 
format ascii 1.0 
comment this is a surface 
element vertex 801 
property float x 
property float y 
property float z 
element face 1482 
property list uchar int vertex_index 
end_header 
153.369750 141.572375 -77.760000
154.870000 146.120000 -77.760000
153.810000 147.020000 -77.760000
152.780000 147.960000 -77.760000
151.790000 148.930000 -77.760000
150.840000 149.930000 -77.760000
149.920000 150.950000 -77.760000
149.030000 151.990000 -77.760000
148.130000 153.050000 -77.760000
147.210000 154.150000 -77.760000
146.410000 155.300000 -77.760000
145.890000 156.510000 -77.760000
145.600000 158.140000 -77.760000
145.400000 159.880000 -77.760000
145.170000 161.000000 -77.760000
144.850000 160.940000 -77.760000
144.410000 160.060000 -77.760000
143.920000 158.650000 -77.760000
143.410000 156.960000 -77.760000
142.920000 155.260000 -77.760000
142.500000 153.780000 -77.760000
142.120000 152.460000 -77.760000
141.740000 151.130000 -77.760000
141.370000 149.790000 -77.760000
141.020000 148.450000 -77.760000
140.700000 147.100000 -77.760000
140.410000 145.740000 -77.760000
140.170000 144.390000 -77.760000
139.980000 143.030000 -77.760000
139.790000 141.630000 -77.760000
139.630000 140.220000 -77.760000
139.500000 138.830000 -77.760000
139.450000 137.510000 -77.760000
139.910000 136.300000 -77.760000
140.780000 135.120000 -77.760000
141.320000 133.710000 -77.760000
141.750000 132.050000 -77.760000
142.190000 130.550000 -77.760000
142.730000 129.620000 -77.760000
143.490000 129.430000 -77.760000
144.580000 129.330000 -77.760000
145.920000 129.250000 -77.760000
147.420000 129.180000 -77.760000
149.020000 129.130000 -77.760000
150.610000 129.100000 -77.760000
152.120000 129.090000 -77.760000
153.510000 129.110000 -77.760000
154.890000 129.200000 -77.760000
156.270000 129.370000 -77.760000
157.650000 129.590000 -77.760000
159.010000 129.840000 -77.760000
160.370000 130.120000 -77.760000
161.700000 130.400000 -77.760000
163.030000 130.750000 -77.760000
164.360000 131.180000 -77.760000
165.670000 131.680000 -77.760000
166.960000 132.230000 -77.760000
168.220000 132.830000 -77.760000
169.430000 133.470000 -77.760000
170.660000 134.170000 -77.760000
172.060000 135.050000 -77.760000
173.420000 136.020000 -77.760000
174.480000 136.980000 -77.760000
175.000000 137.810000 -77.760000
174.620000 138.470000 -77.760000
173.330000 139.070000 -77.760000
171.680000 139.600000 -77.760000
170.220000 140.090000 -77.760000
168.910000 140.530000 -77.760000
167.580000 140.920000 -77.760000
166.240000 141.280000 -77.760000
164.900000 141.630000 -77.760000
163.560000 142.000000 -77.760000
162.240000 142.390000 -77.760000
160.940000 142.840000 -77.760000
159.670000 143.350000 -77.760000
158.420000 143.930000 -77.760000
157.190000 144.570000 -77.760000
155.970000 145.240000 -77.760000
155.970000 145.240000 -77.760000
154.870000 146.120000 -77.760000
150.300000 144.920000 -69.120000
149.020000 146.120000 -69.120000
147.750000 147.320000 -69.120000
146.500000 148.540000 -69.120000
146.500000 148.540000 -69.120000
145.260000 149.780000 -69.120000
144.040000 151.030000 -69.120000
144.040000 151.030000 -69.120000
142.840000 152.400000 -69.120000
141.770000 153.840000 -69.120000
140.860000 155.330000 -69.120000
140.150000 156.880000 -69.120000
139.670000 158.500000 -69.120000
139.330000 160.220000 -69.120000
139.020000 161.970000 -69.120000
138.610000 163.670000 -69.120000
138.060000 165.670000 -69.120000
137.360000 167.500000 -69.120000
136.410000 167.870000 -69.120000
134.890000 166.610000 -69.120000
134.140000 165.180000 -69.120000
133.730000 163.600000 -69.120000
133.430000 161.840000 -69.120000
133.170000 160.010000 -69.120000
132.900000 158.190000 -69.120000
132.530000 156.450000 -69.120000
132.060000 154.770000 -69.120000
131.540000 153.100000 -69.120000
130.990000 151.440000 -69.120000
130.470000 149.770000 -69.120000
130.010000 148.080000 -69.120000
129.530000 146.390000 -69.120000
129.030000 144.690000 -69.120000
128.580000 142.990000 -69.120000
128.250000 141.270000 -69.120000
128.110000 139.550000 -69.120000
128.110000 137.770000 -69.120000
128.110000 135.890000 -69.120000
128.120000 134.020000 -69.120000
128.130000 132.250000 -69.120000
128.150000 130.660000 -69.120000
128.290000 129.270000 -69.120000
129.120000 127.850000 -69.120000
130.510000 126.480000 -69.120000
132.240000 125.290000 -69.120000
134.070000 124.410000 -69.120000
135.790000 123.990000 -69.120000
137.390000 123.910000 -69.120000
139.100000 123.840000 -69.120000
140.890000 123.790000 -69.120000
142.700000 123.750000 -69.120000
144.500000 123.740000 -69.120000
146.240000 123.760000 -69.120000
147.990000 123.900000 -69.120000
149.730000 124.140000 -69.120000
151.470000 124.450000 -69.120000
153.180000 124.790000 -69.120000
154.870000 125.150000 -69.120000
156.590000 125.580000 -69.120000
158.310000 126.100000 -69.120000
160.020000 126.700000 -69.120000
161.670000 127.380000 -69.120000
163.240000 128.130000 -69.120000
164.700000 128.950000 -69.120000
166.150000 129.960000 -69.120000
167.710000 131.330000 -69.120000
169.020000 132.790000 -69.120000
169.690000 134.040000 -69.120000
169.480000 134.950000 -69.120000
168.620000 135.730000 -69.120000
167.250000 136.420000 -69.120000
165.490000 137.050000 -69.120000
163.480000 137.650000 -69.120000
161.360000 138.250000 -69.120000
159.260000 138.900000 -69.120000
157.300000 139.610000 -69.120000
155.630000 140.420000 -69.120000
154.220000 141.390000 -69.120000
152.880000 142.500000 -69.120000
151.580000 143.690000 -69.120000
145.780000 141.960000 -60.480000
144.480000 144.040000 -60.480000
143.310000 146.300000 -60.480000
142.290000 148.710000 -60.480000
142.290000 148.710000 -60.480000
141.440000 151.240000 -60.480000
141.440000 151.240000 -60.480000
140.200000 153.410000 -60.480000
139.040000 155.620000 -60.480000
137.960000 157.850000 -60.480000
136.970000 160.110000 -60.480000
136.060000 162.410000 -60.480000
135.220000 164.750000 -60.480000
134.440000 167.120000 -60.480000
133.700000 169.490000 -60.480000
133.030000 172.110000 -60.480000
132.450000 175.220000 -60.480000
131.890000 178.340000 -60.480000
131.300000 180.930000 -60.480000
130.590000 182.500000 -60.480000
129.610000 182.540000 -60.480000
127.940000 181.060000 -60.480000
126.080000 178.650000 -60.480000
124.630000 175.940000 -60.480000
124.190000 173.530000 -60.480000
124.150000 171.190000 -60.480000
124.110000 168.740000 -60.480000
124.080000 166.220000 -60.480000
124.060000 163.660000 -60.480000
124.050000 161.100000 -60.480000
124.040000 158.570000 -60.480000
124.080000 156.090000 -60.480000
124.190000 153.610000 -60.480000
124.340000 151.120000 -60.480000
124.480000 148.640000 -60.480000
124.580000 146.160000 -60.480000
124.580000 143.680000 -60.480000
124.430000 141.150000 -60.480000
124.190000 138.600000 -60.480000
123.930000 136.090000 -60.480000
123.730000 133.640000 -60.480000
123.640000 131.300000 -60.480000
124.060000 129.010000 -60.480000
125.160000 126.730000 -60.480000
126.720000 124.540000 -60.480000
128.500000 122.530000 -60.480000
130.280000 120.770000 -60.480000
132.130000 119.220000 -60.480000
134.310000 117.830000 -60.480000
136.600000 116.840000 -60.480000
138.920000 116.220000 -60.480000
141.360000 115.660000 -60.480000
143.860000 115.200000 -60.480000
146.370000 114.870000 -60.480000
148.850000 114.690000 -60.480000
151.260000 114.740000 -60.480000
153.670000 115.130000 -60.480000
156.080000 115.790000 -60.480000
158.460000 116.660000 -60.480000
160.820000 117.670000 -60.480000
163.140000 118.740000 -60.480000
165.400000 119.800000 -60.480000
167.770000 120.910000 -60.480000
170.530000 122.290000 -60.480000
173.170000 123.780000 -60.480000
175.160000 125.190000 -60.480000
175.940000 126.330000 -60.480000
175.120000 127.170000 -60.480000
173.010000 127.860000 -60.480000
170.130000 128.480000 -60.480000
166.980000 129.130000 -60.480000
164.080000 129.870000 -60.480000
161.740000 130.790000 -60.480000
159.410000 131.810000 -60.480000
157.060000 132.940000 -60.480000
154.760000 134.180000 -60.480000
152.570000 135.510000 -60.480000
150.540000 136.940000 -60.480000
148.730000 138.470000 -60.480000
147.190000 140.110000 -60.480000
143.550000 141.460000 -51.840000
142.060000 143.380000 -51.840000
140.650000 145.350000 -51.840000
139.350000 147.350000 -51.840000
138.210000 149.420000 -51.840000
137.200000 151.570000 -51.840000
136.290000 153.800000 -51.840000
135.470000 156.100000 -51.840000
135.470000 156.100000 -51.840000
134.750000 158.440000 -51.840000
134.750000 158.440000 -51.840000
133.750000 160.680000 -51.840000
132.840000 162.950000 -51.840000
132.130000 165.250000 -51.840000
131.710000 167.610000 -51.840000
131.480000 170.460000 -51.840000
131.330000 173.620000 -51.840000
131.210000 176.750000 -51.840000
131.080000 179.480000 -51.840000
130.880000 181.450000 -51.840000
130.570000 182.290000 -51.840000
129.320000 181.890000 -51.840000
126.730000 180.710000 -51.840000
124.160000 179.140000 -51.840000
122.780000 177.530000 -51.840000
121.880000 175.540000 -51.840000
121.140000 173.190000 -51.840000
120.530000 170.660000 -51.840000
120.000000 168.090000 -51.840000
119.540000 165.670000 -51.840000
119.120000 163.300000 -51.840000
118.750000 160.920000 -51.840000
118.420000 158.520000 -51.840000
118.120000 156.120000 -51.840000
117.830000 153.710000 -51.840000
117.550000 151.310000 -51.840000
117.260000 148.900000 -51.840000
116.930000 146.490000 -51.840000
116.630000 144.070000 -51.840000
116.400000 141.660000 -51.840000
116.270000 139.280000 -51.840000
116.360000 136.920000 -51.840000
116.820000 134.570000 -51.840000
117.560000 132.230000 -51.840000
118.470000 129.920000 -51.840000
119.420000 127.660000 -51.840000
120.320000 125.410000 -51.840000
121.270000 122.980000 -51.840000
122.310000 120.480000 -51.840000
123.460000 118.080000 -51.840000
124.730000 115.970000 -51.840000
126.140000 114.310000 -51.840000
127.720000 113.250000 -51.840000
129.720000 112.400000 -51.840000
132.070000 111.640000 -51.840000
134.620000 111.040000 -51.840000
137.200000 110.650000 -51.840000
139.660000 110.530000 -51.840000
142.110000 110.600000 -51.840000
144.620000 110.790000 -51.840000
147.110000 111.070000 -51.840000
149.500000 111.430000 -51.840000
151.710000 111.850000 -51.840000
153.910000 112.590000 -51.840000
156.300000 113.960000 -51.840000
158.650000 115.760000 -51.840000
160.720000 117.760000 -51.840000
162.290000 119.720000 -51.840000
163.110000 121.440000 -51.840000
162.720000 122.750000 -51.840000
160.690000 123.850000 -51.840000
157.930000 124.910000 -51.840000
155.410000 126.140000 -51.840000
153.720000 127.700000 -51.840000
152.260000 129.610000 -51.840000
150.900000 131.680000 -51.840000
149.550000 133.760000 -51.840000
148.120000 135.720000 -51.840000
146.610000 137.640000 -51.840000
145.080000 139.550000 -51.840000
142.390000 140.450000 -43.200000
140.810000 142.250000 -43.200000
139.350000 144.100000 -43.200000
138.120000 146.020000 -43.200000
137.210000 148.040000 -43.200000
136.540000 150.240000 -43.200000
136.070000 152.560000 -43.200000
136.070000 152.560000 -43.200000
135.000000 154.630000 -43.200000
133.960000 156.710000 -43.200000
133.960000 156.710000 -43.200000
132.950000 158.800000 -43.200000
131.970000 160.900000 -43.200000
131.050000 163.200000 -43.200000
130.220000 165.940000 -43.200000
129.420000 168.780000 -43.200000
128.610000 171.380000 -43.200000
127.720000 173.390000 -43.200000
126.720000 174.470000 -43.200000
125.490000 174.250000 -43.200000
123.900000 172.770000 -43.200000
122.200000 170.590000 -43.200000
120.660000 168.320000 -43.200000
119.440000 166.360000 -43.200000
118.320000 164.340000 -43.200000
117.290000 162.230000 -43.200000
116.340000 160.070000 -43.200000
115.490000 157.890000 -43.200000
114.720000 155.720000 -43.200000
113.930000 153.520000 -43.200000
113.140000 151.290000 -43.200000
112.410000 149.040000 -43.200000
111.820000 146.770000 -43.200000
111.420000 144.490000 -43.200000
111.280000 142.210000 -43.200000
111.330000 139.890000 -43.200000
111.450000 137.520000 -43.200000
111.630000 135.150000 -43.200000
111.870000 132.820000 -43.200000
112.160000 130.590000 -43.200000
112.670000 128.480000 -43.200000
113.720000 126.440000 -43.200000
115.110000 124.470000 -43.200000
116.600000 122.540000 -43.200000
117.980000 120.640000 -43.200000
119.320000 118.560000 -43.200000
120.670000 116.360000 -43.200000
122.080000 114.190000 -43.200000
123.560000 112.190000 -43.200000
125.120000 110.510000 -43.200000
126.800000 109.300000 -43.200000
128.620000 108.660000 -43.200000
130.720000 108.210000 -43.200000
133.050000 107.830000 -43.200000
135.500000 107.550000 -43.200000
137.930000 107.380000 -43.200000
140.280000 107.360000 -43.200000
142.640000 107.510000 -43.200000
145.020000 107.790000 -43.200000
147.370000 108.190000 -43.200000
149.610000 108.660000 -43.200000
151.700000 109.200000 -43.200000
153.970000 110.100000 -43.200000
156.380000 111.380000 -43.200000
158.680000 112.940000 -43.200000
160.650000 114.670000 -43.200000
162.050000 116.450000 -43.200000
162.660000 118.180000 -43.200000
162.040000 119.910000 -43.200000
160.340000 121.770000 -43.200000
158.490000 123.590000 -43.200000
156.890000 125.280000 -43.200000
155.230000 126.900000 -43.200000
153.560000 128.520000 -43.200000
151.930000 130.180000 -43.200000
150.300000 131.840000 -43.200000
148.680000 133.500000 -43.200000
147.090000 135.200000 -43.200000
145.550000 136.930000 -43.200000
144.000000 138.680000 -43.200000
143.660000 140.510000 -34.560000
141.920000 142.870000 -34.560000
140.270000 145.270000 -34.560000
138.750000 147.740000 -34.560000
137.170000 150.270000 -34.560000
135.570000 152.830000 -34.560000
134.040000 155.430000 -34.560000
132.650000 158.070000 -34.560000
131.490000 160.750000 -34.560000
130.630000 163.470000 -34.560000
130.150000 166.230000 -34.560000
129.830000 169.040000 -34.560000
129.550000 171.910000 -34.560000
129.330000 174.830000 -34.560000
129.190000 177.800000 -34.560000
129.140000 180.810000 -34.560000
129.140000 180.810000 -34.560000
129.140000 180.810000 -34.560000
129.070000 185.200000 -34.560000
128.860000 188.440000 -34.560000
128.520000 189.860000 -34.560000
126.500000 189.810000 -34.560000
122.930000 189.610000 -34.560000
120.420000 189.060000 -34.560000
117.860000 187.690000 -34.560000
115.330000 185.650000 -34.560000
113.000000 183.140000 -34.560000
111.020000 180.330000 -34.560000
109.540000 177.430000 -34.560000
108.720000 174.620000 -34.560000
108.610000 172.000000 -34.560000
108.680000 169.210000 -34.560000
108.770000 166.260000 -34.560000
108.870000 163.240000 -34.560000
108.950000 160.210000 -34.560000
108.960000 157.260000 -34.560000
108.960000 154.340000 -34.560000
108.960000 151.420000 -34.560000
108.960000 148.500000 -34.560000
108.960000 145.590000 -34.560000
108.960000 142.670000 -34.560000
108.960000 139.750000 -34.560000
109.040000 136.810000 -34.560000
109.210000 133.880000 -34.560000
109.440000 131.030000 -34.560000
109.910000 128.190000 -34.560000
110.700000 125.340000 -34.560000
111.730000 122.510000 -34.560000
112.970000 119.740000 -34.560000
114.350000 117.050000 -34.560000
115.810000 114.490000 -34.560000
117.310000 112.070000 -34.560000
118.870000 109.710000 -34.560000
120.720000 107.240000 -34.560000
122.790000 104.840000 -34.560000
125.050000 102.720000 -34.560000
127.440000 101.080000 -34.560000
129.900000 100.130000 -34.560000
132.710000 99.527000 -34.560000
135.770000 99.059000 -34.560000
138.700000 98.810000 -34.560000
141.360000 98.940000 -34.560000
144.190000 99.715000 -34.560000
147.140000 101.060000 -34.560000
150.080000 102.850000 -34.560000
152.910000 105.000000 -34.560000
155.500000 107.380000 -34.560000
157.730000 109.900000 -34.560000
159.480000 112.440000 -34.560000
160.630000 114.900000 -34.560000
161.070000 117.170000 -34.560000
160.250000 119.360000 -34.560000
158.200000 121.690000 -34.560000
155.870000 124.050000 -34.560000
154.030000 126.390000 -34.560000
152.290000 128.730000 -34.560000
150.560000 131.080000 -34.560000
148.850000 133.440000 -34.560000
147.140000 135.810000 -34.560000
145.420000 138.170000 -34.560000
141.770000 139.790000 -25.920000
139.770000 142.330000 -25.920000
137.800000 144.900000 -25.920000
135.900000 147.500000 -25.920000
133.980000 150.150000 -25.920000
131.880000 152.820000 -25.920000
130.050000 155.560000 -25.920000
128.980000 158.420000 -25.920000
128.570000 161.480000 -25.920000
128.300000 164.690000 -25.920000
128.090000 167.980000 -25.920000
127.870000 171.280000 -25.920000
127.570000 174.510000 -25.920000
127.220000 177.720000 -25.920000
126.840000 180.930000 -25.920000
126.440000 184.140000 -25.920000
126.440000 184.140000 -25.920000
127.090000 188.620000 -25.920000
127.230000 191.360000 -25.920000
127.230000 191.360000 -25.920000
126.210000 191.540000 -25.920000
122.450000 191.460000 -25.920000
118.490000 191.310000 -25.920000
115.810000 190.310000 -25.920000
113.410000 187.760000 -25.920000
111.380000 184.920000 -25.920000
109.530000 182.310000 -25.920000
107.660000 179.480000 -25.920000
106.000000 176.510000 -25.920000
104.760000 173.460000 -25.920000
104.180000 170.370000 -25.920000
104.170000 167.270000 -25.920000
104.170000 164.070000 -25.920000
104.170000 160.810000 -25.920000
104.170000 157.530000 -25.920000
104.170000 154.250000 -25.920000
104.180000 151.020000 -25.920000
104.260000 147.780000 -25.920000
104.420000 144.550000 -25.920000
104.640000 141.310000 -25.920000
104.900000 138.090000 -25.920000
105.200000 134.870000 -25.920000
105.520000 131.680000 -25.920000
105.960000 128.490000 -25.920000
106.570000 125.310000 -25.920000
107.300000 122.140000 -25.920000
108.110000 119.000000 -25.920000
108.950000 115.880000 -25.920000
109.800000 112.730000 -25.920000
110.710000 109.510000 -25.920000
111.710000 106.320000 -25.920000
112.860000 103.280000 -25.920000
114.200000 100.490000 -25.920000
115.850000 97.856000 -25.920000
118.050000 95.009000 -25.920000
120.620000 92.461000 -25.920000
123.370000 90.781000 -25.920000
126.160000 90.443000 -25.920000
129.260000 90.718000 -25.920000
132.610000 91.261000 -25.920000
135.980000 92.006000 -25.920000
139.160000 92.886000 -25.920000
141.970000 93.884000 -25.920000
144.610000 95.466000 -25.920000
147.120000 97.604000 -25.920000
149.490000 100.090000 -25.920000
151.670000 102.730000 -25.920000
153.650000 105.310000 -25.920000
155.700000 107.980000 -25.920000
157.730000 110.870000 -25.920000
159.200000 113.790000 -25.920000
159.620000 116.580000 -25.920000
158.930000 119.250000 -25.920000
157.410000 121.870000 -25.920000
155.310000 124.460000 -25.920000
152.860000 127.020000 -25.920000
150.300000 129.570000 -25.920000
147.860000 132.130000 -25.920000
145.760000 134.700000 -25.920000
143.780000 137.250000 -25.920000
142.860000 140.360000 -17.280000
141.030000 143.140000 -17.280000
139.220000 145.990000 -17.280000
137.430000 148.880000 -17.280000
135.740000 151.810000 -17.280000
134.190000 154.800000 -17.280000
132.850000 157.840000 -17.280000
131.780000 160.930000 -17.280000
130.760000 164.110000 -17.280000
129.790000 167.360000 -17.280000
128.990000 170.660000 -17.280000
128.450000 173.980000 -17.280000
128.290000 177.300000 -17.280000
128.280000 180.610000 -17.280000
128.270000 183.940000 -17.280000
128.270000 187.290000 -17.280000
128.260000 190.650000 -17.280000
128.260000 194.030000 -17.280000
128.260000 194.030000 -17.280000
128.260000 194.030000 -17.280000
125.370000 196.360000 -17.280000
122.400000 197.450000 -17.280000
119.230000 197.050000 -17.280000
115.930000 195.810000 -17.280000
112.950000 194.230000 -17.280000
110.270000 192.330000 -17.280000
107.740000 189.800000 -17.280000
105.810000 186.980000 -17.280000
104.740000 184.080000 -17.280000
103.940000 180.880000 -17.280000
103.310000 177.490000 -17.280000
102.840000 174.070000 -17.280000
102.480000 170.730000 -17.280000
102.160000 167.410000 -17.280000
101.860000 164.070000 -17.280000
101.620000 160.720000 -17.280000
101.440000 157.380000 -17.280000
101.350000 154.030000 -17.280000
101.350000 150.690000 -17.280000
101.420000 147.340000 -17.280000
101.540000 144.000000 -17.280000
101.690000 140.650000 -17.280000
101.880000 137.310000 -17.280000
102.090000 133.970000 -17.280000
102.310000 130.630000 -17.280000
102.600000 127.260000 -17.280000
102.960000 123.880000 -17.280000
103.400000 120.520000 -17.280000
103.950000 117.230000 -17.280000
104.600000 114.030000 -17.280000
105.540000 110.870000 -17.280000
107.010000 107.680000 -17.280000
108.830000 104.740000 -17.280000
110.810000 102.280000 -17.280000
113.100000 100.020000 -17.280000
115.780000 97.732000 -17.280000
118.760000 95.592000 -17.280000
121.900000 93.758000 -17.280000
125.100000 92.392000 -17.280000
128.240000 91.654000 -17.280000
131.260000 91.679000 -17.280000
134.420000 92.369000 -17.280000
137.650000 93.572000 -17.280000
140.860000 95.145000 -17.280000
143.950000 96.944000 -17.280000
146.830000 98.824000 -17.280000
149.460000 100.690000 -17.280000
152.340000 102.910000 -17.280000
155.050000 105.490000 -17.280000
156.910000 108.290000 -17.280000
157.350000 111.230000 -17.280000
157.330000 114.610000 -17.280000
157.290000 118.050000 -17.280000
156.830000 121.140000 -17.280000
155.260000 124.060000 -17.280000
153.090000 126.890000 -17.280000
150.930000 129.670000 -17.280000
149.010000 132.400000 -17.280000
146.950000 135.050000 -17.280000
144.860000 137.680000 -17.280000
142.030000 140.680000 -8.640000
139.470000 143.080000 -8.640000
137.140000 145.600000 -8.640000
135.140000 148.290000 -8.640000
133.300000 151.200000 -8.640000
131.550000 154.280000 -8.640000
130.000000 157.490000 -8.640000
128.730000 160.770000 -8.640000
127.850000 164.060000 -8.640000
127.150000 167.420000 -8.640000
126.540000 170.880000 -8.640000
126.070000 174.370000 -8.640000
125.820000 177.840000 -8.640000
125.970000 181.270000 -8.640000
126.880000 184.760000 -8.640000
128.120000 188.230000 -8.640000
129.180000 191.560000 -8.640000
129.560000 194.660000 -8.640000
128.490000 197.540000 -8.640000
128.490000 197.540000 -8.640000
126.060000 200.240000 -8.640000
122.850000 202.770000 -8.640000
122.850000 202.770000 -8.640000
119.150000 202.240000 -8.640000
115.830000 201.130000 -8.640000
112.950000 199.710000 -8.640000
110.510000 197.430000 -8.640000
108.340000 194.490000 -8.640000
106.100000 191.710000 -8.640000
103.510000 188.970000 -8.640000
101.350000 186.130000 -8.640000
100.480000 183.100000 -8.640000
100.370000 179.820000 -8.640000
100.310000 176.340000 -8.640000
100.260000 172.750000 -8.640000
100.190000 169.190000 -8.640000
100.060000 165.710000 -8.640000
99.830000 162.230000 -8.640000
99.556000 158.760000 -8.640000
99.300000 155.290000 -8.640000
99.126000 151.830000 -8.640000
99.109000 148.390000 -8.640000
99.422000 144.970000 -8.640000
100.020000 141.550000 -8.640000
100.800000 138.150000 -8.640000
101.640000 134.750000 -8.640000
102.450000 131.340000 -8.640000
103.110000 127.920000 -8.640000
103.570000 124.380000 -8.640000
103.960000 120.740000 -8.640000
104.390000 117.220000 -8.640000
104.990000 114.030000 -8.640000
106.110000 111.160000 -8.640000
108.180000 108.300000 -8.640000
110.930000 105.640000 -8.640000
114.020000 103.390000 -8.640000
117.120000 101.760000 -8.640000
120.170000 100.690000 -8.640000
123.580000 99.734000 -8.640000
127.160000 98.938000 -8.640000
130.720000 98.379000 -8.640000
134.080000 98.130000 -8.640000
137.150000 98.565000 -8.640000
140.110000 100.070000 -8.640000
142.970000 102.290000 -8.640000
145.760000 104.880000 -8.640000
148.490000 107.460000 -8.640000
151.230000 109.740000 -8.640000
154.450000 112.010000 -8.640000
157.800000 114.390000 -8.640000
160.720000 116.810000 -8.640000
162.660000 119.240000 -8.640000
163.070000 121.630000 -8.640000
161.890000 124.010000 -8.640000
159.560000 126.380000 -8.640000
156.510000 128.760000 -8.640000
153.170000 131.150000 -8.640000
149.970000 133.550000 -8.640000
147.300000 135.960000 -8.640000
144.680000 138.320000 -8.640000
142.930000 140.390000 0.000000
140.540000 143.190000 0.000000
138.290000 146.150000 0.000000
136.110000 149.180000 0.000000
133.920000 152.200000 0.000000
131.620000 155.140000 0.000000
128.890000 157.920000 0.000000
126.600000 160.800000 0.000000
125.510000 164.070000 0.000000
124.750000 167.690000 0.000000
124.440000 171.610000 0.000000
124.440000 171.610000 0.000000
125.070000 175.310000 0.000000
125.530000 179.000000 0.000000
125.820000 182.700000 0.000000
125.930000 186.400000 0.000000
125.880000 190.260000 0.000000
125.650000 194.300000 0.000000
125.270000 197.980000 0.000000
125.270000 197.980000 0.000000
124.550000 200.890000 0.000000
121.610000 203.620000 0.000000
117.800000 205.290000 0.000000
114.610000 204.940000 0.000000
111.250000 203.210000 0.000000
107.960000 200.580000 0.000000
105.100000 197.540000 0.000000
103.020000 194.550000 0.000000
101.510000 191.520000 0.000000
100.100000 188.070000 0.000000
98.908000 184.350000 0.000000
98.052000 180.520000 0.000000
97.644000 176.750000 0.000000
97.671000 173.090000 0.000000
97.863000 169.380000 0.000000
98.183000 165.630000 0.000000
98.611000 161.890000 0.000000
99.124000 158.170000 0.000000
99.701000 154.530000 0.000000
100.480000 150.980000 0.000000
102.100000 147.550000 0.000000
104.050000 144.170000 0.000000
105.650000 140.770000 0.000000
106.230000 137.260000 0.000000
106.110000 133.630000 0.000000
105.870000 129.910000 0.000000
105.590000 126.150000 0.000000
105.340000 122.390000 0.000000
105.200000 118.680000 0.000000
105.310000 114.930000 0.000000
105.810000 110.910000 0.000000
106.640000 106.830000 0.000000
107.760000 102.920000 0.000000
109.110000 99.393000 0.000000
110.630000 96.480000 0.000000
112.420000 94.291000 0.000000
115.470000 92.259000 0.000000
119.320000 90.639000 0.000000
123.210000 89.881000 0.000000
126.840000 90.022000 0.000000
130.590000 90.507000 0.000000
134.290000 91.204000 0.000000
137.820000 92.136000 0.000000
141.280000 93.749000 0.000000
144.410000 95.717000 0.000000
147.230000 97.909000 0.000000
149.950000 100.460000 0.000000
152.520000 103.290000 0.000000
154.910000 106.310000 0.000000
157.080000 109.450000 0.000000
158.980000 112.630000 0.000000
160.780000 115.980000 0.000000
162.360000 119.580000 0.000000
162.600000 122.750000 0.000000
160.430000 125.460000 0.000000
157.040000 127.980000 0.000000
154.020000 130.500000 0.000000
151.210000 132.950000 0.000000
148.340000 135.350000 0.000000
145.550000 137.800000 0.000000
3 0 80 2
3 0 2 3
3 0 3 4
3 0 4 5
3 0 5 6
3 0 6 7
3 0 7 8
3 0 8 9
3 0 9 10
3 0 10 11
3 0 11 12
3 0 12 13
3 0 13 14
3 0 14 15
3 0 15 16
3 0 16 17
3 0 17 18
3 0 18 19
3 0 19 20
3 0 20 21
3 0 21 22
3 0 22 23
3 0 23 24
3 0 24 25
3 0 25 26
3 0 26 27
3 0 27 28
3 0 28 29
3 0 29 30
3 0 30 31
3 0 31 32
3 0 32 33
3 0 33 34
3 0 34 35
3 0 35 36
3 0 36 37
3 0 37 38
3 0 38 39
3 0 39 40
3 0 40 41
3 0 41 42
3 0 42 43
3 0 43 44
3 0 44 45
3 0 45 46
3 0 46 47
3 0 47 48
3 0 48 49
3 0 49 50
3 0 50 51
3 0 51 52
3 0 52 53
3 0 53 54
3 0 54 55
3 0 55 56
3 0 56 57
3 0 57 58
3 0 58 59
3 0 59 60
3 0 60 61
3 0 61 62
3 0 62 63
3 0 63 64
3 0 64 65
3 0 65 66
3 0 66 67
3 0 67 68
3 0 68 69
3 0 69 70
3 0 70 71
3 0 71 72
3 0 72 73
3 0 73 74
3 0 74 75
3 0 75 76
3 0 76 77
3 0 77 78
3 0 78 80
3 80 81 82
3 80 82 2
3 2 82 83
3 2 83 3
3 3 83 84
3 3 84 4
3 4 84 5
3 5 84 86
3 5 86 6
3 6 86 87
3 6 87 7
3 7 87 8
3 8 87 89
3 8 89 9
3 9 89 90
3 9 90 10
3 10 90 91
3 10 91 11
3 11 91 92
3 11 92 12
3 12 92 93
3 12 93 13
3 13 93 94
3 13 94 14
3 14 94 95
3 14 95 15
3 15 95 96
3 15 96 16
3 16 96 97
3 16 97 17
3 17 97 98
3 17 98 18
3 18 98 99
3 18 99 19
3 19 99 100
3 19 100 20
3 20 100 101
3 20 101 21
3 21 101 102
3 21 102 22
3 22 102 103
3 22 103 23
3 23 103 104
3 23 104 24
3 24 104 105
3 24 105 25
3 25 105 106
3 25 106 26
3 26 106 107
3 26 107 27
3 27 107 108
3 27 108 28
3 28 108 109
3 28 109 29
3 29 109 110
3 29 110 30
3 30 110 111
3 30 111 31
3 31 111 112
3 31 112 32
3 32 112 113
3 32 113 33
3 33 113 114
3 33 114 34
3 34 114 115
3 34 115 35
3 35 115 116
3 35 116 36
3 36 116 117
3 36 117 37
3 37 117 118
3 37 118 38
3 38 118 119
3 38 119 39
3 39 119 120
3 39 120 40
3 40 120 121
3 40 121 41
3 41 121 122
3 41 122 42
3 42 122 123
3 42 123 43
3 43 123 124
3 43 124 44
3 44 124 125
3 44 125 45
3 45 125 126
3 45 126 46
3 46 126 127
3 46 127 47
3 47 127 128
3 47 128 48
3 48 128 129
3 48 129 49
3 49 129 130
3 49 130 50
3 50 130 131
3 50 131 51
3 51 131 132
3 51 132 52
3 52 132 133
3 52 133 53
3 53 133 134
3 53 134 54
3 54 134 135
3 54 135 55
3 55 135 136
3 55 136 56
3 56 136 137
3 56 137 57
3 57 137 138
3 57 138 58
3 58 138 139
3 58 139 59
3 59 139 140
3 59 140 60
3 60 140 141
3 60 141 61
3 61 141 142
3 61 142 62
3 62 142 143
3 62 143 63
3 63 143 144
3 63 144 64
3 64 144 145
3 64 145 65
3 65 145 146
3 65 146 66
3 66 146 147
3 66 147 67
3 67 147 148
3 67 148 68
3 68 148 149
3 68 149 69
3 69 149 150
3 69 150 70
3 70 150 151
3 70 151 71
3 71 151 152
3 71 152 72
3 72 152 153
3 72 153 73
3 73 153 154
3 73 154 74
3 74 154 155
3 74 155 75
3 75 155 156
3 75 156 76
3 76 156 157
3 76 157 77
3 77 157 158
3 77 158 78
3 78 158 159
3 78 159 160
3 78 160 80
3 80 160 81
3 81 161 162
3 81 162 82
3 82 162 163
3 82 163 83
3 83 163 164
3 83 164 84
3 84 164 166
3 84 166 86
3 86 166 87
3 87 166 168
3 87 168 169
3 87 169 89
3 89 169 170
3 89 170 90
3 90 170 171
3 90 171 91
3 91 171 172
3 91 172 92
3 92 172 173
3 92 173 93
3 93 173 174
3 93 174 94
3 94 174 175
3 94 175 95
3 95 175 176
3 95 176 96
3 96 176 177
3 96 177 97
3 97 177 178
3 97 178 98
3 98 178 179
3 98 179 99
3 99 179 180
3 99 180 100
3 100 180 181
3 100 181 101
3 101 181 182
3 101 182 102
3 102 182 183
3 102 183 103
3 103 183 184
3 103 184 104
3 104 184 185
3 104 185 105
3 105 185 186
3 105 186 106
3 106 186 187
3 106 187 107
3 107 187 188
3 107 188 108
3 108 188 189
3 108 189 109
3 109 189 190
3 109 190 110
3 110 190 191
3 110 191 111
3 111 191 192
3 111 192 112
3 112 192 193
3 112 193 113
3 113 193 194
3 113 194 114
3 114 194 195
3 114 195 115
3 115 195 196
3 115 196 116
3 116 196 197
3 116 197 117
3 117 197 198
3 117 198 118
3 118 198 199
3 118 199 119
3 119 199 200
3 119 200 120
3 120 200 201
3 120 201 121
3 121 201 202
3 121 202 122
3 122 202 203
3 122 203 123
3 123 203 204
3 123 204 124
3 124 204 205
3 124 205 125
3 125 205 206
3 125 206 126
3 126 206 207
3 126 207 127
3 127 207 208
3 127 208 128
3 128 208 209
3 128 209 129
3 129 209 210
3 129 210 130
3 130 210 211
3 130 211 131
3 131 211 212
3 131 212 132
3 132 212 213
3 132 213 133
3 133 213 214
3 133 214 134
3 134 214 215
3 134 215 135
3 135 215 216
3 135 216 136
3 136 216 217
3 136 217 137
3 137 217 218
3 137 218 138
3 138 218 219
3 138 219 139
3 139 219 220
3 139 220 140
3 140 220 221
3 140 221 141
3 141 221 222
3 141 222 142
3 142 222 223
3 142 223 143
3 143 223 224
3 143 224 144
3 144 224 225
3 144 225 145
3 145 225 226
3 145 226 146
3 146 226 227
3 146 227 147
3 147 227 228
3 147 228 148
3 148 228 229
3 148 229 149
3 149 229 230
3 149 230 150
3 150 230 231
3 150 231 151
3 151 231 232
3 151 232 152
3 152 232 233
3 152 233 153
3 153 233 234
3 153 234 154
3 154 234 235
3 154 235 155
3 155 235 236
3 155 236 156
3 156 236 237
3 156 237 157
3 157 237 238
3 157 238 158
3 158 238 239
3 158 239 159
3 159 239 240
3 159 240 160
3 160 240 161
3 160 161 81
3 161 241 242
3 161 242 162
3 162 242 243
3 162 243 163
3 163 243 244
3 163 244 164
3 164 244 245
3 164 245 246
3 164 246 166
3 166 246 247
3 166 247 248
3 166 248 168
3 168 248 169
3 169 248 250
3 169 250 170
3 170 250 171
3 171 250 252
3 171 252 172
3 172 252 253
3 172 253 173
3 173 253 254
3 173 254 174
3 174 254 255
3 174 255 175
3 175 255 256
3 175 256 176
3 176 256 257
3 176 257 177
3 177 257 258
3 177 258 178
3 178 258 259
3 178 259 179
3 179 259 260
3 179 260 180
3 180 260 261
3 180 261 181
3 181 261 262
3 181 262 182
3 182 262 263
3 182 263 183
3 183 263 264
3 183 264 184
3 184 264 265
3 184 265 185
3 185 265 266
3 185 266 186
3 186 266 267
3 186 267 187
3 187 267 268
3 187 268 188
3 188 268 269
3 188 269 189
3 189 269 270
3 189 270 190
3 190 270 271
3 190 271 191
3 191 271 272
3 191 272 192
3 192 272 273
3 192 273 193
3 193 273 274
3 193 274 194
3 194 274 275
3 194 275 195
3 195 275 276
3 195 276 196
3 196 276 277
3 196 277 197
3 197 277 278
3 197 278 198
3 198 278 279
3 198 279 199
3 199 279 280
3 199 280 200
3 200 280 281
3 200 281 201
3 201 281 282
3 201 282 202
3 202 282 283
3 202 283 203
3 203 283 284
3 203 284 204
3 204 284 285
3 204 285 205
3 205 285 286
3 205 286 206
3 206 286 287
3 206 287 207
3 207 287 288
3 207 288 208
3 208 288 289
3 208 289 209
3 209 289 290
3 209 290 210
3 210 290 291
3 210 291 211
3 211 291 292
3 211 292 212
3 212 292 293
3 212 293 213
3 213 293 294
3 213 294 214
3 214 294 295
3 214 295 215
3 215 295 296
3 215 296 216
3 216 296 297
3 216 297 217
3 217 297 298
3 217 298 218
3 218 298 299
3 218 299 219
3 219 299 300
3 219 300 220
3 220 300 301
3 220 301 221
3 221 301 302
3 221 302 222
3 222 302 303
3 222 303 223
3 223 303 304
3 223 304 224
3 224 304 305
3 224 305 225
3 225 305 306
3 225 306 226
3 226 306 307
3 226 307 227
3 227 307 308
3 227 308 228
3 228 308 309
3 228 309 229
3 229 309 310
3 229 310 230
3 230 310 311
3 230 311 231
3 231 311 312
3 231 312 232
3 232 312 313
3 232 313 233
3 233 313 314
3 233 314 234
3 234 314 315
3 234 315 235
3 235 315 316
3 235 316 236
3 236 316 317
3 236 317 237
3 237 317 318
3 237 318 238
3 238 318 319
3 238 319 239
3 239 319 320
3 239 320 240
3 240 320 241
3 240 241 161
3 241 321 322
3 241 322 242
3 242 322 323
3 242 323 243
3 243 323 324
3 243 324 244
3 244 324 325
3 244 325 245
3 245 325 326
3 245 326 246
3 246 326 327
3 246 327 247
3 247 327 248
3 248 327 329
3 248 329 330
3 248 330 250
3 250 330 332
3 250 332 252
3 252 332 333
3 252 333 253
3 253 333 334
3 253 334 254
3 254 334 335
3 254 335 255
3 255 335 336
3 255 336 256
3 256 336 337
3 256 337 257
3 257 337 338
3 257 338 258
3 258 338 339
3 258 339 259
3 259 339 340
3 259 340 260
3 260 340 341
3 260 341 261
3 261 341 342
3 261 342 262
3 262 342 343
3 262 343 263
3 263 343 344
3 263 344 264
3 264 344 345
3 264 345 265
3 265 345 346
3 265 346 266
3 266 346 347
3 266 347 267
3 267 347 348
3 267 348 268
3 268 348 349
3 268 349 269
3 269 349 350
3 269 350 270
3 270 350 351
3 270 351 271
3 271 351 352
3 271 352 272
3 272 352 353
3 272 353 273
3 273 353 354
3 273 354 274
3 274 354 355
3 274 355 275
3 275 355 356
3 275 356 276
3 276 356 357
3 276 357 277
3 277 357 358
3 277 358 278
3 278 358 359
3 278 359 279
3 279 359 360
3 279 360 280
3 280 360 361
3 280 361 281
3 281 361 362
3 281 362 282
3 282 362 363
3 282 363 283
3 283 363 364
3 283 364 284
3 284 364 365
3 284 365 285
3 285 365 366
3 285 366 286
3 286 366 367
3 286 367 287
3 287 367 368
3 287 368 288
3 288 368 369
3 288 369 289
3 289 369 370
3 289 370 290
3 290 370 371
3 290 371 291
3 291 371 372
3 291 372 292
3 292 372 373
3 292 373 293
3 293 373 374
3 293 374 294
3 294 374 375
3 294 375 295
3 295 375 376
3 295 376 296
3 296 376 377
3 296 377 297
3 297 377 378
3 297 378 298
3 298 378 379
3 298 379 299
3 299 379 380
3 299 380 300
3 300 380 381
3 300 381 301
3 301 381 382
3 301 382 302
3 302 382 383
3 302 383 303
3 303 383 384
3 303 384 304
3 304 384 385
3 304 385 305
3 305 385 386
3 305 386 306
3 306 386 387
3 306 387 307
3 307 387 388
3 307 388 308
3 308 388 389
3 308 389 309
3 309 389 390
3 309 390 310
3 310 390 391
3 310 391 311
3 311 391 392
3 311 392 312
3 312 392 393
3 312 393 313
3 313 393 394
3 313 394 314
3 314 394 395
3 314 395 315
3 315 395 396
3 315 396 316
3 316 396 397
3 316 397 317
3 317 397 398
3 317 398 318
3 318 398 399
3 318 399 319
3 319 399 400
3 319 400 320
3 320 400 321
3 320 321 241
3 321 401 402
3 321 402 322
3 322 402 403
3 322 403 323
3 323 403 404
3 323 404 324
3 324 404 405
3 324 405 325
3 325 405 406
3 325 406 326
3 326 406 407
3 326 407 327
3 327 407 408
3 327 408 409
3 327 409 329
3 329 409 410
3 329 410 330
3 330 410 411
3 330 411 412
3 330 412 332
3 332 412 413
3 332 413 333
3 333 413 414
3 333 414 334
3 334 414 415
3 334 415 335
3 335 415 416
3 335 416 336
3 336 416 337
3 337 416 338
3 338 416 419
3 338 419 339
3 339 419 420
3 339 420 340
3 340 420 421
3 340 421 341
3 341 421 422
3 341 422 342
3 342 422 423
3 342 423 343
3 343 423 424
3 343 424 344
3 344 424 425
3 344 425 345
3 345 425 426
3 345 426 346
3 346 426 427
3 346 427 347
3 347 427 428
3 347 428 348
3 348 428 429
3 348 429 349
3 349 429 430
3 349 430 350
3 350 430 431
3 350 431 351
3 351 431 432
3 351 432 352
3 352 432 433
3 352 433 353
3 353 433 434
3 353 434 354
3 354 434 435
3 354 435 355
3 355 435 436
3 355 436 356
3 356 436 437
3 356 437 357
3 357 437 438
3 357 438 358
3 358 438 439
3 358 439 359
3 359 439 440
3 359 440 360
3 360 440 441
3 360 441 361
3 361 441 442
3 361 442 362
3 362 442 443
3 362 443 363
3 363 443 444
3 363 444 364
3 364 444 445
3 364 445 365
3 365 445 446
3 365 446 366
3 366 446 447
3 366 447 367
3 367 447 448
3 367 448 368
3 368 448 449
3 368 449 369
3 369 449 450
3 369 450 370
3 370 450 451
3 370 451 371
3 371 451 452
3 371 452 372
3 372 452 453
3 372 453 373
3 373 453 454
3 373 454 374
3 374 454 455
3 374 455 375
3 375 455 456
3 375 456 376
3 376 456 457
3 376 457 377
3 377 457 458
3 377 458 378
3 378 458 459
3 378 459 379
3 379 459 460
3 379 460 380
3 380 460 461
3 380 461 381
3 381 461 462
3 381 462 382
3 382 462 463
3 382 463 383
3 383 463 464
3 383 464 384
3 384 464 465
3 384 465 385
3 385 465 466
3 385 466 386
3 386 466 467
3 386 467 387
3 387 467 468
3 387 468 388
3 388 468 469
3 388 469 389
3 389 469 470
3 389 470 390
3 390 470 471
3 390 471 391
3 391 471 472
3 391 472 392
3 392 472 473
3 392 473 393
3 393 473 474
3 393 474 394
3 394 474 475
3 394 475 395
3 395 475 476
3 395 476 396
3 396 476 477
3 396 477 397
3 397 477 478
3 397 478 398
3 398 478 479
3 398 479 399
3 399 479 480
3 399 480 400
3 400 480 401
3 400 401 321
3 401 481 482
3 401 482 402
3 402 482 483
3 402 483 403
3 403 483 484
3 403 484 404
3 404 484 485
3 404 485 405
3 405 485 486
3 405 486 406
3 406 486 487
3 406 487 407
3 407 487 488
3 407 488 408
3 408 488 489
3 408 489 409
3 409 489 490
3 409 490 410
3 410 490 491
3 410 491 411
3 411 491 492
3 411 492 412
3 412 492 493
3 412 493 413
3 413 493 494
3 413 494 414
3 414 494 495
3 414 495 415
3 415 495 496
3 415 496 416
3 416 496 498
3 416 498 499
3 416 499 419
3 419 499 420
3 420 499 501
3 420 501 421
3 421 501 502
3 421 502 422
3 422 502 503
3 422 503 423
3 423 503 504
3 423 504 424
3 424 504 505
3 424 505 425
3 425 505 506
3 425 506 426
3 426 506 507
3 426 507 427
3 427 507 508
3 427 508 428
3 428 508 509
3 428 509 429
3 429 509 510
3 429 510 430
3 430 510 511
3 430 511 431
3 431 511 512
3 431 512 432
3 432 512 513
3 432 513 433
3 433 513 514
3 433 514 434
3 434 514 515
3 434 515 435
3 435 515 516
3 435 516 436
3 436 516 517
3 436 517 437
3 437 517 518
3 437 518 438
3 438 518 519
3 438 519 439
3 439 519 520
3 439 520 440
3 440 520 521
3 440 521 441
3 441 521 522
3 441 522 442
3 442 522 523
3 442 523 443
3 443 523 524
3 443 524 444
3 444 524 525
3 444 525 445
3 445 525 526
3 445 526 446
3 446 526 527
3 446 527 447
3 447 527 528
3 447 528 448
3 448 528 529
3 448 529 449
3 449 529 530
3 449 530 450
3 450 530 531
3 450 531 451
3 451 531 532
3 451 532 452
3 452 532 533
3 452 533 453
3 453 533 534
3 453 534 454
3 454 534 535
3 454 535 455
3 455 535 536
3 455 536 456
3 456 536 537
3 456 537 457
3 457 537 538
3 457 538 458
3 458 538 539
3 458 539 459
3 459 539 540
3 459 540 460
3 460 540 541
3 460 541 461
3 461 541 542
3 461 542 462
3 462 542 543
3 462 543 463
3 463 543 544
3 463 544 464
3 464 544 545
3 464 545 465
3 465 545 546
3 465 546 466
3 466 546 547
3 466 547 467
3 467 547 548
3 467 548 468
3 468 548 549
3 468 549 469
3 469 549 550
3 469 550 470
3 470 550 551
3 470 551 471
3 471 551 552
3 471 552 472
3 472 552 553
3 472 553 473
3 473 553 554
3 473 554 474
3 474 554 555
3 474 555 475
3 475 555 556
3 475 556 476
3 476 556 557
3 476 557 477
3 477 557 558
3 477 558 478
3 478 558 559
3 478 559 479
3 479 559 560
3 479 560 480
3 480 560 481
3 480 481 401
3 481 561 562
3 481 562 482
3 482 562 563
3 482 563 483
3 483 563 564
3 483 564 484
3 484 564 565
3 484 565 485
3 485 565 566
3 485 566 486
3 486 566 567
3 486 567 487
3 487 567 568
3 487 568 488
3 488 568 569
3 488 569 489
3 489 569 570
3 489 570 490
3 490 570 571
3 490 571 491
3 491 571 572
3 491 572 492
3 492 572 573
3 492 573 493
3 493 573 574
3 493 574 494
3 494 574 575
3 494 575 495
3 495 575 576
3 495 576 496
3 496 576 577
3 496 577 578
3 496 578 498
3 498 578 499
3 499 578 581
3 499 581 501
3 501 581 582
3 501 582 502
3 502 582 583
3 502 583 503
3 503 583 584
3 503 584 504
3 504 584 585
3 504 585 505
3 505 585 586
3 505 586 506
3 506 586 587
3 506 587 507
3 507 587 588
3 507 588 508
3 508 588 589
3 508 589 509
3 509 589 590
3 509 590 510
3 510 590 591
3 510 591 511
3 511 591 592
3 511 592 512
3 512 592 593
3 512 593 513
3 513 593 594
3 513 594 514
3 514 594 595
3 514 595 515
3 515 595 596
3 515 596 516
3 516 596 597
3 516 597 517
3 517 597 598
3 517 598 518
3 518 598 599
3 518 599 519
3 519 599 600
3 519 600 520
3 520 600 601
3 520 601 521
3 521 601 602
3 521 602 522
3 522 602 603
3 522 603 523
3 523 603 604
3 523 604 524
3 524 604 605
3 524 605 525
3 525 605 606
3 525 606 526
3 526 606 607
3 526 607 527
3 527 607 608
3 527 608 528
3 528 608 609
3 528 609 529
3 529 609 610
3 529 610 530
3 530 610 611
3 530 611 531
3 531 611 612
3 531 612 532
3 532 612 613
3 532 613 533
3 533 613 614
3 533 614 534
3 534 614 615
3 534 615 535
3 535 615 616
3 535 616 536
3 536 616 617
3 536 617 537
3 537 617 618
3 537 618 538
3 538 618 619
3 538 619 539
3 539 619 620
3 539 620 540
3 540 620 621
3 540 621 541
3 541 621 622
3 541 622 542
3 542 622 623
3 542 623 543
3 543 623 624
3 543 624 544
3 544 624 625
3 544 625 545
3 545 625 626
3 545 626 546
3 546 626 627
3 546 627 547
3 547 627 628
3 547 628 548
3 548 628 629
3 548 629 549
3 549 629 630
3 549 630 550
3 550 630 631
3 550 631 551
3 551 631 632
3 551 632 552
3 552 632 633
3 552 633 553
3 553 633 634
3 553 634 554
3 554 634 635
3 554 635 555
3 555 635 636
3 555 636 556
3 556 636 637
3 556 637 557
3 557 637 638
3 557 638 558
3 558 638 639
3 558 639 559
3 559 639 640
3 559 640 560
3 560 640 561
3 560 561 481
3 561 641 642
3 561 642 562
3 562 642 643
3 562 643 563
3 563 643 644
3 563 644 564
3 564 644 645
3 564 645 565
3 565 645 646
3 565 646 566
3 566 646 647
3 566 647 567
3 567 647 648
3 567 648 568
3 568 648 649
3 568 649 569
3 569 649 650
3 569 650 570
3 570 650 651
3 570 651 571
3 571 651 652
3 571 652 572
3 572 652 653
3 572 653 573
3 573 653 654
3 573 654 574
3 574 654 655
3 574 655 575
3 575 655 656
3 575 656 576
3 576 656 657
3 576 657 577
3 577 657 658
3 577 658 578
3 578 658 659
3 578 659 661
3 578 661 581
3 581 661 662
3 581 662 582
3 582 662 583
3 583 662 664
3 583 664 584
3 584 664 665
3 584 665 585
3 585 665 666
3 585 666 586
3 586 666 667
3 586 667 587
3 587 667 668
3 587 668 588
3 588 668 669
3 588 669 589
3 589 669 670
3 589 670 590
3 590 670 671
3 590 671 591
3 591 671 672
3 591 672 592
3 592 672 673
3 592 673 593
3 593 673 674
3 593 674 594
3 594 674 675
3 594 675 595
3 595 675 676
3 595 676 596
3 596 676 677
3 596 677 597
3 597 677 678
3 597 678 598
3 598 678 679
3 598 679 599
3 599 679 680
3 599 680 600
3 600 680 681
3 600 681 601
3 601 681 682
3 601 682 602
3 602 682 683
3 602 683 603
3 603 683 684
3 603 684 604
3 604 684 685
3 604 685 605
3 605 685 686
3 605 686 606
3 606 686 687
3 606 687 607
3 607 687 688
3 607 688 608
3 608 688 689
3 608 689 609
3 609 689 690
3 609 690 610
3 610 690 691
3 610 691 611
3 611 691 692
3 611 692 612
3 612 692 693
3 612 693 613
3 613 693 694
3 613 694 614
3 614 694 695
3 614 695 615
3 615 695 696
3 615 696 616
3 616 696 697
3 616 697 617
3 617 697 698
3 617 698 618
3 618 698 699
3 618 699 619
3 619 699 700
3 619 700 620
3 620 700 701
3 620 701 621
3 621 701 702
3 621 702 622
3 622 702 703
3 622 703 623
3 623 703 704
3 623 704 624
3 624 704 705
3 624 705 625
3 625 705 706
3 625 706 626
3 626 706 707
3 626 707 627
3 627 707 708
3 627 708 628
3 628 708 709
3 628 709 629
3 629 709 710
3 629 710 630
3 630 710 711
3 630 711 631
3 631 711 712
3 631 712 632
3 632 712 713
3 632 713 633
3 633 713 714
3 633 714 634
3 634 714 715
3 634 715 635
3 635 715 716
3 635 716 636
3 636 716 717
3 636 717 637
3 637 717 718
3 637 718 638
3 638 718 719
3 638 719 639
3 639 719 720
3 639 720 640
3 640 720 641
3 640 641 561
3 641 721 722
3 641 722 642
3 642 722 723
3 642 723 643
3 643 723 724
3 643 724 644
3 644 724 725
3 644 725 645
3 645 725 726
3 645 726 646
3 646 726 727
3 646 727 647
3 647 727 728
3 647 728 648
3 648 728 729
3 648 729 649
3 649 729 730
3 649 730 650
3 650 730 731
3 650 731 651
3 651 731 652
3 652 731 733
3 652 733 653
3 653 733 734
3 653 734 654
3 654 734 735
3 654 735 655
3 655 735 736
3 655 736 656
3 656 736 737
3 656 737 657
3 657 737 738
3 657 738 658
3 658 738 739
3 658 739 659
3 659 739 741
3 659 741 661
3 661 741 742
3 661 742 662
3 662 742 743
3 662 743 744
3 662 744 664
3 664 744 745
3 664 745 665
3 665 745 746
3 665 746 666
3 666 746 747
3 666 747 667
3 667 747 748
3 667 748 668
3 668 748 749
3 668 749 669
3 669 749 750
3 669 750 670
3 670 750 751
3 670 751 671
3 671 751 752
3 671 752 672
3 672 752 753
3 672 753 673
3 673 753 754
3 673 754 674
3 674 754 755
3 674 755 675
3 675 755 756
3 675 756 676
3 676 756 757
3 676 757 677
3 677 757 758
3 677 758 678
3 678 758 759
3 678 759 679
3 679 759 760
3 679 760 680
3 680 760 761
3 680 761 681
3 681 761 762
3 681 762 682
3 682 762 763
3 682 763 683
3 683 763 764
3 683 764 684
3 684 764 765
3 684 765 685
3 685 765 766
3 685 766 686
3 686 766 767
3 686 767 687
3 687 767 768
3 687 768 688
3 688 768 769
3 688 769 689
3 689 769 770
3 689 770 690
3 690 770 771
3 690 771 691
3 691 771 772
3 691 772 692
3 692 772 773
3 692 773 693
3 693 773 774
3 693 774 694
3 694 774 775
3 694 775 695
3 695 775 776
3 695 776 696
3 696 776 777
3 696 777 697
3 697 777 778
3 697 778 698
3 698 778 779
3 698 779 699
3 699 779 780
3 699 780 700
3 700 780 781
3 700 781 701
3 701 781 782
3 701 782 702
3 702 782 783
3 702 783 703
3 703 783 784
3 703 784 704
3 704 784 785
3 704 785 705
3 705 785 786
3 705 786 706
3 706 786 787
3 706 787 707
3 707 787 788
3 707 788 708
3 708 788 789
3 708 789 709
3 709 789 790
3 709 790 710
3 710 790 791
3 710 791 711
3 711 791 792
3 711 792 712
3 712 792 793
3 712 793 713
3 713 793 794
3 713 794 714
3 714 794 795
3 714 795 715
3 715 795 796
3 715 796 716
3 716 796 797
3 716 797 717
3 717 797 798
3 717 798 718
3 718 798 799
3 718 799 719
3 719 799 800
3 719 800 720
3 720 800 721
3 720 721 641
