ply 
format ascii 1.0 
comment this is a surface 
element vertex 721 
property float x 
property float y 
property float z 
element face 1343 
property list uchar int vertex_index 
end_header 
89.578275 104.534625 -64.000000
89.588000 108.240000 -64.000000
89.217000 108.240000 -64.000000
88.846000 108.240000 -64.000000
88.475000 108.240000 -64.000000
88.104000 108.240000 -64.000000
87.733000 108.240000 -64.000000
87.363000 108.250000 -64.000000
86.993000 108.280000 -64.000000
86.630000 108.350000 -64.000000
86.292000 108.200000 -64.000000
85.995000 107.980000 -64.000000
85.757000 107.690000 -64.000000
85.579000 107.370000 -64.000000
85.449000 107.020000 -64.000000
85.347000 106.660000 -64.000000
85.260000 106.300000 -64.000000
85.180000 105.940000 -64.000000
85.102000 105.580000 -64.000000
85.027000 105.220000 -64.000000
84.955000 104.850000 -64.000000
84.891000 104.490000 -64.000000
84.841000 104.120000 -64.000000
84.813000 103.750000 -64.000000
84.816000 103.380000 -64.000000
84.857000 103.010000 -64.000000
84.943000 102.650000 -64.000000
85.077000 102.300000 -64.000000
85.258000 101.980000 -64.000000
85.483000 101.690000 -64.000000
85.749000 101.430000 -64.000000
86.048000 101.210000 -64.000000
86.373000 101.030000 -64.000000
86.714000 100.890000 -64.000000
87.068000 100.770000 -64.000000
87.428000 100.690000 -64.000000
87.794000 100.630000 -64.000000
88.163000 100.590000 -64.000000
88.533000 100.570000 -64.000000
88.904000 100.560000 -64.000000
89.275000 100.550000 -64.000000
89.646000 100.560000 -64.000000
90.016000 100.560000 -64.000000
90.387000 100.580000 -64.000000
90.756000 100.620000 -64.000000
91.122000 100.680000 -64.000000
91.481000 100.770000 -64.000000
91.832000 100.890000 -64.000000
92.173000 101.030000 -64.000000
92.504000 101.200000 -64.000000
92.828000 101.380000 -64.000000
93.143000 101.580000 -64.000000
93.449000 101.790000 -64.000000
93.740000 102.020000 -64.000000
94.009000 102.270000 -64.000000
94.241000 102.560000 -64.000000
94.419000 102.890000 -64.000000
94.527000 103.240000 -64.000000
94.566000 103.610000 -64.000000
94.554000 103.980000 -64.000000
94.515000 104.350000 -64.000000
94.463000 104.710000 -64.000000
94.402000 105.080000 -64.000000
94.332000 105.440000 -64.000000
94.252000 105.810000 -64.000000
94.160000 106.170000 -64.000000
94.052000 106.520000 -64.000000
93.923000 106.870000 -64.000000
93.759000 107.200000 -64.000000
93.538000 107.500000 -64.000000
93.241000 107.710000 -64.000000
92.886000 107.820000 -64.000000
92.515000 107.830000 -64.000000
92.144000 107.840000 -64.000000
91.774000 107.850000 -64.000000
91.405000 107.880000 -64.000000
91.041000 107.950000 -64.000000
90.681000 108.040000 -64.000000
90.321000 108.130000 -64.000000
89.957000 108.200000 -64.000000
89.588000 108.240000 -64.000000
80.552000 115.940000 -56.000000
79.727000 115.010000 -56.000000
78.925000 114.060000 -56.000000
78.184000 113.070000 -56.000000
77.499000 112.030000 -56.000000
76.866000 110.970000 -56.000000
76.281000 109.870000 -56.000000
75.737000 108.760000 -56.000000
75.178000 107.650000 -56.000000
74.638000 106.530000 -56.000000
74.175000 105.380000 -56.000000
73.858000 104.180000 -56.000000
73.781000 102.950000 -56.000000
73.843000 101.710000 -56.000000
73.969000 100.470000 -56.000000
74.150000 99.247000 -56.000000
74.381000 98.028000 -56.000000
74.691000 96.828000 -56.000000
75.227000 95.709000 -56.000000
75.950000 94.701000 -56.000000
76.788000 93.787000 -56.000000
77.700000 92.947000 -56.000000
78.665000 92.168000 -56.000000
79.671000 91.441000 -56.000000
80.707000 90.759000 -56.000000
81.757000 90.100000 -56.000000
82.830000 89.476000 -56.000000
83.960000 88.965000 -56.000000
85.165000 88.676000 -56.000000
86.406000 88.662000 -56.000000
87.645000 88.706000 -56.000000
88.884000 88.777000 -56.000000
90.120000 88.873000 -56.000000
91.355000 88.990000 -56.000000
92.585000 89.151000 -56.000000
93.789000 89.447000 -56.000000
94.959000 89.860000 -56.000000
96.090000 90.368000 -56.000000
97.184000 90.954000 -56.000000
98.231000 91.618000 -56.000000
99.217000 92.371000 -56.000000
100.140000 93.201000 -56.000000
100.990000 94.105000 -56.000000
101.740000 95.088000 -56.000000
102.380000 96.154000 -56.000000
102.830000 97.310000 -56.000000
103.050000 98.530000 -56.000000
103.190000 99.762000 -56.000000
103.290000 101.000000 -56.000000
103.390000 102.230000 -56.000000
103.480000 103.470000 -56.000000
103.570000 104.710000 -56.000000
103.630000 105.950000 -56.000000
103.660000 107.190000 -56.000000
103.560000 108.420000 -56.000000
103.210000 109.610000 -56.000000
102.690000 110.740000 -56.000000
102.080000 111.820000 -56.000000
101.450000 112.890000 -56.000000
100.850000 113.980000 -56.000000
100.290000 115.080000 -56.000000
99.735000 116.190000 -56.000000
99.134000 117.280000 -56.000000
98.454000 118.310000 -56.000000
97.623000 119.230000 -56.000000
96.542000 119.830000 -56.000000
95.311000 119.990000 -56.000000
94.074000 120.080000 -56.000000
92.835000 120.140000 -56.000000
91.595000 120.180000 -56.000000
90.355000 120.190000 -56.000000
90.355000 120.190000 -56.000000
89.115000 120.150000 -56.000000
87.880000 120.040000 -56.000000
86.650000 119.880000 -56.000000
85.432000 119.650000 -56.000000
84.287000 119.170000 -56.000000
83.246000 118.490000 -56.000000
82.291000 117.700000 -56.000000
81.399000 116.840000 -56.000000
76.704000 118.320000 -48.000000
75.777000 116.990000 -48.000000
74.817000 115.690000 -48.000000
73.862000 114.390000 -48.000000
72.961000 113.050000 -48.000000
72.168000 111.640000 -48.000000
71.561000 110.140000 -48.000000
71.200000 108.560000 -48.000000
70.922000 106.970000 -48.000000
70.692000 105.370000 -48.000000
70.516000 103.760000 -48.000000
70.408000 102.150000 -48.000000
70.385000 100.540000 -48.000000
70.506000 98.923000 -48.000000
70.764000 97.327000 -48.000000
71.126000 95.752000 -48.000000
71.567000 94.197000 -48.000000
72.061000 92.658000 -48.000000
72.590000 91.130000 -48.000000
73.177000 89.624000 -48.000000
73.871000 88.164000 -48.000000
74.684000 86.767000 -48.000000
75.644000 85.465000 -48.000000
76.807000 84.343000 -48.000000
78.183000 83.495000 -48.000000
79.640000 82.795000 -48.000000
81.163000 82.253000 -48.000000
82.749000 81.937000 -48.000000
84.365000 81.907000 -48.000000
85.977000 82.035000 -48.000000
87.578000 82.258000 -48.000000
89.166000 82.559000 -48.000000
90.741000 82.925000 -48.000000
92.302000 83.344000 -48.000000
93.847000 83.819000 -48.000000
95.291000 84.545000 -48.000000
96.629000 85.453000 -48.000000
97.953000 86.380000 -48.000000
99.323000 87.238000 -48.000000
100.690000 88.095000 -48.000000
102.000000 89.042000 -48.000000
103.150000 90.184000 -48.000000
104.090000 91.497000 -48.000000
104.940000 92.872000 -48.000000
105.690000 94.303000 -48.000000
106.330000 95.788000 -48.000000
106.830000 97.326000 -48.000000
107.140000 98.912000 -48.000000
107.280000 100.520000 -48.000000
107.380000 102.140000 -48.000000
107.470000 103.750000 -48.000000
107.530000 105.370000 -48.000000
107.570000 106.980000 -48.000000
107.570000 108.600000 -48.000000
107.360000 110.200000 -48.000000
106.940000 111.760000 -48.000000
106.360000 113.270000 -48.000000
105.680000 114.740000 -48.000000
104.910000 116.160000 -48.000000
104.010000 117.500000 -48.000000
102.970000 118.740000 -48.000000
101.830000 119.880000 -48.000000
100.590000 120.920000 -48.000000
99.268000 121.850000 -48.000000
97.863000 122.650000 -48.000000
96.380000 123.300000 -48.000000
94.867000 123.860000 -48.000000
93.329000 124.360000 -48.000000
91.764000 124.770000 -48.000000
90.172000 125.050000 -48.000000
90.172000 125.050000 -48.000000
88.559000 125.150000 -48.000000
86.944000 125.070000 -48.000000
85.340000 124.870000 -48.000000
83.752000 124.570000 -48.000000
82.198000 124.120000 -48.000000
80.820000 123.280000 -48.000000
79.638000 122.170000 -48.000000
78.591000 120.940000 -48.000000
77.627000 119.650000 -48.000000
74.654000 121.120000 -40.000000
73.397000 119.750000 -40.000000
72.141000 118.380000 -40.000000
70.923000 116.970000 -40.000000
69.779000 115.500000 -40.000000
68.751000 113.950000 -40.000000
67.904000 112.300000 -40.000000
67.178000 110.580000 -40.000000
66.502000 108.850000 -40.000000
65.919000 107.080000 -40.000000
65.485000 105.280000 -40.000000
65.273000 103.430000 -40.000000
65.329000 101.570000 -40.000000
65.569000 99.724000 -40.000000
65.944000 97.902000 -40.000000
66.418000 96.103000 -40.000000
66.961000 94.324000 -40.000000
67.548000 92.559000 -40.000000
68.177000 90.808000 -40.000000
68.907000 89.097000 -40.000000
69.754000 87.441000 -40.000000
70.742000 85.865000 -40.000000
71.905000 84.413000 -40.000000
73.319000 83.206000 -40.000000
74.889000 82.208000 -40.000000
76.554000 81.379000 -40.000000
78.302000 80.743000 -40.000000
80.126000 80.378000 -40.000000
81.980000 80.228000 -40.000000
83.836000 80.112000 -40.000000
85.695000 80.027000 -40.000000
87.554000 79.976000 -40.000000
89.414000 79.978000 -40.000000
91.259000 80.213000 -40.000000
93.052000 80.710000 -40.000000
94.790000 81.373000 -40.000000
96.490000 82.126000 -40.000000
98.180000 82.905000 -40.000000
99.879000 83.662000 -40.000000
101.570000 84.438000 -40.000000
103.230000 85.280000 -40.000000
104.820000 86.237000 -40.000000
106.300000 87.374000 -40.000000
107.490000 88.799000 -40.000000
108.460000 90.386000 -40.000000
109.290000 92.051000 -40.000000
109.980000 93.777000 -40.000000
110.520000 95.557000 -40.000000
110.860000 97.385000 -40.000000
110.950000 99.243000 -40.000000
110.930000 101.100000 -40.000000
110.900000 102.960000 -40.000000
110.840000 104.820000 -40.000000
110.760000 106.680000 -40.000000
110.630000 108.540000 -40.000000
110.130000 110.330000 -40.000000
109.300000 111.990000 -40.000000
108.290000 113.550000 -40.000000
107.180000 115.040000 -40.000000
106.050000 116.520000 -40.000000
104.890000 117.980000 -40.000000
103.650000 119.360000 -40.000000
102.340000 120.680000 -40.000000
100.950000 121.920000 -40.000000
99.483000 123.060000 -40.000000
97.934000 124.090000 -40.000000
96.346000 125.060000 -40.000000
94.734000 125.990000 -40.000000
93.065000 126.810000 -40.000000
91.308000 127.420000 -40.000000
89.467000 127.680000 -40.000000
89.467000 127.680000 -40.000000
87.610000 127.560000 -40.000000
85.772000 127.270000 -40.000000
83.960000 126.860000 -40.000000
82.174000 126.330000 -40.000000
80.415000 125.730000 -40.000000
78.757000 124.880000 -40.000000
77.279000 123.750000 -40.000000
75.930000 122.470000 -40.000000
74.306000 120.710000 -32.000000
72.754000 119.460000 -32.000000
71.284000 118.120000 -32.000000
69.915000 116.670000 -32.000000
68.650000 115.140000 -32.000000
67.493000 113.520000 -32.000000
66.465000 111.810000 -32.000000
65.600000 110.020000 -32.000000
64.889000 108.160000 -32.000000
64.228000 106.280000 -32.000000
63.653000 104.370000 -32.000000
63.216000 102.430000 -32.000000
62.988000 100.450000 -32.000000
63.030000 98.462000 -32.000000
63.282000 96.487000 -32.000000
63.692000 94.539000 -32.000000
64.227000 92.621000 -32.000000
64.865000 90.735000 -32.000000
65.592000 88.881000 -32.000000
66.455000 87.086000 -32.000000
67.558000 85.429000 -32.000000
68.842000 83.908000 -32.000000
70.279000 82.530000 -32.000000
71.865000 81.325000 -32.000000
73.601000 80.351000 -32.000000
75.409000 79.516000 -32.000000
77.268000 78.802000 -32.000000
79.174000 78.226000 -32.000000
81.124000 77.824000 -32.000000
83.106000 77.634000 -32.000000
85.093000 77.517000 -32.000000
87.082000 77.422000 -32.000000
89.072000 77.349000 -32.000000
91.062000 77.299000 -32.000000
93.053000 77.294000 -32.000000
95.015000 77.637000 -32.000000
96.792000 78.535000 -32.000000
98.409000 79.696000 -32.000000
99.947000 80.960000 -32.000000
101.490000 82.215000 -32.000000
103.060000 83.449000 -32.000000
104.570000 84.748000 -32.000000
105.990000 86.143000 -32.000000
107.260000 87.674000 -32.000000
108.330000 89.351000 -32.000000
109.330000 91.073000 -32.000000
110.250000 92.838000 -32.000000
111.060000 94.658000 -32.000000
111.700000 96.544000 -32.000000
112.100000 98.495000 -32.000000
112.200000 100.480000 -32.000000
112.240000 102.470000 -32.000000
112.270000 104.460000 -32.000000
112.290000 106.460000 -32.000000
112.300000 108.450000 -32.000000
112.270000 110.440000 -32.000000
111.970000 112.410000 -32.000000
111.410000 114.320000 -32.000000
110.650000 116.160000 -32.000000
109.730000 117.930000 -32.000000
108.660000 119.600000 -32.000000
107.360000 121.110000 -32.000000
105.890000 122.460000 -32.000000
104.300000 123.650000 -32.000000
102.580000 124.660000 -32.000000
100.750000 125.440000 -32.000000
98.807000 125.870000 -32.000000
96.831000 126.130000 -32.000000
94.851000 126.330000 -32.000000
92.865000 126.480000 -32.000000
90.877000 126.580000 -32.000000
88.886000 126.610000 -32.000000
88.886000 126.610000 -32.000000
86.904000 126.420000 -32.000000
84.970000 125.950000 -32.000000
83.081000 125.320000 -32.000000
81.215000 124.620000 -32.000000
79.386000 123.840000 -32.000000
77.624000 122.910000 -32.000000
75.930000 121.860000 -32.000000
72.561000 122.340000 -24.000000
70.913000 121.030000 -24.000000
69.341000 119.620000 -24.000000
67.842000 118.140000 -24.000000
66.450000 116.560000 -24.000000
65.220000 114.850000 -24.000000
64.245000 112.990000 -24.000000
63.603000 110.980000 -24.000000
63.061000 108.950000 -24.000000
62.611000 106.890000 -24.000000
62.268000 104.810000 -24.000000
62.059000 102.710000 -24.000000
62.015000 100.610000 -24.000000
62.092000 98.502000 -24.000000
62.251000 96.401000 -24.000000
62.485000 94.308000 -24.000000
62.790000 92.224000 -24.000000
63.184000 90.154000 -24.000000
63.907000 88.176000 -24.000000
65.073000 86.421000 -24.000000
66.475000 84.849000 -24.000000
68.007000 83.404000 -24.000000
69.613000 82.040000 -24.000000
71.244000 80.707000 -24.000000
72.871000 79.369000 -24.000000
74.548000 78.095000 -24.000000
76.335000 76.980000 -24.000000
78.278000 76.166000 -24.000000
80.366000 75.883000 -24.000000
82.472000 75.836000 -24.000000
84.578000 75.801000 -24.000000
86.684000 75.777000 -24.000000
88.791000 75.763000 -24.000000
90.897000 75.783000 -24.000000
92.984000 76.068000 -24.000000
95.013000 76.632000 -24.000000
96.978000 77.393000 -24.000000
98.884000 78.288000 -24.000000
100.750000 79.272000 -24.000000
102.580000 80.303000 -24.000000
104.360000 81.431000 -24.000000
106.000000 82.759000 -24.000000
107.400000 84.327000 -24.000000
108.560000 86.089000 -24.000000
109.600000 87.919000 -24.000000
110.520000 89.815000 -24.000000
111.290000 91.777000 -24.000000
111.850000 93.808000 -24.000000
112.150000 95.893000 -24.000000
112.250000 97.997000 -24.000000
112.340000 100.100000 -24.000000
112.400000 102.210000 -24.000000
112.440000 104.310000 -24.000000
112.460000 106.420000 -24.000000
112.350000 108.520000 -24.000000
111.970000 110.590000 -24.000000
111.370000 112.610000 -24.000000
110.630000 114.590000 -24.000000
109.800000 116.520000 -24.000000
108.900000 118.420000 -24.000000
107.860000 120.260000 -24.000000
106.690000 122.010000 -24.000000
105.380000 123.660000 -24.000000
103.910000 125.170000 -24.000000
102.240000 126.450000 -24.000000
100.320000 127.330000 -24.000000
98.306000 127.930000 -24.000000
96.256000 128.420000 -24.000000
94.183000 128.790000 -24.000000
92.092000 129.040000 -24.000000
89.987000 129.140000 -24.000000
87.888000 128.960000 -24.000000
87.888000 128.960000 -24.000000
85.826000 128.540000 -24.000000
83.801000 127.960000 -24.000000
81.796000 127.310000 -24.000000
79.821000 126.580000 -24.000000
77.910000 125.690000 -24.000000
76.062000 124.680000 -24.000000
74.279000 123.560000 -24.000000
71.573000 122.500000 -16.000000
70.044000 120.990000 -16.000000
68.609000 119.390000 -16.000000
67.197000 117.760000 -16.000000
65.745000 116.180000 -16.000000
64.335000 114.560000 -16.000000
63.080000 112.810000 -16.000000
62.160000 110.870000 -16.000000
61.637000 108.780000 -16.000000
61.217000 106.670000 -16.000000
60.881000 104.550000 -16.000000
60.641000 102.410000 -16.000000
60.519000 100.270000 -16.000000
60.571000 98.119000 -16.000000
60.877000 95.991000 -16.000000
61.382000 93.902000 -16.000000
62.038000 91.854000 -16.000000
62.801000 89.844000 -16.000000
63.639000 87.865000 -16.000000
64.549000 85.917000 -16.000000
65.626000 84.057000 -16.000000
66.866000 82.300000 -16.000000
68.263000 80.666000 -16.000000
69.828000 79.193000 -16.000000
71.592000 77.965000 -16.000000
73.485000 76.946000 -16.000000
75.443000 76.057000 -16.000000
77.470000 75.341000 -16.000000
79.567000 74.866000 -16.000000
81.711000 74.720000 -16.000000
83.861000 74.766000 -16.000000
86.008000 74.874000 -16.000000
88.152000 75.031000 -16.000000
90.292000 75.229000 -16.000000
92.429000 75.464000 -16.000000
94.557000 75.774000 -16.000000
96.644000 76.288000 -16.000000
98.681000 76.975000 -16.000000
100.660000 77.804000 -16.000000
102.590000 78.755000 -16.000000
104.430000 79.868000 -16.000000
106.120000 81.199000 -16.000000
107.640000 82.722000 -16.000000
108.920000 84.448000 -16.000000
110.030000 86.287000 -16.000000
111.060000 88.177000 -16.000000
111.960000 90.126000 -16.000000
112.710000 92.141000 -16.000000
113.240000 94.224000 -16.000000
113.470000 96.361000 -16.000000
113.380000 98.509000 -16.000000
113.110000 100.640000 -16.000000
112.720000 102.760000 -16.000000
112.250000 104.850000 -16.000000
111.740000 106.940000 -16.000000
111.170000 109.010000 -16.000000
110.470000 111.050000 -16.000000
109.650000 113.040000 -16.000000
108.720000 114.970000 -16.000000
107.670000 116.850000 -16.000000
106.480000 118.640000 -16.000000
105.170000 120.340000 -16.000000
103.740000 121.950000 -16.000000
102.210000 123.460000 -16.000000
100.570000 124.840000 -16.000000
98.806000 126.080000 -16.000000
96.916000 127.100000 -16.000000
94.962000 128.000000 -16.000000
92.970000 128.810000 -16.000000
90.930000 129.490000 -16.000000
88.836000 129.970000 -16.000000
88.836000 129.970000 -16.000000
86.693000 130.140000 -16.000000
84.559000 129.880000 -16.000000
82.499000 129.270000 -16.000000
80.527000 128.410000 -16.000000
78.635000 127.390000 -16.000000
76.806000 126.260000 -16.000000
75.021000 125.060000 -16.000000
73.259000 123.830000 -16.000000
70.523000 122.900000 -8.000000
68.946000 121.340000 -8.000000
67.484000 119.670000 -8.000000
66.140000 117.900000 -8.000000
64.909000 116.050000 -8.000000
63.798000 114.130000 -8.000000
62.817000 112.140000 -8.000000
61.880000 110.130000 -8.000000
60.971000 108.110000 -8.000000
60.165000 106.040000 -8.000000
59.553000 103.900000 -8.000000
59.252000 101.710000 -8.000000
59.280000 99.486000 -8.000000
59.433000 97.272000 -8.000000
59.677000 95.066000 -8.000000
59.995000 92.869000 -8.000000
60.382000 90.684000 -8.000000
60.930000 88.533000 -8.000000
61.755000 86.473000 -8.000000
62.791000 84.510000 -8.000000
64.012000 82.656000 -8.000000
65.401000 80.925000 -8.000000
66.987000 79.373000 -8.000000
68.772000 78.054000 -8.000000
70.687000 76.932000 -8.000000
72.709000 76.017000 -8.000000
74.832000 75.369000 -8.000000
77.011000 74.948000 -8.000000
79.202000 74.592000 -8.000000
81.405000 74.320000 -8.000000
83.618000 74.156000 -8.000000
85.837000 74.128000 -8.000000
88.054000 74.233000 -8.000000
90.263000 74.447000 -8.000000
92.461000 74.755000 -8.000000
94.646000 75.148000 -8.000000
96.815000 75.618000 -8.000000
98.961000 76.183000 -8.000000
101.010000 77.026000 -8.000000
102.910000 78.182000 -8.000000
104.660000 79.547000 -8.000000
106.270000 81.076000 -8.000000
107.720000 82.754000 -8.000000
108.990000 84.578000 -8.000000
110.120000 86.486000 -8.000000
111.110000 88.470000 -8.000000
111.920000 90.536000 -8.000000
112.470000 92.688000 -8.000000
112.670000 94.898000 -8.000000
112.780000 97.115000 -8.000000
112.870000 99.333000 -8.000000
112.930000 101.550000 -8.000000
112.980000 103.770000 -8.000000
113.010000 105.990000 -8.000000
112.980000 108.210000 -8.000000
112.570000 110.390000 -8.000000
111.760000 112.450000 -8.000000
110.710000 114.410000 -8.000000
109.520000 116.280000 -8.000000
108.260000 118.110000 -8.000000
106.990000 119.940000 -8.000000
105.710000 121.740000 -8.000000
104.340000 123.500000 -8.000000
102.870000 125.160000 -8.000000
101.250000 126.670000 -8.000000
99.424000 127.940000 -8.000000
97.372000 128.780000 -8.000000
95.237000 129.390000 -8.000000
93.071000 129.870000 -8.000000
90.876000 130.200000 -8.000000
88.660000 130.330000 -8.000000
88.660000 130.330000 -8.000000
86.446000 130.170000 -8.000000
84.264000 129.760000 -8.000000
82.125000 129.170000 -8.000000
80.025000 128.450000 -8.000000
77.958000 127.640000 -8.000000
75.920000 126.760000 -8.000000
73.999000 125.650000 -8.000000
72.205000 124.350000 -8.000000
69.105000 124.150000 0.000000
67.112000 122.930000 0.000000
65.239000 121.520000 0.000000
63.548000 119.900000 0.000000
62.093000 118.070000 0.000000
60.724000 116.170000 0.000000
59.466000 114.200000 0.000000
58.377000 112.120000 0.000000
57.532000 109.940000 0.000000
57.051000 107.650000 0.000000
57.014000 105.310000 0.000000
57.134000 102.970000 0.000000
57.332000 100.640000 0.000000
57.587000 98.312000 0.000000
57.879000 95.990000 0.000000
58.196000 93.670000 0.000000
58.571000 91.360000 0.000000
59.035000 89.066000 0.000000
59.596000 86.793000 0.000000
60.274000 84.552000 0.000000
61.104000 82.364000 0.000000
62.170000 80.280000 0.000000
63.644000 78.461000 0.000000
65.379000 76.889000 0.000000
67.287000 75.533000 0.000000
69.351000 74.430000 0.000000
71.555000 73.641000 0.000000
73.839000 73.130000 0.000000
76.140000 72.700000 0.000000
78.453000 72.340000 0.000000
80.776000 72.051000 0.000000
83.107000 71.840000 0.000000
85.445000 71.717000 0.000000
87.786000 71.711000 0.000000
90.113000 71.966000 0.000000
92.401000 72.458000 0.000000
94.645000 73.126000 0.000000
96.845000 73.926000 0.000000
99.004000 74.830000 0.000000
101.090000 75.894000 0.000000
103.000000 77.243000 0.000000
104.760000 78.787000 0.000000
106.390000 80.465000 0.000000
107.920000 82.237000 0.000000
109.370000 84.075000 0.000000
110.760000 85.963000 0.000000
112.110000 87.872000 0.000000
113.500000 89.757000 0.000000
114.810000 91.693000 0.000000
115.920000 93.758000 0.000000
116.590000 96.001000 0.000000
116.650000 98.341000 0.000000
116.570000 100.680000 0.000000
116.430000 103.020000 0.000000
116.230000 105.350000 0.000000
115.970000 107.680000 0.000000
115.240000 109.900000 0.000000
113.990000 111.880000 0.000000
112.500000 113.690000 0.000000
110.900000 115.400000 0.000000
109.310000 117.110000 0.000000
107.720000 118.830000 0.000000
106.090000 120.500000 0.000000
104.350000 122.080000 0.000000
102.480000 123.490000 0.000000
100.430000 124.620000 0.000000
98.217000 125.370000 0.000000
95.938000 125.900000 0.000000
93.637000 126.330000 0.000000
91.329000 126.720000 0.000000
89.025000 127.130000 0.000000
86.739000 127.640000 0.000000
86.739000 127.640000 0.000000
84.457000 128.160000 0.000000
82.151000 128.560000 0.000000
79.812000 128.640000 0.000000
77.507000 128.230000 0.000000
75.300000 127.450000 0.000000
73.185000 126.450000 0.000000
71.134000 125.320000 0.000000
3 0 80 2
3 0 2 3
3 0 3 4
3 0 4 5
3 0 5 6
3 0 6 7
3 0 7 8
3 0 8 9
3 0 9 10
3 0 10 11
3 0 11 12
3 0 12 13
3 0 13 14
3 0 14 15
3 0 15 16
3 0 16 17
3 0 17 18
3 0 18 19
3 0 19 20
3 0 20 21
3 0 21 22
3 0 22 23
3 0 23 24
3 0 24 25
3 0 25 26
3 0 26 27
3 0 27 28
3 0 28 29
3 0 29 30
3 0 30 31
3 0 31 32
3 0 32 33
3 0 33 34
3 0 34 35
3 0 35 36
3 0 36 37
3 0 37 38
3 0 38 39
3 0 39 40
3 0 40 41
3 0 41 42
3 0 42 43
3 0 43 44
3 0 44 45
3 0 45 46
3 0 46 47
3 0 47 48
3 0 48 49
3 0 49 50
3 0 50 51
3 0 51 52
3 0 52 53
3 0 53 54
3 0 54 55
3 0 55 56
3 0 56 57
3 0 57 58
3 0 58 59
3 0 59 60
3 0 60 61
3 0 61 62
3 0 62 63
3 0 63 64
3 0 64 65
3 0 65 66
3 0 66 67
3 0 67 68
3 0 68 69
3 0 69 70
3 0 70 71
3 0 71 72
3 0 72 73
3 0 73 74
3 0 74 75
3 0 75 76
3 0 76 77
3 0 77 78
3 0 78 79
3 0 79 80
3 80 81 82
3 80 82 2
3 2 82 83
3 2 83 3
3 3 83 84
3 3 84 4
3 4 84 85
3 4 85 5
3 5 85 86
3 5 86 6
3 6 86 87
3 6 87 7
3 7 87 88
3 7 88 8
3 8 88 89
3 8 89 9
3 9 89 90
3 9 90 10
3 10 90 91
3 10 91 11
3 11 91 92
3 11 92 12
3 12 92 93
3 12 93 13
3 13 93 94
3 13 94 14
3 14 94 95
3 14 95 15
3 15 95 96
3 15 96 16
3 16 96 97
3 16 97 17
3 17 97 98
3 17 98 18
3 18 98 99
3 18 99 19
3 19 99 100
3 19 100 20
3 20 100 101
3 20 101 21
3 21 101 102
3 21 102 22
3 22 102 103
3 22 103 23
3 23 103 104
3 23 104 24
3 24 104 105
3 24 105 25
3 25 105 106
3 25 106 26
3 26 106 107
3 26 107 27
3 27 107 108
3 27 108 28
3 28 108 109
3 28 109 29
3 29 109 110
3 29 110 30
3 30 110 111
3 30 111 31
3 31 111 112
3 31 112 32
3 32 112 113
3 32 113 33
3 33 113 114
3 33 114 34
3 34 114 115
3 34 115 35
3 35 115 116
3 35 116 36
3 36 116 117
3 36 117 37
3 37 117 118
3 37 118 38
3 38 118 119
3 38 119 39
3 39 119 120
3 39 120 40
3 40 120 121
3 40 121 41
3 41 121 122
3 41 122 42
3 42 122 123
3 42 123 43
3 43 123 124
3 43 124 44
3 44 124 125
3 44 125 45
3 45 125 126
3 45 126 46
3 46 126 127
3 46 127 47
3 47 127 128
3 47 128 48
3 48 128 129
3 48 129 49
3 49 129 130
3 49 130 50
3 50 130 131
3 50 131 51
3 51 131 132
3 51 132 52
3 52 132 133
3 52 133 53
3 53 133 134
3 53 134 54
3 54 134 135
3 54 135 55
3 55 135 136
3 55 136 56
3 56 136 137
3 56 137 57
3 57 137 138
3 57 138 58
3 58 138 139
3 58 139 59
3 59 139 140
3 59 140 60
3 60 140 141
3 60 141 61
3 61 141 142
3 61 142 62
3 62 142 143
3 62 143 63
3 63 143 144
3 63 144 64
3 64 144 145
3 64 145 65
3 65 145 146
3 65 146 66
3 66 146 147
3 66 147 67
3 67 147 148
3 67 148 68
3 68 148 149
3 68 149 69
3 69 149 150
3 69 150 70
3 70 150 151
3 70 151 71
3 71 151 72
3 72 151 153
3 72 153 73
3 73 153 154
3 73 154 74
3 74 154 155
3 74 155 75
3 75 155 156
3 75 156 76
3 76 156 157
3 76 157 77
3 77 157 158
3 77 158 78
3 78 158 159
3 78 159 79
3 79 159 160
3 79 160 80
3 80 160 81
3 81 161 162
3 81 162 82
3 82 162 163
3 82 163 83
3 83 163 164
3 83 164 84
3 84 164 165
3 84 165 85
3 85 165 166
3 85 166 86
3 86 166 167
3 86 167 87
3 87 167 168
3 87 168 88
3 88 168 169
3 88 169 89
3 89 169 170
3 89 170 90
3 90 170 171
3 90 171 91
3 91 171 172
3 91 172 92
3 92 172 173
3 92 173 93
3 93 173 174
3 93 174 94
3 94 174 175
3 94 175 95
3 95 175 176
3 95 176 96
3 96 176 177
3 96 177 97
3 97 177 178
3 97 178 98
3 98 178 179
3 98 179 99
3 99 179 180
3 99 180 100
3 100 180 181
3 100 181 101
3 101 181 182
3 101 182 102
3 102 182 183
3 102 183 103
3 103 183 184
3 103 184 104
3 104 184 185
3 104 185 105
3 105 185 186
3 105 186 106
3 106 186 187
3 106 187 107
3 107 187 188
3 107 188 108
3 108 188 189
3 108 189 109
3 109 189 190
3 109 190 110
3 110 190 191
3 110 191 111
3 111 191 192
3 111 192 112
3 112 192 193
3 112 193 113
3 113 193 194
3 113 194 114
3 114 194 195
3 114 195 115
3 115 195 196
3 115 196 116
3 116 196 197
3 116 197 117
3 117 197 198
3 117 198 118
3 118 198 199
3 118 199 119
3 119 199 200
3 119 200 120
3 120 200 201
3 120 201 121
3 121 201 202
3 121 202 122
3 122 202 203
3 122 203 123
3 123 203 204
3 123 204 124
3 124 204 205
3 124 205 125
3 125 205 206
3 125 206 126
3 126 206 207
3 126 207 127
3 127 207 208
3 127 208 128
3 128 208 209
3 128 209 129
3 129 209 210
3 129 210 130
3 130 210 211
3 130 211 131
3 131 211 212
3 131 212 132
3 132 212 213
3 132 213 133
3 133 213 214
3 133 214 134
3 134 214 215
3 134 215 135
3 135 215 216
3 135 216 136
3 136 216 217
3 136 217 137
3 137 217 218
3 137 218 138
3 138 218 219
3 138 219 139
3 139 219 220
3 139 220 140
3 140 220 221
3 140 221 141
3 141 221 222
3 141 222 142
3 142 222 223
3 142 223 143
3 143 223 224
3 143 224 144
3 144 224 225
3 144 225 145
3 145 225 226
3 145 226 146
3 146 226 227
3 146 227 147
3 147 227 228
3 147 228 148
3 148 228 229
3 148 229 149
3 149 229 230
3 149 230 150
3 150 230 151
3 151 230 232
3 151 232 233
3 151 233 153
3 153 233 234
3 153 234 154
3 154 234 235
3 154 235 155
3 155 235 236
3 155 236 156
3 156 236 237
3 156 237 157
3 157 237 238
3 157 238 158
3 158 238 239
3 158 239 159
3 159 239 240
3 159 240 160
3 160 240 161
3 160 161 81
3 161 241 242
3 161 242 162
3 162 242 243
3 162 243 163
3 163 243 244
3 163 244 164
3 164 244 245
3 164 245 165
3 165 245 246
3 165 246 166
3 166 246 247
3 166 247 167
3 167 247 248
3 167 248 168
3 168 248 249
3 168 249 169
3 169 249 250
3 169 250 170
3 170 250 251
3 170 251 171
3 171 251 252
3 171 252 172
3 172 252 253
3 172 253 173
3 173 253 254
3 173 254 174
3 174 254 255
3 174 255 175
3 175 255 256
3 175 256 176
3 176 256 257
3 176 257 177
3 177 257 258
3 177 258 178
3 178 258 259
3 178 259 179
3 179 259 260
3 179 260 180
3 180 260 261
3 180 261 181
3 181 261 262
3 181 262 182
3 182 262 263
3 182 263 183
3 183 263 264
3 183 264 184
3 184 264 265
3 184 265 185
3 185 265 266
3 185 266 186
3 186 266 267
3 186 267 187
3 187 267 268
3 187 268 188
3 188 268 269
3 188 269 189
3 189 269 270
3 189 270 190
3 190 270 271
3 190 271 191
3 191 271 272
3 191 272 192
3 192 272 273
3 192 273 193
3 193 273 274
3 193 274 194
3 194 274 275
3 194 275 195
3 195 275 276
3 195 276 196
3 196 276 277
3 196 277 197
3 197 277 278
3 197 278 198
3 198 278 279
3 198 279 199
3 199 279 280
3 199 280 200
3 200 280 281
3 200 281 201
3 201 281 282
3 201 282 202
3 202 282 283
3 202 283 203
3 203 283 284
3 203 284 204
3 204 284 285
3 204 285 205
3 205 285 286
3 205 286 206
3 206 286 287
3 206 287 207
3 207 287 288
3 207 288 208
3 208 288 289
3 208 289 209
3 209 289 290
3 209 290 210
3 210 290 291
3 210 291 211
3 211 291 292
3 211 292 212
3 212 292 293
3 212 293 213
3 213 293 294
3 213 294 214
3 214 294 295
3 214 295 215
3 215 295 296
3 215 296 216
3 216 296 297
3 216 297 217
3 217 297 298
3 217 298 218
3 218 298 299
3 218 299 219
3 219 299 300
3 219 300 220
3 220 300 301
3 220 301 221
3 221 301 302
3 221 302 222
3 222 302 303
3 222 303 223
3 223 303 304
3 223 304 224
3 224 304 305
3 224 305 225
3 225 305 306
3 225 306 226
3 226 306 307
3 226 307 227
3 227 307 308
3 227 308 228
3 228 308 309
3 228 309 229
3 229 309 310
3 229 310 230
3 230 310 311
3 230 311 232
3 232 311 313
3 232 313 233
3 233 313 314
3 233 314 234
3 234 314 315
3 234 315 235
3 235 315 316
3 235 316 236
3 236 316 317
3 236 317 237
3 237 317 318
3 237 318 238
3 238 318 319
3 238 319 239
3 239 319 320
3 239 320 240
3 240 320 241
3 240 241 161
3 241 321 322
3 241 322 242
3 242 322 323
3 242 323 243
3 243 323 324
3 243 324 244
3 244 324 325
3 244 325 245
3 245 325 326
3 245 326 246
3 246 326 327
3 246 327 247
3 247 327 328
3 247 328 248
3 248 328 329
3 248 329 249
3 249 329 330
3 249 330 250
3 250 330 331
3 250 331 251
3 251 331 332
3 251 332 252
3 252 332 333
3 252 333 253
3 253 333 334
3 253 334 254
3 254 334 335
3 254 335 255
3 255 335 336
3 255 336 256
3 256 336 337
3 256 337 257
3 257 337 338
3 257 338 258
3 258 338 339
3 258 339 259
3 259 339 340
3 259 340 260
3 260 340 341
3 260 341 261
3 261 341 342
3 261 342 262
3 262 342 343
3 262 343 263
3 263 343 344
3 263 344 264
3 264 344 345
3 264 345 265
3 265 345 346
3 265 346 266
3 266 346 347
3 266 347 267
3 267 347 348
3 267 348 268
3 268 348 349
3 268 349 269
3 269 349 350
3 269 350 270
3 270 350 351
3 270 351 271
3 271 351 352
3 271 352 272
3 272 352 353
3 272 353 273
3 273 353 354
3 273 354 274
3 274 354 355
3 274 355 275
3 275 355 356
3 275 356 276
3 276 356 357
3 276 357 277
3 277 357 358
3 277 358 278
3 278 358 359
3 278 359 279
3 279 359 360
3 279 360 280
3 280 360 361
3 280 361 281
3 281 361 362
3 281 362 282
3 282 362 363
3 282 363 283
3 283 363 364
3 283 364 284
3 284 364 365
3 284 365 285
3 285 365 366
3 285 366 286
3 286 366 367
3 286 367 287
3 287 367 368
3 287 368 288
3 288 368 369
3 288 369 289
3 289 369 370
3 289 370 290
3 290 370 371
3 290 371 291
3 291 371 372
3 291 372 292
3 292 372 373
3 292 373 293
3 293 373 374
3 293 374 294
3 294 374 375
3 294 375 295
3 295 375 376
3 295 376 296
3 296 376 377
3 296 377 297
3 297 377 378
3 297 378 298
3 298 378 379
3 298 379 299
3 299 379 380
3 299 380 300
3 300 380 381
3 300 381 301
3 301 381 382
3 301 382 302
3 302 382 383
3 302 383 303
3 303 383 384
3 303 384 304
3 304 384 385
3 304 385 305
3 305 385 386
3 305 386 306
3 306 386 387
3 306 387 307
3 307 387 388
3 307 388 308
3 308 388 389
3 308 389 309
3 309 389 390
3 309 390 310
3 310 390 391
3 310 391 311
3 311 391 392
3 311 392 313
3 313 392 394
3 313 394 314
3 314 394 395
3 314 395 315
3 315 395 396
3 315 396 316
3 316 396 397
3 316 397 317
3 317 397 398
3 317 398 318
3 318 398 399
3 318 399 319
3 319 399 400
3 319 400 320
3 320 400 321
3 320 321 241
3 321 401 402
3 321 402 322
3 322 402 403
3 322 403 323
3 323 403 404
3 323 404 324
3 324 404 405
3 324 405 325
3 325 405 406
3 325 406 326
3 326 406 407
3 326 407 327
3 327 407 408
3 327 408 328
3 328 408 409
3 328 409 329
3 329 409 410
3 329 410 330
3 330 410 411
3 330 411 331
3 331 411 412
3 331 412 332
3 332 412 413
3 332 413 333
3 333 413 414
3 333 414 334
3 334 414 415
3 334 415 335
3 335 415 416
3 335 416 336
3 336 416 417
3 336 417 337
3 337 417 418
3 337 418 338
3 338 418 419
3 338 419 339
3 339 419 420
3 339 420 340
3 340 420 421
3 340 421 341
3 341 421 422
3 341 422 342
3 342 422 423
3 342 423 343
3 343 423 424
3 343 424 344
3 344 424 425
3 344 425 345
3 345 425 426
3 345 426 346
3 346 426 427
3 346 427 347
3 347 427 428
3 347 428 348
3 348 428 429
3 348 429 349
3 349 429 430
3 349 430 350
3 350 430 431
3 350 431 351
3 351 431 432
3 351 432 352
3 352 432 433
3 352 433 353
3 353 433 434
3 353 434 354
3 354 434 435
3 354 435 355
3 355 435 436
3 355 436 356
3 356 436 437
3 356 437 357
3 357 437 438
3 357 438 358
3 358 438 439
3 358 439 359
3 359 439 440
3 359 440 360
3 360 440 441
3 360 441 361
3 361 441 442
3 361 442 362
3 362 442 443
3 362 443 363
3 363 443 444
3 363 444 364
3 364 444 445
3 364 445 365
3 365 445 446
3 365 446 366
3 366 446 447
3 366 447 367
3 367 447 448
3 367 448 368
3 368 448 449
3 368 449 369
3 369 449 450
3 369 450 370
3 370 450 451
3 370 451 371
3 371 451 452
3 371 452 372
3 372 452 453
3 372 453 373
3 373 453 454
3 373 454 374
3 374 454 455
3 374 455 375
3 375 455 456
3 375 456 376
3 376 456 457
3 376 457 377
3 377 457 458
3 377 458 378
3 378 458 459
3 378 459 379
3 379 459 460
3 379 460 380
3 380 460 461
3 380 461 381
3 381 461 462
3 381 462 382
3 382 462 463
3 382 463 383
3 383 463 464
3 383 464 384
3 384 464 465
3 384 465 385
3 385 465 466
3 385 466 386
3 386 466 467
3 386 467 387
3 387 467 468
3 387 468 388
3 388 468 469
3 388 469 389
3 389 469 470
3 389 470 390
3 390 470 471
3 390 471 391
3 391 471 472
3 391 472 392
3 392 472 474
3 392 474 394
3 394 474 475
3 394 475 395
3 395 475 476
3 395 476 396
3 396 476 477
3 396 477 397
3 397 477 478
3 397 478 398
3 398 478 479
3 398 479 399
3 399 479 480
3 399 480 400
3 400 480 401
3 400 401 321
3 401 481 482
3 401 482 402
3 402 482 483
3 402 483 403
3 403 483 484
3 403 484 404
3 404 484 485
3 404 485 405
3 405 485 486
3 405 486 406
3 406 486 487
3 406 487 407
3 407 487 488
3 407 488 408
3 408 488 489
3 408 489 409
3 409 489 490
3 409 490 410
3 410 490 491
3 410 491 411
3 411 491 492
3 411 492 412
3 412 492 493
3 412 493 413
3 413 493 494
3 413 494 414
3 414 494 495
3 414 495 415
3 415 495 496
3 415 496 416
3 416 496 497
3 416 497 417
3 417 497 498
3 417 498 418
3 418 498 499
3 418 499 419
3 419 499 500
3 419 500 420
3 420 500 501
3 420 501 421
3 421 501 502
3 421 502 422
3 422 502 503
3 422 503 423
3 423 503 504
3 423 504 424
3 424 504 505
3 424 505 425
3 425 505 506
3 425 506 426
3 426 506 507
3 426 507 427
3 427 507 508
3 427 508 428
3 428 508 509
3 428 509 429
3 429 509 510
3 429 510 430
3 430 510 511
3 430 511 431
3 431 511 512
3 431 512 432
3 432 512 513
3 432 513 433
3 433 513 514
3 433 514 434
3 434 514 515
3 434 515 435
3 435 515 516
3 435 516 436
3 436 516 517
3 436 517 437
3 437 517 518
3 437 518 438
3 438 518 519
3 438 519 439
3 439 519 520
3 439 520 440
3 440 520 521
3 440 521 441
3 441 521 522
3 441 522 442
3 442 522 523
3 442 523 443
3 443 523 524
3 443 524 444
3 444 524 525
3 444 525 445
3 445 525 526
3 445 526 446
3 446 526 527
3 446 527 447
3 447 527 528
3 447 528 448
3 448 528 529
3 448 529 449
3 449 529 530
3 449 530 450
3 450 530 531
3 450 531 451
3 451 531 532
3 451 532 452
3 452 532 533
3 452 533 453
3 453 533 534
3 453 534 454
3 454 534 535
3 454 535 455
3 455 535 536
3 455 536 456
3 456 536 537
3 456 537 457
3 457 537 538
3 457 538 458
3 458 538 539
3 458 539 459
3 459 539 540
3 459 540 460
3 460 540 541
3 460 541 461
3 461 541 542
3 461 542 462
3 462 542 543
3 462 543 463
3 463 543 544
3 463 544 464
3 464 544 545
3 464 545 465
3 465 545 546
3 465 546 466
3 466 546 547
3 466 547 467
3 467 547 548
3 467 548 468
3 468 548 549
3 468 549 469
3 469 549 550
3 469 550 470
3 470 550 551
3 470 551 471
3 471 551 472
3 472 551 553
3 472 553 554
3 472 554 474
3 474 554 555
3 474 555 475
3 475 555 556
3 475 556 476
3 476 556 557
3 476 557 477
3 477 557 558
3 477 558 478
3 478 558 559
3 478 559 479
3 479 559 560
3 479 560 480
3 480 560 481
3 480 481 401
3 481 561 562
3 481 562 482
3 482 562 563
3 482 563 483
3 483 563 564
3 483 564 484
3 484 564 565
3 484 565 485
3 485 565 566
3 485 566 486
3 486 566 567
3 486 567 487
3 487 567 568
3 487 568 488
3 488 568 569
3 488 569 489
3 489 569 570
3 489 570 490
3 490 570 571
3 490 571 491
3 491 571 572
3 491 572 492
3 492 572 573
3 492 573 493
3 493 573 574
3 493 574 494
3 494 574 575
3 494 575 495
3 495 575 576
3 495 576 496
3 496 576 577
3 496 577 497
3 497 577 578
3 497 578 498
3 498 578 579
3 498 579 499
3 499 579 580
3 499 580 500
3 500 580 581
3 500 581 501
3 501 581 582
3 501 582 502
3 502 582 583
3 502 583 503
3 503 583 584
3 503 584 504
3 504 584 585
3 504 585 505
3 505 585 586
3 505 586 506
3 506 586 587
3 506 587 507
3 507 587 588
3 507 588 508
3 508 588 589
3 508 589 509
3 509 589 590
3 509 590 510
3 510 590 591
3 510 591 511
3 511 591 592
3 511 592 512
3 512 592 593
3 512 593 513
3 513 593 594
3 513 594 514
3 514 594 595
3 514 595 515
3 515 595 596
3 515 596 516
3 516 596 597
3 516 597 517
3 517 597 598
3 517 598 518
3 518 598 599
3 518 599 519
3 519 599 600
3 519 600 520
3 520 600 601
3 520 601 521
3 521 601 602
3 521 602 522
3 522 602 603
3 522 603 523
3 523 603 604
3 523 604 524
3 524 604 605
3 524 605 525
3 525 605 606
3 525 606 526
3 526 606 607
3 526 607 527
3 527 607 608
3 527 608 528
3 528 608 609
3 528 609 529
3 529 609 610
3 529 610 530
3 530 610 611
3 530 611 531
3 531 611 612
3 531 612 532
3 532 612 613
3 532 613 533
3 533 613 614
3 533 614 534
3 534 614 615
3 534 615 535
3 535 615 616
3 535 616 536
3 536 616 617
3 536 617 537
3 537 617 618
3 537 618 538
3 538 618 619
3 538 619 539
3 539 619 620
3 539 620 540
3 540 620 621
3 540 621 541
3 541 621 622
3 541 622 542
3 542 622 623
3 542 623 543
3 543 623 624
3 543 624 544
3 544 624 625
3 544 625 545
3 545 625 626
3 545 626 546
3 546 626 627
3 546 627 547
3 547 627 628
3 547 628 548
3 548 628 629
3 548 629 549
3 549 629 630
3 549 630 550
3 550 630 631
3 550 631 551
3 551 631 633
3 551 633 553
3 553 633 634
3 553 634 554
3 554 634 635
3 554 635 555
3 555 635 636
3 555 636 556
3 556 636 637
3 556 637 557
3 557 637 638
3 557 638 558
3 558 638 639
3 558 639 559
3 559 639 640
3 559 640 560
3 560 640 561
3 560 561 481
3 561 641 642
3 561 642 562
3 562 642 643
3 562 643 563
3 563 643 644
3 563 644 564
3 564 644 645
3 564 645 565
3 565 645 646
3 565 646 566
3 566 646 647
3 566 647 567
3 567 647 648
3 567 648 568
3 568 648 649
3 568 649 569
3 569 649 650
3 569 650 570
3 570 650 651
3 570 651 571
3 571 651 652
3 571 652 572
3 572 652 653
3 572 653 573
3 573 653 654
3 573 654 574
3 574 654 655
3 574 655 575
3 575 655 656
3 575 656 576
3 576 656 657
3 576 657 577
3 577 657 658
3 577 658 578
3 578 658 659
3 578 659 579
3 579 659 660
3 579 660 580
3 580 660 661
3 580 661 581
3 581 661 662
3 581 662 582
3 582 662 663
3 582 663 583
3 583 663 664
3 583 664 584
3 584 664 665
3 584 665 585
3 585 665 666
3 585 666 586
3 586 666 667
3 586 667 587
3 587 667 668
3 587 668 588
3 588 668 669
3 588 669 589
3 589 669 670
3 589 670 590
3 590 670 671
3 590 671 591
3 591 671 672
3 591 672 592
3 592 672 673
3 592 673 593
3 593 673 674
3 593 674 594
3 594 674 675
3 594 675 595
3 595 675 676
3 595 676 596
3 596 676 677
3 596 677 597
3 597 677 678
3 597 678 598
3 598 678 679
3 598 679 599
3 599 679 680
3 599 680 600
3 600 680 681
3 600 681 601
3 601 681 682
3 601 682 602
3 602 682 683
3 602 683 603
3 603 683 684
3 603 684 604
3 604 684 685
3 604 685 605
3 605 685 686
3 605 686 606
3 606 686 687
3 606 687 607
3 607 687 688
3 607 688 608
3 608 688 689
3 608 689 609
3 609 689 690
3 609 690 610
3 610 690 691
3 610 691 611
3 611 691 692
3 611 692 612
3 612 692 693
3 612 693 613
3 613 693 694
3 613 694 614
3 614 694 695
3 614 695 615
3 615 695 696
3 615 696 616
3 616 696 697
3 616 697 617
3 617 697 698
3 617 698 618
3 618 698 699
3 618 699 619
3 619 699 700
3 619 700 620
3 620 700 701
3 620 701 621
3 621 701 702
3 621 702 622
3 622 702 703
3 622 703 623
3 623 703 704
3 623 704 624
3 624 704 705
3 624 705 625
3 625 705 706
3 625 706 626
3 626 706 707
3 626 707 627
3 627 707 708
3 627 708 628
3 628 708 709
3 628 709 629
3 629 709 710
3 629 710 630
3 630 710 711
3 630 711 631
3 631 711 712
3 631 712 633
3 633 712 714
3 633 714 634
3 634 714 715
3 634 715 635
3 635 715 716
3 635 716 636
3 636 716 717
3 636 717 637
3 637 717 718
3 637 718 638
3 638 718 719
3 638 719 639
3 639 719 720
3 639 720 640
3 640 720 641
3 640 641 561
