ply 
format ascii 1.0 
comment this is a surface 
element vertex 401 
property float x 
property float y 
property float z 
element face 711 
property list uchar int vertex_index 
end_header 
214.312375 184.451875 -34.560000
214.340000 185.960000 -34.560000
213.510000 185.120000 -34.560000
212.660000 184.290000 -34.560000
211.790000 183.490000 -34.560000
210.880000 182.740000 -34.560000
209.900000 182.070000 -34.560000
208.840000 181.540000 -34.560000
207.730000 181.120000 -34.560000
206.600000 180.770000 -34.560000
205.450000 180.460000 -34.560000
204.300000 180.190000 -34.560000
203.150000 179.920000 -34.560000
201.990000 179.660000 -34.560000
200.830000 179.410000 -34.560000
199.670000 179.200000 -34.560000
198.500000 179.010000 -34.560000
197.330000 178.800000 -34.560000
196.180000 178.510000 -34.560000
195.110000 178.010000 -34.560000
195.410000 176.860000 -34.560000
196.580000 176.690000 -34.560000
197.760000 176.590000 -34.560000
198.940000 176.510000 -34.560000
200.120000 176.440000 -34.560000
201.300000 176.360000 -34.560000
202.480000 176.260000 -34.560000
203.660000 176.160000 -34.560000
204.850000 176.060000 -34.560000
206.030000 175.980000 -34.560000
207.210000 175.930000 -34.560000
208.400000 175.910000 -34.560000
209.580000 175.960000 -34.560000
210.760000 176.080000 -34.560000
211.930000 176.250000 -34.560000
213.100000 176.440000 -34.560000
214.270000 176.640000 -34.560000
215.440000 176.830000 -34.560000
216.610000 176.980000 -34.560000
217.790000 177.120000 -34.560000
218.960000 177.270000 -34.560000
220.140000 177.420000 -34.560000
221.300000 177.630000 -34.560000
222.450000 177.930000 -34.560000
223.520000 178.450000 -34.560000
224.380000 179.260000 -34.560000
225.050000 180.230000 -34.560000
225.580000 181.300000 -34.560000
225.920000 182.430000 -34.560000
226.040000 183.610000 -34.560000
226.000000 184.790000 -34.560000
225.920000 185.980000 -34.560000
225.830000 187.160000 -34.560000
225.730000 188.340000 -34.560000
225.640000 189.520000 -34.560000
225.570000 190.700000 -34.560000
225.510000 191.880000 -34.560000
225.460000 193.070000 -34.560000
225.420000 194.250000 -34.560000
225.360000 195.430000 -34.560000
225.280000 196.620000 -34.560000
225.150000 197.790000 -34.560000
224.870000 198.940000 -34.560000
224.390000 200.030000 -34.560000
223.750000 201.020000 -34.560000
222.650000 201.480000 -34.560000
221.890000 200.570000 -34.560000
221.380000 199.500000 -34.560000
220.920000 198.410000 -34.560000
220.460000 197.320000 -34.560000
220.000000 196.230000 -34.560000
219.600000 195.110000 -34.560000
219.220000 193.990000 -34.560000
218.840000 192.870000 -34.560000
218.410000 191.760000 -34.560000
217.930000 190.680000 -34.560000
217.350000 189.650000 -34.560000
216.680000 188.670000 -34.560000
215.950000 187.740000 -34.560000
215.170000 186.840000 -34.560000
214.340000 185.960000 -34.560000
214.030000 183.180000 -25.920000
213.130000 182.570000 -25.920000
212.280000 181.890000 -25.920000
211.460000 181.170000 -25.920000
210.660000 180.440000 -25.920000
209.850000 179.720000 -25.920000
209.000000 179.030000 -25.920000
208.110000 178.400000 -25.920000
207.200000 177.810000 -25.920000
206.270000 177.240000 -25.920000
205.340000 176.680000 -25.920000
204.420000 176.110000 -25.920000
203.470000 175.570000 -25.920000
202.500000 175.100000 -25.920000
201.520000 174.610000 -25.920000
200.590000 174.040000 -25.920000
199.890000 173.210000 -25.920000
200.280000 172.190000 -25.920000
200.990000 171.370000 -25.920000
201.800000 170.640000 -25.920000
202.670000 169.990000 -25.920000
203.610000 169.440000 -25.920000
204.580000 168.950000 -25.920000
205.580000 168.520000 -25.920000
206.610000 168.180000 -25.920000
207.670000 167.930000 -25.920000
208.750000 167.780000 -25.920000
209.830000 167.650000 -25.920000
210.910000 167.550000 -25.920000
211.990000 167.470000 -25.920000
213.080000 167.420000 -25.920000
214.170000 167.420000 -25.920000
215.250000 167.530000 -25.920000
216.310000 167.750000 -25.920000
217.360000 168.050000 -25.920000
218.390000 168.390000 -25.920000
219.430000 168.710000 -25.920000
220.480000 168.990000 -25.920000
221.550000 169.190000 -25.920000
222.630000 169.340000 -25.920000
223.710000 169.480000 -25.920000
224.780000 169.660000 -25.920000
225.830000 169.930000 -25.920000
226.560000 170.740000 -25.920000
226.880000 171.780000 -25.920000
227.100000 172.840000 -25.920000
227.260000 173.920000 -25.920000
227.400000 175.000000 -25.920000
227.520000 176.080000 -25.920000
227.630000 177.160000 -25.920000
227.740000 178.240000 -25.920000
227.840000 179.330000 -25.920000
227.920000 180.410000 -25.920000
227.990000 181.490000 -25.920000
228.030000 182.580000 -25.920000
228.050000 183.670000 -25.920000
228.050000 184.760000 -25.920000
228.050000 185.840000 -25.920000
228.050000 186.930000 -25.920000
228.050000 188.020000 -25.920000
228.040000 189.110000 -25.920000
227.910000 190.190000 -25.920000
227.470000 191.180000 -25.920000
226.850000 192.070000 -25.920000
226.060000 192.820000 -25.920000
225.090000 193.310000 -25.920000
224.070000 192.930000 -25.920000
223.240000 192.230000 -25.920000
222.510000 191.430000 -25.920000
221.810000 190.590000 -25.920000
221.130000 189.740000 -25.920000
220.420000 188.920000 -25.920000
219.700000 188.100000 -25.920000
219.020000 187.250000 -25.920000
218.350000 186.400000 -25.920000
217.630000 185.580000 -25.920000
217.630000 185.580000 -25.920000
216.830000 184.840000 -25.920000
215.930000 184.230000 -25.920000
214.980000 183.710000 -25.920000
215.880000 177.740000 -17.280000
214.660000 177.240000 -17.280000
213.440000 176.710000 -17.280000
213.440000 176.710000 -17.280000
212.240000 176.150000 -17.280000
211.040000 175.590000 -17.280000
209.840000 175.020000 -17.280000
208.660000 174.430000 -17.280000
207.510000 173.760000 -17.280000
206.420000 173.010000 -17.280000
205.340000 172.250000 -17.280000
204.210000 171.560000 -17.280000
202.990000 171.040000 -17.280000
201.680000 170.850000 -17.280000
200.350000 170.890000 -17.280000
199.030000 170.960000 -17.280000
197.710000 171.060000 -17.280000
196.390000 171.160000 -17.280000
195.070000 171.230000 -17.280000
193.740000 171.200000 -17.280000
192.500000 170.740000 -17.280000
191.450000 169.940000 -17.280000
190.860000 168.750000 -17.280000
191.440000 167.560000 -17.280000
192.310000 166.560000 -17.280000
193.290000 165.670000 -17.280000
194.330000 164.850000 -17.280000
195.400000 164.080000 -17.280000
196.510000 163.350000 -17.280000
197.650000 162.670000 -17.280000
198.800000 162.020000 -17.280000
199.980000 161.420000 -17.280000
201.200000 160.900000 -17.280000
202.470000 160.510000 -17.280000
203.770000 160.290000 -17.280000
205.090000 160.120000 -17.280000
206.410000 159.990000 -17.280000
207.730000 159.890000 -17.280000
209.050000 159.820000 -17.280000
210.370000 159.800000 -17.280000
211.690000 159.910000 -17.280000
212.980000 160.220000 -17.280000
214.230000 160.670000 -17.280000
215.440000 161.200000 -17.280000
216.640000 161.760000 -17.280000
217.850000 162.320000 -17.280000
219.060000 162.840000 -17.280000
220.280000 163.360000 -17.280000
221.480000 163.920000 -17.280000
222.670000 164.510000 -17.280000
223.830000 165.150000 -17.280000
224.940000 165.860000 -17.280000
226.030000 166.620000 -17.280000
227.090000 167.410000 -17.280000
228.110000 168.260000 -17.280000
229.020000 169.220000 -17.280000
229.750000 170.330000 -17.280000
230.180000 171.580000 -17.280000
230.520000 172.860000 -17.280000
230.790000 174.160000 -17.280000
231.010000 175.470000 -17.280000
231.160000 176.780000 -17.280000
231.250000 178.100000 -17.280000
231.250000 179.430000 -17.280000
231.110000 180.750000 -17.280000
230.890000 182.050000 -17.280000
230.580000 183.340000 -17.280000
230.100000 184.580000 -17.280000
229.010000 185.330000 -17.280000
227.690000 185.210000 -17.280000
226.380000 185.060000 -17.280000
225.070000 184.850000 -17.280000
223.810000 184.420000 -17.280000
222.830000 183.540000 -17.280000
222.020000 182.490000 -17.280000
221.260000 181.400000 -17.280000
220.450000 180.360000 -17.280000
219.450000 179.480000 -17.280000
218.310000 178.810000 -17.280000
217.110000 178.250000 -17.280000
215.160000 177.470000 -8.640000
213.420000 176.430000 -8.640000
211.630000 175.470000 -8.640000
209.840000 174.510000 -8.640000
208.060000 173.540000 -8.640000
206.240000 172.640000 -8.640000
204.350000 171.900000 -8.640000
202.430000 171.440000 -8.640000
202.430000 171.440000 -8.640000
200.420000 171.160000 -8.640000
198.410000 170.920000 -8.640000
196.380000 170.730000 -8.640000
194.360000 170.600000 -8.640000
192.330000 170.540000 -8.640000
190.300000 170.620000 -8.640000
188.290000 170.890000 -8.640000
186.300000 171.310000 -8.640000
184.340000 171.810000 -8.640000
182.380000 172.350000 -8.640000
180.430000 172.900000 -8.640000
178.510000 173.580000 -8.640000
176.650000 174.380000 -8.640000
174.790000 175.200000 -8.640000
172.890000 175.910000 -8.640000
170.870000 176.060000 -8.640000
169.220000 174.870000 -8.640000
168.040000 173.220000 -8.640000
167.220000 171.370000 -8.640000
166.980000 169.350000 -8.640000
167.680000 167.440000 -8.640000
168.790000 165.750000 -8.640000
170.140000 164.230000 -8.640000
171.630000 162.850000 -8.640000
173.250000 161.630000 -8.640000
175.010000 160.620000 -8.640000
176.860000 159.780000 -8.640000
178.760000 159.070000 -8.640000
180.700000 158.460000 -8.640000
182.660000 157.930000 -8.640000
184.640000 157.480000 -8.640000
186.630000 157.100000 -8.640000
188.630000 156.780000 -8.640000
190.640000 156.480000 -8.640000
192.650000 156.190000 -8.640000
194.660000 155.880000 -8.640000
196.660000 155.540000 -8.640000
198.660000 155.180000 -8.640000
200.660000 154.840000 -8.640000
202.660000 154.530000 -8.640000
204.680000 154.310000 -8.640000
206.710000 154.190000 -8.640000
208.740000 154.230000 -8.640000
210.760000 154.410000 -8.640000
212.770000 154.700000 -8.640000
214.760000 155.090000 -8.640000
216.730000 155.560000 -8.640000
218.680000 156.150000 -8.640000
220.540000 156.960000 -8.640000
222.280000 158.000000 -8.640000
223.900000 159.220000 -8.640000
225.370000 160.630000 -8.640000
226.600000 162.240000 -8.640000
227.620000 164.000000 -8.640000
228.500000 165.830000 -8.640000
229.250000 167.710000 -8.640000
229.850000 169.650000 -8.640000
230.280000 171.630000 -8.640000
230.490000 173.650000 -8.640000
230.490000 175.680000 -8.640000
230.400000 177.710000 -8.640000
230.250000 179.730000 -8.640000
230.020000 181.750000 -8.640000
229.600000 183.740000 -8.640000
227.640000 184.240000 -8.640000
225.790000 183.390000 -8.640000
223.970000 182.500000 -8.640000
222.150000 181.590000 -8.640000
220.360000 180.640000 -8.640000
218.600000 179.620000 -8.640000
216.880000 178.550000 -8.640000
216.450000 175.300000 0.000000
214.660000 174.380000 0.000000
212.730000 173.790000 0.000000
210.760000 173.340000 0.000000
208.780000 172.960000 0.000000
206.790000 172.650000 0.000000
204.790000 172.400000 0.000000
202.790000 172.220000 0.000000
202.790000 172.220000 0.000000
200.780000 172.080000 0.000000
198.770000 171.960000 0.000000
196.750000 171.860000 0.000000
194.740000 171.790000 0.000000
192.720000 171.770000 0.000000
190.710000 171.770000 0.000000
188.690000 171.770000 0.000000
186.680000 171.770000 0.000000
184.660000 171.770000 0.000000
182.650000 171.770000 0.000000
180.630000 171.770000 0.000000
178.620000 171.790000 0.000000
176.610000 172.000000 0.000000
174.630000 172.340000 0.000000
172.650000 172.730000 0.000000
170.670000 173.110000 0.000000
169.930000 171.240000 0.000000
169.680000 169.240000 0.000000
169.520000 167.230000 0.000000
169.450000 165.220000 0.000000
169.630000 163.210000 0.000000
170.240000 161.290000 0.000000
171.140000 159.480000 0.000000
172.270000 157.820000 0.000000
173.600000 156.300000 0.000000
175.180000 155.050000 0.000000
176.990000 154.180000 0.000000
178.890000 153.500000 0.000000
180.830000 152.950000 0.000000
182.790000 152.470000 0.000000
184.750000 152.010000 0.000000
186.710000 151.540000 0.000000
188.680000 151.110000 0.000000
190.660000 150.740000 0.000000
192.660000 150.490000 0.000000
194.680000 150.410000 0.000000
196.690000 150.470000 0.000000
198.700000 150.610000 0.000000
200.710000 150.820000 0.000000
202.710000 151.080000 0.000000
204.700000 151.360000 0.000000
206.690000 151.660000 0.000000
208.680000 151.980000 0.000000
210.670000 152.340000 0.000000
212.640000 152.750000 0.000000
214.600000 153.220000 0.000000
216.550000 153.740000 0.000000
218.470000 154.340000 0.000000
220.370000 155.000000 0.000000
222.240000 155.770000 0.000000
224.040000 156.670000 0.000000
225.750000 157.730000 0.000000
227.330000 158.990000 0.000000
228.650000 160.510000 0.000000
229.780000 162.180000 0.000000
230.770000 163.940000 0.000000
231.610000 165.770000 0.000000
232.280000 167.670000 0.000000
232.690000 169.640000 0.000000
232.740000 171.660000 0.000000
232.500000 173.660000 0.000000
232.070000 175.630000 0.000000
231.480000 177.550000 0.000000
230.650000 179.390000 0.000000
229.210000 180.800000 0.000000
227.210000 180.540000 0.000000
225.260000 180.050000 0.000000
223.330000 179.460000 0.000000
221.480000 178.650000 0.000000
219.770000 177.580000 0.000000
218.120000 176.420000 0.000000
3 0 80 2
3 0 2 3
3 0 3 4
3 0 4 5
3 0 5 6
3 0 6 7
3 0 7 8
3 0 8 9
3 0 9 10
3 0 10 11
3 0 11 12
3 0 12 13
3 0 13 14
3 0 14 15
3 0 15 16
3 0 16 17
3 0 17 18
3 0 18 19
3 0 19 20
3 0 20 21
3 0 21 22
3 0 22 23
3 0 23 24
3 0 24 25
3 0 25 26
3 0 26 27
3 0 27 28
3 0 28 29
3 0 29 30
3 0 30 31
3 0 31 32
3 0 32 33
3 0 33 34
3 0 34 35
3 0 35 36
3 0 36 37
3 0 37 38
3 0 38 39
3 0 39 40
3 0 40 41
3 0 41 42
3 0 42 43
3 0 43 44
3 0 44 45
3 0 45 46
3 0 46 47
3 0 47 48
3 0 48 49
3 0 49 50
3 0 50 51
3 0 51 52
3 0 52 53
3 0 53 54
3 0 54 55
3 0 55 56
3 0 56 57
3 0 57 58
3 0 58 59
3 0 59 60
3 0 60 61
3 0 61 62
3 0 62 63
3 0 63 64
3 0 64 65
3 0 65 66
3 0 66 67
3 0 67 68
3 0 68 69
3 0 69 70
3 0 70 71
3 0 71 72
3 0 72 73
3 0 73 74
3 0 74 75
3 0 75 76
3 0 76 77
3 0 77 78
3 0 78 79
3 0 79 80
3 80 81 82
3 80 82 2
3 2 82 83
3 2 83 3
3 3 83 84
3 3 84 4
3 4 84 85
3 4 85 5
3 5 85 86
3 5 86 6
3 6 86 87
3 6 87 7
3 7 87 88
3 7 88 8
3 8 88 89
3 8 89 9
3 9 89 90
3 9 90 10
3 10 90 91
3 10 91 11
3 11 91 92
3 11 92 12
3 12 92 93
3 12 93 13
3 13 93 94
3 13 94 14
3 14 94 95
3 14 95 15
3 15 95 96
3 15 96 16
3 16 96 97
3 16 97 17
3 17 97 98
3 17 98 18
3 18 98 99
3 18 99 19
3 19 99 100
3 19 100 20
3 20 100 101
3 20 101 21
3 21 101 102
3 21 102 22
3 22 102 103
3 22 103 23
3 23 103 104
3 23 104 24
3 24 104 105
3 24 105 25
3 25 105 106
3 25 106 26
3 26 106 107
3 26 107 27
3 27 107 108
3 27 108 28
3 28 108 109
3 28 109 29
3 29 109 110
3 29 110 30
3 30 110 111
3 30 111 31
3 31 111 112
3 31 112 32
3 32 112 113
3 32 113 33
3 33 113 114
3 33 114 34
3 34 114 115
3 34 115 35
3 35 115 116
3 35 116 36
3 36 116 117
3 36 117 37
3 37 117 118
3 37 118 38
3 38 118 119
3 38 119 39
3 39 119 120
3 39 120 40
3 40 120 121
3 40 121 41
3 41 121 122
3 41 122 42
3 42 122 123
3 42 123 43
3 43 123 124
3 43 124 44
3 44 124 125
3 44 125 45
3 45 125 126
3 45 126 46
3 46 126 127
3 46 127 47
3 47 127 128
3 47 128 48
3 48 128 129
3 48 129 49
3 49 129 130
3 49 130 50
3 50 130 131
3 50 131 51
3 51 131 132
3 51 132 52
3 52 132 133
3 52 133 53
3 53 133 134
3 53 134 54
3 54 134 135
3 54 135 55
3 55 135 136
3 55 136 56
3 56 136 137
3 56 137 57
3 57 137 138
3 57 138 58
3 58 138 139
3 58 139 59
3 59 139 140
3 59 140 60
3 60 140 141
3 60 141 61
3 61 141 142
3 61 142 62
3 62 142 143
3 62 143 63
3 63 143 144
3 63 144 64
3 64 144 145
3 64 145 65
3 65 145 146
3 65 146 66
3 66 146 147
3 66 147 67
3 67 147 148
3 67 148 68
3 68 148 149
3 68 149 69
3 69 149 150
3 69 150 70
3 70 150 151
3 70 151 71
3 71 151 152
3 71 152 72
3 72 152 153
3 72 153 73
3 73 153 154
3 73 154 74
3 74 154 155
3 74 155 75
3 75 155 156
3 75 156 76
3 76 156 77
3 77 156 158
3 77 158 78
3 78 158 159
3 78 159 79
3 79 159 160
3 79 160 80
3 80 160 81
3 81 161 162
3 81 162 82
3 82 162 163
3 82 163 83
3 83 163 84
3 84 163 165
3 84 165 85
3 85 165 166
3 85 166 86
3 86 166 167
3 86 167 87
3 87 167 168
3 87 168 88
3 88 168 169
3 88 169 89
3 89 169 170
3 89 170 90
3 90 170 171
3 90 171 91
3 91 171 172
3 91 172 92
3 92 172 173
3 92 173 93
3 93 173 174
3 93 174 94
3 94 174 175
3 94 175 95
3 95 175 176
3 95 176 96
3 96 176 177
3 96 177 97
3 97 177 178
3 97 178 98
3 98 178 179
3 98 179 99
3 99 179 180
3 99 180 100
3 100 180 181
3 100 181 101
3 101 181 182
3 101 182 102
3 102 182 183
3 102 183 103
3 103 183 184
3 103 184 104
3 104 184 185
3 104 185 105
3 105 185 186
3 105 186 106
3 106 186 187
3 106 187 107
3 107 187 188
3 107 188 108
3 108 188 189
3 108 189 109
3 109 189 190
3 109 190 110
3 110 190 191
3 110 191 111
3 111 191 192
3 111 192 112
3 112 192 193
3 112 193 113
3 113 193 194
3 113 194 114
3 114 194 195
3 114 195 115
3 115 195 196
3 115 196 116
3 116 196 197
3 116 197 117
3 117 197 198
3 117 198 118
3 118 198 199
3 118 199 119
3 119 199 200
3 119 200 120
3 120 200 201
3 120 201 121
3 121 201 202
3 121 202 122
3 122 202 203
3 122 203 123
3 123 203 204
3 123 204 124
3 124 204 205
3 124 205 125
3 125 205 206
3 125 206 126
3 126 206 207
3 126 207 127
3 127 207 208
3 127 208 128
3 128 208 209
3 128 209 129
3 129 209 210
3 129 210 130
3 130 210 211
3 130 211 131
3 131 211 212
3 131 212 132
3 132 212 213
3 132 213 133
3 133 213 214
3 133 214 134
3 134 214 215
3 134 215 135
3 135 215 216
3 135 216 136
3 136 216 217
3 136 217 137
3 137 217 218
3 137 218 138
3 138 218 219
3 138 219 139
3 139 219 220
3 139 220 140
3 140 220 221
3 140 221 141
3 141 221 222
3 141 222 142
3 142 222 223
3 142 223 143
3 143 223 224
3 143 224 144
3 144 224 225
3 144 225 145
3 145 225 226
3 145 226 146
3 146 226 227
3 146 227 147
3 147 227 228
3 147 228 148
3 148 228 229
3 148 229 149
3 149 229 230
3 149 230 150
3 150 230 231
3 150 231 151
3 151 231 232
3 151 232 152
3 152 232 233
3 152 233 153
3 153 233 234
3 153 234 154
3 154 234 235
3 154 235 155
3 155 235 236
3 155 236 156
3 156 236 237
3 156 237 238
3 156 238 158
3 158 238 239
3 158 239 159
3 159 239 240
3 159 240 160
3 160 240 161
3 160 161 81
3 161 241 242
3 161 242 162
3 162 242 243
3 162 243 163
3 163 243 244
3 163 244 245
3 163 245 165
3 165 245 246
3 165 246 166
3 166 246 247
3 166 247 167
3 167 247 248
3 167 248 168
3 168 248 169
3 169 248 250
3 169 250 170
3 170 250 251
3 170 251 171
3 171 251 252
3 171 252 172
3 172 252 253
3 172 253 173
3 173 253 254
3 173 254 174
3 174 254 255
3 174 255 175
3 175 255 256
3 175 256 176
3 176 256 257
3 176 257 177
3 177 257 258
3 177 258 178
3 178 258 259
3 178 259 179
3 179 259 260
3 179 260 180
3 180 260 261
3 180 261 181
3 181 261 262
3 181 262 182
3 182 262 263
3 182 263 183
3 183 263 264
3 183 264 184
3 184 264 265
3 184 265 185
3 185 265 266
3 185 266 186
3 186 266 267
3 186 267 187
3 187 267 268
3 187 268 188
3 188 268 269
3 188 269 189
3 189 269 270
3 189 270 190
3 190 270 271
3 190 271 191
3 191 271 272
3 191 272 192
3 192 272 273
3 192 273 193
3 193 273 274
3 193 274 194
3 194 274 275
3 194 275 195
3 195 275 276
3 195 276 196
3 196 276 277
3 196 277 197
3 197 277 278
3 197 278 198
3 198 278 279
3 198 279 199
3 199 279 280
3 199 280 200
3 200 280 281
3 200 281 201
3 201 281 282
3 201 282 202
3 202 282 283
3 202 283 203
3 203 283 284
3 203 284 204
3 204 284 285
3 204 285 205
3 205 285 286
3 205 286 206
3 206 286 287
3 206 287 207
3 207 287 288
3 207 288 208
3 208 288 289
3 208 289 209
3 209 289 290
3 209 290 210
3 210 290 291
3 210 291 211
3 211 291 292
3 211 292 212
3 212 292 293
3 212 293 213
3 213 293 294
3 213 294 214
3 214 294 295
3 214 295 215
3 215 295 296
3 215 296 216
3 216 296 297
3 216 297 217
3 217 297 298
3 217 298 218
3 218 298 299
3 218 299 219
3 219 299 300
3 219 300 220
3 220 300 301
3 220 301 221
3 221 301 302
3 221 302 222
3 222 302 303
3 222 303 223
3 223 303 304
3 223 304 224
3 224 304 305
3 224 305 225
3 225 305 306
3 225 306 226
3 226 306 307
3 226 307 227
3 227 307 308
3 227 308 228
3 228 308 309
3 228 309 229
3 229 309 310
3 229 310 230
3 230 310 311
3 230 311 231
3 231 311 312
3 231 312 232
3 232 312 313
3 232 313 233
3 233 313 314
3 233 314 234
3 234 314 315
3 234 315 235
3 235 315 316
3 235 316 236
3 236 316 317
3 236 317 237
3 237 317 318
3 237 318 238
3 238 318 319
3 238 319 239
3 239 319 320
3 239 320 240
3 240 320 241
3 240 241 161
3 241 321 322
3 241 322 242
3 242 322 323
3 242 323 243
3 243 323 324
3 243 324 244
3 244 324 325
3 244 325 245
3 245 325 326
3 245 326 246
3 246 326 327
3 246 327 247
3 247 327 328
3 247 328 248
3 248 328 330
3 248 330 250
3 250 330 331
3 250 331 251
3 251 331 332
3 251 332 252
3 252 332 333
3 252 333 253
3 253 333 334
3 253 334 254
3 254 334 335
3 254 335 255
3 255 335 336
3 255 336 256
3 256 336 337
3 256 337 257
3 257 337 338
3 257 338 258
3 258 338 339
3 258 339 259
3 259 339 340
3 259 340 260
3 260 340 341
3 260 341 261
3 261 341 342
3 261 342 262
3 262 342 343
3 262 343 263
3 263 343 344
3 263 344 264
3 264 344 345
3 264 345 265
3 265 345 346
3 265 346 266
3 266 346 347
3 266 347 267
3 267 347 348
3 267 348 268
3 268 348 349
3 268 349 269
3 269 349 350
3 269 350 270
3 270 350 351
3 270 351 271
3 271 351 352
3 271 352 272
3 272 352 353
3 272 353 273
3 273 353 354
3 273 354 274
3 274 354 355
3 274 355 275
3 275 355 356
3 275 356 276
3 276 356 357
3 276 357 277
3 277 357 358
3 277 358 278
3 278 358 359
3 278 359 279
3 279 359 360
3 279 360 280
3 280 360 361
3 280 361 281
3 281 361 362
3 281 362 282
3 282 362 363
3 282 363 283
3 283 363 364
3 283 364 284
3 284 364 365
3 284 365 285
3 285 365 366
3 285 366 286
3 286 366 367
3 286 367 287
3 287 367 368
3 287 368 288
3 288 368 369
3 288 369 289
3 289 369 370
3 289 370 290
3 290 370 371
3 290 371 291
3 291 371 372
3 291 372 292
3 292 372 373
3 292 373 293
3 293 373 374
3 293 374 294
3 294 374 375
3 294 375 295
3 295 375 376
3 295 376 296
3 296 376 377
3 296 377 297
3 297 377 378
3 297 378 298
3 298 378 379
3 298 379 299
3 299 379 380
3 299 380 300
3 300 380 381
3 300 381 301
3 301 381 382
3 301 382 302
3 302 382 383
3 302 383 303
3 303 383 384
3 303 384 304
3 304 384 385
3 304 385 305
3 305 385 386
3 305 386 306
3 306 386 387
3 306 387 307
3 307 387 388
3 307 388 308
3 308 388 389
3 308 389 309
3 309 389 390
3 309 390 310
3 310 390 391
3 310 391 311
3 311 391 392
3 311 392 312
3 312 392 393
3 312 393 313
3 313 393 394
3 313 394 314
3 314 394 395
3 314 395 315
3 315 395 396
3 315 396 316
3 316 396 397
3 316 397 317
3 317 397 398
3 317 398 318
3 318 398 399
3 318 399 319
3 319 399 400
3 319 400 320
3 320 400 321
3 320 321 241
