ply 
format ascii 1.0 
comment this is a surface 
element vertex 561 
property float x 
property float y 
property float z 
element face 1027 
property list uchar int vertex_index 
end_header 
193.004000 206.139250 -51.840000
194.490000 226.140000 -51.840000
193.010000 226.000000 -51.840000
191.600000 225.540000 -51.840000
190.140000 225.260000 -51.840000
188.730000 224.780000 -51.840000
187.390000 224.140000 -51.840000
186.070000 223.470000 -51.840000
184.640000 223.050000 -51.840000
183.620000 221.970000 -51.840000
182.790000 220.740000 -51.840000
181.910000 219.540000 -51.840000
181.140000 218.270000 -51.840000
180.370000 217.000000 -51.840000
179.360000 215.910000 -51.840000
178.770000 214.550000 -51.840000
178.190000 213.180000 -51.840000
177.330000 211.970000 -51.840000
177.050000 210.510000 -51.840000
176.890000 209.030000 -51.840000
176.860000 207.550000 -51.840000
176.850000 206.060000 -51.840000
176.850000 204.580000 -51.840000
176.850000 203.090000 -51.840000
176.850000 201.610000 -51.840000
176.850000 200.120000 -51.840000
176.860000 198.630000 -51.840000
176.940000 197.150000 -51.840000
177.200000 195.690000 -51.840000
177.560000 194.250000 -51.840000
178.140000 192.880000 -51.840000
179.020000 191.680000 -51.840000
180.030000 190.590000 -51.840000
181.120000 189.580000 -51.840000
182.350000 188.750000 -51.840000
183.720000 188.180000 -51.840000
185.120000 187.680000 -51.840000
186.500000 187.120000 -51.840000
187.880000 186.590000 -51.840000
189.330000 186.240000 -51.840000
190.810000 186.140000 -51.840000
192.300000 186.150000 -51.840000
193.780000 186.210000 -51.840000
195.250000 186.400000 -51.840000
196.720000 186.650000 -51.840000
198.180000 186.920000 -51.840000
199.560000 187.460000 -51.840000
200.910000 188.090000 -51.840000
202.170000 188.870000 -51.840000
203.210000 189.930000 -51.840000
204.090000 191.130000 -51.840000
204.920000 192.360000 -51.840000
205.570000 193.700000 -51.840000
206.170000 195.050000 -51.840000
206.630000 196.470000 -51.840000
207.050000 197.890000 -51.840000
207.430000 199.330000 -51.840000
207.860000 200.750000 -51.840000
208.330000 202.160000 -51.840000
208.670000 203.610000 -51.840000
208.890000 205.080000 -51.840000
209.270000 206.510000 -51.840000
209.560000 207.970000 -51.840000
209.580000 209.450000 -51.840000
209.580000 210.940000 -51.840000
209.540000 212.420000 -51.840000
209.270000 213.880000 -51.840000
208.850000 215.310000 -51.840000
208.240000 216.660000 -51.840000
207.670000 218.040000 -51.840000
206.890000 219.300000 -51.840000
206.190000 220.610000 -51.840000
205.260000 221.770000 -51.840000
204.070000 222.660000 -51.840000
202.930000 223.610000 -51.840000
201.610000 224.300000 -51.840000
200.230000 224.850000 -51.840000
198.830000 225.340000 -51.840000
197.420000 225.820000 -51.840000
195.970000 226.140000 -51.840000
194.490000 226.140000 -51.840000
194.450000 230.070000 -43.200000
194.450000 230.070000 -43.200000
192.660000 230.070000 -43.200000
190.900000 229.690000 -43.200000
189.170000 229.230000 -43.200000
187.480000 228.630000 -43.200000
185.760000 228.120000 -43.200000
184.150000 227.340000 -43.200000
182.560000 226.510000 -43.200000
181.110000 225.450000 -43.200000
179.920000 224.110000 -43.200000
178.730000 222.770000 -43.200000
177.390000 221.570000 -43.200000
176.290000 220.160000 -43.200000
175.800000 218.430000 -43.200000
174.800000 216.940000 -43.200000
174.270000 215.230000 -43.200000
173.900000 213.470000 -43.200000
173.630000 211.700000 -43.200000
173.470000 209.920000 -43.200000
173.420000 208.120000 -43.200000
173.420000 206.330000 -43.200000
173.420000 204.540000 -43.200000
173.420000 202.740000 -43.200000
173.560000 200.950000 -43.200000
173.780000 199.170000 -43.200000
173.930000 197.390000 -43.200000
174.220000 195.620000 -43.200000
174.800000 193.920000 -43.200000
175.450000 192.250000 -43.200000
176.080000 190.570000 -43.200000
177.020000 189.040000 -43.200000
178.320000 187.800000 -43.200000
179.640000 186.590000 -43.200000
181.100000 185.550000 -43.200000
182.740000 184.820000 -43.200000
184.460000 184.300000 -43.200000
186.170000 183.760000 -43.200000
187.830000 183.080000 -43.200000
189.570000 182.670000 -43.200000
191.300000 182.180000 -43.200000
193.080000 182.030000 -43.200000
194.860000 182.290000 -43.200000
196.620000 182.620000 -43.200000
198.300000 183.260000 -43.200000
199.970000 183.910000 -43.200000
201.570000 184.730000 -43.200000
203.160000 185.550000 -43.200000
204.750000 186.380000 -43.200000
206.200000 187.430000 -43.200000
207.690000 188.430000 -43.200000
209.090000 189.560000 -43.200000
210.120000 191.020000 -43.200000
210.980000 192.600000 -43.200000
212.040000 194.050000 -43.200000
212.820000 195.660000 -43.200000
213.420000 197.350000 -43.200000
213.840000 199.090000 -43.200000
213.870000 200.890000 -43.200000
213.870000 202.680000 -43.200000
213.870000 204.480000 -43.200000
213.870000 206.270000 -43.200000
213.760000 208.060000 -43.200000
213.340000 209.800000 -43.200000
212.930000 211.550000 -43.200000
212.550000 213.300000 -43.200000
212.130000 215.050000 -43.200000
211.580000 216.750000 -43.200000
211.110000 218.480000 -43.200000
210.570000 220.190000 -43.200000
209.730000 221.780000 -43.200000
208.560000 223.130000 -43.200000
207.390000 224.490000 -43.200000
206.120000 225.760000 -43.200000
204.740000 226.910000 -43.200000
203.230000 227.880000 -43.200000
201.610000 228.650000 -43.200000
199.920000 229.250000 -43.200000
198.200000 229.760000 -43.200000
196.440000 230.070000 -43.200000
195.130000 233.930000 -34.560000
195.130000 233.930000 -34.560000
192.840000 234.070000 -34.560000
190.540000 233.980000 -34.560000
188.250000 233.740000 -34.560000
185.970000 233.410000 -34.560000
183.740000 232.870000 -34.560000
181.600000 232.020000 -34.560000
179.570000 230.930000 -34.560000
177.630000 229.700000 -34.560000
175.770000 228.350000 -34.560000
173.960000 226.940000 -34.560000
172.190000 225.460000 -34.560000
170.510000 223.890000 -34.560000
168.980000 222.180000 -34.560000
167.680000 220.270000 -34.560000
166.830000 218.140000 -34.560000
166.280000 215.900000 -34.560000
165.830000 213.650000 -34.560000
165.480000 211.370000 -34.560000
165.250000 209.090000 -34.560000
165.150000 206.790000 -34.560000
165.250000 204.490000 -34.560000
165.550000 202.210000 -34.560000
166.000000 199.950000 -34.560000
166.560000 197.720000 -34.560000
167.210000 195.520000 -34.560000
167.890000 193.320000 -34.560000
168.660000 191.150000 -34.560000
169.570000 189.040000 -34.560000
170.650000 187.010000 -34.560000
171.930000 185.100000 -34.560000
173.530000 183.440000 -34.560000
175.440000 182.170000 -34.560000
177.460000 181.070000 -34.560000
179.560000 180.120000 -34.560000
181.710000 179.300000 -34.560000
183.910000 178.630000 -34.560000
186.150000 178.110000 -34.560000
188.430000 177.800000 -34.560000
190.730000 177.730000 -34.560000
192.990000 178.160000 -34.560000
195.180000 178.850000 -34.560000
197.380000 179.540000 -34.560000
199.600000 180.110000 -34.560000
201.830000 180.670000 -34.560000
204.050000 181.270000 -34.560000
206.250000 181.970000 -34.560000
208.380000 182.830000 -34.560000
210.400000 183.930000 -34.560000
212.310000 185.210000 -34.560000
214.100000 186.660000 -34.560000
215.750000 188.260000 -34.560000
217.220000 190.030000 -34.560000
218.480000 191.950000 -34.560000
219.580000 193.970000 -34.560000
220.560000 196.050000 -34.560000
221.450000 198.180000 -34.560000
222.290000 200.320000 -34.560000
223.110000 202.470000 -34.560000
223.980000 204.590000 -34.560000
224.760000 206.760000 -34.560000
225.120000 209.030000 -34.560000
224.820000 211.310000 -34.560000
224.040000 213.480000 -34.560000
222.980000 215.510000 -34.560000
221.720000 217.440000 -34.560000
220.320000 219.270000 -34.560000
218.840000 221.030000 -34.560000
217.300000 222.740000 -34.560000
215.690000 224.380000 -34.560000
213.960000 225.900000 -34.560000
212.140000 227.300000 -34.560000
210.220000 228.570000 -34.560000
208.220000 229.710000 -34.560000
206.140000 230.680000 -34.560000
203.990000 231.500000 -34.560000
201.820000 232.270000 -34.560000
199.630000 232.970000 -34.560000
197.400000 233.540000 -34.560000
195.940000 237.750000 -25.920000
195.940000 237.750000 -25.920000
193.490000 237.860000 -25.920000
191.040000 237.660000 -25.920000
188.630000 237.170000 -25.920000
186.260000 236.490000 -25.920000
183.940000 235.690000 -25.920000
181.740000 234.600000 -25.920000
179.680000 233.250000 -25.920000
177.730000 231.740000 -25.920000
175.900000 230.110000 -25.920000
174.140000 228.390000 -25.920000
172.460000 226.590000 -25.920000
170.870000 224.720000 -25.920000
169.390000 222.760000 -25.920000
168.050000 220.690000 -25.920000
166.890000 218.520000 -25.920000
165.980000 216.240000 -25.920000
165.170000 213.920000 -25.920000
164.440000 211.570000 -25.920000
163.810000 209.190000 -25.920000
163.340000 206.780000 -25.920000
163.080000 204.330000 -25.920000
163.120000 201.870000 -25.920000
163.490000 199.440000 -25.920000
164.100000 197.060000 -25.920000
164.890000 194.730000 -25.920000
165.820000 192.460000 -25.920000
166.870000 190.230000 -25.920000
168.120000 188.110000 -25.920000
169.680000 186.210000 -25.920000
171.430000 184.490000 -25.920000
173.330000 182.920000 -25.920000
175.330000 181.500000 -25.920000
177.400000 180.160000 -25.920000
179.510000 178.900000 -25.920000
181.710000 177.800000 -25.920000
184.020000 176.950000 -25.920000
186.440000 176.520000 -25.920000
188.890000 176.330000 -25.920000
191.340000 176.180000 -25.920000
193.800000 176.060000 -25.920000
196.260000 175.970000 -25.920000
198.720000 175.920000 -25.920000
201.170000 175.960000 -25.920000
203.550000 176.600000 -25.920000
205.740000 177.720000 -25.920000
207.790000 179.070000 -25.920000
209.800000 180.490000 -25.920000
211.860000 181.830000 -25.920000
213.980000 183.090000 -25.920000
216.070000 184.380000 -25.920000
218.070000 185.810000 -25.920000
219.880000 187.470000 -25.920000
221.250000 189.520000 -25.920000
222.290000 191.740000 -25.920000
223.180000 194.040000 -25.920000
223.910000 196.380000 -25.920000
224.460000 198.780000 -25.920000
224.770000 201.220000 -25.920000
224.790000 203.680000 -25.920000
224.580000 206.130000 -25.920000
224.220000 208.560000 -25.920000
223.750000 210.980000 -25.920000
223.210000 213.380000 -25.920000
222.580000 215.750000 -25.920000
221.720000 218.060000 -25.920000
220.670000 220.280000 -25.920000
219.490000 222.440000 -25.920000
218.180000 224.520000 -25.920000
216.780000 226.540000 -25.920000
215.300000 228.500000 -25.920000
213.690000 230.370000 -25.920000
211.940000 232.100000 -25.920000
210.010000 233.610000 -25.920000
207.840000 234.770000 -25.920000
205.530000 235.610000 -25.920000
203.180000 236.340000 -25.920000
200.800000 236.950000 -25.920000
198.380000 237.430000 -25.920000
196.070000 241.260000 -17.280000
196.070000 241.260000 -17.280000
193.330000 242.060000 -17.280000
190.490000 242.160000 -17.280000
187.740000 241.400000 -17.280000
185.030000 240.540000 -17.280000
182.320000 239.660000 -17.280000
179.560000 238.950000 -17.280000
176.950000 237.810000 -17.280000
174.350000 236.660000 -17.280000
172.170000 234.820000 -17.280000
170.510000 232.500000 -17.280000
168.970000 230.110000 -17.280000
166.660000 228.450000 -17.280000
165.260000 225.970000 -17.280000
164.000000 223.420000 -17.280000
162.900000 220.790000 -17.280000
161.840000 218.150000 -17.280000
160.780000 215.500000 -17.280000
159.920000 212.790000 -17.280000
159.180000 210.040000 -17.280000
158.550000 207.260000 -17.280000
158.090000 204.450000 -17.280000
158.110000 201.610000 -17.280000
158.280000 198.760000 -17.280000
158.940000 195.990000 -17.280000
160.060000 193.380000 -17.280000
161.290000 190.810000 -17.280000
162.740000 188.350000 -17.280000
164.440000 186.070000 -17.280000
166.450000 184.050000 -17.280000
168.480000 182.060000 -17.280000
170.630000 180.200000 -17.280000
172.950000 178.540000 -17.280000
175.480000 177.220000 -17.280000
178.080000 176.070000 -17.280000
180.760000 175.120000 -17.280000
183.440000 174.160000 -17.280000
186.130000 173.220000 -17.280000
188.880000 172.470000 -17.280000
191.660000 171.850000 -17.280000
194.450000 171.300000 -17.280000
197.280000 171.000000 -17.280000
200.110000 171.380000 -17.280000
202.870000 172.070000 -17.280000
205.520000 173.110000 -17.280000
207.840000 174.760000 -17.280000
210.520000 175.720000 -17.280000
213.310000 176.310000 -17.280000
215.900000 177.490000 -17.280000
218.220000 179.150000 -17.280000
220.460000 180.900000 -17.280000
222.310000 183.070000 -17.280000
224.120000 185.260000 -17.280000
225.870000 187.510000 -17.280000
227.370000 189.930000 -17.280000
228.660000 192.470000 -17.280000
229.690000 195.130000 -17.280000
230.280000 197.910000 -17.280000
230.660000 200.730000 -17.280000
230.820000 203.580000 -17.280000
230.790000 206.420000 -17.280000
230.550000 209.260000 -17.280000
229.960000 212.050000 -17.280000
229.140000 214.780000 -17.280000
228.250000 217.480000 -17.280000
227.380000 220.190000 -17.280000
226.570000 222.920000 -17.280000
225.360000 225.500000 -17.280000
224.080000 228.040000 -17.280000
221.790000 229.740000 -17.280000
219.250000 231.010000 -17.280000
216.670000 232.240000 -17.280000
214.200000 233.640000 -17.280000
211.610000 234.840000 -17.280000
208.990000 235.940000 -17.280000
206.490000 237.320000 -17.280000
203.930000 238.550000 -17.280000
201.270000 239.570000 -17.280000
198.530000 240.360000 -17.280000
197.340000 241.440000 -8.640000
197.340000 241.440000 -8.640000
194.420000 241.440000 -8.640000
191.500000 241.440000 -8.640000
188.580000 241.440000 -8.640000
185.670000 241.110000 -8.640000
182.910000 240.160000 -8.640000
180.360000 238.740000 -8.640000
177.730000 237.450000 -8.640000
175.170000 236.040000 -8.640000
172.650000 234.580000 -8.640000
170.180000 233.010000 -8.640000
167.810000 231.300000 -8.640000
165.850000 229.130000 -8.640000
164.010000 226.860000 -8.640000
162.210000 224.560000 -8.640000
161.050000 221.880000 -8.640000
159.860000 219.210000 -8.640000
158.830000 216.480000 -8.640000
158.240000 213.620000 -8.640000
157.800000 210.730000 -8.640000
157.360000 207.840000 -8.640000
156.950000 204.950000 -8.640000
157.210000 202.030000 -8.640000
157.660000 199.150000 -8.640000
158.220000 196.280000 -8.640000
159.490000 193.650000 -8.640000
160.920000 191.100000 -8.640000
162.670000 188.760000 -8.640000
164.380000 186.390000 -8.640000
166.170000 184.080000 -8.640000
167.970000 181.780000 -8.640000
169.860000 179.550000 -8.640000
172.230000 177.850000 -8.640000
174.820000 176.490000 -8.640000
177.380000 175.090000 -8.640000
180.070000 173.950000 -8.640000
182.790000 172.880000 -8.640000
185.500000 171.780000 -8.640000
188.290000 170.900000 -8.640000
191.190000 170.530000 -8.640000
194.100000 170.640000 -8.640000
197.010000 170.970000 -8.640000
199.930000 171.080000 -8.640000
202.570000 172.330000 -8.640000
205.320000 173.320000 -8.640000
208.040000 174.400000 -8.640000
210.630000 175.750000 -8.640000
213.370000 176.760000 -8.640000
215.900000 178.220000 -8.640000
218.290000 179.900000 -8.640000
220.760000 181.470000 -8.640000
223.350000 182.800000 -8.640000
225.840000 184.340000 -8.640000
227.950000 186.360000 -8.640000
229.640000 188.740000 -8.640000
230.850000 191.400000 -8.640000
231.440000 194.260000 -8.640000
231.450000 197.190000 -8.640000
231.450000 200.110000 -8.640000
231.450000 203.030000 -8.640000
231.450000 205.950000 -8.640000
231.450000 208.870000 -8.640000
231.250000 211.790000 -8.640000
230.890000 214.690000 -8.640000
230.260000 217.540000 -8.640000
229.380000 220.330000 -8.640000
228.250000 223.020000 -8.640000
227.170000 225.740000 -8.640000
225.550000 228.170000 -8.640000
223.710000 230.440000 -8.640000
221.390000 232.210000 -8.640000
219.160000 234.100000 -8.640000
216.750000 235.740000 -8.640000
214.270000 237.290000 -8.640000
211.600000 238.480000 -8.640000
208.770000 239.200000 -8.640000
206.020000 240.190000 -8.640000
203.120000 240.540000 -8.640000
200.230000 240.970000 -8.640000
196.970000 242.680000 0.000000
196.970000 242.680000 0.000000
194.020000 242.460000 0.000000
191.100000 241.920000 0.000000
188.230000 241.230000 0.000000
185.360000 240.500000 0.000000
182.480000 239.790000 0.000000
179.620000 239.020000 0.000000
176.790000 238.160000 0.000000
174.010000 237.150000 0.000000
171.310000 235.940000 0.000000
168.790000 234.380000 0.000000
166.660000 232.320000 0.000000
164.870000 229.960000 0.000000
163.330000 227.430000 0.000000
162.000000 224.790000 0.000000
160.860000 222.060000 0.000000
159.810000 219.290000 0.000000
158.840000 216.490000 0.000000
158.040000 213.640000 0.000000
157.500000 210.730000 0.000000
157.350000 207.780000 0.000000
157.570000 204.820000 0.000000
158.060000 201.900000 0.000000
158.740000 199.020000 0.000000
159.570000 196.180000 0.000000
160.510000 193.370000 0.000000
161.540000 190.600000 0.000000
162.840000 187.930000 0.000000
164.400000 185.420000 0.000000
166.170000 183.050000 0.000000
168.140000 180.840000 0.000000
170.310000 178.830000 0.000000
172.590000 176.930000 0.000000
174.970000 175.180000 0.000000
177.530000 173.680000 0.000000
180.290000 172.620000 0.000000
183.230000 172.280000 0.000000
186.190000 172.210000 0.000000
189.150000 172.150000 0.000000
192.110000 172.110000 0.000000
195.070000 172.080000 0.000000
198.030000 172.070000 0.000000
200.990000 172.110000 0.000000
203.940000 172.420000 0.000000
206.850000 172.980000 0.000000
209.710000 173.720000 0.000000
212.550000 174.580000 0.000000
215.330000 175.570000 0.000000
218.010000 176.840000 0.000000
220.560000 178.350000 0.000000
222.950000 180.100000 0.000000
225.140000 182.090000 0.000000
227.000000 184.390000 0.000000
228.620000 186.870000 0.000000
230.070000 189.450000 0.000000
231.330000 192.130000 0.000000
232.350000 194.910000 0.000000
233.060000 197.780000 0.000000
233.350000 200.730000 0.000000
233.320000 203.690000 0.000000
233.230000 206.650000 0.000000
233.100000 209.600000 0.000000
232.910000 212.560000 0.000000
232.650000 215.510000 0.000000
231.910000 218.370000 0.000000
230.580000 221.020000 0.000000
228.930000 223.480000 0.000000
227.090000 225.800000 0.000000
225.160000 228.040000 0.000000
223.120000 230.190000 0.000000
220.940000 232.200000 0.000000
218.640000 234.060000 0.000000
216.220000 235.770000 0.000000
213.680000 237.290000 0.000000
211.020000 238.590000 0.000000
208.300000 239.750000 0.000000
205.550000 240.840000 0.000000
202.740000 241.770000 0.000000
199.850000 242.430000 0.000000
3 0 80 2
3 0 2 3
3 0 3 4
3 0 4 5
3 0 5 6
3 0 6 7
3 0 7 8
3 0 8 9
3 0 9 10
3 0 10 11
3 0 11 12
3 0 12 13
3 0 13 14
3 0 14 15
3 0 15 16
3 0 16 17
3 0 17 18
3 0 18 19
3 0 19 20
3 0 20 21
3 0 21 22
3 0 22 23
3 0 23 24
3 0 24 25
3 0 25 26
3 0 26 27
3 0 27 28
3 0 28 29
3 0 29 30
3 0 30 31
3 0 31 32
3 0 32 33
3 0 33 34
3 0 34 35
3 0 35 36
3 0 36 37
3 0 37 38
3 0 38 39
3 0 39 40
3 0 40 41
3 0 41 42
3 0 42 43
3 0 43 44
3 0 44 45
3 0 45 46
3 0 46 47
3 0 47 48
3 0 48 49
3 0 49 50
3 0 50 51
3 0 51 52
3 0 52 53
3 0 53 54
3 0 54 55
3 0 55 56
3 0 56 57
3 0 57 58
3 0 58 59
3 0 59 60
3 0 60 61
3 0 61 62
3 0 62 63
3 0 63 64
3 0 64 65
3 0 65 66
3 0 66 67
3 0 67 68
3 0 68 69
3 0 69 70
3 0 70 71
3 0 71 72
3 0 72 73
3 0 73 74
3 0 74 75
3 0 75 76
3 0 76 77
3 0 77 78
3 0 78 79
3 0 79 80
3 80 81 2
3 2 81 83
3 2 83 3
3 3 83 84
3 3 84 4
3 4 84 85
3 4 85 5
3 5 85 86
3 5 86 6
3 6 86 87
3 6 87 7
3 7 87 88
3 7 88 8
3 8 88 89
3 8 89 9
3 9 89 90
3 9 90 10
3 10 90 91
3 10 91 11
3 11 91 92
3 11 92 12
3 12 92 93
3 12 93 13
3 13 93 94
3 13 94 14
3 14 94 95
3 14 95 15
3 15 95 96
3 15 96 16
3 16 96 97
3 16 97 17
3 17 97 98
3 17 98 18
3 18 98 99
3 18 99 19
3 19 99 100
3 19 100 20
3 20 100 101
3 20 101 21
3 21 101 102
3 21 102 22
3 22 102 103
3 22 103 23
3 23 103 104
3 23 104 24
3 24 104 105
3 24 105 25
3 25 105 106
3 25 106 26
3 26 106 107
3 26 107 27
3 27 107 108
3 27 108 28
3 28 108 109
3 28 109 29
3 29 109 110
3 29 110 30
3 30 110 111
3 30 111 31
3 31 111 112
3 31 112 32
3 32 112 113
3 32 113 33
3 33 113 114
3 33 114 34
3 34 114 115
3 34 115 35
3 35 115 116
3 35 116 36
3 36 116 117
3 36 117 37
3 37 117 118
3 37 118 38
3 38 118 119
3 38 119 39
3 39 119 120
3 39 120 40
3 40 120 121
3 40 121 41
3 41 121 122
3 41 122 42
3 42 122 123
3 42 123 43
3 43 123 124
3 43 124 44
3 44 124 125
3 44 125 45
3 45 125 126
3 45 126 46
3 46 126 127
3 46 127 47
3 47 127 128
3 47 128 48
3 48 128 129
3 48 129 49
3 49 129 130
3 49 130 50
3 50 130 131
3 50 131 51
3 51 131 132
3 51 132 52
3 52 132 133
3 52 133 53
3 53 133 134
3 53 134 54
3 54 134 135
3 54 135 55
3 55 135 136
3 55 136 56
3 56 136 137
3 56 137 57
3 57 137 138
3 57 138 58
3 58 138 139
3 58 139 59
3 59 139 140
3 59 140 60
3 60 140 141
3 60 141 61
3 61 141 142
3 61 142 62
3 62 142 143
3 62 143 63
3 63 143 144
3 63 144 64
3 64 144 145
3 64 145 65
3 65 145 146
3 65 146 66
3 66 146 147
3 66 147 67
3 67 147 148
3 67 148 68
3 68 148 149
3 68 149 69
3 69 149 150
3 69 150 70
3 70 150 151
3 70 151 71
3 71 151 152
3 71 152 72
3 72 152 153
3 72 153 73
3 73 153 154
3 73 154 74
3 74 154 155
3 74 155 75
3 75 155 156
3 75 156 76
3 76 156 157
3 76 157 77
3 77 157 158
3 77 158 78
3 78 158 159
3 78 159 79
3 79 159 160
3 79 160 80
3 80 160 81
3 81 161 163
3 81 163 83
3 83 163 164
3 83 164 84
3 84 164 165
3 84 165 85
3 85 165 166
3 85 166 86
3 86 166 167
3 86 167 87
3 87 167 168
3 87 168 88
3 88 168 169
3 88 169 89
3 89 169 170
3 89 170 90
3 90 170 171
3 90 171 91
3 91 171 172
3 91 172 92
3 92 172 173
3 92 173 93
3 93 173 174
3 93 174 94
3 94 174 175
3 94 175 95
3 95 175 176
3 95 176 96
3 96 176 177
3 96 177 97
3 97 177 178
3 97 178 98
3 98 178 179
3 98 179 99
3 99 179 180
3 99 180 100
3 100 180 181
3 100 181 101
3 101 181 182
3 101 182 102
3 102 182 183
3 102 183 103
3 103 183 184
3 103 184 104
3 104 184 185
3 104 185 105
3 105 185 186
3 105 186 106
3 106 186 187
3 106 187 107
3 107 187 188
3 107 188 108
3 108 188 189
3 108 189 109
3 109 189 190
3 109 190 110
3 110 190 191
3 110 191 111
3 111 191 192
3 111 192 112
3 112 192 193
3 112 193 113
3 113 193 194
3 113 194 114
3 114 194 195
3 114 195 115
3 115 195 196
3 115 196 116
3 116 196 197
3 116 197 117
3 117 197 198
3 117 198 118
3 118 198 199
3 118 199 119
3 119 199 200
3 119 200 120
3 120 200 201
3 120 201 121
3 121 201 202
3 121 202 122
3 122 202 203
3 122 203 123
3 123 203 204
3 123 204 124
3 124 204 205
3 124 205 125
3 125 205 206
3 125 206 126
3 126 206 207
3 126 207 127
3 127 207 208
3 127 208 128
3 128 208 209
3 128 209 129
3 129 209 210
3 129 210 130
3 130 210 211
3 130 211 131
3 131 211 212
3 131 212 132
3 132 212 213
3 132 213 133
3 133 213 214
3 133 214 134
3 134 214 215
3 134 215 135
3 135 215 216
3 135 216 136
3 136 216 217
3 136 217 137
3 137 217 218
3 137 218 138
3 138 218 219
3 138 219 139
3 139 219 220
3 139 220 140
3 140 220 221
3 140 221 141
3 141 221 222
3 141 222 142
3 142 222 223
3 142 223 143
3 143 223 224
3 143 224 144
3 144 224 225
3 144 225 145
3 145 225 226
3 145 226 146
3 146 226 227
3 146 227 147
3 147 227 228
3 147 228 148
3 148 228 229
3 148 229 149
3 149 229 230
3 149 230 150
3 150 230 231
3 150 231 151
3 151 231 232
3 151 232 152
3 152 232 233
3 152 233 153
3 153 233 234
3 153 234 154
3 154 234 235
3 154 235 155
3 155 235 236
3 155 236 156
3 156 236 237
3 156 237 157
3 157 237 238
3 157 238 158
3 158 238 239
3 158 239 159
3 159 239 240
3 159 240 160
3 160 240 161
3 160 161 81
3 161 241 243
3 161 243 163
3 163 243 244
3 163 244 164
3 164 244 245
3 164 245 165
3 165 245 246
3 165 246 166
3 166 246 247
3 166 247 167
3 167 247 248
3 167 248 168
3 168 248 249
3 168 249 169
3 169 249 250
3 169 250 170
3 170 250 251
3 170 251 171
3 171 251 252
3 171 252 172
3 172 252 253
3 172 253 173
3 173 253 254
3 173 254 174
3 174 254 255
3 174 255 175
3 175 255 256
3 175 256 176
3 176 256 257
3 176 257 177
3 177 257 258
3 177 258 178
3 178 258 259
3 178 259 179
3 179 259 260
3 179 260 180
3 180 260 261
3 180 261 181
3 181 261 262
3 181 262 182
3 182 262 263
3 182 263 183
3 183 263 264
3 183 264 184
3 184 264 265
3 184 265 185
3 185 265 266
3 185 266 186
3 186 266 267
3 186 267 187
3 187 267 268
3 187 268 188
3 188 268 269
3 188 269 189
3 189 269 270
3 189 270 190
3 190 270 271
3 190 271 191
3 191 271 272
3 191 272 192
3 192 272 273
3 192 273 193
3 193 273 274
3 193 274 194
3 194 274 275
3 194 275 195
3 195 275 276
3 195 276 196
3 196 276 277
3 196 277 197
3 197 277 278
3 197 278 198
3 198 278 279
3 198 279 199
3 199 279 280
3 199 280 200
3 200 280 281
3 200 281 201
3 201 281 282
3 201 282 202
3 202 282 283
3 202 283 203
3 203 283 284
3 203 284 204
3 204 284 285
3 204 285 205
3 205 285 286
3 205 286 206
3 206 286 287
3 206 287 207
3 207 287 288
3 207 288 208
3 208 288 289
3 208 289 209
3 209 289 290
3 209 290 210
3 210 290 291
3 210 291 211
3 211 291 292
3 211 292 212
3 212 292 293
3 212 293 213
3 213 293 294
3 213 294 214
3 214 294 295
3 214 295 215
3 215 295 296
3 215 296 216
3 216 296 297
3 216 297 217
3 217 297 298
3 217 298 218
3 218 298 299
3 218 299 219
3 219 299 300
3 219 300 220
3 220 300 301
3 220 301 221
3 221 301 302
3 221 302 222
3 222 302 303
3 222 303 223
3 223 303 304
3 223 304 224
3 224 304 305
3 224 305 225
3 225 305 306
3 225 306 226
3 226 306 307
3 226 307 227
3 227 307 308
3 227 308 228
3 228 308 309
3 228 309 229
3 229 309 310
3 229 310 230
3 230 310 311
3 230 311 231
3 231 311 312
3 231 312 232
3 232 312 313
3 232 313 233
3 233 313 314
3 233 314 234
3 234 314 315
3 234 315 235
3 235 315 316
3 235 316 236
3 236 316 317
3 236 317 237
3 237 317 318
3 237 318 238
3 238 318 319
3 238 319 239
3 239 319 320
3 239 320 240
3 240 320 241
3 240 241 161
3 241 321 323
3 241 323 243
3 243 323 324
3 243 324 244
3 244 324 325
3 244 325 245
3 245 325 326
3 245 326 246
3 246 326 327
3 246 327 247
3 247 327 328
3 247 328 248
3 248 328 329
3 248 329 249
3 249 329 330
3 249 330 250
3 250 330 331
3 250 331 251
3 251 331 332
3 251 332 252
3 252 332 333
3 252 333 253
3 253 333 334
3 253 334 254
3 254 334 335
3 254 335 255
3 255 335 336
3 255 336 256
3 256 336 337
3 256 337 257
3 257 337 338
3 257 338 258
3 258 338 339
3 258 339 259
3 259 339 340
3 259 340 260
3 260 340 341
3 260 341 261
3 261 341 342
3 261 342 262
3 262 342 343
3 262 343 263
3 263 343 344
3 263 344 264
3 264 344 345
3 264 345 265
3 265 345 346
3 265 346 266
3 266 346 347
3 266 347 267
3 267 347 348
3 267 348 268
3 268 348 349
3 268 349 269
3 269 349 350
3 269 350 270
3 270 350 351
3 270 351 271
3 271 351 352
3 271 352 272
3 272 352 353
3 272 353 273
3 273 353 354
3 273 354 274
3 274 354 355
3 274 355 275
3 275 355 356
3 275 356 276
3 276 356 357
3 276 357 277
3 277 357 358
3 277 358 278
3 278 358 359
3 278 359 279
3 279 359 360
3 279 360 280
3 280 360 361
3 280 361 281
3 281 361 362
3 281 362 282
3 282 362 363
3 282 363 283
3 283 363 364
3 283 364 284
3 284 364 365
3 284 365 285
3 285 365 366
3 285 366 286
3 286 366 367
3 286 367 287
3 287 367 368
3 287 368 288
3 288 368 369
3 288 369 289
3 289 369 370
3 289 370 290
3 290 370 371
3 290 371 291
3 291 371 372
3 291 372 292
3 292 372 373
3 292 373 293
3 293 373 374
3 293 374 294
3 294 374 375
3 294 375 295
3 295 375 376
3 295 376 296
3 296 376 377
3 296 377 297
3 297 377 378
3 297 378 298
3 298 378 379
3 298 379 299
3 299 379 380
3 299 380 300
3 300 380 381
3 300 381 301
3 301 381 382
3 301 382 302
3 302 382 383
3 302 383 303
3 303 383 384
3 303 384 304
3 304 384 385
3 304 385 305
3 305 385 386
3 305 386 306
3 306 386 387
3 306 387 307
3 307 387 388
3 307 388 308
3 308 388 389
3 308 389 309
3 309 389 390
3 309 390 310
3 310 390 391
3 310 391 311
3 311 391 392
3 311 392 312
3 312 392 393
3 312 393 313
3 313 393 394
3 313 394 314
3 314 394 395
3 314 395 315
3 315 395 396
3 315 396 316
3 316 396 397
3 316 397 317
3 317 397 398
3 317 398 318
3 318 398 399
3 318 399 319
3 319 399 400
3 319 400 320
3 320 400 321
3 320 321 241
3 321 401 403
3 321 403 323
3 323 403 404
3 323 404 324
3 324 404 405
3 324 405 325
3 325 405 406
3 325 406 326
3 326 406 407
3 326 407 327
3 327 407 408
3 327 408 328
3 328 408 409
3 328 409 329
3 329 409 410
3 329 410 330
3 330 410 411
3 330 411 331
3 331 411 412
3 331 412 332
3 332 412 413
3 332 413 333
3 333 413 414
3 333 414 334
3 334 414 415
3 334 415 335
3 335 415 416
3 335 416 336
3 336 416 417
3 336 417 337
3 337 417 418
3 337 418 338
3 338 418 419
3 338 419 339
3 339 419 420
3 339 420 340
3 340 420 421
3 340 421 341
3 341 421 422
3 341 422 342
3 342 422 423
3 342 423 343
3 343 423 424
3 343 424 344
3 344 424 425
3 344 425 345
3 345 425 426
3 345 426 346
3 346 426 427
3 346 427 347
3 347 427 428
3 347 428 348
3 348 428 429
3 348 429 349
3 349 429 430
3 349 430 350
3 350 430 431
3 350 431 351
3 351 431 432
3 351 432 352
3 352 432 433
3 352 433 353
3 353 433 434
3 353 434 354
3 354 434 435
3 354 435 355
3 355 435 436
3 355 436 356
3 356 436 437
3 356 437 357
3 357 437 438
3 357 438 358
3 358 438 439
3 358 439 359
3 359 439 440
3 359 440 360
3 360 440 441
3 360 441 361
3 361 441 442
3 361 442 362
3 362 442 443
3 362 443 363
3 363 443 444
3 363 444 364
3 364 444 445
3 364 445 365
3 365 445 446
3 365 446 366
3 366 446 447
3 366 447 367
3 367 447 448
3 367 448 368
3 368 448 449
3 368 449 369
3 369 449 450
3 369 450 370
3 370 450 451
3 370 451 371
3 371 451 452
3 371 452 372
3 372 452 453
3 372 453 373
3 373 453 454
3 373 454 374
3 374 454 455
3 374 455 375
3 375 455 456
3 375 456 376
3 376 456 457
3 376 457 377
3 377 457 458
3 377 458 378
3 378 458 459
3 378 459 379
3 379 459 460
3 379 460 380
3 380 460 461
3 380 461 381
3 381 461 462
3 381 462 382
3 382 462 463
3 382 463 383
3 383 463 464
3 383 464 384
3 384 464 465
3 384 465 385
3 385 465 466
3 385 466 386
3 386 466 467
3 386 467 387
3 387 467 468
3 387 468 388
3 388 468 469
3 388 469 389
3 389 469 470
3 389 470 390
3 390 470 471
3 390 471 391
3 391 471 472
3 391 472 392
3 392 472 473
3 392 473 393
3 393 473 474
3 393 474 394
3 394 474 475
3 394 475 395
3 395 475 476
3 395 476 396
3 396 476 477
3 396 477 397
3 397 477 478
3 397 478 398
3 398 478 479
3 398 479 399
3 399 479 480
3 399 480 400
3 400 480 401
3 400 401 321
3 401 481 483
3 401 483 403
3 403 483 484
3 403 484 404
3 404 484 485
3 404 485 405
3 405 485 486
3 405 486 406
3 406 486 487
3 406 487 407
3 407 487 488
3 407 488 408
3 408 488 489
3 408 489 409
3 409 489 490
3 409 490 410
3 410 490 491
3 410 491 411
3 411 491 492
3 411 492 412
3 412 492 493
3 412 493 413
3 413 493 494
3 413 494 414
3 414 494 495
3 414 495 415
3 415 495 496
3 415 496 416
3 416 496 497
3 416 497 417
3 417 497 498
3 417 498 418
3 418 498 499
3 418 499 419
3 419 499 500
3 419 500 420
3 420 500 501
3 420 501 421
3 421 501 502
3 421 502 422
3 422 502 503
3 422 503 423
3 423 503 504
3 423 504 424
3 424 504 505
3 424 505 425
3 425 505 506
3 425 506 426
3 426 506 507
3 426 507 427
3 427 507 508
3 427 508 428
3 428 508 509
3 428 509 429
3 429 509 510
3 429 510 430
3 430 510 511
3 430 511 431
3 431 511 512
3 431 512 432
3 432 512 513
3 432 513 433
3 433 513 514
3 433 514 434
3 434 514 515
3 434 515 435
3 435 515 516
3 435 516 436
3 436 516 517
3 436 517 437
3 437 517 518
3 437 518 438
3 438 518 519
3 438 519 439
3 439 519 520
3 439 520 440
3 440 520 521
3 440 521 441
3 441 521 522
3 441 522 442
3 442 522 523
3 442 523 443
3 443 523 524
3 443 524 444
3 444 524 525
3 444 525 445
3 445 525 526
3 445 526 446
3 446 526 527
3 446 527 447
3 447 527 528
3 447 528 448
3 448 528 529
3 448 529 449
3 449 529 530
3 449 530 450
3 450 530 531
3 450 531 451
3 451 531 532
3 451 532 452
3 452 532 533
3 452 533 453
3 453 533 534
3 453 534 454
3 454 534 535
3 454 535 455
3 455 535 536
3 455 536 456
3 456 536 537
3 456 537 457
3 457 537 538
3 457 538 458
3 458 538 539
3 458 539 459
3 459 539 540
3 459 540 460
3 460 540 541
3 460 541 461
3 461 541 542
3 461 542 462
3 462 542 543
3 462 543 463
3 463 543 544
3 463 544 464
3 464 544 545
3 464 545 465
3 465 545 546
3 465 546 466
3 466 546 547
3 466 547 467
3 467 547 548
3 467 548 468
3 468 548 549
3 468 549 469
3 469 549 550
3 469 550 470
3 470 550 551
3 470 551 471
3 471 551 552
3 471 552 472
3 472 552 553
3 472 553 473
3 473 553 554
3 473 554 474
3 474 554 555
3 474 555 475
3 475 555 556
3 475 556 476
3 476 556 557
3 476 557 477
3 477 557 558
3 477 558 478
3 478 558 559
3 478 559 479
3 479 559 560
3 479 560 480
3 480 560 481
3 480 481 401
