ply 
format ascii 1.0 
comment this is a surface 
element vertex 801 
property float x 
property float y 
property float z 
element face 1482 
property list uchar int vertex_index 
end_header 
199.834250 191.966375 -77.760000
202.410000 213.020000 -77.760000
200.680000 212.840000 -77.760000
199.010000 212.560000 -77.760000
197.380000 212.200000 -77.760000
195.810000 211.780000 -77.760000
194.300000 211.300000 -77.760000
192.850000 210.790000 -77.760000
191.450000 210.250000 -77.760000
190.010000 209.520000 -77.760000
188.560000 208.580000 -77.760000
187.150000 207.470000 -77.760000
185.860000 206.250000 -77.760000
184.730000 204.960000 -77.760000
183.840000 203.650000 -77.760000
183.220000 202.330000 -77.760000
182.680000 200.910000 -77.760000
182.180000 199.370000 -77.760000
181.730000 197.740000 -77.760000
181.350000 196.070000 -77.760000
181.050000 194.370000 -77.760000
180.860000 192.680000 -77.760000
180.790000 191.040000 -77.760000
180.840000 189.390000 -77.760000
180.990000 187.670000 -77.760000
181.220000 185.910000 -77.760000
181.540000 184.160000 -77.760000
181.910000 182.460000 -77.760000
182.340000 180.860000 -77.760000
182.810000 179.400000 -77.760000
183.310000 178.110000 -77.760000
183.940000 176.950000 -77.760000
184.870000 175.750000 -77.760000
186.060000 174.550000 -77.760000
187.450000 173.410000 -77.760000
189.000000 172.360000 -77.760000
190.640000 171.450000 -77.760000
192.310000 170.720000 -77.760000
193.980000 170.230000 -77.760000
195.570000 170.010000 -77.760000
197.130000 170.010000 -77.760000
198.810000 170.060000 -77.760000
200.540000 170.140000 -77.760000
202.230000 170.240000 -77.760000
203.820000 170.360000 -77.760000
205.260000 170.540000 -77.760000
206.740000 170.970000 -77.760000
208.280000 171.690000 -77.760000
209.820000 172.640000 -77.760000
211.320000 173.780000 -77.760000
212.740000 175.070000 -77.760000
214.030000 176.460000 -77.760000
215.160000 177.930000 -77.760000
216.070000 179.410000 -77.760000
216.720000 180.880000 -77.760000
217.070000 182.290000 -77.760000
217.200000 183.690000 -77.760000
217.320000 185.200000 -77.760000
217.430000 186.800000 -77.760000
217.520000 188.470000 -77.760000
217.600000 190.190000 -77.760000
217.660000 191.920000 -77.760000
217.710000 193.640000 -77.760000
217.740000 195.340000 -77.760000
217.740000 196.970000 -77.760000
217.650000 198.650000 -77.760000
217.390000 200.400000 -77.760000
216.990000 202.150000 -77.760000
216.490000 203.830000 -77.760000
215.920000 205.380000 -77.760000
215.290000 206.720000 -77.760000
214.610000 207.810000 -77.760000
213.710000 208.820000 -77.760000
212.570000 209.770000 -77.760000
211.220000 210.640000 -77.760000
209.670000 211.430000 -77.760000
207.970000 212.110000 -77.760000
206.130000 212.660000 -77.760000
204.190000 213.080000 -77.760000
204.190000 213.080000 -77.760000
202.410000 213.020000 -77.760000
198.770000 222.030000 -69.120000
195.870000 221.500000 -69.120000
193.100000 220.840000 -69.120000
190.510000 220.040000 -69.120000
188.050000 218.690000 -69.120000
185.720000 216.870000 -69.120000
183.510000 214.780000 -69.120000
183.510000 214.780000 -69.120000
182.350000 212.150000 -69.120000
181.200000 209.510000 -69.120000
180.050000 206.880000 -69.120000
178.900000 204.240000 -69.120000
177.660000 201.620000 -69.120000
176.510000 198.980000 -69.120000
175.750000 196.240000 -69.120000
175.200000 193.420000 -69.120000
174.750000 190.560000 -69.120000
174.330000 187.710000 -69.120000
173.920000 184.860000 -69.120000
173.570000 182.000000 -69.120000
173.370000 179.140000 -69.120000
173.280000 176.240000 -69.120000
173.220000 173.350000 -69.120000
173.310000 170.570000 -69.120000
174.110000 167.870000 -69.120000
175.420000 165.230000 -69.120000
176.890000 162.620000 -69.120000
178.200000 160.000000 -69.120000
179.400000 157.200000 -69.120000
180.840000 154.860000 -69.120000
182.900000 153.340000 -69.120000
185.610000 152.190000 -69.120000
188.570000 151.170000 -69.120000
191.420000 150.070000 -69.120000
193.780000 148.670000 -69.120000
195.510000 146.260000 -69.120000
196.950000 143.080000 -69.120000
198.420000 140.350000 -69.120000
200.240000 139.300000 -69.120000
202.800000 139.520000 -69.120000
205.880000 140.050000 -69.120000
208.930000 140.820000 -69.120000
211.440000 141.770000 -69.120000
213.420000 143.700000 -69.120000
215.220000 146.210000 -69.120000
217.040000 148.480000 -69.120000
218.790000 150.790000 -69.120000
220.540000 153.090000 -69.120000
222.380000 155.280000 -69.120000
224.520000 157.250000 -69.120000
227.110000 158.990000 -69.120000
229.390000 160.790000 -69.120000
230.660000 162.920000 -69.120000
231.530000 165.480000 -69.120000
232.280000 168.340000 -69.120000
232.840000 171.340000 -69.120000
233.170000 174.330000 -69.120000
233.220000 177.190000 -69.120000
232.840000 179.990000 -69.120000
232.120000 182.790000 -69.120000
231.210000 185.580000 -69.120000
230.280000 188.350000 -69.120000
229.420000 191.100000 -69.120000
228.520000 193.820000 -69.120000
227.550000 196.530000 -69.120000
226.520000 199.230000 -69.120000
225.450000 201.910000 -69.120000
224.360000 204.570000 -69.120000
223.250000 207.230000 -69.120000
222.130000 209.940000 -69.120000
220.890000 212.530000 -69.120000
219.350000 214.890000 -69.120000
217.460000 217.300000 -69.120000
215.300000 219.480000 -69.120000
212.950000 221.030000 -69.120000
210.420000 221.770000 -69.120000
207.520000 222.280000 -69.120000
207.520000 222.280000 -69.120000
204.580000 222.500000 -69.120000
201.690000 222.380000 -69.120000
199.740000 227.820000 -60.480000
196.330000 227.950000 -60.480000
192.820000 227.740000 -60.480000
189.290000 227.270000 -60.480000
185.900000 226.630000 -60.480000
182.740000 225.750000 -60.480000
179.640000 224.010000 -60.480000
176.830000 221.670000 -60.480000
174.610000 219.200000 -60.480000
172.810000 216.330000 -60.480000
171.260000 213.120000 -60.480000
169.930000 209.820000 -60.480000
168.730000 206.590000 -60.480000
167.630000 203.280000 -60.480000
166.740000 199.920000 -60.480000
166.140000 196.530000 -60.480000
165.740000 193.080000 -60.480000
165.270000 189.650000 -60.480000
164.440000 186.230000 -60.480000
163.410000 182.810000 -60.480000
162.470000 179.430000 -60.480000
161.880000 176.100000 -60.480000
162.030000 172.830000 -60.480000
163.360000 169.540000 -60.480000
165.300000 166.470000 -60.480000
167.480000 163.840000 -60.480000
170.300000 161.760000 -60.480000
173.640000 160.140000 -60.480000
176.340000 158.330000 -60.480000
177.850000 155.620000 -60.480000
178.900000 152.140000 -60.480000
179.830000 148.430000 -60.480000
180.970000 145.060000 -60.480000
182.730000 142.530000 -60.480000
185.640000 140.630000 -60.480000
188.780000 138.800000 -60.480000
191.590000 136.470000 -60.480000
194.360000 133.910000 -60.480000
197.200000 131.870000 -60.480000
200.220000 131.120000 -60.480000
203.620000 131.420000 -60.480000
207.150000 132.100000 -60.480000
210.350000 133.040000 -60.480000
213.280000 134.800000 -60.480000
216.100000 137.020000 -60.480000
218.930000 139.130000 -60.480000
221.970000 141.010000 -60.480000
224.910000 142.970000 -60.480000
227.230000 145.260000 -60.480000
228.970000 148.150000 -60.480000
230.450000 151.400000 -60.480000
231.930000 154.600000 -60.480000
233.740000 157.720000 -60.480000
234.990000 160.920000 -60.480000
235.040000 164.260000 -60.480000
234.920000 167.740000 -60.480000
234.730000 171.240000 -60.480000
234.450000 174.690000 -60.480000
233.730000 178.070000 -60.480000
232.800000 181.450000 -60.480000
232.100000 184.840000 -60.480000
231.810000 188.270000 -60.480000
231.600000 191.740000 -60.480000
231.540000 195.200000 -60.480000
231.910000 198.660000 -60.480000
232.370000 202.100000 -60.480000
232.240000 205.540000 -60.480000
231.300000 209.040000 -60.480000
229.940000 212.160000 -60.480000
228.030000 214.750000 -60.480000
225.260000 217.050000 -60.480000
222.250000 219.080000 -60.480000
219.370000 220.890000 -60.480000
216.350000 222.570000 -60.480000
213.200000 224.060000 -60.480000
209.910000 225.330000 -60.480000
209.910000 225.330000 -60.480000
206.530000 226.470000 -60.480000
206.530000 226.470000 -60.480000
203.140000 227.320000 -60.480000
203.120000 230.690000 -51.840000
199.640000 230.980000 -51.840000
196.200000 231.100000 -51.840000
192.800000 231.120000 -51.840000
189.380000 230.920000 -51.840000
185.920000 230.020000 -51.840000
182.620000 228.700000 -51.840000
179.660000 227.230000 -51.840000
176.990000 225.140000 -51.840000
174.540000 222.530000 -51.840000
172.270000 219.790000 -51.840000
170.220000 217.030000 -51.840000
168.350000 214.100000 -51.840000
166.490000 211.160000 -51.840000
164.510000 208.280000 -51.840000
162.890000 205.270000 -51.840000
161.660000 202.040000 -51.840000
160.660000 198.690000 -51.840000
159.870000 195.320000 -51.840000
159.120000 191.910000 -51.840000
158.600000 188.480000 -51.840000
158.530000 185.030000 -51.840000
158.680000 181.560000 -51.840000
158.960000 178.090000 -51.840000
159.340000 174.680000 -51.840000
160.110000 171.210000 -51.840000
161.230000 167.840000 -51.840000
162.600000 164.770000 -51.840000
164.720000 162.190000 -51.840000
167.450000 159.820000 -51.840000
169.540000 157.150000 -51.840000
170.990000 154.010000 -51.840000
172.330000 150.760000 -51.840000
173.930000 147.670000 -51.840000
175.790000 144.530000 -51.840000
177.950000 141.980000 -51.840000
180.600000 140.160000 -51.840000
183.730000 138.450000 -51.840000
187.150000 137.070000 -51.840000
190.650000 136.210000 -51.840000
194.050000 136.030000 -51.840000
197.510000 136.170000 -51.840000
201.040000 136.450000 -51.840000
204.510000 136.840000 -51.840000
207.830000 137.340000 -51.840000
211.140000 138.390000 -51.840000
214.380000 139.980000 -51.840000
217.410000 141.900000 -51.840000
220.070000 143.940000 -51.840000
222.420000 146.410000 -51.840000
224.490000 149.330000 -51.840000
226.140000 152.350000 -51.840000
227.430000 155.570000 -51.840000
228.640000 158.840000 -51.840000
230.070000 162.040000 -51.840000
231.500000 165.250000 -51.840000
232.600000 168.500000 -51.840000
233.180000 171.850000 -51.840000
233.620000 175.290000 -51.840000
233.920000 178.770000 -51.840000
234.000000 182.240000 -51.840000
233.900000 185.710000 -51.840000
233.710000 189.160000 -51.840000
233.390000 192.600000 -51.840000
232.780000 196.020000 -51.840000
232.020000 199.410000 -51.840000
231.190000 202.780000 -51.840000
230.260000 206.150000 -51.840000
229.060000 209.380000 -51.840000
227.230000 212.270000 -51.840000
225.080000 215.030000 -51.840000
223.000000 217.820000 -51.840000
220.770000 220.440000 -51.840000
218.340000 222.970000 -51.840000
215.740000 225.300000 -51.840000
212.950000 227.220000 -51.840000
209.910000 228.840000 -51.840000
206.640000 230.170000 -51.840000
206.640000 230.170000 -51.840000
203.120000 230.690000 -51.840000
200.200000 232.450000 -43.200000
200.200000 232.450000 -43.200000
196.390000 232.260000 -43.200000
192.610000 232.040000 -43.200000
188.790000 231.750000 -43.200000
185.000000 231.330000 -43.200000
181.360000 230.760000 -43.200000
177.820000 229.660000 -43.200000
174.390000 227.740000 -43.200000
171.400000 225.480000 -43.200000
168.960000 222.830000 -43.200000
166.840000 219.630000 -43.200000
164.830000 216.310000 -43.200000
162.750000 213.140000 -43.200000
160.680000 209.940000 -43.200000
158.950000 206.620000 -43.200000
157.610000 203.120000 -43.200000
156.520000 199.460000 -43.200000
156.080000 195.750000 -43.200000
155.900000 191.990000 -43.200000
155.830000 188.210000 -43.200000
155.900000 184.440000 -43.200000
156.120000 180.670000 -43.200000
156.470000 176.910000 -43.200000
156.880000 173.180000 -43.200000
157.590000 169.490000 -43.200000
158.560000 165.830000 -43.200000
158.560000 165.830000 -43.200000
159.180000 161.960000 -43.200000
160.230000 158.300000 -43.200000
161.580000 154.830000 -43.200000
163.190000 151.580000 -43.200000
165.530000 148.580000 -43.200000
167.930000 145.620000 -43.200000
170.180000 142.480000 -43.200000
172.540000 139.500000 -43.200000
175.250000 137.120000 -43.200000
178.550000 135.310000 -43.200000
182.010000 133.660000 -43.200000
185.350000 131.760000 -43.200000
188.690000 129.800000 -43.200000
192.120000 128.350000 -43.200000
195.750000 127.720000 -43.200000
199.670000 127.310000 -43.200000
203.450000 127.070000 -43.200000
206.690000 127.380000 -43.200000
209.510000 129.510000 -43.200000
212.150000 132.700000 -43.200000
214.840000 135.940000 -43.200000
217.810000 138.360000 -43.200000
220.950000 140.500000 -43.200000
223.650000 143.040000 -43.200000
226.220000 145.960000 -43.200000
228.410000 149.110000 -43.200000
229.970000 152.390000 -43.200000
231.150000 155.910000 -43.200000
232.100000 159.620000 -43.200000
232.830000 163.390000 -43.200000
233.350000 167.110000 -43.200000
233.810000 170.860000 -43.200000
234.120000 174.620000 -43.200000
234.190000 178.390000 -43.200000
234.100000 182.160000 -43.200000
233.930000 185.930000 -43.200000
233.700000 189.680000 -43.200000
233.310000 193.430000 -43.200000
232.700000 197.180000 -43.200000
231.910000 200.880000 -43.200000
230.990000 204.500000 -43.200000
229.720000 208.050000 -43.200000
228.080000 211.480000 -43.200000
226.220000 214.700000 -43.200000
223.950000 217.730000 -43.200000
221.600000 220.710000 -43.200000
219.450000 223.970000 -43.200000
217.290000 227.200000 -43.200000
214.720000 229.560000 -43.200000
211.370000 231.420000 -43.200000
207.650000 232.550000 -43.200000
203.970000 232.580000 -43.200000
202.170000 234.710000 -34.560000
197.930000 234.980000 -34.560000
197.930000 234.980000 -34.560000
197.930000 234.980000 -34.560000
193.770000 234.820000 -34.560000
189.710000 234.380000 -34.560000
185.750000 233.790000 -34.560000
181.840000 232.890000 -34.560000
177.940000 231.370000 -34.560000
174.220000 229.430000 -34.560000
170.850000 227.290000 -34.560000
167.830000 224.830000 -34.560000
165.000000 221.830000 -34.560000
162.410000 218.500000 -34.560000
160.100000 215.050000 -34.560000
158.090000 211.550000 -34.560000
156.410000 207.800000 -34.560000
155.080000 203.980000 -34.560000
153.780000 200.050000 -34.560000
152.670000 196.070000 -34.560000
151.960000 192.060000 -34.560000
151.820000 188.050000 -34.560000
152.200000 184.020000 -34.560000
152.900000 179.970000 -34.560000
153.740000 175.950000 -34.560000
154.730000 172.020000 -34.560000
156.040000 168.150000 -34.560000
157.000000 164.210000 -34.560000
157.780000 160.200000 -34.560000
158.390000 156.170000 -34.560000
158.780000 152.080000 -34.560000
159.100000 147.990000 -34.560000
159.750000 144.130000 -34.560000
161.260000 140.390000 -34.560000
163.440000 136.780000 -34.560000
165.930000 133.370000 -34.560000
168.430000 130.230000 -34.560000
171.280000 127.290000 -34.560000
174.430000 124.620000 -34.560000
177.710000 122.150000 -34.560000
181.190000 119.560000 -34.560000
184.860000 118.080000 -34.560000
188.750000 118.200000 -34.560000
192.880000 118.710000 -34.560000
196.950000 119.440000 -34.560000
200.840000 120.450000 -34.560000
204.630000 122.090000 -34.560000
208.240000 124.060000 -34.560000
211.760000 126.170000 -34.560000
215.290000 128.620000 -34.560000
218.300000 131.400000 -34.560000
220.270000 134.590000 -34.560000
221.540000 138.540000 -34.560000
222.900000 142.460000 -34.560000
224.390000 146.330000 -34.560000
226.750000 149.510000 -34.560000
230.100000 152.160000 -34.560000
231.180000 155.740000 -34.560000
231.640000 159.970000 -34.560000
230.950000 163.950000 -34.560000
229.670000 167.890000 -34.560000
230.080000 171.800000 -34.560000
231.710000 175.680000 -34.560000
232.700000 179.610000 -34.560000
232.560000 183.650000 -34.560000
232.220000 187.740000 -34.560000
231.740000 191.760000 -34.560000
230.930000 195.750000 -34.560000
229.920000 199.710000 -34.560000
228.890000 203.660000 -34.560000
227.820000 207.590000 -34.560000
226.610000 211.480000 -34.560000
225.250000 215.330000 -34.560000
223.720000 219.130000 -34.560000
221.960000 222.760000 -34.560000
219.850000 226.370000 -34.560000
217.270000 229.410000 -34.560000
213.830000 231.680000 -34.560000
210.080000 232.990000 -34.560000
206.210000 233.990000 -34.560000
203.240000 233.480000 -25.920000
199.170000 234.960000 -25.920000
195.060000 235.180000 -25.920000
195.060000 235.180000 -25.920000
190.860000 234.670000 -25.920000
186.620000 233.890000 -25.920000
182.400000 233.120000 -25.920000
178.130000 232.330000 -25.920000
174.170000 231.190000 -25.920000
170.690000 228.980000 -25.920000
167.430000 226.020000 -25.920000
164.150000 223.200000 -25.920000
160.790000 220.490000 -25.920000
158.060000 217.370000 -25.920000
155.840000 213.650000 -25.920000
154.390000 209.720000 -25.920000
153.430000 205.590000 -25.920000
152.660000 201.360000 -25.920000
151.890000 197.170000 -25.920000
151.030000 192.980000 -25.920000
150.280000 188.780000 -25.920000
149.880000 184.560000 -25.920000
149.880000 180.330000 -25.920000
149.990000 176.090000 -25.920000
150.350000 171.830000 -25.920000
150.350000 171.830000 -25.920000
151.120000 167.650000 -25.920000
151.790000 163.450000 -25.920000
152.350000 159.240000 -25.920000
152.860000 155.020000 -25.920000
153.510000 150.790000 -25.920000
154.390000 146.670000 -25.920000
156.070000 142.870000 -25.920000
158.410000 139.240000 -25.920000
160.670000 135.570000 -25.920000
162.580000 131.740000 -25.920000
164.220000 127.810000 -25.920000
165.030000 123.280000 -25.920000
165.630000 118.890000 -25.920000
167.710000 117.060000 -25.920000
172.430000 115.990000 -25.920000
176.970000 115.570000 -25.920000
181.210000 115.360000 -25.920000
185.480000 115.220000 -25.920000
189.740000 115.180000 -25.920000
194.140000 115.180000 -25.920000
198.260000 115.180000 -25.920000
201.600000 117.260000 -25.920000
204.860000 120.420000 -25.920000
208.560000 122.530000 -25.920000
212.110000 124.830000 -25.920000
215.250000 127.700000 -25.920000
218.500000 130.560000 -25.920000
221.900000 133.350000 -25.920000
224.120000 136.590000 -25.920000
225.540000 140.530000 -25.920000
226.620000 144.800000 -25.920000
227.490000 149.040000 -25.920000
228.060000 153.390000 -25.920000
229.110000 157.260000 -25.920000
232.580000 160.350000 -25.920000
233.070000 164.090000 -25.920000
233.070000 168.480000 -25.920000
233.010000 172.790000 -25.920000
232.530000 177.010000 -25.920000
231.840000 181.220000 -25.920000
231.310000 185.440000 -25.920000
231.090000 189.700000 -25.920000
230.940000 193.980000 -25.920000
230.670000 198.180000 -25.920000
229.550000 202.230000 -25.920000
228.030000 206.260000 -25.920000
226.800000 210.470000 -25.920000
225.460000 214.580000 -25.920000
223.680000 218.180000 -25.920000
220.680000 221.130000 -25.920000
217.290000 223.860000 -25.920000
214.040000 226.680000 -25.920000
210.670000 229.340000 -25.920000
207.110000 231.490000 -25.920000
203.800000 232.000000 -17.280000
203.800000 232.000000 -17.280000
199.550000 233.550000 -17.280000
195.300000 234.440000 -17.280000
195.300000 234.440000 -17.280000
191.040000 234.740000 -17.280000
186.750000 234.260000 -17.280000
182.470000 233.230000 -17.280000
178.280000 232.100000 -17.280000
174.140000 230.680000 -17.280000
170.130000 229.020000 -17.280000
166.100000 227.050000 -17.280000
162.600000 224.650000 -17.280000
159.890000 221.440000 -17.280000
157.570000 217.600000 -17.280000
155.390000 213.790000 -17.280000
153.390000 209.930000 -17.280000
151.390000 206.010000 -17.280000
149.410000 202.040000 -17.280000
148.660000 197.900000 -17.280000
148.480000 193.540000 -17.280000
148.240000 189.170000 -17.280000
147.790000 184.830000 -17.280000
147.780000 180.500000 -17.280000
148.450000 176.120000 -17.280000
149.540000 171.910000 -17.280000
151.740000 168.130000 -17.280000
153.570000 164.430000 -17.280000
152.410000 160.340000 -17.280000
150.850000 156.060000 -17.280000
150.560000 151.760000 -17.280000
150.770000 147.390000 -17.280000
151.170000 143.080000 -17.280000
152.280000 138.820000 -17.280000
153.830000 134.820000 -17.280000
155.950000 131.060000 -17.280000
158.550000 127.470000 -17.280000
161.340000 124.070000 -17.280000
164.160000 120.430000 -17.280000
167.190000 116.680000 -17.280000
170.550000 114.370000 -17.280000
174.470000 114.040000 -17.280000
178.970000 113.910000 -17.280000
183.390000 113.920000 -17.280000
187.740000 114.430000 -17.280000
192.020000 115.280000 -17.280000
196.160000 116.430000 -17.280000
200.180000 118.170000 -17.280000
204.230000 119.780000 -17.280000
208.300000 121.320000 -17.280000
212.310000 123.010000 -17.280000
216.320000 124.790000 -17.280000
220.220000 126.750000 -17.280000
223.900000 128.980000 -17.280000
227.170000 131.830000 -17.280000
229.750000 135.540000 -17.280000
229.900000 139.720000 -17.280000
229.900000 144.160000 -17.280000
230.690000 148.430000 -17.280000
231.200000 152.720000 -17.280000
231.000000 157.060000 -17.280000
230.790000 161.420000 -17.280000
230.810000 165.770000 -17.280000
230.820000 170.120000 -17.280000
230.790000 174.470000 -17.280000
231.010000 178.800000 -17.280000
231.400000 183.100000 -17.280000
230.540000 187.380000 -17.280000
230.230000 191.710000 -17.280000
230.000000 196.060000 -17.280000
229.700000 200.420000 -17.280000
229.270000 204.730000 -17.280000
228.120000 208.910000 -17.280000
226.250000 212.900000 -17.280000
223.960000 216.530000 -17.280000
221.200000 219.950000 -17.280000
218.500000 223.510000 -17.280000
215.590000 226.760000 -17.280000
212.170000 229.020000 -17.280000
208.220000 230.820000 -17.280000
203.140000 234.100000 -8.640000
198.900000 235.670000 -8.640000
194.320000 236.650000 -8.640000
194.320000 236.650000 -8.640000
194.320000 236.650000 -8.640000
189.760000 236.870000 -8.640000
185.250000 236.640000 -8.640000
180.780000 235.610000 -8.640000
176.360000 234.440000 -8.640000
171.960000 233.070000 -8.640000
167.850000 231.290000 -8.640000
163.990000 228.820000 -8.640000
160.430000 225.880000 -8.640000
157.240000 222.690000 -8.640000
154.330000 219.090000 -8.640000
151.900000 215.270000 -8.640000
149.910000 211.160000 -8.640000
148.390000 206.850000 -8.640000
147.160000 202.440000 -8.640000
146.450000 197.940000 -8.640000
146.390000 193.410000 -8.640000
146.350000 188.850000 -8.640000
146.340000 184.280000 -8.640000
146.340000 179.720000 -8.640000
146.340000 175.160000 -8.640000
146.080000 170.640000 -8.640000
145.370000 166.130000 -8.640000
145.430000 161.590000 -8.640000
145.520000 157.030000 -8.640000
145.520000 152.470000 -8.640000
145.420000 147.920000 -8.640000
145.250000 143.330000 -8.640000
145.050000 138.800000 -8.640000
146.090000 134.460000 -8.640000
148.710000 130.360000 -8.640000
151.660000 127.080000 -8.640000
155.380000 124.560000 -8.640000
159.560000 122.310000 -8.640000
163.480000 119.800000 -8.640000
167.370000 116.870000 -8.640000
171.320000 114.380000 -8.640000
175.450000 113.230000 -8.640000
179.920000 113.550000 -8.640000
184.460000 114.350000 -8.640000
188.650000 116.030000 -8.640000
192.810000 118.010000 -8.640000
197.210000 119.340000 -8.640000
201.670000 119.840000 -8.640000
206.080000 118.490000 -8.640000
210.570000 117.940000 -8.640000
215.220000 118.130000 -8.640000
219.460000 118.860000 -8.640000
223.250000 121.700000 -8.640000
227.200000 123.910000 -8.640000
228.980000 128.160000 -8.640000
229.370000 132.640000 -8.640000
229.550000 137.230000 -8.640000
229.950000 141.780000 -8.640000
230.820000 146.250000 -8.640000
231.540000 150.760000 -8.640000
231.930000 155.290000 -8.640000
231.910000 159.840000 -8.640000
231.860000 164.400000 -8.640000
231.770000 168.960000 -8.640000
231.610000 173.510000 -8.640000
231.210000 178.060000 -8.640000
231.110000 182.590000 -8.640000
231.930000 187.090000 -8.640000
232.810000 191.580000 -8.640000
232.770000 196.110000 -8.640000
232.030000 200.680000 -8.640000
230.970000 205.050000 -8.640000
229.250000 209.180000 -8.640000
226.800000 213.150000 -8.640000
224.070000 216.880000 -8.640000
221.170000 220.370000 -8.640000
217.880000 223.560000 -8.640000
214.320000 226.360000 -8.640000
210.600000 229.020000 -8.640000
207.000000 231.930000 -8.640000
203.310000 230.710000 0.000000
198.840000 232.040000 0.000000
193.970000 232.620000 0.000000
193.970000 232.620000 0.000000
193.970000 232.620000 0.000000
189.370000 232.280000 0.000000
184.770000 231.960000 0.000000
180.120000 231.710000 0.000000
175.480000 231.460000 0.000000
171.050000 230.810000 0.000000
166.870000 228.640000 0.000000
162.930000 226.200000 0.000000
159.260000 223.350000 0.000000
156.200000 219.980000 0.000000
153.440000 216.220000 0.000000
150.370000 212.500000 0.000000
148.550000 208.500000 0.000000
148.030000 203.960000 0.000000
147.570000 199.280000 0.000000
146.810000 194.730000 0.000000
146.060000 190.180000 0.000000
145.550000 185.590000 0.000000
144.910000 181.030000 0.000000
143.900000 176.530000 0.000000
142.690000 172.070000 0.000000
141.440000 167.620000 0.000000
140.100000 163.200000 0.000000
138.870000 158.740000 0.000000
138.290000 154.180000 0.000000
137.980000 149.510000 0.000000
137.810000 144.890000 0.000000
138.020000 140.450000 0.000000
139.550000 136.130000 0.000000
141.890000 131.920000 0.000000
144.300000 127.870000 0.000000
146.780000 123.940000 0.000000
149.700000 120.410000 0.000000
153.120000 117.210000 0.000000
156.940000 114.570000 0.000000
161.110000 112.820000 0.000000
165.600000 111.510000 0.000000
170.090000 110.350000 0.000000
174.640000 109.450000 0.000000
179.210000 109.420000 0.000000
183.820000 109.880000 0.000000
188.410000 110.420000 0.000000
192.980000 111.080000 0.000000
197.540000 111.790000 0.000000
202.120000 112.350000 0.000000
206.770000 112.700000 0.000000
211.320000 113.160000 0.000000
215.710000 114.450000 0.000000
219.920000 116.630000 0.000000
223.690000 119.180000 0.000000
227.020000 122.500000 0.000000
229.830000 126.260000 0.000000
231.740000 130.490000 0.000000
231.540000 135.000000 0.000000
231.300000 139.660000 0.000000
231.560000 144.270000 0.000000
231.780000 148.880000 0.000000
231.780000 153.520000 0.000000
231.460000 158.030000 0.000000
229.580000 162.380000 0.000000
228.870000 166.860000 0.000000
228.630000 171.490000 0.000000
228.570000 176.120000 0.000000
229.220000 180.700000 0.000000
229.520000 185.300000 0.000000
229.470000 189.970000 0.000000
229.360000 194.500000 0.000000
228.190000 198.800000 0.000000
225.910000 202.960000 0.000000
223.500000 207.090000 0.000000
221.430000 211.220000 0.000000
219.240000 215.280000 0.000000
216.980000 219.370000 0.000000
214.430000 223.180000 0.000000
211.210000 226.570000 0.000000
207.430000 228.950000 0.000000
3 0 80 2
3 0 2 3
3 0 3 4
3 0 4 5
3 0 5 6
3 0 6 7
3 0 7 8
3 0 8 9
3 0 9 10
3 0 10 11
3 0 11 12
3 0 12 13
3 0 13 14
3 0 14 15
3 0 15 16
3 0 16 17
3 0 17 18
3 0 18 19
3 0 19 20
3 0 20 21
3 0 21 22
3 0 22 23
3 0 23 24
3 0 24 25
3 0 25 26
3 0 26 27
3 0 27 28
3 0 28 29
3 0 29 30
3 0 30 31
3 0 31 32
3 0 32 33
3 0 33 34
3 0 34 35
3 0 35 36
3 0 36 37
3 0 37 38
3 0 38 39
3 0 39 40
3 0 40 41
3 0 41 42
3 0 42 43
3 0 43 44
3 0 44 45
3 0 45 46
3 0 46 47
3 0 47 48
3 0 48 49
3 0 49 50
3 0 50 51
3 0 51 52
3 0 52 53
3 0 53 54
3 0 54 55
3 0 55 56
3 0 56 57
3 0 57 58
3 0 58 59
3 0 59 60
3 0 60 61
3 0 61 62
3 0 62 63
3 0 63 64
3 0 64 65
3 0 65 66
3 0 66 67
3 0 67 68
3 0 68 69
3 0 69 70
3 0 70 71
3 0 71 72
3 0 72 73
3 0 73 74
3 0 74 75
3 0 75 76
3 0 76 77
3 0 77 78
3 0 78 80
3 80 81 82
3 80 82 2
3 2 82 83
3 2 83 3
3 3 83 84
3 3 84 4
3 4 84 85
3 4 85 5
3 5 85 86
3 5 86 6
3 6 86 87
3 6 87 7
3 7 87 8
3 8 87 89
3 8 89 9
3 9 89 90
3 9 90 10
3 10 90 91
3 10 91 11
3 11 91 92
3 11 92 12
3 12 92 93
3 12 93 13
3 13 93 94
3 13 94 14
3 14 94 95
3 14 95 15
3 15 95 96
3 15 96 16
3 16 96 97
3 16 97 17
3 17 97 98
3 17 98 18
3 18 98 99
3 18 99 19
3 19 99 100
3 19 100 20
3 20 100 101
3 20 101 21
3 21 101 102
3 21 102 22
3 22 102 103
3 22 103 23
3 23 103 104
3 23 104 24
3 24 104 105
3 24 105 25
3 25 105 106
3 25 106 26
3 26 106 107
3 26 107 27
3 27 107 108
3 27 108 28
3 28 108 109
3 28 109 29
3 29 109 110
3 29 110 30
3 30 110 111
3 30 111 31
3 31 111 112
3 31 112 32
3 32 112 113
3 32 113 33
3 33 113 114
3 33 114 34
3 34 114 115
3 34 115 35
3 35 115 116
3 35 116 36
3 36 116 117
3 36 117 37
3 37 117 118
3 37 118 38
3 38 118 119
3 38 119 39
3 39 119 120
3 39 120 40
3 40 120 121
3 40 121 41
3 41 121 122
3 41 122 42
3 42 122 123
3 42 123 43
3 43 123 124
3 43 124 44
3 44 124 125
3 44 125 45
3 45 125 126
3 45 126 46
3 46 126 127
3 46 127 47
3 47 127 128
3 47 128 48
3 48 128 129
3 48 129 49
3 49 129 130
3 49 130 50
3 50 130 131
3 50 131 51
3 51 131 132
3 51 132 52
3 52 132 133
3 52 133 53
3 53 133 134
3 53 134 54
3 54 134 135
3 54 135 55
3 55 135 136
3 55 136 56
3 56 136 137
3 56 137 57
3 57 137 138
3 57 138 58
3 58 138 139
3 58 139 59
3 59 139 140
3 59 140 60
3 60 140 141
3 60 141 61
3 61 141 142
3 61 142 62
3 62 142 143
3 62 143 63
3 63 143 144
3 63 144 64
3 64 144 145
3 64 145 65
3 65 145 146
3 65 146 66
3 66 146 147
3 66 147 67
3 67 147 148
3 67 148 68
3 68 148 149
3 68 149 69
3 69 149 150
3 69 150 70
3 70 150 151
3 70 151 71
3 71 151 152
3 71 152 72
3 72 152 153
3 72 153 73
3 73 153 154
3 73 154 74
3 74 154 155
3 74 155 75
3 75 155 156
3 75 156 76
3 76 156 157
3 76 157 77
3 77 157 78
3 78 157 159
3 78 159 160
3 78 160 80
3 80 160 81
3 81 161 162
3 81 162 82
3 82 162 163
3 82 163 83
3 83 163 164
3 83 164 84
3 84 164 165
3 84 165 85
3 85 165 166
3 85 166 86
3 86 166 167
3 86 167 87
3 87 167 168
3 87 168 169
3 87 169 89
3 89 169 170
3 89 170 90
3 90 170 171
3 90 171 91
3 91 171 172
3 91 172 92
3 92 172 173
3 92 173 93
3 93 173 174
3 93 174 94
3 94 174 175
3 94 175 95
3 95 175 176
3 95 176 96
3 96 176 177
3 96 177 97
3 97 177 178
3 97 178 98
3 98 178 179
3 98 179 99
3 99 179 180
3 99 180 100
3 100 180 181
3 100 181 101
3 101 181 182
3 101 182 102
3 102 182 183
3 102 183 103
3 103 183 184
3 103 184 104
3 104 184 185
3 104 185 105
3 105 185 186
3 105 186 106
3 106 186 187
3 106 187 107
3 107 187 188
3 107 188 108
3 108 188 189
3 108 189 109
3 109 189 190
3 109 190 110
3 110 190 191
3 110 191 111
3 111 191 192
3 111 192 112
3 112 192 193
3 112 193 113
3 113 193 194
3 113 194 114
3 114 194 195
3 114 195 115
3 115 195 196
3 115 196 116
3 116 196 197
3 116 197 117
3 117 197 198
3 117 198 118
3 118 198 199
3 118 199 119
3 119 199 200
3 119 200 120
3 120 200 201
3 120 201 121
3 121 201 202
3 121 202 122
3 122 202 203
3 122 203 123
3 123 203 204
3 123 204 124
3 124 204 205
3 124 205 125
3 125 205 206
3 125 206 126
3 126 206 207
3 126 207 127
3 127 207 208
3 127 208 128
3 128 208 209
3 128 209 129
3 129 209 210
3 129 210 130
3 130 210 211
3 130 211 131
3 131 211 212
3 131 212 132
3 132 212 213
3 132 213 133
3 133 213 214
3 133 214 134
3 134 214 215
3 134 215 135
3 135 215 216
3 135 216 136
3 136 216 217
3 136 217 137
3 137 217 218
3 137 218 138
3 138 218 219
3 138 219 139
3 139 219 220
3 139 220 140
3 140 220 221
3 140 221 141
3 141 221 222
3 141 222 142
3 142 222 223
3 142 223 143
3 143 223 224
3 143 224 144
3 144 224 225
3 144 225 145
3 145 225 226
3 145 226 146
3 146 226 227
3 146 227 147
3 147 227 228
3 147 228 148
3 148 228 229
3 148 229 149
3 149 229 230
3 149 230 150
3 150 230 231
3 150 231 151
3 151 231 232
3 151 232 152
3 152 232 233
3 152 233 153
3 153 233 234
3 153 234 154
3 154 234 235
3 154 235 155
3 155 235 236
3 155 236 156
3 156 236 157
3 157 236 238
3 157 238 159
3 159 238 240
3 159 240 160
3 160 240 161
3 160 161 81
3 161 320 242
3 161 242 162
3 162 242 243
3 162 243 163
3 163 243 244
3 163 244 164
3 164 244 245
3 164 245 165
3 165 245 246
3 165 246 166
3 166 246 247
3 166 247 167
3 167 247 248
3 167 248 168
3 168 248 249
3 168 249 169
3 169 249 250
3 169 250 170
3 170 250 251
3 170 251 171
3 171 251 252
3 171 252 172
3 172 252 253
3 172 253 173
3 173 253 254
3 173 254 174
3 174 254 255
3 174 255 175
3 175 255 256
3 175 256 176
3 176 256 257
3 176 257 177
3 177 257 258
3 177 258 178
3 178 258 259
3 178 259 179
3 179 259 260
3 179 260 180
3 180 260 261
3 180 261 181
3 181 261 262
3 181 262 182
3 182 262 263
3 182 263 183
3 183 263 264
3 183 264 184
3 184 264 265
3 184 265 185
3 185 265 266
3 185 266 186
3 186 266 267
3 186 267 187
3 187 267 268
3 187 268 188
3 188 268 269
3 188 269 189
3 189 269 270
3 189 270 190
3 190 270 271
3 190 271 191
3 191 271 272
3 191 272 192
3 192 272 273
3 192 273 193
3 193 273 274
3 193 274 194
3 194 274 275
3 194 275 195
3 195 275 276
3 195 276 196
3 196 276 277
3 196 277 197
3 197 277 278
3 197 278 198
3 198 278 279
3 198 279 199
3 199 279 280
3 199 280 200
3 200 280 281
3 200 281 201
3 201 281 282
3 201 282 202
3 202 282 283
3 202 283 203
3 203 283 284
3 203 284 204
3 204 284 285
3 204 285 205
3 205 285 286
3 205 286 206
3 206 286 287
3 206 287 207
3 207 287 288
3 207 288 208
3 208 288 289
3 208 289 209
3 209 289 290
3 209 290 210
3 210 290 291
3 210 291 211
3 211 291 292
3 211 292 212
3 212 292 293
3 212 293 213
3 213 293 294
3 213 294 214
3 214 294 295
3 214 295 215
3 215 295 296
3 215 296 216
3 216 296 297
3 216 297 217
3 217 297 298
3 217 298 218
3 218 298 299
3 218 299 219
3 219 299 300
3 219 300 220
3 220 300 301
3 220 301 221
3 221 301 302
3 221 302 222
3 222 302 303
3 222 303 223
3 223 303 304
3 223 304 224
3 224 304 305
3 224 305 225
3 225 305 306
3 225 306 226
3 226 306 307
3 226 307 227
3 227 307 308
3 227 308 228
3 228 308 309
3 228 309 229
3 229 309 310
3 229 310 230
3 230 310 311
3 230 311 231
3 231 311 312
3 231 312 232
3 232 312 313
3 232 313 233
3 233 313 314
3 233 314 234
3 234 314 315
3 234 315 235
3 235 315 316
3 235 316 236
3 236 316 317
3 236 317 318
3 236 318 238
3 238 318 320
3 238 320 240
3 240 320 161
3 320 321 242
3 242 321 323
3 242 323 243
3 243 323 324
3 243 324 244
3 244 324 325
3 244 325 245
3 245 325 326
3 245 326 246
3 246 326 327
3 246 327 247
3 247 327 328
3 247 328 248
3 248 328 329
3 248 329 249
3 249 329 330
3 249 330 250
3 250 330 331
3 250 331 251
3 251 331 332
3 251 332 252
3 252 332 333
3 252 333 253
3 253 333 334
3 253 334 254
3 254 334 335
3 254 335 255
3 255 335 336
3 255 336 256
3 256 336 337
3 256 337 257
3 257 337 338
3 257 338 258
3 258 338 339
3 258 339 259
3 259 339 340
3 259 340 260
3 260 340 341
3 260 341 261
3 261 341 342
3 261 342 262
3 262 342 343
3 262 343 263
3 263 343 344
3 263 344 264
3 264 344 345
3 264 345 265
3 265 345 346
3 265 346 266
3 266 346 347
3 266 347 267
3 267 347 268
3 268 347 349
3 268 349 269
3 269 349 350
3 269 350 270
3 270 350 351
3 270 351 271
3 271 351 352
3 271 352 272
3 272 352 353
3 272 353 273
3 273 353 354
3 273 354 274
3 274 354 355
3 274 355 275
3 275 355 356
3 275 356 276
3 276 356 357
3 276 357 277
3 277 357 358
3 277 358 278
3 278 358 359
3 278 359 279
3 279 359 360
3 279 360 280
3 280 360 361
3 280 361 281
3 281 361 362
3 281 362 282
3 282 362 363
3 282 363 283
3 283 363 364
3 283 364 284
3 284 364 365
3 284 365 285
3 285 365 366
3 285 366 286
3 286 366 367
3 286 367 287
3 287 367 368
3 287 368 288
3 288 368 369
3 288 369 289
3 289 369 370
3 289 370 290
3 290 370 371
3 290 371 291
3 291 371 372
3 291 372 292
3 292 372 373
3 292 373 293
3 293 373 374
3 293 374 294
3 294 374 375
3 294 375 295
3 295 375 376
3 295 376 296
3 296 376 377
3 296 377 297
3 297 377 378
3 297 378 298
3 298 378 379
3 298 379 299
3 299 379 380
3 299 380 300
3 300 380 381
3 300 381 301
3 301 381 382
3 301 382 302
3 302 382 383
3 302 383 303
3 303 383 384
3 303 384 304
3 304 384 385
3 304 385 305
3 305 385 386
3 305 386 306
3 306 386 387
3 306 387 307
3 307 387 388
3 307 388 308
3 308 388 389
3 308 389 309
3 309 389 390
3 309 390 310
3 310 390 391
3 310 391 311
3 311 391 392
3 311 392 312
3 312 392 393
3 312 393 313
3 313 393 394
3 313 394 314
3 314 394 395
3 314 395 315
3 315 395 396
3 315 396 316
3 316 396 397
3 316 397 317
3 317 397 398
3 317 398 318
3 318 398 399
3 318 399 400
3 318 400 320
3 320 400 321
3 321 401 402
3 321 402 323
3 323 402 324
3 324 402 405
3 324 405 325
3 325 405 406
3 325 406 326
3 326 406 407
3 326 407 327
3 327 407 408
3 327 408 328
3 328 408 409
3 328 409 329
3 329 409 410
3 329 410 330
3 330 410 411
3 330 411 331
3 331 411 412
3 331 412 332
3 332 412 413
3 332 413 333
3 333 413 414
3 333 414 334
3 334 414 415
3 334 415 335
3 335 415 416
3 335 416 336
3 336 416 417
3 336 417 337
3 337 417 418
3 337 418 338
3 338 418 419
3 338 419 339
3 339 419 420
3 339 420 340
3 340 420 421
3 340 421 341
3 341 421 422
3 341 422 342
3 342 422 423
3 342 423 343
3 343 423 424
3 343 424 344
3 344 424 425
3 344 425 345
3 345 425 426
3 345 426 346
3 346 426 427
3 346 427 347
3 347 427 428
3 347 428 429
3 347 429 349
3 349 429 430
3 349 430 350
3 350 430 431
3 350 431 351
3 351 431 432
3 351 432 352
3 352 432 433
3 352 433 353
3 353 433 434
3 353 434 354
3 354 434 435
3 354 435 355
3 355 435 436
3 355 436 356
3 356 436 437
3 356 437 357
3 357 437 438
3 357 438 358
3 358 438 439
3 358 439 359
3 359 439 440
3 359 440 360
3 360 440 441
3 360 441 361
3 361 441 442
3 361 442 362
3 362 442 443
3 362 443 363
3 363 443 444
3 363 444 364
3 364 444 445
3 364 445 365
3 365 445 446
3 365 446 366
3 366 446 447
3 366 447 367
3 367 447 448
3 367 448 368
3 368 448 449
3 368 449 369
3 369 449 450
3 369 450 370
3 370 450 451
3 370 451 371
3 371 451 452
3 371 452 372
3 372 452 453
3 372 453 373
3 373 453 454
3 373 454 374
3 374 454 455
3 374 455 375
3 375 455 456
3 375 456 376
3 376 456 457
3 376 457 377
3 377 457 458
3 377 458 378
3 378 458 459
3 378 459 379
3 379 459 460
3 379 460 380
3 380 460 461
3 380 461 381
3 381 461 462
3 381 462 382
3 382 462 463
3 382 463 383
3 383 463 464
3 383 464 384
3 384 464 465
3 384 465 385
3 385 465 466
3 385 466 386
3 386 466 467
3 386 467 387
3 387 467 468
3 387 468 388
3 388 468 469
3 388 469 389
3 389 469 470
3 389 470 390
3 390 470 471
3 390 471 391
3 391 471 472
3 391 472 392
3 392 472 473
3 392 473 393
3 393 473 474
3 393 474 394
3 394 474 475
3 394 475 395
3 395 475 476
3 395 476 396
3 396 476 477
3 396 477 397
3 397 477 478
3 397 478 398
3 398 478 479
3 398 479 399
3 399 479 480
3 399 480 400
3 400 480 401
3 400 401 321
3 401 481 482
3 401 482 402
3 402 482 483
3 402 483 485
3 402 485 405
3 405 485 486
3 405 486 406
3 406 486 487
3 406 487 407
3 407 487 488
3 407 488 408
3 408 488 489
3 408 489 409
3 409 489 490
3 409 490 410
3 410 490 491
3 410 491 411
3 411 491 492
3 411 492 412
3 412 492 493
3 412 493 413
3 413 493 494
3 413 494 414
3 414 494 495
3 414 495 415
3 415 495 496
3 415 496 416
3 416 496 497
3 416 497 417
3 417 497 498
3 417 498 418
3 418 498 499
3 418 499 419
3 419 499 500
3 419 500 420
3 420 500 501
3 420 501 421
3 421 501 502
3 421 502 422
3 422 502 503
3 422 503 423
3 423 503 504
3 423 504 424
3 424 504 505
3 424 505 425
3 425 505 426
3 426 505 507
3 426 507 427
3 427 507 508
3 427 508 428
3 428 508 509
3 428 509 429
3 429 509 510
3 429 510 430
3 430 510 511
3 430 511 431
3 431 511 512
3 431 512 432
3 432 512 513
3 432 513 433
3 433 513 514
3 433 514 434
3 434 514 515
3 434 515 435
3 435 515 516
3 435 516 436
3 436 516 517
3 436 517 437
3 437 517 518
3 437 518 438
3 438 518 519
3 438 519 439
3 439 519 520
3 439 520 440
3 440 520 521
3 440 521 441
3 441 521 522
3 441 522 442
3 442 522 523
3 442 523 443
3 443 523 524
3 443 524 444
3 444 524 525
3 444 525 445
3 445 525 526
3 445 526 446
3 446 526 527
3 446 527 447
3 447 527 528
3 447 528 448
3 448 528 529
3 448 529 449
3 449 529 530
3 449 530 450
3 450 530 531
3 450 531 451
3 451 531 532
3 451 532 452
3 452 532 533
3 452 533 453
3 453 533 534
3 453 534 454
3 454 534 535
3 454 535 455
3 455 535 536
3 455 536 456
3 456 536 537
3 456 537 457
3 457 537 538
3 457 538 458
3 458 538 539
3 458 539 459
3 459 539 540
3 459 540 460
3 460 540 541
3 460 541 461
3 461 541 542
3 461 542 462
3 462 542 543
3 462 543 463
3 463 543 544
3 463 544 464
3 464 544 545
3 464 545 465
3 465 545 546
3 465 546 466
3 466 546 547
3 466 547 467
3 467 547 548
3 467 548 468
3 468 548 549
3 468 549 469
3 469 549 550
3 469 550 470
3 470 550 551
3 470 551 471
3 471 551 552
3 471 552 472
3 472 552 553
3 472 553 473
3 473 553 554
3 473 554 474
3 474 554 555
3 474 555 475
3 475 555 556
3 475 556 476
3 476 556 557
3 476 557 477
3 477 557 558
3 477 558 478
3 478 558 559
3 478 559 479
3 479 559 560
3 479 560 480
3 480 560 481
3 480 481 401
3 481 561 482
3 482 561 563
3 482 563 483
3 483 563 564
3 483 564 485
3 485 564 566
3 485 566 486
3 486 566 567
3 486 567 487
3 487 567 568
3 487 568 488
3 488 568 569
3 488 569 489
3 489 569 570
3 489 570 490
3 490 570 571
3 490 571 491
3 491 571 572
3 491 572 492
3 492 572 573
3 492 573 493
3 493 573 574
3 493 574 494
3 494 574 575
3 494 575 495
3 495 575 576
3 495 576 496
3 496 576 577
3 496 577 497
3 497 577 578
3 497 578 498
3 498 578 579
3 498 579 499
3 499 579 580
3 499 580 500
3 500 580 581
3 500 581 501
3 501 581 582
3 501 582 502
3 502 582 583
3 502 583 503
3 503 583 584
3 503 584 504
3 504 584 585
3 504 585 505
3 505 585 586
3 505 586 587
3 505 587 507
3 507 587 588
3 507 588 508
3 508 588 589
3 508 589 509
3 509 589 590
3 509 590 510
3 510 590 591
3 510 591 511
3 511 591 592
3 511 592 512
3 512 592 593
3 512 593 513
3 513 593 594
3 513 594 514
3 514 594 595
3 514 595 515
3 515 595 596
3 515 596 516
3 516 596 597
3 516 597 517
3 517 597 598
3 517 598 518
3 518 598 599
3 518 599 519
3 519 599 600
3 519 600 520
3 520 600 601
3 520 601 521
3 521 601 602
3 521 602 522
3 522 602 603
3 522 603 523
3 523 603 604
3 523 604 524
3 524 604 605
3 524 605 525
3 525 605 606
3 525 606 526
3 526 606 607
3 526 607 527
3 527 607 608
3 527 608 528
3 528 608 609
3 528 609 529
3 529 609 610
3 529 610 530
3 530 610 611
3 530 611 531
3 531 611 612
3 531 612 532
3 532 612 613
3 532 613 533
3 533 613 614
3 533 614 534
3 534 614 615
3 534 615 535
3 535 615 616
3 535 616 536
3 536 616 617
3 536 617 537
3 537 617 618
3 537 618 538
3 538 618 619
3 538 619 539
3 539 619 620
3 539 620 540
3 540 620 621
3 540 621 541
3 541 621 622
3 541 622 542
3 542 622 623
3 542 623 543
3 543 623 624
3 543 624 544
3 544 624 625
3 544 625 545
3 545 625 626
3 545 626 546
3 546 626 627
3 546 627 547
3 547 627 628
3 547 628 548
3 548 628 629
3 548 629 549
3 549 629 630
3 549 630 550
3 550 630 631
3 550 631 551
3 551 631 632
3 551 632 552
3 552 632 633
3 552 633 553
3 553 633 634
3 553 634 554
3 554 634 635
3 554 635 555
3 555 635 636
3 555 636 556
3 556 636 637
3 556 637 557
3 557 637 638
3 557 638 558
3 558 638 639
3 558 639 559
3 559 639 640
3 559 640 560
3 560 640 561
3 560 561 481
3 561 641 642
3 561 642 643
3 561 643 563
3 563 643 564
3 564 643 646
3 564 646 566
3 566 646 647
3 566 647 567
3 567 647 648
3 567 648 568
3 568 648 649
3 568 649 569
3 569 649 650
3 569 650 570
3 570 650 651
3 570 651 571
3 571 651 652
3 571 652 572
3 572 652 653
3 572 653 573
3 573 653 654
3 573 654 574
3 574 654 655
3 574 655 575
3 575 655 656
3 575 656 576
3 576 656 657
3 576 657 577
3 577 657 658
3 577 658 578
3 578 658 659
3 578 659 579
3 579 659 660
3 579 660 580
3 580 660 661
3 580 661 581
3 581 661 662
3 581 662 582
3 582 662 663
3 582 663 583
3 583 663 664
3 583 664 584
3 584 664 665
3 584 665 585
3 585 665 666
3 585 666 586
3 586 666 667
3 586 667 587
3 587 667 668
3 587 668 588
3 588 668 669
3 588 669 589
3 589 669 670
3 589 670 590
3 590 670 671
3 590 671 591
3 591 671 672
3 591 672 592
3 592 672 673
3 592 673 593
3 593 673 674
3 593 674 594
3 594 674 675
3 594 675 595
3 595 675 676
3 595 676 596
3 596 676 677
3 596 677 597
3 597 677 678
3 597 678 598
3 598 678 679
3 598 679 599
3 599 679 680
3 599 680 600
3 600 680 681
3 600 681 601
3 601 681 682
3 601 682 602
3 602 682 683
3 602 683 603
3 603 683 684
3 603 684 604
3 604 684 685
3 604 685 605
3 605 685 686
3 605 686 606
3 606 686 687
3 606 687 607
3 607 687 688
3 607 688 608
3 608 688 689
3 608 689 609
3 609 689 690
3 609 690 610
3 610 690 691
3 610 691 611
3 611 691 692
3 611 692 612
3 612 692 693
3 612 693 613
3 613 693 694
3 613 694 614
3 614 694 695
3 614 695 615
3 615 695 696
3 615 696 616
3 616 696 697
3 616 697 617
3 617 697 698
3 617 698 618
3 618 698 699
3 618 699 619
3 619 699 700
3 619 700 620
3 620 700 701
3 620 701 621
3 621 701 702
3 621 702 622
3 622 702 703
3 622 703 623
3 623 703 704
3 623 704 624
3 624 704 705
3 624 705 625
3 625 705 706
3 625 706 626
3 626 706 707
3 626 707 627
3 627 707 708
3 627 708 628
3 628 708 709
3 628 709 629
3 629 709 710
3 629 710 630
3 630 710 711
3 630 711 631
3 631 711 712
3 631 712 632
3 632 712 713
3 632 713 633
3 633 713 714
3 633 714 634
3 634 714 715
3 634 715 635
3 635 715 716
3 635 716 636
3 636 716 717
3 636 717 637
3 637 717 718
3 637 718 638
3 638 718 719
3 638 719 639
3 639 719 720
3 639 720 640
3 640 720 641
3 640 641 561
3 641 721 722
3 641 722 642
3 642 722 723
3 642 723 643
3 643 723 726
3 643 726 646
3 646 726 727
3 646 727 647
3 647 727 728
3 647 728 648
3 648 728 729
3 648 729 649
3 649 729 730
3 649 730 650
3 650 730 731
3 650 731 651
3 651 731 732
3 651 732 652
3 652 732 733
3 652 733 653
3 653 733 734
3 653 734 654
3 654 734 735
3 654 735 655
3 655 735 736
3 655 736 656
3 656 736 737
3 656 737 657
3 657 737 738
3 657 738 658
3 658 738 739
3 658 739 659
3 659 739 740
3 659 740 660
3 660 740 741
3 660 741 661
3 661 741 742
3 661 742 662
3 662 742 743
3 662 743 663
3 663 743 744
3 663 744 664
3 664 744 745
3 664 745 665
3 665 745 746
3 665 746 666
3 666 746 747
3 666 747 667
3 667 747 748
3 667 748 668
3 668 748 749
3 668 749 669
3 669 749 750
3 669 750 670
3 670 750 751
3 670 751 671
3 671 751 752
3 671 752 672
3 672 752 753
3 672 753 673
3 673 753 754
3 673 754 674
3 674 754 755
3 674 755 675
3 675 755 756
3 675 756 676
3 676 756 757
3 676 757 677
3 677 757 758
3 677 758 678
3 678 758 759
3 678 759 679
3 679 759 760
3 679 760 680
3 680 760 761
3 680 761 681
3 681 761 762
3 681 762 682
3 682 762 763
3 682 763 683
3 683 763 764
3 683 764 684
3 684 764 765
3 684 765 685
3 685 765 766
3 685 766 686
3 686 766 767
3 686 767 687
3 687 767 768
3 687 768 688
3 688 768 769
3 688 769 689
3 689 769 770
3 689 770 690
3 690 770 771
3 690 771 691
3 691 771 772
3 691 772 692
3 692 772 773
3 692 773 693
3 693 773 774
3 693 774 694
3 694 774 775
3 694 775 695
3 695 775 776
3 695 776 696
3 696 776 777
3 696 777 697
3 697 777 778
3 697 778 698
3 698 778 779
3 698 779 699
3 699 779 780
3 699 780 700
3 700 780 781
3 700 781 701
3 701 781 782
3 701 782 702
3 702 782 783
3 702 783 703
3 703 783 784
3 703 784 704
3 704 784 785
3 704 785 705
3 705 785 786
3 705 786 706
3 706 786 787
3 706 787 707
3 707 787 788
3 707 788 708
3 708 788 789
3 708 789 709
3 709 789 790
3 709 790 710
3 710 790 791
3 710 791 711
3 711 791 792
3 711 792 712
3 712 792 793
3 712 793 713
3 713 793 794
3 713 794 714
3 714 794 795
3 714 795 715
3 715 795 796
3 715 796 716
3 716 796 797
3 716 797 717
3 717 797 798
3 717 798 718
3 718 798 799
3 718 799 719
3 719 799 800
3 719 800 720
3 720 800 721
3 720 721 641
