ply 
format ascii 1.0 
comment this is a surface 
element vertex 721 
property float x 
property float y 
property float z 
element face 1343 
property list uchar int vertex_index 
end_header 
88.814525 104.438038 -64.000000
88.864000 110.260000 -64.000000
88.384000 110.120000 -64.000000
87.963000 109.850000 -64.000000
87.565000 109.550000 -64.000000
87.147000 109.280000 -64.000000
86.704000 109.040000 -64.000000
86.257000 108.820000 -64.000000
85.808000 108.600000 -64.000000
85.360000 108.380000 -64.000000
84.916000 108.150000 -64.000000
84.478000 107.910000 -64.000000
84.040000 107.670000 -64.000000
83.589000 107.460000 -64.000000
83.139000 107.240000 -64.000000
82.705000 106.990000 -64.000000
82.327000 106.670000 -64.000000
82.183000 106.190000 -64.000000
82.190000 105.690000 -64.000000
82.203000 105.190000 -64.000000
82.221000 104.690000 -64.000000
82.243000 104.190000 -64.000000
82.272000 103.690000 -64.000000
82.327000 103.200000 -64.000000
82.517000 102.730000 -64.000000
82.778000 102.310000 -64.000000
83.041000 101.880000 -64.000000
83.251000 101.430000 -64.000000
83.426000 100.960000 -64.000000
83.598000 100.490000 -64.000000
83.789000 100.030000 -64.000000
84.040000 99.599000 -64.000000
84.434000 99.292000 -64.000000
84.912000 99.148000 -64.000000
85.402000 99.047000 -64.000000
85.896000 98.977000 -64.000000
86.394000 98.939000 -64.000000
86.894000 98.935000 -64.000000
87.394000 98.940000 -64.000000
87.893000 98.948000 -64.000000
88.393000 98.960000 -64.000000
88.892000 98.975000 -64.000000
89.391000 98.994000 -64.000000
89.890000 99.016000 -64.000000
90.388000 99.059000 -64.000000
90.879000 99.153000 -64.000000
91.359000 99.290000 -64.000000
91.828000 99.462000 -64.000000
92.285000 99.664000 -64.000000
92.723000 99.905000 -64.000000
93.114000 100.220000 -64.000000
93.463000 100.570000 -64.000000
93.778000 100.960000 -64.000000
94.067000 101.370000 -64.000000
94.338000 101.790000 -64.000000
94.606000 102.210000 -64.000000
94.861000 102.640000 -64.000000
95.094000 103.080000 -64.000000
95.290000 103.540000 -64.000000
95.432000 104.020000 -64.000000
95.496000 104.520000 -64.000000
95.487000 105.010000 -64.000000
95.454000 105.510000 -64.000000
95.401000 106.010000 -64.000000
95.329000 106.500000 -64.000000
95.237000 107.000000 -64.000000
95.074000 107.470000 -64.000000
94.821000 107.900000 -64.000000
94.482000 108.260000 -64.000000
94.064000 108.540000 -64.000000
93.611000 108.750000 -64.000000
93.142000 108.920000 -64.000000
92.666000 109.070000 -64.000000
92.188000 109.210000 -64.000000
91.710000 109.360000 -64.000000
91.237000 109.520000 -64.000000
90.773000 109.710000 -64.000000
90.310000 109.890000 -64.000000
89.841000 110.070000 -64.000000
89.360000 110.200000 -64.000000
88.864000 110.260000 -64.000000
89.939000 124.570000 -56.000000
89.939000 124.570000 -56.000000
88.317000 124.640000 -56.000000
86.701000 124.490000 -56.000000
85.118000 124.130000 -56.000000
83.570000 123.640000 -56.000000
82.043000 123.090000 -56.000000
80.540000 122.480000 -56.000000
79.090000 121.750000 -56.000000
77.700000 120.910000 -56.000000
76.379000 119.960000 -56.000000
75.150000 118.900000 -56.000000
74.059000 117.700000 -56.000000
73.113000 116.380000 -56.000000
72.276000 114.990000 -56.000000
71.546000 113.540000 -56.000000
70.933000 112.040000 -56.000000
70.459000 110.480000 -56.000000
70.125000 108.900000 -56.000000
69.835000 107.300000 -56.000000
69.594000 105.690000 -56.000000
69.419000 104.080000 -56.000000
69.334000 102.460000 -56.000000
69.363000 100.830000 -56.000000
69.508000 99.217000 -56.000000
69.747000 97.611000 -56.000000
70.064000 96.019000 -56.000000
70.447000 94.442000 -56.000000
70.893000 92.880000 -56.000000
71.476000 91.366000 -56.000000
72.255000 89.941000 -56.000000
73.179000 88.607000 -56.000000
74.238000 87.375000 -56.000000
75.422000 86.265000 -56.000000
76.751000 85.333000 -56.000000
78.191000 84.582000 -56.000000
79.676000 83.927000 -56.000000
81.202000 83.374000 -56.000000
82.766000 82.939000 -56.000000
84.366000 82.664000 -56.000000
85.988000 82.589000 -56.000000
87.610000 82.658000 -56.000000
89.226000 82.809000 -56.000000
90.835000 83.026000 -56.000000
92.435000 83.299000 -56.000000
94.026000 83.623000 -56.000000
95.595000 84.039000 -56.000000
97.076000 84.705000 -56.000000
98.462000 85.550000 -56.000000
99.767000 86.515000 -56.000000
101.010000 87.563000 -56.000000
102.170000 88.700000 -56.000000
103.230000 89.924000 -56.000000
104.200000 91.225000 -56.000000
105.060000 92.602000 -56.000000
105.790000 94.056000 -56.000000
106.440000 95.544000 -56.000000
106.990000 97.069000 -56.000000
107.310000 98.660000 -56.000000
107.340000 100.280000 -56.000000
107.340000 101.910000 -56.000000
107.340000 103.530000 -56.000000
107.340000 105.150000 -56.000000
107.310000 106.780000 -56.000000
107.150000 108.390000 -56.000000
106.850000 109.990000 -56.000000
106.450000 111.560000 -56.000000
105.950000 113.110000 -56.000000
105.380000 114.630000 -56.000000
104.730000 116.110000 -56.000000
103.910000 117.510000 -56.000000
102.930000 118.810000 -56.000000
101.840000 120.010000 -56.000000
100.620000 121.080000 -56.000000
99.284000 122.000000 -56.000000
97.814000 122.700000 -56.000000
96.281000 123.230000 -56.000000
94.724000 123.690000 -56.000000
93.146000 124.070000 -56.000000
91.550000 124.370000 -56.000000
91.101000 130.230000 -48.000000
88.981000 130.410000 -48.000000
88.981000 130.410000 -48.000000
86.853000 130.380000 -48.000000
84.726000 130.290000 -48.000000
82.603000 130.150000 -48.000000
80.483000 129.960000 -48.000000
78.369000 129.700000 -48.000000
76.322000 129.120000 -48.000000
74.568000 127.920000 -48.000000
73.076000 126.400000 -48.000000
71.758000 124.730000 -48.000000
70.551000 122.980000 -48.000000
69.410000 121.180000 -48.000000
68.283000 119.380000 -48.000000
67.142000 117.580000 -48.000000
66.037000 115.760000 -48.000000
65.029000 113.890000 -48.000000
64.194000 111.930000 -48.000000
63.637000 109.870000 -48.000000
63.414000 107.760000 -48.000000
63.278000 105.630000 -48.000000
63.178000 103.510000 -48.000000
63.118000 101.380000 -48.000000
63.111000 99.252000 -48.000000
63.340000 97.136000 -48.000000
63.812000 95.061000 -48.000000
64.439000 93.027000 -48.000000
65.146000 91.019000 -48.000000
65.883000 89.023000 -48.000000
66.708000 87.061000 -48.000000
67.652000 85.154000 -48.000000
68.750000 83.331000 -48.000000
70.072000 81.663000 -48.000000
71.740000 80.341000 -48.000000
73.670000 79.446000 -48.000000
75.683000 78.755000 -48.000000
77.734000 78.188000 -48.000000
79.805000 77.698000 -48.000000
81.886000 77.249000 -48.000000
83.966000 76.799000 -48.000000
86.044000 76.338000 -48.000000
88.140000 75.970000 -48.000000
90.263000 75.822000 -48.000000
92.381000 76.027000 -48.000000
94.451000 76.522000 -48.000000
96.465000 77.207000 -48.000000
98.436000 78.010000 -48.000000
100.380000 78.873000 -48.000000
102.260000 79.879000 -48.000000
104.030000 81.058000 -48.000000
105.670000 82.416000 -48.000000
107.100000 83.993000 -48.000000
108.220000 85.797000 -48.000000
109.190000 87.695000 -48.000000
110.010000 89.657000 -48.000000
110.700000 91.671000 -48.000000
111.240000 93.729000 -48.000000
111.600000 95.827000 -48.000000
111.820000 97.943000 -48.000000
112.020000 100.060000 -48.000000
112.180000 102.180000 -48.000000
112.310000 104.310000 -48.000000
112.390000 106.440000 -48.000000
112.430000 108.560000 -48.000000
112.370000 110.690000 -48.000000
112.180000 112.810000 -48.000000
111.860000 114.910000 -48.000000
111.420000 117.000000 -48.000000
110.860000 119.050000 -48.000000
109.980000 120.990000 -48.000000
108.520000 122.530000 -48.000000
106.790000 123.760000 -48.000000
104.930000 124.810000 -48.000000
103.020000 125.740000 -48.000000
101.080000 126.610000 -48.000000
99.130000 127.470000 -48.000000
97.178000 128.320000 -48.000000
95.200000 129.100000 -48.000000
93.177000 129.760000 -48.000000
92.708000 132.840000 -40.000000
90.300000 133.200000 -40.000000
90.300000 133.200000 -40.000000
87.868000 133.340000 -40.000000
85.436000 133.220000 -40.000000
83.018000 132.930000 -40.000000
80.618000 132.520000 -40.000000
78.300000 131.770000 -40.000000
76.152000 130.620000 -40.000000
74.153000 129.230000 -40.000000
72.258000 127.700000 -40.000000
70.420000 126.110000 -40.000000
68.590000 124.500000 -40.000000
66.787000 122.860000 -40.000000
65.053000 121.150000 -40.000000
63.430000 119.340000 -40.000000
61.978000 117.380000 -40.000000
60.795000 115.250000 -40.000000
59.865000 113.000000 -40.000000
59.019000 110.720000 -40.000000
58.285000 108.400000 -40.000000
57.696000 106.030000 -40.000000
57.305000 103.630000 -40.000000
57.174000 101.200000 -40.000000
57.299000 98.767000 -40.000000
57.590000 96.349000 -40.000000
58.003000 93.949000 -40.000000
58.520000 91.569000 -40.000000
59.323000 89.270000 -40.000000
60.410000 87.091000 -40.000000
61.704000 85.027000 -40.000000
63.161000 83.076000 -40.000000
64.754000 81.234000 -40.000000
66.463000 79.499000 -40.000000
68.290000 77.889000 -40.000000
70.231000 76.417000 -40.000000
72.309000 75.149000 -40.000000
74.551000 74.198000 -40.000000
76.939000 73.718000 -40.000000
79.353000 73.400000 -40.000000
81.775000 73.140000 -40.000000
84.201000 72.934000 -40.000000
86.632000 72.786000 -40.000000
89.066000 72.700000 -40.000000
91.501000 72.719000 -40.000000
93.900000 73.138000 -40.000000
96.206000 73.920000 -40.000000
98.420000 74.935000 -40.000000
100.560000 76.096000 -40.000000
102.660000 77.331000 -40.000000
104.730000 78.609000 -40.000000
106.690000 80.056000 -40.000000
108.520000 81.670000 -40.000000
110.180000 83.444000 -40.000000
111.660000 85.381000 -40.000000
113.010000 87.404000 -40.000000
114.250000 89.505000 -40.000000
115.320000 91.692000 -40.000000
116.170000 93.973000 -40.000000
116.730000 96.343000 -40.000000
117.150000 98.742000 -40.000000
117.520000 101.150000 -40.000000
117.820000 103.570000 -40.000000
118.050000 105.990000 -40.000000
118.200000 108.420000 -40.000000
118.210000 110.860000 -40.000000
117.910000 113.270000 -40.000000
117.300000 115.630000 -40.000000
116.460000 117.920000 -40.000000
115.430000 120.120000 -40.000000
114.170000 122.210000 -40.000000
112.530000 124.010000 -40.000000
110.640000 125.550000 -40.000000
108.620000 126.900000 -40.000000
106.490000 128.090000 -40.000000
104.290000 129.120000 -40.000000
102.020000 130.020000 -40.000000
99.731000 130.850000 -40.000000
97.421000 131.620000 -40.000000
95.081000 132.290000 -40.000000
91.807000 134.090000 -32.000000
89.318000 134.240000 -32.000000
89.318000 134.240000 -32.000000
86.825000 134.300000 -32.000000
84.339000 134.090000 -32.000000
81.898000 133.580000 -32.000000
79.508000 132.870000 -32.000000
77.159000 132.040000 -32.000000
74.891000 131.000000 -32.000000
72.794000 129.650000 -32.000000
70.847000 128.090000 -32.000000
69.013000 126.400000 -32.000000
67.257000 124.630000 -32.000000
65.543000 122.820000 -32.000000
63.832000 121.010000 -32.000000
62.075000 119.240000 -32.000000
60.334000 117.450000 -32.000000
58.741000 115.540000 -32.000000
57.494000 113.380000 -32.000000
56.755000 111.000000 -32.000000
56.153000 108.580000 -32.000000
55.685000 106.130000 -32.000000
55.380000 103.650000 -32.000000
55.294000 101.160000 -32.000000
55.493000 98.674000 -32.000000
55.931000 96.219000 -32.000000
56.542000 93.801000 -32.000000
57.277000 91.419000 -32.000000
58.100000 89.065000 -32.000000
59.083000 86.773000 -32.000000
60.290000 84.591000 -32.000000
61.691000 82.528000 -32.000000
63.289000 80.614000 -32.000000
65.100000 78.900000 -32.000000
67.179000 77.524000 -32.000000
69.413000 76.415000 -32.000000
71.728000 75.488000 -32.000000
74.090000 74.690000 -32.000000
76.482000 73.986000 -32.000000
78.890000 73.338000 -32.000000
81.299000 72.694000 -32.000000
83.726000 72.123000 -32.000000
86.189000 71.730000 -32.000000
88.681000 71.654000 -32.000000
91.147000 72.024000 -32.000000
93.534000 72.746000 -32.000000
95.841000 73.691000 -32.000000
98.092000 74.765000 -32.000000
100.320000 75.890000 -32.000000
102.530000 77.033000 -32.000000
104.680000 78.296000 -32.000000
106.740000 79.706000 -32.000000
108.660000 81.299000 -32.000000
110.370000 83.112000 -32.000000
111.960000 85.034000 -32.000000
113.460000 87.025000 -32.000000
114.840000 89.103000 -32.000000
116.030000 91.291000 -32.000000
116.960000 93.606000 -32.000000
117.500000 96.041000 -32.000000
117.560000 98.534000 -32.000000
117.550000 101.030000 -32.000000
117.530000 103.520000 -32.000000
117.500000 106.010000 -32.000000
117.460000 108.510000 -32.000000
117.400000 111.000000 -32.000000
117.000000 113.460000 -32.000000
116.150000 115.810000 -32.000000
115.010000 118.020000 -32.000000
113.690000 120.140000 -32.000000
112.270000 122.190000 -32.000000
110.790000 124.200000 -32.000000
109.230000 126.140000 -32.000000
107.570000 128.000000 -32.000000
105.760000 129.720000 -32.000000
103.800000 131.250000 -32.000000
101.620000 132.470000 -32.000000
99.229000 133.180000 -32.000000
96.765000 133.560000 -32.000000
94.290000 133.860000 -32.000000
91.768000 135.900000 -24.000000
89.102000 136.010000 -24.000000
89.102000 136.010000 -24.000000
86.438000 135.850000 -24.000000
83.801000 135.450000 -24.000000
81.193000 134.880000 -24.000000
78.610000 134.210000 -24.000000
76.105000 133.290000 -24.000000
73.717000 132.100000 -24.000000
71.439000 130.710000 -24.000000
69.260000 129.170000 -24.000000
67.170000 127.510000 -24.000000
65.156000 125.760000 -24.000000
63.209000 123.930000 -24.000000
61.325000 122.040000 -24.000000
59.546000 120.050000 -24.000000
57.929000 117.930000 -24.000000
56.559000 115.640000 -24.000000
55.590000 113.150000 -24.000000
55.009000 110.550000 -24.000000
54.540000 107.920000 -24.000000
54.194000 105.280000 -24.000000
54.005000 102.610000 -24.000000
54.031000 99.945000 -24.000000
54.290000 97.289000 -24.000000
54.736000 94.658000 -24.000000
55.329000 92.056000 -24.000000
56.037000 89.484000 -24.000000
56.832000 86.936000 -24.000000
57.722000 84.420000 -24.000000
58.846000 82.000000 -24.000000
60.201000 79.701000 -24.000000
61.785000 77.554000 -24.000000
63.624000 75.620000 -24.000000
65.776000 74.042000 -24.000000
68.087000 72.708000 -24.000000
70.501000 71.571000 -24.000000
73.004000 70.644000 -24.000000
75.588000 69.978000 -24.000000
78.237000 69.656000 -24.000000
80.901000 69.494000 -24.000000
83.567000 69.374000 -24.000000
86.234000 69.304000 -24.000000
88.903000 69.316000 -24.000000
91.562000 69.545000 -24.000000
94.195000 69.977000 -24.000000
96.798000 70.564000 -24.000000
99.371000 71.272000 -24.000000
101.900000 72.121000 -24.000000
104.290000 73.301000 -24.000000
106.530000 74.754000 -24.000000
108.620000 76.412000 -24.000000
110.560000 78.247000 -24.000000
112.320000 80.251000 -24.000000
113.940000 82.373000 -24.000000
115.460000 84.570000 -24.000000
116.800000 86.874000 -24.000000
117.880000 89.317000 -24.000000
118.530000 91.905000 -24.000000
118.620000 94.572000 -24.000000
118.620000 97.241000 -24.000000
118.620000 99.909000 -24.000000
118.610000 102.580000 -24.000000
118.610000 105.250000 -24.000000
118.600000 107.910000 -24.000000
118.410000 110.580000 -24.000000
117.810000 113.180000 -24.000000
116.910000 115.690000 -24.000000
115.820000 118.130000 -24.000000
114.630000 120.510000 -24.000000
113.360000 122.860000 -24.000000
111.970000 125.140000 -24.000000
110.430000 127.320000 -24.000000
108.730000 129.380000 -24.000000
106.830000 131.250000 -24.000000
104.680000 132.830000 -24.000000
102.230000 133.890000 -24.000000
99.659000 134.600000 -24.000000
97.053000 135.170000 -24.000000
94.421000 135.610000 -24.000000
93.556000 137.700000 -16.000000
90.813000 138.370000 -16.000000
88.002000 138.650000 -16.000000
88.002000 138.650000 -16.000000
85.182000 138.490000 -16.000000
82.385000 138.100000 -16.000000
79.621000 137.520000 -16.000000
76.892000 136.790000 -16.000000
74.201000 135.940000 -16.000000
71.644000 134.740000 -16.000000
69.344000 133.100000 -16.000000
67.247000 131.210000 -16.000000
65.295000 129.160000 -16.000000
63.437000 127.040000 -16.000000
61.679000 124.830000 -16.000000
60.065000 122.510000 -16.000000
58.583000 120.100000 -16.000000
57.230000 117.630000 -16.000000
56.005000 115.080000 -16.000000
54.807000 112.520000 -16.000000
53.613000 109.960000 -16.000000
52.533000 107.350000 -16.000000
51.686000 104.660000 -16.000000
51.235000 101.870000 -16.000000
51.271000 99.048000 -16.000000
51.538000 96.236000 -16.000000
51.978000 93.447000 -16.000000
52.565000 90.684000 -16.000000
53.286000 87.953000 -16.000000
54.145000 85.263000 -16.000000
55.347000 82.708000 -16.000000
57.046000 80.452000 -16.000000
59.037000 78.448000 -16.000000
61.214000 76.650000 -16.000000
63.534000 75.039000 -16.000000
65.968000 73.607000 -16.000000
68.468000 72.293000 -16.000000
71.019000 71.081000 -16.000000
73.633000 70.011000 -16.000000
76.319000 69.138000 -16.000000
79.076000 68.527000 -16.000000
81.888000 68.263000 -16.000000
84.710000 68.157000 -16.000000
87.533000 68.070000 -16.000000
90.357000 68.000000 -16.000000
93.180000 67.944000 -16.000000
96.004000 67.905000 -16.000000
98.829000 67.882000 -16.000000
101.650000 68.021000 -16.000000
104.300000 68.987000 -16.000000
106.690000 70.500000 -16.000000
108.860000 72.296000 -16.000000
110.920000 74.228000 -16.000000
112.870000 76.274000 -16.000000
114.640000 78.474000 -16.000000
116.200000 80.828000 -16.000000
117.500000 83.338000 -16.000000
118.410000 86.011000 -16.000000
119.070000 88.756000 -16.000000
119.640000 91.523000 -16.000000
120.110000 94.307000 -16.000000
120.470000 97.109000 -16.000000
120.690000 99.924000 -16.000000
120.750000 102.750000 -16.000000
120.570000 105.570000 -16.000000
120.190000 108.360000 -16.000000
119.650000 111.140000 -16.000000
119.000000 113.880000 -16.000000
118.270000 116.610000 -16.000000
117.310000 119.270000 -16.000000
116.070000 121.810000 -16.000000
114.590000 124.210000 -16.000000
112.850000 126.430000 -16.000000
110.850000 128.430000 -16.000000
108.680000 130.240000 -16.000000
106.370000 131.870000 -16.000000
103.960000 133.330000 -16.000000
101.440000 134.610000 -16.000000
98.843000 135.720000 -16.000000
96.225000 136.780000 -16.000000
92.307000 137.220000 -8.000000
89.546000 137.790000 -8.000000
86.735000 138.010000 -8.000000
86.735000 138.010000 -8.000000
83.921000 137.830000 -8.000000
81.138000 137.380000 -8.000000
78.394000 136.740000 -8.000000
75.688000 135.940000 -8.000000
73.019000 135.040000 -8.000000
70.473000 133.820000 -8.000000
68.099000 132.300000 -8.000000
65.880000 130.560000 -8.000000
63.807000 128.650000 -8.000000
61.876000 126.600000 -8.000000
60.104000 124.410000 -8.000000
58.501000 122.090000 -8.000000
57.087000 119.650000 -8.000000
55.914000 117.080000 -8.000000
55.061000 114.400000 -8.000000
54.347000 111.670000 -8.000000
53.720000 108.920000 -8.000000
53.217000 106.150000 -8.000000
52.884000 103.350000 -8.000000
52.770000 100.530000 -8.000000
52.818000 97.710000 -8.000000
52.939000 94.893000 -8.000000
53.126000 92.080000 -8.000000
53.380000 89.272000 -8.000000
53.785000 86.482000 -8.000000
54.753000 83.834000 -8.000000
56.174000 81.400000 -8.000000
57.876000 79.151000 -8.000000
59.768000 77.061000 -8.000000
61.804000 75.112000 -8.000000
63.961000 73.296000 -8.000000
66.224000 71.614000 -8.000000
68.596000 70.091000 -8.000000
71.094000 68.783000 -8.000000
73.729000 67.779000 -8.000000
76.491000 67.215000 -8.000000
79.295000 66.927000 -8.000000
82.105000 66.700000 -8.000000
84.920000 66.537000 -8.000000
87.738000 66.448000 -8.000000
90.558000 66.457000 -8.000000
93.373000 66.601000 -8.000000
96.180000 66.866000 -8.000000
98.975000 67.240000 -8.000000
101.750000 67.723000 -8.000000
104.470000 68.467000 -8.000000
106.990000 69.741000 -8.000000
109.280000 71.374000 -8.000000
111.360000 73.278000 -8.000000
113.200000 75.417000 -8.000000
114.700000 77.804000 -8.000000
115.920000 80.345000 -8.000000
116.960000 82.966000 -8.000000
117.820000 85.650000 -8.000000
118.500000 88.387000 -8.000000
118.950000 91.170000 -8.000000
119.150000 93.982000 -8.000000
119.280000 96.798000 -8.000000
119.380000 99.616000 -8.000000
119.450000 102.430000 -8.000000
119.480000 105.250000 -8.000000
119.390000 108.070000 -8.000000
118.910000 110.850000 -8.000000
118.110000 113.550000 -8.000000
117.090000 116.180000 -8.000000
115.910000 118.740000 -8.000000
114.620000 121.250000 -8.000000
113.110000 123.630000 -8.000000
111.380000 125.860000 -8.000000
109.470000 127.930000 -8.000000
107.390000 129.830000 -8.000000
105.150000 131.550000 -8.000000
102.750000 133.030000 -8.000000
100.220000 134.270000 -8.000000
97.641000 135.400000 -8.000000
95.005000 136.410000 -8.000000
93.089000 136.990000 0.000000
90.276000 137.650000 0.000000
87.399000 137.910000 0.000000
87.399000 137.910000 0.000000
84.509000 137.870000 0.000000
81.621000 137.770000 0.000000
78.736000 137.620000 0.000000
75.864000 137.300000 0.000000
73.102000 136.450000 0.000000
70.497000 135.200000 0.000000
68.042000 133.670000 0.000000
65.724000 131.950000 0.000000
63.518000 130.080000 0.000000
61.417000 128.100000 0.000000
59.482000 125.950000 0.000000
57.717000 123.660000 0.000000
56.151000 121.230000 0.000000
54.824000 118.670000 0.000000
53.822000 115.960000 0.000000
53.163000 113.140000 0.000000
52.614000 110.310000 0.000000
52.161000 107.450000 0.000000
51.825000 104.580000 0.000000
51.634000 101.700000 0.000000
51.619000 98.810000 0.000000
51.774000 95.925000 0.000000
52.065000 93.050000 0.000000
52.471000 90.189000 0.000000
52.979000 87.344000 0.000000
53.600000 84.522000 0.000000
54.601000 81.812000 0.000000
55.996000 79.281000 0.000000
57.679000 76.932000 0.000000
59.600000 74.774000 0.000000
61.742000 72.834000 0.000000
64.127000 71.203000 0.000000
66.680000 69.849000 0.000000
69.341000 68.723000 0.000000
72.109000 67.895000 0.000000
74.968000 67.473000 0.000000
77.855000 67.347000 0.000000
80.743000 67.255000 0.000000
83.631000 67.181000 0.000000
86.521000 67.127000 0.000000
89.410000 67.091000 0.000000
92.300000 67.073000 0.000000
95.188000 67.174000 0.000000
98.025000 67.719000 0.000000
100.780000 68.591000 0.000000
103.470000 69.657000 0.000000
106.110000 70.818000 0.000000
108.660000 72.178000 0.000000
111.060000 73.786000 0.000000
113.260000 75.659000 0.000000
115.130000 77.862000 0.000000
116.710000 80.285000 0.000000
118.100000 82.814000 0.000000
119.310000 85.439000 0.000000
120.300000 88.155000 0.000000
120.990000 90.960000 0.000000
121.310000 93.832000 0.000000
121.430000 96.719000 0.000000
121.530000 99.607000 0.000000
121.600000 102.500000 0.000000
121.650000 105.390000 0.000000
121.660000 108.270000 0.000000
121.440000 111.160000 0.000000
120.760000 113.960000 0.000000
119.750000 116.670000 0.000000
118.490000 119.270000 0.000000
117.060000 121.780000 0.000000
115.370000 124.120000 0.000000
113.350000 126.200000 0.000000
111.140000 128.050000 0.000000
108.780000 129.710000 0.000000
106.310000 131.220000 0.000000
103.760000 132.580000 0.000000
101.140000 133.800000 0.000000
98.500000 134.970000 0.000000
95.825000 136.060000 0.000000
3 0 80 2
3 0 2 3
3 0 3 4
3 0 4 5
3 0 5 6
3 0 6 7
3 0 7 8
3 0 8 9
3 0 9 10
3 0 10 11
3 0 11 12
3 0 12 13
3 0 13 14
3 0 14 15
3 0 15 16
3 0 16 17
3 0 17 18
3 0 18 19
3 0 19 20
3 0 20 21
3 0 21 22
3 0 22 23
3 0 23 24
3 0 24 25
3 0 25 26
3 0 26 27
3 0 27 28
3 0 28 29
3 0 29 30
3 0 30 31
3 0 31 32
3 0 32 33
3 0 33 34
3 0 34 35
3 0 35 36
3 0 36 37
3 0 37 38
3 0 38 39
3 0 39 40
3 0 40 41
3 0 41 42
3 0 42 43
3 0 43 44
3 0 44 45
3 0 45 46
3 0 46 47
3 0 47 48
3 0 48 49
3 0 49 50
3 0 50 51
3 0 51 52
3 0 52 53
3 0 53 54
3 0 54 55
3 0 55 56
3 0 56 57
3 0 57 58
3 0 58 59
3 0 59 60
3 0 60 61
3 0 61 62
3 0 62 63
3 0 63 64
3 0 64 65
3 0 65 66
3 0 66 67
3 0 67 68
3 0 68 69
3 0 69 70
3 0 70 71
3 0 71 72
3 0 72 73
3 0 73 74
3 0 74 75
3 0 75 76
3 0 76 77
3 0 77 78
3 0 78 79
3 0 79 80
3 80 81 2
3 2 81 83
3 2 83 3
3 3 83 84
3 3 84 4
3 4 84 85
3 4 85 5
3 5 85 86
3 5 86 6
3 6 86 87
3 6 87 7
3 7 87 88
3 7 88 8
3 8 88 89
3 8 89 9
3 9 89 90
3 9 90 10
3 10 90 91
3 10 91 11
3 11 91 92
3 11 92 12
3 12 92 93
3 12 93 13
3 13 93 94
3 13 94 14
3 14 94 95
3 14 95 15
3 15 95 96
3 15 96 16
3 16 96 97
3 16 97 17
3 17 97 98
3 17 98 18
3 18 98 99
3 18 99 19
3 19 99 100
3 19 100 20
3 20 100 101
3 20 101 21
3 21 101 102
3 21 102 22
3 22 102 103
3 22 103 23
3 23 103 104
3 23 104 24
3 24 104 105
3 24 105 25
3 25 105 106
3 25 106 26
3 26 106 107
3 26 107 27
3 27 107 108
3 27 108 28
3 28 108 109
3 28 109 29
3 29 109 110
3 29 110 30
3 30 110 111
3 30 111 31
3 31 111 112
3 31 112 32
3 32 112 113
3 32 113 33
3 33 113 114
3 33 114 34
3 34 114 115
3 34 115 35
3 35 115 116
3 35 116 36
3 36 116 117
3 36 117 37
3 37 117 118
3 37 118 38
3 38 118 119
3 38 119 39
3 39 119 120
3 39 120 40
3 40 120 121
3 40 121 41
3 41 121 122
3 41 122 42
3 42 122 123
3 42 123 43
3 43 123 124
3 43 124 44
3 44 124 125
3 44 125 45
3 45 125 126
3 45 126 46
3 46 126 127
3 46 127 47
3 47 127 128
3 47 128 48
3 48 128 129
3 48 129 49
3 49 129 130
3 49 130 50
3 50 130 131
3 50 131 51
3 51 131 132
3 51 132 52
3 52 132 133
3 52 133 53
3 53 133 134
3 53 134 54
3 54 134 135
3 54 135 55
3 55 135 136
3 55 136 56
3 56 136 137
3 56 137 57
3 57 137 138
3 57 138 58
3 58 138 139
3 58 139 59
3 59 139 140
3 59 140 60
3 60 140 141
3 60 141 61
3 61 141 142
3 61 142 62
3 62 142 143
3 62 143 63
3 63 143 144
3 63 144 64
3 64 144 145
3 64 145 65
3 65 145 146
3 65 146 66
3 66 146 147
3 66 147 67
3 67 147 148
3 67 148 68
3 68 148 149
3 68 149 69
3 69 149 150
3 69 150 70
3 70 150 151
3 70 151 71
3 71 151 152
3 71 152 72
3 72 152 153
3 72 153 73
3 73 153 154
3 73 154 74
3 74 154 155
3 74 155 75
3 75 155 156
3 75 156 76
3 76 156 157
3 76 157 77
3 77 157 158
3 77 158 78
3 78 158 159
3 78 159 79
3 79 159 160
3 79 160 80
3 80 160 81
3 81 161 162
3 81 162 83
3 83 162 164
3 83 164 84
3 84 164 165
3 84 165 85
3 85 165 166
3 85 166 86
3 86 166 167
3 86 167 87
3 87 167 168
3 87 168 88
3 88 168 169
3 88 169 89
3 89 169 170
3 89 170 90
3 90 170 171
3 90 171 91
3 91 171 172
3 91 172 92
3 92 172 173
3 92 173 93
3 93 173 174
3 93 174 94
3 94 174 175
3 94 175 95
3 95 175 176
3 95 176 96
3 96 176 177
3 96 177 97
3 97 177 178
3 97 178 98
3 98 178 179
3 98 179 99
3 99 179 180
3 99 180 100
3 100 180 181
3 100 181 101
3 101 181 182
3 101 182 102
3 102 182 183
3 102 183 103
3 103 183 184
3 103 184 104
3 104 184 185
3 104 185 105
3 105 185 186
3 105 186 106
3 106 186 187
3 106 187 107
3 107 187 188
3 107 188 108
3 108 188 189
3 108 189 109
3 109 189 190
3 109 190 110
3 110 190 191
3 110 191 111
3 111 191 192
3 111 192 112
3 112 192 193
3 112 193 113
3 113 193 194
3 113 194 114
3 114 194 195
3 114 195 115
3 115 195 196
3 115 196 116
3 116 196 197
3 116 197 117
3 117 197 198
3 117 198 118
3 118 198 199
3 118 199 119
3 119 199 200
3 119 200 120
3 120 200 201
3 120 201 121
3 121 201 202
3 121 202 122
3 122 202 203
3 122 203 123
3 123 203 204
3 123 204 124
3 124 204 205
3 124 205 125
3 125 205 206
3 125 206 126
3 126 206 207
3 126 207 127
3 127 207 208
3 127 208 128
3 128 208 209
3 128 209 129
3 129 209 210
3 129 210 130
3 130 210 211
3 130 211 131
3 131 211 212
3 131 212 132
3 132 212 213
3 132 213 133
3 133 213 214
3 133 214 134
3 134 214 215
3 134 215 135
3 135 215 216
3 135 216 136
3 136 216 217
3 136 217 137
3 137 217 218
3 137 218 138
3 138 218 219
3 138 219 139
3 139 219 220
3 139 220 140
3 140 220 221
3 140 221 141
3 141 221 222
3 141 222 142
3 142 222 223
3 142 223 143
3 143 223 224
3 143 224 144
3 144 224 225
3 144 225 145
3 145 225 226
3 145 226 146
3 146 226 227
3 146 227 147
3 147 227 228
3 147 228 148
3 148 228 229
3 148 229 149
3 149 229 230
3 149 230 150
3 150 230 231
3 150 231 151
3 151 231 232
3 151 232 152
3 152 232 233
3 152 233 153
3 153 233 234
3 153 234 154
3 154 234 235
3 154 235 155
3 155 235 236
3 155 236 156
3 156 236 237
3 156 237 157
3 157 237 238
3 157 238 158
3 158 238 239
3 158 239 159
3 159 239 240
3 159 240 160
3 160 240 161
3 160 161 81
3 161 241 242
3 161 242 162
3 162 242 244
3 162 244 164
3 164 244 245
3 164 245 165
3 165 245 246
3 165 246 166
3 166 246 247
3 166 247 167
3 167 247 248
3 167 248 168
3 168 248 249
3 168 249 169
3 169 249 250
3 169 250 170
3 170 250 251
3 170 251 171
3 171 251 252
3 171 252 172
3 172 252 253
3 172 253 173
3 173 253 254
3 173 254 174
3 174 254 255
3 174 255 175
3 175 255 256
3 175 256 176
3 176 256 257
3 176 257 177
3 177 257 258
3 177 258 178
3 178 258 259
3 178 259 179
3 179 259 260
3 179 260 180
3 180 260 261
3 180 261 181
3 181 261 262
3 181 262 182
3 182 262 263
3 182 263 183
3 183 263 264
3 183 264 184
3 184 264 265
3 184 265 185
3 185 265 266
3 185 266 186
3 186 266 267
3 186 267 187
3 187 267 268
3 187 268 188
3 188 268 269
3 188 269 189
3 189 269 270
3 189 270 190
3 190 270 271
3 190 271 191
3 191 271 272
3 191 272 192
3 192 272 273
3 192 273 193
3 193 273 274
3 193 274 194
3 194 274 275
3 194 275 195
3 195 275 276
3 195 276 196
3 196 276 277
3 196 277 197
3 197 277 278
3 197 278 198
3 198 278 279
3 198 279 199
3 199 279 280
3 199 280 200
3 200 280 281
3 200 281 201
3 201 281 282
3 201 282 202
3 202 282 283
3 202 283 203
3 203 283 284
3 203 284 204
3 204 284 285
3 204 285 205
3 205 285 286
3 205 286 206
3 206 286 287
3 206 287 207
3 207 287 288
3 207 288 208
3 208 288 289
3 208 289 209
3 209 289 290
3 209 290 210
3 210 290 291
3 210 291 211
3 211 291 292
3 211 292 212
3 212 292 293
3 212 293 213
3 213 293 294
3 213 294 214
3 214 294 295
3 214 295 215
3 215 295 296
3 215 296 216
3 216 296 297
3 216 297 217
3 217 297 298
3 217 298 218
3 218 298 299
3 218 299 219
3 219 299 300
3 219 300 220
3 220 300 301
3 220 301 221
3 221 301 302
3 221 302 222
3 222 302 303
3 222 303 223
3 223 303 304
3 223 304 224
3 224 304 305
3 224 305 225
3 225 305 306
3 225 306 226
3 226 306 307
3 226 307 227
3 227 307 308
3 227 308 228
3 228 308 309
3 228 309 229
3 229 309 310
3 229 310 230
3 230 310 311
3 230 311 231
3 231 311 312
3 231 312 232
3 232 312 313
3 232 313 233
3 233 313 314
3 233 314 234
3 234 314 315
3 234 315 235
3 235 315 316
3 235 316 236
3 236 316 317
3 236 317 237
3 237 317 318
3 237 318 238
3 238 318 319
3 238 319 239
3 239 319 320
3 239 320 240
3 240 320 241
3 240 241 161
3 241 321 322
3 241 322 242
3 242 322 324
3 242 324 244
3 244 324 325
3 244 325 245
3 245 325 326
3 245 326 246
3 246 326 327
3 246 327 247
3 247 327 328
3 247 328 248
3 248 328 329
3 248 329 249
3 249 329 330
3 249 330 250
3 250 330 331
3 250 331 251
3 251 331 332
3 251 332 252
3 252 332 333
3 252 333 253
3 253 333 334
3 253 334 254
3 254 334 335
3 254 335 255
3 255 335 336
3 255 336 256
3 256 336 337
3 256 337 257
3 257 337 338
3 257 338 258
3 258 338 339
3 258 339 259
3 259 339 340
3 259 340 260
3 260 340 341
3 260 341 261
3 261 341 342
3 261 342 262
3 262 342 343
3 262 343 263
3 263 343 344
3 263 344 264
3 264 344 345
3 264 345 265
3 265 345 346
3 265 346 266
3 266 346 347
3 266 347 267
3 267 347 348
3 267 348 268
3 268 348 349
3 268 349 269
3 269 349 350
3 269 350 270
3 270 350 351
3 270 351 271
3 271 351 352
3 271 352 272
3 272 352 353
3 272 353 273
3 273 353 354
3 273 354 274
3 274 354 355
3 274 355 275
3 275 355 356
3 275 356 276
3 276 356 357
3 276 357 277
3 277 357 358
3 277 358 278
3 278 358 359
3 278 359 279
3 279 359 360
3 279 360 280
3 280 360 361
3 280 361 281
3 281 361 362
3 281 362 282
3 282 362 363
3 282 363 283
3 283 363 364
3 283 364 284
3 284 364 365
3 284 365 285
3 285 365 366
3 285 366 286
3 286 366 367
3 286 367 287
3 287 367 368
3 287 368 288
3 288 368 369
3 288 369 289
3 289 369 370
3 289 370 290
3 290 370 371
3 290 371 291
3 291 371 372
3 291 372 292
3 292 372 373
3 292 373 293
3 293 373 374
3 293 374 294
3 294 374 375
3 294 375 295
3 295 375 376
3 295 376 296
3 296 376 377
3 296 377 297
3 297 377 378
3 297 378 298
3 298 378 379
3 298 379 299
3 299 379 380
3 299 380 300
3 300 380 381
3 300 381 301
3 301 381 382
3 301 382 302
3 302 382 383
3 302 383 303
3 303 383 384
3 303 384 304
3 304 384 385
3 304 385 305
3 305 385 386
3 305 386 306
3 306 386 387
3 306 387 307
3 307 387 388
3 307 388 308
3 308 388 389
3 308 389 309
3 309 389 390
3 309 390 310
3 310 390 391
3 310 391 311
3 311 391 392
3 311 392 312
3 312 392 393
3 312 393 313
3 313 393 394
3 313 394 314
3 314 394 395
3 314 395 315
3 315 395 396
3 315 396 316
3 316 396 397
3 316 397 317
3 317 397 398
3 317 398 318
3 318 398 399
3 318 399 319
3 319 399 400
3 319 400 320
3 320 400 321
3 320 321 241
3 321 401 402
3 321 402 322
3 322 402 404
3 322 404 324
3 324 404 405
3 324 405 325
3 325 405 406
3 325 406 326
3 326 406 407
3 326 407 327
3 327 407 408
3 327 408 328
3 328 408 409
3 328 409 329
3 329 409 410
3 329 410 330
3 330 410 411
3 330 411 331
3 331 411 412
3 331 412 332
3 332 412 413
3 332 413 333
3 333 413 414
3 333 414 334
3 334 414 415
3 334 415 335
3 335 415 416
3 335 416 336
3 336 416 417
3 336 417 337
3 337 417 418
3 337 418 338
3 338 418 419
3 338 419 339
3 339 419 420
3 339 420 340
3 340 420 421
3 340 421 341
3 341 421 422
3 341 422 342
3 342 422 423
3 342 423 343
3 343 423 424
3 343 424 344
3 344 424 425
3 344 425 345
3 345 425 426
3 345 426 346
3 346 426 427
3 346 427 347
3 347 427 428
3 347 428 348
3 348 428 429
3 348 429 349
3 349 429 430
3 349 430 350
3 350 430 431
3 350 431 351
3 351 431 432
3 351 432 352
3 352 432 433
3 352 433 353
3 353 433 434
3 353 434 354
3 354 434 435
3 354 435 355
3 355 435 436
3 355 436 356
3 356 436 437
3 356 437 357
3 357 437 438
3 357 438 358
3 358 438 439
3 358 439 359
3 359 439 440
3 359 440 360
3 360 440 441
3 360 441 361
3 361 441 442
3 361 442 362
3 362 442 443
3 362 443 363
3 363 443 444
3 363 444 364
3 364 444 445
3 364 445 365
3 365 445 446
3 365 446 366
3 366 446 447
3 366 447 367
3 367 447 448
3 367 448 368
3 368 448 449
3 368 449 369
3 369 449 450
3 369 450 370
3 370 450 451
3 370 451 371
3 371 451 452
3 371 452 372
3 372 452 453
3 372 453 373
3 373 453 454
3 373 454 374
3 374 454 455
3 374 455 375
3 375 455 456
3 375 456 376
3 376 456 457
3 376 457 377
3 377 457 458
3 377 458 378
3 378 458 459
3 378 459 379
3 379 459 460
3 379 460 380
3 380 460 461
3 380 461 381
3 381 461 462
3 381 462 382
3 382 462 463
3 382 463 383
3 383 463 464
3 383 464 384
3 384 464 465
3 384 465 385
3 385 465 466
3 385 466 386
3 386 466 467
3 386 467 387
3 387 467 468
3 387 468 388
3 388 468 469
3 388 469 389
3 389 469 470
3 389 470 390
3 390 470 471
3 390 471 391
3 391 471 472
3 391 472 392
3 392 472 473
3 392 473 393
3 393 473 474
3 393 474 394
3 394 474 475
3 394 475 395
3 395 475 476
3 395 476 396
3 396 476 477
3 396 477 397
3 397 477 478
3 397 478 398
3 398 478 479
3 398 479 399
3 399 479 480
3 399 480 400
3 400 480 401
3 400 401 321
3 401 481 482
3 401 482 402
3 402 482 483
3 402 483 404
3 404 483 485
3 404 485 405
3 405 485 486
3 405 486 406
3 406 486 487
3 406 487 407
3 407 487 488
3 407 488 408
3 408 488 489
3 408 489 409
3 409 489 490
3 409 490 410
3 410 490 491
3 410 491 411
3 411 491 492
3 411 492 412
3 412 492 493
3 412 493 413
3 413 493 494
3 413 494 414
3 414 494 495
3 414 495 415
3 415 495 496
3 415 496 416
3 416 496 497
3 416 497 417
3 417 497 498
3 417 498 418
3 418 498 499
3 418 499 419
3 419 499 500
3 419 500 420
3 420 500 501
3 420 501 421
3 421 501 502
3 421 502 422
3 422 502 503
3 422 503 423
3 423 503 504
3 423 504 424
3 424 504 505
3 424 505 425
3 425 505 506
3 425 506 426
3 426 506 507
3 426 507 427
3 427 507 508
3 427 508 428
3 428 508 509
3 428 509 429
3 429 509 510
3 429 510 430
3 430 510 511
3 430 511 431
3 431 511 512
3 431 512 432
3 432 512 513
3 432 513 433
3 433 513 514
3 433 514 434
3 434 514 515
3 434 515 435
3 435 515 516
3 435 516 436
3 436 516 517
3 436 517 437
3 437 517 518
3 437 518 438
3 438 518 519
3 438 519 439
3 439 519 520
3 439 520 440
3 440 520 521
3 440 521 441
3 441 521 522
3 441 522 442
3 442 522 523
3 442 523 443
3 443 523 524
3 443 524 444
3 444 524 525
3 444 525 445
3 445 525 526
3 445 526 446
3 446 526 527
3 446 527 447
3 447 527 528
3 447 528 448
3 448 528 529
3 448 529 449
3 449 529 530
3 449 530 450
3 450 530 531
3 450 531 451
3 451 531 532
3 451 532 452
3 452 532 533
3 452 533 453
3 453 533 534
3 453 534 454
3 454 534 535
3 454 535 455
3 455 535 536
3 455 536 456
3 456 536 537
3 456 537 457
3 457 537 538
3 457 538 458
3 458 538 539
3 458 539 459
3 459 539 540
3 459 540 460
3 460 540 541
3 460 541 461
3 461 541 542
3 461 542 462
3 462 542 543
3 462 543 463
3 463 543 544
3 463 544 464
3 464 544 545
3 464 545 465
3 465 545 546
3 465 546 466
3 466 546 547
3 466 547 467
3 467 547 548
3 467 548 468
3 468 548 549
3 468 549 469
3 469 549 550
3 469 550 470
3 470 550 551
3 470 551 471
3 471 551 552
3 471 552 472
3 472 552 553
3 472 553 473
3 473 553 554
3 473 554 474
3 474 554 555
3 474 555 475
3 475 555 556
3 475 556 476
3 476 556 557
3 476 557 477
3 477 557 558
3 477 558 478
3 478 558 559
3 478 559 479
3 479 559 560
3 479 560 480
3 480 560 481
3 480 481 401
3 481 561 562
3 481 562 482
3 482 562 563
3 482 563 483
3 483 563 565
3 483 565 485
3 485 565 566
3 485 566 486
3 486 566 567
3 486 567 487
3 487 567 568
3 487 568 488
3 488 568 569
3 488 569 489
3 489 569 570
3 489 570 490
3 490 570 571
3 490 571 491
3 491 571 572
3 491 572 492
3 492 572 573
3 492 573 493
3 493 573 574
3 493 574 494
3 494 574 575
3 494 575 495
3 495 575 576
3 495 576 496
3 496 576 577
3 496 577 497
3 497 577 578
3 497 578 498
3 498 578 579
3 498 579 499
3 499 579 580
3 499 580 500
3 500 580 581
3 500 581 501
3 501 581 582
3 501 582 502
3 502 582 583
3 502 583 503
3 503 583 584
3 503 584 504
3 504 584 585
3 504 585 505
3 505 585 586
3 505 586 506
3 506 586 587
3 506 587 507
3 507 587 588
3 507 588 508
3 508 588 589
3 508 589 509
3 509 589 590
3 509 590 510
3 510 590 591
3 510 591 511
3 511 591 592
3 511 592 512
3 512 592 593
3 512 593 513
3 513 593 594
3 513 594 514
3 514 594 595
3 514 595 515
3 515 595 596
3 515 596 516
3 516 596 597
3 516 597 517
3 517 597 598
3 517 598 518
3 518 598 599
3 518 599 519
3 519 599 600
3 519 600 520
3 520 600 601
3 520 601 521
3 521 601 602
3 521 602 522
3 522 602 603
3 522 603 523
3 523 603 604
3 523 604 524
3 524 604 605
3 524 605 525
3 525 605 606
3 525 606 526
3 526 606 607
3 526 607 527
3 527 607 608
3 527 608 528
3 528 608 609
3 528 609 529
3 529 609 610
3 529 610 530
3 530 610 611
3 530 611 531
3 531 611 612
3 531 612 532
3 532 612 613
3 532 613 533
3 533 613 614
3 533 614 534
3 534 614 615
3 534 615 535
3 535 615 616
3 535 616 536
3 536 616 617
3 536 617 537
3 537 617 618
3 537 618 538
3 538 618 619
3 538 619 539
3 539 619 620
3 539 620 540
3 540 620 621
3 540 621 541
3 541 621 622
3 541 622 542
3 542 622 623
3 542 623 543
3 543 623 624
3 543 624 544
3 544 624 625
3 544 625 545
3 545 625 626
3 545 626 546
3 546 626 627
3 546 627 547
3 547 627 628
3 547 628 548
3 548 628 629
3 548 629 549
3 549 629 630
3 549 630 550
3 550 630 631
3 550 631 551
3 551 631 632
3 551 632 552
3 552 632 633
3 552 633 553
3 553 633 634
3 553 634 554
3 554 634 635
3 554 635 555
3 555 635 636
3 555 636 556
3 556 636 637
3 556 637 557
3 557 637 638
3 557 638 558
3 558 638 639
3 558 639 559
3 559 639 640
3 559 640 560
3 560 640 561
3 560 561 481
3 561 641 642
3 561 642 562
3 562 642 643
3 562 643 563
3 563 643 645
3 563 645 565
3 565 645 646
3 565 646 566
3 566 646 647
3 566 647 567
3 567 647 648
3 567 648 568
3 568 648 649
3 568 649 569
3 569 649 650
3 569 650 570
3 570 650 651
3 570 651 571
3 571 651 652
3 571 652 572
3 572 652 653
3 572 653 573
3 573 653 654
3 573 654 574
3 574 654 655
3 574 655 575
3 575 655 656
3 575 656 576
3 576 656 657
3 576 657 577
3 577 657 658
3 577 658 578
3 578 658 659
3 578 659 579
3 579 659 660
3 579 660 580
3 580 660 661
3 580 661 581
3 581 661 662
3 581 662 582
3 582 662 663
3 582 663 583
3 583 663 664
3 583 664 584
3 584 664 665
3 584 665 585
3 585 665 666
3 585 666 586
3 586 666 667
3 586 667 587
3 587 667 668
3 587 668 588
3 588 668 669
3 588 669 589
3 589 669 670
3 589 670 590
3 590 670 671
3 590 671 591
3 591 671 672
3 591 672 592
3 592 672 673
3 592 673 593
3 593 673 674
3 593 674 594
3 594 674 675
3 594 675 595
3 595 675 676
3 595 676 596
3 596 676 677
3 596 677 597
3 597 677 678
3 597 678 598
3 598 678 679
3 598 679 599
3 599 679 680
3 599 680 600
3 600 680 681
3 600 681 601
3 601 681 682
3 601 682 602
3 602 682 683
3 602 683 603
3 603 683 684
3 603 684 604
3 604 684 685
3 604 685 605
3 605 685 686
3 605 686 606
3 606 686 687
3 606 687 607
3 607 687 688
3 607 688 608
3 608 688 689
3 608 689 609
3 609 689 690
3 609 690 610
3 610 690 691
3 610 691 611
3 611 691 692
3 611 692 612
3 612 692 693
3 612 693 613
3 613 693 694
3 613 694 614
3 614 694 695
3 614 695 615
3 615 695 696
3 615 696 616
3 616 696 697
3 616 697 617
3 617 697 698
3 617 698 618
3 618 698 699
3 618 699 619
3 619 699 700
3 619 700 620
3 620 700 701
3 620 701 621
3 621 701 702
3 621 702 622
3 622 702 703
3 622 703 623
3 623 703 704
3 623 704 624
3 624 704 705
3 624 705 625
3 625 705 706
3 625 706 626
3 626 706 707
3 626 707 627
3 627 707 708
3 627 708 628
3 628 708 709
3 628 709 629
3 629 709 710
3 629 710 630
3 630 710 711
3 630 711 631
3 631 711 712
3 631 712 632
3 632 712 713
3 632 713 633
3 633 713 714
3 633 714 634
3 634 714 715
3 634 715 635
3 635 715 716
3 635 716 636
3 636 716 717
3 636 717 637
3 637 717 718
3 637 718 638
3 638 718 719
3 638 719 639
3 639 719 720
3 639 720 640
3 640 720 641
3 640 641 561
