ply 
format ascii 1.0 
comment this is a surface 
element vertex 641 
property float x 
property float y 
property float z 
element face 1185 
property list uchar int vertex_index 
end_header 
89.759763 79.927662 -56.000000
90.238000 82.585000 -56.000000
89.315000 82.585000 -56.000000
88.392000 82.585000 -56.000000
87.468000 82.585000 -56.000000
86.545000 82.585000 -56.000000
85.621000 82.585000 -56.000000
84.698000 82.585000 -56.000000
83.774000 82.585000 -56.000000
82.851000 82.585000 -56.000000
81.927000 82.597000 -56.000000
81.008000 82.680000 -56.000000
80.096000 82.830000 -56.000000
79.194000 83.026000 -56.000000
78.299000 83.254000 -56.000000
77.411000 83.508000 -56.000000
76.530000 83.784000 -56.000000
75.654000 84.077000 -56.000000
74.775000 84.359000 -56.000000
74.890000 83.443000 -56.000000
75.382000 82.662000 -56.000000
75.891000 81.891000 -56.000000
76.417000 81.132000 -56.000000
76.967000 80.390000 -56.000000
77.554000 79.678000 -56.000000
78.199000 79.017000 -56.000000
78.897000 78.412000 -56.000000
79.632000 77.853000 -56.000000
80.390000 77.326000 -56.000000
81.163000 76.819000 -56.000000
81.943000 76.325000 -56.000000
82.733000 75.847000 -56.000000
83.539000 75.396000 -56.000000
84.352000 74.958000 -56.000000
85.155000 74.503000 -56.000000
85.924000 73.991000 -56.000000
86.616000 73.380000 -56.000000
87.245000 72.704000 -56.000000
87.884000 72.038000 -56.000000
88.627000 71.489000 -56.000000
89.514000 71.231000 -56.000000
90.437000 71.211000 -56.000000
91.358000 71.278000 -56.000000
92.275000 71.385000 -56.000000
93.187000 71.530000 -56.000000
94.084000 71.750000 -56.000000
94.905000 72.173000 -56.000000
95.585000 72.798000 -56.000000
96.144000 73.533000 -56.000000
96.607000 74.332000 -56.000000
97.005000 75.165000 -56.000000
97.384000 76.007000 -56.000000
97.797000 76.833000 -56.000000
98.280000 77.620000 -56.000000
98.833000 78.360000 -56.000000
99.423000 79.071000 -56.000000
100.010000 79.785000 -56.000000
100.550000 80.534000 -56.000000
101.020000 81.330000 -56.000000
101.420000 82.158000 -56.000000
101.790000 83.005000 -56.000000
102.140000 83.861000 -56.000000
102.470000 84.723000 -56.000000
102.790000 85.590000 -56.000000
103.100000 86.461000 -56.000000
102.930000 87.370000 -56.000000
102.290000 86.707000 -56.000000
101.590000 86.107000 -56.000000
100.800000 85.626000 -56.000000
99.939000 85.297000 -56.000000
99.056000 85.029000 -56.000000
98.170000 84.768000 -56.000000
97.297000 84.468000 -56.000000
96.449000 84.102000 -56.000000
95.618000 83.699000 -56.000000
94.786000 83.298000 -56.000000
93.933000 82.943000 -56.000000
93.047000 82.686000 -56.000000
92.129000 82.585000 -56.000000
91.205000 82.585000 -56.000000
90.238000 82.585000 -56.000000
89.839000 75.289000 -48.000000
89.839000 75.289000 -48.000000
88.819000 75.176000 -48.000000
87.798000 75.084000 -48.000000
86.774000 75.025000 -48.000000
85.748000 75.016000 -48.000000
84.724000 75.070000 -48.000000
83.705000 75.183000 -48.000000
82.691000 75.341000 -48.000000
81.684000 75.531000 -48.000000
80.680000 75.741000 -48.000000
79.678000 75.960000 -48.000000
78.675000 76.177000 -48.000000
77.678000 76.414000 -48.000000
76.686000 76.675000 -48.000000
75.699000 76.954000 -48.000000
74.716000 77.246000 -48.000000
73.735000 77.547000 -48.000000
73.545000 76.539000 -48.000000
74.066000 75.656000 -48.000000
74.607000 74.785000 -48.000000
75.179000 73.933000 -48.000000
75.794000 73.112000 -48.000000
76.449000 72.324000 -48.000000
77.133000 71.559000 -48.000000
77.836000 70.812000 -48.000000
78.552000 70.078000 -48.000000
79.275000 69.351000 -48.000000
80.004000 68.629000 -48.000000
80.741000 67.916000 -48.000000
81.491000 67.216000 -48.000000
82.250000 66.527000 -48.000000
83.018000 65.847000 -48.000000
83.792000 65.174000 -48.000000
84.566000 64.501000 -48.000000
85.341000 63.829000 -48.000000
86.126000 63.170000 -48.000000
86.931000 62.534000 -48.000000
87.764000 61.936000 -48.000000
88.620000 61.372000 -48.000000
89.473000 60.802000 -48.000000
90.334000 60.245000 -48.000000
91.232000 59.748000 -48.000000
92.188000 59.379000 -48.000000
93.208000 59.266000 -48.000000
94.196000 59.541000 -48.000000
95.097000 60.031000 -48.000000
95.924000 60.637000 -48.000000
96.703000 61.304000 -48.000000
97.395000 62.061000 -48.000000
97.991000 62.896000 -48.000000
98.514000 63.778000 -48.000000
98.983000 64.690000 -48.000000
99.393000 65.630000 -48.000000
99.742000 66.594000 -48.000000
100.050000 67.574000 -48.000000
100.330000 68.559000 -48.000000
100.610000 69.546000 -48.000000
100.910000 70.526000 -48.000000
101.250000 71.494000 -48.000000
101.660000 72.436000 -48.000000
102.120000 73.349000 -48.000000
102.630000 74.241000 -48.000000
103.160000 75.119000 -48.000000
103.710000 75.987000 -48.000000
104.270000 76.846000 -48.000000
103.980000 77.831000 -48.000000
102.950000 77.794000 -48.000000
101.930000 77.688000 -48.000000
100.920000 77.523000 -48.000000
99.916000 77.319000 -48.000000
98.915000 77.095000 -48.000000
97.915000 76.869000 -48.000000
96.912000 76.656000 -48.000000
95.907000 76.452000 -48.000000
94.907000 76.225000 -48.000000
93.908000 75.989000 -48.000000
92.908000 75.762000 -48.000000
91.902000 75.564000 -48.000000
90.887000 75.413000 -48.000000
89.902000 71.873000 -40.000000
88.964000 71.917000 -40.000000
88.030000 72.017000 -40.000000
87.099000 72.135000 -40.000000
86.165000 72.233000 -40.000000
85.227000 72.274000 -40.000000
84.288000 72.260000 -40.000000
83.350000 72.219000 -40.000000
82.414000 72.153000 -40.000000
81.479000 72.059000 -40.000000
80.549000 71.930000 -40.000000
79.645000 71.675000 -40.000000
78.836000 71.200000 -40.000000
78.158000 70.549000 -40.000000
77.829000 69.670000 -40.000000
78.194000 68.805000 -40.000000
78.771000 68.065000 -40.000000
79.438000 67.404000 -40.000000
80.152000 66.794000 -40.000000
80.895000 66.219000 -40.000000
81.657000 65.672000 -40.000000
82.433000 65.142000 -40.000000
83.233000 64.652000 -40.000000
84.075000 64.235000 -40.000000
84.934000 63.857000 -40.000000
85.792000 63.474000 -40.000000
86.628000 63.047000 -40.000000
87.427000 62.554000 -40.000000
88.201000 62.022000 -40.000000
88.968000 61.481000 -40.000000
89.751000 60.962000 -40.000000
90.566000 60.496000 -40.000000
91.388000 60.042000 -40.000000
92.211000 59.591000 -40.000000
93.049000 59.168000 -40.000000
93.916000 58.805000 -40.000000
94.825000 58.570000 -40.000000
95.759000 58.664000 -40.000000
96.555000 59.162000 -40.000000
97.209000 59.835000 -40.000000
97.781000 60.579000 -40.000000
98.313000 61.353000 -40.000000
98.831000 62.137000 -40.000000
99.364000 62.909000 -40.000000
99.944000 63.648000 -40.000000
100.590000 64.325000 -40.000000
101.290000 64.953000 -40.000000
102.000000 65.576000 -40.000000
102.660000 66.236000 -40.000000
103.240000 66.977000 -40.000000
103.690000 67.802000 -40.000000
104.050000 68.670000 -40.000000
104.360000 69.554000 -40.000000
104.670000 70.443000 -40.000000
104.990000 71.325000 -40.000000
105.310000 72.206000 -40.000000
105.630000 73.089000 -40.000000
105.950000 73.972000 -40.000000
106.270000 74.857000 -40.000000
106.580000 75.741000 -40.000000
106.840000 76.643000 -40.000000
106.000000 76.230000 -40.000000
105.150000 75.824000 -40.000000
104.300000 75.427000 -40.000000
103.450000 75.040000 -40.000000
102.580000 74.666000 -40.000000
101.710000 74.320000 -40.000000
100.820000 74.019000 -40.000000
99.923000 73.747000 -40.000000
99.020000 73.490000 -40.000000
98.116000 73.233000 -40.000000
97.219000 72.957000 -40.000000
96.341000 72.625000 -40.000000
95.464000 72.289000 -40.000000
94.565000 72.019000 -40.000000
93.658000 71.903000 -40.000000
93.658000 71.903000 -40.000000
92.719000 71.889000 -40.000000
91.780000 71.880000 -40.000000
90.841000 71.874000 -40.000000
90.196000 70.977000 -32.000000
89.087000 70.748000 -32.000000
87.971000 70.559000 -32.000000
86.845000 70.439000 -32.000000
85.713000 70.427000 -32.000000
84.588000 70.556000 -32.000000
83.483000 70.804000 -32.000000
82.401000 71.136000 -32.000000
81.336000 71.521000 -32.000000
80.282000 71.934000 -32.000000
79.228000 72.348000 -32.000000
78.166000 72.739000 -32.000000
77.102000 73.128000 -32.000000
76.042000 73.525000 -32.000000
74.986000 73.932000 -32.000000
73.932000 74.347000 -32.000000
73.122000 73.556000 -32.000000
73.528000 72.499000 -32.000000
73.998000 71.469000 -32.000000
74.588000 70.503000 -32.000000
75.342000 69.658000 -32.000000
76.198000 68.917000 -32.000000
77.091000 68.221000 -32.000000
77.985000 67.526000 -32.000000
78.870000 66.821000 -32.000000
79.766000 66.128000 -32.000000
80.670000 65.446000 -32.000000
81.575000 64.766000 -32.000000
82.475000 64.079000 -32.000000
83.360000 63.373000 -32.000000
84.215000 62.631000 -32.000000
85.044000 61.859000 -32.000000
85.881000 61.098000 -32.000000
86.764000 60.389000 -32.000000
87.721000 59.784000 -32.000000
88.736000 59.283000 -32.000000
89.767000 58.814000 -32.000000
90.821000 58.401000 -32.000000
91.905000 58.073000 -32.000000
93.022000 57.892000 -32.000000
94.115000 58.188000 -32.000000
94.999000 58.896000 -32.000000
95.753000 59.740000 -32.000000
96.483000 60.605000 -32.000000
97.268000 61.421000 -32.000000
98.066000 62.225000 -32.000000
98.855000 63.037000 -32.000000
99.630000 63.861000 -32.000000
100.390000 64.702000 -32.000000
101.130000 65.561000 -32.000000
101.840000 66.438000 -32.000000
102.540000 67.330000 -32.000000
103.220000 68.237000 -32.000000
103.870000 69.161000 -32.000000
104.500000 70.103000 -32.000000
105.090000 71.066000 -32.000000
105.650000 72.054000 -32.000000
106.160000 73.062000 -32.000000
106.650000 74.083000 -32.000000
107.130000 75.111000 -32.000000
107.590000 76.144000 -32.000000
108.040000 77.182000 -32.000000
107.930000 78.308000 -32.000000
106.970000 77.712000 -32.000000
106.000000 77.127000 -32.000000
105.020000 76.555000 -32.000000
104.030000 75.998000 -32.000000
103.040000 75.464000 -32.000000
102.020000 74.966000 -32.000000
100.980000 74.528000 -32.000000
99.911000 74.142000 -32.000000
98.837000 73.783000 -32.000000
97.761000 73.431000 -32.000000
96.689000 73.067000 -32.000000
95.628000 72.673000 -32.000000
94.571000 72.265000 -32.000000
93.511000 71.870000 -32.000000
92.398000 71.502000 -32.000000
92.398000 71.502000 -32.000000
91.302000 71.219000 -32.000000
89.911000 67.672000 -24.000000
89.911000 67.672000 -24.000000
88.437000 67.554000 -24.000000
86.965000 67.415000 -24.000000
85.490000 67.305000 -24.000000
84.012000 67.269000 -24.000000
82.534000 67.302000 -24.000000
81.058000 67.380000 -24.000000
79.584000 67.496000 -24.000000
78.113000 67.644000 -24.000000
76.645000 67.821000 -24.000000
75.180000 68.022000 -24.000000
73.731000 68.318000 -24.000000
72.331000 68.792000 -24.000000
70.958000 69.342000 -24.000000
69.607000 69.942000 -24.000000
68.275000 70.583000 -24.000000
66.960000 71.260000 -24.000000
67.961000 70.171000 -24.000000
68.967000 69.088000 -24.000000
69.948000 67.982000 -24.000000
70.898000 66.849000 -24.000000
71.790000 65.670000 -24.000000
72.555000 64.405000 -24.000000
73.209000 63.079000 -24.000000
73.806000 61.726000 -24.000000
74.393000 60.369000 -24.000000
75.017000 59.029000 -24.000000
75.716000 57.725000 -24.000000
76.467000 56.452000 -24.000000
77.250000 55.198000 -24.000000
78.054000 53.957000 -24.000000
78.867000 52.722000 -24.000000
79.670000 51.481000 -24.000000
80.410000 50.201000 -24.000000
81.130000 48.909000 -24.000000
81.925000 47.663000 -24.000000
82.900000 46.551000 -24.000000
84.154000 45.768000 -24.000000
85.494000 45.142000 -24.000000
86.875000 44.614000 -24.000000
88.287000 44.178000 -24.000000
89.730000 43.852000 -24.000000
91.197000 43.668000 -24.000000
92.653000 43.924000 -24.000000
93.861000 44.776000 -24.000000
94.897000 45.831000 -24.000000
95.876000 46.939000 -24.000000
96.832000 48.067000 -24.000000
97.693000 49.269000 -24.000000
98.486000 50.517000 -24.000000
99.242000 51.788000 -24.000000
99.990000 53.063000 -24.000000
100.740000 54.340000 -24.000000
101.460000 55.628000 -24.000000
102.160000 56.930000 -24.000000
102.830000 58.247000 -24.000000
103.470000 59.580000 -24.000000
104.080000 60.927000 -24.000000
104.680000 62.277000 -24.000000
105.260000 63.639000 -24.000000
105.790000 65.019000 -24.000000
106.250000 66.423000 -24.000000
106.630000 67.854000 -24.000000
106.920000 69.302000 -24.000000
107.200000 70.756000 -24.000000
107.450000 72.212000 -24.000000
107.630000 73.680000 -24.000000
106.440000 72.801000 -24.000000
105.230000 71.954000 -24.000000
103.990000 71.140000 -24.000000
102.730000 70.372000 -24.000000
101.440000 69.653000 -24.000000
100.110000 68.998000 -24.000000
98.741000 68.442000 -24.000000
97.304000 68.095000 -24.000000
95.831000 67.965000 -24.000000
94.355000 67.881000 -24.000000
92.877000 67.816000 -24.000000
91.400000 67.752000 -24.000000
89.683000 65.856000 -16.000000
87.787000 65.856000 -16.000000
85.815000 66.007000 -16.000000
85.815000 66.007000 -16.000000
83.953000 66.360000 -16.000000
82.112000 66.809000 -16.000000
80.272000 67.264000 -16.000000
78.425000 67.690000 -16.000000
76.581000 68.130000 -16.000000
74.745000 68.598000 -16.000000
72.918000 69.102000 -16.000000
71.104000 69.653000 -16.000000
69.309000 70.262000 -16.000000
67.550000 70.967000 -16.000000
65.845000 71.795000 -16.000000
64.182000 72.704000 -16.000000
62.547000 73.662000 -16.000000
60.933000 74.656000 -16.000000
60.368000 72.847000 -16.000000
61.177000 71.133000 -16.000000
61.981000 69.417000 -16.000000
62.776000 67.696000 -16.000000
63.556000 65.968000 -16.000000
64.314000 64.232000 -16.000000
65.056000 62.488000 -16.000000
65.796000 60.743000 -16.000000
66.550000 59.004000 -16.000000
67.335000 57.278000 -16.000000
68.162000 55.573000 -16.000000
69.039000 53.893000 -16.000000
69.963000 52.238000 -16.000000
70.924000 50.604000 -16.000000
71.911000 48.986000 -16.000000
72.916000 47.379000 -16.000000
73.930000 45.778000 -16.000000
74.955000 44.183000 -16.000000
76.005000 42.606000 -16.000000
77.103000 41.061000 -16.000000
78.264000 39.563000 -16.000000
79.488000 38.115000 -16.000000
80.756000 36.706000 -16.000000
82.072000 35.343000 -16.000000
83.460000 34.052000 -16.000000
84.941000 32.869000 -16.000000
86.529000 31.834000 -16.000000
88.205000 30.950000 -16.000000
89.938000 30.182000 -16.000000
91.769000 29.691000 -16.000000
93.603000 30.169000 -16.000000
94.756000 31.673000 -16.000000
95.531000 33.402000 -16.000000
96.157000 35.191000 -16.000000
96.718000 37.002000 -16.000000
97.252000 38.820000 -16.000000
97.794000 40.637000 -16.000000
98.404000 42.431000 -16.000000
99.051000 44.212000 -16.000000
99.662000 46.007000 -16.000000
100.250000 47.810000 -16.000000
100.830000 49.613000 -16.000000
101.440000 51.406000 -16.000000
102.120000 53.179000 -16.000000
102.860000 54.920000 -16.000000
103.670000 56.634000 -16.000000
104.510000 58.335000 -16.000000
105.330000 60.041000 -16.000000
106.130000 61.763000 -16.000000
106.900000 63.495000 -16.000000
107.660000 65.231000 -16.000000
108.410000 66.970000 -16.000000
108.130000 68.844000 -16.000000
106.400000 68.068000 -16.000000
104.640000 67.359000 -16.000000
102.850000 66.730000 -16.000000
101.030000 66.216000 -16.000000
99.159000 65.897000 -16.000000
97.264000 65.856000 -16.000000
95.369000 65.856000 -16.000000
93.473000 65.856000 -16.000000
91.578000 65.856000 -16.000000
88.737000 64.991000 -8.000000
86.523000 65.097000 -8.000000
86.523000 65.097000 -8.000000
84.390000 65.216000 -8.000000
82.263000 65.414000 -8.000000
80.150000 65.728000 -8.000000
78.051000 66.129000 -8.000000
75.969000 66.606000 -8.000000
73.924000 67.225000 -8.000000
71.926000 67.979000 -8.000000
69.971000 68.841000 -8.000000
68.053000 69.782000 -8.000000
66.164000 70.779000 -8.000000
64.306000 71.833000 -8.000000
62.513000 72.994000 -8.000000
60.771000 74.231000 -8.000000
59.062000 75.513000 -8.000000
57.700000 73.867000 -8.000000
58.053000 71.760000 -8.000000
58.430000 69.657000 -8.000000
58.848000 67.562000 -8.000000
59.332000 65.481000 -8.000000
59.905000 63.423000 -8.000000
60.564000 61.391000 -8.000000
61.295000 59.384000 -8.000000
62.092000 57.402000 -8.000000
62.950000 55.446000 -8.000000
63.870000 53.517000 -8.000000
64.863000 51.626000 -8.000000
65.947000 49.785000 -8.000000
67.120000 48.000000 -8.000000
68.383000 46.277000 -8.000000
69.751000 44.636000 -8.000000
71.247000 43.111000 -8.000000
72.864000 41.715000 -8.000000
74.536000 40.386000 -8.000000
76.208000 39.056000 -8.000000
77.825000 37.660000 -8.000000
79.329000 36.143000 -8.000000
80.711000 34.513000 -8.000000
82.035000 32.837000 -8.000000
83.373000 31.171000 -8.000000
84.802000 29.584000 -8.000000
86.402000 28.169000 -8.000000
88.192000 27.002000 -8.000000
90.076000 25.996000 -8.000000
92.022000 25.114000 -8.000000
94.039000 24.411000 -8.000000
96.012000 25.230000 -8.000000
96.894000 27.176000 -8.000000
97.451000 29.239000 -8.000000
97.935000 31.319000 -8.000000
98.446000 33.393000 -8.000000
99.052000 35.442000 -8.000000
99.646000 37.494000 -8.000000
100.210000 39.553000 -8.000000
100.780000 41.613000 -8.000000
101.380000 43.665000 -8.000000
102.020000 45.700000 -8.000000
102.770000 47.701000 -8.000000
103.670000 49.638000 -8.000000
104.690000 51.515000 -8.000000
105.750000 53.371000 -8.000000
106.750000 55.258000 -8.000000
107.610000 57.215000 -8.000000
108.330000 59.224000 -8.000000
108.980000 61.261000 -8.000000
109.580000 63.310000 -8.000000
110.160000 65.367000 -8.000000
110.720000 67.430000 -8.000000
109.360000 69.081000 -8.000000
107.420000 68.194000 -8.000000
105.450000 67.362000 -8.000000
103.450000 66.599000 -8.000000
101.430000 65.914000 -8.000000
99.374000 65.335000 -8.000000
97.277000 64.930000 -8.000000
95.143000 64.821000 -8.000000
93.007000 64.851000 -8.000000
90.872000 64.909000 -8.000000
88.478000 66.748000 0.000000
86.224000 66.733000 0.000000
83.940000 66.733000 0.000000
83.940000 66.733000 0.000000
81.686000 66.733000 0.000000
79.432000 66.733000 0.000000
77.178000 66.733000 0.000000
74.924000 66.764000 0.000000
72.682000 66.993000 0.000000
70.469000 67.420000 0.000000
68.293000 68.008000 0.000000
66.158000 68.730000 0.000000
64.069000 69.576000 0.000000
62.053000 70.585000 0.000000
60.326000 72.033000 0.000000
58.801000 73.693000 0.000000
57.382000 75.444000 0.000000
56.043000 77.257000 0.000000
55.643000 75.038000 0.000000
55.784000 72.789000 0.000000
55.947000 70.541000 0.000000
56.153000 68.297000 0.000000
56.472000 66.065000 0.000000
57.018000 63.879000 0.000000
57.817000 61.771000 0.000000
58.793000 59.739000 0.000000
59.885000 57.767000 0.000000
61.046000 55.836000 0.000000
62.249000 53.930000 0.000000
63.516000 52.066000 0.000000
64.911000 50.296000 0.000000
66.388000 48.592000 0.000000
67.874000 46.898000 0.000000
69.313000 45.163000 0.000000
70.677000 43.369000 0.000000
72.000000 41.544000 0.000000
73.317000 39.715000 0.000000
74.661000 37.906000 0.000000
76.052000 36.132000 0.000000
77.459000 34.371000 0.000000
78.787000 32.550000 0.000000
80.099000 30.718000 0.000000
81.501000 28.953000 0.000000
83.106000 27.371000 0.000000
85.059000 26.245000 0.000000
87.292000 25.943000 0.000000
89.538000 26.138000 0.000000
91.758000 26.528000 0.000000
93.833000 27.407000 0.000000
95.344000 29.080000 0.000000
96.499000 31.015000 0.000000
97.500000 33.034000 0.000000
98.468000 35.070000 0.000000
99.499000 37.074000 0.000000
100.530000 39.080000 0.000000
101.500000 41.111000 0.000000
102.430000 43.164000 0.000000
103.320000 45.238000 0.000000
104.160000 47.329000 0.000000
104.940000 49.444000 0.000000
105.660000 51.578000 0.000000
106.360000 53.720000 0.000000
107.070000 55.860000 0.000000
107.810000 57.989000 0.000000
108.610000 60.098000 0.000000
109.430000 62.194000 0.000000
110.280000 64.284000 0.000000
111.130000 66.370000 0.000000
111.990000 68.452000 0.000000
112.820000 70.548000 0.000000
110.640000 69.977000 0.000000
108.500000 69.289000 0.000000
106.340000 68.651000 0.000000
104.160000 68.072000 0.000000
101.960000 67.571000 0.000000
99.737000 67.205000 0.000000
97.488000 67.055000 0.000000
95.236000 66.947000 0.000000
92.984000 66.858000 0.000000
90.731000 66.791000 0.000000
3 0 80 2
3 0 2 3
3 0 3 4
3 0 4 5
3 0 5 6
3 0 6 7
3 0 7 8
3 0 8 9
3 0 9 10
3 0 10 11
3 0 11 12
3 0 12 13
3 0 13 14
3 0 14 15
3 0 15 16
3 0 16 17
3 0 17 18
3 0 18 19
3 0 19 20
3 0 20 21
3 0 21 22
3 0 22 23
3 0 23 24
3 0 24 25
3 0 25 26
3 0 26 27
3 0 27 28
3 0 28 29
3 0 29 30
3 0 30 31
3 0 31 32
3 0 32 33
3 0 33 34
3 0 34 35
3 0 35 36
3 0 36 37
3 0 37 38
3 0 38 39
3 0 39 40
3 0 40 41
3 0 41 42
3 0 42 43
3 0 43 44
3 0 44 45
3 0 45 46
3 0 46 47
3 0 47 48
3 0 48 49
3 0 49 50
3 0 50 51
3 0 51 52
3 0 52 53
3 0 53 54
3 0 54 55
3 0 55 56
3 0 56 57
3 0 57 58
3 0 58 59
3 0 59 60
3 0 60 61
3 0 61 62
3 0 62 63
3 0 63 64
3 0 64 65
3 0 65 66
3 0 66 67
3 0 67 68
3 0 68 69
3 0 69 70
3 0 70 71
3 0 71 72
3 0 72 73
3 0 73 74
3 0 74 75
3 0 75 76
3 0 76 77
3 0 77 78
3 0 78 79
3 0 79 80
3 80 81 2
3 2 81 83
3 2 83 3
3 3 83 84
3 3 84 4
3 4 84 85
3 4 85 5
3 5 85 86
3 5 86 6
3 6 86 87
3 6 87 7
3 7 87 88
3 7 88 8
3 8 88 89
3 8 89 9
3 9 89 90
3 9 90 10
3 10 90 91
3 10 91 11
3 11 91 92
3 11 92 12
3 12 92 93
3 12 93 13
3 13 93 94
3 13 94 14
3 14 94 95
3 14 95 15
3 15 95 96
3 15 96 16
3 16 96 97
3 16 97 17
3 17 97 98
3 17 98 18
3 18 98 99
3 18 99 19
3 19 99 100
3 19 100 20
3 20 100 101
3 20 101 21
3 21 101 102
3 21 102 22
3 22 102 103
3 22 103 23
3 23 103 104
3 23 104 24
3 24 104 105
3 24 105 25
3 25 105 106
3 25 106 26
3 26 106 107
3 26 107 27
3 27 107 108
3 27 108 28
3 28 108 109
3 28 109 29
3 29 109 110
3 29 110 30
3 30 110 111
3 30 111 31
3 31 111 112
3 31 112 32
3 32 112 113
3 32 113 33
3 33 113 114
3 33 114 34
3 34 114 115
3 34 115 35
3 35 115 116
3 35 116 36
3 36 116 117
3 36 117 37
3 37 117 118
3 37 118 38
3 38 118 119
3 38 119 39
3 39 119 120
3 39 120 40
3 40 120 121
3 40 121 41
3 41 121 122
3 41 122 42
3 42 122 123
3 42 123 43
3 43 123 124
3 43 124 44
3 44 124 125
3 44 125 45
3 45 125 126
3 45 126 46
3 46 126 127
3 46 127 47
3 47 127 128
3 47 128 48
3 48 128 129
3 48 129 49
3 49 129 130
3 49 130 50
3 50 130 131
3 50 131 51
3 51 131 132
3 51 132 52
3 52 132 133
3 52 133 53
3 53 133 134
3 53 134 54
3 54 134 135
3 54 135 55
3 55 135 136
3 55 136 56
3 56 136 137
3 56 137 57
3 57 137 138
3 57 138 58
3 58 138 139
3 58 139 59
3 59 139 140
3 59 140 60
3 60 140 141
3 60 141 61
3 61 141 142
3 61 142 62
3 62 142 143
3 62 143 63
3 63 143 144
3 63 144 64
3 64 144 145
3 64 145 65
3 65 145 146
3 65 146 66
3 66 146 147
3 66 147 67
3 67 147 148
3 67 148 68
3 68 148 149
3 68 149 69
3 69 149 150
3 69 150 70
3 70 150 151
3 70 151 71
3 71 151 152
3 71 152 72
3 72 152 153
3 72 153 73
3 73 153 154
3 73 154 74
3 74 154 155
3 74 155 75
3 75 155 156
3 75 156 76
3 76 156 157
3 76 157 77
3 77 157 158
3 77 158 78
3 78 158 159
3 78 159 79
3 79 159 160
3 79 160 80
3 80 160 81
3 81 161 162
3 81 162 163
3 81 163 83
3 83 163 164
3 83 164 84
3 84 164 165
3 84 165 85
3 85 165 166
3 85 166 86
3 86 166 167
3 86 167 87
3 87 167 168
3 87 168 88
3 88 168 169
3 88 169 89
3 89 169 170
3 89 170 90
3 90 170 171
3 90 171 91
3 91 171 172
3 91 172 92
3 92 172 173
3 92 173 93
3 93 173 174
3 93 174 94
3 94 174 175
3 94 175 95
3 95 175 176
3 95 176 96
3 96 176 177
3 96 177 97
3 97 177 178
3 97 178 98
3 98 178 179
3 98 179 99
3 99 179 180
3 99 180 100
3 100 180 181
3 100 181 101
3 101 181 182
3 101 182 102
3 102 182 183
3 102 183 103
3 103 183 184
3 103 184 104
3 104 184 185
3 104 185 105
3 105 185 186
3 105 186 106
3 106 186 187
3 106 187 107
3 107 187 188
3 107 188 108
3 108 188 189
3 108 189 109
3 109 189 190
3 109 190 110
3 110 190 191
3 110 191 111
3 111 191 192
3 111 192 112
3 112 192 193
3 112 193 113
3 113 193 194
3 113 194 114
3 114 194 195
3 114 195 115
3 115 195 196
3 115 196 116
3 116 196 197
3 116 197 117
3 117 197 198
3 117 198 118
3 118 198 199
3 118 199 119
3 119 199 200
3 119 200 120
3 120 200 201
3 120 201 121
3 121 201 202
3 121 202 122
3 122 202 203
3 122 203 123
3 123 203 204
3 123 204 124
3 124 204 205
3 124 205 125
3 125 205 206
3 125 206 126
3 126 206 207
3 126 207 127
3 127 207 208
3 127 208 128
3 128 208 209
3 128 209 129
3 129 209 210
3 129 210 130
3 130 210 211
3 130 211 131
3 131 211 212
3 131 212 132
3 132 212 213
3 132 213 133
3 133 213 214
3 133 214 134
3 134 214 215
3 134 215 135
3 135 215 216
3 135 216 136
3 136 216 217
3 136 217 137
3 137 217 218
3 137 218 138
3 138 218 219
3 138 219 139
3 139 219 220
3 139 220 140
3 140 220 221
3 140 221 141
3 141 221 222
3 141 222 142
3 142 222 223
3 142 223 143
3 143 223 224
3 143 224 144
3 144 224 225
3 144 225 145
3 145 225 226
3 145 226 146
3 146 226 227
3 146 227 147
3 147 227 228
3 147 228 148
3 148 228 229
3 148 229 149
3 149 229 230
3 149 230 150
3 150 230 231
3 150 231 151
3 151 231 232
3 151 232 152
3 152 232 233
3 152 233 153
3 153 233 234
3 153 234 154
3 154 234 235
3 154 235 155
3 155 235 236
3 155 236 156
3 156 236 157
3 157 236 238
3 157 238 158
3 158 238 239
3 158 239 159
3 159 239 240
3 159 240 160
3 160 240 161
3 160 161 81
3 161 241 242
3 161 242 162
3 162 242 243
3 162 243 163
3 163 243 244
3 163 244 164
3 164 244 245
3 164 245 165
3 165 245 246
3 165 246 166
3 166 246 247
3 166 247 167
3 167 247 248
3 167 248 168
3 168 248 249
3 168 249 169
3 169 249 250
3 169 250 170
3 170 250 251
3 170 251 171
3 171 251 252
3 171 252 172
3 172 252 253
3 172 253 173
3 173 253 254
3 173 254 174
3 174 254 255
3 174 255 175
3 175 255 256
3 175 256 176
3 176 256 257
3 176 257 177
3 177 257 258
3 177 258 178
3 178 258 259
3 178 259 179
3 179 259 260
3 179 260 180
3 180 260 261
3 180 261 181
3 181 261 262
3 181 262 182
3 182 262 263
3 182 263 183
3 183 263 264
3 183 264 184
3 184 264 265
3 184 265 185
3 185 265 266
3 185 266 186
3 186 266 267
3 186 267 187
3 187 267 268
3 187 268 188
3 188 268 269
3 188 269 189
3 189 269 270
3 189 270 190
3 190 270 271
3 190 271 191
3 191 271 272
3 191 272 192
3 192 272 273
3 192 273 193
3 193 273 274
3 193 274 194
3 194 274 275
3 194 275 195
3 195 275 276
3 195 276 196
3 196 276 277
3 196 277 197
3 197 277 278
3 197 278 198
3 198 278 279
3 198 279 199
3 199 279 280
3 199 280 200
3 200 280 281
3 200 281 201
3 201 281 282
3 201 282 202
3 202 282 283
3 202 283 203
3 203 283 284
3 203 284 204
3 204 284 285
3 204 285 205
3 205 285 286
3 205 286 206
3 206 286 287
3 206 287 207
3 207 287 288
3 207 288 208
3 208 288 289
3 208 289 209
3 209 289 290
3 209 290 210
3 210 290 291
3 210 291 211
3 211 291 292
3 211 292 212
3 212 292 293
3 212 293 213
3 213 293 294
3 213 294 214
3 214 294 295
3 214 295 215
3 215 295 296
3 215 296 216
3 216 296 297
3 216 297 217
3 217 297 298
3 217 298 218
3 218 298 299
3 218 299 219
3 219 299 300
3 219 300 220
3 220 300 301
3 220 301 221
3 221 301 302
3 221 302 222
3 222 302 303
3 222 303 223
3 223 303 304
3 223 304 224
3 224 304 305
3 224 305 225
3 225 305 306
3 225 306 226
3 226 306 307
3 226 307 227
3 227 307 308
3 227 308 228
3 228 308 309
3 228 309 229
3 229 309 310
3 229 310 230
3 230 310 311
3 230 311 231
3 231 311 312
3 231 312 232
3 232 312 313
3 232 313 233
3 233 313 314
3 233 314 234
3 234 314 315
3 234 315 235
3 235 315 316
3 235 316 236
3 236 316 317
3 236 317 318
3 236 318 238
3 238 318 239
3 239 318 320
3 239 320 240
3 240 320 241
3 240 241 161
3 241 321 242
3 242 321 323
3 242 323 243
3 243 323 324
3 243 324 244
3 244 324 325
3 244 325 245
3 245 325 326
3 245 326 246
3 246 326 327
3 246 327 247
3 247 327 328
3 247 328 248
3 248 328 329
3 248 329 249
3 249 329 330
3 249 330 250
3 250 330 331
3 250 331 251
3 251 331 332
3 251 332 252
3 252 332 333
3 252 333 253
3 253 333 334
3 253 334 254
3 254 334 335
3 254 335 255
3 255 335 336
3 255 336 256
3 256 336 337
3 256 337 257
3 257 337 338
3 257 338 258
3 258 338 339
3 258 339 259
3 259 339 340
3 259 340 260
3 260 340 341
3 260 341 261
3 261 341 342
3 261 342 262
3 262 342 343
3 262 343 263
3 263 343 344
3 263 344 264
3 264 344 345
3 264 345 265
3 265 345 346
3 265 346 266
3 266 346 347
3 266 347 267
3 267 347 348
3 267 348 268
3 268 348 349
3 268 349 269
3 269 349 350
3 269 350 270
3 270 350 351
3 270 351 271
3 271 351 352
3 271 352 272
3 272 352 353
3 272 353 273
3 273 353 354
3 273 354 274
3 274 354 355
3 274 355 275
3 275 355 356
3 275 356 276
3 276 356 357
3 276 357 277
3 277 357 358
3 277 358 278
3 278 358 359
3 278 359 279
3 279 359 360
3 279 360 280
3 280 360 361
3 280 361 281
3 281 361 362
3 281 362 282
3 282 362 363
3 282 363 283
3 283 363 364
3 283 364 284
3 284 364 365
3 284 365 285
3 285 365 366
3 285 366 286
3 286 366 367
3 286 367 287
3 287 367 368
3 287 368 288
3 288 368 369
3 288 369 289
3 289 369 370
3 289 370 290
3 290 370 371
3 290 371 291
3 291 371 372
3 291 372 292
3 292 372 373
3 292 373 293
3 293 373 374
3 293 374 294
3 294 374 375
3 294 375 295
3 295 375 376
3 295 376 296
3 296 376 377
3 296 377 297
3 297 377 378
3 297 378 298
3 298 378 379
3 298 379 299
3 299 379 380
3 299 380 300
3 300 380 381
3 300 381 301
3 301 381 382
3 301 382 302
3 302 382 383
3 302 383 303
3 303 383 384
3 303 384 304
3 304 384 385
3 304 385 305
3 305 385 386
3 305 386 306
3 306 386 387
3 306 387 307
3 307 387 388
3 307 388 308
3 308 388 389
3 308 389 309
3 309 389 390
3 309 390 310
3 310 390 391
3 310 391 311
3 311 391 392
3 311 392 312
3 312 392 393
3 312 393 313
3 313 393 394
3 313 394 314
3 314 394 395
3 314 395 315
3 315 395 396
3 315 396 316
3 316 396 397
3 316 397 317
3 317 397 398
3 317 398 318
3 318 398 399
3 318 399 400
3 318 400 320
3 320 400 321
3 320 321 241
3 321 401 402
3 321 402 403
3 321 403 323
3 323 403 324
3 324 403 405
3 324 405 325
3 325 405 406
3 325 406 326
3 326 406 407
3 326 407 327
3 327 407 408
3 327 408 328
3 328 408 409
3 328 409 329
3 329 409 410
3 329 410 330
3 330 410 411
3 330 411 331
3 331 411 412
3 331 412 332
3 332 412 413
3 332 413 333
3 333 413 414
3 333 414 334
3 334 414 415
3 334 415 335
3 335 415 416
3 335 416 336
3 336 416 417
3 336 417 337
3 337 417 418
3 337 418 338
3 338 418 419
3 338 419 339
3 339 419 420
3 339 420 340
3 340 420 421
3 340 421 341
3 341 421 422
3 341 422 342
3 342 422 423
3 342 423 343
3 343 423 424
3 343 424 344
3 344 424 425
3 344 425 345
3 345 425 426
3 345 426 346
3 346 426 427
3 346 427 347
3 347 427 428
3 347 428 348
3 348 428 429
3 348 429 349
3 349 429 430
3 349 430 350
3 350 430 431
3 350 431 351
3 351 431 432
3 351 432 352
3 352 432 433
3 352 433 353
3 353 433 434
3 353 434 354
3 354 434 435
3 354 435 355
3 355 435 436
3 355 436 356
3 356 436 437
3 356 437 357
3 357 437 438
3 357 438 358
3 358 438 439
3 358 439 359
3 359 439 440
3 359 440 360
3 360 440 441
3 360 441 361
3 361 441 442
3 361 442 362
3 362 442 443
3 362 443 363
3 363 443 444
3 363 444 364
3 364 444 445
3 364 445 365
3 365 445 446
3 365 446 366
3 366 446 447
3 366 447 367
3 367 447 448
3 367 448 368
3 368 448 449
3 368 449 369
3 369 449 450
3 369 450 370
3 370 450 451
3 370 451 371
3 371 451 452
3 371 452 372
3 372 452 453
3 372 453 373
3 373 453 454
3 373 454 374
3 374 454 455
3 374 455 375
3 375 455 456
3 375 456 376
3 376 456 457
3 376 457 377
3 377 457 458
3 377 458 378
3 378 458 459
3 378 459 379
3 379 459 460
3 379 460 380
3 380 460 461
3 380 461 381
3 381 461 462
3 381 462 382
3 382 462 463
3 382 463 383
3 383 463 464
3 383 464 384
3 384 464 465
3 384 465 385
3 385 465 466
3 385 466 386
3 386 466 467
3 386 467 387
3 387 467 468
3 387 468 388
3 388 468 469
3 388 469 389
3 389 469 470
3 389 470 390
3 390 470 471
3 390 471 391
3 391 471 472
3 391 472 392
3 392 472 473
3 392 473 393
3 393 473 474
3 393 474 394
3 394 474 475
3 394 475 395
3 395 475 476
3 395 476 396
3 396 476 477
3 396 477 397
3 397 477 478
3 397 478 398
3 398 478 479
3 398 479 399
3 399 479 480
3 399 480 400
3 400 480 401
3 400 401 321
3 401 481 482
3 401 482 402
3 402 482 403
3 403 482 484
3 403 484 485
3 403 485 405
3 405 485 486
3 405 486 406
3 406 486 487
3 406 487 407
3 407 487 488
3 407 488 408
3 408 488 489
3 408 489 409
3 409 489 490
3 409 490 410
3 410 490 491
3 410 491 411
3 411 491 492
3 411 492 412
3 412 492 493
3 412 493 413
3 413 493 494
3 413 494 414
3 414 494 495
3 414 495 415
3 415 495 496
3 415 496 416
3 416 496 497
3 416 497 417
3 417 497 498
3 417 498 418
3 418 498 499
3 418 499 419
3 419 499 500
3 419 500 420
3 420 500 501
3 420 501 421
3 421 501 502
3 421 502 422
3 422 502 503
3 422 503 423
3 423 503 504
3 423 504 424
3 424 504 505
3 424 505 425
3 425 505 506
3 425 506 426
3 426 506 507
3 426 507 427
3 427 507 508
3 427 508 428
3 428 508 509
3 428 509 429
3 429 509 510
3 429 510 430
3 430 510 511
3 430 511 431
3 431 511 512
3 431 512 432
3 432 512 513
3 432 513 433
3 433 513 514
3 433 514 434
3 434 514 515
3 434 515 435
3 435 515 516
3 435 516 436
3 436 516 517
3 436 517 437
3 437 517 518
3 437 518 438
3 438 518 519
3 438 519 439
3 439 519 520
3 439 520 440
3 440 520 521
3 440 521 441
3 441 521 522
3 441 522 442
3 442 522 523
3 442 523 443
3 443 523 524
3 443 524 444
3 444 524 525
3 444 525 445
3 445 525 526
3 445 526 446
3 446 526 527
3 446 527 447
3 447 527 528
3 447 528 448
3 448 528 529
3 448 529 449
3 449 529 530
3 449 530 450
3 450 530 531
3 450 531 451
3 451 531 532
3 451 532 452
3 452 532 533
3 452 533 453
3 453 533 534
3 453 534 454
3 454 534 535
3 454 535 455
3 455 535 536
3 455 536 456
3 456 536 537
3 456 537 457
3 457 537 538
3 457 538 458
3 458 538 539
3 458 539 459
3 459 539 540
3 459 540 460
3 460 540 541
3 460 541 461
3 461 541 542
3 461 542 462
3 462 542 543
3 462 543 463
3 463 543 544
3 463 544 464
3 464 544 545
3 464 545 465
3 465 545 546
3 465 546 466
3 466 546 547
3 466 547 467
3 467 547 548
3 467 548 468
3 468 548 549
3 468 549 469
3 469 549 550
3 469 550 470
3 470 550 551
3 470 551 471
3 471 551 552
3 471 552 472
3 472 552 553
3 472 553 473
3 473 553 554
3 473 554 474
3 474 554 555
3 474 555 475
3 475 555 556
3 475 556 476
3 476 556 557
3 476 557 477
3 477 557 558
3 477 558 478
3 478 558 559
3 478 559 479
3 479 559 560
3 479 560 480
3 480 560 481
3 480 481 401
3 481 561 562
3 481 562 482
3 482 562 563
3 482 563 484
3 484 563 565
3 484 565 485
3 485 565 566
3 485 566 486
3 486 566 567
3 486 567 487
3 487 567 568
3 487 568 488
3 488 568 569
3 488 569 489
3 489 569 570
3 489 570 490
3 490 570 571
3 490 571 491
3 491 571 572
3 491 572 492
3 492 572 573
3 492 573 493
3 493 573 574
3 493 574 494
3 494 574 575
3 494 575 495
3 495 575 576
3 495 576 496
3 496 576 577
3 496 577 497
3 497 577 578
3 497 578 498
3 498 578 579
3 498 579 499
3 499 579 580
3 499 580 500
3 500 580 581
3 500 581 501
3 501 581 582
3 501 582 502
3 502 582 583
3 502 583 503
3 503 583 584
3 503 584 504
3 504 584 585
3 504 585 505
3 505 585 586
3 505 586 506
3 506 586 587
3 506 587 507
3 507 587 588
3 507 588 508
3 508 588 589
3 508 589 509
3 509 589 590
3 509 590 510
3 510 590 591
3 510 591 511
3 511 591 592
3 511 592 512
3 512 592 593
3 512 593 513
3 513 593 594
3 513 594 514
3 514 594 595
3 514 595 515
3 515 595 596
3 515 596 516
3 516 596 597
3 516 597 517
3 517 597 598
3 517 598 518
3 518 598 599
3 518 599 519
3 519 599 600
3 519 600 520
3 520 600 601
3 520 601 521
3 521 601 602
3 521 602 522
3 522 602 603
3 522 603 523
3 523 603 604
3 523 604 524
3 524 604 605
3 524 605 525
3 525 605 606
3 525 606 526
3 526 606 607
3 526 607 527
3 527 607 608
3 527 608 528
3 528 608 609
3 528 609 529
3 529 609 610
3 529 610 530
3 530 610 611
3 530 611 531
3 531 611 612
3 531 612 532
3 532 612 613
3 532 613 533
3 533 613 614
3 533 614 534
3 534 614 615
3 534 615 535
3 535 615 616
3 535 616 536
3 536 616 617
3 536 617 537
3 537 617 618
3 537 618 538
3 538 618 619
3 538 619 539
3 539 619 620
3 539 620 540
3 540 620 621
3 540 621 541
3 541 621 622
3 541 622 542
3 542 622 623
3 542 623 543
3 543 623 624
3 543 624 544
3 544 624 625
3 544 625 545
3 545 625 626
3 545 626 546
3 546 626 627
3 546 627 547
3 547 627 628
3 547 628 548
3 548 628 629
3 548 629 549
3 549 629 630
3 549 630 550
3 550 630 631
3 550 631 551
3 551 631 632
3 551 632 552
3 552 632 633
3 552 633 553
3 553 633 634
3 553 634 554
3 554 634 635
3 554 635 555
3 555 635 636
3 555 636 556
3 556 636 637
3 556 637 557
3 557 637 638
3 557 638 558
3 558 638 639
3 558 639 559
3 559 639 640
3 559 640 560
3 560 640 561
3 560 561 481
