ply 
format ascii 1.0 
comment this is a surface 
element vertex 641 
property float x 
property float y 
property float z 
element face 1185 
property list uchar int vertex_index 
end_header 
88.803688 97.922837 -56.000000
90.283000 123.770000 -56.000000
88.333000 123.830000 -56.000000
86.414000 123.770000 -56.000000
84.500000 123.600000 -56.000000
82.598000 123.340000 -56.000000
80.752000 122.820000 -56.000000
78.992000 122.050000 -56.000000
77.332000 121.080000 -56.000000
75.770000 119.970000 -56.000000
74.318000 118.710000 -56.000000
73.012000 117.310000 -56.000000
71.932000 115.730000 -56.000000
71.155000 113.970000 -56.000000
70.553000 112.150000 -56.000000
70.062000 110.290000 -56.000000
69.686000 108.410000 -56.000000
69.435000 106.510000 -56.000000
69.336000 104.590000 -56.000000
69.352000 102.670000 -56.000000
69.418000 100.750000 -56.000000
69.523000 98.833000 -56.000000
69.660000 96.917000 -56.000000
69.823000 95.004000 -56.000000
70.009000 93.093000 -56.000000
70.223000 91.184000 -56.000000
70.542000 89.290000 -56.000000
70.973000 87.419000 -56.000000
71.506000 85.574000 -56.000000
72.139000 83.761000 -56.000000
72.875000 81.988000 -56.000000
73.733000 80.271000 -56.000000
74.909000 78.754000 -56.000000
76.306000 77.437000 -56.000000
77.795000 76.223000 -56.000000
79.293000 75.022000 -56.000000
80.715000 73.731000 -56.000000
82.091000 72.391000 -56.000000
83.516000 71.104000 -56.000000
85.081000 69.994000 -56.000000
86.861000 69.294000 -56.000000
88.766000 69.072000 -56.000000
90.682000 68.932000 -56.000000
92.600000 68.851000 -56.000000
94.492000 69.081000 -56.000000
96.042000 70.215000 -56.000000
97.418000 71.555000 -56.000000
98.766000 72.922000 -56.000000
100.030000 74.371000 -56.000000
101.190000 75.902000 -56.000000
102.220000 77.518000 -56.000000
103.100000 79.225000 -56.000000
103.790000 81.018000 -56.000000
104.360000 82.852000 -56.000000
104.850000 84.709000 -56.000000
105.280000 86.580000 -56.000000
105.680000 88.459000 -56.000000
106.060000 90.342000 -56.000000
106.430000 92.225000 -56.000000
106.850000 94.100000 -56.000000
107.300000 95.967000 -56.000000
107.720000 97.841000 -56.000000
108.020000 99.736000 -56.000000
108.140000 101.650000 -56.000000
108.090000 103.570000 -56.000000
107.950000 105.490000 -56.000000
107.740000 107.400000 -56.000000
107.460000 109.300000 -56.000000
107.120000 111.190000 -56.000000
106.650000 113.050000 -56.000000
105.920000 114.820000 -56.000000
104.980000 116.490000 -56.000000
103.880000 118.060000 -56.000000
102.610000 119.510000 -56.000000
101.210000 120.820000 -56.000000
99.638000 121.910000 -56.000000
97.873000 122.650000 -56.000000
95.998000 123.070000 -56.000000
94.103000 123.380000 -56.000000
92.198000 123.620000 -56.000000
90.283000 123.770000 -56.000000
88.981000 130.810000 -48.000000
88.981000 130.810000 -48.000000
86.496000 130.750000 -48.000000
84.016000 130.580000 -48.000000
81.545000 130.320000 -48.000000
79.086000 129.960000 -48.000000
76.677000 129.390000 -48.000000
74.637000 127.990000 -48.000000
72.991000 126.140000 -48.000000
71.573000 124.100000 -48.000000
70.271000 121.980000 -48.000000
68.987000 119.850000 -48.000000
67.611000 117.780000 -48.000000
66.209000 115.730000 -48.000000
64.922000 113.600000 -48.000000
63.931000 111.330000 -48.000000
63.523000 108.880000 -48.000000
63.539000 106.400000 -48.000000
63.628000 103.920000 -48.000000
63.762000 101.430000 -48.000000
63.935000 98.955000 -48.000000
64.140000 96.478000 -48.000000
64.375000 94.004000 -48.000000
64.634000 91.532000 -48.000000
64.953000 89.067000 -48.000000
65.426000 86.627000 -48.000000
66.037000 84.218000 -48.000000
66.776000 81.845000 -48.000000
67.643000 79.516000 -48.000000
68.674000 77.256000 -48.000000
70.062000 75.196000 -48.000000
71.704000 73.332000 -48.000000
73.481000 71.594000 -48.000000
75.315000 69.916000 -48.000000
77.141000 68.230000 -48.000000
78.920000 66.494000 -48.000000
80.716000 64.776000 -48.000000
82.559000 63.109000 -48.000000
84.471000 61.521000 -48.000000
86.440000 60.005000 -48.000000
88.378000 58.449000 -48.000000
90.389000 56.988000 -48.000000
92.595000 55.853000 -48.000000
94.994000 55.974000 -48.000000
96.928000 57.510000 -48.000000
98.492000 59.439000 -48.000000
99.863000 61.513000 -48.000000
101.160000 63.634000 -48.000000
102.310000 65.834000 -48.000000
103.330000 68.102000 -48.000000
104.240000 70.414000 -48.000000
105.080000 72.754000 -48.000000
105.870000 75.110000 -48.000000
106.640000 77.474000 -48.000000
107.340000 79.858000 -48.000000
107.980000 82.259000 -48.000000
108.580000 84.672000 -48.000000
109.230000 87.072000 -48.000000
109.880000 89.469000 -48.000000
110.480000 91.881000 -48.000000
110.950000 94.322000 -48.000000
111.200000 96.795000 -48.000000
111.210000 99.280000 -48.000000
111.170000 101.770000 -48.000000
111.090000 104.250000 -48.000000
110.980000 106.730000 -48.000000
110.840000 109.210000 -48.000000
110.650000 111.690000 -48.000000
110.420000 114.170000 -48.000000
110.130000 116.630000 -48.000000
109.760000 119.090000 -48.000000
108.780000 121.330000 -48.000000
106.970000 123.010000 -48.000000
104.890000 124.360000 -48.000000
102.710000 125.550000 -48.000000
100.490000 126.690000 -48.000000
98.291000 127.840000 -48.000000
96.059000 128.930000 -48.000000
93.761000 129.880000 -48.000000
91.371000 130.560000 -48.000000
90.804000 132.680000 -40.000000
88.081000 132.790000 -40.000000
85.357000 132.880000 -40.000000
82.633000 132.930000 -40.000000
79.925000 132.730000 -40.000000
77.394000 131.740000 -40.000000
75.116000 130.250000 -40.000000
73.034000 128.500000 -40.000000
71.079000 126.600000 -40.000000
69.187000 124.640000 -40.000000
67.283000 122.690000 -40.000000
65.411000 120.710000 -40.000000
63.632000 118.640000 -40.000000
61.986000 116.470000 -40.000000
60.532000 114.170000 -40.000000
59.360000 111.710000 -40.000000
58.483000 109.130000 -40.000000
57.751000 106.510000 -40.000000
57.272000 103.820000 -40.000000
57.193000 101.100000 -40.000000
57.397000 98.384000 -40.000000
57.790000 95.687000 -40.000000
58.335000 93.018000 -40.000000
59.011000 90.378000 -40.000000
59.804000 87.771000 -40.000000
60.708000 85.201000 -40.000000
61.723000 82.672000 -40.000000
63.024000 80.283000 -40.000000
64.792000 78.213000 -40.000000
66.800000 76.373000 -40.000000
68.918000 74.658000 -40.000000
71.064000 72.978000 -40.000000
73.166000 71.245000 -40.000000
75.145000 69.371000 -40.000000
77.032000 67.406000 -40.000000
78.898000 65.419000 -40.000000
80.807000 63.475000 -40.000000
82.825000 61.644000 -40.000000
85.019000 60.028000 -40.000000
87.361000 58.636000 -40.000000
89.753000 57.331000 -40.000000
92.234000 56.203000 -40.000000
94.840000 55.415000 -40.000000
97.425000 55.908000 -40.000000
99.338000 57.834000 -40.000000
100.900000 60.068000 -40.000000
102.460000 62.302000 -40.000000
104.030000 64.527000 -40.000000
105.450000 66.852000 -40.000000
106.610000 69.318000 -40.000000
107.490000 71.898000 -40.000000
108.200000 74.529000 -40.000000
108.830000 77.180000 -40.000000
109.460000 79.830000 -40.000000
110.190000 82.456000 -40.000000
111.100000 85.023000 -40.000000
112.240000 87.499000 -40.000000
113.460000 89.934000 -40.000000
114.630000 92.396000 -40.000000
115.580000 94.948000 -40.000000
116.260000 97.587000 -40.000000
116.870000 100.240000 -40.000000
117.420000 102.910000 -40.000000
117.860000 105.600000 -40.000000
118.150000 108.310000 -40.000000
118.170000 111.030000 -40.000000
117.700000 113.710000 -40.000000
116.820000 116.280000 -40.000000
115.630000 118.730000 -40.000000
114.210000 121.060000 -40.000000
112.580000 123.240000 -40.000000
110.770000 125.280000 -40.000000
108.760000 127.110000 -40.000000
106.490000 128.610000 -40.000000
104.040000 129.810000 -40.000000
101.510000 130.800000 -40.000000
98.904000 131.610000 -40.000000
96.245000 132.200000 -40.000000
93.525000 132.530000 -40.000000
90.804000 132.680000 -40.000000
89.086000 134.300000 -32.000000
89.086000 134.300000 -32.000000
86.312000 134.090000 -32.000000
83.578000 133.580000 -32.000000
80.894000 132.850000 -32.000000
78.258000 131.960000 -32.000000
75.664000 130.960000 -32.000000
73.171000 129.720000 -32.000000
70.814000 128.250000 -32.000000
68.585000 126.580000 -32.000000
66.482000 124.760000 -32.000000
64.513000 122.800000 -32.000000
62.684000 120.700000 -32.000000
61.018000 118.480000 -32.000000
59.558000 116.110000 -32.000000
58.304000 113.630000 -32.000000
57.171000 111.090000 -32.000000
56.192000 108.480000 -32.000000
55.429000 105.810000 -32.000000
54.968000 103.070000 -32.000000
54.938000 100.290000 -32.000000
55.358000 97.539000 -32.000000
56.063000 94.849000 -32.000000
56.913000 92.200000 -32.000000
57.794000 89.562000 -32.000000
58.756000 86.952000 -32.000000
59.867000 84.401000 -32.000000
61.115000 81.916000 -32.000000
62.500000 79.503000 -32.000000
64.027000 77.178000 -32.000000
65.778000 75.018000 -32.000000
67.731000 73.037000 -32.000000
69.794000 71.172000 -32.000000
71.900000 69.355000 -32.000000
73.992000 67.521000 -32.000000
76.071000 65.673000 -32.000000
78.170000 63.848000 -32.000000
80.313000 62.075000 -32.000000
82.523000 60.386000 -32.000000
84.807000 58.798000 -32.000000
87.064000 57.172000 -32.000000
89.381000 55.633000 -32.000000
91.984000 54.694000 -32.000000
94.690000 55.213000 -32.000000
97.087000 56.615000 -32.000000
99.257000 58.354000 -32.000000
101.320000 60.215000 -32.000000
103.250000 62.220000 -32.000000
104.990000 64.388000 -32.000000
106.590000 66.667000 -32.000000
108.060000 69.025000 -32.000000
109.440000 71.440000 -32.000000
110.760000 73.891000 -32.000000
112.010000 76.376000 -32.000000
113.160000 78.906000 -32.000000
114.200000 81.486000 -32.000000
115.080000 84.124000 -32.000000
115.790000 86.814000 -32.000000
116.440000 89.518000 -32.000000
117.010000 92.241000 -32.000000
117.410000 94.993000 -32.000000
117.560000 97.770000 -32.000000
117.530000 100.550000 -32.000000
117.480000 103.330000 -32.000000
117.390000 106.110000 -32.000000
117.280000 108.890000 -32.000000
117.080000 111.660000 -32.000000
116.530000 114.380000 -32.000000
115.560000 116.980000 -32.000000
114.280000 119.450000 -32.000000
112.780000 121.790000 -32.000000
111.080000 123.990000 -32.000000
109.190000 126.040000 -32.000000
107.140000 127.910000 -32.000000
104.900000 129.560000 -32.000000
102.440000 130.860000 -32.000000
99.884000 131.950000 -32.000000
97.258000 132.870000 -32.000000
94.575000 133.600000 -32.000000
91.839000 134.100000 -32.000000
88.698000 136.420000 -24.000000
88.698000 136.420000 -24.000000
85.527000 135.970000 -24.000000
82.485000 134.960000 -24.000000
79.506000 133.780000 -24.000000
76.512000 132.640000 -24.000000
73.541000 131.450000 -24.000000
70.615000 130.140000 -24.000000
67.765000 128.680000 -24.000000
65.048000 126.990000 -24.000000
62.587000 124.940000 -24.000000
60.623000 122.420000 -24.000000
58.971000 119.680000 -24.000000
57.535000 116.810000 -24.000000
56.300000 113.860000 -24.000000
55.275000 110.820000 -24.000000
54.498000 107.720000 -24.000000
54.029000 104.550000 -24.000000
53.935000 101.350000 -24.000000
54.061000 98.145000 -24.000000
54.302000 94.950000 -24.000000
54.622000 91.763000 -24.000000
55.111000 88.597000 -24.000000
56.009000 85.523000 -24.000000
57.199000 82.548000 -24.000000
58.569000 79.652000 -24.000000
60.030000 76.801000 -24.000000
61.498000 73.954000 -24.000000
62.926000 71.086000 -24.000000
64.405000 68.244000 -24.000000
65.955000 65.441000 -24.000000
67.587000 62.684000 -24.000000
69.313000 59.985000 -24.000000
71.146000 57.358000 -24.000000
73.084000 54.807000 -24.000000
74.978000 52.223000 -24.000000
76.849000 49.623000 -24.000000
78.794000 47.077000 -24.000000
80.890000 44.656000 -24.000000
83.238000 42.487000 -24.000000
85.963000 40.835000 -24.000000
89.072000 40.213000 -24.000000
92.261000 40.460000 -24.000000
95.401000 41.084000 -24.000000
97.762000 43.210000 -24.000000
99.435000 45.942000 -24.000000
101.120000 48.669000 -24.000000
102.860000 51.355000 -24.000000
104.560000 54.071000 -24.000000
106.180000 56.834000 -24.000000
107.710000 59.650000 -24.000000
109.120000 62.525000 -24.000000
110.410000 65.457000 -24.000000
111.640000 68.417000 -24.000000
112.790000 71.405000 -24.000000
113.870000 74.424000 -24.000000
114.840000 77.475000 -24.000000
115.700000 80.562000 -24.000000
116.440000 83.680000 -24.000000
117.150000 86.802000 -24.000000
117.840000 89.932000 -24.000000
118.420000 93.082000 -24.000000
118.840000 96.257000 -24.000000
119.020000 99.456000 -24.000000
118.900000 102.660000 -24.000000
118.540000 105.840000 -24.000000
117.980000 108.990000 -24.000000
117.250000 112.110000 -24.000000
116.370000 115.190000 -24.000000
115.370000 118.240000 -24.000000
114.250000 121.240000 -24.000000
112.890000 124.130000 -24.000000
111.210000 126.870000 -24.000000
109.250000 129.390000 -24.000000
106.980000 131.660000 -24.000000
104.360000 133.490000 -24.000000
101.350000 134.570000 -24.000000
98.240000 135.320000 -24.000000
95.088000 135.890000 -24.000000
91.907000 136.270000 -24.000000
89.215000 137.840000 -16.000000
89.215000 137.840000 -16.000000
85.625000 137.680000 -16.000000
82.054000 137.280000 -16.000000
78.511000 136.680000 -16.000000
75.004000 135.900000 -16.000000
71.695000 134.520000 -16.000000
68.764000 132.450000 -16.000000
66.150000 129.990000 -16.000000
63.788000 127.280000 -16.000000
61.648000 124.400000 -16.000000
59.689000 121.390000 -16.000000
57.884000 118.280000 -16.000000
56.174000 115.120000 -16.000000
54.627000 111.870000 -16.000000
53.348000 108.520000 -16.000000
52.475000 105.030000 -16.000000
52.192000 101.460000 -16.000000
52.192000 97.865000 -16.000000
52.229000 94.271000 -16.000000
52.286000 90.679000 -16.000000
52.362000 87.086000 -16.000000
52.457000 83.494000 -16.000000
52.613000 79.904000 -16.000000
53.299000 76.378000 -16.000000
54.512000 72.996000 -16.000000
56.053000 69.750000 -16.000000
57.784000 66.602000 -16.000000
59.592000 63.496000 -16.000000
61.371000 60.374000 -16.000000
63.063000 57.204000 -16.000000
64.808000 54.063000 -16.000000
66.640000 50.971000 -16.000000
68.570000 47.941000 -16.000000
70.611000 44.983000 -16.000000
72.767000 42.109000 -16.000000
74.939000 39.246000 -16.000000
77.156000 36.418000 -16.000000
79.506000 33.700000 -16.000000
82.077000 31.192000 -16.000000
84.966000 29.061000 -16.000000
88.205000 27.515000 -16.000000
91.637000 26.455000 -16.000000
95.023000 27.240000 -16.000000
97.146000 30.139000 -16.000000
98.931000 33.257000 -16.000000
100.380000 36.544000 -16.000000
101.610000 39.920000 -16.000000
102.740000 43.331000 -16.000000
103.880000 46.740000 -16.000000
105.140000 50.107000 -16.000000
106.520000 53.425000 -16.000000
107.950000 56.720000 -16.000000
109.390000 60.011000 -16.000000
110.800000 63.318000 -16.000000
112.120000 66.660000 -16.000000
113.310000 70.050000 -16.000000
114.370000 73.484000 -16.000000
115.450000 76.911000 -16.000000
116.530000 80.337000 -16.000000
117.580000 83.774000 -16.000000
118.550000 87.234000 -16.000000
119.400000 90.725000 -16.000000
120.090000 94.252000 -16.000000
120.550000 97.815000 -16.000000
120.740000 101.400000 -16.000000
120.610000 104.990000 -16.000000
120.200000 108.560000 -16.000000
119.570000 112.100000 -16.000000
118.750000 115.600000 -16.000000
117.680000 119.020000 -16.000000
116.080000 122.240000 -16.000000
114.080000 125.220000 -16.000000
111.740000 127.950000 -16.000000
109.090000 130.370000 -16.000000
106.090000 132.350000 -16.000000
102.920000 134.040000 -16.000000
99.641000 135.510000 -16.000000
96.250000 136.690000 -16.000000
92.753000 137.520000 -16.000000
87.544000 138.010000 -8.000000
87.544000 138.010000 -8.000000
83.794000 137.780000 -8.000000
80.079000 137.220000 -8.000000
76.409000 136.410000 -8.000000
72.803000 135.370000 -8.000000
69.414000 133.750000 -8.000000
66.299000 131.660000 -8.000000
63.451000 129.200000 -8.000000
60.890000 126.460000 -8.000000
58.656000 123.440000 -8.000000
56.897000 120.130000 -8.000000
55.627000 116.590000 -8.000000
54.584000 112.980000 -8.000000
53.742000 109.320000 -8.000000
53.134000 105.610000 -8.000000
52.809000 101.870000 -8.000000
52.773000 98.115000 -8.000000
52.800000 94.358000 -8.000000
52.851000 90.601000 -8.000000
52.924000 86.844000 -8.000000
53.016000 83.088000 -8.000000
53.128000 79.333000 -8.000000
53.320000 75.581000 -8.000000
53.778000 71.852000 -8.000000
54.470000 68.159000 -8.000000
55.355000 64.507000 -8.000000
56.401000 60.899000 -8.000000
57.580000 57.331000 -8.000000
58.882000 53.807000 -8.000000
60.490000 50.414000 -8.000000
62.477000 47.227000 -8.000000
64.724000 44.216000 -8.000000
67.153000 41.351000 -8.000000
69.712000 38.600000 -8.000000
72.359000 35.933000 -8.000000
75.053000 33.314000 -8.000000
77.799000 30.750000 -8.000000
80.614000 28.262000 -8.000000
83.513000 25.873000 -8.000000
86.524000 23.628000 -8.000000
89.693000 21.617000 -8.000000
93.098000 20.056000 -8.000000
96.648000 20.030000 -8.000000
99.060000 22.867000 -8.000000
100.760000 26.214000 -8.000000
102.100000 29.725000 -8.000000
103.040000 33.361000 -8.000000
103.700000 37.060000 -8.000000
104.390000 40.755000 -8.000000
105.380000 44.377000 -8.000000
106.820000 47.848000 -8.000000
108.420000 51.248000 -8.000000
109.890000 54.703000 -8.000000
111.070000 58.272000 -8.000000
112.110000 61.883000 -8.000000
113.070000 65.515000 -8.000000
114.020000 69.150000 -8.000000
115.080000 72.755000 -8.000000
116.200000 76.341000 -8.000000
117.250000 79.948000 -8.000000
118.080000 83.610000 -8.000000
118.550000 87.336000 -8.000000
118.620000 91.093000 -8.000000
118.640000 94.850000 -8.000000
118.660000 98.607000 -8.000000
118.670000 102.360000 -8.000000
118.680000 106.120000 -8.000000
118.660000 109.880000 -8.000000
118.260000 113.590000 -8.000000
116.960000 117.100000 -8.000000
115.060000 120.340000 -8.000000
112.790000 123.330000 -8.000000
110.250000 126.100000 -8.000000
107.490000 128.650000 -8.000000
104.530000 130.960000 -8.000000
101.420000 133.070000 -8.000000
98.159000 134.930000 -8.000000
94.739000 136.490000 -8.000000
91.148000 137.590000 -8.000000
87.423000 138.310000 0.000000
87.423000 138.310000 0.000000
83.640000 138.070000 0.000000
79.898000 137.470000 0.000000
76.214000 136.580000 0.000000
72.593000 135.460000 0.000000
69.045000 134.130000 0.000000
65.714000 132.330000 0.000000
62.747000 129.970000 0.000000
60.121000 127.240000 0.000000
57.862000 124.190000 0.000000
56.080000 120.850000 0.000000
54.683000 117.330000 0.000000
53.484000 113.730000 0.000000
52.506000 110.070000 0.000000
51.807000 106.340000 0.000000
51.459000 102.570000 0.000000
51.450000 98.781000 0.000000
51.521000 94.991000 0.000000
51.640000 91.202000 0.000000
51.799000 87.415000 0.000000
51.991000 83.629000 0.000000
52.208000 79.845000 0.000000
52.498000 76.066000 0.000000
52.942000 72.301000 0.000000
53.527000 68.556000 0.000000
54.248000 64.835000 0.000000
55.105000 61.142000 0.000000
56.129000 57.495000 0.000000
57.611000 54.009000 0.000000
59.520000 50.736000 0.000000
61.684000 47.624000 0.000000
63.981000 44.609000 0.000000
66.311000 41.619000 0.000000
68.617000 38.611000 0.000000
71.015000 35.675000 0.000000
73.559000 32.867000 0.000000
76.253000 30.200000 0.000000
78.873000 27.460000 0.000000
81.568000 24.795000 0.000000
84.614000 22.544000 0.000000
88.219000 21.456000 0.000000
91.960000 22.049000 0.000000
95.283000 23.821000 0.000000
97.887000 26.567000 0.000000
100.070000 29.669000 0.000000
102.070000 32.889000 0.000000
104.020000 36.139000 0.000000
105.780000 39.495000 0.000000
107.370000 42.933000 0.000000
108.830000 46.434000 0.000000
110.150000 49.986000 0.000000
111.350000 53.580000 0.000000
112.450000 57.209000 0.000000
113.460000 60.861000 0.000000
114.420000 64.529000 0.000000
115.350000 68.204000 0.000000
116.270000 71.881000 0.000000
117.220000 75.549000 0.000000
118.320000 79.179000 0.000000
119.470000 82.788000 0.000000
120.550000 86.424000 0.000000
121.370000 90.123000 0.000000
121.770000 93.889000 0.000000
121.770000 97.680000 0.000000
121.660000 101.470000 0.000000
121.500000 105.260000 0.000000
121.260000 109.040000 0.000000
120.940000 112.820000 0.000000
120.410000 116.560000 0.000000
119.030000 120.070000 0.000000
116.930000 123.210000 0.000000
114.410000 126.040000 0.000000
111.610000 128.600000 0.000000
108.570000 130.860000 0.000000
105.310000 132.790000 0.000000
101.910000 134.470000 0.000000
98.420000 135.940000 0.000000
94.826000 137.150000 0.000000
91.130000 137.990000 0.000000
3 0 80 2
3 0 2 3
3 0 3 4
3 0 4 5
3 0 5 6
3 0 6 7
3 0 7 8
3 0 8 9
3 0 9 10
3 0 10 11
3 0 11 12
3 0 12 13
3 0 13 14
3 0 14 15
3 0 15 16
3 0 16 17
3 0 17 18
3 0 18 19
3 0 19 20
3 0 20 21
3 0 21 22
3 0 22 23
3 0 23 24
3 0 24 25
3 0 25 26
3 0 26 27
3 0 27 28
3 0 28 29
3 0 29 30
3 0 30 31
3 0 31 32
3 0 32 33
3 0 33 34
3 0 34 35
3 0 35 36
3 0 36 37
3 0 37 38
3 0 38 39
3 0 39 40
3 0 40 41
3 0 41 42
3 0 42 43
3 0 43 44
3 0 44 45
3 0 45 46
3 0 46 47
3 0 47 48
3 0 48 49
3 0 49 50
3 0 50 51
3 0 51 52
3 0 52 53
3 0 53 54
3 0 54 55
3 0 55 56
3 0 56 57
3 0 57 58
3 0 58 59
3 0 59 60
3 0 60 61
3 0 61 62
3 0 62 63
3 0 63 64
3 0 64 65
3 0 65 66
3 0 66 67
3 0 67 68
3 0 68 69
3 0 69 70
3 0 70 71
3 0 71 72
3 0 72 73
3 0 73 74
3 0 74 75
3 0 75 76
3 0 76 77
3 0 77 78
3 0 78 79
3 0 79 80
3 80 81 2
3 2 81 83
3 2 83 3
3 3 83 84
3 3 84 4
3 4 84 85
3 4 85 5
3 5 85 86
3 5 86 6
3 6 86 87
3 6 87 7
3 7 87 88
3 7 88 8
3 8 88 89
3 8 89 9
3 9 89 90
3 9 90 10
3 10 90 91
3 10 91 11
3 11 91 92
3 11 92 12
3 12 92 93
3 12 93 13
3 13 93 94
3 13 94 14
3 14 94 95
3 14 95 15
3 15 95 96
3 15 96 16
3 16 96 97
3 16 97 17
3 17 97 98
3 17 98 18
3 18 98 99
3 18 99 19
3 19 99 100
3 19 100 20
3 20 100 101
3 20 101 21
3 21 101 102
3 21 102 22
3 22 102 103
3 22 103 23
3 23 103 104
3 23 104 24
3 24 104 105
3 24 105 25
3 25 105 106
3 25 106 26
3 26 106 107
3 26 107 27
3 27 107 108
3 27 108 28
3 28 108 109
3 28 109 29
3 29 109 110
3 29 110 30
3 30 110 111
3 30 111 31
3 31 111 112
3 31 112 32
3 32 112 113
3 32 113 33
3 33 113 114
3 33 114 34
3 34 114 115
3 34 115 35
3 35 115 116
3 35 116 36
3 36 116 117
3 36 117 37
3 37 117 118
3 37 118 38
3 38 118 119
3 38 119 39
3 39 119 120
3 39 120 40
3 40 120 121
3 40 121 41
3 41 121 122
3 41 122 42
3 42 122 123
3 42 123 43
3 43 123 124
3 43 124 44
3 44 124 125
3 44 125 45
3 45 125 126
3 45 126 46
3 46 126 127
3 46 127 47
3 47 127 128
3 47 128 48
3 48 128 129
3 48 129 49
3 49 129 130
3 49 130 50
3 50 130 131
3 50 131 51
3 51 131 132
3 51 132 52
3 52 132 133
3 52 133 53
3 53 133 134
3 53 134 54
3 54 134 135
3 54 135 55
3 55 135 136
3 55 136 56
3 56 136 137
3 56 137 57
3 57 137 138
3 57 138 58
3 58 138 139
3 58 139 59
3 59 139 140
3 59 140 60
3 60 140 141
3 60 141 61
3 61 141 142
3 61 142 62
3 62 142 143
3 62 143 63
3 63 143 144
3 63 144 64
3 64 144 145
3 64 145 65
3 65 145 146
3 65 146 66
3 66 146 147
3 66 147 67
3 67 147 148
3 67 148 68
3 68 148 149
3 68 149 69
3 69 149 150
3 69 150 70
3 70 150 151
3 70 151 71
3 71 151 152
3 71 152 72
3 72 152 153
3 72 153 73
3 73 153 154
3 73 154 74
3 74 154 155
3 74 155 75
3 75 155 156
3 75 156 76
3 76 156 157
3 76 157 77
3 77 157 158
3 77 158 78
3 78 158 159
3 78 159 79
3 79 159 160
3 79 160 80
3 80 160 81
3 81 240 162
3 81 162 163
3 81 163 83
3 83 163 164
3 83 164 84
3 84 164 165
3 84 165 85
3 85 165 166
3 85 166 86
3 86 166 167
3 86 167 87
3 87 167 168
3 87 168 88
3 88 168 169
3 88 169 89
3 89 169 170
3 89 170 90
3 90 170 171
3 90 171 91
3 91 171 172
3 91 172 92
3 92 172 173
3 92 173 93
3 93 173 174
3 93 174 94
3 94 174 175
3 94 175 95
3 95 175 176
3 95 176 96
3 96 176 177
3 96 177 97
3 97 177 178
3 97 178 98
3 98 178 179
3 98 179 99
3 99 179 180
3 99 180 100
3 100 180 181
3 100 181 101
3 101 181 182
3 101 182 102
3 102 182 183
3 102 183 103
3 103 183 184
3 103 184 104
3 104 184 185
3 104 185 105
3 105 185 186
3 105 186 106
3 106 186 187
3 106 187 107
3 107 187 188
3 107 188 108
3 108 188 189
3 108 189 109
3 109 189 190
3 109 190 110
3 110 190 191
3 110 191 111
3 111 191 192
3 111 192 112
3 112 192 193
3 112 193 113
3 113 193 194
3 113 194 114
3 114 194 195
3 114 195 115
3 115 195 196
3 115 196 116
3 116 196 197
3 116 197 117
3 117 197 198
3 117 198 118
3 118 198 199
3 118 199 119
3 119 199 200
3 119 200 120
3 120 200 201
3 120 201 121
3 121 201 202
3 121 202 122
3 122 202 203
3 122 203 123
3 123 203 204
3 123 204 124
3 124 204 205
3 124 205 125
3 125 205 206
3 125 206 126
3 126 206 207
3 126 207 127
3 127 207 208
3 127 208 128
3 128 208 209
3 128 209 129
3 129 209 210
3 129 210 130
3 130 210 211
3 130 211 131
3 131 211 212
3 131 212 132
3 132 212 213
3 132 213 133
3 133 213 214
3 133 214 134
3 134 214 215
3 134 215 135
3 135 215 216
3 135 216 136
3 136 216 217
3 136 217 137
3 137 217 218
3 137 218 138
3 138 218 219
3 138 219 139
3 139 219 220
3 139 220 140
3 140 220 221
3 140 221 141
3 141 221 222
3 141 222 142
3 142 222 223
3 142 223 143
3 143 223 224
3 143 224 144
3 144 224 225
3 144 225 145
3 145 225 226
3 145 226 146
3 146 226 227
3 146 227 147
3 147 227 228
3 147 228 148
3 148 228 229
3 148 229 149
3 149 229 230
3 149 230 150
3 150 230 231
3 150 231 151
3 151 231 232
3 151 232 152
3 152 232 233
3 152 233 153
3 153 233 234
3 153 234 154
3 154 234 235
3 154 235 155
3 155 235 236
3 155 236 156
3 156 236 237
3 156 237 157
3 157 237 238
3 157 238 158
3 158 238 239
3 158 239 159
3 159 239 240
3 159 240 160
3 160 240 81
3 240 241 162
3 162 241 243
3 162 243 163
3 163 243 244
3 163 244 164
3 164 244 245
3 164 245 165
3 165 245 246
3 165 246 166
3 166 246 247
3 166 247 167
3 167 247 248
3 167 248 168
3 168 248 249
3 168 249 169
3 169 249 250
3 169 250 170
3 170 250 251
3 170 251 171
3 171 251 252
3 171 252 172
3 172 252 253
3 172 253 173
3 173 253 254
3 173 254 174
3 174 254 255
3 174 255 175
3 175 255 256
3 175 256 176
3 176 256 257
3 176 257 177
3 177 257 258
3 177 258 178
3 178 258 259
3 178 259 179
3 179 259 260
3 179 260 180
3 180 260 261
3 180 261 181
3 181 261 262
3 181 262 182
3 182 262 263
3 182 263 183
3 183 263 264
3 183 264 184
3 184 264 265
3 184 265 185
3 185 265 266
3 185 266 186
3 186 266 267
3 186 267 187
3 187 267 268
3 187 268 188
3 188 268 269
3 188 269 189
3 189 269 270
3 189 270 190
3 190 270 271
3 190 271 191
3 191 271 272
3 191 272 192
3 192 272 273
3 192 273 193
3 193 273 274
3 193 274 194
3 194 274 275
3 194 275 195
3 195 275 276
3 195 276 196
3 196 276 277
3 196 277 197
3 197 277 278
3 197 278 198
3 198 278 279
3 198 279 199
3 199 279 280
3 199 280 200
3 200 280 281
3 200 281 201
3 201 281 282
3 201 282 202
3 202 282 283
3 202 283 203
3 203 283 284
3 203 284 204
3 204 284 285
3 204 285 205
3 205 285 286
3 205 286 206
3 206 286 287
3 206 287 207
3 207 287 288
3 207 288 208
3 208 288 289
3 208 289 209
3 209 289 290
3 209 290 210
3 210 290 291
3 210 291 211
3 211 291 292
3 211 292 212
3 212 292 293
3 212 293 213
3 213 293 294
3 213 294 214
3 214 294 295
3 214 295 215
3 215 295 296
3 215 296 216
3 216 296 297
3 216 297 217
3 217 297 298
3 217 298 218
3 218 298 299
3 218 299 219
3 219 299 300
3 219 300 220
3 220 300 301
3 220 301 221
3 221 301 302
3 221 302 222
3 222 302 303
3 222 303 223
3 223 303 304
3 223 304 224
3 224 304 305
3 224 305 225
3 225 305 306
3 225 306 226
3 226 306 307
3 226 307 227
3 227 307 308
3 227 308 228
3 228 308 309
3 228 309 229
3 229 309 310
3 229 310 230
3 230 310 311
3 230 311 231
3 231 311 312
3 231 312 232
3 232 312 313
3 232 313 233
3 233 313 314
3 233 314 234
3 234 314 315
3 234 315 235
3 235 315 316
3 235 316 236
3 236 316 317
3 236 317 237
3 237 317 318
3 237 318 238
3 238 318 319
3 238 319 239
3 239 319 320
3 239 320 240
3 240 320 241
3 241 321 323
3 241 323 243
3 243 323 324
3 243 324 244
3 244 324 325
3 244 325 245
3 245 325 326
3 245 326 246
3 246 326 327
3 246 327 247
3 247 327 328
3 247 328 248
3 248 328 329
3 248 329 249
3 249 329 330
3 249 330 250
3 250 330 331
3 250 331 251
3 251 331 332
3 251 332 252
3 252 332 333
3 252 333 253
3 253 333 334
3 253 334 254
3 254 334 335
3 254 335 255
3 255 335 336
3 255 336 256
3 256 336 337
3 256 337 257
3 257 337 338
3 257 338 258
3 258 338 339
3 258 339 259
3 259 339 340
3 259 340 260
3 260 340 341
3 260 341 261
3 261 341 342
3 261 342 262
3 262 342 343
3 262 343 263
3 263 343 344
3 263 344 264
3 264 344 345
3 264 345 265
3 265 345 346
3 265 346 266
3 266 346 347
3 266 347 267
3 267 347 348
3 267 348 268
3 268 348 349
3 268 349 269
3 269 349 350
3 269 350 270
3 270 350 351
3 270 351 271
3 271 351 352
3 271 352 272
3 272 352 353
3 272 353 273
3 273 353 354
3 273 354 274
3 274 354 355
3 274 355 275
3 275 355 356
3 275 356 276
3 276 356 357
3 276 357 277
3 277 357 358
3 277 358 278
3 278 358 359
3 278 359 279
3 279 359 360
3 279 360 280
3 280 360 361
3 280 361 281
3 281 361 362
3 281 362 282
3 282 362 363
3 282 363 283
3 283 363 364
3 283 364 284
3 284 364 365
3 284 365 285
3 285 365 366
3 285 366 286
3 286 366 367
3 286 367 287
3 287 367 368
3 287 368 288
3 288 368 369
3 288 369 289
3 289 369 370
3 289 370 290
3 290 370 371
3 290 371 291
3 291 371 372
3 291 372 292
3 292 372 373
3 292 373 293
3 293 373 374
3 293 374 294
3 294 374 375
3 294 375 295
3 295 375 376
3 295 376 296
3 296 376 377
3 296 377 297
3 297 377 378
3 297 378 298
3 298 378 379
3 298 379 299
3 299 379 380
3 299 380 300
3 300 380 381
3 300 381 301
3 301 381 382
3 301 382 302
3 302 382 383
3 302 383 303
3 303 383 384
3 303 384 304
3 304 384 385
3 304 385 305
3 305 385 386
3 305 386 306
3 306 386 387
3 306 387 307
3 307 387 388
3 307 388 308
3 308 388 389
3 308 389 309
3 309 389 390
3 309 390 310
3 310 390 391
3 310 391 311
3 311 391 392
3 311 392 312
3 312 392 393
3 312 393 313
3 313 393 394
3 313 394 314
3 314 394 395
3 314 395 315
3 315 395 396
3 315 396 316
3 316 396 397
3 316 397 317
3 317 397 398
3 317 398 318
3 318 398 399
3 318 399 319
3 319 399 400
3 319 400 320
3 320 400 321
3 320 321 241
3 321 401 403
3 321 403 323
3 323 403 404
3 323 404 324
3 324 404 405
3 324 405 325
3 325 405 406
3 325 406 326
3 326 406 407
3 326 407 327
3 327 407 408
3 327 408 328
3 328 408 409
3 328 409 329
3 329 409 410
3 329 410 330
3 330 410 411
3 330 411 331
3 331 411 412
3 331 412 332
3 332 412 413
3 332 413 333
3 333 413 414
3 333 414 334
3 334 414 415
3 334 415 335
3 335 415 416
3 335 416 336
3 336 416 417
3 336 417 337
3 337 417 418
3 337 418 338
3 338 418 419
3 338 419 339
3 339 419 420
3 339 420 340
3 340 420 421
3 340 421 341
3 341 421 422
3 341 422 342
3 342 422 423
3 342 423 343
3 343 423 424
3 343 424 344
3 344 424 425
3 344 425 345
3 345 425 426
3 345 426 346
3 346 426 427
3 346 427 347
3 347 427 428
3 347 428 348
3 348 428 429
3 348 429 349
3 349 429 430
3 349 430 350
3 350 430 431
3 350 431 351
3 351 431 432
3 351 432 352
3 352 432 433
3 352 433 353
3 353 433 434
3 353 434 354
3 354 434 435
3 354 435 355
3 355 435 436
3 355 436 356
3 356 436 437
3 356 437 357
3 357 437 438
3 357 438 358
3 358 438 439
3 358 439 359
3 359 439 440
3 359 440 360
3 360 440 441
3 360 441 361
3 361 441 442
3 361 442 362
3 362 442 443
3 362 443 363
3 363 443 444
3 363 444 364
3 364 444 445
3 364 445 365
3 365 445 446
3 365 446 366
3 366 446 447
3 366 447 367
3 367 447 448
3 367 448 368
3 368 448 449
3 368 449 369
3 369 449 450
3 369 450 370
3 370 450 451
3 370 451 371
3 371 451 452
3 371 452 372
3 372 452 453
3 372 453 373
3 373 453 454
3 373 454 374
3 374 454 455
3 374 455 375
3 375 455 456
3 375 456 376
3 376 456 457
3 376 457 377
3 377 457 458
3 377 458 378
3 378 458 459
3 378 459 379
3 379 459 460
3 379 460 380
3 380 460 461
3 380 461 381
3 381 461 462
3 381 462 382
3 382 462 463
3 382 463 383
3 383 463 464
3 383 464 384
3 384 464 465
3 384 465 385
3 385 465 466
3 385 466 386
3 386 466 467
3 386 467 387
3 387 467 468
3 387 468 388
3 388 468 469
3 388 469 389
3 389 469 470
3 389 470 390
3 390 470 471
3 390 471 391
3 391 471 472
3 391 472 392
3 392 472 473
3 392 473 393
3 393 473 474
3 393 474 394
3 394 474 475
3 394 475 395
3 395 475 476
3 395 476 396
3 396 476 477
3 396 477 397
3 397 477 478
3 397 478 398
3 398 478 479
3 398 479 399
3 399 479 480
3 399 480 400
3 400 480 401
3 400 401 321
3 401 481 483
3 401 483 403
3 403 483 484
3 403 484 404
3 404 484 485
3 404 485 405
3 405 485 486
3 405 486 406
3 406 486 487
3 406 487 407
3 407 487 488
3 407 488 408
3 408 488 489
3 408 489 409
3 409 489 490
3 409 490 410
3 410 490 491
3 410 491 411
3 411 491 492
3 411 492 412
3 412 492 493
3 412 493 413
3 413 493 494
3 413 494 414
3 414 494 495
3 414 495 415
3 415 495 496
3 415 496 416
3 416 496 497
3 416 497 417
3 417 497 498
3 417 498 418
3 418 498 499
3 418 499 419
3 419 499 500
3 419 500 420
3 420 500 501
3 420 501 421
3 421 501 502
3 421 502 422
3 422 502 503
3 422 503 423
3 423 503 504
3 423 504 424
3 424 504 505
3 424 505 425
3 425 505 506
3 425 506 426
3 426 506 507
3 426 507 427
3 427 507 508
3 427 508 428
3 428 508 509
3 428 509 429
3 429 509 510
3 429 510 430
3 430 510 511
3 430 511 431
3 431 511 512
3 431 512 432
3 432 512 513
3 432 513 433
3 433 513 514
3 433 514 434
3 434 514 515
3 434 515 435
3 435 515 516
3 435 516 436
3 436 516 517
3 436 517 437
3 437 517 518
3 437 518 438
3 438 518 519
3 438 519 439
3 439 519 520
3 439 520 440
3 440 520 521
3 440 521 441
3 441 521 522
3 441 522 442
3 442 522 523
3 442 523 443
3 443 523 524
3 443 524 444
3 444 524 525
3 444 525 445
3 445 525 526
3 445 526 446
3 446 526 527
3 446 527 447
3 447 527 528
3 447 528 448
3 448 528 529
3 448 529 449
3 449 529 530
3 449 530 450
3 450 530 531
3 450 531 451
3 451 531 532
3 451 532 452
3 452 532 533
3 452 533 453
3 453 533 534
3 453 534 454
3 454 534 535
3 454 535 455
3 455 535 536
3 455 536 456
3 456 536 537
3 456 537 457
3 457 537 538
3 457 538 458
3 458 538 539
3 458 539 459
3 459 539 540
3 459 540 460
3 460 540 541
3 460 541 461
3 461 541 542
3 461 542 462
3 462 542 543
3 462 543 463
3 463 543 544
3 463 544 464
3 464 544 545
3 464 545 465
3 465 545 546
3 465 546 466
3 466 546 547
3 466 547 467
3 467 547 548
3 467 548 468
3 468 548 549
3 468 549 469
3 469 549 550
3 469 550 470
3 470 550 551
3 470 551 471
3 471 551 552
3 471 552 472
3 472 552 553
3 472 553 473
3 473 553 554
3 473 554 474
3 474 554 555
3 474 555 475
3 475 555 556
3 475 556 476
3 476 556 557
3 476 557 477
3 477 557 558
3 477 558 478
3 478 558 559
3 478 559 479
3 479 559 560
3 479 560 480
3 480 560 481
3 480 481 401
3 481 561 563
3 481 563 483
3 483 563 564
3 483 564 484
3 484 564 565
3 484 565 485
3 485 565 566
3 485 566 486
3 486 566 567
3 486 567 487
3 487 567 568
3 487 568 488
3 488 568 569
3 488 569 489
3 489 569 570
3 489 570 490
3 490 570 571
3 490 571 491
3 491 571 572
3 491 572 492
3 492 572 573
3 492 573 493
3 493 573 574
3 493 574 494
3 494 574 575
3 494 575 495
3 495 575 576
3 495 576 496
3 496 576 577
3 496 577 497
3 497 577 578
3 497 578 498
3 498 578 579
3 498 579 499
3 499 579 580
3 499 580 500
3 500 580 581
3 500 581 501
3 501 581 582
3 501 582 502
3 502 582 583
3 502 583 503
3 503 583 584
3 503 584 504
3 504 584 585
3 504 585 505
3 505 585 586
3 505 586 506
3 506 586 587
3 506 587 507
3 507 587 588
3 507 588 508
3 508 588 589
3 508 589 509
3 509 589 590
3 509 590 510
3 510 590 591
3 510 591 511
3 511 591 592
3 511 592 512
3 512 592 593
3 512 593 513
3 513 593 594
3 513 594 514
3 514 594 595
3 514 595 515
3 515 595 596
3 515 596 516
3 516 596 597
3 516 597 517
3 517 597 598
3 517 598 518
3 518 598 599
3 518 599 519
3 519 599 600
3 519 600 520
3 520 600 601
3 520 601 521
3 521 601 602
3 521 602 522
3 522 602 603
3 522 603 523
3 523 603 604
3 523 604 524
3 524 604 605
3 524 605 525
3 525 605 606
3 525 606 526
3 526 606 607
3 526 607 527
3 527 607 608
3 527 608 528
3 528 608 609
3 528 609 529
3 529 609 610
3 529 610 530
3 530 610 611
3 530 611 531
3 531 611 612
3 531 612 532
3 532 612 613
3 532 613 533
3 533 613 614
3 533 614 534
3 534 614 615
3 534 615 535
3 535 615 616
3 535 616 536
3 536 616 617
3 536 617 537
3 537 617 618
3 537 618 538
3 538 618 619
3 538 619 539
3 539 619 620
3 539 620 540
3 540 620 621
3 540 621 541
3 541 621 622
3 541 622 542
3 542 622 623
3 542 623 543
3 543 623 624
3 543 624 544
3 544 624 625
3 544 625 545
3 545 625 626
3 545 626 546
3 546 626 627
3 546 627 547
3 547 627 628
3 547 628 548
3 548 628 629
3 548 629 549
3 549 629 630
3 549 630 550
3 550 630 631
3 550 631 551
3 551 631 632
3 551 632 552
3 552 632 633
3 552 633 553
3 553 633 634
3 553 634 554
3 554 634 635
3 554 635 555
3 555 635 636
3 555 636 556
3 556 636 637
3 556 637 557
3 557 637 638
3 557 638 558
3 558 638 639
3 558 639 559
3 559 639 640
3 559 640 560
3 560 640 561
3 560 561 481
