ply 
format ascii 1.0 
comment this is a surface 
element vertex 721 
property float x 
property float y 
property float z 
element face 1326 
property list uchar int vertex_index 
end_header 
197.901625 217.143000 -76.160000
200.660000 235.640000 -76.160000
199.090000 235.910000 -76.160000
197.530000 236.100000 -76.160000
195.990000 236.200000 -76.160000
194.460000 236.160000 -76.160000
192.860000 235.890000 -76.160000
191.240000 235.410000 -76.160000
189.690000 234.800000 -76.160000
188.280000 234.100000 -76.160000
187.090000 233.380000 -76.160000
186.050000 232.540000 -76.160000
185.060000 231.470000 -76.160000
184.120000 230.220000 -76.160000
183.240000 228.830000 -76.160000
182.420000 227.340000 -76.160000
181.690000 225.790000 -76.160000
181.030000 224.230000 -76.160000
180.460000 222.680000 -76.160000
179.990000 221.210000 -76.160000
179.570000 219.740000 -76.160000
179.190000 218.250000 -76.160000
178.840000 216.720000 -76.160000
178.540000 215.160000 -76.160000
178.320000 213.580000 -76.160000
178.170000 211.980000 -76.160000
178.170000 211.980000 -76.160000
178.960000 210.620000 -76.160000
179.800000 209.280000 -76.160000
180.670000 207.980000 -76.160000
181.580000 206.710000 -76.160000
182.520000 205.470000 -76.160000
183.490000 204.160000 -76.160000
184.480000 202.800000 -76.160000
185.530000 201.510000 -76.160000
186.630000 200.400000 -76.160000
187.810000 199.620000 -76.160000
189.110000 199.110000 -76.160000
190.550000 198.640000 -76.160000
192.100000 198.210000 -76.160000
193.710000 197.840000 -76.160000
195.340000 197.540000 -76.160000
196.960000 197.320000 -76.160000
198.530000 197.190000 -76.160000
200.010000 197.170000 -76.160000
201.520000 197.370000 -76.160000
203.060000 197.790000 -76.160000
204.610000 198.390000 -76.160000
206.140000 199.150000 -76.160000
207.620000 200.030000 -76.160000
209.030000 201.000000 -76.160000
210.320000 202.030000 -76.160000
211.480000 203.090000 -76.160000
212.470000 204.130000 -76.160000
213.320000 205.220000 -76.160000
214.120000 206.510000 -76.160000
214.860000 207.970000 -76.160000
215.490000 209.510000 -76.160000
215.990000 211.080000 -76.160000
216.300000 212.610000 -76.160000
216.520000 214.140000 -76.160000
216.720000 215.700000 -76.160000
216.870000 217.280000 -76.160000
216.960000 218.860000 -76.160000
216.970000 220.420000 -76.160000
216.870000 222.060000 -76.160000
216.650000 223.770000 -76.160000
216.330000 225.460000 -76.160000
215.930000 227.060000 -76.160000
215.470000 228.500000 -76.160000
214.950000 229.690000 -76.160000
214.240000 230.650000 -76.160000
213.080000 231.540000 -76.160000
211.620000 232.340000 -76.160000
209.990000 233.050000 -76.160000
208.330000 233.640000 -76.160000
206.790000 234.110000 -76.160000
205.310000 234.530000 -76.160000
203.780000 234.930000 -76.160000
202.230000 235.310000 -76.160000
200.660000 235.640000 -76.160000
200.710000 242.020000 -66.640000
200.710000 242.020000 -66.640000
198.550000 242.180000 -66.640000
196.380000 242.090000 -66.640000
194.150000 241.830000 -66.640000
191.920000 241.440000 -66.640000
189.730000 240.930000 -66.640000
187.630000 240.360000 -66.640000
185.690000 239.740000 -66.640000
183.790000 238.880000 -66.640000
181.920000 237.710000 -66.640000
180.100000 236.300000 -66.640000
178.380000 234.710000 -66.640000
176.810000 233.010000 -66.640000
175.430000 231.290000 -66.640000
174.260000 229.580000 -66.640000
173.200000 227.730000 -66.640000
172.210000 225.730000 -66.640000
171.350000 223.640000 -66.640000
170.650000 221.510000 -66.640000
170.140000 219.390000 -66.640000
169.730000 217.260000 -66.640000
169.360000 215.070000 -66.640000
169.050000 212.860000 -66.640000
168.840000 210.670000 -66.640000
168.770000 208.530000 -66.640000
169.020000 206.380000 -66.640000
169.690000 204.180000 -66.640000
170.650000 202.050000 -66.640000
171.760000 200.110000 -66.640000
172.920000 198.460000 -66.640000
174.250000 197.010000 -66.640000
175.890000 195.670000 -66.640000
177.790000 194.460000 -66.640000
179.890000 193.410000 -66.640000
182.180000 192.540000 -66.640000
182.180000 192.540000 -66.640000
184.340000 192.010000 -66.640000
186.500000 191.610000 -66.640000
188.660000 191.390000 -66.640000
190.830000 191.390000 -66.640000
193.000000 191.560000 -66.640000
195.170000 191.850000 -66.640000
197.340000 192.200000 -66.640000
199.510000 192.580000 -66.640000
201.680000 192.910000 -66.640000
203.880000 193.250000 -66.640000
206.070000 193.610000 -66.640000
208.230000 194.030000 -66.640000
210.290000 194.550000 -66.640000
212.290000 195.270000 -66.640000
214.290000 196.280000 -66.640000
216.220000 197.510000 -66.640000
218.020000 198.880000 -66.640000
219.610000 200.330000 -66.640000
221.070000 201.850000 -66.640000
222.590000 203.600000 -66.640000
224.000000 205.500000 -66.640000
225.090000 207.510000 -66.640000
225.660000 209.540000 -66.640000
225.690000 211.590000 -66.640000
225.640000 213.760000 -66.640000
225.560000 216.010000 -66.640000
225.440000 218.280000 -66.640000
225.290000 220.520000 -66.640000
225.110000 222.670000 -66.640000
224.820000 224.700000 -66.640000
223.990000 226.690000 -66.640000
222.730000 228.610000 -66.640000
221.290000 230.410000 -66.640000
219.890000 232.050000 -66.640000
218.390000 233.660000 -66.640000
216.740000 235.220000 -66.640000
214.980000 236.640000 -66.640000
213.140000 237.850000 -66.640000
211.270000 238.780000 -66.640000
209.300000 239.600000 -66.640000
207.230000 240.380000 -66.640000
205.080000 241.080000 -66.640000
202.900000 241.640000 -66.640000
200.810000 243.520000 -57.120000
198.300000 243.810000 -57.120000
198.300000 243.810000 -57.120000
195.780000 244.040000 -57.120000
193.300000 244.180000 -57.120000
190.930000 244.240000 -57.120000
188.670000 243.860000 -57.120000
186.470000 242.790000 -57.120000
184.330000 241.340000 -57.120000
182.230000 239.810000 -57.120000
180.170000 238.450000 -57.120000
178.100000 237.070000 -57.120000
176.090000 235.600000 -57.120000
174.220000 234.020000 -57.120000
172.560000 232.320000 -57.120000
171.030000 230.420000 -57.120000
169.610000 228.380000 -57.120000
168.320000 226.240000 -57.120000
167.170000 224.090000 -57.120000
166.060000 221.900000 -57.120000
164.970000 219.640000 -57.120000
164.020000 217.340000 -57.120000
163.310000 215.000000 -57.120000
162.920000 212.630000 -57.120000
162.640000 210.190000 -57.120000
162.440000 207.710000 -57.120000
162.320000 205.260000 -57.120000
162.440000 202.860000 -57.120000
163.150000 200.460000 -57.120000
164.220000 198.150000 -57.120000
165.370000 196.070000 -57.120000
166.720000 194.160000 -57.120000
168.380000 192.360000 -57.120000
170.290000 190.690000 -57.120000
172.430000 189.190000 -57.120000
172.430000 189.190000 -57.120000
174.770000 188.450000 -57.120000
177.140000 187.780000 -57.120000
179.520000 187.240000 -57.120000
181.930000 186.810000 -57.120000
184.360000 186.400000 -57.120000
186.810000 186.070000 -57.120000
189.240000 185.910000 -57.120000
191.660000 186.020000 -57.120000
194.060000 186.480000 -57.120000
196.460000 187.140000 -57.120000
198.830000 187.840000 -57.120000
201.190000 188.500000 -57.120000
203.530000 189.240000 -57.120000
205.850000 190.070000 -57.120000
208.130000 190.960000 -57.120000
210.400000 191.910000 -57.120000
212.660000 192.960000 -57.120000
214.830000 194.130000 -57.120000
216.830000 195.440000 -57.120000
218.780000 196.980000 -57.120000
220.620000 198.750000 -57.120000
222.170000 200.660000 -57.120000
223.290000 202.690000 -57.120000
224.330000 204.920000 -57.120000
225.230000 207.300000 -57.120000
225.850000 209.750000 -57.120000
226.060000 212.170000 -57.120000
226.010000 214.620000 -57.120000
225.890000 217.130000 -57.120000
225.700000 219.610000 -57.120000
225.460000 222.010000 -57.120000
224.980000 224.280000 -57.120000
223.840000 226.470000 -57.120000
222.330000 228.560000 -57.120000
220.820000 230.510000 -57.120000
219.260000 232.370000 -57.120000
217.550000 234.160000 -57.120000
215.730000 235.860000 -57.120000
213.830000 237.450000 -57.120000
211.900000 238.920000 -57.120000
209.870000 240.460000 -57.120000
207.750000 241.830000 -57.120000
205.540000 242.730000 -57.120000
203.240000 243.160000 -57.120000
201.010000 247.160000 -47.600000
198.210000 247.670000 -47.600000
198.210000 247.670000 -47.600000
195.410000 247.980000 -47.600000
192.660000 248.000000 -47.600000
189.850000 247.690000 -47.600000
187.030000 247.110000 -47.600000
184.290000 246.340000 -47.600000
181.740000 245.460000 -47.600000
179.410000 244.390000 -47.600000
177.230000 242.790000 -47.600000
175.160000 240.820000 -47.600000
173.170000 238.680000 -47.600000
171.220000 236.560000 -47.600000
169.230000 234.580000 -47.600000
167.100000 232.600000 -47.600000
165.000000 230.580000 -47.600000
163.090000 228.480000 -47.600000
161.560000 226.270000 -47.600000
160.540000 223.920000 -47.600000
159.680000 221.350000 -47.600000
158.930000 218.610000 -47.600000
158.360000 215.790000 -47.600000
158.050000 212.980000 -47.600000
158.040000 210.200000 -47.600000
158.140000 207.340000 -47.600000
158.330000 204.500000 -47.600000
158.580000 201.780000 -47.600000
158.960000 199.270000 -47.600000
159.890000 196.870000 -47.600000
161.350000 194.560000 -47.600000
163.240000 192.350000 -47.600000
165.460000 190.260000 -47.600000
167.900000 188.280000 -47.600000
167.900000 188.280000 -47.600000
170.090000 186.340000 -47.600000
172.390000 184.640000 -47.600000
174.780000 183.310000 -47.600000
177.280000 182.450000 -47.600000
179.940000 181.780000 -47.600000
182.710000 181.230000 -47.600000
185.530000 180.870000 -47.600000
188.290000 180.760000 -47.600000
191.030000 181.070000 -47.600000
193.760000 181.690000 -47.600000
196.470000 182.420000 -47.600000
199.160000 183.120000 -47.600000
201.840000 183.920000 -47.600000
204.480000 184.820000 -47.600000
207.040000 185.830000 -47.600000
209.510000 187.070000 -47.600000
211.910000 188.490000 -47.600000
214.310000 189.930000 -47.600000
216.790000 191.260000 -47.600000
219.320000 192.570000 -47.600000
221.600000 194.060000 -47.600000
223.540000 195.900000 -47.600000
225.360000 198.110000 -47.600000
226.920000 200.530000 -47.600000
228.090000 203.020000 -47.600000
228.990000 205.590000 -47.600000
229.790000 208.320000 -47.600000
230.330000 211.100000 -47.600000
230.460000 213.830000 -47.600000
230.080000 216.550000 -47.600000
229.340000 219.270000 -47.600000
228.410000 221.950000 -47.600000
227.460000 224.560000 -47.600000
226.410000 227.180000 -47.600000
225.160000 229.740000 -47.600000
223.740000 232.120000 -47.600000
222.110000 234.190000 -47.600000
220.090000 236.040000 -47.600000
217.820000 237.750000 -47.600000
215.480000 239.390000 -47.600000
213.220000 241.050000 -47.600000
210.980000 242.840000 -47.600000
208.690000 244.510000 -47.600000
206.290000 245.750000 -47.600000
203.730000 246.500000 -47.600000
201.620000 250.090000 -38.080000
198.600000 250.640000 -38.080000
198.600000 250.640000 -38.080000
195.500000 250.960000 -38.080000
195.500000 250.960000 -38.080000
192.380000 250.780000 -38.080000
189.350000 250.310000 -38.080000
186.430000 249.640000 -38.080000
183.610000 248.870000 -38.080000
180.890000 247.790000 -38.080000
178.260000 246.250000 -38.080000
175.720000 244.450000 -38.080000
173.280000 242.640000 -38.080000
170.850000 240.830000 -38.080000
168.410000 238.910000 -38.080000
166.070000 236.880000 -38.080000
163.920000 234.740000 -38.080000
162.040000 232.480000 -38.080000
160.430000 230.070000 -38.080000
158.910000 227.430000 -38.080000
157.540000 224.650000 -38.080000
156.390000 221.780000 -38.080000
155.550000 218.900000 -38.080000
154.920000 215.970000 -38.080000
154.330000 212.920000 -38.080000
153.820000 209.830000 -38.080000
153.430000 206.780000 -38.080000
153.210000 203.840000 -38.080000
153.260000 201.070000 -38.080000
154.390000 198.420000 -38.080000
156.340000 195.860000 -38.080000
158.540000 193.460000 -38.080000
160.550000 191.210000 -38.080000
162.680000 188.980000 -38.080000
164.970000 186.900000 -38.080000
167.410000 185.120000 -38.080000
169.980000 183.750000 -38.080000
172.790000 182.600000 -38.080000
175.720000 181.680000 -38.080000
178.640000 180.990000 -38.080000
181.600000 180.340000 -38.080000
184.590000 179.780000 -38.080000
187.600000 179.370000 -38.080000
190.600000 179.210000 -38.080000
193.640000 179.230000 -38.080000
196.690000 179.280000 -38.080000
199.640000 179.360000 -38.080000
202.470000 180.080000 -38.080000
205.220000 181.500000 -38.080000
207.910000 183.130000 -38.080000
210.530000 184.630000 -38.080000
213.100000 186.210000 -38.080000
215.610000 187.910000 -38.080000
218.070000 189.670000 -38.080000
220.500000 191.480000 -38.080000
222.970000 193.320000 -38.080000
225.330000 195.260000 -38.080000
227.330000 197.410000 -38.080000
229.110000 199.850000 -38.080000
230.690000 202.550000 -38.080000
231.690000 205.370000 -38.080000
232.200000 208.290000 -38.080000
232.550000 211.340000 -38.080000
232.670000 214.350000 -38.080000
232.090000 217.240000 -38.080000
230.950000 220.090000 -38.080000
229.790000 222.960000 -38.080000
229.080000 225.900000 -38.080000
228.600000 228.960000 -38.080000
227.990000 231.830000 -38.080000
226.800000 234.440000 -38.080000
224.990000 236.940000 -38.080000
222.810000 239.270000 -38.080000
220.510000 241.360000 -38.080000
218.220000 243.210000 -38.080000
215.680000 244.920000 -38.080000
212.980000 246.410000 -38.080000
210.220000 247.550000 -38.080000
207.430000 248.490000 -38.080000
204.560000 249.360000 -38.080000
203.000000 250.250000 -28.560000
200.230000 250.250000 -28.560000
197.300000 250.250000 -28.560000
197.300000 250.250000 -28.560000
194.280000 250.250000 -28.560000
191.260000 250.250000 -28.560000
188.330000 250.250000 -28.560000
185.470000 250.020000 -28.560000
182.580000 249.190000 -28.560000
179.770000 247.970000 -28.560000
177.180000 246.580000 -28.560000
174.900000 245.070000 -28.560000
172.870000 243.040000 -28.560000
170.970000 240.700000 -28.560000
169.080000 238.320000 -28.560000
167.080000 236.150000 -28.560000
164.870000 234.100000 -28.560000
162.650000 232.060000 -28.560000
160.660000 229.930000 -28.560000
159.140000 227.620000 -28.560000
157.880000 225.060000 -28.560000
156.740000 222.300000 -28.560000
155.820000 219.430000 -28.560000
155.190000 216.540000 -28.560000
154.890000 213.660000 -28.560000
154.650000 210.700000 -28.560000
154.470000 207.710000 -28.560000
154.370000 204.800000 -28.560000
154.410000 202.030000 -28.560000
155.230000 199.290000 -28.560000
156.750000 196.600000 -28.560000
158.630000 194.090000 -28.560000
160.540000 191.860000 -28.560000
162.440000 189.870000 -28.560000
164.610000 188.010000 -28.560000
167.020000 186.300000 -28.560000
169.640000 184.770000 -28.560000
172.460000 183.440000 -28.560000
172.460000 183.440000 -28.560000
175.270000 182.340000 -28.560000
178.100000 181.480000 -28.560000
180.950000 180.960000 -28.560000
183.820000 180.860000 -28.560000
186.760000 181.000000 -28.560000
189.700000 181.260000 -28.560000
192.610000 181.610000 -28.560000
195.410000 182.140000 -28.560000
198.130000 183.220000 -28.560000
200.830000 184.480000 -28.560000
203.570000 185.520000 -28.560000
206.360000 186.410000 -28.560000
209.150000 187.310000 -28.560000
211.890000 188.290000 -28.560000
214.640000 189.380000 -28.560000
217.230000 190.670000 -28.560000
219.840000 192.220000 -28.560000
222.450000 194.000000 -28.560000
224.740000 195.980000 -28.560000
226.380000 198.130000 -28.560000
227.430000 200.540000 -28.560000
228.360000 203.330000 -28.560000
229.100000 206.310000 -28.560000
229.540000 209.340000 -28.560000
229.620000 212.270000 -28.560000
229.540000 215.230000 -28.560000
229.390000 218.230000 -28.560000
229.170000 221.190000 -28.560000
228.890000 224.060000 -28.560000
228.490000 226.780000 -28.560000
227.410000 229.430000 -28.560000
225.760000 231.990000 -28.560000
223.820000 234.400000 -28.560000
221.890000 236.590000 -28.560000
219.830000 238.550000 -28.560000
217.500000 240.340000 -28.560000
215.060000 242.060000 -28.560000
212.630000 243.760000 -28.560000
210.300000 245.750000 -28.560000
207.960000 247.930000 -28.560000
205.550000 249.640000 -28.560000
202.720000 249.240000 -19.040000
199.850000 249.440000 -19.040000
196.870000 249.580000 -19.040000
193.840000 249.690000 -19.040000
193.840000 249.690000 -19.040000
190.800000 249.760000 -19.040000
187.820000 249.790000 -19.040000
184.850000 249.590000 -19.040000
181.820000 248.930000 -19.040000
178.850000 247.940000 -19.040000
176.090000 246.740000 -19.040000
173.660000 245.450000 -19.040000
171.510000 243.620000 -19.040000
169.540000 241.280000 -19.040000
167.690000 238.720000 -19.040000
165.880000 236.240000 -19.040000
164.110000 233.840000 -19.040000
162.400000 231.380000 -19.040000
160.760000 228.860000 -19.040000
159.230000 226.310000 -19.040000
157.730000 223.710000 -19.040000
156.230000 221.070000 -19.040000
154.910000 218.360000 -19.040000
153.970000 215.590000 -19.040000
153.270000 212.690000 -19.040000
152.690000 209.710000 -19.040000
152.370000 206.730000 -19.040000
152.420000 203.830000 -19.040000
152.780000 200.940000 -19.040000
153.450000 198.070000 -19.040000
154.430000 195.210000 -19.040000
155.710000 192.380000 -19.040000
157.290000 189.570000 -19.040000
157.290000 189.570000 -19.040000
158.980000 186.800000 -19.040000
160.970000 184.560000 -19.040000
163.260000 183.210000 -19.040000
165.990000 182.320000 -19.040000
169.010000 181.620000 -19.040000
172.080000 180.970000 -19.040000
175.000000 180.200000 -19.040000
177.880000 179.310000 -19.040000
180.800000 178.760000 -19.040000
183.770000 178.640000 -19.040000
186.800000 178.560000 -19.040000
189.790000 178.520000 -19.040000
192.680000 178.620000 -19.040000
195.490000 179.460000 -19.040000
198.260000 180.810000 -19.040000
200.980000 182.270000 -19.040000
203.700000 183.530000 -19.040000
206.390000 184.850000 -19.040000
209.030000 186.250000 -19.040000
211.590000 187.770000 -19.040000
214.090000 189.420000 -19.040000
216.520000 191.190000 -19.040000
218.840000 193.060000 -19.040000
221.150000 195.030000 -19.040000
223.430000 197.140000 -19.040000
225.240000 199.430000 -19.040000
226.450000 201.970000 -19.040000
227.520000 204.790000 -19.040000
228.370000 207.760000 -19.040000
228.920000 210.770000 -19.040000
229.160000 213.730000 -19.040000
229.330000 216.780000 -19.040000
229.450000 219.820000 -19.040000
229.500000 222.730000 -19.040000
229.090000 225.440000 -19.040000
227.700000 228.040000 -19.040000
225.750000 230.560000 -19.040000
223.650000 233.000000 -19.040000
221.790000 235.380000 -19.040000
219.940000 237.810000 -19.040000
217.980000 240.170000 -19.040000
215.890000 242.280000 -19.040000
213.620000 244.020000 -19.040000
211.110000 245.710000 -19.040000
208.400000 247.280000 -19.040000
205.580000 248.530000 -19.040000
202.540000 246.130000 -9.520000
199.630000 246.600000 -9.520000
196.700000 246.920000 -9.520000
193.810000 247.050000 -9.520000
193.810000 247.050000 -9.520000
191.000000 246.870000 -9.520000
188.180000 246.320000 -9.520000
185.390000 245.570000 -9.520000
182.650000 244.800000 -9.520000
179.890000 243.940000 -9.520000
177.130000 242.920000 -9.520000
174.490000 241.740000 -9.520000
172.040000 240.420000 -9.520000
169.860000 238.860000 -9.520000
167.850000 236.910000 -9.520000
165.960000 234.700000 -9.520000
164.160000 232.350000 -9.520000
162.420000 230.010000 -9.520000
160.630000 227.740000 -9.520000
158.730000 225.440000 -9.520000
157.060000 223.060000 -9.520000
155.940000 220.570000 -9.520000
155.340000 217.920000 -9.520000
154.830000 215.110000 -9.520000
154.450000 212.220000 -9.520000
154.230000 209.320000 -9.520000
154.220000 206.440000 -9.520000
154.370000 203.450000 -9.520000
154.650000 200.580000 -9.520000
155.130000 198.110000 -9.520000
156.860000 196.050000 -9.520000
159.340000 194.150000 -9.520000
161.560000 192.130000 -9.520000
163.380000 189.920000 -9.520000
165.180000 187.690000 -9.520000
167.150000 185.680000 -9.520000
169.290000 183.820000 -9.520000
171.560000 182.080000 -9.520000
173.960000 180.480000 -9.520000
173.960000 180.480000 -9.520000
176.680000 179.390000 -9.520000
179.430000 178.540000 -9.520000
182.210000 178.130000 -9.520000
185.040000 178.120000 -9.520000
187.910000 178.120000 -9.520000
190.750000 178.120000 -9.520000
193.590000 178.420000 -9.520000
196.410000 179.120000 -9.520000
199.140000 180.040000 -9.520000
201.670000 181.140000 -9.520000
204.010000 182.780000 -9.520000
206.340000 184.540000 -9.520000
208.830000 185.920000 -9.520000
211.480000 187.060000 -9.520000
214.100000 188.220000 -9.520000
216.520000 189.620000 -9.520000
218.920000 191.340000 -9.520000
221.140000 193.290000 -9.520000
222.840000 195.440000 -9.520000
224.000000 197.890000 -9.520000
224.940000 200.640000 -9.520000
225.710000 203.490000 -9.520000
226.390000 206.260000 -9.520000
227.070000 209.080000 -9.520000
227.600000 211.910000 -9.520000
227.830000 214.700000 -9.520000
227.580000 217.470000 -9.520000
226.870000 220.260000 -9.520000
225.830000 223.010000 -9.520000
224.610000 225.690000 -9.520000
223.350000 228.250000 -9.520000
222.010000 230.680000 -9.520000
220.350000 233.020000 -9.520000
218.490000 235.260000 -9.520000
216.540000 237.380000 -9.520000
214.570000 239.480000 -9.520000
212.470000 241.670000 -9.520000
210.240000 243.580000 -9.520000
207.870000 244.850000 -9.520000
205.310000 245.530000 -9.520000
204.600000 248.570000 0.000000
201.720000 249.380000 0.000000
198.720000 250.060000 0.000000
195.610000 250.530000 0.000000
195.610000 250.530000 0.000000
192.400000 250.740000 0.000000
192.400000 250.740000 0.000000
189.300000 250.390000 0.000000
186.260000 249.860000 0.000000
183.290000 249.190000 0.000000
180.390000 248.390000 0.000000
177.460000 247.350000 0.000000
174.560000 246.080000 0.000000
171.750000 244.620000 0.000000
169.080000 243.020000 0.000000
166.610000 241.310000 0.000000
164.380000 239.450000 0.000000
162.330000 237.200000 0.000000
160.420000 234.700000 0.000000
158.650000 232.090000 0.000000
156.950000 229.520000 0.000000
155.180000 226.900000 0.000000
153.600000 224.190000 0.000000
152.540000 221.400000 0.000000
152.000000 218.490000 0.000000
151.540000 215.460000 0.000000
151.170000 212.370000 0.000000
150.920000 209.250000 0.000000
150.810000 206.170000 0.000000
151.030000 203.090000 0.000000
151.770000 200.040000 0.000000
152.740000 197.340000 0.000000
154.280000 194.860000 0.000000
156.300000 192.520000 0.000000
158.620000 190.280000 0.000000
161.040000 188.120000 0.000000
163.370000 186.000000 0.000000
165.570000 183.700000 0.000000
167.800000 181.160000 0.000000
170.110000 178.780000 0.000000
172.530000 176.950000 0.000000
175.120000 176.070000 0.000000
177.990000 175.880000 0.000000
181.130000 175.750000 0.000000
184.300000 175.680000 0.000000
187.320000 175.800000 0.000000
190.300000 176.450000 0.000000
193.260000 177.480000 0.000000
196.160000 178.670000 0.000000
199.000000 179.820000 0.000000
201.760000 181.120000 0.000000
204.480000 182.580000 0.000000
207.180000 184.060000 0.000000
210.000000 185.440000 0.000000
213.000000 186.730000 0.000000
215.950000 188.050000 0.000000
218.600000 189.510000 0.000000
220.710000 191.210000 0.000000
222.540000 193.290000 0.000000
224.360000 195.750000 0.000000
226.070000 198.490000 0.000000
227.610000 201.440000 0.000000
228.880000 204.510000 0.000000
229.790000 207.610000 0.000000
230.280000 210.650000 0.000000
230.300000 213.630000 0.000000
230.080000 216.720000 0.000000
229.690000 219.840000 0.000000
229.200000 222.870000 0.000000
228.530000 225.730000 0.000000
227.330000 228.550000 0.000000
225.710000 231.300000 0.000000
223.840000 233.900000 0.000000
221.870000 236.300000 0.000000
219.900000 238.500000 0.000000
217.700000 240.700000 0.000000
215.300000 242.820000 0.000000
212.740000 244.760000 0.000000
210.080000 246.410000 0.000000
207.360000 247.680000 0.000000
3 0 80 2
3 0 2 3
3 0 3 4
3 0 4 5
3 0 5 6
3 0 6 7
3 0 7 8
3 0 8 9
3 0 9 10
3 0 10 11
3 0 11 12
3 0 12 13
3 0 13 14
3 0 14 15
3 0 15 16
3 0 16 17
3 0 17 18
3 0 18 19
3 0 19 20
3 0 20 21
3 0 21 22
3 0 22 23
3 0 23 24
3 0 24 25
3 0 25 27
3 0 27 28
3 0 28 29
3 0 29 30
3 0 30 31
3 0 31 32
3 0 32 33
3 0 33 34
3 0 34 35
3 0 35 36
3 0 36 37
3 0 37 38
3 0 38 39
3 0 39 40
3 0 40 41
3 0 41 42
3 0 42 43
3 0 43 44
3 0 44 45
3 0 45 46
3 0 46 47
3 0 47 48
3 0 48 49
3 0 49 50
3 0 50 51
3 0 51 52
3 0 52 53
3 0 53 54
3 0 54 55
3 0 55 56
3 0 56 57
3 0 57 58
3 0 58 59
3 0 59 60
3 0 60 61
3 0 61 62
3 0 62 63
3 0 63 64
3 0 64 65
3 0 65 66
3 0 66 67
3 0 67 68
3 0 68 69
3 0 69 70
3 0 70 71
3 0 71 72
3 0 72 73
3 0 73 74
3 0 74 75
3 0 75 76
3 0 76 77
3 0 77 78
3 0 78 79
3 0 79 80
3 80 81 2
3 2 81 83
3 2 83 3
3 3 83 84
3 3 84 4
3 4 84 85
3 4 85 5
3 5 85 86
3 5 86 6
3 6 86 87
3 6 87 7
3 7 87 88
3 7 88 8
3 8 88 89
3 8 89 9
3 9 89 90
3 9 90 10
3 10 90 91
3 10 91 11
3 11 91 92
3 11 92 12
3 12 92 93
3 12 93 13
3 13 93 94
3 13 94 14
3 14 94 95
3 14 95 15
3 15 95 96
3 15 96 16
3 16 96 97
3 16 97 17
3 17 97 98
3 17 98 18
3 18 98 99
3 18 99 19
3 19 99 100
3 19 100 20
3 20 100 101
3 20 101 21
3 21 101 102
3 21 102 22
3 22 102 103
3 22 103 23
3 23 103 104
3 23 104 24
3 24 104 105
3 24 105 25
3 25 105 106
3 25 106 107
3 25 107 27
3 27 107 108
3 27 108 28
3 28 108 109
3 28 109 29
3 29 109 110
3 29 110 30
3 30 110 111
3 30 111 31
3 31 111 112
3 31 112 32
3 32 112 113
3 32 113 33
3 33 113 114
3 33 114 34
3 34 114 115
3 34 115 35
3 35 115 116
3 35 116 36
3 36 116 37
3 37 116 118
3 37 118 38
3 38 118 119
3 38 119 39
3 39 119 120
3 39 120 40
3 40 120 121
3 40 121 41
3 41 121 122
3 41 122 42
3 42 122 123
3 42 123 43
3 43 123 124
3 43 124 44
3 44 124 125
3 44 125 45
3 45 125 126
3 45 126 46
3 46 126 127
3 46 127 47
3 47 127 128
3 47 128 48
3 48 128 129
3 48 129 49
3 49 129 130
3 49 130 50
3 50 130 131
3 50 131 51
3 51 131 132
3 51 132 52
3 52 132 133
3 52 133 53
3 53 133 134
3 53 134 54
3 54 134 135
3 54 135 55
3 55 135 136
3 55 136 56
3 56 136 137
3 56 137 57
3 57 137 138
3 57 138 58
3 58 138 139
3 58 139 59
3 59 139 140
3 59 140 60
3 60 140 141
3 60 141 61
3 61 141 142
3 61 142 62
3 62 142 143
3 62 143 63
3 63 143 144
3 63 144 64
3 64 144 145
3 64 145 65
3 65 145 146
3 65 146 66
3 66 146 147
3 66 147 67
3 67 147 148
3 67 148 68
3 68 148 149
3 68 149 69
3 69 149 150
3 69 150 70
3 70 150 151
3 70 151 71
3 71 151 152
3 71 152 72
3 72 152 153
3 72 153 73
3 73 153 154
3 73 154 74
3 74 154 155
3 74 155 75
3 75 155 156
3 75 156 76
3 76 156 157
3 76 157 77
3 77 157 158
3 77 158 78
3 78 158 159
3 78 159 79
3 79 159 160
3 79 160 80
3 80 160 81
3 81 161 162
3 81 162 83
3 83 162 164
3 83 164 84
3 84 164 165
3 84 165 85
3 85 165 166
3 85 166 86
3 86 166 167
3 86 167 87
3 87 167 168
3 87 168 88
3 88 168 169
3 88 169 89
3 89 169 170
3 89 170 90
3 90 170 171
3 90 171 91
3 91 171 172
3 91 172 92
3 92 172 173
3 92 173 93
3 93 173 174
3 93 174 94
3 94 174 175
3 94 175 95
3 95 175 176
3 95 176 96
3 96 176 177
3 96 177 97
3 97 177 178
3 97 178 98
3 98 178 179
3 98 179 99
3 99 179 180
3 99 180 100
3 100 180 181
3 100 181 101
3 101 181 182
3 101 182 102
3 102 182 183
3 102 183 103
3 103 183 184
3 103 184 104
3 104 184 185
3 104 185 105
3 105 185 186
3 105 186 106
3 106 186 187
3 106 187 107
3 107 187 188
3 107 188 108
3 108 188 189
3 108 189 109
3 109 189 190
3 109 190 110
3 110 190 191
3 110 191 111
3 111 191 192
3 111 192 112
3 112 192 193
3 112 193 113
3 113 193 194
3 113 194 114
3 114 194 195
3 114 195 115
3 115 195 116
3 116 195 197
3 116 197 198
3 116 198 118
3 118 198 199
3 118 199 119
3 119 199 200
3 119 200 120
3 120 200 201
3 120 201 121
3 121 201 202
3 121 202 122
3 122 202 203
3 122 203 123
3 123 203 204
3 123 204 124
3 124 204 205
3 124 205 125
3 125 205 206
3 125 206 126
3 126 206 207
3 126 207 127
3 127 207 208
3 127 208 128
3 128 208 209
3 128 209 129
3 129 209 210
3 129 210 130
3 130 210 211
3 130 211 131
3 131 211 212
3 131 212 132
3 132 212 213
3 132 213 133
3 133 213 214
3 133 214 134
3 134 214 215
3 134 215 135
3 135 215 216
3 135 216 136
3 136 216 217
3 136 217 137
3 137 217 218
3 137 218 138
3 138 218 219
3 138 219 139
3 139 219 220
3 139 220 140
3 140 220 221
3 140 221 141
3 141 221 222
3 141 222 142
3 142 222 223
3 142 223 143
3 143 223 224
3 143 224 144
3 144 224 225
3 144 225 145
3 145 225 226
3 145 226 146
3 146 226 227
3 146 227 147
3 147 227 228
3 147 228 148
3 148 228 229
3 148 229 149
3 149 229 230
3 149 230 150
3 150 230 231
3 150 231 151
3 151 231 232
3 151 232 152
3 152 232 233
3 152 233 153
3 153 233 234
3 153 234 154
3 154 234 235
3 154 235 155
3 155 235 236
3 155 236 156
3 156 236 237
3 156 237 157
3 157 237 238
3 157 238 158
3 158 238 239
3 158 239 159
3 159 239 240
3 159 240 160
3 160 240 161
3 160 161 81
3 161 241 242
3 161 242 162
3 162 242 244
3 162 244 164
3 164 244 245
3 164 245 165
3 165 245 246
3 165 246 166
3 166 246 247
3 166 247 167
3 167 247 248
3 167 248 168
3 168 248 249
3 168 249 169
3 169 249 250
3 169 250 170
3 170 250 251
3 170 251 171
3 171 251 252
3 171 252 172
3 172 252 253
3 172 253 173
3 173 253 254
3 173 254 174
3 174 254 255
3 174 255 175
3 175 255 256
3 175 256 176
3 176 256 257
3 176 257 177
3 177 257 258
3 177 258 178
3 178 258 259
3 178 259 179
3 179 259 260
3 179 260 180
3 180 260 261
3 180 261 181
3 181 261 262
3 181 262 182
3 182 262 263
3 182 263 183
3 183 263 264
3 183 264 184
3 184 264 265
3 184 265 185
3 185 265 266
3 185 266 186
3 186 266 267
3 186 267 187
3 187 267 268
3 187 268 188
3 188 268 269
3 188 269 189
3 189 269 270
3 189 270 190
3 190 270 271
3 190 271 191
3 191 271 272
3 191 272 192
3 192 272 273
3 192 273 193
3 193 273 274
3 193 274 194
3 194 274 195
3 195 274 276
3 195 276 277
3 195 277 197
3 197 277 278
3 197 278 198
3 198 278 279
3 198 279 199
3 199 279 280
3 199 280 200
3 200 280 281
3 200 281 201
3 201 281 282
3 201 282 202
3 202 282 283
3 202 283 203
3 203 283 284
3 203 284 204
3 204 284 285
3 204 285 205
3 205 285 286
3 205 286 206
3 206 286 287
3 206 287 207
3 207 287 288
3 207 288 208
3 208 288 289
3 208 289 209
3 209 289 290
3 209 290 210
3 210 290 291
3 210 291 211
3 211 291 292
3 211 292 212
3 212 292 293
3 212 293 213
3 213 293 294
3 213 294 214
3 214 294 295
3 214 295 215
3 215 295 296
3 215 296 216
3 216 296 297
3 216 297 217
3 217 297 298
3 217 298 218
3 218 298 299
3 218 299 219
3 219 299 300
3 219 300 220
3 220 300 301
3 220 301 221
3 221 301 302
3 221 302 222
3 222 302 303
3 222 303 223
3 223 303 304
3 223 304 224
3 224 304 305
3 224 305 225
3 225 305 306
3 225 306 226
3 226 306 307
3 226 307 227
3 227 307 308
3 227 308 228
3 228 308 309
3 228 309 229
3 229 309 310
3 229 310 230
3 230 310 311
3 230 311 231
3 231 311 312
3 231 312 232
3 232 312 313
3 232 313 233
3 233 313 314
3 233 314 234
3 234 314 315
3 234 315 235
3 235 315 316
3 235 316 236
3 236 316 317
3 236 317 237
3 237 317 318
3 237 318 238
3 238 318 319
3 238 319 239
3 239 319 320
3 239 320 240
3 240 320 241
3 240 241 161
3 241 321 322
3 241 322 242
3 242 322 324
3 242 324 244
3 244 324 245
3 245 324 326
3 245 326 246
3 246 326 327
3 246 327 247
3 247 327 328
3 247 328 248
3 248 328 329
3 248 329 249
3 249 329 330
3 249 330 250
3 250 330 331
3 250 331 251
3 251 331 332
3 251 332 252
3 252 332 333
3 252 333 253
3 253 333 334
3 253 334 254
3 254 334 335
3 254 335 255
3 255 335 336
3 255 336 256
3 256 336 337
3 256 337 257
3 257 337 338
3 257 338 258
3 258 338 339
3 258 339 259
3 259 339 340
3 259 340 260
3 260 340 341
3 260 341 261
3 261 341 342
3 261 342 262
3 262 342 343
3 262 343 263
3 263 343 344
3 263 344 264
3 264 344 345
3 264 345 265
3 265 345 346
3 265 346 266
3 266 346 347
3 266 347 267
3 267 347 348
3 267 348 268
3 268 348 349
3 268 349 269
3 269 349 350
3 269 350 270
3 270 350 351
3 270 351 271
3 271 351 352
3 271 352 272
3 272 352 353
3 272 353 273
3 273 353 354
3 273 354 274
3 274 354 355
3 274 355 356
3 274 356 276
3 276 356 357
3 276 357 277
3 277 357 358
3 277 358 278
3 278 358 359
3 278 359 279
3 279 359 360
3 279 360 280
3 280 360 361
3 280 361 281
3 281 361 362
3 281 362 282
3 282 362 363
3 282 363 283
3 283 363 364
3 283 364 284
3 284 364 365
3 284 365 285
3 285 365 366
3 285 366 286
3 286 366 367
3 286 367 287
3 287 367 368
3 287 368 288
3 288 368 369
3 288 369 289
3 289 369 370
3 289 370 290
3 290 370 371
3 290 371 291
3 291 371 372
3 291 372 292
3 292 372 373
3 292 373 293
3 293 373 374
3 293 374 294
3 294 374 375
3 294 375 295
3 295 375 376
3 295 376 296
3 296 376 377
3 296 377 297
3 297 377 378
3 297 378 298
3 298 378 379
3 298 379 299
3 299 379 380
3 299 380 300
3 300 380 381
3 300 381 301
3 301 381 382
3 301 382 302
3 302 382 383
3 302 383 303
3 303 383 384
3 303 384 304
3 304 384 385
3 304 385 305
3 305 385 386
3 305 386 306
3 306 386 387
3 306 387 307
3 307 387 388
3 307 388 308
3 308 388 389
3 308 389 309
3 309 389 390
3 309 390 310
3 310 390 391
3 310 391 311
3 311 391 392
3 311 392 312
3 312 392 393
3 312 393 313
3 313 393 394
3 313 394 314
3 314 394 395
3 314 395 315
3 315 395 396
3 315 396 316
3 316 396 397
3 316 397 317
3 317 397 398
3 317 398 318
3 318 398 399
3 318 399 319
3 319 399 400
3 319 400 320
3 320 400 321
3 320 321 241
3 321 401 402
3 321 402 322
3 322 402 403
3 322 403 324
3 324 403 405
3 324 405 406
3 324 406 326
3 326 406 407
3 326 407 327
3 327 407 408
3 327 408 328
3 328 408 409
3 328 409 329
3 329 409 410
3 329 410 330
3 330 410 411
3 330 411 331
3 331 411 412
3 331 412 332
3 332 412 413
3 332 413 333
3 333 413 414
3 333 414 334
3 334 414 415
3 334 415 335
3 335 415 416
3 335 416 336
3 336 416 417
3 336 417 337
3 337 417 418
3 337 418 338
3 338 418 419
3 338 419 339
3 339 419 420
3 339 420 340
3 340 420 421
3 340 421 341
3 341 421 422
3 341 422 342
3 342 422 423
3 342 423 343
3 343 423 424
3 343 424 344
3 344 424 425
3 344 425 345
3 345 425 426
3 345 426 346
3 346 426 427
3 346 427 347
3 347 427 428
3 347 428 348
3 348 428 429
3 348 429 349
3 349 429 430
3 349 430 350
3 350 430 431
3 350 431 351
3 351 431 432
3 351 432 352
3 352 432 433
3 352 433 353
3 353 433 434
3 353 434 354
3 354 434 435
3 354 435 355
3 355 435 436
3 355 436 356
3 356 436 437
3 356 437 357
3 357 437 438
3 357 438 358
3 358 438 359
3 359 438 440
3 359 440 360
3 360 440 441
3 360 441 361
3 361 441 442
3 361 442 362
3 362 442 443
3 362 443 363
3 363 443 444
3 363 444 364
3 364 444 445
3 364 445 365
3 365 445 446
3 365 446 366
3 366 446 447
3 366 447 367
3 367 447 448
3 367 448 368
3 368 448 449
3 368 449 369
3 369 449 450
3 369 450 370
3 370 450 451
3 370 451 371
3 371 451 452
3 371 452 372
3 372 452 453
3 372 453 373
3 373 453 454
3 373 454 374
3 374 454 455
3 374 455 375
3 375 455 456
3 375 456 376
3 376 456 457
3 376 457 377
3 377 457 458
3 377 458 378
3 378 458 459
3 378 459 379
3 379 459 460
3 379 460 380
3 380 460 461
3 380 461 381
3 381 461 462
3 381 462 382
3 382 462 463
3 382 463 383
3 383 463 464
3 383 464 384
3 384 464 465
3 384 465 385
3 385 465 466
3 385 466 386
3 386 466 467
3 386 467 387
3 387 467 468
3 387 468 388
3 388 468 469
3 388 469 389
3 389 469 470
3 389 470 390
3 390 470 471
3 390 471 391
3 391 471 472
3 391 472 392
3 392 472 473
3 392 473 393
3 393 473 474
3 393 474 394
3 394 474 475
3 394 475 395
3 395 475 476
3 395 476 396
3 396 476 477
3 396 477 397
3 397 477 478
3 397 478 398
3 398 478 479
3 398 479 399
3 399 479 480
3 399 480 400
3 400 480 401
3 400 401 321
3 401 481 482
3 401 482 402
3 402 482 483
3 402 483 403
3 403 483 484
3 403 484 405
3 405 484 486
3 405 486 406
3 406 486 487
3 406 487 407
3 407 487 488
3 407 488 408
3 408 488 489
3 408 489 409
3 409 489 490
3 409 490 410
3 410 490 491
3 410 491 411
3 411 491 492
3 411 492 412
3 412 492 493
3 412 493 413
3 413 493 494
3 413 494 414
3 414 494 495
3 414 495 415
3 415 495 496
3 415 496 416
3 416 496 497
3 416 497 417
3 417 497 498
3 417 498 418
3 418 498 499
3 418 499 419
3 419 499 500
3 419 500 420
3 420 500 501
3 420 501 421
3 421 501 502
3 421 502 422
3 422 502 503
3 422 503 423
3 423 503 504
3 423 504 424
3 424 504 505
3 424 505 425
3 425 505 506
3 425 506 426
3 426 506 507
3 426 507 427
3 427 507 508
3 427 508 428
3 428 508 509
3 428 509 429
3 429 509 510
3 429 510 430
3 430 510 511
3 430 511 431
3 431 511 512
3 431 512 432
3 432 512 513
3 432 513 433
3 433 513 434
3 434 513 515
3 434 515 435
3 435 515 516
3 435 516 436
3 436 516 517
3 436 517 437
3 437 517 518
3 437 518 438
3 438 518 519
3 438 519 520
3 438 520 440
3 440 520 521
3 440 521 441
3 441 521 522
3 441 522 442
3 442 522 523
3 442 523 443
3 443 523 524
3 443 524 444
3 444 524 525
3 444 525 445
3 445 525 526
3 445 526 446
3 446 526 527
3 446 527 447
3 447 527 528
3 447 528 448
3 448 528 529
3 448 529 449
3 449 529 530
3 449 530 450
3 450 530 531
3 450 531 451
3 451 531 532
3 451 532 452
3 452 532 533
3 452 533 453
3 453 533 534
3 453 534 454
3 454 534 535
3 454 535 455
3 455 535 536
3 455 536 456
3 456 536 537
3 456 537 457
3 457 537 538
3 457 538 458
3 458 538 539
3 458 539 459
3 459 539 540
3 459 540 460
3 460 540 541
3 460 541 461
3 461 541 542
3 461 542 462
3 462 542 543
3 462 543 463
3 463 543 544
3 463 544 464
3 464 544 545
3 464 545 465
3 465 545 546
3 465 546 466
3 466 546 547
3 466 547 467
3 467 547 548
3 467 548 468
3 468 548 549
3 468 549 469
3 469 549 550
3 469 550 470
3 470 550 551
3 470 551 471
3 471 551 552
3 471 552 472
3 472 552 553
3 472 553 473
3 473 553 554
3 473 554 474
3 474 554 555
3 474 555 475
3 475 555 556
3 475 556 476
3 476 556 557
3 476 557 477
3 477 557 558
3 477 558 478
3 478 558 559
3 478 559 479
3 479 559 560
3 479 560 480
3 480 560 481
3 480 481 401
3 481 561 562
3 481 562 482
3 482 562 563
3 482 563 483
3 483 563 564
3 483 564 484
3 484 564 566
3 484 566 486
3 486 566 567
3 486 567 487
3 487 567 568
3 487 568 488
3 488 568 569
3 488 569 489
3 489 569 570
3 489 570 490
3 490 570 571
3 490 571 491
3 491 571 572
3 491 572 492
3 492 572 573
3 492 573 493
3 493 573 574
3 493 574 494
3 494 574 575
3 494 575 495
3 495 575 576
3 495 576 496
3 496 576 577
3 496 577 497
3 497 577 578
3 497 578 498
3 498 578 579
3 498 579 499
3 499 579 580
3 499 580 500
3 500 580 581
3 500 581 501
3 501 581 582
3 501 582 502
3 502 582 583
3 502 583 503
3 503 583 584
3 503 584 504
3 504 584 585
3 504 585 505
3 505 585 586
3 505 586 506
3 506 586 587
3 506 587 507
3 507 587 588
3 507 588 508
3 508 588 589
3 508 589 509
3 509 589 590
3 509 590 510
3 510 590 591
3 510 591 511
3 511 591 592
3 511 592 512
3 512 592 593
3 512 593 513
3 513 593 594
3 513 594 595
3 513 595 515
3 515 595 596
3 515 596 516
3 516 596 597
3 516 597 517
3 517 597 598
3 517 598 518
3 518 598 599
3 518 599 519
3 519 599 520
3 520 599 601
3 520 601 521
3 521 601 602
3 521 602 522
3 522 602 603
3 522 603 523
3 523 603 604
3 523 604 524
3 524 604 605
3 524 605 525
3 525 605 606
3 525 606 526
3 526 606 607
3 526 607 527
3 527 607 608
3 527 608 528
3 528 608 609
3 528 609 529
3 529 609 610
3 529 610 530
3 530 610 611
3 530 611 531
3 531 611 612
3 531 612 532
3 532 612 613
3 532 613 533
3 533 613 614
3 533 614 534
3 534 614 615
3 534 615 535
3 535 615 616
3 535 616 536
3 536 616 617
3 536 617 537
3 537 617 618
3 537 618 538
3 538 618 619
3 538 619 539
3 539 619 620
3 539 620 540
3 540 620 621
3 540 621 541
3 541 621 622
3 541 622 542
3 542 622 623
3 542 623 543
3 543 623 624
3 543 624 544
3 544 624 625
3 544 625 545
3 545 625 626
3 545 626 546
3 546 626 627
3 546 627 547
3 547 627 628
3 547 628 548
3 548 628 629
3 548 629 549
3 549 629 630
3 549 630 550
3 550 630 631
3 550 631 551
3 551 631 632
3 551 632 552
3 552 632 633
3 552 633 553
3 553 633 634
3 553 634 554
3 554 634 635
3 554 635 555
3 555 635 636
3 555 636 556
3 556 636 637
3 556 637 557
3 557 637 638
3 557 638 558
3 558 638 639
3 558 639 559
3 559 639 640
3 559 640 560
3 560 640 561
3 560 561 481
3 561 641 642
3 561 642 562
3 562 642 643
3 562 643 563
3 563 643 644
3 563 644 564
3 564 644 646
3 564 646 566
3 566 646 567
3 567 646 648
3 567 648 568
3 568 648 649
3 568 649 569
3 569 649 650
3 569 650 570
3 570 650 651
3 570 651 571
3 571 651 652
3 571 652 572
3 572 652 653
3 572 653 573
3 573 653 654
3 573 654 574
3 574 654 655
3 574 655 575
3 575 655 656
3 575 656 576
3 576 656 657
3 576 657 577
3 577 657 658
3 577 658 578
3 578 658 659
3 578 659 579
3 579 659 660
3 579 660 580
3 580 660 661
3 580 661 581
3 581 661 662
3 581 662 582
3 582 662 663
3 582 663 583
3 583 663 664
3 583 664 584
3 584 664 665
3 584 665 585
3 585 665 666
3 585 666 586
3 586 666 667
3 586 667 587
3 587 667 668
3 587 668 588
3 588 668 669
3 588 669 589
3 589 669 670
3 589 670 590
3 590 670 671
3 590 671 591
3 591 671 672
3 591 672 592
3 592 672 673
3 592 673 593
3 593 673 674
3 593 674 594
3 594 674 675
3 594 675 595
3 595 675 676
3 595 676 596
3 596 676 677
3 596 677 597
3 597 677 678
3 597 678 598
3 598 678 679
3 598 679 599
3 599 679 680
3 599 680 681
3 599 681 601
3 601 681 682
3 601 682 602
3 602 682 683
3 602 683 603
3 603 683 684
3 603 684 604
3 604 684 685
3 604 685 605
3 605 685 686
3 605 686 606
3 606 686 687
3 606 687 607
3 607 687 688
3 607 688 608
3 608 688 689
3 608 689 609
3 609 689 690
3 609 690 610
3 610 690 691
3 610 691 611
3 611 691 692
3 611 692 612
3 612 692 693
3 612 693 613
3 613 693 694
3 613 694 614
3 614 694 695
3 614 695 615
3 615 695 696
3 615 696 616
3 616 696 697
3 616 697 617
3 617 697 698
3 617 698 618
3 618 698 699
3 618 699 619
3 619 699 700
3 619 700 620
3 620 700 701
3 620 701 621
3 621 701 702
3 621 702 622
3 622 702 703
3 622 703 623
3 623 703 704
3 623 704 624
3 624 704 705
3 624 705 625
3 625 705 706
3 625 706 626
3 626 706 707
3 626 707 627
3 627 707 708
3 627 708 628
3 628 708 709
3 628 709 629
3 629 709 710
3 629 710 630
3 630 710 711
3 630 711 631
3 631 711 712
3 631 712 632
3 632 712 713
3 632 713 633
3 633 713 714
3 633 714 634
3 634 714 715
3 634 715 635
3 635 715 716
3 635 716 636
3 636 716 717
3 636 717 637
3 637 717 718
3 637 718 638
3 638 718 719
3 638 719 639
3 639 719 720
3 639 720 640
3 640 720 641
3 640 641 561
