ply 
format ascii 1.0 
comment this is a surface 
element vertex 721 
property float x 
property float y 
property float z 
element face 1326 
property list uchar int vertex_index 
end_header 
207.795000 178.085750 -76.160000
211.700000 192.060000 -76.160000
209.330000 191.700000 -76.160000
206.960000 191.370000 -76.160000
204.600000 191.050000 -76.160000
202.250000 190.690000 -76.160000
199.900000 190.330000 -76.160000
197.550000 190.030000 -76.160000
195.190000 189.860000 -76.160000
192.820000 189.850000 -76.160000
190.430000 189.850000 -76.160000
188.050000 189.850000 -76.160000
185.710000 189.850000 -76.160000
183.410000 189.990000 -76.160000
181.120000 190.440000 -76.160000
178.860000 191.140000 -76.160000
176.620000 192.050000 -76.160000
174.400000 193.120000 -76.160000
172.220000 194.290000 -76.160000
172.220000 194.290000 -76.160000
172.260000 191.650000 -76.160000
172.400000 189.170000 -76.160000
172.620000 186.860000 -76.160000
172.910000 184.720000 -76.160000
173.510000 182.770000 -76.160000
175.050000 181.010000 -76.160000
177.050000 179.350000 -76.160000
178.930000 177.690000 -76.160000
180.570000 175.950000 -76.160000
182.210000 174.160000 -76.160000
183.880000 172.390000 -76.160000
185.600000 170.750000 -76.160000
187.400000 169.300000 -76.160000
189.320000 168.120000 -76.160000
191.400000 167.120000 -76.160000
193.600000 166.230000 -76.160000
195.860000 165.400000 -76.160000
198.140000 164.590000 -76.160000
200.400000 163.750000 -76.160000
202.590000 162.820000 -76.160000
204.740000 161.760000 -76.160000
206.870000 160.650000 -76.160000
209.010000 159.570000 -76.160000
211.180000 158.600000 -76.160000
213.380000 157.840000 -76.160000
215.640000 157.320000 -76.160000
217.970000 156.890000 -76.160000
220.330000 156.540000 -76.160000
222.700000 156.270000 -76.160000
225.140000 156.090000 -76.160000
227.970000 155.920000 -76.160000
230.910000 155.780000 -76.160000
233.580000 155.670000 -76.160000
235.610000 155.590000 -76.160000
236.630000 155.590000 -76.160000
237.160000 156.590000 -76.160000
237.620000 158.750000 -76.160000
237.980000 161.620000 -76.160000
238.220000 164.730000 -76.160000
238.340000 167.620000 -76.160000
238.330000 170.020000 -76.160000
238.190000 172.420000 -76.160000
237.940000 174.840000 -76.160000
237.610000 177.250000 -76.160000
237.210000 179.630000 -76.160000
236.750000 181.930000 -76.160000
236.250000 184.140000 -76.160000
235.610000 186.390000 -76.160000
234.650000 188.920000 -76.160000
233.400000 191.500000 -76.160000
231.950000 193.920000 -76.160000
230.350000 195.940000 -76.160000
228.670000 197.350000 -76.160000
226.970000 197.910000 -76.160000
225.150000 197.460000 -76.160000
223.070000 196.280000 -76.160000
220.840000 194.840000 -76.160000
218.570000 193.620000 -76.160000
216.330000 192.960000 -76.160000
214.040000 192.480000 -76.160000
211.700000 192.060000 -76.160000
213.010000 187.130000 -66.640000
210.000000 185.870000 -66.640000
206.800000 184.990000 -66.640000
206.800000 184.990000 -66.640000
203.480000 184.250000 -66.640000
200.130000 183.830000 -66.640000
196.790000 183.790000 -66.640000
193.410000 183.790000 -66.640000
190.020000 183.790000 -66.640000
186.680000 183.790000 -66.640000
183.440000 183.840000 -66.640000
180.260000 184.820000 -66.640000
177.190000 186.450000 -66.640000
174.240000 188.050000 -66.640000
171.310000 189.840000 -66.640000
168.600000 191.880000 -66.640000
166.300000 194.180000 -66.640000
164.050000 197.480000 -66.640000
161.910000 201.310000 -66.640000
160.140000 204.710000 -66.640000
159.050000 206.750000 -66.640000
158.720000 206.710000 -66.640000
158.520000 205.050000 -66.640000
158.370000 201.930000 -66.640000
158.280000 197.440000 -66.640000
158.250000 191.650000 -66.640000
158.250000 191.650000 -66.640000
159.910000 188.730000 -66.640000
161.640000 185.860000 -66.640000
163.430000 183.030000 -66.640000
165.280000 180.240000 -66.640000
167.170000 177.490000 -66.640000
169.090000 174.730000 -66.640000
171.100000 172.010000 -66.640000
173.230000 169.460000 -66.640000
175.560000 167.120000 -66.640000
178.080000 164.920000 -66.640000
180.750000 162.850000 -66.640000
183.510000 160.900000 -66.640000
186.290000 159.060000 -66.640000
189.170000 157.300000 -66.640000
192.150000 155.740000 -66.640000
195.210000 154.530000 -66.640000
198.390000 153.480000 -66.640000
201.630000 152.570000 -66.640000
204.910000 151.780000 -66.640000
208.180000 151.100000 -66.640000
211.480000 150.560000 -66.640000
214.790000 150.080000 -66.640000
218.110000 149.580000 -66.640000
221.410000 148.950000 -66.640000
224.720000 148.200000 -66.640000
228.020000 147.490000 -66.640000
231.310000 147.010000 -66.640000
234.610000 146.910000 -66.640000
238.180000 147.350000 -66.640000
241.620000 148.210000 -66.640000
244.370000 149.320000 -66.640000
246.620000 151.400000 -66.640000
248.530000 154.600000 -66.640000
249.560000 157.960000 -66.640000
249.860000 161.160000 -66.640000
250.090000 164.540000 -66.640000
250.250000 167.990000 -66.640000
250.360000 171.410000 -66.640000
250.400000 174.680000 -66.640000
249.730000 177.800000 -66.640000
248.000000 180.830000 -66.640000
245.940000 183.650000 -66.640000
243.990000 186.450000 -66.640000
241.800000 189.520000 -66.640000
239.380000 192.400000 -66.640000
236.770000 194.600000 -66.640000
234.000000 195.650000 -66.640000
230.830000 195.680000 -66.640000
227.370000 195.680000 -66.640000
224.300000 195.220000 -66.640000
221.420000 193.670000 -66.640000
218.640000 191.500000 -66.640000
215.870000 189.160000 -66.640000
215.960000 183.000000 -57.120000
212.940000 181.810000 -57.120000
209.890000 180.630000 -57.120000
206.790000 179.430000 -57.120000
206.790000 179.430000 -57.120000
203.660000 178.410000 -57.120000
200.490000 177.780000 -57.120000
197.300000 177.690000 -57.120000
194.040000 177.760000 -57.120000
190.760000 177.900000 -57.120000
187.490000 178.090000 -57.120000
184.300000 178.340000 -57.120000
181.140000 179.010000 -57.120000
178.020000 180.120000 -57.120000
175.000000 181.460000 -57.120000
172.120000 182.850000 -57.120000
169.380000 184.550000 -57.120000
166.740000 186.490000 -57.120000
164.140000 188.520000 -57.120000
161.530000 190.480000 -57.120000
158.930000 192.430000 -57.120000
156.360000 194.420000 -57.120000
153.810000 196.430000 -57.120000
153.810000 196.430000 -57.120000
154.470000 193.180000 -57.120000
155.310000 190.000000 -57.120000
156.290000 186.890000 -57.120000
157.400000 183.850000 -57.120000
158.600000 180.880000 -57.120000
159.930000 177.950000 -57.120000
161.500000 175.040000 -57.120000
163.260000 172.230000 -57.120000
165.200000 169.640000 -57.120000
167.350000 167.330000 -57.120000
169.860000 165.230000 -57.120000
172.530000 163.290000 -57.120000
175.190000 161.410000 -57.120000
177.920000 159.540000 -57.120000
180.730000 157.840000 -57.120000
183.630000 156.520000 -57.120000
186.680000 155.580000 -57.120000
189.850000 154.830000 -57.120000
193.070000 154.150000 -57.120000
196.260000 153.410000 -57.120000
199.400000 152.580000 -57.120000
202.550000 151.730000 -57.120000
205.700000 150.920000 -57.120000
208.860000 150.220000 -57.120000
212.050000 149.530000 -57.120000
215.260000 148.860000 -57.120000
218.480000 148.380000 -57.120000
221.700000 148.240000 -57.120000
224.960000 148.280000 -57.120000
228.240000 148.360000 -57.120000
231.500000 148.470000 -57.120000
234.710000 148.630000 -57.120000
238.200000 149.030000 -57.120000
241.950000 149.940000 -57.120000
245.080000 151.220000 -57.120000
246.710000 152.760000 -57.120000
247.520000 155.400000 -57.120000
248.100000 158.970000 -57.120000
248.370000 162.600000 -57.120000
248.200000 165.810000 -57.120000
247.620000 169.020000 -57.120000
246.830000 172.210000 -57.120000
246.020000 175.380000 -57.120000
245.280000 178.620000 -57.120000
244.470000 181.930000 -57.120000
243.510000 185.070000 -57.120000
242.290000 187.830000 -57.120000
240.340000 190.580000 -57.120000
237.670000 193.180000 -57.120000
234.880000 194.710000 -57.120000
232.380000 194.240000 -57.120000
229.920000 191.980000 -57.120000
227.400000 189.290000 -57.120000
224.720000 187.390000 -57.120000
221.900000 185.800000 -57.120000
218.960000 184.330000 -57.120000
218.330000 181.120000 -47.600000
215.130000 179.580000 -47.600000
211.860000 178.220000 -47.600000
208.530000 176.970000 -47.600000
208.530000 176.970000 -47.600000
205.140000 175.850000 -47.600000
201.740000 174.830000 -47.600000
198.310000 173.740000 -47.600000
194.840000 172.770000 -47.600000
191.360000 172.240000 -47.600000
187.850000 172.270000 -47.600000
184.290000 172.550000 -47.600000
180.720000 173.020000 -47.600000
177.200000 173.600000 -47.600000
173.760000 174.310000 -47.600000
170.340000 175.540000 -47.600000
167.220000 177.130000 -47.600000
164.120000 179.510000 -47.600000
160.850000 182.770000 -47.600000
157.790000 186.260000 -47.600000
155.300000 189.340000 -47.600000
153.760000 191.340000 -47.600000
153.500000 191.410000 -47.600000
154.000000 187.750000 -47.600000
154.740000 183.520000 -47.600000
155.790000 180.120000 -47.600000
157.060000 176.800000 -47.600000
158.400000 173.510000 -47.600000
159.560000 170.160000 -47.600000
160.660000 166.780000 -47.600000
161.650000 163.360000 -47.600000
162.520000 159.900000 -47.600000
162.520000 159.900000 -47.600000
165.290000 157.660000 -47.600000
168.110000 155.500000 -47.600000
170.990000 153.420000 -47.600000
173.890000 151.290000 -47.600000
176.860000 149.260000 -47.600000
179.960000 147.650000 -47.600000
183.290000 146.580000 -47.600000
186.780000 145.690000 -47.600000
190.170000 144.590000 -47.600000
193.490000 143.080000 -47.600000
196.790000 141.550000 -47.600000
200.120000 140.440000 -47.600000
203.540000 140.090000 -47.600000
207.050000 139.960000 -47.600000
210.610000 139.860000 -47.600000
214.200000 139.790000 -47.600000
217.780000 139.750000 -47.600000
221.340000 139.740000 -47.600000
224.920000 139.860000 -47.600000
228.510000 140.110000 -47.600000
232.080000 140.490000 -47.600000
235.610000 140.980000 -47.600000
239.060000 141.550000 -47.600000
242.520000 142.390000 -47.600000
245.900000 143.930000 -47.600000
248.490000 146.000000 -47.600000
250.770000 149.090000 -47.600000
251.640000 152.450000 -47.600000
251.330000 155.860000 -47.600000
250.690000 159.430000 -47.600000
249.920000 163.010000 -47.600000
249.110000 166.470000 -47.600000
248.080000 169.870000 -47.600000
246.970000 173.270000 -47.600000
246.010000 176.690000 -47.600000
245.380000 180.260000 -47.600000
244.950000 184.050000 -47.600000
244.470000 187.640000 -47.600000
243.670000 190.620000 -47.600000
241.140000 193.450000 -47.600000
237.800000 195.300000 -47.600000
235.460000 194.100000 -47.600000
233.400000 190.520000 -47.600000
230.860000 188.030000 -47.600000
227.810000 186.200000 -47.600000
224.590000 184.520000 -47.600000
221.470000 182.800000 -47.600000
217.150000 180.390000 -38.080000
214.120000 178.750000 -38.080000
211.070000 177.040000 -38.080000
207.960000 175.610000 -38.080000
207.960000 175.610000 -38.080000
204.730000 174.690000 -38.080000
201.400000 173.920000 -38.080000
197.990000 173.340000 -38.080000
194.480000 173.060000 -38.080000
194.480000 173.060000 -38.080000
191.030000 172.560000 -38.080000
187.590000 172.320000 -38.080000
184.170000 172.250000 -38.080000
180.750000 172.280000 -38.080000
177.270000 172.730000 -38.080000
173.880000 173.530000 -38.080000
170.730000 174.550000 -38.080000
167.560000 176.640000 -38.080000
164.440000 179.430000 -38.080000
161.580000 182.170000 -38.080000
159.190000 184.110000 -38.080000
157.430000 184.460000 -38.080000
155.880000 182.010000 -38.080000
154.660000 177.910000 -38.080000
154.160000 173.960000 -38.080000
154.370000 170.550000 -38.080000
154.950000 166.960000 -38.080000
155.840000 163.360000 -38.080000
156.960000 159.890000 -38.080000
158.250000 156.700000 -38.080000
159.650000 153.950000 -38.080000
161.420000 151.620000 -38.080000
164.000000 149.470000 -38.080000
167.110000 147.510000 -38.080000
170.450000 145.780000 -38.080000
173.720000 144.280000 -38.080000
176.850000 143.030000 -38.080000
180.100000 141.980000 -38.080000
183.430000 141.030000 -38.080000
186.790000 140.130000 -38.080000
190.120000 139.170000 -38.080000
193.390000 138.040000 -38.080000
196.630000 136.630000 -38.080000
199.870000 135.170000 -38.080000
203.110000 133.950000 -38.080000
206.390000 133.200000 -38.080000
209.720000 133.130000 -38.080000
213.140000 133.370000 -38.080000
216.620000 133.830000 -38.080000
220.090000 134.450000 -38.080000
223.510000 135.200000 -38.080000
226.810000 136.040000 -38.080000
230.010000 136.970000 -38.080000
233.380000 138.320000 -38.080000
236.740000 140.080000 -38.080000
239.780000 142.120000 -38.080000
242.220000 144.360000 -38.080000
243.850000 146.730000 -38.080000
245.250000 149.550000 -38.080000
246.530000 152.790000 -38.080000
247.620000 156.280000 -38.080000
248.450000 159.900000 -38.080000
248.950000 163.500000 -38.080000
249.060000 166.940000 -38.080000
248.960000 170.390000 -38.080000
248.730000 173.910000 -38.080000
248.400000 177.410000 -38.080000
247.970000 180.810000 -38.080000
247.460000 184.060000 -38.080000
246.380000 187.730000 -38.080000
244.590000 191.550000 -38.080000
242.410000 194.500000 -38.080000
240.180000 195.570000 -38.080000
237.730000 194.520000 -38.080000
234.940000 192.220000 -38.080000
231.990000 189.520000 -38.080000
229.070000 187.270000 -38.080000
226.160000 185.450000 -38.080000
223.190000 183.700000 -38.080000
220.190000 182.020000 -38.080000
215.620000 180.020000 -28.560000
212.480000 178.650000 -28.560000
209.290000 177.400000 -28.560000
209.290000 177.400000 -28.560000
206.080000 176.280000 -28.560000
202.840000 175.300000 -28.560000
199.570000 174.440000 -28.560000
196.250000 173.580000 -28.560000
192.890000 172.880000 -28.560000
189.520000 172.640000 -28.560000
186.120000 172.770000 -28.560000
182.710000 172.980000 -28.560000
179.290000 173.140000 -28.560000
175.830000 173.260000 -28.560000
172.500000 173.460000 -28.560000
169.360000 174.570000 -28.560000
166.350000 176.700000 -28.560000
163.370000 178.710000 -28.560000
160.360000 179.480000 -28.560000
156.830000 178.540000 -28.560000
153.630000 176.630000 -28.560000
152.080000 174.330000 -28.560000
151.150000 170.920000 -28.560000
150.780000 167.320000 -28.560000
151.050000 163.910000 -28.560000
151.750000 160.430000 -28.560000
152.780000 157.020000 -28.560000
154.010000 153.840000 -28.560000
155.370000 151.020000 -28.560000
157.460000 148.450000 -28.560000
160.180000 146.110000 -28.560000
163.060000 144.080000 -28.560000
165.930000 142.330000 -28.560000
169.010000 140.770000 -28.560000
172.190000 139.480000 -28.560000
175.430000 138.520000 -28.560000
178.760000 137.740000 -28.560000
182.110000 137.100000 -28.560000
185.470000 136.510000 -28.560000
188.840000 135.990000 -28.560000
192.220000 135.560000 -28.560000
195.610000 135.270000 -28.560000
199.010000 135.040000 -28.560000
202.410000 134.850000 -28.560000
205.820000 134.740000 -28.560000
209.230000 134.730000 -28.560000
212.640000 134.730000 -28.560000
216.040000 134.730000 -28.560000
219.420000 134.850000 -28.560000
222.770000 135.440000 -28.560000
226.100000 136.310000 -28.560000
229.410000 137.190000 -28.560000
233.040000 138.010000 -28.560000
236.500000 139.000000 -28.560000
238.740000 140.440000 -28.560000
240.040000 143.230000 -28.560000
241.050000 146.860000 -28.560000
242.210000 150.390000 -28.560000
244.030000 153.360000 -28.560000
246.270000 156.220000 -28.560000
247.980000 159.130000 -28.560000
248.420000 162.270000 -28.560000
248.520000 165.660000 -28.560000
248.570000 169.140000 -28.560000
248.490000 172.530000 -28.560000
247.680000 175.840000 -28.560000
246.650000 179.130000 -28.560000
245.930000 182.680000 -28.560000
245.240000 186.320000 -28.560000
244.260000 189.170000 -28.560000
242.010000 191.220000 -28.560000
238.450000 192.860000 -28.560000
235.270000 193.360000 -28.560000
232.860000 191.430000 -28.560000
230.560000 188.280000 -28.560000
227.960000 186.020000 -28.560000
225.090000 184.270000 -28.560000
222.020000 182.740000 -28.560000
218.730000 181.510000 -28.560000
218.730000 181.510000 -28.560000
214.570000 180.280000 -19.040000
211.430000 178.560000 -19.040000
208.280000 176.860000 -19.040000
208.280000 176.860000 -19.040000
204.930000 175.590000 -19.040000
204.930000 175.590000 -19.040000
201.580000 174.330000 -19.040000
198.220000 173.080000 -19.040000
194.880000 171.670000 -19.040000
191.490000 170.610000 -19.040000
187.970000 170.160000 -19.040000
184.370000 169.850000 -19.040000
180.790000 169.770000 -19.040000
177.270000 170.370000 -19.040000
173.750000 171.150000 -19.040000
170.140000 171.540000 -19.040000
166.640000 172.000000 -19.040000
163.520000 173.730000 -19.040000
160.440000 175.670000 -19.040000
156.560000 176.400000 -19.040000
152.200000 176.940000 -19.040000
149.210000 177.200000 -19.040000
148.370000 176.010000 -19.040000
147.870000 171.920000 -19.040000
147.680000 167.490000 -19.040000
147.780000 163.870000 -19.040000
148.090000 160.280000 -19.040000
148.720000 156.890000 -19.040000
150.360000 153.640000 -19.040000
152.390000 150.580000 -19.040000
154.500000 147.730000 -19.040000
156.910000 145.030000 -19.040000
159.500000 142.510000 -19.040000
162.190000 140.120000 -19.040000
165.050000 137.780000 -19.040000
168.100000 135.970000 -19.040000
171.360000 134.930000 -19.040000
174.860000 134.150000 -19.040000
178.470000 133.530000 -19.040000
182.050000 132.980000 -19.040000
185.600000 132.510000 -19.040000
189.160000 132.100000 -19.040000
192.720000 131.690000 -19.040000
196.290000 131.220000 -19.040000
199.860000 130.810000 -19.040000
203.410000 130.640000 -19.040000
206.920000 131.120000 -19.040000
210.430000 132.050000 -19.040000
213.950000 132.720000 -19.040000
217.540000 133.020000 -19.040000
221.140000 133.260000 -19.040000
224.660000 133.630000 -19.040000
228.070000 134.550000 -19.040000
231.410000 135.990000 -19.040000
234.800000 137.360000 -19.040000
238.270000 138.760000 -19.040000
241.280000 140.440000 -19.040000
243.770000 142.670000 -19.040000
246.260000 145.500000 -19.040000
248.480000 148.730000 -19.040000
250.120000 152.160000 -19.040000
250.890000 155.600000 -19.040000
250.790000 159.010000 -19.040000
250.460000 162.620000 -19.040000
250.160000 166.270000 -19.040000
250.270000 169.860000 -19.040000
251.180000 173.490000 -19.040000
251.710000 176.830000 -19.040000
250.930000 180.200000 -19.040000
249.010000 183.770000 -19.040000
246.310000 187.130000 -19.040000
243.190000 189.860000 -19.040000
240.010000 191.570000 -19.040000
237.040000 191.860000 -19.040000
233.760000 190.830000 -19.040000
230.260000 189.160000 -19.040000
226.940000 187.530000 -19.040000
223.800000 185.830000 -19.040000
220.730000 183.980000 -19.040000
217.670000 182.090000 -19.040000
215.550000 181.660000 -9.520000
211.920000 180.020000 -9.520000
208.330000 178.400000 -9.520000
204.800000 176.640000 -9.520000
204.800000 176.640000 -9.520000
201.230000 175.020000 -9.520000
197.540000 173.920000 -9.520000
193.740000 173.060000 -9.520000
189.860000 172.350000 -9.520000
185.950000 171.910000 -9.520000
182.020000 171.760000 -9.520000
177.950000 171.670000 -9.520000
174.070000 171.630000 -9.520000
170.690000 172.090000 -9.520000
167.770000 174.710000 -9.520000
164.900000 178.010000 -9.520000
161.680000 180.230000 -9.520000
157.990000 181.950000 -9.520000
154.210000 183.030000 -9.520000
150.440000 182.590000 -9.520000
146.630000 180.500000 -9.520000
144.240000 177.930000 -9.520000
142.720000 174.550000 -9.520000
141.600000 170.470000 -9.520000
141.160000 166.410000 -9.520000
141.520000 162.550000 -9.520000
142.400000 158.670000 -9.520000
143.490000 154.940000 -9.520000
145.040000 151.310000 -9.520000
147.100000 147.940000 -9.520000
149.460000 144.820000 -9.520000
152.270000 141.680000 -9.520000
155.420000 139.190000 -9.520000
158.790000 137.960000 -9.520000
162.660000 137.410000 -9.520000
166.640000 137.100000 -9.520000
170.540000 136.900000 -9.520000
174.450000 136.750000 -9.520000
178.360000 136.630000 -9.520000
182.260000 136.510000 -9.520000
186.170000 136.390000 -9.520000
190.080000 136.340000 -9.520000
193.990000 136.490000 -9.520000
197.900000 136.770000 -9.520000
201.790000 136.940000 -9.520000
205.610000 136.440000 -9.520000
209.390000 135.240000 -9.520000
213.180000 134.090000 -9.520000
217.030000 133.660000 -9.520000
221.020000 133.510000 -9.520000
225.040000 133.400000 -9.520000
228.970000 133.330000 -9.520000
232.650000 133.310000 -9.520000
236.330000 134.550000 -9.520000
239.720000 137.200000 -9.520000
242.040000 140.070000 -9.520000
243.610000 143.460000 -9.520000
244.860000 147.360000 -9.520000
245.920000 151.300000 -9.520000
246.970000 155.080000 -9.520000
247.990000 158.930000 -9.520000
248.690000 162.770000 -9.520000
248.750000 166.570000 -9.520000
247.830000 170.320000 -9.520000
246.410000 174.050000 -9.520000
245.110000 177.810000 -9.520000
244.310000 181.620000 -9.520000
243.680000 185.480000 -9.520000
243.190000 189.370000 -9.520000
243.190000 189.370000 -9.520000
242.710000 195.360000 -9.520000
241.520000 199.260000 -9.520000
239.970000 200.660000 -9.520000
237.380000 199.360000 -9.520000
233.780000 196.520000 -9.520000
230.550000 193.730000 -9.520000
227.860000 190.830000 -9.520000
225.230000 187.870000 -9.520000
222.340000 185.400000 -9.520000
219.070000 183.410000 -9.520000
217.240000 181.640000 0.000000
213.600000 179.820000 0.000000
209.820000 178.380000 0.000000
205.860000 177.260000 0.000000
205.860000 177.260000 0.000000
205.860000 177.260000 0.000000
202.480000 174.840000 0.000000
198.890000 173.000000 0.000000
195.060000 171.770000 0.000000
191.040000 170.870000 0.000000
187.000000 170.310000 0.000000
182.910000 169.900000 0.000000
178.910000 169.850000 0.000000
174.950000 170.550000 0.000000
171.040000 171.860000 0.000000
167.190000 173.520000 0.000000
163.430000 175.260000 0.000000
159.820000 177.240000 0.000000
156.380000 179.910000 0.000000
152.830000 181.470000 0.000000
148.320000 181.280000 0.000000
143.650000 180.620000 0.000000
141.530000 179.490000 0.000000
140.870000 175.660000 0.000000
140.540000 170.850000 0.000000
140.400000 166.760000 0.000000
140.330000 162.680000 0.000000
140.810000 158.710000 0.000000
142.240000 154.810000 0.000000
143.670000 150.940000 0.000000
145.330000 147.130000 0.000000
147.530000 143.890000 0.000000
150.590000 140.760000 0.000000
154.110000 138.530000 0.000000
157.770000 137.820000 0.000000
161.810000 137.500000 0.000000
166.030000 137.260000 0.000000
170.160000 136.880000 0.000000
174.170000 136.160000 0.000000
178.180000 135.420000 0.000000
182.240000 135.080000 0.000000
186.310000 134.820000 0.000000
190.270000 134.080000 0.000000
194.170000 132.790000 0.000000
198.080000 131.570000 0.000000
201.990000 130.150000 0.000000
205.900000 128.770000 0.000000
209.830000 127.760000 0.000000
213.790000 127.460000 0.000000
217.960000 127.670000 0.000000
222.240000 128.170000 0.000000
226.390000 128.910000 0.000000
230.160000 129.860000 0.000000
233.370000 131.440000 0.000000
236.180000 134.690000 0.000000
238.590000 138.120000 0.000000
240.580000 141.670000 0.000000
242.500000 145.300000 0.000000
244.960000 148.670000 0.000000
247.690000 151.900000 0.000000
248.830000 155.470000 0.000000
249.290000 159.480000 0.000000
249.560000 163.660000 0.000000
249.590000 167.770000 0.000000
249.290000 171.870000 0.000000
248.760000 175.900000 0.000000
247.740000 179.760000 0.000000
245.920000 183.490000 0.000000
244.330000 187.270000 0.000000
243.630000 191.750000 0.000000
243.260000 197.060000 0.000000
242.830000 201.370000 0.000000
241.880000 202.820000 0.000000
237.810000 201.220000 0.000000
234.710000 198.930000 0.000000
231.960000 195.930000 0.000000
229.370000 192.590000 0.000000
226.750000 189.250000 0.000000
223.930000 186.260000 0.000000
220.740000 183.830000 0.000000
3 0 80 2
3 0 2 3
3 0 3 4
3 0 4 5
3 0 5 6
3 0 6 7
3 0 7 8
3 0 8 9
3 0 9 10
3 0 10 11
3 0 11 12
3 0 12 13
3 0 13 14
3 0 14 15
3 0 15 16
3 0 16 17
3 0 17 18
3 0 18 20
3 0 20 21
3 0 21 22
3 0 22 23
3 0 23 24
3 0 24 25
3 0 25 26
3 0 26 27
3 0 27 28
3 0 28 29
3 0 29 30
3 0 30 31
3 0 31 32
3 0 32 33
3 0 33 34
3 0 34 35
3 0 35 36
3 0 36 37
3 0 37 38
3 0 38 39
3 0 39 40
3 0 40 41
3 0 41 42
3 0 42 43
3 0 43 44
3 0 44 45
3 0 45 46
3 0 46 47
3 0 47 48
3 0 48 49
3 0 49 50
3 0 50 51
3 0 51 52
3 0 52 53
3 0 53 54
3 0 54 55
3 0 55 56
3 0 56 57
3 0 57 58
3 0 58 59
3 0 59 60
3 0 60 61
3 0 61 62
3 0 62 63
3 0 63 64
3 0 64 65
3 0 65 66
3 0 66 67
3 0 67 68
3 0 68 69
3 0 69 70
3 0 70 71
3 0 71 72
3 0 72 73
3 0 73 74
3 0 74 75
3 0 75 76
3 0 76 77
3 0 77 78
3 0 78 79
3 0 79 80
3 80 81 82
3 80 82 2
3 2 82 83
3 2 83 3
3 3 83 4
3 4 83 85
3 4 85 5
3 5 85 86
3 5 86 6
3 6 86 87
3 6 87 7
3 7 87 88
3 7 88 8
3 8 88 89
3 8 89 9
3 9 89 90
3 9 90 10
3 10 90 91
3 10 91 11
3 11 91 92
3 11 92 12
3 12 92 93
3 12 93 13
3 13 93 94
3 13 94 14
3 14 94 95
3 14 95 15
3 15 95 96
3 15 96 16
3 16 96 97
3 16 97 17
3 17 97 98
3 17 98 18
3 18 98 99
3 18 99 100
3 18 100 20
3 20 100 101
3 20 101 21
3 21 101 102
3 21 102 22
3 22 102 103
3 22 103 23
3 23 103 104
3 23 104 24
3 24 104 105
3 24 105 25
3 25 105 106
3 25 106 26
3 26 106 27
3 27 106 108
3 27 108 28
3 28 108 109
3 28 109 29
3 29 109 110
3 29 110 30
3 30 110 111
3 30 111 31
3 31 111 112
3 31 112 32
3 32 112 113
3 32 113 33
3 33 113 114
3 33 114 34
3 34 114 115
3 34 115 35
3 35 115 116
3 35 116 36
3 36 116 117
3 36 117 37
3 37 117 118
3 37 118 38
3 38 118 119
3 38 119 39
3 39 119 120
3 39 120 40
3 40 120 121
3 40 121 41
3 41 121 122
3 41 122 42
3 42 122 123
3 42 123 43
3 43 123 124
3 43 124 44
3 44 124 125
3 44 125 45
3 45 125 126
3 45 126 46
3 46 126 127
3 46 127 47
3 47 127 128
3 47 128 48
3 48 128 129
3 48 129 49
3 49 129 130
3 49 130 50
3 50 130 131
3 50 131 51
3 51 131 132
3 51 132 52
3 52 132 133
3 52 133 53
3 53 133 134
3 53 134 54
3 54 134 135
3 54 135 55
3 55 135 136
3 55 136 56
3 56 136 137
3 56 137 57
3 57 137 138
3 57 138 58
3 58 138 139
3 58 139 59
3 59 139 140
3 59 140 60
3 60 140 141
3 60 141 61
3 61 141 142
3 61 142 62
3 62 142 143
3 62 143 63
3 63 143 144
3 63 144 64
3 64 144 145
3 64 145 65
3 65 145 146
3 65 146 66
3 66 146 147
3 66 147 67
3 67 147 148
3 67 148 68
3 68 148 149
3 68 149 69
3 69 149 150
3 69 150 70
3 70 150 151
3 70 151 71
3 71 151 152
3 71 152 72
3 72 152 153
3 72 153 73
3 73 153 154
3 73 154 74
3 74 154 155
3 74 155 75
3 75 155 156
3 75 156 76
3 76 156 157
3 76 157 77
3 77 157 158
3 77 158 78
3 78 158 159
3 78 159 79
3 79 159 160
3 79 160 80
3 80 160 81
3 81 161 162
3 81 162 82
3 82 162 163
3 82 163 83
3 83 163 164
3 83 164 85
3 85 164 166
3 85 166 86
3 86 166 167
3 86 167 87
3 87 167 168
3 87 168 88
3 88 168 169
3 88 169 89
3 89 169 170
3 89 170 90
3 90 170 171
3 90 171 91
3 91 171 172
3 91 172 92
3 92 172 173
3 92 173 93
3 93 173 174
3 93 174 94
3 94 174 175
3 94 175 95
3 95 175 176
3 95 176 96
3 96 176 177
3 96 177 97
3 97 177 178
3 97 178 98
3 98 178 179
3 98 179 99
3 99 179 180
3 99 180 100
3 100 180 181
3 100 181 101
3 101 181 182
3 101 182 102
3 102 182 183
3 102 183 103
3 103 183 104
3 104 183 185
3 104 185 105
3 105 185 186
3 105 186 106
3 106 186 187
3 106 187 188
3 106 188 108
3 108 188 189
3 108 189 109
3 109 189 190
3 109 190 110
3 110 190 191
3 110 191 111
3 111 191 192
3 111 192 112
3 112 192 193
3 112 193 113
3 113 193 194
3 113 194 114
3 114 194 195
3 114 195 115
3 115 195 196
3 115 196 116
3 116 196 197
3 116 197 117
3 117 197 198
3 117 198 118
3 118 198 199
3 118 199 119
3 119 199 200
3 119 200 120
3 120 200 201
3 120 201 121
3 121 201 202
3 121 202 122
3 122 202 203
3 122 203 123
3 123 203 204
3 123 204 124
3 124 204 205
3 124 205 125
3 125 205 206
3 125 206 126
3 126 206 207
3 126 207 127
3 127 207 208
3 127 208 128
3 128 208 209
3 128 209 129
3 129 209 210
3 129 210 130
3 130 210 211
3 130 211 131
3 131 211 212
3 131 212 132
3 132 212 213
3 132 213 133
3 133 213 214
3 133 214 134
3 134 214 215
3 134 215 135
3 135 215 216
3 135 216 136
3 136 216 217
3 136 217 137
3 137 217 218
3 137 218 138
3 138 218 219
3 138 219 139
3 139 219 220
3 139 220 140
3 140 220 221
3 140 221 141
3 141 221 222
3 141 222 142
3 142 222 223
3 142 223 143
3 143 223 224
3 143 224 144
3 144 224 225
3 144 225 145
3 145 225 226
3 145 226 146
3 146 226 227
3 146 227 147
3 147 227 228
3 147 228 148
3 148 228 229
3 148 229 149
3 149 229 230
3 149 230 150
3 150 230 231
3 150 231 151
3 151 231 232
3 151 232 152
3 152 232 233
3 152 233 153
3 153 233 234
3 153 234 154
3 154 234 235
3 154 235 155
3 155 235 236
3 155 236 156
3 156 236 237
3 156 237 157
3 157 237 238
3 157 238 158
3 158 238 239
3 158 239 159
3 159 239 240
3 159 240 160
3 160 240 161
3 160 161 81
3 161 241 242
3 161 242 162
3 162 242 243
3 162 243 163
3 163 243 244
3 163 244 164
3 164 244 246
3 164 246 166
3 166 246 247
3 166 247 167
3 167 247 248
3 167 248 168
3 168 248 249
3 168 249 169
3 169 249 250
3 169 250 170
3 170 250 251
3 170 251 171
3 171 251 252
3 171 252 172
3 172 252 253
3 172 253 173
3 173 253 254
3 173 254 174
3 174 254 255
3 174 255 175
3 175 255 256
3 175 256 176
3 176 256 257
3 176 257 177
3 177 257 258
3 177 258 178
3 178 258 259
3 178 259 179
3 179 259 260
3 179 260 180
3 180 260 261
3 180 261 181
3 181 261 262
3 181 262 182
3 182 262 263
3 182 263 183
3 183 263 264
3 183 264 265
3 183 265 185
3 185 265 266
3 185 266 186
3 186 266 267
3 186 267 187
3 187 267 268
3 187 268 188
3 188 268 269
3 188 269 189
3 189 269 270
3 189 270 190
3 190 270 271
3 190 271 191
3 191 271 272
3 191 272 192
3 192 272 193
3 193 272 274
3 193 274 194
3 194 274 275
3 194 275 195
3 195 275 276
3 195 276 196
3 196 276 277
3 196 277 197
3 197 277 278
3 197 278 198
3 198 278 279
3 198 279 199
3 199 279 280
3 199 280 200
3 200 280 281
3 200 281 201
3 201 281 282
3 201 282 202
3 202 282 283
3 202 283 203
3 203 283 284
3 203 284 204
3 204 284 285
3 204 285 205
3 205 285 286
3 205 286 206
3 206 286 287
3 206 287 207
3 207 287 288
3 207 288 208
3 208 288 289
3 208 289 209
3 209 289 290
3 209 290 210
3 210 290 291
3 210 291 211
3 211 291 292
3 211 292 212
3 212 292 293
3 212 293 213
3 213 293 294
3 213 294 214
3 214 294 295
3 214 295 215
3 215 295 296
3 215 296 216
3 216 296 297
3 216 297 217
3 217 297 298
3 217 298 218
3 218 298 299
3 218 299 219
3 219 299 300
3 219 300 220
3 220 300 301
3 220 301 221
3 221 301 302
3 221 302 222
3 222 302 303
3 222 303 223
3 223 303 304
3 223 304 224
3 224 304 305
3 224 305 225
3 225 305 306
3 225 306 226
3 226 306 307
3 226 307 227
3 227 307 308
3 227 308 228
3 228 308 309
3 228 309 229
3 229 309 310
3 229 310 230
3 230 310 311
3 230 311 231
3 231 311 312
3 231 312 232
3 232 312 313
3 232 313 233
3 233 313 314
3 233 314 234
3 234 314 315
3 234 315 235
3 235 315 316
3 235 316 236
3 236 316 317
3 236 317 237
3 237 317 318
3 237 318 238
3 238 318 319
3 238 319 239
3 239 319 320
3 239 320 240
3 240 320 241
3 240 241 161
3 241 321 322
3 241 322 242
3 242 322 323
3 242 323 243
3 243 323 324
3 243 324 244
3 244 324 326
3 244 326 246
3 246 326 327
3 246 327 247
3 247 327 328
3 247 328 248
3 248 328 329
3 248 329 249
3 249 329 250
3 250 329 331
3 250 331 251
3 251 331 332
3 251 332 252
3 252 332 333
3 252 333 253
3 253 333 334
3 253 334 254
3 254 334 335
3 254 335 255
3 255 335 336
3 255 336 256
3 256 336 337
3 256 337 257
3 257 337 338
3 257 338 258
3 258 338 339
3 258 339 259
3 259 339 340
3 259 340 260
3 260 340 341
3 260 341 261
3 261 341 342
3 261 342 262
3 262 342 343
3 262 343 263
3 263 343 344
3 263 344 264
3 264 344 345
3 264 345 265
3 265 345 346
3 265 346 266
3 266 346 347
3 266 347 267
3 267 347 348
3 267 348 268
3 268 348 349
3 268 349 269
3 269 349 350
3 269 350 270
3 270 350 351
3 270 351 271
3 271 351 352
3 271 352 272
3 272 352 353
3 272 353 354
3 272 354 274
3 274 354 355
3 274 355 275
3 275 355 356
3 275 356 276
3 276 356 357
3 276 357 277
3 277 357 358
3 277 358 278
3 278 358 359
3 278 359 279
3 279 359 360
3 279 360 280
3 280 360 361
3 280 361 281
3 281 361 362
3 281 362 282
3 282 362 363
3 282 363 283
3 283 363 364
3 283 364 284
3 284 364 365
3 284 365 285
3 285 365 366
3 285 366 286
3 286 366 367
3 286 367 287
3 287 367 368
3 287 368 288
3 288 368 369
3 288 369 289
3 289 369 370
3 289 370 290
3 290 370 371
3 290 371 291
3 291 371 372
3 291 372 292
3 292 372 373
3 292 373 293
3 293 373 374
3 293 374 294
3 294 374 375
3 294 375 295
3 295 375 376
3 295 376 296
3 296 376 377
3 296 377 297
3 297 377 378
3 297 378 298
3 298 378 379
3 298 379 299
3 299 379 380
3 299 380 300
3 300 380 381
3 300 381 301
3 301 381 382
3 301 382 302
3 302 382 383
3 302 383 303
3 303 383 384
3 303 384 304
3 304 384 385
3 304 385 305
3 305 385 386
3 305 386 306
3 306 386 387
3 306 387 307
3 307 387 388
3 307 388 308
3 308 388 389
3 308 389 309
3 309 389 390
3 309 390 310
3 310 390 391
3 310 391 311
3 311 391 392
3 311 392 312
3 312 392 393
3 312 393 313
3 313 393 394
3 313 394 314
3 314 394 395
3 314 395 315
3 315 395 396
3 315 396 316
3 316 396 397
3 316 397 317
3 317 397 398
3 317 398 318
3 318 398 399
3 318 399 319
3 319 399 400
3 319 400 320
3 320 400 321
3 320 321 241
3 321 401 402
3 321 402 322
3 322 402 403
3 322 403 323
3 323 403 324
3 324 403 405
3 324 405 406
3 324 406 326
3 326 406 407
3 326 407 327
3 327 407 408
3 327 408 328
3 328 408 409
3 328 409 329
3 329 409 410
3 329 410 411
3 329 411 331
3 331 411 412
3 331 412 332
3 332 412 413
3 332 413 333
3 333 413 414
3 333 414 334
3 334 414 415
3 334 415 335
3 335 415 416
3 335 416 336
3 336 416 417
3 336 417 337
3 337 417 418
3 337 418 338
3 338 418 419
3 338 419 339
3 339 419 420
3 339 420 340
3 340 420 421
3 340 421 341
3 341 421 422
3 341 422 342
3 342 422 423
3 342 423 343
3 343 423 424
3 343 424 344
3 344 424 425
3 344 425 345
3 345 425 426
3 345 426 346
3 346 426 427
3 346 427 347
3 347 427 428
3 347 428 348
3 348 428 429
3 348 429 349
3 349 429 430
3 349 430 350
3 350 430 431
3 350 431 351
3 351 431 432
3 351 432 352
3 352 432 433
3 352 433 353
3 353 433 434
3 353 434 354
3 354 434 435
3 354 435 355
3 355 435 436
3 355 436 356
3 356 436 437
3 356 437 357
3 357 437 438
3 357 438 358
3 358 438 439
3 358 439 359
3 359 439 440
3 359 440 360
3 360 440 441
3 360 441 361
3 361 441 442
3 361 442 362
3 362 442 443
3 362 443 363
3 363 443 444
3 363 444 364
3 364 444 445
3 364 445 365
3 365 445 446
3 365 446 366
3 366 446 447
3 366 447 367
3 367 447 448
3 367 448 368
3 368 448 449
3 368 449 369
3 369 449 450
3 369 450 370
3 370 450 451
3 370 451 371
3 371 451 452
3 371 452 372
3 372 452 453
3 372 453 373
3 373 453 454
3 373 454 374
3 374 454 455
3 374 455 375
3 375 455 456
3 375 456 376
3 376 456 457
3 376 457 377
3 377 457 458
3 377 458 378
3 378 458 459
3 378 459 379
3 379 459 460
3 379 460 380
3 380 460 461
3 380 461 381
3 381 461 462
3 381 462 382
3 382 462 463
3 382 463 383
3 383 463 464
3 383 464 384
3 384 464 465
3 384 465 385
3 385 465 466
3 385 466 386
3 386 466 467
3 386 467 387
3 387 467 468
3 387 468 388
3 388 468 469
3 388 469 389
3 389 469 470
3 389 470 390
3 390 470 471
3 390 471 391
3 391 471 472
3 391 472 392
3 392 472 473
3 392 473 393
3 393 473 474
3 393 474 394
3 394 474 475
3 394 475 395
3 395 475 476
3 395 476 396
3 396 476 477
3 396 477 397
3 397 477 478
3 397 478 398
3 398 478 479
3 398 479 399
3 399 479 400
3 400 479 401
3 400 401 321
3 401 481 482
3 401 482 402
3 402 482 483
3 402 483 403
3 403 483 485
3 403 485 405
3 405 485 406
3 406 485 487
3 406 487 407
3 407 487 488
3 407 488 408
3 408 488 489
3 408 489 409
3 409 489 490
3 409 490 410
3 410 490 491
3 410 491 411
3 411 491 492
3 411 492 412
3 412 492 493
3 412 493 413
3 413 493 494
3 413 494 414
3 414 494 495
3 414 495 415
3 415 495 496
3 415 496 416
3 416 496 497
3 416 497 417
3 417 497 498
3 417 498 418
3 418 498 499
3 418 499 419
3 419 499 500
3 419 500 420
3 420 500 501
3 420 501 421
3 421 501 502
3 421 502 422
3 422 502 503
3 422 503 423
3 423 503 504
3 423 504 424
3 424 504 505
3 424 505 425
3 425 505 506
3 425 506 426
3 426 506 507
3 426 507 427
3 427 507 508
3 427 508 428
3 428 508 509
3 428 509 429
3 429 509 510
3 429 510 430
3 430 510 511
3 430 511 431
3 431 511 512
3 431 512 432
3 432 512 513
3 432 513 433
3 433 513 514
3 433 514 434
3 434 514 515
3 434 515 435
3 435 515 516
3 435 516 436
3 436 516 517
3 436 517 437
3 437 517 518
3 437 518 438
3 438 518 519
3 438 519 439
3 439 519 520
3 439 520 440
3 440 520 521
3 440 521 441
3 441 521 522
3 441 522 442
3 442 522 523
3 442 523 443
3 443 523 524
3 443 524 444
3 444 524 525
3 444 525 445
3 445 525 526
3 445 526 446
3 446 526 527
3 446 527 447
3 447 527 528
3 447 528 448
3 448 528 529
3 448 529 449
3 449 529 530
3 449 530 450
3 450 530 531
3 450 531 451
3 451 531 532
3 451 532 452
3 452 532 533
3 452 533 453
3 453 533 534
3 453 534 454
3 454 534 535
3 454 535 455
3 455 535 536
3 455 536 456
3 456 536 537
3 456 537 457
3 457 537 538
3 457 538 458
3 458 538 539
3 458 539 459
3 459 539 540
3 459 540 460
3 460 540 541
3 460 541 461
3 461 541 542
3 461 542 462
3 462 542 543
3 462 543 463
3 463 543 544
3 463 544 464
3 464 544 545
3 464 545 465
3 465 545 546
3 465 546 466
3 466 546 547
3 466 547 467
3 467 547 548
3 467 548 468
3 468 548 549
3 468 549 469
3 469 549 550
3 469 550 470
3 470 550 551
3 470 551 471
3 471 551 552
3 471 552 472
3 472 552 553
3 472 553 473
3 473 553 554
3 473 554 474
3 474 554 555
3 474 555 475
3 475 555 556
3 475 556 476
3 476 556 557
3 476 557 477
3 477 557 558
3 477 558 478
3 478 558 559
3 478 559 479
3 479 559 560
3 479 560 481
3 479 481 401
3 481 561 562
3 481 562 482
3 482 562 563
3 482 563 483
3 483 563 564
3 483 564 485
3 485 564 566
3 485 566 567
3 485 567 487
3 487 567 568
3 487 568 488
3 488 568 569
3 488 569 489
3 489 569 570
3 489 570 490
3 490 570 571
3 490 571 491
3 491 571 572
3 491 572 492
3 492 572 573
3 492 573 493
3 493 573 574
3 493 574 494
3 494 574 575
3 494 575 495
3 495 575 576
3 495 576 496
3 496 576 577
3 496 577 497
3 497 577 578
3 497 578 498
3 498 578 579
3 498 579 499
3 499 579 580
3 499 580 500
3 500 580 581
3 500 581 501
3 501 581 582
3 501 582 502
3 502 582 583
3 502 583 503
3 503 583 584
3 503 584 504
3 504 584 585
3 504 585 505
3 505 585 586
3 505 586 506
3 506 586 587
3 506 587 507
3 507 587 588
3 507 588 508
3 508 588 589
3 508 589 509
3 509 589 590
3 509 590 510
3 510 590 591
3 510 591 511
3 511 591 592
3 511 592 512
3 512 592 593
3 512 593 513
3 513 593 594
3 513 594 514
3 514 594 595
3 514 595 515
3 515 595 596
3 515 596 516
3 516 596 597
3 516 597 517
3 517 597 598
3 517 598 518
3 518 598 599
3 518 599 519
3 519 599 600
3 519 600 520
3 520 600 601
3 520 601 521
3 521 601 602
3 521 602 522
3 522 602 603
3 522 603 523
3 523 603 604
3 523 604 524
3 524 604 605
3 524 605 525
3 525 605 606
3 525 606 526
3 526 606 607
3 526 607 527
3 527 607 608
3 527 608 528
3 528 608 609
3 528 609 529
3 529 609 610
3 529 610 530
3 530 610 611
3 530 611 531
3 531 611 612
3 531 612 532
3 532 612 613
3 532 613 533
3 533 613 614
3 533 614 534
3 534 614 615
3 534 615 535
3 535 615 616
3 535 616 536
3 536 616 617
3 536 617 537
3 537 617 618
3 537 618 538
3 538 618 619
3 538 619 539
3 539 619 620
3 539 620 540
3 540 620 621
3 540 621 541
3 541 621 622
3 541 622 542
3 542 622 623
3 542 623 543
3 543 623 624
3 543 624 544
3 544 624 625
3 544 625 545
3 545 625 626
3 545 626 546
3 546 626 627
3 546 627 547
3 547 627 628
3 547 628 548
3 548 628 629
3 548 629 549
3 549 629 550
3 550 629 631
3 550 631 551
3 551 631 632
3 551 632 552
3 552 632 633
3 552 633 553
3 553 633 634
3 553 634 554
3 554 634 635
3 554 635 555
3 555 635 636
3 555 636 556
3 556 636 637
3 556 637 557
3 557 637 638
3 557 638 558
3 558 638 639
3 558 639 559
3 559 639 640
3 559 640 560
3 560 640 561
3 560 561 481
3 561 641 642
3 561 642 562
3 562 642 643
3 562 643 563
3 563 643 644
3 563 644 564
3 564 644 566
3 566 644 647
3 566 647 567
3 567 647 648
3 567 648 568
3 568 648 649
3 568 649 569
3 569 649 650
3 569 650 570
3 570 650 651
3 570 651 571
3 571 651 652
3 571 652 572
3 572 652 653
3 572 653 573
3 573 653 654
3 573 654 574
3 574 654 655
3 574 655 575
3 575 655 656
3 575 656 576
3 576 656 657
3 576 657 577
3 577 657 658
3 577 658 578
3 578 658 659
3 578 659 579
3 579 659 660
3 579 660 580
3 580 660 661
3 580 661 581
3 581 661 662
3 581 662 582
3 582 662 663
3 582 663 583
3 583 663 664
3 583 664 584
3 584 664 665
3 584 665 585
3 585 665 666
3 585 666 586
3 586 666 667
3 586 667 587
3 587 667 668
3 587 668 588
3 588 668 669
3 588 669 589
3 589 669 670
3 589 670 590
3 590 670 671
3 590 671 591
3 591 671 672
3 591 672 592
3 592 672 673
3 592 673 593
3 593 673 674
3 593 674 594
3 594 674 675
3 594 675 595
3 595 675 676
3 595 676 596
3 596 676 677
3 596 677 597
3 597 677 678
3 597 678 598
3 598 678 679
3 598 679 599
3 599 679 680
3 599 680 600
3 600 680 681
3 600 681 601
3 601 681 682
3 601 682 602
3 602 682 683
3 602 683 603
3 603 683 684
3 603 684 604
3 604 684 685
3 604 685 605
3 605 685 686
3 605 686 606
3 606 686 687
3 606 687 607
3 607 687 688
3 607 688 608
3 608 688 689
3 608 689 609
3 609 689 690
3 609 690 610
3 610 690 691
3 610 691 611
3 611 691 692
3 611 692 612
3 612 692 693
3 612 693 613
3 613 693 694
3 613 694 614
3 614 694 695
3 614 695 615
3 615 695 696
3 615 696 616
3 616 696 697
3 616 697 617
3 617 697 698
3 617 698 618
3 618 698 699
3 618 699 619
3 619 699 700
3 619 700 620
3 620 700 701
3 620 701 621
3 621 701 702
3 621 702 622
3 622 702 703
3 622 703 623
3 623 703 704
3 623 704 624
3 624 704 705
3 624 705 625
3 625 705 706
3 625 706 626
3 626 706 707
3 626 707 627
3 627 707 708
3 627 708 628
3 628 708 709
3 628 709 629
3 629 709 710
3 629 710 711
3 629 711 631
3 631 711 712
3 631 712 632
3 632 712 713
3 632 713 633
3 633 713 714
3 633 714 634
3 634 714 715
3 634 715 635
3 635 715 716
3 635 716 636
3 636 716 717
3 636 717 637
3 637 717 718
3 637 718 638
3 638 718 719
3 638 719 639
3 639 719 720
3 639 720 640
3 640 720 641
3 640 641 561
