ply 
format ascii 1.0 
comment this is a surface 
element vertex 801 
property float x 
property float y 
property float z 
element face 1482 
property list uchar int vertex_index 
end_header 
192.304875 216.735375 -85.680000
195.170000 247.110000 -85.680000
192.790000 246.950000 -85.680000
190.360000 246.600000 -85.680000
187.930000 246.080000 -85.680000
185.520000 245.430000 -85.680000
183.170000 244.680000 -85.680000
180.910000 243.850000 -85.680000
178.770000 242.970000 -85.680000
176.780000 242.070000 -85.680000
174.890000 240.960000 -85.680000
173.060000 239.590000 -85.680000
171.310000 238.000000 -85.680000
169.630000 236.210000 -85.680000
168.030000 234.260000 -85.680000
166.510000 232.180000 -85.680000
165.090000 230.000000 -85.680000
165.090000 230.000000 -85.680000
164.090000 227.460000 -85.680000
163.380000 224.980000 -85.680000
162.930000 222.570000 -85.680000
162.670000 220.220000 -85.680000
162.550000 217.940000 -85.680000
162.510000 215.740000 -85.680000
162.570000 213.610000 -85.680000
163.200000 211.500000 -85.680000
164.390000 209.440000 -85.680000
165.970000 207.430000 -85.680000
167.780000 205.520000 -85.680000
169.670000 203.720000 -85.680000
171.480000 202.050000 -85.680000
173.250000 200.560000 -85.680000
175.250000 199.250000 -85.680000
177.340000 197.980000 -85.680000
179.350000 196.650000 -85.680000
181.160000 195.070000 -85.680000
182.820000 193.040000 -85.680000
184.410000 190.790000 -85.680000
185.970000 188.570000 -85.680000
187.570000 186.630000 -85.680000
189.260000 185.230000 -85.680000
191.110000 184.620000 -85.680000
193.200000 184.650000 -85.680000
195.570000 184.770000 -85.680000
198.100000 184.960000 -85.680000
200.670000 185.220000 -85.680000
203.190000 185.540000 -85.680000
205.520000 185.920000 -85.680000
207.580000 186.360000 -85.680000
209.580000 187.300000 -85.680000
211.560000 188.780000 -85.680000
213.430000 190.630000 -85.680000
215.100000 192.720000 -85.680000
216.460000 194.870000 -85.680000
217.440000 196.930000 -85.680000
218.230000 199.070000 -85.680000
218.940000 201.410000 -85.680000
219.480000 203.840000 -85.680000
219.760000 206.250000 -85.680000
219.710000 208.580000 -85.680000
219.380000 210.900000 -85.680000
218.840000 213.220000 -85.680000
218.160000 215.540000 -85.680000
217.420000 217.860000 -85.680000
216.660000 220.180000 -85.680000
215.970000 222.490000 -85.680000
215.380000 224.820000 -85.680000
214.850000 227.210000 -85.680000
214.330000 229.600000 -85.680000
213.750000 231.940000 -85.680000
213.070000 234.180000 -85.680000
212.230000 236.290000 -85.680000
211.110000 238.510000 -85.680000
209.720000 240.750000 -85.680000
208.120000 242.820000 -85.680000
206.360000 244.510000 -85.680000
204.520000 245.610000 -85.680000
202.480000 246.220000 -85.680000
200.080000 246.720000 -85.680000
197.580000 247.040000 -85.680000
195.170000 247.110000 -85.680000
191.810000 241.570000 -76.160000
188.550000 241.240000 -76.160000
185.440000 240.230000 -76.160000
182.450000 238.480000 -76.160000
179.710000 236.570000 -76.160000
176.990000 234.520000 -76.160000
174.330000 232.170000 -76.160000
172.050000 229.610000 -76.160000
170.470000 226.910000 -76.160000
169.420000 224.000000 -76.160000
168.480000 220.800000 -76.160000
167.720000 217.430000 -76.160000
167.200000 214.010000 -76.160000
167.010000 210.650000 -76.160000
167.270000 207.370000 -76.160000
167.870000 204.080000 -76.160000
168.470000 200.780000 -76.160000
168.850000 197.450000 -76.160000
169.140000 194.080000 -76.160000
169.480000 190.760000 -76.160000
170.020000 187.600000 -76.160000
171.130000 184.500000 -76.160000
172.720000 181.470000 -76.160000
174.620000 178.580000 -76.160000
176.640000 175.900000 -76.160000
178.850000 173.480000 -76.160000
181.470000 171.350000 -76.160000
184.210000 169.550000 -76.160000
187.120000 167.930000 -76.160000
190.120000 166.430000 -76.160000
193.140000 164.970000 -76.160000
196.120000 163.470000 -76.160000
199.090000 161.940000 -76.160000
202.090000 160.460000 -76.160000
205.120000 159.100000 -76.160000
208.210000 157.900000 -76.160000
211.350000 156.650000 -76.160000
214.530000 155.440000 -76.160000
217.740000 154.450000 -76.160000
220.980000 153.850000 -76.160000
224.380000 153.750000 -76.160000
228.470000 153.730000 -76.160000
232.580000 153.710000 -76.160000
235.880000 153.700000 -76.160000
237.530000 153.700000 -76.160000
238.080000 154.670000 -76.160000
238.560000 157.190000 -76.160000
238.940000 160.790000 -76.160000
239.240000 165.020000 -76.160000
239.440000 169.420000 -76.160000
239.550000 173.520000 -76.160000
239.540000 176.980000 -76.160000
239.300000 180.330000 -76.160000
238.860000 183.690000 -76.160000
238.260000 186.990000 -76.160000
237.550000 190.200000 -76.160000
236.580000 193.300000 -76.160000
234.990000 196.310000 -76.160000
233.130000 199.090000 -76.160000
230.580000 201.490000 -76.160000
227.610000 203.690000 -76.160000
225.750000 206.090000 -76.160000
225.490000 209.110000 -76.160000
225.380000 212.580000 -76.160000
225.180000 215.940000 -76.160000
224.650000 219.150000 -76.160000
223.750000 222.330000 -76.160000
222.550000 225.470000 -76.160000
221.080000 228.550000 -76.160000
219.400000 231.590000 -76.160000
219.400000 231.590000 -76.160000
216.610000 234.110000 -76.160000
213.750000 236.350000 -76.160000
210.820000 238.250000 -76.160000
207.820000 239.790000 -76.160000
207.820000 239.790000 -76.160000
204.760000 240.940000 -76.160000
201.660000 241.640000 -76.160000
198.510000 241.870000 -76.160000
195.200000 241.790000 -76.160000
192.010000 247.880000 -66.640000
188.020000 247.700000 -66.640000
184.080000 246.310000 -66.640000
180.470000 244.460000 -66.640000
177.210000 241.980000 -66.640000
174.270000 239.120000 -66.640000
171.570000 236.080000 -66.640000
169.060000 232.820000 -66.640000
166.760000 229.410000 -66.640000
164.730000 225.920000 -66.640000
163.000000 222.230000 -66.640000
161.340000 218.480000 -66.640000
159.400000 214.850000 -66.640000
157.300000 211.260000 -66.640000
156.360000 207.460000 -66.640000
155.850000 203.410000 -66.640000
155.520000 199.270000 -66.640000
155.440000 195.220000 -66.640000
156.150000 191.210000 -66.640000
157.550000 187.260000 -66.640000
159.160000 183.550000 -66.640000
161.190000 180.100000 -66.640000
163.730000 176.830000 -66.640000
166.410000 173.670000 -66.640000
169.020000 170.520000 -66.640000
171.700000 167.360000 -66.640000
174.510000 164.340000 -66.640000
177.470000 161.580000 -66.640000
180.630000 159.190000 -66.640000
184.070000 157.020000 -66.640000
187.710000 155.060000 -66.640000
191.450000 153.320000 -66.640000
195.210000 151.820000 -66.640000
199.080000 150.540000 -66.640000
203.010000 149.400000 -66.640000
206.950000 148.320000 -66.640000
210.890000 147.200000 -66.640000
214.860000 146.130000 -66.640000
218.840000 145.230000 -66.640000
222.850000 144.610000 -66.640000
226.900000 144.300000 -66.640000
231.030000 144.070000 -66.640000
235.130000 143.910000 -66.640000
239.100000 143.880000 -66.640000
243.450000 144.890000 -66.640000
247.360000 146.930000 -66.640000
249.480000 149.480000 -66.640000
250.540000 153.580000 -66.640000
251.370000 157.730000 -66.640000
252.240000 161.750000 -66.640000
252.970000 165.790000 -66.640000
253.380000 169.830000 -66.640000
253.180000 173.840000 -66.640000
252.150000 177.840000 -66.640000
250.810000 181.690000 -66.640000
248.840000 185.250000 -66.640000
246.160000 188.380000 -66.640000
244.270000 191.910000 -66.640000
242.840000 195.770000 -66.640000
241.460000 199.610000 -66.640000
240.130000 203.460000 -66.640000
238.480000 207.200000 -66.640000
236.590000 210.860000 -66.640000
235.160000 214.620000 -66.640000
234.350000 218.720000 -66.640000
233.770000 223.000000 -66.640000
233.140000 227.080000 -66.640000
232.160000 230.590000 -66.640000
230.270000 233.640000 -66.640000
227.360000 236.440000 -66.640000
223.700000 238.920000 -66.640000
219.550000 241.050000 -66.640000
219.550000 241.050000 -66.640000
215.780000 242.920000 -66.640000
211.960000 244.550000 -66.640000
211.960000 244.550000 -66.640000
208.080000 245.870000 -66.640000
204.160000 246.830000 -66.640000
200.190000 247.350000 -66.640000
196.120000 247.680000 -66.640000
190.050000 251.250000 -57.120000
185.970000 249.790000 -57.120000
182.240000 247.730000 -57.120000
178.620000 245.310000 -57.120000
174.810000 243.190000 -57.120000
171.100000 240.990000 -57.120000
167.850000 238.290000 -57.120000
164.930000 235.050000 -57.120000
162.240000 231.660000 -57.120000
159.460000 228.200000 -57.120000
156.930000 224.600000 -57.120000
155.130000 220.800000 -57.120000
154.120000 216.710000 -57.120000
153.410000 212.380000 -57.120000
152.960000 208.090000 -57.120000
152.640000 203.780000 -57.120000
152.640000 199.460000 -57.120000
152.890000 195.070000 -57.120000
153.350000 190.700000 -57.120000
153.980000 186.440000 -57.120000
154.740000 182.380000 -57.120000
156.380000 178.540000 -57.120000
158.870000 174.860000 -57.120000
161.540000 171.300000 -57.120000
164.070000 167.800000 -57.120000
166.770000 164.390000 -57.120000
169.660000 161.190000 -57.120000
172.790000 158.220000 -57.120000
176.220000 155.400000 -57.120000
179.930000 153.570000 -57.120000
184.030000 152.550000 -57.120000
188.360000 151.770000 -57.120000
192.660000 150.890000 -57.120000
196.780000 149.630000 -57.120000
200.880000 148.260000 -57.120000
205.060000 147.180000 -57.120000
209.310000 146.370000 -57.120000
213.580000 146.580000 -57.120000
217.890000 147.030000 -57.120000
222.190000 146.980000 -57.120000
226.510000 146.860000 -57.120000
230.840000 146.750000 -57.120000
235.160000 146.650000 -57.120000
239.390000 146.860000 -57.120000
243.610000 148.170000 -57.120000
247.580000 150.100000 -57.120000
251.440000 152.280000 -57.120000
255.310000 155.230000 -57.120000
256.620000 158.650000 -57.120000
256.130000 162.800000 -57.120000
255.290000 167.300000 -57.120000
254.360000 171.520000 -57.120000
253.130000 175.650000 -57.120000
251.810000 179.770000 -57.120000
250.600000 183.910000 -57.120000
249.590000 188.110000 -57.120000
248.640000 192.320000 -57.120000
247.590000 196.490000 -57.120000
246.330000 200.620000 -57.120000
245.050000 204.740000 -57.120000
243.810000 208.870000 -57.120000
242.560000 213.000000 -57.120000
241.260000 217.120000 -57.120000
239.850000 221.180000 -57.120000
238.390000 225.320000 -57.120000
236.800000 229.420000 -57.120000
234.920000 233.210000 -57.120000
232.390000 236.480000 -57.120000
229.120000 239.420000 -57.120000
225.720000 242.190000 -57.120000
222.310000 244.810000 -57.120000
218.730000 247.250000 -57.120000
218.730000 247.250000 -57.120000
215.020000 250.100000 -57.120000
211.160000 252.220000 -57.120000
211.160000 252.220000 -57.120000
207.170000 253.090000 -57.120000
202.980000 252.960000 -57.120000
198.620000 252.600000 -57.120000
194.270000 252.070000 -57.120000
187.730000 256.260000 -47.600000
183.490000 254.480000 -47.600000
179.490000 251.810000 -47.600000
175.710000 249.090000 -47.600000
172.090000 246.100000 -47.600000
168.540000 243.030000 -47.600000
165.060000 239.910000 -47.600000
161.680000 236.680000 -47.600000
158.170000 233.410000 -47.600000
155.090000 229.940000 -47.600000
153.470000 225.800000 -47.600000
152.220000 221.140000 -47.600000
151.640000 216.390000 -47.600000
151.640000 211.760000 -47.600000
151.640000 207.080000 -47.600000
151.640000 202.390000 -47.600000
151.640000 197.700000 -47.600000
151.680000 193.030000 -47.600000
152.110000 188.370000 -47.600000
152.820000 183.730000 -47.600000
153.620000 179.140000 -47.600000
154.690000 174.580000 -47.600000
156.040000 170.090000 -47.600000
157.590000 165.660000 -47.600000
159.530000 161.410000 -47.600000
162.090000 157.500000 -47.600000
165.240000 153.890000 -47.600000
168.740000 151.000000 -47.600000
172.840000 148.780000 -47.600000
177.150000 146.750000 -47.600000
181.300000 144.570000 -47.600000
185.470000 142.440000 -47.600000
189.750000 140.590000 -47.600000
194.150000 138.790000 -47.600000
198.640000 137.600000 -47.600000
203.230000 137.140000 -47.600000
207.920000 136.830000 -47.600000
212.620000 136.710000 -47.600000
217.300000 136.710000 -47.600000
221.970000 136.710000 -47.600000
226.630000 136.840000 -47.600000
231.260000 137.640000 -47.600000
235.810000 138.670000 -47.600000
240.350000 140.070000 -47.600000
244.680000 141.830000 -47.600000
248.850000 143.970000 -47.600000
253.030000 146.710000 -47.600000
256.440000 149.940000 -47.600000
258.540000 153.740000 -47.600000
259.850000 158.430000 -47.600000
259.310000 162.880000 -47.600000
257.460000 167.290000 -47.600000
255.720000 171.720000 -47.600000
254.520000 176.250000 -47.600000
253.370000 180.800000 -47.600000
251.990000 185.230000 -47.600000
250.050000 189.480000 -47.600000
248.030000 193.720000 -47.600000
246.380000 198.100000 -47.600000
244.870000 202.560000 -47.600000
243.900000 207.100000 -47.600000
243.460000 211.770000 -47.600000
242.730000 216.340000 -47.600000
241.320000 220.830000 -47.600000
239.480000 225.190000 -47.600000
237.480000 229.370000 -47.600000
235.080000 233.420000 -47.600000
232.370000 237.260000 -47.600000
229.400000 240.830000 -47.600000
226.080000 244.180000 -47.600000
222.570000 247.210000 -47.600000
218.880000 250.050000 -47.600000
215.000000 252.680000 -47.600000
210.920000 255.070000 -47.600000
210.920000 255.070000 -47.600000
210.920000 255.070000 -47.600000
206.330000 256.230000 -47.600000
201.720000 256.860000 -47.600000
197.020000 256.840000 -47.600000
192.280000 256.630000 -47.600000
185.570000 256.750000 -38.080000
181.090000 255.020000 -38.080000
181.090000 255.020000 -38.080000
177.150000 252.360000 -38.080000
173.320000 249.550000 -38.080000
169.560000 246.620000 -38.080000
165.910000 243.550000 -38.080000
162.500000 240.280000 -38.080000
159.220000 236.780000 -38.080000
156.240000 233.050000 -38.080000
153.660000 229.070000 -38.080000
151.330000 224.800000 -38.080000
150.000000 220.360000 -38.080000
149.200000 215.660000 -38.080000
148.570000 210.810000 -38.080000
148.160000 205.990000 -38.080000
148.030000 201.430000 -38.080000
149.840000 197.240000 -38.080000
152.760000 193.140000 -38.080000
155.240000 188.850000 -38.080000
155.470000 184.570000 -38.080000
152.580000 180.390000 -38.080000
150.660000 176.100000 -38.080000
151.080000 171.500000 -38.080000
152.110000 166.750000 -38.080000
153.390000 162.090000 -38.080000
154.880000 157.410000 -38.080000
156.880000 152.790000 -38.080000
159.320000 149.140000 -38.080000
162.540000 146.490000 -38.080000
166.670000 144.220000 -38.080000
171.330000 142.260000 -38.080000
176.150000 140.510000 -38.080000
180.750000 138.880000 -38.080000
185.220000 137.180000 -38.080000
189.750000 135.440000 -38.080000
194.340000 133.810000 -38.080000
198.960000 132.460000 -38.080000
203.590000 131.540000 -38.080000
208.220000 131.230000 -38.080000
212.970000 131.500000 -38.080000
217.840000 132.200000 -38.080000
222.660000 133.230000 -38.080000
227.270000 134.500000 -38.080000
231.490000 135.900000 -38.080000
235.740000 137.940000 -38.080000
240.070000 140.850000 -38.080000
243.990000 144.370000 -38.080000
247.020000 148.210000 -38.080000
248.700000 152.110000 -38.080000
249.670000 156.530000 -38.080000
250.390000 161.440000 -38.080000
250.680000 166.340000 -38.080000
250.460000 171.050000 -38.080000
249.860000 175.760000 -38.080000
249.050000 180.460000 -38.080000
248.190000 185.170000 -38.080000
247.430000 189.880000 -38.080000
246.860000 194.630000 -38.080000
246.260000 199.350000 -38.080000
245.230000 203.920000 -38.080000
243.350000 208.310000 -38.080000
241.580000 212.750000 -38.080000
240.370000 217.350000 -38.080000
239.250000 221.990000 -38.080000
237.850000 226.500000 -38.080000
236.140000 231.000000 -38.080000
234.120000 235.380000 -38.080000
231.790000 239.420000 -38.080000
228.890000 243.170000 -38.080000
225.440000 246.590000 -38.080000
221.760000 249.490000 -38.080000
217.770000 252.470000 -38.080000
213.520000 255.150000 -38.080000
209.110000 256.940000 -38.080000
204.620000 257.320000 -38.080000
204.620000 257.320000 -38.080000
199.930000 257.280000 -38.080000
195.080000 257.190000 -38.080000
190.240000 257.030000 -38.080000
184.340000 257.610000 -28.560000
179.950000 254.850000 -28.560000
175.710000 252.080000 -28.560000
171.550000 249.240000 -28.560000
167.660000 246.130000 -28.560000
164.210000 242.580000 -28.560000
161.040000 238.680000 -28.560000
157.980000 234.730000 -28.560000
155.080000 230.660000 -28.560000
152.130000 226.540000 -28.560000
149.650000 222.250000 -28.560000
148.150000 217.540000 -28.560000
147.100000 212.570000 -28.560000
146.910000 207.590000 -28.560000
147.190000 202.560000 -28.560000
147.690000 197.590000 -28.560000
148.740000 192.740000 -28.560000
150.900000 188.220000 -28.560000
154.980000 184.460000 -28.560000
156.910000 180.880000 -28.560000
153.400000 177.420000 -28.560000
148.520000 173.900000 -28.560000
146.770000 169.890000 -28.560000
147.340000 165.000000 -28.560000
148.350000 159.870000 -28.560000
149.740000 155.100000 -28.560000
151.810000 150.490000 -28.560000
154.170000 146.110000 -28.560000
156.980000 141.830000 -28.560000
160.260000 138.130000 -28.560000
164.240000 135.100000 -28.560000
168.760000 132.980000 -28.560000
173.640000 131.990000 -28.560000
178.580000 131.020000 -28.560000
183.080000 128.550000 -28.560000
187.740000 127.990000 -28.560000
192.720000 128.640000 -28.560000
197.760000 129.240000 -28.560000
202.750000 129.510000 -28.560000
207.750000 129.670000 -28.560000
212.760000 129.690000 -28.560000
217.760000 129.690000 -28.560000
222.640000 130.090000 -28.560000
227.410000 131.840000 -28.560000
232.250000 133.580000 -28.560000
237.310000 135.360000 -28.560000
240.930000 137.840000 -28.560000
243.000000 142.340000 -28.560000
244.810000 147.240000 -28.560000
246.560000 151.930000 -28.560000
248.860000 156.410000 -28.560000
251.620000 160.720000 -28.560000
252.110000 165.500000 -28.560000
252.170000 170.540000 -28.560000
251.140000 175.380000 -28.560000
249.470000 180.180000 -28.560000
248.390000 185.060000 -28.560000
247.540000 189.980000 -28.560000
246.360000 194.830000 -28.560000
244.960000 199.630000 -28.560000
243.610000 204.440000 -28.560000
242.310000 209.260000 -28.560000
241.320000 214.230000 -28.560000
240.480000 219.270000 -28.560000
239.410000 224.070000 -28.560000
237.430000 228.360000 -28.560000
234.110000 232.260000 -28.560000
231.040000 236.290000 -28.560000
228.360000 240.580000 -28.560000
225.390000 244.500000 -28.560000
221.630000 247.760000 -28.560000
217.530000 250.680000 -28.560000
213.340000 253.380000 -28.560000
208.970000 255.830000 -28.560000
208.970000 255.830000 -28.560000
204.060000 256.850000 -28.560000
204.060000 256.850000 -28.560000
199.100000 257.420000 -28.560000
194.020000 257.800000 -28.560000
189.020000 258.020000 -28.560000
185.300000 257.890000 -19.040000
180.260000 256.990000 -19.040000
175.590000 255.170000 -19.040000
171.160000 252.240000 -19.040000
167.080000 249.060000 -19.040000
163.330000 245.510000 -19.040000
159.870000 241.650000 -19.040000
156.660000 237.630000 -19.040000
153.690000 233.390000 -19.040000
150.840000 229.030000 -19.040000
147.910000 224.540000 -19.040000
145.820000 219.890000 -19.040000
145.100000 215.000000 -19.040000
144.650000 209.830000 -19.040000
144.410000 204.590000 -19.040000
144.600000 199.470000 -19.040000
145.920000 194.420000 -19.040000
148.050000 189.470000 -19.040000
151.030000 184.650000 -19.040000
151.110000 181.150000 -19.040000
145.160000 178.870000 -19.040000
143.830000 175.300000 -19.040000
143.690000 169.910000 -19.040000
143.640000 164.380000 -19.040000
144.590000 159.280000 -19.040000
146.340000 154.470000 -19.040000
148.940000 150.000000 -19.040000
152.030000 145.810000 -19.040000
155.240000 141.680000 -19.040000
158.820000 137.930000 -19.040000
162.990000 135.100000 -19.040000
167.740000 132.980000 -19.040000
172.580000 131.150000 -19.040000
177.530000 129.580000 -19.040000
182.550000 128.480000 -19.040000
187.640000 127.900000 -19.040000
192.800000 127.480000 -19.040000
197.930000 126.850000 -19.040000
203.030000 125.950000 -19.040000
208.140000 125.610000 -19.040000
213.300000 125.970000 -19.040000
218.400000 126.630000 -19.040000
223.420000 127.810000 -19.040000
228.320000 129.430000 -19.040000
233.170000 131.330000 -19.040000
237.700000 133.670000 -19.040000
242.010000 136.630000 -19.040000
245.920000 140.120000 -19.040000
249.160000 144.050000 -19.040000
251.690000 148.670000 -19.040000
252.240000 153.600000 -19.040000
252.470000 158.830000 -19.040000
252.830000 164.030000 -19.040000
253.650000 169.200000 -19.040000
254.410000 174.320000 -19.040000
254.160000 179.190000 -19.040000
251.730000 183.810000 -19.040000
248.550000 188.350000 -19.040000
246.400000 193.030000 -19.040000
246.090000 198.050000 -19.040000
245.980000 203.270000 -19.040000
245.460000 208.340000 -19.040000
243.690000 213.250000 -19.040000
241.770000 218.020000 -19.040000
239.560000 222.690000 -19.040000
237.340000 227.350000 -19.040000
235.250000 232.100000 -19.040000
232.960000 236.690000 -19.040000
230.120000 240.960000 -19.040000
226.870000 245.010000 -19.040000
223.420000 248.820000 -19.040000
219.740000 252.410000 -19.040000
215.790000 255.780000 -19.040000
215.790000 255.780000 -19.040000
210.850000 257.710000 -19.040000
205.840000 258.970000 -19.040000
205.840000 258.970000 -19.040000
200.790000 259.270000 -19.040000
195.640000 258.970000 -19.040000
190.490000 258.480000 -19.040000
183.580000 254.460000 -9.520000
178.620000 252.830000 -9.520000
174.070000 250.270000 -9.520000
169.450000 247.830000 -9.520000
164.710000 245.640000 -9.520000
160.260000 242.880000 -9.520000
156.360000 239.490000 -9.520000
153.000000 235.370000 -9.520000
150.760000 230.830000 -9.520000
149.070000 225.850000 -9.520000
147.700000 220.750000 -9.520000
146.330000 215.670000 -9.520000
145.310000 210.540000 -9.520000
145.370000 205.350000 -9.520000
146.270000 200.050000 -9.520000
147.660000 195.120000 -9.520000
151.030000 190.410000 -9.520000
154.940000 186.520000 -9.520000
152.640000 185.080000 -9.520000
146.610000 183.940000 -9.520000
141.760000 181.910000 -9.520000
139.930000 177.430000 -9.520000
139.120000 172.030000 -9.520000
138.670000 166.790000 -9.520000
138.610000 161.630000 -9.520000
140.040000 156.590000 -9.520000
141.910000 151.690000 -9.520000
144.070000 146.880000 -9.520000
146.650000 142.400000 -9.520000
149.920000 138.090000 -9.520000
154.090000 135.450000 -9.520000
159.250000 133.980000 -9.520000
164.360000 133.390000 -9.520000
169.560000 132.980000 -9.520000
174.810000 132.690000 -9.520000
180.040000 132.490000 -9.520000
185.250000 132.360000 -9.520000
190.460000 132.270000 -9.520000
195.670000 132.160000 -9.520000
200.870000 131.940000 -9.520000
206.070000 131.490000 -9.520000
211.250000 130.930000 -9.520000
216.450000 130.450000 -9.520000
221.690000 129.970000 -9.520000
226.910000 129.570000 -9.520000
232.020000 129.720000 -9.520000
237.000000 131.810000 -9.520000
240.930000 134.820000 -9.520000
244.280000 139.190000 -9.520000
246.470000 143.890000 -9.520000
247.660000 148.950000 -9.520000
248.820000 154.110000 -9.520000
250.720000 159.070000 -9.520000
251.860000 164.080000 -9.520000
251.690000 169.300000 -9.520000
251.180000 174.440000 -9.520000
249.520000 179.410000 -9.520000
247.870000 184.390000 -9.520000
246.520000 189.430000 -9.520000
245.540000 194.540000 -9.520000
244.800000 199.700000 -9.520000
244.180000 204.890000 -9.520000
243.660000 210.090000 -9.520000
242.610000 215.140000 -9.520000
240.770000 220.060000 -9.520000
238.760000 224.890000 -9.520000
236.440000 229.560000 -9.520000
233.580000 233.890000 -9.520000
230.260000 237.950000 -9.520000
226.750000 241.840000 -9.520000
222.970000 245.510000 -9.520000
218.820000 248.450000 -9.520000
214.240000 250.880000 -9.520000
209.250000 252.790000 -9.520000
209.250000 252.790000 -9.520000
204.250000 254.600000 -9.520000
204.250000 254.600000 -9.520000
199.160000 255.420000 -9.520000
193.970000 255.320000 -9.520000
188.730000 255.050000 -9.520000
183.800000 255.880000 0.000000
178.610000 254.220000 0.000000
173.530000 252.450000 0.000000
168.490000 250.510000 0.000000
163.750000 247.990000 0.000000
159.770000 244.590000 0.000000
156.260000 240.420000 0.000000
152.950000 236.190000 0.000000
150.030000 231.720000 0.000000
147.190000 227.010000 0.000000
144.620000 222.110000 0.000000
143.500000 217.050000 0.000000
143.660000 211.770000 0.000000
143.890000 206.360000 0.000000
143.910000 200.920000 0.000000
144.620000 195.990000 0.000000
148.210000 191.630000 0.000000
151.370000 186.620000 0.000000
151.530000 183.610000 0.000000
145.160000 182.880000 0.000000
140.180000 181.500000 0.000000
138.220000 176.140000 0.000000
137.600000 170.840000 0.000000
137.310000 165.450000 0.000000
137.690000 160.110000 0.000000
138.720000 154.850000 0.000000
140.290000 149.710000 0.000000
142.570000 144.730000 0.000000
145.320000 140.250000 0.000000
149.030000 135.970000 0.000000
153.550000 133.880000 0.000000
158.990000 132.970000 0.000000
164.330000 132.690000 0.000000
169.690000 132.490000 0.000000
175.040000 132.190000 0.000000
180.390000 131.800000 0.000000
185.690000 131.230000 0.000000
190.950000 130.240000 0.000000
196.200000 129.120000 0.000000
201.480000 128.110000 0.000000
206.770000 126.980000 0.000000
212.070000 126.000000 0.000000
217.340000 125.470000 0.000000
222.710000 125.740000 0.000000
228.150000 126.920000 0.000000
233.020000 128.630000 0.000000
237.080000 131.880000 0.000000
240.570000 136.210000 0.000000
243.440000 140.710000 0.000000
246.220000 145.330000 0.000000
249.820000 149.740000 0.000000
252.200000 154.310000 0.000000
252.480000 159.460000 0.000000
252.630000 164.950000 0.000000
252.480000 170.280000 0.000000
251.190000 175.470000 0.000000
249.550000 180.650000 0.000000
248.590000 185.910000 0.000000
248.090000 191.250000 0.000000
247.630000 196.590000 0.000000
247.130000 201.920000 0.000000
245.950000 207.100000 0.000000
244.240000 212.210000 0.000000
242.960000 217.420000 0.000000
241.730000 222.640000 0.000000
240.170000 227.730000 0.000000
238.200000 232.810000 0.000000
235.840000 237.620000 0.000000
232.940000 242.020000 0.000000
229.240000 246.100000 0.000000
225.120000 249.280000 0.000000
220.610000 251.900000 0.000000
215.650000 254.070000 0.000000
210.250000 255.610000 0.000000
210.250000 255.610000 0.000000
204.910000 256.810000 0.000000
199.600000 257.450000 0.000000
199.600000 257.450000 0.000000
194.330000 257.630000 0.000000
189.060000 257.120000 0.000000
3 0 80 2
3 0 2 3
3 0 3 4
3 0 4 5
3 0 5 6
3 0 6 7
3 0 7 8
3 0 8 9
3 0 9 10
3 0 10 11
3 0 11 12
3 0 12 13
3 0 13 14
3 0 14 15
3 0 15 16
3 0 16 18
3 0 18 19
3 0 19 20
3 0 20 21
3 0 21 22
3 0 22 23
3 0 23 24
3 0 24 25
3 0 25 26
3 0 26 27
3 0 27 28
3 0 28 29
3 0 29 30
3 0 30 31
3 0 31 32
3 0 32 33
3 0 33 34
3 0 34 35
3 0 35 36
3 0 36 37
3 0 37 38
3 0 38 39
3 0 39 40
3 0 40 41
3 0 41 42
3 0 42 43
3 0 43 44
3 0 44 45
3 0 45 46
3 0 46 47
3 0 47 48
3 0 48 49
3 0 49 50
3 0 50 51
3 0 51 52
3 0 52 53
3 0 53 54
3 0 54 55
3 0 55 56
3 0 56 57
3 0 57 58
3 0 58 59
3 0 59 60
3 0 60 61
3 0 61 62
3 0 62 63
3 0 63 64
3 0 64 65
3 0 65 66
3 0 66 67
3 0 67 68
3 0 68 69
3 0 69 70
3 0 70 71
3 0 71 72
3 0 72 73
3 0 73 74
3 0 74 75
3 0 75 76
3 0 76 77
3 0 77 78
3 0 78 79
3 0 79 80
3 80 81 82
3 80 82 2
3 2 82 83
3 2 83 3
3 3 83 84
3 3 84 4
3 4 84 85
3 4 85 5
3 5 85 86
3 5 86 6
3 6 86 87
3 6 87 7
3 7 87 88
3 7 88 8
3 8 88 89
3 8 89 9
3 9 89 90
3 9 90 10
3 10 90 91
3 10 91 11
3 11 91 92
3 11 92 12
3 12 92 93
3 12 93 13
3 13 93 94
3 13 94 14
3 14 94 95
3 14 95 15
3 15 95 96
3 15 96 16
3 16 96 97
3 16 97 98
3 16 98 18
3 18 98 99
3 18 99 19
3 19 99 100
3 19 100 20
3 20 100 101
3 20 101 21
3 21 101 102
3 21 102 22
3 22 102 103
3 22 103 23
3 23 103 104
3 23 104 24
3 24 104 105
3 24 105 25
3 25 105 106
3 25 106 26
3 26 106 107
3 26 107 27
3 27 107 108
3 27 108 28
3 28 108 109
3 28 109 29
3 29 109 110
3 29 110 30
3 30 110 111
3 30 111 31
3 31 111 112
3 31 112 32
3 32 112 113
3 32 113 33
3 33 113 114
3 33 114 34
3 34 114 115
3 34 115 35
3 35 115 116
3 35 116 36
3 36 116 117
3 36 117 37
3 37 117 118
3 37 118 38
3 38 118 119
3 38 119 39
3 39 119 120
3 39 120 40
3 40 120 121
3 40 121 41
3 41 121 122
3 41 122 42
3 42 122 123
3 42 123 43
3 43 123 124
3 43 124 44
3 44 124 125
3 44 125 45
3 45 125 126
3 45 126 46
3 46 126 127
3 46 127 47
3 47 127 128
3 47 128 48
3 48 128 129
3 48 129 49
3 49 129 130
3 49 130 50
3 50 130 131
3 50 131 51
3 51 131 132
3 51 132 52
3 52 132 133
3 52 133 53
3 53 133 134
3 53 134 54
3 54 134 135
3 54 135 55
3 55 135 136
3 55 136 56
3 56 136 137
3 56 137 57
3 57 137 138
3 57 138 58
3 58 138 139
3 58 139 59
3 59 139 140
3 59 140 60
3 60 140 141
3 60 141 61
3 61 141 142
3 61 142 62
3 62 142 143
3 62 143 63
3 63 143 144
3 63 144 64
3 64 144 145
3 64 145 65
3 65 145 146
3 65 146 66
3 66 146 147
3 66 147 67
3 67 147 148
3 67 148 68
3 68 148 149
3 68 149 69
3 69 149 150
3 69 150 70
3 70 150 71
3 71 150 152
3 71 152 72
3 72 152 153
3 72 153 73
3 73 153 154
3 73 154 74
3 74 154 155
3 74 155 75
3 75 155 76
3 76 155 157
3 76 157 77
3 77 157 158
3 77 158 78
3 78 158 159
3 78 159 79
3 79 159 160
3 79 160 80
3 80 160 81
3 81 161 162
3 81 162 82
3 82 162 163
3 82 163 83
3 83 163 164
3 83 164 84
3 84 164 165
3 84 165 85
3 85 165 166
3 85 166 86
3 86 166 167
3 86 167 87
3 87 167 168
3 87 168 88
3 88 168 169
3 88 169 89
3 89 169 170
3 89 170 90
3 90 170 171
3 90 171 91
3 91 171 172
3 91 172 92
3 92 172 173
3 92 173 93
3 93 173 174
3 93 174 94
3 94 174 175
3 94 175 95
3 95 175 176
3 95 176 96
3 96 176 177
3 96 177 97
3 97 177 178
3 97 178 98
3 98 178 179
3 98 179 99
3 99 179 180
3 99 180 100
3 100 180 181
3 100 181 101
3 101 181 182
3 101 182 102
3 102 182 183
3 102 183 103
3 103 183 184
3 103 184 104
3 104 184 185
3 104 185 105
3 105 185 186
3 105 186 106
3 106 186 187
3 106 187 107
3 107 187 188
3 107 188 108
3 108 188 189
3 108 189 109
3 109 189 190
3 109 190 110
3 110 190 191
3 110 191 111
3 111 191 192
3 111 192 112
3 112 192 193
3 112 193 113
3 113 193 194
3 113 194 114
3 114 194 195
3 114 195 115
3 115 195 196
3 115 196 116
3 116 196 197
3 116 197 117
3 117 197 198
3 117 198 118
3 118 198 199
3 118 199 119
3 119 199 200
3 119 200 120
3 120 200 201
3 120 201 121
3 121 201 202
3 121 202 122
3 122 202 203
3 122 203 123
3 123 203 204
3 123 204 124
3 124 204 205
3 124 205 125
3 125 205 206
3 125 206 126
3 126 206 207
3 126 207 127
3 127 207 208
3 127 208 128
3 128 208 209
3 128 209 129
3 129 209 210
3 129 210 130
3 130 210 211
3 130 211 131
3 131 211 212
3 131 212 132
3 132 212 213
3 132 213 133
3 133 213 214
3 133 214 134
3 134 214 215
3 134 215 135
3 135 215 216
3 135 216 136
3 136 216 217
3 136 217 137
3 137 217 218
3 137 218 138
3 138 218 219
3 138 219 139
3 139 219 220
3 139 220 140
3 140 220 221
3 140 221 141
3 141 221 222
3 141 222 142
3 142 222 223
3 142 223 143
3 143 223 224
3 143 224 144
3 144 224 225
3 144 225 145
3 145 225 226
3 145 226 146
3 146 226 227
3 146 227 147
3 147 227 228
3 147 228 148
3 148 228 229
3 148 229 149
3 149 229 230
3 149 230 150
3 150 230 231
3 150 231 232
3 150 232 152
3 152 232 153
3 153 232 234
3 153 234 154
3 154 234 235
3 154 235 155
3 155 235 237
3 155 237 157
3 157 237 238
3 157 238 158
3 158 238 239
3 158 239 159
3 159 239 240
3 159 240 160
3 160 240 161
3 160 161 81
3 161 241 242
3 161 242 162
3 162 242 243
3 162 243 163
3 163 243 244
3 163 244 164
3 164 244 245
3 164 245 165
3 165 245 246
3 165 246 166
3 166 246 247
3 166 247 167
3 167 247 248
3 167 248 168
3 168 248 249
3 168 249 169
3 169 249 250
3 169 250 170
3 170 250 251
3 170 251 171
3 171 251 252
3 171 252 172
3 172 252 253
3 172 253 173
3 173 253 254
3 173 254 174
3 174 254 255
3 174 255 175
3 175 255 256
3 175 256 176
3 176 256 257
3 176 257 177
3 177 257 258
3 177 258 178
3 178 258 259
3 178 259 179
3 179 259 260
3 179 260 180
3 180 260 261
3 180 261 181
3 181 261 262
3 181 262 182
3 182 262 263
3 182 263 183
3 183 263 264
3 183 264 184
3 184 264 265
3 184 265 185
3 185 265 266
3 185 266 186
3 186 266 267
3 186 267 187
3 187 267 268
3 187 268 188
3 188 268 269
3 188 269 189
3 189 269 270
3 189 270 190
3 190 270 271
3 190 271 191
3 191 271 272
3 191 272 192
3 192 272 273
3 192 273 193
3 193 273 274
3 193 274 194
3 194 274 275
3 194 275 195
3 195 275 276
3 195 276 196
3 196 276 277
3 196 277 197
3 197 277 278
3 197 278 198
3 198 278 279
3 198 279 199
3 199 279 280
3 199 280 200
3 200 280 281
3 200 281 201
3 201 281 282
3 201 282 202
3 202 282 283
3 202 283 203
3 203 283 284
3 203 284 204
3 204 284 285
3 204 285 205
3 205 285 286
3 205 286 206
3 206 286 287
3 206 287 207
3 207 287 288
3 207 288 208
3 208 288 289
3 208 289 209
3 209 289 290
3 209 290 210
3 210 290 291
3 210 291 211
3 211 291 292
3 211 292 212
3 212 292 293
3 212 293 213
3 213 293 294
3 213 294 214
3 214 294 295
3 214 295 215
3 215 295 296
3 215 296 216
3 216 296 297
3 216 297 217
3 217 297 298
3 217 298 218
3 218 298 299
3 218 299 219
3 219 299 300
3 219 300 220
3 220 300 301
3 220 301 221
3 221 301 302
3 221 302 222
3 222 302 303
3 222 303 223
3 223 303 304
3 223 304 224
3 224 304 305
3 224 305 225
3 225 305 306
3 225 306 226
3 226 306 307
3 226 307 227
3 227 307 308
3 227 308 228
3 228 308 309
3 228 309 229
3 229 309 310
3 229 310 230
3 230 310 311
3 230 311 231
3 231 311 312
3 231 312 232
3 232 312 314
3 232 314 234
3 234 314 315
3 234 315 235
3 235 315 317
3 235 317 237
3 237 317 318
3 237 318 238
3 238 318 319
3 238 319 239
3 239 319 320
3 239 320 240
3 240 320 241
3 240 241 161
3 241 321 322
3 241 322 242
3 242 322 323
3 242 323 243
3 243 323 324
3 243 324 244
3 244 324 325
3 244 325 245
3 245 325 326
3 245 326 246
3 246 326 327
3 246 327 247
3 247 327 328
3 247 328 248
3 248 328 329
3 248 329 249
3 249 329 330
3 249 330 250
3 250 330 331
3 250 331 251
3 251 331 332
3 251 332 252
3 252 332 333
3 252 333 253
3 253 333 334
3 253 334 254
3 254 334 335
3 254 335 255
3 255 335 336
3 255 336 256
3 256 336 337
3 256 337 257
3 257 337 338
3 257 338 258
3 258 338 339
3 258 339 259
3 259 339 340
3 259 340 260
3 260 340 341
3 260 341 261
3 261 341 342
3 261 342 262
3 262 342 343
3 262 343 263
3 263 343 344
3 263 344 264
3 264 344 345
3 264 345 265
3 265 345 346
3 265 346 266
3 266 346 347
3 266 347 267
3 267 347 348
3 267 348 268
3 268 348 349
3 268 349 269
3 269 349 350
3 269 350 270
3 270 350 351
3 270 351 271
3 271 351 352
3 271 352 272
3 272 352 353
3 272 353 273
3 273 353 354
3 273 354 274
3 274 354 355
3 274 355 275
3 275 355 356
3 275 356 276
3 276 356 357
3 276 357 277
3 277 357 358
3 277 358 278
3 278 358 359
3 278 359 279
3 279 359 360
3 279 360 280
3 280 360 361
3 280 361 281
3 281 361 362
3 281 362 282
3 282 362 363
3 282 363 283
3 283 363 364
3 283 364 284
3 284 364 365
3 284 365 285
3 285 365 366
3 285 366 286
3 286 366 367
3 286 367 287
3 287 367 368
3 287 368 288
3 288 368 369
3 288 369 289
3 289 369 370
3 289 370 290
3 290 370 371
3 290 371 291
3 291 371 372
3 291 372 292
3 292 372 373
3 292 373 293
3 293 373 374
3 293 374 294
3 294 374 375
3 294 375 295
3 295 375 376
3 295 376 296
3 296 376 377
3 296 377 297
3 297 377 378
3 297 378 298
3 298 378 379
3 298 379 299
3 299 379 380
3 299 380 300
3 300 380 381
3 300 381 301
3 301 381 382
3 301 382 302
3 302 382 383
3 302 383 303
3 303 383 384
3 303 384 304
3 304 384 385
3 304 385 305
3 305 385 386
3 305 386 306
3 306 386 387
3 306 387 307
3 307 387 388
3 307 388 308
3 308 388 389
3 308 389 309
3 309 389 390
3 309 390 310
3 310 390 391
3 310 391 311
3 311 391 392
3 311 392 312
3 312 392 393
3 312 393 394
3 312 394 314
3 314 394 315
3 315 394 397
3 315 397 317
3 317 397 398
3 317 398 318
3 318 398 399
3 318 399 319
3 319 399 400
3 319 400 320
3 320 400 321
3 320 321 241
3 321 401 402
3 321 402 322
3 322 402 323
3 323 402 404
3 323 404 324
3 324 404 405
3 324 405 325
3 325 405 406
3 325 406 326
3 326 406 407
3 326 407 327
3 327 407 408
3 327 408 328
3 328 408 409
3 328 409 329
3 329 409 410
3 329 410 330
3 330 410 411
3 330 411 331
3 331 411 412
3 331 412 332
3 332 412 413
3 332 413 333
3 333 413 414
3 333 414 334
3 334 414 415
3 334 415 335
3 335 415 416
3 335 416 336
3 336 416 417
3 336 417 337
3 337 417 418
3 337 418 338
3 338 418 419
3 338 419 339
3 339 419 420
3 339 420 340
3 340 420 421
3 340 421 341
3 341 421 422
3 341 422 342
3 342 422 423
3 342 423 343
3 343 423 424
3 343 424 344
3 344 424 425
3 344 425 345
3 345 425 426
3 345 426 346
3 346 426 427
3 346 427 347
3 347 427 428
3 347 428 348
3 348 428 429
3 348 429 349
3 349 429 430
3 349 430 350
3 350 430 431
3 350 431 351
3 351 431 432
3 351 432 352
3 352 432 433
3 352 433 353
3 353 433 434
3 353 434 354
3 354 434 435
3 354 435 355
3 355 435 436
3 355 436 356
3 356 436 437
3 356 437 357
3 357 437 438
3 357 438 358
3 358 438 439
3 358 439 359
3 359 439 440
3 359 440 360
3 360 440 441
3 360 441 361
3 361 441 442
3 361 442 362
3 362 442 443
3 362 443 363
3 363 443 444
3 363 444 364
3 364 444 445
3 364 445 365
3 365 445 446
3 365 446 366
3 366 446 447
3 366 447 367
3 367 447 448
3 367 448 368
3 368 448 449
3 368 449 369
3 369 449 450
3 369 450 370
3 370 450 451
3 370 451 371
3 371 451 452
3 371 452 372
3 372 452 453
3 372 453 373
3 373 453 454
3 373 454 374
3 374 454 455
3 374 455 375
3 375 455 456
3 375 456 376
3 376 456 457
3 376 457 377
3 377 457 458
3 377 458 378
3 378 458 459
3 378 459 379
3 379 459 460
3 379 460 380
3 380 460 461
3 380 461 381
3 381 461 462
3 381 462 382
3 382 462 463
3 382 463 383
3 383 463 464
3 383 464 384
3 384 464 465
3 384 465 385
3 385 465 466
3 385 466 386
3 386 466 467
3 386 467 387
3 387 467 468
3 387 468 388
3 388 468 469
3 388 469 389
3 389 469 470
3 389 470 390
3 390 470 471
3 390 471 391
3 391 471 472
3 391 472 392
3 392 472 473
3 392 473 393
3 393 473 474
3 393 474 394
3 394 474 475
3 394 475 476
3 394 476 397
3 397 476 478
3 397 478 398
3 398 478 479
3 398 479 399
3 399 479 480
3 399 480 400
3 400 480 401
3 400 401 321
3 401 481 482
3 401 482 402
3 402 482 483
3 402 483 484
3 402 484 404
3 404 484 485
3 404 485 405
3 405 485 486
3 405 486 406
3 406 486 487
3 406 487 407
3 407 487 488
3 407 488 408
3 408 488 489
3 408 489 409
3 409 489 490
3 409 490 410
3 410 490 491
3 410 491 411
3 411 491 492
3 411 492 412
3 412 492 493
3 412 493 413
3 413 493 494
3 413 494 414
3 414 494 495
3 414 495 415
3 415 495 496
3 415 496 416
3 416 496 497
3 416 497 417
3 417 497 498
3 417 498 418
3 418 498 499
3 418 499 419
3 419 499 500
3 419 500 420
3 420 500 501
3 420 501 421
3 421 501 502
3 421 502 422
3 422 502 503
3 422 503 423
3 423 503 504
3 423 504 424
3 424 504 505
3 424 505 425
3 425 505 506
3 425 506 426
3 426 506 507
3 426 507 427
3 427 507 508
3 427 508 428
3 428 508 509
3 428 509 429
3 429 509 510
3 429 510 430
3 430 510 511
3 430 511 431
3 431 511 512
3 431 512 432
3 432 512 513
3 432 513 433
3 433 513 514
3 433 514 434
3 434 514 515
3 434 515 435
3 435 515 516
3 435 516 436
3 436 516 517
3 436 517 437
3 437 517 518
3 437 518 438
3 438 518 519
3 438 519 439
3 439 519 520
3 439 520 440
3 440 520 521
3 440 521 441
3 441 521 522
3 441 522 442
3 442 522 523
3 442 523 443
3 443 523 524
3 443 524 444
3 444 524 525
3 444 525 445
3 445 525 526
3 445 526 446
3 446 526 527
3 446 527 447
3 447 527 528
3 447 528 448
3 448 528 529
3 448 529 449
3 449 529 530
3 449 530 450
3 450 530 531
3 450 531 451
3 451 531 532
3 451 532 452
3 452 532 533
3 452 533 453
3 453 533 534
3 453 534 454
3 454 534 535
3 454 535 455
3 455 535 536
3 455 536 456
3 456 536 537
3 456 537 457
3 457 537 538
3 457 538 458
3 458 538 539
3 458 539 459
3 459 539 540
3 459 540 460
3 460 540 541
3 460 541 461
3 461 541 542
3 461 542 462
3 462 542 543
3 462 543 463
3 463 543 544
3 463 544 464
3 464 544 545
3 464 545 465
3 465 545 546
3 465 546 466
3 466 546 547
3 466 547 467
3 467 547 548
3 467 548 468
3 468 548 549
3 468 549 469
3 469 549 550
3 469 550 470
3 470 550 551
3 470 551 471
3 471 551 552
3 471 552 472
3 472 552 553
3 472 553 473
3 473 553 554
3 473 554 474
3 474 554 475
3 475 554 556
3 475 556 476
3 476 556 558
3 476 558 478
3 478 558 559
3 478 559 479
3 479 559 560
3 479 560 480
3 480 560 481
3 480 481 401
3 481 561 562
3 481 562 482
3 482 562 563
3 482 563 483
3 483 563 564
3 483 564 484
3 484 564 565
3 484 565 485
3 485 565 566
3 485 566 486
3 486 566 567
3 486 567 487
3 487 567 568
3 487 568 488
3 488 568 569
3 488 569 489
3 489 569 570
3 489 570 490
3 490 570 571
3 490 571 491
3 491 571 572
3 491 572 492
3 492 572 573
3 492 573 493
3 493 573 574
3 493 574 494
3 494 574 575
3 494 575 495
3 495 575 576
3 495 576 496
3 496 576 577
3 496 577 497
3 497 577 578
3 497 578 498
3 498 578 579
3 498 579 499
3 499 579 580
3 499 580 500
3 500 580 581
3 500 581 501
3 501 581 582
3 501 582 502
3 502 582 583
3 502 583 503
3 503 583 584
3 503 584 504
3 504 584 585
3 504 585 505
3 505 585 586
3 505 586 506
3 506 586 587
3 506 587 507
3 507 587 588
3 507 588 508
3 508 588 589
3 508 589 509
3 509 589 590
3 509 590 510
3 510 590 591
3 510 591 511
3 511 591 592
3 511 592 512
3 512 592 593
3 512 593 513
3 513 593 594
3 513 594 514
3 514 594 595
3 514 595 515
3 515 595 596
3 515 596 516
3 516 596 597
3 516 597 517
3 517 597 598
3 517 598 518
3 518 598 599
3 518 599 519
3 519 599 600
3 519 600 520
3 520 600 601
3 520 601 521
3 521 601 602
3 521 602 522
3 522 602 603
3 522 603 523
3 523 603 604
3 523 604 524
3 524 604 605
3 524 605 525
3 525 605 606
3 525 606 526
3 526 606 607
3 526 607 527
3 527 607 608
3 527 608 528
3 528 608 609
3 528 609 529
3 529 609 610
3 529 610 530
3 530 610 611
3 530 611 531
3 531 611 612
3 531 612 532
3 532 612 613
3 532 613 533
3 533 613 614
3 533 614 534
3 534 614 615
3 534 615 535
3 535 615 616
3 535 616 536
3 536 616 617
3 536 617 537
3 537 617 618
3 537 618 538
3 538 618 619
3 538 619 539
3 539 619 620
3 539 620 540
3 540 620 621
3 540 621 541
3 541 621 622
3 541 622 542
3 542 622 623
3 542 623 543
3 543 623 624
3 543 624 544
3 544 624 625
3 544 625 545
3 545 625 626
3 545 626 546
3 546 626 627
3 546 627 547
3 547 627 628
3 547 628 548
3 548 628 629
3 548 629 549
3 549 629 630
3 549 630 550
3 550 630 631
3 550 631 551
3 551 631 632
3 551 632 552
3 552 632 633
3 552 633 553
3 553 633 554
3 554 633 635
3 554 635 636
3 554 636 556
3 556 636 638
3 556 638 558
3 558 638 639
3 558 639 559
3 559 639 640
3 559 640 560
3 560 640 561
3 560 561 481
3 561 641 642
3 561 642 562
3 562 642 643
3 562 643 563
3 563 643 644
3 563 644 564
3 564 644 645
3 564 645 565
3 565 645 646
3 565 646 566
3 566 646 647
3 566 647 567
3 567 647 648
3 567 648 568
3 568 648 649
3 568 649 569
3 569 649 650
3 569 650 570
3 570 650 651
3 570 651 571
3 571 651 652
3 571 652 572
3 572 652 653
3 572 653 573
3 573 653 654
3 573 654 574
3 574 654 655
3 574 655 575
3 575 655 656
3 575 656 576
3 576 656 657
3 576 657 577
3 577 657 658
3 577 658 578
3 578 658 659
3 578 659 579
3 579 659 660
3 579 660 580
3 580 660 661
3 580 661 581
3 581 661 662
3 581 662 582
3 582 662 663
3 582 663 583
3 583 663 664
3 583 664 584
3 584 664 665
3 584 665 585
3 585 665 666
3 585 666 586
3 586 666 667
3 586 667 587
3 587 667 668
3 587 668 588
3 588 668 669
3 588 669 589
3 589 669 670
3 589 670 590
3 590 670 671
3 590 671 591
3 591 671 672
3 591 672 592
3 592 672 673
3 592 673 593
3 593 673 674
3 593 674 594
3 594 674 675
3 594 675 595
3 595 675 676
3 595 676 596
3 596 676 677
3 596 677 597
3 597 677 678
3 597 678 598
3 598 678 679
3 598 679 599
3 599 679 680
3 599 680 600
3 600 680 681
3 600 681 601
3 601 681 682
3 601 682 602
3 602 682 683
3 602 683 603
3 603 683 684
3 603 684 604
3 604 684 685
3 604 685 605
3 605 685 686
3 605 686 606
3 606 686 687
3 606 687 607
3 607 687 688
3 607 688 608
3 608 688 689
3 608 689 609
3 609 689 690
3 609 690 610
3 610 690 691
3 610 691 611
3 611 691 692
3 611 692 612
3 612 692 693
3 612 693 613
3 613 693 694
3 613 694 614
3 614 694 695
3 614 695 615
3 615 695 696
3 615 696 616
3 616 696 697
3 616 697 617
3 617 697 698
3 617 698 618
3 618 698 699
3 618 699 619
3 619 699 700
3 619 700 620
3 620 700 701
3 620 701 621
3 621 701 702
3 621 702 622
3 622 702 703
3 622 703 623
3 623 703 704
3 623 704 624
3 624 704 705
3 624 705 625
3 625 705 706
3 625 706 626
3 626 706 707
3 626 707 627
3 627 707 708
3 627 708 628
3 628 708 709
3 628 709 629
3 629 709 710
3 629 710 630
3 630 710 711
3 630 711 631
3 631 711 712
3 631 712 632
3 632 712 713
3 632 713 633
3 633 713 714
3 633 714 635
3 635 714 716
3 635 716 636
3 636 716 718
3 636 718 638
3 638 718 719
3 638 719 639
3 639 719 720
3 639 720 640
3 640 720 641
3 640 641 561
3 641 721 722
3 641 722 642
3 642 722 723
3 642 723 643
3 643 723 724
3 643 724 644
3 644 724 725
3 644 725 645
3 645 725 726
3 645 726 646
3 646 726 727
3 646 727 647
3 647 727 728
3 647 728 648
3 648 728 729
3 648 729 649
3 649 729 730
3 649 730 650
3 650 730 731
3 650 731 651
3 651 731 732
3 651 732 652
3 652 732 733
3 652 733 653
3 653 733 734
3 653 734 654
3 654 734 735
3 654 735 655
3 655 735 736
3 655 736 656
3 656 736 737
3 656 737 657
3 657 737 738
3 657 738 658
3 658 738 739
3 658 739 659
3 659 739 740
3 659 740 660
3 660 740 741
3 660 741 661
3 661 741 742
3 661 742 662
3 662 742 743
3 662 743 663
3 663 743 744
3 663 744 664
3 664 744 745
3 664 745 665
3 665 745 746
3 665 746 666
3 666 746 747
3 666 747 667
3 667 747 748
3 667 748 668
3 668 748 749
3 668 749 669
3 669 749 750
3 669 750 670
3 670 750 751
3 670 751 671
3 671 751 752
3 671 752 672
3 672 752 753
3 672 753 673
3 673 753 754
3 673 754 674
3 674 754 755
3 674 755 675
3 675 755 756
3 675 756 676
3 676 756 757
3 676 757 677
3 677 757 758
3 677 758 678
3 678 758 759
3 678 759 679
3 679 759 760
3 679 760 680
3 680 760 761
3 680 761 681
3 681 761 762
3 681 762 682
3 682 762 763
3 682 763 683
3 683 763 764
3 683 764 684
3 684 764 765
3 684 765 685
3 685 765 766
3 685 766 686
3 686 766 767
3 686 767 687
3 687 767 768
3 687 768 688
3 688 768 769
3 688 769 689
3 689 769 770
3 689 770 690
3 690 770 771
3 690 771 691
3 691 771 772
3 691 772 692
3 692 772 773
3 692 773 693
3 693 773 774
3 693 774 694
3 694 774 775
3 694 775 695
3 695 775 776
3 695 776 696
3 696 776 777
3 696 777 697
3 697 777 778
3 697 778 698
3 698 778 779
3 698 779 699
3 699 779 780
3 699 780 700
3 700 780 781
3 700 781 701
3 701 781 782
3 701 782 702
3 702 782 783
3 702 783 703
3 703 783 784
3 703 784 704
3 704 784 785
3 704 785 705
3 705 785 786
3 705 786 706
3 706 786 787
3 706 787 707
3 707 787 788
3 707 788 708
3 708 788 789
3 708 789 709
3 709 789 790
3 709 790 710
3 710 790 791
3 710 791 711
3 711 791 792
3 711 792 712
3 712 792 793
3 712 793 713
3 713 793 794
3 713 794 714
3 714 794 796
3 714 796 716
3 716 796 797
3 716 797 718
3 718 797 799
3 718 799 719
3 719 799 800
3 719 800 720
3 720 800 721
3 720 721 641
